<svg width="338" height="208" viewBox="0 0 338 208" fill="none" xmlns="http://www.w3.org/2000/svg">
<path d="M169.049 3.15698C170.397 3.24925 171.518 4.23223 171.785 5.55737C176.349 28.2135 189.695 48.9908 208.313 62.6697C208.914 60.0975 209.515 57.5251 210.115 54.9529C211.052 50.9422 211.988 46.9314 212.924 42.9216L212.98 42.7146C213.297 41.6926 214.138 40.9104 215.193 40.6755C216.319 40.4251 217.489 40.842 218.202 41.7478C229.809 56.4836 236.765 74.776 238.069 93.4734C240.729 89.3994 243.781 85.4808 247.21 82.2429C253.275 76.5165 260.9 72.6002 269.771 74.3455L270.194 74.4333L270.447 74.4998C271.686 74.882 272.55 76.0258 272.561 77.3416C272.72 97.2717 275.724 117.179 281.436 136.276C285.455 124.046 290.177 112.048 295.574 100.36L295.678 100.158C296.227 99.1709 297.291 98.5698 298.433 98.6208C299.65 98.6754 300.713 99.4608 301.123 100.608L316.841 144.584C321.083 133.487 330.67 124.406 342.26 121.421L342.545 121.362C343.971 121.138 345.377 121.969 345.85 123.363C349.204 133.256 353.671 150.765 351.365 172.489C350.091 184.516 347.078 194.635 343.991 202.446C343.539 203.591 342.432 204.344 341.201 204.344H19.9746C18.8918 204.343 17.8929 203.759 17.3613 202.816C3.72029 178.608 -0.458455 149.244 5.92285 122.196L5.99316 121.947C6.39498 120.724 7.54204 119.883 8.84863 119.885C10.2423 119.888 11.451 120.85 11.7656 122.208L11.9727 123.085C15.9451 139.55 24.1127 154.989 35.4492 167.571C42.4265 123.725 45.9978 79.3398 46.127 34.9441L46.1406 34.6638C46.2734 33.2796 47.3505 32.1509 48.7549 31.9753C50.2528 31.7882 51.6564 32.7438 52.0322 34.2058C55.6869 48.429 65.3252 62.1912 75.3584 74.3308L78.2197 77.7917C84.9473 85.9471 91.949 94.6503 97.3672 103.916C100.713 109.637 103.496 115.643 105.259 121.951C108.14 107.057 109.02 91.7739 107.834 76.6492C107.729 75.3093 108.528 74.0633 109.789 73.5994C111.05 73.1354 112.467 73.5665 113.255 74.655C130.518 98.4992 142.615 126.047 148.546 154.875C154.16 143.82 157.988 131.855 159.807 119.591L159.854 119.343C160.14 118.124 161.161 117.201 162.421 117.052C163.765 116.892 165.05 117.652 165.557 118.908C168.609 126.476 171.662 134.045 174.715 141.615C181.555 123.155 177.642 101.533 172.175 80.9177L171.58 78.698C165.273 55.432 157.619 29.2449 166.011 5.16284L166.104 4.92944C166.612 3.78735 167.784 3.07052 169.049 3.15698Z" fill="#FCA800" stroke="black" stroke-width="6" stroke-linejoin="round"/>
<path d="M193.875 85.0059C195.354 84.4423 197.016 85.1253 197.673 86.5654C204.756 102.101 211.842 117.635 218.928 133.169C219.524 130.011 220.121 126.852 220.717 123.696L220.759 123.505C221.002 122.561 221.691 121.788 222.611 121.443C223.593 121.075 224.696 121.247 225.52 121.896C233.058 127.828 237.124 136.159 239.369 145.013C240.738 150.411 241.451 156.098 241.847 161.697C247.44 151.875 253.03 142.061 258.628 132.231L258.758 132.024C259.444 131.02 260.677 130.522 261.881 130.787C263.165 131.07 264.115 132.156 264.225 133.466C265.471 148.325 268.875 163 274.285 176.895C280.791 170.802 287.005 164.395 292.891 157.704L293.035 157.551C293.784 156.811 294.871 156.515 295.9 156.783C296.996 157.069 297.839 157.948 298.076 159.057L303.076 182.368L326.418 170.229C327.483 169.674 328.777 169.809 329.705 170.57C330.633 171.332 331.018 172.574 330.684 173.727L322.422 202.18C322.05 203.461 320.876 204.343 319.541 204.343H31.381C30.57 204.343 29.8043 204.015 29.2472 203.451C26.0402 200.589 21.9501 196.026 19.3097 189.459L18.9376 188.494C17.1442 183.645 16.3488 178.417 16.3419 174.17C16.3383 171.915 16.5557 169.786 17.049 168.068C17.2945 167.213 17.6452 166.329 18.1671 165.562C18.6843 164.801 19.5265 163.934 20.7999 163.573L21.0011 163.521C23.063 163.04 24.673 164.221 25.4952 165.001C26.4309 165.888 27.2681 167.101 28.005 168.312C29.4821 170.738 31.1187 174.13 32.714 177.208C34.3803 180.423 36.0567 183.413 37.7726 185.543C39.6186 187.835 40.7984 188.246 41.3693 188.203L41.4952 188.186C42.1634 188.06 43.3881 187.282 44.9445 184.607C46.4837 181.962 47.8682 178.27 49.0685 174.161C51.4582 165.98 52.9206 156.851 53.5646 152.825L53.8029 151.284C56.0194 136.461 55.7079 123.781 54.9142 114.656L54.7433 112.819C54.5891 111.255 55.669 109.836 57.2179 109.568C58.7669 109.301 60.2607 110.274 60.6407 111.8L60.9113 112.873C66.6916 135.385 77.5344 156.59 92.4093 174.45L92.4103 174.451L92.7941 174.9C93.6979 175.932 94.6508 176.826 95.5773 177.39C96.6113 178.019 97.2589 178.04 97.7267 177.877L97.7286 177.876L97.8458 177.83C98.4333 177.574 99.0619 176.905 100.067 175.463C107.727 164.455 113.511 152.139 117.091 139.216L117.161 138.994C117.554 137.908 118.543 137.137 119.707 137.029C120.948 136.915 122.131 137.58 122.678 138.7C128.59 150.814 132.467 163.916 134.095 177.294L134.301 178.933C134.508 180.452 134.746 181.634 135.276 182.666L135.372 182.846C136.406 184.676 138.503 185.75 141.28 185.771C144.165 185.794 147.191 184.632 149.112 182.687L149.507 182.271C153.494 177.911 154.716 171.439 155.788 164.323L155.834 164.084C156.11 162.906 157.074 161.999 158.284 161.807C159.576 161.602 160.851 162.258 161.437 163.427C164.583 169.71 167.733 175.989 170.883 182.273H170.884C171.303 183.108 171.659 183.741 172.035 184.198C172.392 184.632 172.599 184.701 172.666 184.717H172.665C172.715 184.728 172.856 184.748 173.157 184.691C173.472 184.633 173.848 184.515 174.354 184.326L174.355 184.325L175.104 184.036C190.725 177.786 200.234 160.179 201.622 142.506C202.947 125.643 198.29 108.896 193.117 92.0645L192.078 88.6973C191.61 87.1854 192.396 85.5694 193.875 85.0059Z" fill="#FEC400" stroke="black" stroke-width="6" stroke-linejoin="round"/>
</svg>
