<svg width="326" height="668" viewBox="0 0 326 668" fill="none" xmlns="http://www.w3.org/2000/svg">
<path d="M626.445 4.27148C628.41 4.3508 629.965 5.93676 630.025 7.88086L630.026 8.07031C629.045 60.3043 646.915 112.881 680.141 153.209H680.14C692.641 168.379 707.103 181.808 721.758 195.463C736.349 209.059 751.127 222.878 763.877 238.606H763.878L765.449 240.57C794.071 276.754 810.833 322.096 812.966 368.156C823.688 337.331 828.869 304.575 828.101 271.944C828.06 270.219 829.208 268.69 830.877 268.249C832.546 267.808 834.3 268.569 835.118 270.089C864.468 324.649 871.74 390.624 855.151 450.297C861.838 449.397 868.167 445.139 875.452 439.955C883.815 434.004 893.59 426.691 905.268 427.089H905.267C919.508 427.57 927.829 437.79 932.169 449.902C936.503 461.999 937.304 476.905 936.203 489.24C931.711 539.607 927.211 589.979 922.712 640.346C946.625 611.043 972.848 583.618 1001.06 558.423L1001.26 558.251C1002.32 557.433 1003.75 557.242 1005 557.771C1006.33 558.334 1007.21 559.614 1007.27 561.057C1008.99 603.957 1010.72 646.858 1012.44 689.759C1012.44 689.834 1012.45 689.91 1012.45 689.986V690C1012.45 692.032 1010.82 693.691 1008.79 693.731C1008.66 693.734 1008.53 693.729 1008.4 693.719H24.8574C23.354 693.719 22.0083 692.818 21.4258 691.452L21.3193 691.173C11.9508 663.225 -2.04985 608.952 7.42188 541.188L7.65332 539.561C17.6167 470.798 46.9458 422.178 63.4736 398.514L63.6094 398.332C64.3112 397.447 65.3806 396.924 66.5186 396.919C67.7321 396.914 68.872 397.499 69.5752 398.488C79.8718 412.972 83.7624 429.829 84.8525 447.062C85.8027 462.083 84.6324 477.706 83.5752 492.515L83.1357 498.808C82.0178 515.416 82.3279 533.18 86.2354 549.028C89.7831 563.418 96.2318 575.991 107.055 584.798C133.283 535.47 158.613 482.648 148.854 429.641L148.611 428.356C145.12 410.446 137.737 393.677 129.661 376.687C121.644 359.82 112.889 342.637 107.142 324.435L107.141 324.434C85.7279 256.606 107.866 185.169 134.914 119.574L134.986 119.41C135.768 117.743 137.661 116.887 139.441 117.424C141.279 117.978 142.396 119.836 142.025 121.719C134.753 158.596 152.538 201.834 177.147 234.383L178.637 236.339C186.121 246.1 194.165 255.602 202.329 265.136C211.015 275.28 219.851 285.478 228.165 295.942C242.584 314.091 255.609 333.26 263.923 354.979C271.712 332.265 277.076 308.72 279.886 284.869L279.928 284.597C280.188 283.25 281.171 282.145 282.496 281.738C283.91 281.304 285.448 281.745 286.415 282.864C319.005 320.554 340.718 367.517 348.41 416.738C374.913 389.761 381.427 351.821 385.262 310.442C389.286 267.023 390.311 219.714 410.565 181.033L410.655 180.871C411.622 179.226 413.69 178.568 415.439 179.378C417.246 180.214 418.078 182.321 417.33 184.166C408.104 206.929 411.259 230.813 420.867 254.366C430.49 277.954 446.435 300.827 462.206 321.254L463.693 323.187C479.081 343.241 494.939 365.942 504.848 389.646C513.005 409.161 517.227 429.597 513.67 449.918C562.609 393.614 596.349 324.158 610.156 250.837L610.191 250.669C610.599 248.942 612.175 247.732 613.964 247.799C615.81 247.868 617.328 249.278 617.532 251.114C626.127 328.273 635.533 405.337 645.734 482.301C666.277 458.166 683.686 431.149 689.111 400.768L689.309 399.63C693.338 375.729 689.841 351.859 683.121 327.923C676.262 303.493 666.221 279.52 657.556 255.296V255.295C629.3 176.289 617.382 91.5078 622.57 7.76953L622.586 7.58105C622.803 5.64795 624.48 4.1922 626.445 4.27148Z" fill="#FCA800" stroke="black" stroke-width="7.46393" stroke-linejoin="round"/>
<path d="M158.31 333.545C159.677 332.628 161.483 332.714 162.756 333.758L164.207 334.956C222.599 383.438 263.35 452.643 277.648 527.151C291.251 499.489 301.741 470.3 308.832 440.307L308.918 440.001C309.411 438.5 310.806 437.458 312.409 437.435C314.119 437.41 315.627 438.55 316.069 440.202C326.557 479.442 337.043 518.667 347.531 557.906C354.027 555.866 359.504 551.481 364.276 545.643C369.862 538.808 374.27 530.241 378.038 521.837H378.039L379.856 517.761C398.522 475.595 413.973 432.004 426.025 387.495L426.116 387.203C426.632 385.772 427.976 384.786 429.518 384.74C431.162 384.692 432.644 385.726 433.166 387.285C451.717 442.656 457.301 502.323 449.338 560.175L449.337 560.174C448.872 563.582 448.664 565.916 449.392 567.733L449.55 568.09L449.551 568.091L449.731 568.427C450.641 569.972 452.503 571.243 455.085 572.232L455.65 572.439L455.652 572.44L456.161 572.615C466.877 576.208 477.855 573.751 488.439 567.712C499.218 561.562 509.212 551.887 517.327 542.057L518.539 540.582C543.908 509.56 564.671 474.781 579.941 437.736L580.074 437.446C580.801 436.037 582.351 435.229 583.942 435.466C585.638 435.719 586.944 437.097 587.106 438.805L597.08 543.836V543.837L597.226 545.3C597.991 552.638 599.344 560.3 602.033 566.68C604.887 573.449 609.031 578.307 615.156 580.211H615.156L615.563 580.332C619.761 581.527 624.221 581.063 628.861 579.471C633.674 577.82 638.452 575.032 642.953 571.99L644.514 570.926C709.823 525.949 748.82 445.136 743.397 366.025L743.259 364.142C743.113 362.26 744.395 360.566 746.245 360.195C748.096 359.823 749.932 360.891 750.524 362.683C769.805 421.091 787.54 483.552 779.513 545.123L808.297 511.779C814.284 504.841 821.575 496.498 831.771 493.491L832.281 493.349C837.565 491.932 843.458 492.56 848.304 494.827C853.326 497.177 857.681 501.542 858.569 507.752C858.661 508.398 858.583 509.057 858.341 509.662C846.042 540.517 841.58 574.457 845.41 607.446C856.286 597.028 866.637 586.069 876.416 574.619L876.583 574.438C877.44 573.559 878.68 573.153 879.9 573.367C881.2 573.596 882.284 574.495 882.748 575.731C892.256 601.037 895.432 621.776 896.527 636.331L896.648 638.021C897.222 646.433 897.358 654.369 898.607 661.367C899.888 668.55 902.16 673.444 906.216 676.049L906.614 676.294L906.615 676.295L907.064 676.547C909.29 677.736 911.387 677.912 915.662 678.166H915.663L916.35 678.201C930.772 678.804 946.41 671.352 955.35 659.402C960.327 652.744 962.568 645.565 963.688 639.944C964.248 637.135 964.521 634.754 964.732 632.98C964.83 632.152 964.933 631.288 965.062 630.639C965.119 630.35 965.235 629.813 965.48 629.278C965.599 629.017 965.866 628.49 966.385 627.994C966.943 627.462 967.875 626.909 969.084 626.922L969.33 626.933L969.34 626.934L969.541 626.953C971.587 627.208 972.434 628.88 972.564 629.135C972.834 629.667 972.967 630.196 973.04 630.531C973.199 631.256 973.298 632.169 973.369 633.19C973.515 635.285 973.581 638.475 973.555 643.016C973.503 652.128 973.077 667.003 972.082 690.16C971.996 692.157 970.352 693.732 968.354 693.732H145.846L74.1379 692.775C73.376 692.764 72.6381 692.522 72.0217 692.082L71.7659 691.883C66.2884 687.211 59.9508 680.568 54.7415 671.489L54.2405 670.602C37.5194 640.512 46.9745 608.873 49.4163 601.409L49.5051 601.165C49.9927 599.965 51.0741 599.096 52.3655 598.886C53.7427 598.663 55.1301 599.226 55.9612 600.347C58.1043 603.237 67.9894 616.804 80.6301 630.378C86.9523 637.167 93.8988 643.886 100.848 649.249C107.855 654.657 114.575 658.456 120.46 659.772H120.461C125.881 660.979 130.865 661.411 134.97 659.704L134.971 659.703L135.541 659.451C138.358 658.122 140.656 655.824 142.645 652.783C144.782 649.516 146.421 645.612 147.916 641.605L148.755 639.337C183.761 544.018 186.891 437.266 157.528 340.055L156.823 337.741C156.338 336.168 156.943 334.463 158.31 333.545Z" fill="#FEC400" stroke="black" stroke-width="7.46393" stroke-linejoin="round"/>
</svg>
