<svg width="450" height="300" viewBox="0 0 450 300" fill="none" xmlns="http://www.w3.org/2000/svg">
<g filter="url(#filter0_dg_65_6000)">
<path d="M454 286C453.235 268.626 452.47 251.252 451.705 233.878C437.896 245.129 425.164 257.483 413.706 270.749C415.865 248.707 418.023 226.662 420.179 204.62C421.13 194.899 418.74 181.441 408.046 181.111C399.024 180.831 392.632 191.395 383.658 190.525C391.684 166.25 388.688 139.108 375.52 116.781C375.935 132.867 372.488 149.024 365.495 163.795C366.594 142.47 358.82 120.861 344.084 104.276C332.938 91.7346 318.196 82.184 306.939 69.7254C291.941 53.1204 283.884 31.4902 284.327 10C282.039 43.6851 287.295 77.7904 299.756 109.57C307.364 128.968 317.798 148.936 313.827 169.216C311.13 182.992 301.99 195.003 291.793 205.463C287.079 173.203 282.743 140.899 278.793 108.554C272.179 140.591 255.35 170.816 230.895 194.591C239.159 175.051 224.245 154.272 210.213 137.694C196.18 121.117 181.453 100.137 190.078 80.7259C172.493 111.357 188.287 155.656 159.846 178.519C156.947 157.839 147.226 137.994 132.275 122.223C130.83 133.413 127.88 144.438 123.508 154.975C116.738 134.476 97.8824 119.604 83.7267 102.526C72.6869 89.2082 64.4801 71.2687 67.8399 55.7291C55.8428 82.2664 46.2601 110.718 55.5658 137.604C60.5784 152.083 70.8264 164.924 74.0116 179.826C78.8796 202.618 66.4972 225.209 54.503 245.689C42.1989 237.984 40.6815 222.109 41.684 208.525C42.6865 194.943 44.6163 179.996 35.97 168.903C28.6633 178.445 15.6517 198.131 11.3827 225.986C7.22809 253.098 13.3697 274.813 17.4791 285.995H454V286Z" fill="#FF9D33"/>
<path d="M284.459 7.00293C286.087 7.07495 287.36 8.43275 287.327 10.0615C286.9 30.7722 294.669 51.6649 309.165 67.7139H309.166C314.637 73.77 320.978 79.1442 327.496 84.6836C333.957 90.1755 340.591 95.8297 346.326 102.282L346.327 102.283L347.036 103.091C358.512 116.324 365.779 132.558 367.928 149.361C371.237 138.814 372.804 127.816 372.521 116.858C372.486 115.492 373.379 114.274 374.693 113.897C376.007 113.521 377.41 114.079 378.104 115.257C390.904 136.959 394.404 163.07 387.853 186.999C389.788 186.317 391.808 185.076 394.201 183.522C397.834 181.164 402.512 177.938 408.139 178.112H408.138C415.094 178.327 419.19 182.949 421.272 188.247C423.189 193.127 423.618 198.978 423.249 203.934L423.165 204.912C421.307 223.902 419.447 242.894 417.587 261.885C427.513 251.084 438.292 240.937 449.811 231.553L449.979 231.425C450.84 230.819 451.963 230.706 452.933 231.141C453.968 231.605 454.653 232.613 454.703 233.746C455.467 251.108 456.23 268.47 456.995 285.831C456.998 285.885 457 285.939 457 285.994V286L456.996 286.152C456.917 287.713 455.645 288.964 454.066 288.999C453.983 289.001 453.901 288.999 453.82 288.994H17.479C16.2213 288.994 15.0974 288.21 14.6636 287.029C10.455 275.578 4.15869 253.324 8.41748 225.532L8.62842 224.2C13.2067 196.358 26.2376 176.679 33.5884 167.079L33.6978 166.944C34.2628 166.289 35.0863 165.906 35.9575 165.902C36.8866 165.898 37.7653 166.326 38.3364 167.059C43.1549 173.241 44.9409 180.406 45.438 187.573C45.807 192.895 45.4706 198.4 45.0718 203.628L44.6763 208.745C44.1865 215.382 44.3334 222.364 45.9995 228.528C47.3746 233.615 49.7507 238.035 53.5835 241.304C59.0043 231.958 64.2378 222.372 67.7583 212.607C71.5092 202.204 73.2458 191.79 71.2798 181.453L71.0776 180.453C69.5778 173.436 66.3956 166.815 62.814 159.942C59.3995 153.39 55.5761 146.534 52.978 139.287L52.731 138.585C43.0038 110.481 53.1077 81.033 65.106 54.4932L65.2358 54.2393C65.936 53.0129 67.4141 52.4294 68.7798 52.8799C70.2367 53.3607 71.0962 54.8637 70.772 56.3633C67.7991 70.1138 74.7552 86.496 85.0317 99.376L86.0366 100.611L87.353 102.178C90.4558 105.821 93.7692 109.389 97.1499 112.99C100.994 117.085 104.938 121.237 108.649 125.497C114.356 132.05 119.646 139.009 123.411 146.796C126.23 138.669 128.207 130.301 129.3 121.839L129.335 121.626C129.549 120.573 130.313 119.708 131.345 119.371C132.446 119.012 133.656 119.319 134.453 120.159C148.484 134.96 158.052 153.275 161.882 172.588C171.789 162.207 174.439 148.075 176.048 132.232C176.934 123.514 177.518 114.166 178.974 105.231C180.441 96.2304 182.83 87.3254 187.476 79.2324L187.636 78.9824C188.488 77.7872 190.101 77.3733 191.436 78.0508C192.771 78.7284 193.389 80.2749 192.926 81.668L192.82 81.9443C188.978 90.5917 190.228 99.7487 194.387 109.048C198.563 118.384 205.519 127.506 212.502 135.756L213.827 137.33C220.465 145.275 227.3 154.307 231.642 163.782C234.722 170.503 236.614 177.603 236.209 184.779C256.244 162.734 270.057 136.032 275.855 107.947L275.922 107.683C276.315 106.386 277.54 105.5 278.917 105.557C280.385 105.617 281.593 106.732 281.771 108.19C285.466 138.451 289.498 168.675 293.864 198.861C302.074 189.705 308.72 179.688 310.883 168.639L311.047 167.752C312.642 158.585 311.163 149.356 308.266 139.944C305.434 130.744 301.397 121.779 297.698 112.521L296.963 110.665C284.342 78.4753 279.015 43.9267 281.333 9.79688L281.348 9.64551C281.531 8.095 282.883 6.93318 284.459 7.00293Z" stroke="black" stroke-width="6" stroke-linejoin="round"/>
</g>
<path d="M76.1835 141.027C77.0471 140.401 78.2174 140.411 79.0712 141.049C104.873 160.355 123.102 187.935 129.936 217.806C135.472 207.217 139.77 196.095 142.727 184.688L142.787 184.493C143.122 183.537 144.02 182.88 145.047 182.864C146.142 182.847 147.114 183.563 147.422 184.614C151.994 200.216 156.569 215.826 161.141 231.429C163.581 230.577 165.677 228.991 167.541 226.911C169.935 224.239 171.846 220.865 173.505 217.49V217.489L174.308 215.844C182.567 198.828 189.403 181.239 194.734 163.281L194.797 163.095C195.147 162.189 196.008 161.571 196.991 161.54C198.04 161.506 198.992 162.148 199.354 163.133C207.644 185.702 210.142 210.028 206.582 233.619C206.38 234.97 206.353 235.604 206.495 236.013L206.566 236.176L206.567 236.178L206.613 236.254C206.868 236.642 207.538 237.12 208.809 237.53H208.81L209.244 237.663C213.724 238.959 218.344 238.012 222.858 235.663C227.534 233.229 231.893 229.387 235.451 225.456L236.517 224.266C247.473 211.929 256.446 198.143 263.071 183.483L263.164 183.3C263.659 182.412 264.661 181.917 265.68 182.082C266.766 182.257 267.599 183.14 267.713 184.234L272.139 226.739V226.74L272.272 227.909C272.617 230.641 273.195 233.382 274.247 235.658C275.425 238.207 277.092 239.969 279.557 240.668H279.558L279.896 240.756C283.411 241.58 287.4 239.866 291.367 237.42L292.736 236.56C320.853 218.561 337.591 186.808 335.559 155.721L335.446 154.217C335.343 153 336.157 151.894 337.35 151.632C338.544 151.37 339.747 152.033 340.163 153.182L341.018 155.56C348.947 177.714 356.048 201.444 353.398 224.984C357.12 221.051 360.842 217.119 364.562 213.188L365.591 212.11C367.986 209.632 370.958 206.891 374.89 205.698L375.33 205.571C377.873 204.886 380.731 205.139 383.083 206.143C385.417 207.139 387.682 209.092 388.15 212.083C388.213 212.484 388.174 212.893 388.039 213.274L387.975 213.435C382.8 225.276 380.799 238.248 382.139 250.921C386.56 247.001 390.78 242.897 394.783 238.623L394.892 238.513C395.454 237.985 396.235 237.752 396.999 237.892C397.814 238.041 398.497 238.594 398.812 239.36C403.077 249.712 404.507 258.212 405 264.194L405.104 265.585C405.325 268.783 405.403 271.632 405.907 274.21C406.432 276.895 407.304 278.54 408.722 279.439L409.012 279.609L409.013 279.61L409.182 279.697C410.025 280.109 410.828 280.183 412.748 280.287H412.749L413.342 280.309C419.286 280.439 425.622 277.701 429.397 273.412L429.766 272.977C431.85 270.433 432.793 267.689 433.267 265.518C433.505 264.431 433.621 263.509 433.715 262.789C433.756 262.47 433.808 262.069 433.877 261.752C433.906 261.617 433.979 261.296 434.146 260.962C434.218 260.819 434.872 259.528 436.415 259.547L436.567 259.553L436.572 259.554L436.812 259.582C437.968 259.768 438.499 260.664 438.612 260.868C438.797 261.199 438.882 261.518 438.923 261.688C439.013 262.064 439.062 262.501 439.095 262.929C439.163 263.822 439.191 265.149 439.18 266.993C439.156 270.703 438.967 276.74 438.525 286.115C438.464 287.414 437.393 288.435 436.093 288.435H71.1522L39.3358 288.048C38.8044 288.042 38.2894 287.861 37.87 287.535C35.4685 285.666 32.6826 283.021 30.3446 279.417L29.8827 278.683C22.2051 266.081 26.5577 252.858 27.6561 249.795L27.7167 249.643C28.0434 248.895 28.7267 248.356 29.5389 248.217C30.4053 248.069 31.2844 248.4 31.8387 249.082C32.7896 250.251 37.1475 255.706 42.7167 261.161C45.5022 263.889 48.5492 266.576 51.5848 268.712C54.6536 270.873 57.5418 272.349 60.0233 272.855H60.0223C62.4082 273.34 64.4685 273.478 66.1063 272.857L66.3339 272.765C68.6467 271.768 70.0477 269.263 71.3749 266.02L72.1102 264.194C87.0862 226.381 88.4415 184.184 75.9208 145.64L75.3046 143.778C74.9638 142.767 75.32 141.652 76.1835 141.027Z" fill="#FEC400" stroke="black" stroke-width="4.87073" stroke-linejoin="round"/>
<defs>
<filter id="filter0_dg_65_6000" x="-0.000732422" y="-0.00012207" width="468" height="300" filterUnits="userSpaceOnUse" color-interpolation-filters="sRGB">
<feFlood flood-opacity="0" result="BackgroundImageFix"/>
<feColorMatrix in="SourceAlpha" type="matrix" values="0 0 0 0 0 0 0 0 0 0 0 0 0 0 0 0 0 0 127 0" result="hardAlpha"/>
<feOffset dx="8" dy="8"/>
<feComposite in2="hardAlpha" operator="out"/>
<feColorMatrix type="matrix" values="0 0 0 0 0 0 0 0 0 0 0 0 0 0 0 0 0 0 1 0"/>
<feBlend mode="normal" in2="BackgroundImageFix" result="effect1_dropShadow_65_6000"/>
<feBlend mode="normal" in="SourceGraphic" in2="effect1_dropShadow_65_6000" result="shape"/>
<feTurbulence type="fractalNoise" baseFrequency="0.011904762126505375 0.011904762126505375" numOctaves="3" seed="6810" />
<feDisplacementMap in="shape" scale="8" xChannelSelector="R" yChannelSelector="G" result="displacedImage" width="100%" height="100%" />
<feMerge result="effect2_texture_65_6000">
<feMergeNode in="displacedImage"/>
</feMerge>
</filter>
</defs>
</svg>
