<svg width="610" height="358" viewBox="0 0 610 358" fill="none" xmlns="http://www.w3.org/2000/svg">
<g filter="url(#filter0_dg_65_5752)">
<path d="M582.676 344C587.812 330.981 592.824 314.12 594.943 294.085C598.779 257.893 591.348 228.713 585.762 212.214C562.033 218.336 543.547 240.953 542.246 265.461L509.378 173.357C497.999 198.037 488.388 223.532 480.646 249.588C467.509 211.806 460.6 171.86 460.281 131.859C433.923 126.153 413.776 154.281 401.532 178.339C403.498 141.132 391.527 103.356 368.511 74.0878C365.313 87.811 362.111 101.539 358.913 115.262C322.792 91.2916 296.767 52.5414 288.211 10C274.5 49.4083 286.929 92.5151 297.832 132.795C308.734 173.074 317.604 218.068 297.984 254.885C291.27 238.21 284.556 221.534 277.841 204.863C273.945 231.179 264.797 256.707 251.09 279.495C242.34 225.831 220.929 174.279 189.088 130.232C191.892 166.048 188.065 202.37 177.862 236.81C179.814 196.034 150.509 161.4 124.545 129.935C107.331 109.075 90.2232 84.7892 83.68 59.2847C83.4486 138.959 76.7759 218.614 63.722 297.213C39.6456 273.447 22.4872 242.733 14.8567 209.748C4.25065 254.774 11.201 303.697 33.8753 344H582.671H582.676Z" fill="#FF9D33"/>
<path d="M288.416 7.00684C289.765 7.09895 290.885 8.08252 291.152 9.4082C299.265 49.7479 323.396 86.6357 356.987 110.308C358.254 104.87 359.523 99.4321 360.791 93.9941C362.39 87.1315 363.99 80.2685 365.588 73.4072L365.645 73.1992C365.962 72.1766 366.804 71.3939 367.86 71.1592C368.986 70.909 370.156 71.3267 370.869 72.2334C391.831 98.8884 403.798 132.448 404.685 166.346C409.946 157.459 416.254 148.659 423.552 141.758C433.643 132.216 446.003 125.981 460.237 128.786L460.916 128.927L461.168 128.992C462.407 129.375 463.27 130.519 463.281 131.835C463.573 168.394 469.414 204.908 480.525 239.737C487.795 216.668 496.528 194.063 506.654 172.101L506.756 171.898C507.306 170.911 508.37 170.309 509.512 170.36C510.73 170.415 511.794 171.201 512.204 172.349L541.151 253.467C546.788 232.526 563.902 214.756 585.013 209.31L585.298 209.25C586.726 209.025 588.132 209.857 588.604 211.252C594.274 228.002 601.823 257.637 597.926 294.401C595.773 314.754 590.682 331.88 585.466 345.101C585.014 346.246 583.908 347 582.676 347H33.8755C32.7917 347 31.7916 346.415 31.2603 345.471C8.21775 304.513 1.15824 254.82 11.937 209.061L12.0063 208.811C12.4081 207.587 13.5559 206.745 14.8628 206.748C16.2569 206.751 17.4656 207.714 17.7798 209.072C24.8406 239.594 40.2035 268.145 61.7192 290.879C74.1149 214.337 80.455 136.815 80.6802 59.2764L80.6938 58.9961C80.8266 57.6115 81.9044 56.4829 83.3091 56.3076C84.8071 56.121 86.2102 57.0768 86.5854 58.5391C92.9539 83.3623 109.688 107.217 126.859 128.025L131.751 133.955C143.241 147.905 155.098 162.67 164.263 178.368C171.566 190.876 177.229 204.091 179.659 218.107C186.198 189.443 188.392 159.782 186.097 130.466C185.992 129.126 186.791 127.88 188.053 127.416C189.315 126.952 190.731 127.385 191.519 128.475C222.008 170.651 243.01 219.644 252.611 270.81C263.851 250.223 271.437 227.634 274.874 204.424L274.92 204.177C275.206 202.958 276.227 202.033 277.488 201.884C278.833 201.724 280.117 202.486 280.624 203.742C286.496 218.321 292.367 232.905 298.239 247.488C312.887 214.128 305.773 174.446 295.953 137.374L294.936 133.578C284.108 93.5721 271.301 49.4727 285.377 9.01465L285.47 8.78027C285.978 7.63776 287.151 6.92049 288.416 7.00684Z" stroke="black" stroke-width="6" stroke-linejoin="round"/>
</g>
<path d="M331.734 146.926C333.213 146.363 334.875 147.046 335.531 148.486C348.558 177.105 361.591 205.72 374.623 234.335C375.047 232.086 375.471 229.836 375.895 227.587C376.904 222.235 377.913 216.884 378.921 211.533L378.964 211.342C379.207 210.397 379.896 209.625 380.817 209.279C381.799 208.911 382.903 209.083 383.727 209.733C396.112 219.495 402.874 233.26 406.64 248.137C409.52 259.513 410.682 271.688 411.227 283.466C421.966 264.58 432.713 245.679 443.449 226.799L443.579 226.592C444.264 225.587 445.498 225.088 446.702 225.353C447.986 225.635 448.937 226.721 449.046 228.031C451.28 254.701 457.537 281.025 467.524 305.848C479.519 294.744 490.946 283.021 501.733 270.739L501.878 270.585C502.627 269.845 503.715 269.548 504.744 269.816C505.841 270.102 506.683 270.982 506.92 272.091L516.048 314.714L558.398 292.652C559.463 292.098 560.756 292.231 561.685 292.992C562.614 293.753 563 294.995 562.666 296.149C557.962 312.369 553.256 328.614 548.552 344.835C548.18 346.117 547.005 347 545.67 347H53.3608C52.5314 347 51.7499 346.656 51.1899 346.068C45.8647 341.321 39.0795 333.754 34.7095 322.867L34.397 322.07C31.216 313.812 29.8052 304.771 29.7935 297.499C29.7874 293.756 30.1514 290.331 30.9194 287.652C31.3023 286.317 31.8215 285.037 32.5425 283.975C33.2587 282.919 34.3305 281.858 35.8618 281.424L36.1011 281.362C38.5594 280.787 40.5861 282.168 41.8452 283.363C43.2323 284.68 44.544 286.557 45.7788 288.589C48.2519 292.658 50.9767 298.321 53.7524 303.685C56.599 309.185 59.548 314.474 62.6274 318.304C65.8377 322.296 68.4718 323.802 70.5854 323.643L70.7954 323.621C72.9753 323.342 75.5798 321.24 78.3696 316.438C81.1284 311.689 83.5516 305.178 85.6196 298.087C89.7448 283.942 92.2611 268.197 93.3599 261.318L93.77 258.659C97.7193 232.208 97.0092 209.715 95.5405 193.876L95.3911 192.315C95.2371 190.75 96.3168 189.332 97.8657 189.065C99.4148 188.797 100.908 189.771 101.288 191.296L101.755 193.148C111.71 231.976 130.379 268.547 155.995 299.351L156.679 300.153C158.301 302.008 160.097 303.715 161.936 304.836C164.014 306.102 165.796 306.424 167.41 305.86H167.411L167.745 305.73C169.396 305.013 170.776 303.344 172.451 300.937C185.677 281.902 195.661 260.609 201.841 238.263L201.912 238.041C202.305 236.954 203.293 236.183 204.458 236.075C205.7 235.961 206.883 236.627 207.429 237.748C217.427 258.264 223.982 280.452 226.734 303.108L226.909 304.54C227.312 307.813 227.732 310.597 228.971 313.017L229.181 313.407C231.425 317.386 235.852 319.446 241.104 319.487C246.544 319.53 252.283 317.357 256.01 313.576L256.377 313.196C263.995 305.168 266.165 293.226 268.007 280.972L268.053 280.733C268.329 279.554 269.293 278.647 270.504 278.455C271.796 278.25 273.073 278.906 273.658 280.076C279.034 290.828 284.415 301.575 289.796 312.327L290.335 313.373C290.874 314.384 291.418 315.282 292.023 316.019C292.811 316.978 293.535 317.457 294.256 317.627H294.257C295.233 317.855 296.478 317.585 298.365 316.881L298.366 316.88L299.032 316.627C327.121 305.766 343.9 274.468 346.33 243.49C348.628 214.191 340.546 185.162 331.709 156.371L329.935 150.616C329.467 149.104 330.255 147.489 331.734 146.926Z" fill="#FEC400" stroke="black" stroke-width="6" stroke-linejoin="round"/>
<defs>
<filter id="filter0_dg_65_5752" x="-0.000488281" y="-0.00012207" width="610" height="358" filterUnits="userSpaceOnUse" color-interpolation-filters="sRGB">
<feFlood flood-opacity="0" result="BackgroundImageFix"/>
<feColorMatrix in="SourceAlpha" type="matrix" values="0 0 0 0 0 0 0 0 0 0 0 0 0 0 0 0 0 0 127 0" result="hardAlpha"/>
<feOffset dx="8" dy="8"/>
<feComposite in2="hardAlpha" operator="out"/>
<feColorMatrix type="matrix" values="0 0 0 0 0 0 0 0 0 0 0 0 0 0 0 0 0 0 1 0"/>
<feBlend mode="normal" in2="BackgroundImageFix" result="effect1_dropShadow_65_5752"/>
<feBlend mode="normal" in="SourceGraphic" in2="effect1_dropShadow_65_5752" result="shape"/>
<feTurbulence type="fractalNoise" baseFrequency="0.011904762126505375 0.011904762126505375" numOctaves="3" seed="6810" />
<feDisplacementMap in="shape" scale="8" xChannelSelector="R" yChannelSelector="G" result="displacedImage" width="100%" height="100%" />
<feMerge result="effect2_texture_65_5752">
<feMergeNode in="displacedImage"/>
</feMerge>
</filter>
</defs>
</svg>
