<svg width="30" height="968" viewBox="0 0 30 968" fill="none" xmlns="http://www.w3.org/2000/svg">
<g filter="url(#filter0_g_65_6087)">
<path d="M14.9995 4.33333C9.10847 4.33333 4.33284 9.10896 4.33284 15C4.33284 20.891 9.10847 25.6667 14.9995 25.6667C20.8905 25.6667 25.6662 20.891 25.6662 15C25.6662 9.10896 20.8905 4.33333 14.9995 4.33333ZM14.9996 942.333C9.10851 942.333 4.33289 947.109 4.33289 953C4.33289 958.891 9.10852 963.667 14.9996 963.667C20.8906 963.667 25.6662 958.891 25.6662 953C25.6662 947.109 20.8906 942.333 14.9996 942.333ZM14.9995 15L12.9995 15L12.9996 953L14.9996 953L16.9996 953L16.9995 15L14.9995 15Z" fill="black"/>
</g>
<defs>
<filter id="filter0_g_65_6087" x="0.332764" y="0.333496" width="29.3335" height="967.333" filterUnits="userSpaceOnUse" color-interpolation-filters="sRGB">
<feFlood flood-opacity="0" result="BackgroundImageFix"/>
<feBlend mode="normal" in="SourceGraphic" in2="BackgroundImageFix" result="shape"/>
<feTurbulence type="fractalNoise" baseFrequency="0.011904762126505375 0.011904762126505375" numOctaves="3" seed="6810" />
<feDisplacementMap in="shape" scale="8" xChannelSelector="R" yChannelSelector="G" result="displacedImage" width="100%" height="100%" />
<feMerge result="effect1_texture_65_6087">
<feMergeNode in="displacedImage"/>
</feMerge>
</filter>
</defs>
</svg>
