<svg width="190" height="181" viewBox="0 0 190 181" fill="none" xmlns="http://www.w3.org/2000/svg">
<g filter="url(#filter0_g_226_10167)">
<path d="M31.4286 6L33.039 13.943C34.1932 19.6468 36.8048 24.957 40.6211 29.3596C44.4374 33.7621 49.3291 37.108 54.8229 39.0733L56.8571 39.8L54.8229 40.5267C49.3291 42.492 44.4374 45.8379 40.6211 50.2404C36.8048 54.643 34.1932 59.9532 33.039 65.657L31.4286 73.6L29.8181 65.657C28.664 59.9532 26.0524 54.643 22.2361 50.2404C18.4198 45.8379 13.528 42.492 8.03429 40.5267L6 39.8L8.03429 39.0733C13.528 37.108 18.4198 33.7621 22.2361 29.3596C26.0524 24.957 28.664 19.6468 29.8181 13.943L31.4286 6ZM56.8571 124.3L58.8067 135.082C59.3129 137.895 60.5262 140.533 62.3332 142.751C64.1401 144.97 66.4818 146.695 69.1391 147.766L73.8095 149.65L69.1391 151.534C66.4812 152.603 64.1386 154.327 62.3302 156.543C60.5217 158.76 59.3065 161.397 58.7982 164.209L56.8571 175L54.9076 164.218C54.4014 161.405 53.1881 158.767 51.3811 156.549C49.5742 154.33 47.2325 152.605 44.5751 151.534L39.9048 149.65L44.5751 147.766C47.233 146.697 49.5757 144.973 51.3841 142.757C53.1926 140.54 54.4077 137.903 54.9161 135.091L56.8571 124.3ZM124.667 14.45L129.379 36.8763C131.781 48.3099 137.114 58.9278 144.858 67.6948C152.602 76.4619 162.493 83.0788 173.566 86.9003L184 90.5L173.566 94.0997C162.493 97.9212 152.602 104.538 144.858 113.305C137.114 122.072 131.781 132.69 129.379 144.124L124.667 166.55L119.954 144.124C117.552 132.69 112.219 122.072 104.475 113.305C96.7312 104.538 86.8406 97.9212 75.7675 94.0997L65.3333 90.5L75.7675 86.9003C86.8406 83.0788 96.7312 76.4619 104.475 67.6948C112.219 58.9278 117.552 48.3099 119.954 36.8763L124.667 14.45Z" fill="#FEC400"/>
<path d="M31.4286 6L33.039 13.943C34.1932 19.6468 36.8048 24.957 40.6211 29.3596C44.4374 33.7621 49.3291 37.108 54.8229 39.0733L56.8571 39.8L54.8229 40.5267C49.3291 42.492 44.4374 45.8379 40.6211 50.2404C36.8048 54.643 34.1932 59.9532 33.039 65.657L31.4286 73.6L29.8181 65.657C28.664 59.9532 26.0524 54.643 22.2361 50.2404C18.4198 45.8379 13.528 42.492 8.03429 40.5267L6 39.8L8.03429 39.0733C13.528 37.108 18.4198 33.7621 22.2361 29.3596C26.0524 24.957 28.664 19.6468 29.8181 13.943L31.4286 6ZM56.8571 124.3L58.8067 135.082C59.3129 137.895 60.5262 140.533 62.3332 142.751C64.1401 144.97 66.4818 146.695 69.1391 147.766L73.8095 149.65L69.1391 151.534C66.4812 152.603 64.1386 154.327 62.3302 156.543C60.5217 158.76 59.3065 161.397 58.7982 164.209L56.8571 175L54.9076 164.218C54.4014 161.405 53.1881 158.767 51.3811 156.549C49.5742 154.33 47.2325 152.605 44.5751 151.534L39.9048 149.65L44.5751 147.766C47.233 146.697 49.5757 144.973 51.3841 142.757C53.1926 140.54 54.4077 137.903 54.9161 135.091L56.8571 124.3ZM124.667 14.45L129.379 36.8763C131.781 48.3099 137.114 58.9278 144.858 67.6948C152.602 76.4619 162.493 83.0788 173.566 86.9003L184 90.5L173.566 94.0997C162.493 97.9212 152.602 104.538 144.858 113.305C137.114 122.072 131.781 132.69 129.379 144.124L124.667 166.55L119.954 144.124C117.552 132.69 112.219 122.072 104.475 113.305C96.7312 104.538 86.8406 97.9212 75.7675 94.0997L65.3333 90.5L75.7675 86.9003C86.8406 83.0788 96.7312 76.4619 104.475 67.6948C112.219 58.9278 117.552 48.3099 119.954 36.8763L124.667 14.45Z" stroke="black" stroke-width="6" stroke-linecap="round" stroke-linejoin="round"/>
</g>
<defs>
<filter id="filter0_g_226_10167" x="0.578947" y="0.578947" width="188.842" height="179.842" filterUnits="userSpaceOnUse" color-interpolation-filters="sRGB">
<feFlood flood-opacity="0" result="BackgroundImageFix"/>
<feBlend mode="normal" in="SourceGraphic" in2="BackgroundImageFix" result="shape"/>
<feTurbulence type="fractalNoise" baseFrequency="0.019905708730220795 0.019905708730220795" numOctaves="3" seed="6790" />
<feDisplacementMap in="shape" scale="4.8421053886413574" xChannelSelector="R" yChannelSelector="G" result="displacedImage" width="100%" height="100%" />
<feMerge result="effect1_texture_226_10167">
<feMergeNode in="displacedImage"/>
</feMerge>
</filter>
</defs>
</svg>
