<svg width="575" height="324" viewBox="0 0 575 324" fill="none" xmlns="http://www.w3.org/2000/svg">
<g filter="url(#filter0_dg_65_6039)">
<path d="M600.267 310C605.561 298.307 610.726 283.162 612.911 265.166C616.865 232.658 609.205 206.449 603.448 191.629C578.99 197.128 559.935 217.443 558.595 239.456L524.717 156.728C512.989 178.895 503.083 201.795 495.103 225.199C481.562 191.263 474.442 155.383 474.112 119.454C446.945 114.329 426.179 139.594 413.558 161.203C415.585 127.784 403.247 93.8523 379.523 67.5639C376.227 79.8901 372.927 92.2205 369.631 104.547C332.4 83.0164 305.576 48.2108 296.757 10C282.625 45.3967 295.436 84.1154 306.673 120.295C317.91 156.474 327.053 196.887 306.831 229.957C299.91 214.979 292.989 200.001 286.069 185.027C282.053 208.664 272.623 231.593 258.496 252.061C249.477 203.86 227.408 157.556 194.589 117.993C197.479 150.163 193.535 182.787 183.018 213.722C185.031 177.097 154.825 145.988 128.063 117.726C110.321 98.9893 92.6878 77.1759 85.9437 54.2677C85.7052 125.831 78.8275 197.378 65.3726 267.976C40.5567 246.629 22.8713 219.042 15.0063 189.415C4.07455 229.857 11.2384 273.8 34.6091 310H600.262H600.267Z" fill="#FF9D33"/>
<path d="M296.986 7.00879C298.294 7.10905 299.386 8.04718 299.681 9.3252L300.097 11.0723C308.831 46.552 333.493 79.0113 367.756 99.9424C369.063 95.0552 370.371 90.1678 371.679 85.2803C373.328 79.1161 374.977 72.9519 376.625 66.7891L376.685 66.5928C377.015 65.6262 377.818 64.8889 378.82 64.6475C379.889 64.3899 381.013 64.7376 381.75 65.5537C403.418 89.5642 415.826 119.863 416.72 150.515C422.208 142.378 428.815 134.299 436.473 127.988C446.903 119.393 459.529 113.899 473.979 116.382L474.669 116.506L474.928 116.566C476.2 116.925 477.1 118.084 477.112 119.427C477.414 152.31 483.465 185.16 494.979 216.491C502.507 195.624 511.56 175.181 522.065 155.325L522.174 155.137C522.747 154.221 523.774 153.678 524.864 153.731C526.027 153.788 527.052 154.513 527.493 155.591L557.483 228.827C563.251 209.647 581.114 193.576 602.79 188.702L603.062 188.654C604.418 188.477 605.74 189.246 606.244 190.543C612.106 205.634 619.923 232.362 615.889 265.528C613.66 283.886 608.392 299.327 603 311.237C602.514 312.31 601.445 313 600.267 313H34.6094C33.5906 313 32.6414 312.483 32.0889 311.627C8.27318 274.738 0.949329 229.922 12.1104 188.632L12.1865 188.391C12.6143 187.211 13.74 186.412 15.0127 186.415C16.3705 186.418 17.5577 187.332 17.9062 188.645C25.1853 216.064 41.0786 241.761 63.4033 262.214C76.1784 193.486 82.7113 123.879 82.9434 54.2578L82.957 53.9814C83.087 52.6148 84.138 51.4948 85.5205 51.2979C86.9952 51.0878 88.4006 51.9919 88.8213 53.4209C95.3475 75.5884 112.528 96.9557 130.242 115.663L135.283 120.987C147.125 133.517 159.361 146.795 168.823 160.918C176.449 172.3 182.38 184.383 184.855 197.244C191.677 171.414 193.974 144.68 191.601 118.261C191.483 116.952 192.231 115.719 193.445 115.219C194.66 114.718 196.059 115.066 196.897 116.077C228.396 154.049 250.105 198.195 260.002 244.33C271.689 225.782 279.56 205.425 283.111 184.524L283.162 184.285C283.462 183.107 284.451 182.216 285.673 182.054C286.976 181.88 288.24 182.575 288.792 183.769C294.89 196.963 300.988 210.16 307.086 223.357C322.28 193.547 315.013 158.01 304.856 124.595L303.808 121.185C298.211 103.165 292.118 84.2032 289.236 65.3066C286.347 46.3647 286.64 27.25 293.971 8.8877L294.07 8.66504C294.61 7.57788 295.76 6.91486 296.986 7.00879Z" stroke="black" stroke-width="6" stroke-linejoin="round"/>
</g>
<path d="M341.518 132.756C342.961 132.126 344.647 132.721 345.376 134.117L385.874 211.621C386.33 209.515 386.786 207.409 387.241 205.302C388.281 200.496 389.321 195.689 390.36 190.883L390.405 190.701C390.658 189.806 391.314 189.074 392.186 188.728C393.115 188.359 394.167 188.478 394.991 189.044C417.536 204.53 422.193 231.362 423.468 255.719C434.614 238.636 445.81 221.478 456.938 204.423L457.076 204.229C457.797 203.295 459.007 202.863 460.167 203.148C461.405 203.453 462.316 204.506 462.438 205.775C464.737 229.704 471.189 253.33 481.496 275.616C493.968 265.572 505.843 254.963 517.048 243.845L517.195 243.709C517.954 243.051 518.997 242.813 519.973 243.088C521.013 243.38 521.816 244.21 522.074 245.26L531.47 283.495L575.432 263.538C576.518 263.045 577.792 263.242 578.679 264.04C579.565 264.838 579.895 266.085 579.519 267.217C577.093 274.505 574.669 281.793 572.245 289.081C569.821 296.369 567.397 303.658 564.972 310.947C564.564 312.173 563.417 313 562.125 313H54.6934C53.9333 313 53.2151 312.711 52.6699 312.213C47.3656 308.091 40.6013 301.562 36.0527 292.196L35.6143 291.269C32.0744 283.588 30.5069 275.066 30.4941 268.234C30.4878 264.829 30.8664 261.679 31.6846 259.193C32.4274 256.936 33.8909 254.188 36.7803 253.474L37.0029 253.424C39.2944 252.956 41.2558 254.06 42.6074 255.178C44.0484 256.371 45.4147 258.074 46.6973 259.913C49.2565 263.582 52.0806 268.696 54.9307 273.495C57.8616 278.43 60.8857 283.156 64.04 286.574C67.2729 290.077 70.0548 291.568 72.4824 291.408L72.7188 291.387C75.1628 291.117 77.8482 289.133 80.6484 284.932C83.4624 280.711 85.9425 274.91 88.0664 268.563C92.3036 255.902 94.8906 241.798 96.0234 235.618C100.551 210.9 99.8233 189.882 98.2637 175.226L98.1104 173.828C97.9355 172.277 98.9789 170.851 100.51 170.549C102.041 170.246 103.548 171.167 103.977 172.668L104.457 174.326C114.689 209.106 133.889 241.9 160.272 269.548L160.974 270.264C162.636 271.922 164.488 273.459 166.401 274.474C168.566 275.624 170.549 275.977 172.391 275.417H172.393L172.752 275.295C174.287 274.716 175.558 273.497 176.972 271.802L177.635 270.987C191.246 253.916 201.508 234.838 207.855 214.837L207.931 214.628C208.343 213.598 209.296 212.873 210.411 212.76C211.601 212.639 212.749 213.236 213.333 214.28C223.664 232.754 230.446 252.75 233.294 273.181H233.293C233.786 276.714 234.132 279.499 235.531 281.879L235.742 282.219C237.996 285.696 242.584 287.639 248.199 287.677C253.948 287.717 259.94 285.714 263.782 282.317L264.157 281.98C271.93 274.843 274.138 264.268 276.034 253.279L276.083 253.049C276.372 251.913 277.3 251.041 278.468 250.835C279.713 250.614 280.963 251.199 281.593 252.296C287.134 261.953 292.68 271.605 298.228 281.263L298.52 281.763C299.965 284.198 301.216 285.654 302.883 285.996H302.884C304.04 286.231 305.445 285.942 307.376 285.313L307.377 285.312L308.066 285.085C337.145 275.288 354.278 247.198 356.756 219.664L356.864 218.355C358.834 192.636 350.678 167.122 341.72 141.682L339.89 136.509C339.363 135.024 340.074 133.385 341.518 132.756Z" fill="#FEC400" stroke="black" stroke-width="6" stroke-linejoin="round"/>
<defs>
<filter id="filter0_dg_65_6039" x="-0.000366211" y="0" width="628" height="324" filterUnits="userSpaceOnUse" color-interpolation-filters="sRGB">
<feFlood flood-opacity="0" result="BackgroundImageFix"/>
<feColorMatrix in="SourceAlpha" type="matrix" values="0 0 0 0 0 0 0 0 0 0 0 0 0 0 0 0 0 0 127 0" result="hardAlpha"/>
<feOffset dx="8" dy="8"/>
<feComposite in2="hardAlpha" operator="out"/>
<feColorMatrix type="matrix" values="0 0 0 0 0 0 0 0 0 0 0 0 0 0 0 0 0 0 1 0"/>
<feBlend mode="normal" in2="BackgroundImageFix" result="effect1_dropShadow_65_6039"/>
<feBlend mode="normal" in="SourceGraphic" in2="effect1_dropShadow_65_6039" result="shape"/>
<feTurbulence type="fractalNoise" baseFrequency="0.011904762126505375 0.011904762126505375" numOctaves="3" seed="6810" />
<feDisplacementMap in="shape" scale="8" xChannelSelector="R" yChannelSelector="G" result="displacedImage" width="100%" height="100%" />
<feMerge result="effect2_texture_65_6039">
<feMergeNode in="displacedImage"/>
</feMerge>
</filter>
</defs>
</svg>
