<svg width="24" height="23" viewBox="0 0 24 23" fill="none" xmlns="http://www.w3.org/2000/svg">
<g clip-path="url(#clip0_220_64)">
<path d="M15.2703 1.18912C15.5523 1.18912 15.9063 1.26318 16.1906 1.33288C17.1817 1.57249 18.3568 1.86982 19.1911 2.49606C19.9676 3.07875 20.571 4.0949 21.0372 5.12739C22.0065 7.27841 22.6807 10.1461 22.9137 12.3265C23.0248 13.3612 23.052 14.4024 22.8527 15.1027C22.7547 15.4468 22.5423 15.7061 22.3931 15.8651C21.9379 16.3476 21.3519 16.7081 20.7725 17.0359L20.485 17.1982C20.2956 17.3035 20.105 17.4066 19.9132 17.5075L19.3447 17.8015L18.5638 18.1904L17.9353 18.4997C17.7054 18.6149 17.4421 18.6449 17.192 18.5846C16.942 18.5242 16.7214 18.3774 16.5693 18.1699C16.4172 17.9625 16.3434 17.708 16.361 17.4514C16.3786 17.1948 16.4864 16.9527 16.6654 16.768L16.1927 15.8226C14.8338 16.2366 13.4202 16.4436 11.9996 16.4369C10.5075 16.4369 9.08402 16.219 7.80648 15.8226L7.33489 16.7658C7.51455 16.9502 7.62308 17.1923 7.64122 17.4491C7.65936 17.7059 7.58594 17.9608 7.43399 18.1686C7.28203 18.3765 7.06137 18.5237 6.81116 18.5843C6.56094 18.6449 6.29735 18.6149 6.06715 18.4997L5.47466 18.2056C4.81683 17.881 4.159 17.5565 3.5186 17.1982C2.84987 16.8246 2.14085 16.4271 1.61045 15.864C1.39888 15.65 1.24133 15.3886 1.15084 15.1016C0.95044 14.4024 0.978758 13.3623 1.08876 12.3265C1.32183 10.1461 1.996 7.27841 2.96641 5.12739C3.43147 4.0949 4.03484 3.07875 4.81139 2.49606C5.64566 1.86982 6.82082 1.57249 7.81193 1.33288C8.09619 1.26318 8.44906 1.18912 8.73224 1.18912C8.88887 1.18898 9.0437 1.22263 9.18615 1.28778C9.3286 1.35293 9.45531 1.44803 9.55766 1.56661C9.66001 1.68519 9.73557 1.82445 9.7792 1.97488C9.82283 2.12532 9.8335 2.2834 9.81047 2.43834C10.5354 2.33245 11.267 2.27895 11.9996 2.27824C12.7522 2.27824 13.4874 2.3327 14.1931 2.43943C14.1699 2.28441 14.1804 2.12621 14.224 1.97564C14.2675 1.82507 14.3431 1.68567 14.4454 1.56696C14.5478 1.44826 14.6746 1.35305 14.8171 1.28784C14.9597 1.22263 15.1135 1.18896 15.2703 1.18912ZM16.7449 3.76272C16.5816 3.71044 16.5423 3.73331 16.4835 3.83133L16.416 3.95331C16.24 4.25507 15.9727 4.49316 15.6527 4.6333C15.3327 4.77344 14.9764 4.8084 14.6353 4.73313C13.7691 4.54715 12.8855 4.45441 11.9996 4.45649C11.0717 4.45649 10.184 4.55451 9.36393 4.73313C9.02278 4.8084 8.66655 4.77344 8.34654 4.6333C8.02653 4.49316 7.75925 4.25507 7.58321 3.95331L7.51568 3.83242C7.45796 3.7344 7.41875 3.71153 7.25647 3.76272C6.86874 3.88579 6.4527 4.01757 6.11834 4.23866C5.80576 4.47283 5.38862 5.05551 4.95188 6.02374C4.11761 7.87198 3.46414 10.6024 3.25503 12.5585C3.21146 12.9724 3.1875 13.3252 3.18315 13.6171V13.9373C3.18823 14.1312 3.20094 14.2844 3.22127 14.3969C3.4979 14.667 3.83989 14.8794 4.18296 15.0744L4.92575 15.485L5.4115 15.7409L5.80794 14.948C5.616 14.7692 5.49506 14.5271 5.46737 14.2662C5.43967 14.0053 5.50707 13.7432 5.65718 13.528C5.80729 13.3129 6.03001 13.1591 6.28442 13.0951C6.53882 13.031 6.8078 13.0609 7.04191 13.1793C8.36629 13.8447 10.0893 14.2586 11.9996 14.2586C13.9099 14.2586 15.6329 13.8426 16.9573 13.1804C17.1814 13.0681 17.4374 13.0366 17.6821 13.0911C17.9267 13.1456 18.1451 13.2829 18.3003 13.4797C18.4555 13.6765 18.5381 13.9208 18.5341 14.1715C18.5301 14.4221 18.4398 14.6637 18.2784 14.8555L18.1913 14.948L18.5877 15.7431C18.9123 15.5739 19.2379 15.3986 19.5647 15.217C19.9894 14.9818 20.436 14.7346 20.7812 14.3969C20.8008 14.2844 20.8135 14.1312 20.8193 13.9373V13.6171C20.8111 13.263 20.7871 12.9094 20.7475 12.5574C20.5383 10.6024 19.8849 7.87198 19.0506 6.02265C18.615 5.05551 18.1967 4.47283 17.8852 4.23866C17.5498 4.01757 17.1337 3.88579 16.7449 3.76272ZM8.45996 8.26843C8.96545 8.26843 9.45024 8.46923 9.80768 8.82667C10.1651 9.18411 10.3659 9.6689 10.3659 10.1744C10.3659 10.6799 10.1651 11.1647 9.80768 11.5221C9.45024 11.8796 8.96545 12.0804 8.45996 12.0804C7.95446 12.0804 7.46967 11.8796 7.11223 11.5221C6.75479 11.1647 6.55399 10.6799 6.55399 10.1744C6.55399 9.6689 6.75479 9.18411 7.11223 8.82667C7.46967 8.46923 7.95446 8.26843 8.45996 8.26843ZM15.5393 8.26843C16.0448 8.26843 16.5295 8.46923 16.887 8.82667C17.2444 9.18411 17.4452 9.6689 17.4452 10.1744C17.4452 10.6799 17.2444 11.1647 16.887 11.5221C16.5295 11.8796 16.0448 12.0804 15.5393 12.0804C15.0338 12.0804 14.549 11.8796 14.1915 11.5221C13.8341 11.1647 13.6333 10.6799 13.6333 10.1744C13.6333 9.6689 13.8341 9.18411 14.1915 8.82667C14.549 8.46923 15.0338 8.26843 15.5393 8.26843Z" fill="black" stroke="black" stroke-linejoin="round"/>
</g>
<defs>
<clipPath id="clip0_220_64">
<rect width="24" height="22.5381" fill="white" transform="translate(0 0.230969)"/>
</clipPath>
</defs>
</svg>
