<svg width="81" height="69" viewBox="0 0 81 69" fill="none" xmlns="http://www.w3.org/2000/svg">
<path fill-rule="evenodd" clip-rule="evenodd" d="M80.6943 7.00818C80.8696 5.94451 80.7565 4.8533 80.3666 3.84824C79.9768 2.84317 79.3246 1.96103 78.478 1.29372C77.6313 0.62642 76.6212 0.19837 75.5529 0.0541731C74.4846 -0.0900241 73.3971 0.0549072 72.4039 0.473869L3.68516 29.4081C-1.10505 31.4254 -1.35019 38.3536 3.68516 40.4432C8.67183 42.521 13.7304 44.4216 18.8515 46.1417C23.5453 47.6929 28.665 49.1275 32.768 49.5334C33.8892 50.8756 35.2998 52.1696 36.7385 53.3511C38.9367 55.1595 41.5809 57.0201 44.3136 58.8044C49.787 62.381 55.8591 65.8008 59.9501 68.0272C64.8408 70.6795 70.6959 67.6253 71.572 62.2926L80.6943 7.00818ZM11.3889 34.8855L72.1668 9.29478L63.6553 60.8941C59.6407 58.712 53.8579 55.4448 48.706 52.0772C46.3316 50.5526 44.0391 48.904 41.8381 47.1383C41.2499 46.6577 40.6789 46.1564 40.1262 45.6353L56.044 29.7215C56.7981 28.968 57.2219 27.9458 57.2223 26.8797C57.2226 25.8137 56.7995 24.7912 56.046 24.0372C55.2925 23.2831 54.2703 22.8593 53.2042 22.8589C52.1382 22.8585 51.1157 23.2816 50.3616 24.0351L32.9328 41.464C29.9831 41.0862 25.8761 39.9932 21.3672 38.5063C18.0105 37.3878 14.6845 36.1791 11.3929 34.8814L11.3889 34.8855Z" fill="black"/>
</svg>
