<svg width="73" height="65" viewBox="0 0 73 65" fill="none" xmlns="http://www.w3.org/2000/svg">
<path d="M68.4784 13.729C68.1142 15.0644 66.4955 18.4232 63.7437 21.6201C61.9227 56.7455 27.8494 68.1572 4.49986 56.3813C1.30296 52.1323 16.033 53.8724 21.4151 45.7385C1.06016 35.3384 2.67884 7.5375 6.76602 8.67058C16.3567 21.5796 31.8152 22.7531 34.3241 21.5796C34.3241 18.6255 33.0696 12.1912 40.03 6.80909C44.0362 3.93593 52.4129 1.3865 59.9803 9.60132C61.2752 10.4511 63.1367 10.8153 65.9289 10.2083C67.5881 9.35852 69.7733 9.92506 68.6402 12.8792L68.4784 13.729Z" stroke="black" stroke-width="8" stroke-linecap="round" stroke-linejoin="round"/>
</svg>
