<svg width="81" height="64" viewBox="0 0 81 64" fill="none" xmlns="http://www.w3.org/2000/svg">
<path d="M52.3991 2.05146e-06C53.4351 2.05146e-06 54.7351 0.272004 55.7791 0.528005C59.4192 1.40801 63.7352 2.50002 66.7992 4.80003C69.6512 6.94005 71.8673 10.6721 73.5793 14.4641C77.1393 22.3642 79.6153 32.8962 80.4713 40.9043C80.8793 44.7043 80.9793 48.5283 80.2473 51.1003C79.8873 52.3644 79.1073 53.3164 78.5593 53.9004C76.8873 55.6724 74.7353 56.9964 72.6073 58.2004L71.5513 58.7964C70.8558 59.1834 70.1557 59.5621 69.4512 59.9324L67.3632 61.0124L64.4952 62.4404L62.1872 63.5764C61.3426 63.9995 60.3755 64.11 59.4572 63.8883C58.5389 63.6667 57.7287 63.1272 57.1701 62.3654C56.6115 61.6037 56.3405 60.6688 56.4051 59.7264C56.4697 58.7839 56.8658 57.8948 57.5232 57.2164L55.7871 53.7444C50.796 55.2647 45.6045 56.0252 40.387 56.0004C34.907 56.0004 29.679 55.2004 24.9869 53.7444L23.2549 57.2084C23.9148 57.8856 24.3134 58.7747 24.38 59.7179C24.4466 60.6611 24.177 61.5974 23.6189 62.3607C23.0608 63.1239 22.2504 63.6648 21.3314 63.8874C20.4125 64.11 19.4444 63.9998 18.5989 63.5764L16.4229 62.4964C14.0069 61.3044 11.5909 60.1124 9.23884 58.7964C6.78282 57.4244 4.1788 55.9644 2.23079 53.8964C1.45377 53.1103 0.87514 52.1505 0.542779 51.0963C-0.193226 48.5283 -0.0892251 44.7083 0.314778 40.9043C1.17078 32.8962 3.6468 22.3642 7.21082 14.4641C8.91884 10.6721 11.1349 6.94005 13.9869 4.80003C17.0509 2.50002 21.3669 1.40801 25.0069 0.528005C26.0509 0.272004 27.347 2.05146e-06 28.387 2.05146e-06C28.9623 -0.000494743 29.5309 0.123104 30.054 0.362366C30.5772 0.601629 31.0426 0.950925 31.4185 1.38642C31.7944 1.82192 32.0719 2.33338 32.2322 2.8859C32.3924 3.43842 32.4316 4.019 32.347 4.58803C35.0094 4.19913 37.6964 4.00262 40.387 4.00003C43.1511 4.00003 45.8511 4.20003 48.4431 4.59203C48.3579 4.0227 48.3966 3.44168 48.5565 2.88867C48.7165 2.33566 48.9939 1.82369 49.3699 1.38773C49.7458 0.951772 50.2114 0.6021 50.7349 0.362601C51.2584 0.123102 51.8235 -0.000580945 52.3991 2.05146e-06ZM57.8152 9.45206C57.2152 9.26006 57.0712 9.34407 56.8552 9.70407L56.6072 10.1521C55.9606 11.2603 54.979 12.1348 53.8037 12.6495C52.6284 13.1642 51.32 13.2925 50.0671 13.0161C46.8859 12.333 43.6407 11.9924 40.387 12.0001C36.979 12.0001 33.719 12.3601 30.707 13.0161C29.4541 13.2925 28.1457 13.1642 26.9704 12.6495C25.7951 12.1348 24.8135 11.2603 24.1669 10.1521L23.9189 9.70807C23.7069 9.34806 23.5629 9.26406 22.9669 9.45206C21.5429 9.90407 20.0149 10.3881 18.7869 11.2001C17.6389 12.0601 16.1069 14.2001 14.5029 17.7561C11.4389 24.5442 9.03884 34.5722 8.27083 41.7563C8.11083 43.2763 8.02283 44.5723 8.00683 45.6443V46.8203C8.0255 47.5323 8.07216 48.095 8.14683 48.5083C9.16284 49.5003 10.4188 50.2803 11.6789 50.9963L14.4069 52.5044L16.1909 53.4444L17.6469 50.5323C16.942 49.8755 16.4978 48.9863 16.3961 48.0281C16.2944 47.07 16.5419 46.1073 17.0932 45.3171C17.6445 44.5269 18.4625 43.9622 19.3969 43.7269C20.3312 43.4916 21.3191 43.6015 22.1789 44.0363C27.043 46.4803 33.371 48.0003 40.387 48.0003C47.4031 48.0003 53.7311 46.4723 58.5952 44.0403C59.4183 43.628 60.3584 43.5121 61.2569 43.7124C62.1555 43.9127 62.9575 44.4167 63.5276 45.1396C64.0976 45.8624 64.401 46.7598 64.3863 47.6803C64.3717 48.6007 64.04 49.488 63.4472 50.1923L63.1272 50.5323L64.5832 53.4524C65.7752 52.831 66.9712 52.187 68.1712 51.5203C69.7312 50.6563 71.3712 49.7483 72.6393 48.5083C72.7113 48.095 72.7579 47.5323 72.7793 46.8203V45.6443C72.7488 44.3437 72.6607 43.0451 72.5153 41.7523C71.7473 34.5722 69.3472 24.5442 66.2832 17.7521C64.6832 14.2001 63.1472 12.0601 62.0032 11.2001C60.7712 10.3881 59.2432 9.90407 57.8152 9.45206ZM27.387 26.0002C29.2435 26.0002 31.024 26.7377 32.3367 28.0504C33.6495 29.3632 34.387 31.1437 34.387 33.0002C34.387 34.8568 33.6495 36.6372 32.3367 37.95C31.024 39.2628 29.2435 40.0003 27.387 40.0003C25.5304 40.0003 23.7499 39.2628 22.4372 37.95C21.1244 36.6372 20.3869 34.8568 20.3869 33.0002C20.3869 31.1437 21.1244 29.3632 22.4372 28.0504C23.7499 26.7377 25.5304 26.0002 27.387 26.0002ZM53.3871 26.0002C55.2437 26.0002 57.0241 26.7377 58.3369 28.0504C59.6497 29.3632 60.3872 31.1437 60.3872 33.0002C60.3872 34.8568 59.6497 36.6372 58.3369 37.95C57.0241 39.2628 55.2437 40.0003 53.3871 40.0003C51.5306 40.0003 49.7501 39.2628 48.4374 37.95C47.1246 36.6372 46.3871 34.8568 46.3871 33.0002C46.3871 31.1437 47.1246 29.3632 48.4374 28.0504C49.7501 26.7377 51.5306 26.0002 53.3871 26.0002Z" fill="black"/>
</svg>
