<svg width="24" height="23" viewBox="0 0 24 23" fill="none" xmlns="http://www.w3.org/2000/svg">
<path fill-rule="evenodd" clip-rule="evenodd" d="M6.3072 13.4023C6.34972 13.4157 6.39308 13.4262 6.43697 13.4337C6.71513 14.1086 6.99171 14.7842 7.26674 15.4604C7.76126 16.6773 8.25971 17.9306 8.36883 18.291C8.50549 18.7344 8.64903 19.0361 8.80633 19.2427C8.88793 19.3479 8.98133 19.4411 9.09144 19.5119C9.14926 19.548 9.21053 19.5779 9.2743 19.601C9.5889 19.7225 9.87598 19.6719 10.0559 19.6101C10.1615 19.5732 10.262 19.5221 10.3548 19.4583L10.3597 19.4563L13.138 17.6725L16.348 20.2054C16.3951 20.2425 16.4463 20.2739 16.5013 20.2996C16.8867 20.4717 17.2603 20.5324 17.6123 20.4838C17.9623 20.4332 18.2405 20.2824 18.4479 20.1113C18.6859 19.9134 18.8758 19.661 19.0024 19.3743L19.0113 19.352L19.0142 19.3439L19.0162 19.3398V19.3378L19.0172 19.3368C19.0333 19.2929 19.0464 19.2479 19.0565 19.2022L21.9862 3.99124C21.9943 3.94238 21.9989 3.89298 22 3.84343C22 3.39799 21.8368 2.9738 21.4544 2.71767C21.126 2.49799 20.7612 2.48786 20.5302 2.50608C20.2825 2.52633 20.0524 2.5891 19.8981 2.63972C19.8118 2.6684 19.7266 2.70014 19.6424 2.73488L19.6316 2.73994L3.19951 9.37707L3.19754 9.37808C3.14182 9.39881 3.08704 9.42211 3.03336 9.44793C2.90301 9.50816 2.77801 9.57997 2.65977 9.66256C2.4366 9.81948 1.92242 10.2507 2.00992 10.9635C2.07874 11.5304 2.45626 11.8797 2.6873 12.0477C2.81314 12.1398 2.93308 12.2056 3.02156 12.2492C3.06089 12.2694 3.14544 12.3038 3.18181 12.32L3.19165 12.3231L6.3072 13.4023ZM20.2068 4.13702H20.2048L20.1792 4.14815L3.72745 10.7944L3.70189 10.8045L3.69206 10.8076C3.66194 10.8195 3.63241 10.8331 3.60358 10.848C3.63107 10.8639 3.65928 10.8785 3.68813 10.8916L6.77714 11.9627C6.83168 11.9835 6.88432 12.0092 6.93444 12.0396L17.1364 5.88944L17.1463 5.88438C17.1861 5.85996 17.2268 5.837 17.2682 5.81554C17.339 5.77808 17.452 5.72341 17.5798 5.68291C17.6683 5.65457 17.9308 5.57459 18.2139 5.66874C18.3644 5.71706 18.4985 5.80819 18.6007 5.93161C18.703 6.05502 18.7693 6.20571 18.792 6.36627C18.8286 6.50674 18.8297 6.65453 18.795 6.79551C18.7262 7.07392 18.5374 7.29056 18.3654 7.45659C18.2179 7.59833 16.3047 9.49754 14.4181 11.3725L11.8491 13.9236L11.392 14.3792L17.1649 18.9369C17.2429 18.9704 17.3275 18.9843 17.4117 18.9774C17.4541 18.9714 17.494 18.9532 17.5267 18.9248C17.5665 18.8901 17.6007 18.8491 17.628 18.8033L17.63 18.8023L20.4712 4.04894C20.3819 4.0716 20.2941 4.10069 20.2087 4.13601L20.2068 4.13702ZM11.8885 16.6844L10.7362 15.7753L10.457 17.6026L11.8885 16.6844ZM9.67935 13.9712L10.8247 12.8323L13.3936 10.2791L14.3502 9.32949L7.94019 13.1937L7.9746 13.2767C8.37887 14.2602 8.77868 15.2456 9.17402 16.2329L9.45225 14.4106C9.47765 14.2417 9.55767 14.0875 9.67935 13.9712Z" fill="black" stroke="black" stroke-linejoin="round"/>
</svg>
