<svg width="22" height="23" viewBox="0 0 22 23" fill="none" xmlns="http://www.w3.org/2000/svg">
<path d="M14.4236 2.47437C15.6699 2.48513 17.0019 2.98043 18.2127 4.23511C18.3212 4.28177 18.5416 4.3296 18.9744 4.24683C19.3826 4.08333 19.9783 4.00308 20.5007 4.34839C20.8346 4.56912 21.0431 4.91412 21.1043 5.30347C21.1535 5.61727 21.1003 5.92354 21.0086 6.19995L20.9724 6.38648C20.9676 6.41192 20.9617 6.43765 20.9548 6.46265C20.818 6.96443 20.3544 7.89809 19.6336 8.80445C19.2638 13.9244 16.5695 17.4104 13.0359 19.1589C9.46832 20.9242 5.09625 20.895 1.532 19.0974C1.39504 19.0283 1.27561 18.928 1.18337 18.8054C0.988172 18.5458 0.749906 18.0942 0.905045 17.5515C1.04753 17.0542 1.43871 16.7954 1.65016 16.6785C1.88729 16.5474 2.16125 16.4531 2.39821 16.3796C2.64057 16.3045 2.92593 16.2276 3.18727 16.1541C3.91106 15.9504 4.58832 15.7254 5.12282 15.3923C2.7083 13.6802 1.55421 11.1245 1.12184 8.97241C0.87346 7.73574 0.849942 6.57469 0.986099 5.70484C1.05208 5.28363 1.16761 4.85098 1.37087 4.50562C1.47296 4.33226 1.63509 4.1151 1.88649 3.95874C2.13281 3.80572 2.43601 3.73068 2.75172 3.78199L2.88747 3.81226L3.04274 3.86988C3.19241 3.93964 3.32406 4.04554 3.4236 4.17945C4.62437 5.79557 6.19542 6.68278 7.55739 7.12866C8.23867 7.35169 8.8542 7.45972 9.32204 7.49488C9.33285 7.49569 9.34366 7.49512 9.35426 7.49585C9.35911 7.15928 9.38521 6.76929 9.46657 6.38159C9.66901 5.41754 10.1922 4.37217 11.3709 3.4607L11.4002 3.43921C12.0997 2.93759 13.1741 2.46366 14.4236 2.47437ZM14.406 4.47437C13.67 4.4681 13.0074 4.75194 12.5789 5.05542C11.811 5.65463 11.5337 6.26853 11.4236 6.79273C11.2955 7.4032 11.3767 7.83341 11.3767 8.40894C11.3767 8.79709 11.1521 9.15068 10.8006 9.31519C10.548 9.43325 10.2591 9.47557 10.032 9.4939C9.77811 9.51438 9.48644 9.51267 9.17165 9.48902C8.5408 9.44159 7.76731 9.30142 6.93532 9.02906C5.65086 8.60855 4.19568 7.85918 2.90895 6.61304C2.88943 7.15826 2.93388 7.83642 3.08278 8.57788C3.50285 10.6691 4.69142 13.0369 7.19899 14.3181C7.45235 14.4476 7.63831 14.6797 7.71071 14.9548C7.783 15.23 7.7347 15.5232 7.5779 15.7605C6.69189 17.0995 5.16463 17.6573 4.08766 17.9753C6.73127 18.7882 9.681 18.5882 12.1492 17.3669C15.1056 15.904 17.4212 12.9534 17.659 8.3689L17.6814 8.20484C17.7169 8.04456 17.791 7.89405 17.8992 7.76831C18.3854 7.2034 18.7106 6.63671 18.8836 6.27613C18.1797 6.33694 17.5638 6.21126 17.0496 5.87378C16.9812 5.8289 16.9185 5.77571 16.8631 5.71558C15.9754 4.75208 15.1116 4.48042 14.406 4.47437Z" fill="black"/>
<path d="M14.4236 2.47437L14.4279 1.97439L14.4279 1.97439L14.4236 2.47437ZM18.2127 4.23511L17.8529 4.58231C17.899 4.6301 17.9542 4.66822 18.0152 4.69446L18.2127 4.23511ZM18.9744 4.24683L19.0683 4.73793C19.0998 4.73191 19.1306 4.72289 19.1603 4.71098L18.9744 4.24683ZM20.5007 4.34839L20.7765 3.93133L20.7765 3.93128L20.5007 4.34839ZM21.1043 5.30347L21.5982 5.22595L21.5982 5.22584L21.1043 5.30347ZM21.0086 6.19995L20.534 6.04244C20.5272 6.06287 20.5218 6.08372 20.5177 6.10486L21.0086 6.19995ZM20.9724 6.38648L20.4816 6.29139L20.4813 6.29291L20.9724 6.38648ZM20.9548 6.46265L21.4372 6.59421L21.4373 6.59403L20.9548 6.46265ZM19.6336 8.80445L19.2422 8.49323C19.1795 8.57206 19.1421 8.66798 19.1349 8.76843L19.6336 8.80445ZM13.0359 19.1589L13.2576 19.6071L13.2577 19.6071L13.0359 19.1589ZM1.532 19.0974L1.30666 19.5438L1.30685 19.5439L1.532 19.0974ZM1.18337 18.8054L0.783729 19.1059L0.783822 19.106L1.18337 18.8054ZM0.905045 17.5515L0.424385 17.4138L0.424306 17.4141L0.905045 17.5515ZM1.65016 16.6785L1.4083 16.2409L1.40822 16.2409L1.65016 16.6785ZM2.39821 16.3796L2.25017 15.9021L2.25016 15.9021L2.39821 16.3796ZM3.18727 16.1541L3.32268 16.6354L3.32269 16.6354L3.18727 16.1541ZM5.12282 15.3923L5.38725 15.8167C5.52928 15.7282 5.61762 15.5745 5.6226 15.4072C5.62758 15.2399 5.54855 15.0813 5.41204 14.9845L5.12282 15.3923ZM1.12184 8.97241L0.631631 9.07087L0.631637 9.0709L1.12184 8.97241ZM0.986099 5.70484L0.492124 5.62745L0.492115 5.62751L0.986099 5.70484ZM1.37087 4.50562L0.940028 4.25189L0.939955 4.25201L1.37087 4.50562ZM1.88649 3.95874L1.62265 3.53402L1.62243 3.53416L1.88649 3.95874ZM2.75172 3.78199L2.86056 3.29397C2.85107 3.29186 2.84152 3.29002 2.83193 3.28846L2.75172 3.78199ZM2.88747 3.81226L3.06141 3.34349C3.04017 3.33561 3.01842 3.32918 2.9963 3.32425L2.88747 3.81226ZM3.04274 3.86988L3.25398 3.41669C3.24176 3.41099 3.22932 3.4058 3.21669 3.40111L3.04274 3.86988ZM3.4236 4.17945L3.82495 3.88125L3.82488 3.88116L3.4236 4.17945ZM7.55739 7.12866L7.40182 7.60385L7.40183 7.60385L7.55739 7.12866ZM9.32204 7.49488L9.28457 7.99347L9.28463 7.99347L9.32204 7.49488ZM9.35426 7.49585L9.31986 7.99467C9.45687 8.00412 9.59173 7.9568 9.6928 7.86381C9.79386 7.77083 9.85223 7.64037 9.85421 7.50305L9.35426 7.49585ZM9.46657 6.38159L8.97724 6.27884L8.97723 6.2789L9.46657 6.38159ZM11.3709 3.4607L11.0751 3.05736L11.065 3.06517L11.3709 3.4607ZM11.4002 3.43921L11.1088 3.03286L11.1045 3.03601L11.4002 3.43921ZM14.406 4.47437L14.4103 3.97439L14.4103 3.97439L14.406 4.47437ZM12.5789 5.05542L12.2899 4.64738C12.2836 4.65186 12.2774 4.65647 12.2713 4.66123L12.5789 5.05542ZM11.4236 6.79273L10.9343 6.68995L10.9342 6.69008L11.4236 6.79273ZM11.3767 8.40894H11.8767V8.40889L11.3767 8.40894ZM10.8006 9.31519L11.0123 9.76813L11.0125 9.76806L10.8006 9.31519ZM10.032 9.4939L10.0722 9.99228L10.0722 9.99228L10.032 9.4939ZM9.17165 9.48902L9.13416 9.98761L9.13418 9.98761L9.17165 9.48902ZM6.93532 9.02906L6.77975 9.50424L6.77976 9.50424L6.93532 9.02906ZM2.90895 6.61304L3.25679 6.25387C3.1149 6.11645 2.90541 6.07545 2.72218 6.14923C2.53896 6.22301 2.41634 6.39775 2.40927 6.59515L2.90895 6.61304ZM3.08278 8.57788L2.59257 8.67633L2.59257 8.67635L3.08278 8.57788ZM7.19899 14.3181L7.42656 13.8729L7.42649 13.8729L7.19899 14.3181ZM7.71071 14.9548L8.19429 14.8278L8.19425 14.8276L7.71071 14.9548ZM7.5779 15.7605L7.99488 16.0364L7.99507 16.0361L7.5779 15.7605ZM4.08766 17.9753L3.94605 17.4958C3.73451 17.5583 3.5889 17.752 3.58767 17.9726C3.58644 18.1931 3.72989 18.3884 3.94071 18.4533L4.08766 17.9753ZM12.1492 17.3669L12.3709 17.8151L12.3709 17.8151L12.1492 17.3669ZM17.659 8.3689L17.1636 8.30108C17.1617 8.31499 17.1603 8.32898 17.1596 8.34301L17.659 8.3689ZM17.6814 8.20484L17.1932 8.09677C17.1903 8.11008 17.1879 8.12351 17.186 8.13702L17.6814 8.20484ZM17.8992 7.76831L17.5202 7.44214L17.5201 7.44226L17.8992 7.76831ZM18.8836 6.27613L19.3344 6.49233C19.412 6.33048 19.3969 6.13944 19.2948 5.99178C19.1928 5.84413 19.0194 5.76253 18.8405 5.77798L18.8836 6.27613ZM17.0496 5.87378L16.7752 6.29176L16.7752 6.29181L17.0496 5.87378ZM16.8631 5.71558L16.4953 6.05436L16.4954 6.0545L16.8631 5.71558ZM14.4236 2.47437L14.4193 2.97435C15.5249 2.9839 16.7307 3.41945 17.8529 4.58231L18.2127 4.23511L18.5725 3.88791C17.2731 2.54141 15.8149 1.98636 14.4279 1.97439L14.4236 2.47437ZM18.2127 4.23511L18.0152 4.69446C18.2438 4.79276 18.5728 4.83269 19.0683 4.73793L18.9744 4.24683L18.8805 3.75573C18.5103 3.82651 18.3986 3.77079 18.4101 3.77576L18.2127 4.23511ZM18.9744 4.24683L19.1603 4.71098C19.4856 4.58067 19.8918 4.54525 20.225 4.7655L20.5007 4.34839L20.7765 3.93128C20.0649 3.4609 19.2795 3.586 18.7885 3.78268L18.9744 4.24683ZM20.5007 4.34839L20.225 4.76545C20.4339 4.9036 20.5695 5.12109 20.6103 5.3811L21.1043 5.30347L21.5982 5.22584C21.5167 4.70714 21.2352 4.23465 20.7765 3.93133L20.5007 4.34839ZM21.1043 5.30347L20.6103 5.38099C20.6432 5.59072 20.6102 5.81294 20.534 6.04244L21.0086 6.19995L21.4831 6.35747C21.5904 6.03414 21.6638 5.64382 21.5982 5.22595L21.1043 5.30347ZM21.0086 6.19995L20.5177 6.10486L20.4816 6.29139L20.9724 6.38648L21.4633 6.48157L21.4994 6.29504L21.0086 6.19995ZM20.9724 6.38648L20.4813 6.29291C20.4788 6.3059 20.4758 6.31901 20.4724 6.33127L20.9548 6.46265L21.4373 6.59403C21.4476 6.5563 21.4564 6.51794 21.4636 6.48004L20.9724 6.38648ZM20.9548 6.46265L20.4725 6.33109C20.3584 6.74922 19.9344 7.62288 19.2422 8.49323L19.6336 8.80445L20.0249 9.11566C20.7743 8.1733 21.2776 7.17963 21.4372 6.59421L20.9548 6.46265ZM19.6336 8.80445L19.1349 8.76843C18.7779 13.712 16.1886 17.041 12.8142 18.7108L13.0359 19.1589L13.2577 19.6071C16.9504 17.7798 19.7498 14.1368 20.1323 8.84046L19.6336 8.80445ZM13.0359 19.1589L12.8142 18.7108C9.38879 20.4057 5.18226 20.3784 1.75715 18.651L1.532 19.0974L1.30685 19.5439C5.01024 21.4116 9.54785 21.4427 13.2576 19.6071L13.0359 19.1589ZM1.532 19.0974L1.75734 18.6511C1.68937 18.6168 1.62938 18.5666 1.58291 18.5048L1.18337 18.8054L0.783822 19.106C0.921837 19.2895 1.10071 19.4398 1.30666 19.5438L1.532 19.0974ZM1.18337 18.8054L1.583 18.5049C1.42686 18.2973 1.29384 18.0105 1.38578 17.689L0.905045 17.5515L0.424306 17.4141C0.205969 18.1778 0.549482 18.7944 0.783729 19.1059L1.18337 18.8054ZM0.905045 17.5515L1.3857 17.6892C1.47196 17.3882 1.71438 17.2143 1.8921 17.116L1.65016 16.6785L1.40822 16.2409C1.16304 16.3765 0.6231 16.7202 0.424385 17.4138L0.905045 17.5515ZM1.65016 16.6785L1.89202 17.1161C2.0821 17.011 2.31518 16.9289 2.54626 16.8572L2.39821 16.3796L2.25016 15.9021C2.00733 15.9773 1.69248 16.0838 1.4083 16.2409L1.65016 16.6785ZM2.39821 16.3796L2.54624 16.8572C2.78022 16.7847 3.05317 16.7112 3.32268 16.6354L3.18727 16.1541L3.05186 15.6727C2.79869 15.744 2.50092 15.8243 2.25017 15.9021L2.39821 16.3796ZM3.18727 16.1541L3.32269 16.6354C4.04973 16.4308 4.78742 16.1905 5.38725 15.8167L5.12282 15.3923L4.85838 14.968C4.38922 15.2603 3.77238 15.47 3.05185 15.6727L3.18727 16.1541ZM5.12282 15.3923L5.41204 14.9845C3.13133 13.3672 2.02757 10.9422 1.61205 8.87393L1.12184 8.97241L0.631637 9.0709C1.08084 11.3068 2.28527 13.9932 4.8336 15.8002L5.12282 15.3923ZM1.12184 8.97241L1.61205 8.87396C1.37329 7.68519 1.35452 6.58436 1.48008 5.78216L0.986099 5.70484L0.492115 5.62751C0.345368 6.56501 0.373627 7.78628 0.631631 9.07087L1.12184 8.97241ZM0.986099 5.70484L1.48008 5.78222C1.54175 5.38849 1.64441 5.0266 1.80178 4.75922L1.37087 4.50562L0.939955 4.25201C0.690804 4.67535 0.562411 5.17877 0.492124 5.62745L0.986099 5.70484ZM1.37087 4.50562L1.8017 4.75935C1.88104 4.62464 1.99282 4.48142 2.15055 4.38333L1.88649 3.95874L1.62243 3.53416C1.27735 3.74877 1.06488 4.03989 0.940028 4.25189L1.37087 4.50562ZM1.88649 3.95874L2.15033 4.38346C2.30322 4.28849 2.48528 4.24525 2.67152 4.27551L2.75172 3.78199L2.83193 3.28846C2.38675 3.21611 1.96241 3.32296 1.62265 3.53402L1.88649 3.95874ZM2.75172 3.78199L2.64289 4.27L2.77863 4.30027L2.88747 3.81226L2.9963 3.32425L2.86056 3.29397L2.75172 3.78199ZM2.88747 3.81226L2.71352 4.28103L2.86879 4.33864L3.04274 3.86988L3.21669 3.40111L3.06141 3.34349L2.88747 3.81226ZM3.04274 3.86988L2.8315 4.32306C2.90763 4.35855 2.97338 4.4119 3.02232 4.47773L3.4236 4.17945L3.82488 3.88116C3.67475 3.67918 3.4772 3.52073 3.25398 3.41669L3.04274 3.86988ZM3.4236 4.17945L3.02225 4.47764C4.29738 6.19385 5.96399 7.13312 7.40182 7.60385L7.55739 7.12866L7.71296 6.65348C6.42685 6.23243 4.95135 5.39729 3.82495 3.88125L3.4236 4.17945ZM7.55739 7.12866L7.40183 7.60385C8.12076 7.8392 8.77591 7.95524 9.28457 7.99347L9.32204 7.49488L9.35951 6.99628C8.93248 6.96419 8.35658 6.86418 7.71295 6.65348L7.55739 7.12866ZM9.32204 7.49488L9.28463 7.99347C9.29766 7.99445 9.30878 7.99487 9.31673 7.99509C9.32431 7.99529 9.33104 7.99535 9.33346 7.99537C9.3372 7.99541 9.3361 7.9954 9.3346 7.99537C9.33259 7.99532 9.3272 7.99517 9.31986 7.99467L9.35426 7.49585L9.38867 6.99704C9.37602 6.99617 9.36531 6.99581 9.35795 6.99564C9.35111 6.99548 9.34464 6.99543 9.343 6.99542C9.34004 6.99539 9.34138 6.99539 9.34356 6.99545C9.34611 6.99552 9.35182 6.9957 9.35944 6.99628L9.32204 7.49488ZM9.35426 7.49585L9.85421 7.50305C9.8588 7.1847 9.88348 6.8294 9.95591 6.48429L9.46657 6.38159L8.97723 6.2789C8.88693 6.70918 8.85943 7.13387 8.85432 7.48865L9.35426 7.49585ZM9.46657 6.38159L9.9559 6.48435C10.1355 5.62915 10.5979 4.6905 11.6767 3.85622L11.3709 3.4607L11.065 3.06517C9.78651 4.05385 9.20254 5.20592 8.97724 6.27884L9.46657 6.38159ZM11.3709 3.4607L11.6665 3.8639L11.6958 3.84241L11.4002 3.43921L11.1045 3.03601L11.0752 3.05749L11.3709 3.4607ZM11.4002 3.43921L11.6915 3.84554C12.3234 3.39246 13.2965 2.96473 14.4193 2.97435L14.4236 2.47437L14.4279 1.97439C13.0518 1.96259 11.876 2.48271 11.1088 3.03289L11.4002 3.43921ZM14.406 4.47437L14.4103 3.97439C13.5489 3.96705 12.7858 4.29616 12.2899 4.64738L12.5789 5.05542L12.8678 5.46346C13.229 5.20772 13.791 4.96915 14.4018 4.97435L14.406 4.47437ZM12.5789 5.05542L12.2713 4.66123C11.4046 5.33754 11.0671 6.05751 10.9343 6.68995L11.4236 6.79273L11.9129 6.8955C12.0003 6.47954 12.2174 5.97171 12.8865 5.44961L12.5789 5.05542ZM11.4236 6.79273L10.9342 6.69008C10.7922 7.3674 10.8767 7.92572 10.8767 8.40898L11.3767 8.40894L11.8767 8.40889C11.8767 7.7411 11.7989 7.439 11.913 6.89537L11.4236 6.79273ZM11.3767 8.40894H10.8767C10.8767 8.6033 10.7642 8.78019 10.5886 8.86232L10.8006 9.31519L11.0125 9.76806C11.5401 9.52118 11.8767 8.99088 11.8767 8.40894H11.3767ZM10.8006 9.31519L10.5888 8.86225C10.418 8.94211 10.2003 8.97868 9.99176 8.99552L10.032 9.4939L10.0722 9.99228C10.3178 9.97246 10.6781 9.92439 11.0123 9.76813L10.8006 9.31519ZM10.032 9.4939L9.99179 8.99552C9.76908 9.01348 9.504 9.01258 9.20912 8.99042L9.17165 9.48902L9.13418 9.98761C9.46887 10.0128 9.78713 10.0153 10.0722 9.99228L10.032 9.4939ZM9.17165 9.48902L9.20913 8.99042C8.61918 8.94607 7.88531 8.81394 7.09087 8.55387L6.93532 9.02906L6.77976 9.50424C7.64932 9.7889 8.46242 9.93711 9.13416 9.98761L9.17165 9.48902ZM6.93532 9.02906L7.09088 8.55387C5.86548 8.1527 4.48002 7.43851 3.25679 6.25387L2.90895 6.61304L2.56111 6.97221C3.91135 8.27986 5.43623 9.06439 6.77975 9.50424L6.93532 9.02906ZM2.90895 6.61304L2.40927 6.59515C2.38833 7.18019 2.43614 7.89738 2.59257 8.67633L3.08278 8.57788L3.57299 8.47944C3.43162 7.77545 3.39054 7.13633 3.40863 6.63093L2.90895 6.61304ZM3.08278 8.57788L2.59257 8.67635C3.03193 10.8636 4.28583 13.3911 6.97149 14.7634L7.19899 14.3181L7.42649 13.8729C5.09701 12.6826 3.97377 10.4746 3.57299 8.47941L3.08278 8.57788ZM7.19899 14.3181L6.97142 14.7633C7.09735 14.8277 7.19075 14.9437 7.22717 15.0821L7.71071 14.9548L8.19425 14.8276C8.08587 14.4157 7.80735 14.0675 7.42656 13.8729L7.19899 14.3181ZM7.71071 14.9548L7.22712 15.0819C7.26329 15.2195 7.23908 15.3663 7.16072 15.4849L7.5779 15.7605L7.99507 16.0361C8.23032 15.6801 8.30271 15.2404 8.19429 14.8278L7.71071 14.9548ZM7.5779 15.7605L7.16092 15.4846C6.38203 16.6617 5.01581 17.1799 3.94605 17.4958L4.08766 17.9753L4.22928 18.4549C5.31345 18.1347 7.00175 17.5373 7.99488 16.0364L7.5779 15.7605ZM4.08766 17.9753L3.94071 18.4533C6.70145 19.3021 9.78352 19.0953 12.3709 17.8151L12.1492 17.3669L11.9274 16.9188C9.57849 18.0811 6.76109 18.2743 4.23461 17.4974L4.08766 17.9753ZM12.1492 17.3669L12.3709 17.8151C15.4907 16.2713 17.9113 13.1585 18.1583 8.39479L17.659 8.3689L17.1596 8.34301C16.9312 12.7483 14.7206 15.5366 11.9274 16.9188L12.1492 17.3669ZM17.659 8.3689L18.1543 8.43672L18.1768 8.27266L17.6814 8.20484L17.186 8.13702L17.1636 8.30108L17.659 8.3689ZM17.6814 8.20484L18.1696 8.3129C18.1876 8.23139 18.2251 8.15618 18.2782 8.09437L17.8992 7.76831L17.5201 7.44226C17.357 7.63192 17.2461 7.85773 17.1932 8.09677L17.6814 8.20484ZM17.8992 7.76831L18.2781 8.09448C18.7982 7.49022 19.1462 6.88471 19.3344 6.49233L18.8836 6.27613L18.4327 6.05992C18.275 6.38871 17.9726 6.91659 17.5202 7.44214L17.8992 7.76831ZM18.8836 6.27613L18.8405 5.77798C18.2226 5.83137 17.7248 5.71882 17.3239 5.45576L17.0496 5.87378L16.7752 6.29181C17.4029 6.70371 18.1368 6.84251 18.9266 6.77427L18.8836 6.27613ZM17.0496 5.87378L17.324 5.4558C17.2898 5.43335 17.2584 5.40671 17.2307 5.37666L16.8631 5.71558L16.4954 6.0545C16.5786 6.14471 16.6726 6.22444 16.7752 6.29176L17.0496 5.87378ZM16.8631 5.71558L17.2308 5.3768C16.2545 4.31705 15.2613 3.98169 14.4103 3.97439L14.406 4.47437L14.4017 4.97435C14.9619 4.97916 15.6964 5.18711 16.4953 6.05436L16.8631 5.71558Z" fill="black"/>
</svg>
