<svg width="63" height="324" viewBox="0 0 63 324" fill="none" xmlns="http://www.w3.org/2000/svg">
<g filter="url(#filter0_dg_71_7658)">
<rect x="83.9995" y="4" width="312" height="80" rx="40" transform="rotate(90 83.9995 4)" fill="#FF9D33"/>
<rect x="80.4995" y="7.5" width="305" height="73" rx="36.5" transform="rotate(90 80.4995 7.5)" stroke="black" stroke-width="7"/>
</g>
<path d="M37.5275 289.242C37.2075 288.602 36.9835 287.93 36.8555 287.226C36.7062 286.522 36.6742 285.828 36.7595 285.146C36.8235 284.442 37.0048 283.77 37.3035 283.13C37.5808 282.49 37.9862 281.892 38.5195 281.338C39.0742 280.783 39.6822 280.356 40.3435 280.058C41.0048 279.759 41.7408 279.546 42.5515 279.418C43.1062 279.332 43.6182 279.194 44.0875 279.002C44.5568 278.81 45.0262 278.607 45.4955 278.394C45.9648 278.159 46.4342 277.946 46.9035 277.754C47.3728 277.54 47.8635 277.37 48.3755 277.242C48.8662 277.135 49.3462 277.178 49.8155 277.37C50.2635 277.54 50.5408 277.903 50.6475 278.458C50.7115 278.778 50.6902 279.087 50.5835 279.386C50.4555 279.663 50.2848 279.919 50.0715 280.154C49.8368 280.388 49.5915 280.602 49.3355 280.794C49.0582 280.964 48.8022 281.124 48.5675 281.274C49.2075 281.764 49.7088 282.298 50.0715 282.874C50.4128 283.45 50.6368 284.143 50.7435 284.954C50.8288 285.636 50.8502 286.287 50.8075 286.906C50.7648 287.524 50.6475 288.186 50.4555 288.89C50.2208 289.807 49.8155 290.564 49.2395 291.162C48.6422 291.738 47.9595 292.186 47.1915 292.506C46.4022 292.804 45.5595 292.964 44.6635 292.986C43.7675 293.007 42.8822 292.9 42.0075 292.666C40.8555 292.367 39.9168 291.919 39.1915 291.322C38.4662 290.724 37.9115 290.031 37.5275 289.242ZM41.2715 288.442C41.5702 288.74 41.9222 288.975 42.3275 289.146C42.7328 289.316 43.1595 289.423 43.6075 289.466C44.0555 289.487 44.5035 289.444 44.9515 289.338C45.3995 289.231 45.7942 289.06 46.1355 288.826C46.4342 288.612 46.6902 288.25 46.9035 287.738C47.0955 287.226 47.2128 286.692 47.2555 286.138C47.2982 285.498 47.1275 284.943 46.7435 284.474C46.3595 283.983 45.8795 283.62 45.3035 283.386C44.7062 283.13 44.0768 283.012 43.4155 283.034C42.7328 283.055 42.1142 283.236 41.5595 283.578C41.1542 283.834 40.8555 284.175 40.6635 284.602C40.4715 285.007 40.3755 285.444 40.3755 285.914C40.3542 286.383 40.4288 286.852 40.5995 287.322C40.7488 287.77 40.9728 288.143 41.2715 288.442ZM45.3675 266.931C45.1115 267.337 44.9088 267.795 44.7595 268.307C44.6102 268.798 44.4715 269.31 44.3435 269.843C44.2155 270.355 44.0768 270.857 43.9275 271.347C43.7568 271.838 43.5222 272.286 43.2235 272.691C42.5622 273.566 41.7515 274.078 40.7915 274.227C39.8102 274.355 38.8288 274.142 37.8475 273.587C37.3355 273.289 36.9195 272.894 36.5995 272.403C36.2582 271.913 36.0022 271.379 35.8315 270.803C35.6395 270.206 35.5328 269.598 35.5115 268.979C35.4902 268.361 35.5222 267.774 35.6075 267.219C35.6715 266.857 35.7675 266.473 35.8955 266.067C36.0022 265.662 36.1515 265.289 36.3435 264.947C36.5355 264.585 36.7808 264.265 37.0795 263.987C37.3568 263.689 37.7088 263.475 38.1355 263.347C38.4128 263.262 38.6795 263.251 38.9355 263.315C39.1915 263.358 39.4048 263.465 39.5755 263.635C39.7462 263.785 39.8742 263.987 39.9595 264.243C40.0448 264.478 40.0662 264.734 40.0235 265.011C39.9595 265.331 39.8635 265.63 39.7355 265.907C39.6075 266.185 39.4688 266.462 39.3195 266.739C39.1702 267.017 39.0422 267.305 38.9355 267.603C38.8288 267.881 38.7755 268.179 38.7755 268.499C38.7542 268.99 38.8395 269.395 39.0315 269.715C39.2235 270.035 39.4582 270.259 39.7355 270.387C40.0128 270.494 40.3115 270.483 40.6315 270.355C40.9515 270.206 41.2288 269.907 41.4635 269.459C41.6768 269.054 41.8475 268.606 41.9755 268.115C42.1035 267.625 42.2315 267.145 42.3595 266.675C42.4875 266.185 42.6368 265.715 42.8075 265.267C42.9782 264.798 43.2128 264.382 43.5115 264.019C44.0875 263.315 44.7595 262.889 45.5275 262.739C46.2955 262.569 47.0528 262.611 47.7995 262.867C48.5462 263.123 49.2075 263.571 49.7835 264.211C50.3595 264.83 50.7435 265.566 50.9355 266.419C51.0635 267.038 51.1275 267.71 51.1275 268.435C51.1275 269.139 51.0528 269.843 50.9035 270.547C50.7542 271.23 50.5195 271.891 50.1995 272.531C49.8795 273.15 49.4742 273.673 48.9835 274.099C48.6422 274.398 48.2582 274.558 47.8315 274.579C47.3835 274.579 46.9995 274.494 46.6795 274.323C46.3382 274.131 46.1035 273.865 45.9755 273.523C45.8475 273.182 45.9222 272.798 46.1995 272.371C46.4342 272.03 46.6688 271.625 46.9035 271.155C47.1168 270.686 47.2875 270.217 47.4155 269.747C47.5435 269.278 47.6075 268.83 47.6075 268.403C47.6075 267.955 47.5115 267.571 47.3195 267.251C47.0208 266.782 46.6795 266.537 46.2955 266.515C45.8902 266.494 45.5808 266.633 45.3675 266.931ZM43.6395 253.68C44.1302 253.211 44.4928 252.869 44.7275 252.656C44.9408 252.421 45.1008 252.261 45.2075 252.176C45.3142 252.069 45.3782 251.995 45.3995 251.952C45.4208 251.909 45.4848 251.835 45.5915 251.728C45.6982 251.621 45.8688 251.451 46.1035 251.216C46.3168 250.981 46.6688 250.629 47.1595 250.16C47.5435 249.776 47.9915 249.467 48.5035 249.232C48.9942 248.976 49.5275 248.997 50.1035 249.296C50.4022 249.467 50.6155 249.659 50.7435 249.872C50.8502 250.085 50.8928 250.32 50.8715 250.576C50.8502 250.811 50.7755 251.067 50.6475 251.344C50.5195 251.6 50.3595 251.856 50.1675 252.112C49.8048 252.603 49.3888 253.072 48.9195 253.52C48.4288 253.968 48.0555 254.331 47.7995 254.608C47.6075 254.8 47.4795 254.917 47.4155 254.96C47.3728 255.003 47.3408 255.045 47.3195 255.088C47.2768 255.131 47.2342 255.173 47.1915 255.216C47.0422 255.365 46.8928 255.525 46.7435 255.696C46.5942 255.867 46.4342 256.037 46.2635 256.208L47.5115 256.208C47.7462 256.208 47.9168 256.197 48.0235 256.176C48.2368 256.176 48.3968 256.187 48.5035 256.208C48.7382 256.272 48.9622 256.304 49.1755 256.304C49.2822 256.325 49.3888 256.347 49.4955 256.368C49.5808 256.389 49.6768 256.421 49.7835 256.464C49.8262 256.485 49.8582 256.507 49.8795 256.528C49.9008 256.528 49.9328 256.528 49.9755 256.528C50.0182 256.549 50.0502 256.571 50.0715 256.592C50.0928 256.592 50.1248 256.603 50.1675 256.624C50.3808 256.731 50.5835 256.901 50.7755 257.136C51.0102 257.541 51.0742 258.043 50.9675 258.64C50.9035 258.96 50.7862 259.205 50.6155 259.376C50.4875 259.568 50.3062 259.696 50.0715 259.76C49.9648 259.803 49.8582 259.845 49.7515 259.888C49.6235 259.909 49.5062 259.941 49.3995 259.984C49.2928 260.027 49.1968 260.048 49.1115 260.048C49.0048 260.048 48.9195 260.048 48.8555 260.048L30.6475 260.048C30.5195 260.048 30.3915 260.048 30.2635 260.048C30.1355 260.048 30.0075 260.037 29.8795 260.016C29.7515 259.995 29.6342 259.973 29.5275 259.952C29.3995 259.909 29.2822 259.867 29.1755 259.824C28.9622 259.739 28.7915 259.632 28.6635 259.504C28.5568 259.397 28.4822 259.291 28.4395 259.184C28.3755 259.056 28.3222 258.939 28.2795 258.832C28.2582 258.725 28.2475 258.608 28.2475 258.48C28.2262 258.331 28.2155 258.192 28.2155 258.064C28.2155 257.765 28.3008 257.467 28.4715 257.168C28.6635 256.891 28.9088 256.688 29.2075 256.56C29.6128 256.389 30.0075 256.304 30.3915 256.304C30.6048 256.283 30.9355 256.261 31.3835 256.24C31.8102 256.219 32.1302 256.208 32.3435 256.208L32.4715 256.208C33.1755 256.187 33.8475 256.176 34.4875 256.176C35.1275 256.176 35.8208 256.176 36.5675 256.176C37.3142 256.197 38.0288 256.208 38.7115 256.208C39.3728 256.208 40.0342 256.208 40.6955 256.208L41.0475 256.208C40.8768 256.037 40.7168 255.867 40.5675 255.696C40.4182 255.525 40.2582 255.365 40.0875 255.216C40.0235 255.131 39.9488 255.045 39.8635 254.96L39.5115 254.608C39.2342 254.331 38.8608 253.968 38.3915 253.52C37.9008 253.072 37.4742 252.603 37.1115 252.112C36.7275 251.579 36.4928 251.067 36.4075 250.576C36.3222 250.064 36.5782 249.637 37.1755 249.296C37.7515 248.997 38.2955 248.976 38.8075 249.232C39.2982 249.467 39.7568 249.776 40.1835 250.16C40.6742 250.629 41.0368 250.981 41.2715 251.216C41.4848 251.451 41.6448 251.621 41.7515 251.728C41.8368 251.835 41.8902 251.909 41.9115 251.952C41.9328 251.995 41.9968 252.069 42.1035 252.176C42.1888 252.261 42.3488 252.421 42.5835 252.656C42.7968 252.869 43.1488 253.211 43.6395 253.68ZM43.5435 219.548C44.2262 219.505 44.8768 219.484 45.4955 219.484C46.0928 219.484 46.7328 219.505 47.4155 219.548C47.6715 219.548 47.9595 219.548 48.2795 219.548C48.5995 219.548 48.9088 219.569 49.2075 219.612C49.5062 219.655 49.7835 219.729 50.0395 219.836C50.2955 219.943 50.4982 220.103 50.6475 220.316C50.8182 220.572 50.9355 220.86 50.9995 221.18C51.0422 221.5 51.0208 221.799 50.9355 222.076C50.8502 222.353 50.6902 222.599 50.4555 222.812C50.2208 223.004 49.8902 223.111 49.4635 223.132C48.4822 223.196 47.5008 223.228 46.5195 223.228C46.0288 223.228 45.5595 223.239 45.1115 223.26C44.6635 223.26 44.0342 223.249 43.2235 223.228C42.8182 223.228 42.3595 223.26 41.8475 223.324C41.3142 223.388 40.9408 223.548 40.7275 223.804C40.5568 223.996 40.4608 224.209 40.4395 224.444C40.3968 224.679 40.4182 224.913 40.5035 225.148C40.5888 225.361 40.7488 225.553 40.9835 225.724C41.1968 225.895 41.4742 226.012 41.8155 226.076C42.0928 226.076 42.3808 226.087 42.6795 226.108C42.9568 226.108 43.2235 226.097 43.4795 226.076C44.1622 226.055 44.8128 226.044 45.4315 226.044C46.0288 226.044 46.6688 226.055 47.3515 226.076C47.6288 226.097 47.9275 226.108 48.2475 226.108C48.5675 226.087 48.8875 226.087 49.2075 226.108C49.5062 226.129 49.7835 226.193 50.0395 226.3C50.2955 226.385 50.4982 226.545 50.6475 226.78C50.8182 227.036 50.9248 227.313 50.9675 227.612C50.9888 227.889 50.9462 228.156 50.8395 228.412C50.7115 228.647 50.5195 228.86 50.2635 229.052C50.0075 229.223 49.6662 229.319 49.2395 229.34C48.7488 229.383 48.3008 229.415 47.8955 229.436C47.4688 229.436 47.0208 229.436 46.5515 229.436C46.0608 229.436 45.5595 229.425 45.0475 229.404C44.5142 229.383 44.0022 229.393 43.5115 229.436C43.3622 229.436 43.1915 229.447 42.9995 229.468C42.7862 229.468 42.5728 229.479 42.3595 229.5C42.1462 229.5 41.9435 229.521 41.7515 229.564C41.5382 229.585 41.3675 229.628 41.2395 229.692C40.9408 229.863 40.7488 230.172 40.6635 230.62C40.5782 231.047 40.6102 231.409 40.7595 231.708C40.9088 232.007 41.1008 232.231 41.3355 232.38C41.5702 232.529 41.8262 232.636 42.1035 232.7C42.3808 232.764 42.6795 232.796 42.9995 232.796C43.2982 232.796 43.5862 232.796 43.8635 232.796C45.2502 232.796 46.4555 232.796 47.4795 232.796C48.4822 232.775 49.2928 232.881 49.9115 233.116C50.2315 233.223 50.4768 233.447 50.6475 233.788C50.8182 234.108 50.9035 234.46 50.9035 234.844C50.9035 235.207 50.8182 235.548 50.6475 235.868C50.4768 236.188 50.2102 236.401 49.8475 236.508C49.6128 236.572 49.2822 236.636 48.8555 236.7C48.4075 236.743 47.9168 236.775 47.3835 236.796C46.8502 236.817 46.3168 236.828 45.7835 236.828C45.2288 236.828 44.7275 236.828 44.2795 236.828L39.6715 236.828C39.1808 236.849 38.6475 236.86 38.0715 236.86C37.4955 236.86 36.9728 236.775 36.5035 236.604C36.0982 236.455 35.8422 236.22 35.7355 235.9C35.6075 235.58 35.5542 235.249 35.5755 234.908C35.5755 234.524 35.6822 234.225 35.8955 234.012C36.0875 233.777 36.3328 233.607 36.6315 233.5C36.9088 233.393 37.2288 233.329 37.5915 233.308C37.9328 233.287 38.2635 233.265 38.5835 233.244C38.0502 233.009 37.6128 232.732 37.2715 232.412C36.9088 232.071 36.6742 231.591 36.5675 230.972C36.2688 229.393 36.6742 228.135 37.7835 227.196C37.3568 226.769 37.0048 226.225 36.7275 225.564C36.5355 225.052 36.4502 224.529 36.4715 223.996C36.4715 223.463 36.5675 222.961 36.7595 222.492C36.9515 222.001 37.2288 221.564 37.5915 221.18C37.9542 220.775 38.3915 220.455 38.9035 220.22C39.5862 219.9 40.3435 219.719 41.1755 219.676C42.0075 219.633 42.7968 219.591 43.5435 219.548ZM46.6155 205.851C46.5515 205.595 46.5088 205.339 46.4875 205.083C46.4662 204.806 46.4982 204.56 46.5835 204.347C46.6688 204.112 46.8182 203.92 47.0315 203.771C47.2235 203.622 47.5008 203.547 47.8635 203.547C48.1195 203.547 48.3648 203.611 48.5995 203.739C48.8342 203.867 49.0475 204.027 49.2395 204.219C49.4315 204.411 49.6022 204.624 49.7515 204.859C49.8795 205.094 49.9862 205.318 50.0715 205.531C50.3488 206.15 50.5622 206.864 50.7115 207.675C50.8608 208.464 50.9142 209.286 50.8715 210.139C50.8288 211.291 50.6048 212.4 50.1995 213.467C49.7728 214.512 49.0795 215.334 48.1195 215.931C47.1808 216.486 46.1355 216.816 44.9835 216.923C43.8315 217.03 42.7435 216.976 41.7195 216.763C40.4822 216.528 39.4795 216.134 38.7115 215.579C37.9222 215.003 37.2928 214.32 36.8235 213.531C36.2688 212.571 35.9808 211.494 35.9595 210.299C35.9382 209.104 36.1728 207.963 36.6635 206.875C36.9835 206.15 37.4208 205.499 37.9755 204.923C38.5088 204.347 39.1595 203.91 39.9275 203.611C40.1195 203.526 40.3542 203.462 40.6315 203.419C40.9088 203.355 41.2075 203.312 41.5275 203.291C41.8262 203.27 42.1248 203.27 42.4235 203.291C42.7222 203.312 42.9888 203.366 43.2235 203.451C43.6075 203.579 43.9062 203.739 44.1195 203.931C44.3328 204.123 44.4928 204.368 44.5995 204.667C44.7062 204.966 44.7808 205.328 44.8235 205.755C44.8448 206.16 44.8662 206.651 44.8875 207.227C44.9088 207.739 44.9195 208.219 44.9195 208.667C44.9195 209.115 44.9195 209.574 44.9195 210.043C44.8982 210.512 44.8875 211.003 44.8875 211.515C44.8662 212.006 44.8448 212.56 44.8235 213.179C45.2502 213.243 45.6235 213.19 45.9435 213.019C46.2422 212.827 46.4982 212.571 46.7115 212.251C46.9035 211.931 47.0528 211.568 47.1595 211.163C47.2662 210.758 47.3302 210.363 47.3515 209.979C47.3942 209.254 47.3408 208.56 47.1915 207.899C47.0208 207.238 46.8288 206.555 46.6155 205.851ZM40.4075 207.227C39.9382 207.632 39.5968 208.059 39.3835 208.507C39.2342 208.848 39.1702 209.211 39.1915 209.595C39.1915 209.958 39.2448 210.31 39.3515 210.651C39.5008 211.27 39.8208 211.792 40.3115 212.219C40.3542 212.262 40.4608 212.336 40.6315 212.443C40.7808 212.55 40.9408 212.656 41.1115 212.763C41.2822 212.848 41.4422 212.912 41.5915 212.955C41.7408 212.998 41.8155 212.976 41.8155 212.891L41.8155 206.619C41.5168 206.64 41.2715 206.694 41.0795 206.779C40.8662 206.864 40.6422 207.014 40.4075 207.227ZM48.8235 187.751C48.2902 188.967 47.5222 189.841 46.5195 190.375C45.5168 190.887 44.4395 191.121 43.2875 191.079C42.3062 191.036 41.3462 190.812 40.4075 190.407C39.4688 189.98 38.6582 189.425 37.9755 188.743C37.6768 188.444 37.4208 188.145 37.2075 187.847C36.9728 187.527 36.7808 187.185 36.6315 186.823C36.5248 186.567 36.4075 186.236 36.2795 185.831C36.1302 185.404 35.9915 184.945 35.8635 184.455C35.7355 183.943 35.6288 183.409 35.5435 182.855C35.4582 182.3 35.4155 181.767 35.4155 181.255C35.3942 180.508 35.4902 179.847 35.7035 179.271C35.8955 178.695 36.2582 178.311 36.7915 178.119L37.5595 177.927C37.7088 177.884 37.8582 177.863 38.0075 177.863C38.1355 177.863 38.2635 177.863 38.3915 177.863L56.2155 177.863C56.3222 177.863 56.4182 177.873 56.5035 177.895C56.6102 177.895 56.7168 177.905 56.8235 177.927C57.0368 178.012 57.2822 178.087 57.5595 178.151C57.8368 178.279 58.0395 178.428 58.1675 178.599C58.3595 178.791 58.4662 179.057 58.4875 179.399C58.6582 179.975 58.6048 180.497 58.3275 180.967C58.1355 181.223 57.9115 181.415 57.6555 181.543C57.5915 181.607 57.5275 181.639 57.4635 181.639C57.4422 181.66 57.4102 181.681 57.3675 181.703C57.3462 181.703 57.3142 181.713 57.2715 181.735C57.1435 181.777 57.0155 181.82 56.8875 181.863C56.7808 181.884 56.6635 181.895 56.5355 181.895C56.2582 181.937 55.9702 181.969 55.6715 181.991C55.3942 181.991 55.1062 181.991 54.8075 181.991L50.0075 181.991C49.9862 182.055 49.9755 182.161 49.9755 182.311C49.9115 182.737 49.8582 183.249 49.8155 183.847C49.7515 184.423 49.6662 184.924 49.5595 185.351C49.4102 186.14 49.1648 186.94 48.8235 187.751ZM40.0555 182.823C40.1195 183.335 40.2155 183.847 40.3435 184.359C40.4502 184.871 40.6315 185.329 40.8875 185.735C41.1222 186.14 41.4528 186.46 41.8795 186.695C42.2848 186.908 42.8395 186.983 43.5435 186.919C44.0768 186.855 44.5035 186.663 44.8235 186.343C45.1435 186.001 45.3995 185.596 45.5915 185.127C45.7835 184.636 45.9222 184.124 46.0075 183.591C46.0928 183.036 46.1462 182.503 46.1675 181.991C45.1435 182.012 44.1088 182.023 43.0635 182.023C42.0182 182.023 41.0048 182.012 40.0235 181.991C40.0235 182.161 40.0235 182.321 40.0235 182.471C40.0235 182.62 40.0342 182.737 40.0555 182.823ZM43.3835 162.146C44.0875 162.189 44.8022 162.231 45.5275 162.274C46.2315 162.317 46.9142 162.434 47.5755 162.626C48.2368 162.797 48.8342 163.074 49.3675 163.458C49.9008 163.821 50.3275 164.343 50.6475 165.026C50.9462 165.623 51.1488 166.263 51.2555 166.946C51.3835 167.629 51.4368 168.311 51.4155 168.994C51.3942 169.677 51.2875 170.338 51.0955 170.978C50.9248 171.618 50.6795 172.194 50.3595 172.706C50.0395 173.218 49.6235 173.634 49.1115 173.954C48.5995 174.274 48.0448 174.53 47.4475 174.722C46.8502 174.893 46.2315 175.01 45.5915 175.074C44.9515 175.138 44.3542 175.181 43.7995 175.202C42.3275 175.287 40.8768 175.287 39.4475 175.202C39.1702 175.202 38.8608 175.202 38.5195 175.202C38.1568 175.202 37.8048 175.181 37.4635 175.138C37.1222 175.074 36.8128 174.978 36.5355 174.85C36.2368 174.722 36.0128 174.509 35.8635 174.21C35.5222 173.57 35.5008 172.983 35.7995 172.45C36.0982 171.895 36.7168 171.565 37.6555 171.458C38.1462 171.394 38.6902 171.373 39.2875 171.394C39.8848 171.394 40.4288 171.373 40.9195 171.33C41.6448 171.309 42.4342 171.287 43.2875 171.266C44.1195 171.245 44.8662 171.127 45.5275 170.914C46.1888 170.679 46.6902 170.306 47.0315 169.794C47.3515 169.261 47.3622 168.471 47.0635 167.426C46.9142 166.935 46.5408 166.615 45.9435 166.466C45.3462 166.295 44.4608 166.21 43.2875 166.21C42.7755 166.21 42.2102 166.221 41.5915 166.242C40.9728 166.263 40.3648 166.274 39.7675 166.274C39.1488 166.274 38.5835 166.263 38.0715 166.242C37.5382 166.199 37.1328 166.135 36.8555 166.05C36.4715 165.943 36.1835 165.719 35.9915 165.378C35.7995 165.037 35.7035 164.674 35.7035 164.29C35.6822 163.906 35.7568 163.543 35.9275 163.202C36.0982 162.861 36.3755 162.626 36.7595 162.498C37.1008 162.37 37.5382 162.285 38.0715 162.242C38.5835 162.178 39.1488 162.135 39.7675 162.114C40.3648 162.093 40.9835 162.093 41.6235 162.114C42.2422 162.114 42.8288 162.125 43.3835 162.146ZM46.6155 148.445C46.5515 148.189 46.5088 147.933 46.4875 147.677C46.4662 147.4 46.4982 147.154 46.5835 146.941C46.6688 146.706 46.8182 146.514 47.0315 146.365C47.2235 146.216 47.5008 146.141 47.8635 146.141C48.1195 146.141 48.3648 146.205 48.5995 146.333C48.8342 146.461 49.0475 146.621 49.2395 146.813C49.4315 147.005 49.6022 147.218 49.7515 147.453C49.8795 147.688 49.9862 147.912 50.0715 148.125C50.3488 148.744 50.5622 149.458 50.7115 150.269C50.8608 151.058 50.9142 151.88 50.8715 152.733C50.8288 153.885 50.6048 154.994 50.1995 156.061C49.7728 157.106 49.0795 157.928 48.1195 158.525C47.1808 159.08 46.1355 159.41 44.9835 159.517C43.8315 159.624 42.7435 159.57 41.7195 159.357C40.4822 159.122 39.4795 158.728 38.7115 158.173C37.9222 157.597 37.2928 156.914 36.8235 156.125C36.2688 155.165 35.9808 154.088 35.9595 152.893C35.9382 151.698 36.1728 150.557 36.6635 149.469C36.9835 148.744 37.4208 148.093 37.9755 147.517C38.5088 146.941 39.1595 146.504 39.9275 146.205C40.1195 146.12 40.3542 146.056 40.6315 146.013C40.9088 145.949 41.2075 145.906 41.5275 145.885C41.8262 145.864 42.1248 145.864 42.4235 145.885C42.7222 145.906 42.9888 145.96 43.2235 146.045C43.6075 146.173 43.9062 146.333 44.1195 146.525C44.3328 146.717 44.4928 146.962 44.5995 147.261C44.7062 147.56 44.7808 147.922 44.8235 148.349C44.8448 148.754 44.8662 149.245 44.8875 149.821C44.9088 150.333 44.9195 150.813 44.9195 151.261C44.9195 151.709 44.9195 152.168 44.9195 152.637C44.8982 153.106 44.8875 153.597 44.8875 154.109C44.8662 154.6 44.8448 155.154 44.8235 155.773C45.2502 155.837 45.6235 155.784 45.9435 155.613C46.2422 155.421 46.4982 155.165 46.7115 154.845C46.9035 154.525 47.0528 154.162 47.1595 153.757C47.2662 153.352 47.3302 152.957 47.3515 152.573C47.3942 151.848 47.3408 151.154 47.1915 150.493C47.0208 149.832 46.8288 149.149 46.6155 148.445ZM40.4075 149.821C39.9382 150.226 39.5968 150.653 39.3835 151.101C39.2342 151.442 39.1702 151.805 39.1915 152.189C39.1915 152.552 39.2448 152.904 39.3515 153.245C39.5008 153.864 39.8208 154.386 40.3115 154.813C40.3542 154.856 40.4608 154.93 40.6315 155.037C40.7808 155.144 40.9408 155.25 41.1115 155.357C41.2822 155.442 41.4422 155.506 41.5915 155.549C41.7408 155.592 41.8155 155.57 41.8155 155.485L41.8155 149.213C41.5168 149.234 41.2715 149.288 41.0795 149.373C40.8662 149.458 40.6422 149.608 40.4075 149.821ZM45.3675 135.65C45.1115 136.055 44.9088 136.514 44.7595 137.026C44.6102 137.517 44.4715 138.029 44.3435 138.562C44.2155 139.074 44.0768 139.575 43.9275 140.066C43.7568 140.557 43.5222 141.005 43.2235 141.41C42.5622 142.285 41.7515 142.797 40.7915 142.946C39.8102 143.074 38.8288 142.861 37.8475 142.306C37.3355 142.007 36.9195 141.613 36.5995 141.122C36.2582 140.631 36.0022 140.098 35.8315 139.522C35.6395 138.925 35.5328 138.317 35.5115 137.698C35.4902 137.079 35.5222 136.493 35.6075 135.938C35.6715 135.575 35.7675 135.191 35.8955 134.786C36.0022 134.381 36.1515 134.007 36.3435 133.666C36.5355 133.303 36.7808 132.983 37.0795 132.706C37.3568 132.407 37.7088 132.194 38.1355 132.066C38.4128 131.981 38.6795 131.97 38.9355 132.034C39.1915 132.077 39.4048 132.183 39.5755 132.354C39.7462 132.503 39.8742 132.706 39.9595 132.962C40.0448 133.197 40.0662 133.453 40.0235 133.73C39.9595 134.05 39.8635 134.349 39.7355 134.626C39.6075 134.903 39.4688 135.181 39.3195 135.458C39.1702 135.735 39.0422 136.023 38.9355 136.322C38.8288 136.599 38.7755 136.898 38.7755 137.218C38.7542 137.709 38.8395 138.114 39.0315 138.434C39.2235 138.754 39.4582 138.978 39.7355 139.106C40.0128 139.213 40.3115 139.202 40.6315 139.074C40.9515 138.925 41.2288 138.626 41.4635 138.178C41.6768 137.773 41.8475 137.325 41.9755 136.834C42.1035 136.343 42.2315 135.863 42.3595 135.394C42.4875 134.903 42.6368 134.434 42.8075 133.986C42.9782 133.517 43.2128 133.101 43.5115 132.738C44.0875 132.034 44.7595 131.607 45.5275 131.458C46.2955 131.287 47.0528 131.33 47.7995 131.586C48.5462 131.842 49.2075 132.29 49.7835 132.93C50.3595 133.549 50.7435 134.285 50.9355 135.138C51.0635 135.757 51.1275 136.429 51.1275 137.154C51.1275 137.858 51.0528 138.562 50.9035 139.266C50.7542 139.949 50.5195 140.61 50.1995 141.25C49.8795 141.869 49.4742 142.391 48.9835 142.818C48.6422 143.117 48.2582 143.277 47.8315 143.298C47.3835 143.298 46.9995 143.213 46.6795 143.042C46.3382 142.85 46.1035 142.583 45.9755 142.242C45.8475 141.901 45.9222 141.517 46.1995 141.09C46.4342 140.749 46.6688 140.343 46.9035 139.874C47.1168 139.405 47.2875 138.935 47.4155 138.466C47.5435 137.997 47.6075 137.549 47.6075 137.122C47.6075 136.674 47.5115 136.29 47.3195 135.97C47.0208 135.501 46.6795 135.255 46.2955 135.234C45.8902 135.213 45.5808 135.351 45.3675 135.65ZM36.8875 116.478C37.2928 116.307 37.7408 116.297 38.2315 116.446C38.7222 116.574 39.0422 116.819 39.1915 117.182C39.2768 117.374 39.3515 117.63 39.4155 117.95C39.4582 118.27 39.5008 118.622 39.5435 119.006C39.5862 119.369 39.6182 119.731 39.6395 120.094C39.6608 120.457 39.6715 120.766 39.6715 121.022C40.3115 121.001 40.9728 120.979 41.6555 120.958C42.3168 120.937 42.9675 120.915 43.6075 120.894C44.2475 120.873 44.8662 120.862 45.4635 120.862C46.0395 120.862 46.5622 120.873 47.0315 120.894C47.3515 120.894 47.7248 120.894 48.1515 120.894C48.5568 120.894 48.9515 120.926 49.3355 120.99C49.7195 121.033 50.0608 121.107 50.3595 121.214C50.6368 121.321 50.8182 121.481 50.9035 121.694C51.1808 122.355 51.2555 122.963 51.1275 123.518C51.0208 124.051 50.7968 124.435 50.4555 124.67C50.1782 124.841 49.8582 124.969 49.4955 125.054C49.1115 125.139 48.7275 125.203 48.3435 125.246C47.9382 125.267 47.5542 125.278 47.1915 125.278C46.8075 125.257 46.4768 125.246 46.1995 125.246C45.3035 125.225 44.2902 125.214 43.1595 125.214C42.0075 125.193 40.8555 125.182 39.7035 125.182L39.7035 125.662C39.7035 125.918 39.7035 126.249 39.7035 126.654C39.6822 127.038 39.6502 127.433 39.6075 127.838C39.5435 128.222 39.4688 128.585 39.3835 128.926C39.2768 129.267 39.1275 129.513 38.9355 129.662C38.6582 129.897 38.3595 130.046 38.0395 130.11C37.7195 130.153 37.4208 130.131 37.1435 130.046C36.8448 129.939 36.5888 129.779 36.3755 129.566C36.1408 129.353 35.9915 129.107 35.9275 128.83C35.8208 128.446 35.7675 127.902 35.7675 127.198C35.7462 126.494 35.7462 125.833 35.7675 125.214C35.5542 125.235 35.3515 125.246 35.1595 125.246C34.9462 125.246 34.7435 125.257 34.5515 125.278C34.2955 125.299 33.9755 125.31 33.5915 125.31C33.1862 125.31 32.7915 125.289 32.4075 125.246C32.0022 125.182 31.6288 125.086 31.2875 124.958C30.9248 124.83 30.6475 124.649 30.4555 124.414C30.1995 124.094 30.0608 123.774 30.0395 123.454C29.9968 123.113 30.0395 122.803 30.1675 122.526C30.2955 122.227 30.4875 121.982 30.7435 121.79C30.9782 121.577 31.2448 121.427 31.5435 121.342C31.7995 121.278 32.1088 121.225 32.4715 121.182C32.8128 121.139 33.1755 121.118 33.5595 121.118C33.9435 121.097 34.3275 121.086 34.7115 121.086C35.0955 121.086 35.4475 121.086 35.7675 121.086L35.7675 120.766C35.7675 120.446 35.7568 120.073 35.7355 119.646C35.7142 119.219 35.7248 118.803 35.7675 118.398C35.8102 117.971 35.9168 117.587 36.0875 117.246C36.2368 116.905 36.5035 116.649 36.8875 116.478ZM38.8715 109.735C39.4688 109.735 40.1408 109.735 40.8875 109.735C41.6342 109.714 42.4128 109.703 43.2235 109.703C44.0128 109.703 44.8022 109.703 45.5915 109.703C46.3595 109.703 47.0742 109.714 47.7355 109.735C48.0555 109.756 48.4075 109.788 48.7915 109.831C49.1542 109.874 49.4955 109.959 49.8155 110.087C50.1355 110.215 50.4022 110.418 50.6155 110.695C50.8075 110.951 50.8928 111.303 50.8715 111.751C50.8288 112.412 50.5408 112.892 50.0075 113.191C49.4742 113.468 48.7275 113.628 47.7675 113.671C47.2768 113.671 46.7115 113.682 46.0715 113.703C45.4315 113.703 44.7808 113.714 44.1195 113.735C43.4582 113.735 42.8182 113.735 42.1995 113.735C41.5595 113.735 40.9835 113.735 40.4715 113.735C40.1728 113.735 39.8102 113.746 39.3835 113.767C38.9568 113.767 38.5195 113.756 38.0715 113.735C37.6235 113.714 37.1968 113.66 36.7915 113.575C36.3648 113.49 36.0128 113.351 35.7355 113.159C35.5648 113.01 35.4368 112.796 35.3515 112.519C35.2448 112.242 35.1915 111.954 35.1915 111.655C35.1915 111.335 35.2448 111.036 35.3515 110.759C35.4582 110.46 35.6075 110.247 35.7995 110.119C35.9275 110.034 36.1088 109.97 36.3435 109.927C36.5782 109.884 36.8448 109.852 37.1435 109.831C37.4208 109.788 37.7195 109.767 38.0395 109.767C38.3382 109.746 38.6155 109.735 38.8715 109.735ZM32.4075 110.951C32.5782 111.612 32.5142 112.167 32.2155 112.615C31.8955 113.042 31.4262 113.308 30.8075 113.415C30.3595 113.5 29.9648 113.468 29.6235 113.319C29.2822 113.17 29.0262 112.946 28.8555 112.647C28.6635 112.348 28.5782 112.007 28.5995 111.623C28.6208 111.239 28.7702 110.855 29.0475 110.471C29.3035 110.108 29.6022 109.852 29.9435 109.703C30.2848 109.532 30.6155 109.479 30.9355 109.543C31.2555 109.586 31.5542 109.724 31.8315 109.959C32.0875 110.194 32.2795 110.524 32.4075 110.951ZM36.5355 102.795C36.1942 102.091 35.9488 101.355 35.7995 100.587C35.6502 99.8191 35.6182 99.0618 35.7035 98.3151C35.7888 97.5471 35.9915 96.8111 36.3115 96.1071C36.6315 95.3818 37.0795 94.7205 37.6555 94.1231C38.1462 93.6325 38.7435 93.2058 39.4475 92.8431C40.1302 92.4805 40.8022 92.2138 41.4635 92.0431C42.6368 91.6805 43.8208 91.6271 45.0155 91.8831C46.2102 92.1391 47.3195 92.5765 48.3435 93.1951C48.8128 93.4938 49.2395 93.8671 49.6235 94.3151C49.9862 94.7418 50.2848 95.2005 50.5195 95.6911C50.8182 96.3311 51.0208 97.0245 51.1275 97.7711C51.2555 98.5178 51.2875 99.2431 51.2235 99.9471C51.1595 101.227 50.8395 102.358 50.2635 103.339C49.6875 104.299 48.9515 105.078 48.0555 105.675C47.1595 106.251 46.1462 106.635 45.0155 106.827C43.8635 106.998 42.6902 106.923 41.4955 106.603C40.2155 106.262 39.1808 105.771 38.3915 105.131C37.5808 104.47 36.9622 103.691 36.5355 102.795ZM40.8235 101.835C41.1222 102.155 41.4955 102.4 41.9435 102.571C42.3915 102.742 42.8608 102.848 43.3515 102.891C43.8208 102.934 44.3008 102.902 44.7915 102.795C45.2608 102.667 45.6875 102.475 46.0715 102.219C46.3915 102.006 46.6582 101.622 46.8715 101.067C47.0848 100.512 47.2128 99.9365 47.2555 99.3391C47.2982 98.6565 47.1168 98.0591 46.7115 97.5471C46.2848 97.0351 45.7622 96.6511 45.1435 96.3951C44.5248 96.1178 43.8528 95.9898 43.1275 96.0111C42.4022 96.0325 41.7408 96.2245 41.1435 96.5871C40.7168 96.8431 40.4075 97.2058 40.2155 97.6751C40.0022 98.1231 39.8955 98.6031 39.8955 99.1151C39.8742 99.6058 39.9488 100.096 40.1195 100.587C40.2688 101.078 40.5035 101.494 40.8235 101.835ZM39.5755 89.1411C39.0848 89.1411 38.5622 89.1518 38.0075 89.1731C37.4528 89.1731 36.9515 89.0771 36.5035 88.8851C36.0982 88.7145 35.8102 88.4371 35.6395 88.0531C35.4475 87.6478 35.4048 87.2531 35.5115 86.8691C35.5755 86.4851 35.6928 86.1865 35.8635 85.9731C36.0342 85.7598 36.2368 85.6105 36.4715 85.5251C36.6848 85.4185 36.9408 85.3545 37.2395 85.3331C37.5168 85.3118 37.7942 85.2905 38.0715 85.2691C37.6875 85.0558 37.3782 84.7891 37.1435 84.4691C36.9088 84.1491 36.7168 83.8185 36.5675 83.4771C36.4182 83.1358 36.3115 82.8158 36.2475 82.5171C36.1835 82.1971 36.1515 81.9518 36.1515 81.7811C36.1515 80.9705 36.3328 80.1705 36.6955 79.3811C37.0368 78.5705 37.5275 77.8985 38.1675 77.3651C38.5515 77.0665 38.9568 76.8425 39.3835 76.6931C39.7888 76.5225 40.2155 76.4051 40.6635 76.3411C41.1115 76.2558 41.5702 76.2025 42.0395 76.1811C42.4875 76.1598 42.9462 76.1385 43.4155 76.1171C44.7808 76.0105 46.1355 76.0105 47.4795 76.1171C47.7568 76.1385 48.0768 76.1491 48.4395 76.1491C48.8022 76.1491 49.1648 76.1811 49.5275 76.2451C49.8688 76.2878 50.1782 76.3838 50.4555 76.5331C50.7115 76.6611 50.8715 76.8851 50.9355 77.2051C51.0422 77.6531 51.0635 78.0265 50.9995 78.3251C50.9568 78.6025 50.8608 78.8265 50.7115 78.9971C50.5622 79.1678 50.3702 79.2958 50.1355 79.3811C49.9008 79.4665 49.6342 79.5411 49.3355 79.6051C49.1008 79.6478 48.8342 79.6905 48.5355 79.7331C48.2155 79.7545 47.8955 79.7758 47.5755 79.7971C47.2555 79.7971 46.9462 79.8078 46.6475 79.8291C46.3275 79.8291 46.0395 79.8291 45.7835 79.8291C45.3782 79.8291 44.9302 79.8398 44.4395 79.8611C43.9488 79.8825 43.4902 79.8825 43.0635 79.8611C42.0608 79.8611 41.3035 80.1278 40.7915 80.6611C40.2582 81.1731 40.0342 81.8771 40.1195 82.7731C40.2048 83.4558 40.4822 84.0531 40.9515 84.5651C41.3995 85.0771 41.9862 85.3225 42.7115 85.3011C42.9888 85.3011 43.2448 85.3011 43.4795 85.3011C43.7142 85.3011 43.9488 85.3118 44.1835 85.3331C44.4182 85.3331 44.6742 85.3331 44.9515 85.3331C45.2288 85.3331 45.5382 85.3331 45.8795 85.3331C46.5835 85.3331 47.3302 85.3331 48.1195 85.3331C48.8875 85.3331 49.5168 85.4291 50.0075 85.6211C50.5195 85.7918 50.8715 86.0798 51.0635 86.4851C51.2555 86.8905 51.2022 87.3705 50.9035 87.9251C50.7755 88.1598 50.6048 88.3518 50.3915 88.5011C50.1568 88.6291 49.9115 88.7358 49.6555 88.8211C49.3995 88.8851 49.1435 88.9278 48.8875 88.9491C48.6102 88.9705 48.3542 88.9918 48.1195 89.0131C47.4155 89.0771 46.7648 89.1198 46.1675 89.1411C45.5488 89.1411 44.8875 89.1411 44.1835 89.1411L39.5755 89.1411Z" fill="black"/>
<path fill-rule="evenodd" clip-rule="evenodd" d="M42.9018 56.6928C42.9153 56.6503 42.9257 56.6069 42.9332 56.563C43.6081 56.2849 44.2837 56.0083 44.9599 55.7333C46.1768 55.2387 47.4301 54.7403 47.7905 54.6312C48.234 54.4945 48.5356 54.351 48.7422 54.1937C48.8475 54.1121 48.9406 54.0187 49.0115 53.9086C49.0475 53.8507 49.0774 53.7895 49.1005 53.7257C49.222 53.4111 49.1714 53.124 49.1097 52.9441C49.0727 52.8385 49.0216 52.738 48.9578 52.6452L48.9558 52.6403L47.172 49.862L49.7049 46.652C49.7421 46.6049 49.7734 46.5537 49.7991 46.4987C49.9712 46.1133 50.0319 45.7397 49.9833 45.3877C49.9327 45.0377 49.7819 44.7595 49.6108 44.5521C49.4129 44.3141 49.1605 44.1242 48.8738 43.9976L48.8515 43.9887L48.8434 43.9858L48.8394 43.9838L48.8373 43.9838L48.8363 43.9828C48.7924 43.9667 48.7474 43.9536 48.7017 43.9435L33.4907 41.0138C33.4419 41.0057 33.3925 41.0011 33.3429 41C32.8975 41 32.4733 41.1632 32.2172 41.5456C31.9975 41.874 31.9874 42.2388 32.0056 42.4698C32.0258 42.7175 32.0886 42.9476 32.1392 43.1019C32.1679 43.1882 32.1996 43.2734 32.2344 43.3576L32.2395 43.3684L38.8766 59.8005L38.8776 59.8025C38.8983 59.8582 38.9216 59.913 38.9474 59.9666C39.0077 60.097 39.0795 60.222 39.1621 60.3402C39.319 60.5634 39.7503 61.0776 40.463 60.9901C41.0299 60.9213 41.3792 60.5437 41.5472 60.3127C41.6393 60.1869 41.7052 60.0669 41.7487 59.9784C41.7689 59.9391 41.8034 59.8546 41.8196 59.8182L41.8226 59.8084L42.9018 56.6928ZM33.6365 42.7932L33.6365 42.7952L33.6477 42.8208L40.2939 59.2725L40.304 59.2981L40.3071 59.3079C40.3191 59.3381 40.3326 59.3676 40.3476 59.3964C40.3635 59.3689 40.378 59.3407 40.3911 59.3119L41.4622 56.2229C41.483 56.1683 41.5087 56.1157 41.5391 56.0656L35.3889 45.8636L35.3839 45.8537C35.3595 45.8139 35.3365 45.7732 35.315 45.7318C35.2776 45.661 35.2229 45.548 35.1824 45.4202C35.1541 45.3317 35.0741 45.0692 35.1683 44.7861C35.2166 44.6356 35.3077 44.5015 35.4311 44.3993C35.5545 44.297 35.7052 44.2307 35.8658 44.208C36.0062 44.1714 36.154 44.1703 36.295 44.205C36.5734 44.2738 36.7901 44.4626 36.9561 44.6346C37.0978 44.7821 38.9971 46.6953 40.872 48.5819L43.4232 51.1509L43.8787 51.608L48.4364 45.8351C48.47 45.7571 48.4838 45.6725 48.4769 45.5883C48.4709 45.5459 48.4527 45.506 48.4243 45.4733C48.3896 45.4335 48.3486 45.3993 48.3028 45.372L48.3018 45.37L33.5485 42.5288C33.5711 42.6181 33.6002 42.7059 33.6355 42.7913L33.6365 42.7932ZM46.1839 51.1115L45.2748 52.2638L47.1021 52.543L46.1839 51.1115ZM43.4707 53.3206L42.3318 52.1753L39.7786 49.6064L38.829 48.6498L42.6932 55.0598L42.7762 55.0254C43.7597 54.6211 44.7451 54.2213 45.7324 53.826L43.9101 53.5477C43.7412 53.5224 43.587 53.4423 43.4707 53.3206Z" fill="black" stroke="black" stroke-linejoin="round"/>
<defs>
<filter id="filter0_dg_71_7658" x="-0.000488281" y="0" width="92" height="324" filterUnits="userSpaceOnUse" color-interpolation-filters="sRGB">
<feFlood flood-opacity="0" result="BackgroundImageFix"/>
<feColorMatrix in="SourceAlpha" type="matrix" values="0 0 0 0 0 0 0 0 0 0 0 0 0 0 0 0 0 0 127 0" result="hardAlpha"/>
<feOffset dx="8" dy="8"/>
<feComposite in2="hardAlpha" operator="out"/>
<feColorMatrix type="matrix" values="0 0 0 0 0 0 0 0 0 0 0 0 0 0 0 0 0 0 1 0"/>
<feBlend mode="normal" in2="BackgroundImageFix" result="effect1_dropShadow_71_7658"/>
<feBlend mode="normal" in="SourceGraphic" in2="effect1_dropShadow_71_7658" result="shape"/>
<feTurbulence type="fractalNoise" baseFrequency="0.011904762126505375 0.011904762126505375" numOctaves="3" seed="6810" />
<feDisplacementMap in="shape" scale="8" xChannelSelector="R" yChannelSelector="G" result="displacedImage" width="100%" height="100%" />
<feMerge result="effect2_texture_71_7658">
<feMergeNode in="displacedImage"/>
</feMerge>
</filter>
</defs>
</svg>
