<svg width="127" height="140" viewBox="0 0 127 140" fill="none" xmlns="http://www.w3.org/2000/svg">
<g filter="url(#filter0_dg_67_171)">
<ellipse cx="51.2166" cy="59.2836" rx="51.2166" ry="59.2836" transform="matrix(0.97596 -0.217949 0.219532 0.975605 -0.000488281 22.3252)" fill="#FEC400"/>
<path d="M49.3265 8.23572C78.9368 1.62333 108.455 24.0406 115.913 57.183C123.371 90.3256 106.283 123.152 76.673 129.764C47.0625 136.377 17.544 113.959 10.0862 80.8161C2.62859 47.6735 19.7161 14.8482 49.3265 8.23572Z" stroke="black" stroke-width="6"/>
</g>
<g filter="url(#filter1_g_67_171)">
<path d="M51.2934 18.5575C75.7739 13.0906 100.053 31.7506 106.2 59.0693C112.347 86.388 98.3878 113.587 73.9074 119.054C49.4271 124.521 25.1488 105.861 19.0015 78.5424C12.8542 51.2238 26.8132 24.0246 51.2934 18.5575Z" stroke="#FF9D33" stroke-width="6"/>
</g>
<mask id="path-4-outside-1_67_171" maskUnits="userSpaceOnUse" x="31.6004" y="30.4896" width="59.3587" height="69.3866" fill="black">
<rect fill="white" x="31.6004" y="30.4896" width="59.3587" height="69.3866"/>
<path d="M49.7186 58.7461C49.2917 59.992 48.6191 60.8543 47.7005 61.3329C46.8286 61.7999 45.9032 61.9586 44.9244 61.809C43.9456 61.6594 43.0474 61.242 42.2299 60.5568C41.4471 59.8134 40.9606 58.8716 40.7705 57.7315C40.6283 56.9754 40.608 56.1143 40.7096 55.1483C40.8113 54.1822 40.9945 53.2452 41.2594 52.3371C41.559 51.3707 41.8996 50.4683 42.2812 49.6298C42.6975 48.733 43.1434 47.9526 43.6187 47.2885C44.5116 46.1233 45.5738 45.0393 46.805 44.0364C48.0828 43.0218 49.4484 42.1584 50.9019 41.4461C52.402 40.722 53.9259 40.19 55.4738 39.8499C57.0683 39.4981 58.5935 39.3616 60.0496 39.4406C64.0685 39.6665 67.4206 40.7779 70.1059 42.7749C72.7912 44.7718 74.6413 47.771 75.6561 51.7723C76.1399 53.6799 76.3903 55.4483 76.4073 57.0774C76.4591 58.6483 76.2197 60.2429 75.6893 61.8613C75.2054 63.468 74.4249 65.1741 73.3477 66.9797C72.3171 68.7735 70.9727 70.7947 69.3146 73.0435C68.7698 73.8241 68.2017 74.6105 67.6104 75.4028C67.019 76.1951 66.4276 76.9874 65.8362 77.7797C65.6507 78.0244 65.2793 78.4149 64.722 78.9511C64.1647 79.4874 63.6773 80.006 63.2597 80.5071C62.842 81.0082 62.628 81.4333 62.6175 81.7824C62.607 82.1316 63.0266 82.2239 63.8762 82.0596C64.9239 81.8949 65.7444 81.7131 66.3377 81.5143C66.931 81.3154 67.7397 81.0872 68.7638 80.8294C69.974 80.5248 71.1551 80.2028 72.307 79.8633C73.4589 79.5239 74.6285 79.2543 75.8158 79.0544C76.2931 78.9838 76.8111 78.8782 77.3696 78.7376C77.9164 78.5505 78.475 78.4099 79.0454 78.3158C79.6039 78.1752 80.157 78.1103 80.7044 78.121C81.24 78.0852 81.7353 78.1832 82.1903 78.4152C82.6453 78.6471 83.0367 79.0189 83.3645 79.5303C83.6923 80.0418 83.9388 80.6232 84.104 81.2746C84.3039 81.8677 84.4108 82.4843 84.4245 83.1243C84.4265 83.7177 84.3058 84.2183 84.0626 84.626C83.6345 85.4762 82.9782 86.0127 82.0938 86.2353C81.1976 86.4113 80.3538 86.599 79.5625 86.7981L54.4963 93.1072C54.0308 93.2244 53.5247 93.3765 52.9779 93.5636C52.4777 93.739 52.0004 93.8097 51.546 93.7755C50.6492 93.7538 50.1181 93.4172 49.9529 92.7658C49.8343 92.1027 49.6865 91.4222 49.5095 90.7243C49.2145 89.5612 49.2223 88.4208 49.5331 87.3031C49.8321 86.1389 50.2943 85.0326 50.9198 83.9843C51.58 82.8776 52.3045 81.8291 53.0932 80.8386C53.8819 79.8482 54.6067 78.8985 55.2676 77.9897C56.2064 76.615 57.2384 75.2168 58.3634 73.7952C59.4884 72.3736 60.5437 70.9696 61.5291 69.5831C62.8161 67.8238 63.8765 66.2452 64.7105 64.8474C65.591 63.4378 66.2565 62.1567 66.7069 61.0039C67.1573 59.851 67.4274 58.7684 67.5173 57.7558C67.5953 56.6967 67.4986 55.6321 67.2272 54.562C66.6254 52.1891 65.4437 50.5562 63.6821 49.6632C61.9087 48.7236 59.9049 48.535 57.6706 49.0974C56.0414 49.5074 54.5938 50.243 53.3278 51.3041C52.1084 52.3535 51.2043 53.67 50.6155 55.2536C50.466 55.8357 50.3224 56.441 50.1847 57.0697C50.0818 57.64 49.9264 58.1989 49.7186 58.7461Z"/>
</mask>
<path d="M49.7186 58.7461C49.2917 59.992 48.6191 60.8543 47.7005 61.3329C46.8286 61.7999 45.9032 61.9586 44.9244 61.809C43.9456 61.6594 43.0474 61.242 42.2299 60.5568C41.4471 59.8134 40.9606 58.8716 40.7705 57.7315C40.6283 56.9754 40.608 56.1143 40.7096 55.1483C40.8113 54.1822 40.9945 53.2452 41.2594 52.3371C41.559 51.3707 41.8996 50.4683 42.2812 49.6298C42.6975 48.733 43.1434 47.9526 43.6187 47.2885C44.5116 46.1233 45.5738 45.0393 46.805 44.0364C48.0828 43.0218 49.4484 42.1584 50.9019 41.4461C52.402 40.722 53.9259 40.19 55.4738 39.8499C57.0683 39.4981 58.5935 39.3616 60.0496 39.4406C64.0685 39.6665 67.4206 40.7779 70.1059 42.7749C72.7912 44.7718 74.6413 47.771 75.6561 51.7723C76.1399 53.6799 76.3903 55.4483 76.4073 57.0774C76.4591 58.6483 76.2197 60.2429 75.6893 61.8613C75.2054 63.468 74.4249 65.1741 73.3477 66.9797C72.3171 68.7735 70.9727 70.7947 69.3146 73.0435C68.7698 73.8241 68.2017 74.6105 67.6104 75.4028C67.019 76.1951 66.4276 76.9874 65.8362 77.7797C65.6507 78.0244 65.2793 78.4149 64.722 78.9511C64.1647 79.4874 63.6773 80.006 63.2597 80.5071C62.842 81.0082 62.628 81.4333 62.6175 81.7824C62.607 82.1316 63.0266 82.2239 63.8762 82.0596C64.9239 81.8949 65.7444 81.7131 66.3377 81.5143C66.931 81.3154 67.7397 81.0872 68.7638 80.8294C69.974 80.5248 71.1551 80.2028 72.307 79.8633C73.4589 79.5239 74.6285 79.2543 75.8158 79.0544C76.2931 78.9838 76.8111 78.8782 77.3696 78.7376C77.9164 78.5505 78.475 78.4099 79.0454 78.3158C79.6039 78.1752 80.157 78.1103 80.7044 78.121C81.24 78.0852 81.7353 78.1832 82.1903 78.4152C82.6453 78.6471 83.0367 79.0189 83.3645 79.5303C83.6923 80.0418 83.9388 80.6232 84.104 81.2746C84.3039 81.8677 84.4108 82.4843 84.4245 83.1243C84.4265 83.7177 84.3058 84.2183 84.0626 84.626C83.6345 85.4762 82.9782 86.0127 82.0938 86.2353C81.1976 86.4113 80.3538 86.599 79.5625 86.7981L54.4963 93.1072C54.0308 93.2244 53.5247 93.3765 52.9779 93.5636C52.4777 93.739 52.0004 93.8097 51.546 93.7755C50.6492 93.7538 50.1181 93.4172 49.9529 92.7658C49.8343 92.1027 49.6865 91.4222 49.5095 90.7243C49.2145 89.5612 49.2223 88.4208 49.5331 87.3031C49.8321 86.1389 50.2943 85.0326 50.9198 83.9843C51.58 82.8776 52.3045 81.8291 53.0932 80.8386C53.8819 79.8482 54.6067 78.8985 55.2676 77.9897C56.2064 76.615 57.2384 75.2168 58.3634 73.7952C59.4884 72.3736 60.5437 70.9696 61.5291 69.5831C62.8161 67.8238 63.8765 66.2452 64.7105 64.8474C65.591 63.4378 66.2565 62.1567 66.7069 61.0039C67.1573 59.851 67.4274 58.7684 67.5173 57.7558C67.5953 56.6967 67.4986 55.6321 67.2272 54.562C66.6254 52.1891 65.4437 50.5562 63.6821 49.6632C61.9087 48.7236 59.9049 48.535 57.6706 49.0974C56.0414 49.5074 54.5938 50.243 53.3278 51.3041C52.1084 52.3535 51.2043 53.67 50.6155 55.2536C50.466 55.8357 50.3224 56.441 50.1847 57.0697C50.0818 57.64 49.9264 58.1989 49.7186 58.7461Z" fill="#FF9D33"/>
<path d="M49.7186 58.7461L45.9768 57.3225C45.9613 57.3634 45.9465 57.4046 45.9323 57.4459L49.7186 58.7461ZM47.7005 61.3329L45.8455 57.7873C45.8322 57.7942 45.819 57.8012 45.8058 57.8083L47.7005 61.3329ZM44.9244 61.809L44.3254 65.7612L44.3254 65.7612L44.9244 61.809ZM42.2299 60.5568L39.4753 63.4527C39.5355 63.5098 39.5974 63.5651 39.661 63.6184L42.2299 60.5568ZM40.7705 57.7315L44.7178 57.0806C44.7133 57.0533 44.7085 57.0261 44.7033 56.999L40.7705 57.7315ZM41.2594 52.3371L37.4367 51.1483C37.4301 51.1698 37.4236 51.1912 37.4174 51.2127L41.2594 52.3371ZM42.2812 49.6298L38.6506 47.9425C38.6463 47.9517 38.6421 47.9609 38.6379 47.9701L42.2812 49.6298ZM43.6187 47.2885L40.44 44.8546C40.4136 44.8891 40.3877 44.924 40.3624 44.9593L43.6187 47.2885ZM46.805 44.0364L44.3123 40.9047C44.2993 40.915 44.2864 40.9253 44.2735 40.9358L46.805 44.0364ZM50.9019 41.4461L49.1566 37.8454C49.1494 37.8488 49.1422 37.8523 49.1351 37.8558L50.9019 41.4461ZM55.4738 39.8499L56.3392 43.7549L56.3427 43.7542L55.4738 39.8499ZM60.0496 39.4406L60.2681 35.4486L60.2602 35.4482L60.0496 39.4406ZM70.1059 42.7749L67.7199 45.9809L67.7199 45.9809L70.1059 42.7749ZM76.4073 57.0774L72.4058 57.1127C72.4061 57.1427 72.4068 57.1727 72.4077 57.2026L76.4073 57.0774ZM75.6893 61.8613L71.8861 60.6116C71.8761 60.6422 71.8664 60.6729 71.8572 60.7037L75.6893 61.8613ZM73.3477 66.9797L69.9095 64.9284C69.8983 64.9472 69.8873 64.966 69.8764 64.9849L73.3477 66.9797ZM69.3146 73.0435L66.0915 70.6687C66.071 70.6965 66.0508 70.7246 66.0311 70.7529L69.3146 73.0435ZM65.8362 77.7797L69.0273 80.1974C69.0334 80.1894 69.0395 80.1813 69.0455 80.1733L65.8362 77.7797ZM63.2597 80.5071L60.1829 77.9457L60.1829 77.9457L63.2597 80.5071ZM63.8762 82.0596L63.2481 78.1099C63.2018 78.1171 63.1556 78.1252 63.1096 78.1341L63.8762 82.0596ZM66.3377 81.5143L65.0598 77.7233L65.0598 77.7233L66.3377 81.5143ZM75.8158 79.0544L75.2234 75.0993C75.1972 75.1031 75.1711 75.1073 75.145 75.1117L75.8158 79.0544ZM77.3696 78.7376L78.353 82.6148C78.4605 82.5878 78.5668 82.5563 78.6717 82.5204L77.3696 78.7376ZM79.0454 78.3158L79.7032 82.2607C79.8126 82.2427 79.9212 82.2201 80.0287 82.1931L79.0454 78.3158ZM80.7044 78.121L80.6324 82.1185C80.7477 82.1208 80.863 82.118 80.978 82.1103L80.7044 78.121ZM82.1903 78.4152L80.376 81.976L80.376 81.976L82.1903 78.4152ZM84.104 81.2746L80.2249 82.2509C80.2501 82.3501 80.2791 82.4484 80.3118 82.5454L84.104 81.2746ZM84.4245 83.1243L88.4262 83.1175C88.4261 83.0932 88.4258 83.069 88.4253 83.0448L84.4245 83.1243ZM84.0626 84.626L80.6244 82.5748C80.5757 82.6564 80.53 82.7397 80.4872 82.8245L84.0626 84.626ZM82.0938 86.2353L82.8719 90.1585C82.9407 90.1449 83.0091 90.1296 83.0771 90.1125L82.0938 86.2353ZM52.9779 93.5636L51.6758 89.7809C51.6663 89.7841 51.6569 89.7874 51.6474 89.7907L52.9779 93.5636ZM51.546 93.7755L51.8398 89.7885C51.7722 89.7834 51.7045 89.7801 51.6368 89.7784L51.546 93.7755ZM49.9529 92.7658L46.0137 93.4635C46.0305 93.557 46.0505 93.65 46.0739 93.7422L49.9529 92.7658ZM49.5331 87.3031L53.3889 88.3791C53.396 88.3536 53.4028 88.3282 53.4094 88.3026L49.5331 87.3031ZM50.9198 83.9843L47.4816 81.933L47.4816 81.933L50.9198 83.9843ZM55.2676 77.9897L58.5063 80.3433C58.5294 80.3115 58.552 80.2794 58.5742 80.2469L55.2676 77.9897ZM58.3634 73.7952L55.2229 71.3123L55.2229 71.3123L58.3634 73.7952ZM61.5291 69.5831L58.297 67.2205C58.2863 67.2352 58.2756 67.2499 58.2651 67.2647L61.5291 69.5831ZM64.7105 64.8474L61.3148 62.7265C61.3004 62.7496 61.2862 62.7728 61.2723 62.7961L64.7105 64.8474ZM66.7069 61.0039L62.9788 59.5447L62.9788 59.5447L66.7069 61.0039ZM67.5173 57.7558L71.5034 58.1151C71.5051 58.0953 71.5067 58.0755 71.5082 58.0557L67.5173 57.7558ZM63.6821 49.6632L61.8118 53.1949C61.8331 53.2062 61.8545 53.2173 61.876 53.2282L63.6821 49.6632ZM53.3278 51.3041L50.7531 48.2392C50.7398 48.2503 50.7266 48.2615 50.7135 48.2728L53.3278 51.3041ZM50.6155 55.2536L46.864 53.8561C46.8155 53.9865 46.7739 54.1193 46.7392 54.2541L50.6155 55.2536ZM50.1847 57.0697L46.2755 56.209C46.2649 56.2571 46.2552 56.3055 46.2465 56.3541L50.1847 57.0697ZM49.7186 58.7461L45.9323 57.4459C45.8341 57.7326 45.7509 57.8474 45.7363 57.8661C45.7297 57.8745 45.737 57.8638 45.7604 57.844C45.7844 57.8238 45.8141 57.8037 45.8455 57.7873L47.7005 61.3329L49.5556 64.8786C51.6106 63.8077 52.8402 61.9862 53.5048 60.0464L49.7186 58.7461ZM47.7005 61.3329L45.8058 57.8083C45.728 57.8499 45.686 57.8586 45.6696 57.8615C45.6532 57.8643 45.6107 57.87 45.5234 57.8567L44.9244 61.809L44.3254 65.7612C46.1603 66.0417 47.9607 65.733 49.5953 64.8576L47.7005 61.3329ZM44.9244 61.809L45.5234 57.8567C45.3262 57.8265 45.0986 57.7464 44.7988 57.4952L42.2299 60.5568L39.661 63.6184C40.9962 64.7375 42.565 65.4922 44.3254 65.7612L44.9244 61.809ZM42.2299 60.5568L44.9844 57.6609C44.8792 57.5609 44.7758 57.4285 44.7178 57.0806L40.7705 57.7315L36.8233 58.3825C37.1455 60.3147 38.015 62.0658 39.4753 63.4527L42.2299 60.5568ZM40.7705 57.7315L44.7033 56.999C44.6488 56.709 44.6182 56.2492 44.6894 55.5725L40.7096 55.1483L36.7298 54.724C36.5977 55.9794 36.6078 57.2417 36.8377 58.4641L40.7705 57.7315ZM40.7096 55.1483L44.6894 55.5725C44.7668 54.8372 44.905 54.1347 45.1014 53.4614L41.2594 52.3371L37.4174 51.2127C37.084 52.3556 36.8557 53.5273 36.7298 54.724L40.7096 55.1483ZM41.2594 52.3371L45.0821 53.5258C45.3367 52.7046 45.619 51.9609 45.9245 51.2895L42.2812 49.6298L38.6379 47.9701C38.1803 48.9756 37.7814 50.0368 37.4367 51.1483L41.2594 52.3371ZM42.2812 49.6298L45.9119 51.317C46.2446 50.6002 46.5705 50.043 46.875 49.6177L43.6187 47.2885L40.3624 44.9593C39.7162 45.8622 39.1504 46.8659 38.6506 47.9425L42.2812 49.6298ZM43.6187 47.2885L46.7974 49.7224C47.4866 48.823 48.3268 47.9594 49.3365 47.137L46.805 44.0364L44.2735 40.9358C42.8207 42.1191 41.5366 43.4236 40.44 44.8546L43.6187 47.2885ZM46.805 44.0364L49.2977 47.1682C50.3527 46.3306 51.4752 45.6213 52.6688 45.0363L50.9019 41.4461L49.1351 37.8558C47.4217 38.6955 45.8129 39.7131 44.3123 40.9047L46.805 44.0364ZM50.9019 41.4461L52.6473 45.0468C53.8813 44.4512 55.1108 44.0248 56.3392 43.7549L55.4738 39.8499L54.6084 35.9448C52.7411 36.3551 50.9226 36.9929 49.1566 37.8454L50.9019 41.4461ZM55.4738 39.8499L56.3427 43.7542C57.6249 43.4712 58.7856 43.3759 59.839 43.433L60.0496 39.4406L60.2602 35.4482C58.4014 35.3474 56.5116 35.5249 54.605 35.9456L55.4738 39.8499ZM60.0496 39.4406L59.8312 43.4326C63.2277 43.6235 65.783 44.5405 67.7199 45.9809L70.1059 42.7749L72.4919 39.5688C69.0582 37.0153 64.9092 35.7095 60.2681 35.4486L60.0496 39.4406ZM70.1059 42.7749L67.7199 45.9809C69.505 47.3084 70.9339 49.424 71.7771 52.7486L75.6561 51.7723L79.5351 50.796C78.3487 46.1179 76.0774 42.2352 72.4919 39.5688L70.1059 42.7749ZM75.6561 51.7723L71.7771 52.7486C72.1983 54.4097 72.3927 55.8584 72.4058 57.1127L76.4073 57.0774L80.4088 57.042C80.3879 55.0381 80.0814 52.9501 79.5351 50.796L75.6561 51.7723ZM76.4073 57.0774L72.4077 57.2026C72.4429 58.2694 72.2835 59.3991 71.8861 60.6116L75.6893 61.8613L79.4925 63.111C80.156 61.0867 80.4752 59.0271 80.4068 56.9522L76.4073 57.0774ZM75.6893 61.8613L71.8572 60.7037C71.4877 61.9304 70.8595 63.3361 69.9095 64.9284L73.3477 66.9797L76.7859 69.0309C77.9904 67.0121 78.9232 65.0056 79.5215 63.0189L75.6893 61.8613ZM73.3477 66.9797L69.8764 64.9849C68.9421 66.6111 67.6886 68.5027 66.0915 70.6687L69.3146 73.0435L72.5378 75.4183C74.2569 73.0868 75.6921 70.9358 76.819 68.9744L73.3477 66.9797ZM69.3146 73.0435L66.0311 70.7529C65.5114 71.4975 64.9681 72.2496 64.4011 73.0093L67.6104 75.4028L70.8196 77.7963C71.4353 76.9714 72.0283 76.1506 72.5982 75.334L69.3146 73.0435ZM67.6104 75.4028L64.4011 73.0093C64.3999 73.0108 64.3988 73.0124 64.3976 73.0139C64.3965 73.0155 64.3953 73.017 64.3942 73.0186C64.393 73.0201 64.3919 73.0217 64.3907 73.0232C64.3895 73.0248 64.3884 73.0263 64.3872 73.0279C64.3861 73.0294 64.3849 73.031 64.3838 73.0325C64.3826 73.0341 64.3815 73.0356 64.3803 73.0372C64.3792 73.0387 64.378 73.0402 64.3768 73.0418C64.3757 73.0433 64.3745 73.0449 64.3734 73.0464C64.3722 73.048 64.3711 73.0495 64.3699 73.0511C64.3688 73.0526 64.3676 73.0542 64.3664 73.0557C64.3653 73.0573 64.3641 73.0588 64.363 73.0604C64.3618 73.0619 64.3607 73.0635 64.3595 73.065C64.3584 73.0666 64.3572 73.0681 64.3561 73.0696C64.3549 73.0712 64.3537 73.0727 64.3526 73.0743C64.3514 73.0758 64.3503 73.0774 64.3491 73.0789C64.348 73.0805 64.3468 73.082 64.3457 73.0836C64.3445 73.0851 64.3433 73.0867 64.3422 73.0882C64.341 73.0898 64.3399 73.0913 64.3387 73.0929C64.3376 73.0944 64.3364 73.096 64.3353 73.0975C64.3341 73.099 64.333 73.1006 64.3318 73.1021C64.3306 73.1037 64.3295 73.1052 64.3283 73.1068C64.3272 73.1083 64.326 73.1099 64.3249 73.1114C64.3237 73.113 64.3226 73.1145 64.3214 73.1161C64.3202 73.1176 64.3191 73.1192 64.3179 73.1207C64.3168 73.1223 64.3156 73.1238 64.3145 73.1254C64.3133 73.1269 64.3122 73.1285 64.311 73.13C64.3099 73.1315 64.3087 73.1331 64.3075 73.1346C64.3064 73.1362 64.3052 73.1377 64.3041 73.1393C64.3029 73.1408 64.3018 73.1424 64.3006 73.1439C64.2995 73.1455 64.2983 73.147 64.2971 73.1486C64.296 73.1501 64.2948 73.1517 64.2937 73.1532C64.2925 73.1548 64.2914 73.1563 64.2902 73.1579C64.2891 73.1594 64.2879 73.1609 64.2868 73.1625C64.2856 73.164 64.2844 73.1656 64.2833 73.1671C64.2821 73.1687 64.281 73.1702 64.2798 73.1718C64.2787 73.1733 64.2775 73.1749 64.2764 73.1764C64.2752 73.178 64.274 73.1795 64.2729 73.1811C64.2717 73.1826 64.2706 73.1842 64.2694 73.1857C64.2683 73.1873 64.2671 73.1888 64.266 73.1904C64.2648 73.1919 64.2637 73.1934 64.2625 73.195C64.2613 73.1965 64.2602 73.1981 64.259 73.1996C64.2579 73.2012 64.2567 73.2027 64.2556 73.2043C64.2544 73.2058 64.2533 73.2074 64.2521 73.2089C64.2509 73.2105 64.2498 73.212 64.2486 73.2136C64.2475 73.2151 64.2463 73.2167 64.2452 73.2182C64.244 73.2198 64.2429 73.2213 64.2417 73.2228C64.2406 73.2244 64.2394 73.2259 64.2382 73.2275C64.2371 73.229 64.2359 73.2306 64.2348 73.2321C64.2336 73.2337 64.2325 73.2352 64.2313 73.2368C64.2302 73.2383 64.229 73.2399 64.2278 73.2414C64.2267 73.243 64.2255 73.2445 64.2244 73.2461C64.2232 73.2476 64.2221 73.2492 64.2209 73.2507C64.2198 73.2522 64.2186 73.2538 64.2174 73.2553C64.2163 73.2569 64.2151 73.2584 64.214 73.26C64.2128 73.2615 64.2117 73.2631 64.2105 73.2646C64.2094 73.2662 64.2082 73.2677 64.2071 73.2693C64.2059 73.2708 64.2047 73.2724 64.2036 73.2739C64.2024 73.2755 64.2013 73.277 64.2001 73.2786C64.199 73.2801 64.1978 73.2817 64.1967 73.2832C64.1955 73.2847 64.1943 73.2863 64.1932 73.2878C64.192 73.2894 64.1909 73.2909 64.1897 73.2925C64.1886 73.294 64.1874 73.2956 64.1863 73.2971C64.1851 73.2987 64.184 73.3002 64.1828 73.3018C64.1816 73.3033 64.1805 73.3049 64.1793 73.3064C64.1782 73.308 64.177 73.3095 64.1759 73.3111C64.1747 73.3126 64.1736 73.3141 64.1724 73.3157C64.1712 73.3172 64.1701 73.3188 64.1689 73.3203C64.1678 73.3219 64.1666 73.3234 64.1655 73.325C64.1643 73.3265 64.1632 73.3281 64.162 73.3296C64.1609 73.3312 64.1597 73.3327 64.1585 73.3343C64.1574 73.3358 64.1562 73.3374 64.1551 73.3389C64.1539 73.3405 64.1528 73.342 64.1516 73.3435C64.1505 73.3451 64.1493 73.3466 64.1481 73.3482C64.147 73.3497 64.1458 73.3513 64.1447 73.3528C64.1435 73.3544 64.1424 73.3559 64.1412 73.3575C64.1401 73.359 64.1389 73.3606 64.1378 73.3621C64.1366 73.3637 64.1354 73.3652 64.1343 73.3668C64.1331 73.3683 64.132 73.3699 64.1308 73.3714C64.1297 73.373 64.1285 73.3745 64.1274 73.376C64.1262 73.3776 64.125 73.3791 64.1239 73.3807C64.1227 73.3822 64.1216 73.3838 64.1204 73.3853C64.1193 73.3869 64.1181 73.3884 64.117 73.39C64.1158 73.3915 64.1147 73.3931 64.1135 73.3946C64.1123 73.3962 64.1112 73.3977 64.11 73.3993C64.1089 73.4008 64.1077 73.4024 64.1066 73.4039C64.1054 73.4055 64.1043 73.407 64.1031 73.4085C64.1019 73.4101 64.1008 73.4116 64.0996 73.4132C64.0985 73.4147 64.0973 73.4163 64.0962 73.4178C64.095 73.4194 64.0939 73.4209 64.0927 73.4225C64.0916 73.424 64.0904 73.4256 64.0892 73.4271C64.0881 73.4287 64.0869 73.4302 64.0858 73.4318C64.0846 73.4333 64.0835 73.4349 64.0823 73.4364C64.0812 73.4379 64.08 73.4395 64.0788 73.441C64.0777 73.4426 64.0765 73.4441 64.0754 73.4457C64.0742 73.4472 64.0731 73.4488 64.0719 73.4503C64.0708 73.4519 64.0696 73.4534 64.0685 73.455C64.0673 73.4565 64.0661 73.4581 64.065 73.4596C64.0638 73.4612 64.0627 73.4627 64.0615 73.4643C64.0604 73.4658 64.0592 73.4673 64.0581 73.4689C64.0569 73.4704 64.0557 73.472 64.0546 73.4735C64.0534 73.4751 64.0523 73.4766 64.0511 73.4782C64.05 73.4797 64.0488 73.4813 64.0477 73.4828C64.0465 73.4844 64.0454 73.4859 64.0442 73.4875C64.043 73.489 64.0419 73.4906 64.0407 73.4921C64.0396 73.4937 64.0384 73.4952 64.0373 73.4968C64.0361 73.4983 64.035 73.4998 64.0338 73.5014C64.0326 73.5029 64.0315 73.5045 64.0303 73.506C64.0292 73.5076 64.028 73.5091 64.0269 73.5107C64.0257 73.5122 64.0246 73.5138 64.0234 73.5153C64.0223 73.5169 64.0211 73.5184 64.0199 73.52C64.0188 73.5215 64.0176 73.5231 64.0165 73.5246C64.0153 73.5262 64.0142 73.5277 64.013 73.5292C64.0119 73.5308 64.0107 73.5323 64.0095 73.5339C64.0084 73.5354 64.0072 73.537 64.0061 73.5385C64.0049 73.5401 64.0038 73.5416 64.0026 73.5432C64.0015 73.5447 64.0003 73.5463 63.9992 73.5478C63.998 73.5494 63.9968 73.5509 63.9957 73.5525C63.9945 73.554 63.9934 73.5556 63.9922 73.5571C63.9911 73.5586 63.9899 73.5602 63.9888 73.5617C63.9876 73.5633 63.9864 73.5648 63.9853 73.5664C63.9841 73.5679 63.983 73.5695 63.9818 73.571C63.9807 73.5726 63.9795 73.5741 63.9784 73.5757C63.9772 73.5772 63.9761 73.5788 63.9749 73.5803C63.9737 73.5819 63.9726 73.5834 63.9714 73.585C63.9703 73.5865 63.9691 73.5881 63.968 73.5896C63.9668 73.5911 63.9657 73.5927 63.9645 73.5942C63.9633 73.5958 63.9622 73.5973 63.961 73.5989C63.9599 73.6004 63.9587 73.602 63.9576 73.6035C63.9564 73.6051 63.9553 73.6066 63.9541 73.6082C63.9529 73.6097 63.9518 73.6113 63.9506 73.6128C63.9495 73.6144 63.9483 73.6159 63.9472 73.6175C63.946 73.619 63.9449 73.6205 63.9437 73.6221C63.9426 73.6236 63.9414 73.6252 63.9402 73.6267C63.9391 73.6283 63.9379 73.6298 63.9368 73.6314C63.9356 73.6329 63.9345 73.6345 63.9333 73.636C63.9322 73.6376 63.931 73.6391 63.9298 73.6407C63.9287 73.6422 63.9275 73.6438 63.9264 73.6453C63.9252 73.6469 63.9241 73.6484 63.9229 73.65C63.9218 73.6515 63.9206 73.653 63.9195 73.6546C63.9183 73.6561 63.9171 73.6577 63.916 73.6592C63.9148 73.6608 63.9137 73.6623 63.9125 73.6639C63.9114 73.6654 63.9102 73.667 63.9091 73.6685C63.9079 73.6701 63.9067 73.6716 63.9056 73.6732C63.9044 73.6747 63.9033 73.6763 63.9021 73.6778C63.901 73.6794 63.8998 73.6809 63.8987 73.6824C63.8975 73.684 63.8964 73.6855 63.8952 73.6871C63.894 73.6886 63.8929 73.6902 63.8917 73.6917C63.8906 73.6933 63.8894 73.6948 63.8883 73.6964C63.8871 73.6979 63.886 73.6995 63.8848 73.701C63.8836 73.7026 63.8825 73.7041 63.8813 73.7057C63.8802 73.7072 63.879 73.7088 63.8779 73.7103C63.8767 73.7118 63.8756 73.7134 63.8744 73.7149C63.8733 73.7165 63.8721 73.718 63.8709 73.7196C63.8698 73.7211 63.8686 73.7227 63.8675 73.7242C63.8663 73.7258 63.8652 73.7273 63.864 73.7289C63.8629 73.7304 63.8617 73.732 63.8605 73.7335C63.8594 73.7351 63.8582 73.7366 63.8571 73.7382C63.8559 73.7397 63.8548 73.7413 63.8536 73.7428C63.8525 73.7443 63.8513 73.7459 63.8502 73.7474C63.849 73.749 63.8478 73.7505 63.8467 73.7521C63.8455 73.7536 63.8444 73.7552 63.8432 73.7567C63.8421 73.7583 63.8409 73.7598 63.8398 73.7614C63.8386 73.7629 63.8374 73.7645 63.8363 73.766C63.8351 73.7676 63.834 73.7691 63.8328 73.7707C63.8317 73.7722 63.8305 73.7737 63.8294 73.7753C63.8282 73.7768 63.8271 73.7784 63.8259 73.7799C63.8247 73.7815 63.8236 73.783 63.8224 73.7846C63.8213 73.7861 63.8201 73.7877 63.819 73.7892C63.8178 73.7908 63.8167 73.7923 63.8155 73.7939C63.8143 73.7954 63.8132 73.797 63.812 73.7985C63.8109 73.8001 63.8097 73.8016 63.8086 73.8031C63.8074 73.8047 63.8063 73.8062 63.8051 73.8078C63.804 73.8093 63.8028 73.8109 63.8016 73.8124C63.8005 73.814 63.7993 73.8155 63.7982 73.8171C63.797 73.8186 63.7959 73.8202 63.7947 73.8217C63.7936 73.8233 63.7924 73.8248 63.7912 73.8264C63.7901 73.8279 63.7889 73.8295 63.7878 73.831C63.7866 73.8326 63.7855 73.8341 63.7843 73.8356C63.7832 73.8372 63.782 73.8387 63.7809 73.8403C63.7797 73.8418 63.7785 73.8434 63.7774 73.8449C63.7762 73.8465 63.7751 73.848 63.7739 73.8496C63.7728 73.8511 63.7716 73.8527 63.7705 73.8542C63.7693 73.8558 63.7681 73.8573 63.767 73.8589C63.7658 73.8604 63.7647 73.862 63.7635 73.8635C63.7624 73.8651 63.7612 73.8666 63.7601 73.8681C63.7589 73.8697 63.7578 73.8712 63.7566 73.8728C63.7554 73.8743 63.7543 73.8759 63.7531 73.8774C63.752 73.879 63.7508 73.8805 63.7497 73.8821C63.7485 73.8836 63.7474 73.8852 63.7462 73.8867C63.745 73.8883 63.7439 73.8898 63.7427 73.8914C63.7416 73.8929 63.7404 73.8945 63.7393 73.896C63.7381 73.8975 63.737 73.8991 63.7358 73.9006C63.7346 73.9022 63.7335 73.9037 63.7323 73.9053C63.7312 73.9068 63.73 73.9084 63.7289 73.9099C63.7277 73.9115 63.7266 73.913 63.7254 73.9146C63.7243 73.9161 63.7231 73.9177 63.7219 73.9192C63.7208 73.9208 63.7196 73.9223 63.7185 73.9239C63.7173 73.9254 63.7162 73.9269 63.715 73.9285C63.7139 73.93 63.7127 73.9316 63.7116 73.9331C63.7104 73.9347 63.7092 73.9362 63.7081 73.9378C63.7069 73.9393 63.7058 73.9409 63.7046 73.9424C63.7035 73.944 63.7023 73.9455 63.7012 73.9471C63.7 73.9486 63.6988 73.9502 63.6977 73.9517C63.6965 73.9533 63.6954 73.9548 63.6942 73.9563C63.6931 73.9579 63.6919 73.9594 63.6908 73.961C63.6896 73.9625 63.6884 73.9641 63.6873 73.9656C63.6861 73.9672 63.685 73.9687 63.6838 73.9703C63.6827 73.9718 63.6815 73.9734 63.6804 73.9749C63.6792 73.9765 63.6781 73.978 63.6769 73.9796C63.6757 73.9811 63.6746 73.9827 63.6734 73.9842C63.6723 73.9858 63.6711 73.9873 63.67 73.9888C63.6688 73.9904 63.6677 73.9919 63.6665 73.9935C63.6653 73.995 63.6642 73.9966 63.663 73.9981C63.6619 73.9997 63.6607 74.0012 63.6596 74.0028C63.6584 74.0043 63.6573 74.0059 63.6561 74.0074C63.655 74.009 63.6538 74.0105 63.6526 74.0121C63.6515 74.0136 63.6503 74.0152 63.6492 74.0167C63.648 74.0182 63.6469 74.0198 63.6457 74.0213C63.6446 74.0229 63.6434 74.0244 63.6422 74.026C63.6411 74.0275 63.6399 74.0291 63.6388 74.0306C63.6376 74.0322 63.6365 74.0337 63.6353 74.0353C63.6342 74.0368 63.633 74.0384 63.6319 74.0399C63.6307 74.0415 63.6295 74.043 63.6284 74.0446C63.6272 74.0461 63.6261 74.0477 63.6249 74.0492C63.6238 74.0507 63.6226 74.0523 63.6215 74.0538C63.6203 74.0554 63.6191 74.0569 63.618 74.0585C63.6168 74.06 63.6157 74.0616 63.6145 74.0631C63.6134 74.0647 63.6122 74.0662 63.6111 74.0678C63.6099 74.0693 63.6088 74.0709 63.6076 74.0724C63.6064 74.074 63.6053 74.0755 63.6041 74.0771C63.603 74.0786 63.6018 74.0801 63.6007 74.0817C63.5995 74.0832 63.5984 74.0848 63.5972 74.0863C63.596 74.0879 63.5949 74.0894 63.5937 74.091C63.5926 74.0925 63.5914 74.0941 63.5903 74.0956C63.5891 74.0972 63.588 74.0987 63.5868 74.1003C63.5857 74.1018 63.5845 74.1034 63.5833 74.1049C63.5822 74.1065 63.581 74.108 63.5799 74.1096C63.5787 74.1111 63.5776 74.1126 63.5764 74.1142C63.5753 74.1157 63.5741 74.1173 63.5729 74.1188C63.5718 74.1204 63.5706 74.1219 63.5695 74.1235C63.5683 74.125 63.5672 74.1266 63.566 74.1281C63.5649 74.1297 63.5637 74.1312 63.5626 74.1328C63.5614 74.1343 63.5602 74.1359 63.5591 74.1374C63.5579 74.139 63.5568 74.1405 63.5556 74.142C63.5545 74.1436 63.5533 74.1451 63.5522 74.1467C63.551 74.1482 63.5498 74.1498 63.5487 74.1513C63.5475 74.1529 63.5464 74.1544 63.5452 74.156C63.5441 74.1575 63.5429 74.1591 63.5418 74.1606C63.5406 74.1622 63.5395 74.1637 63.5383 74.1653C63.5371 74.1668 63.536 74.1684 63.5348 74.1699C63.5337 74.1714 63.5325 74.173 63.5314 74.1745C63.5302 74.1761 63.5291 74.1776 63.5279 74.1792C63.5267 74.1807 63.5256 74.1823 63.5244 74.1838C63.5233 74.1854 63.5221 74.1869 63.521 74.1885C63.5198 74.19 63.5187 74.1916 63.5175 74.1931C63.5164 74.1947 63.5152 74.1962 63.514 74.1978C63.5129 74.1993 63.5117 74.2009 63.5106 74.2024C63.5094 74.2039 63.5083 74.2055 63.5071 74.207C63.506 74.2086 63.5048 74.2101 63.5036 74.2117C63.5025 74.2132 63.5013 74.2148 63.5002 74.2163C63.499 74.2179 63.4979 74.2194 63.4967 74.221C63.4956 74.2225 63.4944 74.2241 63.4933 74.2256C63.4921 74.2272 63.4909 74.2287 63.4898 74.2303C63.4886 74.2318 63.4875 74.2333 63.4863 74.2349C63.4852 74.2364 63.484 74.238 63.4829 74.2395C63.4817 74.2411 63.4805 74.2426 63.4794 74.2442C63.4782 74.2457 63.4771 74.2473 63.4759 74.2488C63.4748 74.2504 63.4736 74.2519 63.4725 74.2535C63.4713 74.255 63.4701 74.2566 63.469 74.2581C63.4678 74.2597 63.4667 74.2612 63.4655 74.2627C63.4644 74.2643 63.4632 74.2658 63.4621 74.2674C63.4609 74.2689 63.4598 74.2705 63.4586 74.272C63.4574 74.2736 63.4563 74.2751 63.4551 74.2767C63.454 74.2782 63.4528 74.2798 63.4517 74.2813C63.4505 74.2829 63.4494 74.2844 63.4482 74.286C63.4471 74.2875 63.4459 74.2891 63.4447 74.2906C63.4436 74.2922 63.4424 74.2937 63.4413 74.2952C63.4401 74.2968 63.439 74.2983 63.4378 74.2999C63.4367 74.3014 63.4355 74.303 63.4343 74.3045C63.4332 74.3061 63.432 74.3076 63.4309 74.3092C63.4297 74.3107 63.4286 74.3123 63.4274 74.3138C63.4263 74.3154 63.4251 74.3169 63.4239 74.3185C63.4228 74.32 63.4216 74.3216 63.4205 74.3231C63.4193 74.3247 63.4182 74.3262 63.417 74.3277C63.4159 74.3293 63.4147 74.3308 63.4136 74.3324C63.4124 74.3339 63.4112 74.3355 63.4101 74.337C63.4089 74.3386 63.4078 74.3401 63.4066 74.3417C63.4055 74.3432 63.4043 74.3448 63.4032 74.3463C63.402 74.3479 63.4008 74.3494 63.3997 74.351C63.3985 74.3525 63.3974 74.3541 63.3962 74.3556C63.3951 74.3571 63.3939 74.3587 63.3928 74.3602C63.3916 74.3618 63.3905 74.3633 63.3893 74.3649C63.3881 74.3664 63.387 74.368 63.3858 74.3695C63.3847 74.3711 63.3835 74.3726 63.3824 74.3742C63.3812 74.3757 63.3801 74.3773 63.3789 74.3788C63.3777 74.3804 63.3766 74.3819 63.3754 74.3835C63.3743 74.385 63.3731 74.3865 63.372 74.3881C63.3708 74.3896 63.3697 74.3912 63.3685 74.3927C63.3674 74.3943 63.3662 74.3958 63.365 74.3974C63.3639 74.3989 63.3627 74.4005 63.3616 74.402C63.3604 74.4036 63.3593 74.4051 63.3581 74.4067C63.357 74.4082 63.3558 74.4098 63.3546 74.4113C63.3535 74.4129 63.3523 74.4144 63.3512 74.4159C63.35 74.4175 63.3489 74.419 63.3477 74.4206C63.3466 74.4221 63.3454 74.4237 63.3443 74.4252C63.3431 74.4268 63.3419 74.4283 63.3408 74.4299C63.3396 74.4314 63.3385 74.433 63.3373 74.4345C63.3362 74.4361 63.335 74.4376 63.3339 74.4392C63.3327 74.4407 63.3315 74.4423 63.3304 74.4438C63.3292 74.4454 63.3281 74.4469 63.3269 74.4484C63.3258 74.45 63.3246 74.4515 63.3235 74.4531C63.3223 74.4546 63.3212 74.4562 63.32 74.4577C63.3188 74.4593 63.3177 74.4608 63.3165 74.4624C63.3154 74.4639 63.3142 74.4655 63.3131 74.467C63.3119 74.4686 63.3108 74.4701 63.3096 74.4717C63.3084 74.4732 63.3073 74.4748 63.3061 74.4763C63.305 74.4778 63.3038 74.4794 63.3027 74.4809C63.3015 74.4825 63.3004 74.484 63.2992 74.4856C63.2981 74.4871 63.2969 74.4887 63.2957 74.4902C63.2946 74.4918 63.2934 74.4933 63.2923 74.4949C63.2911 74.4964 63.29 74.498 63.2888 74.4995C63.2877 74.5011 63.2865 74.5026 63.2853 74.5042C63.2842 74.5057 63.283 74.5073 63.2819 74.5088C63.2807 74.5103 63.2796 74.5119 63.2784 74.5134C63.2773 74.515 63.2761 74.5165 63.275 74.5181C63.2738 74.5196 63.2726 74.5212 63.2715 74.5227C63.2703 74.5243 63.2692 74.5258 63.268 74.5274C63.2669 74.5289 63.2657 74.5305 63.2646 74.532C63.2634 74.5336 63.2622 74.5351 63.2611 74.5367C63.2599 74.5382 63.2588 74.5397 63.2576 74.5413C63.2565 74.5428 63.2553 74.5444 63.2542 74.5459C63.253 74.5475 63.2519 74.549 63.2507 74.5506C63.2495 74.5521 63.2484 74.5537 63.2472 74.5552C63.2461 74.5568 63.2449 74.5583 63.2438 74.5599C63.2426 74.5614 63.2415 74.563 63.2403 74.5645C63.2391 74.5661 63.238 74.5676 63.2368 74.5692C63.2357 74.5707 63.2345 74.5722 63.2334 74.5738C63.2322 74.5753 63.2311 74.5769 63.2299 74.5784C63.2288 74.58 63.2276 74.5815 63.2264 74.5831C63.2253 74.5846 63.2241 74.5862 63.223 74.5877C63.2218 74.5893 63.2207 74.5908 63.2195 74.5924C63.2184 74.5939 63.2172 74.5955 63.216 74.597C63.2149 74.5986 63.2137 74.6001 63.2126 74.6016C63.2114 74.6032 63.2103 74.6047 63.2091 74.6063C63.208 74.6078 63.2068 74.6094 63.2057 74.6109C63.2045 74.6125 63.2033 74.614 63.2022 74.6156C63.201 74.6171 63.1999 74.6187 63.1987 74.6202C63.1976 74.6218 63.1964 74.6233 63.1953 74.6249C63.1941 74.6264 63.1929 74.628 63.1918 74.6295C63.1906 74.631 63.1895 74.6326 63.1883 74.6341C63.1872 74.6357 63.186 74.6372 63.1849 74.6388C63.1837 74.6403 63.1826 74.6419 63.1814 74.6434C63.1802 74.645 63.1791 74.6465 63.1779 74.6481C63.1768 74.6496 63.1756 74.6512 63.1745 74.6527C63.1733 74.6543 63.1722 74.6558 63.171 74.6574C63.1698 74.6589 63.1687 74.6604 63.1675 74.662C63.1664 74.6635 63.1652 74.6651 63.1641 74.6666C63.1629 74.6682 63.1618 74.6697 63.1606 74.6713C63.1594 74.6728 63.1583 74.6744 63.1571 74.6759C63.156 74.6775 63.1548 74.679 63.1537 74.6806C63.1525 74.6821 63.1514 74.6837 63.1502 74.6852C63.1491 74.6868 63.1479 74.6883 63.1467 74.6899C63.1456 74.6914 63.1444 74.6929 63.1433 74.6945C63.1421 74.696 63.141 74.6976 63.1398 74.6991C63.1387 74.7007 63.1375 74.7022 63.1363 74.7038C63.1352 74.7053 63.134 74.7069 63.1329 74.7084C63.1317 74.71 63.1306 74.7115 63.1294 74.7131C63.1283 74.7146 63.1271 74.7162 63.126 74.7177C63.1248 74.7193 63.1236 74.7208 63.1225 74.7224C63.1213 74.7239 63.1202 74.7254 63.119 74.727C63.1179 74.7285 63.1167 74.7301 63.1156 74.7316C63.1144 74.7332 63.1132 74.7347 63.1121 74.7363C63.1109 74.7378 63.1098 74.7394 63.1086 74.7409C63.1075 74.7425 63.1063 74.744 63.1052 74.7456C63.104 74.7471 63.1029 74.7487 63.1017 74.7502C63.1005 74.7518 63.0994 74.7533 63.0982 74.7548C63.0971 74.7564 63.0959 74.7579 63.0948 74.7595C63.0936 74.761 63.0925 74.7626 63.0913 74.7641C63.0901 74.7657 63.089 74.7672 63.0878 74.7688C63.0867 74.7703 63.0855 74.7719 63.0844 74.7734C63.0832 74.775 63.0821 74.7765 63.0809 74.7781C63.0798 74.7796 63.0786 74.7812 63.0774 74.7827C63.0763 74.7843 63.0751 74.7858 63.074 74.7873C63.0728 74.7889 63.0717 74.7904 63.0705 74.792C63.0694 74.7935 63.0682 74.7951 63.067 74.7966C63.0659 74.7982 63.0647 74.7997 63.0636 74.8013C63.0624 74.8028 63.0613 74.8044 63.0601 74.8059C63.059 74.8075 63.0578 74.809 63.0567 74.8106C63.0555 74.8121 63.0543 74.8137 63.0532 74.8152C63.052 74.8167 63.0509 74.8183 63.0497 74.8198C63.0486 74.8214 63.0474 74.8229 63.0463 74.8245C63.0451 74.826 63.0439 74.8276 63.0428 74.8291C63.0416 74.8307 63.0405 74.8322 63.0393 74.8338C63.0382 74.8353 63.037 74.8369 63.0359 74.8384C63.0347 74.84 63.0336 74.8415 63.0324 74.8431C63.0312 74.8446 63.0301 74.8461 63.0289 74.8477C63.0278 74.8492 63.0266 74.8508 63.0255 74.8523C63.0243 74.8539 63.0232 74.8554 63.022 74.857C63.0208 74.8585 63.0197 74.8601 63.0185 74.8616C63.0174 74.8632 63.0162 74.8647 63.0151 74.8663C63.0139 74.8678 63.0128 74.8694 63.0116 74.8709C63.0105 74.8725 63.0093 74.874 63.0081 74.8755C63.007 74.8771 63.0058 74.8786 63.0047 74.8802C63.0035 74.8817 63.0024 74.8833 63.0012 74.8848C63.0001 74.8864 62.9989 74.8879 62.9977 74.8895C62.9966 74.891 62.9954 74.8926 62.9943 74.8941C62.9931 74.8957 62.992 74.8972 62.9908 74.8988C62.9897 74.9003 62.9885 74.9019 62.9874 74.9034C62.9862 74.905 62.985 74.9065 62.9839 74.908C62.9827 74.9096 62.9816 74.9111 62.9804 74.9127C62.9793 74.9142 62.9781 74.9158 62.977 74.9173C62.9758 74.9189 62.9746 74.9204 62.9735 74.922C62.9723 74.9235 62.9712 74.9251 62.97 74.9266C62.9689 74.9282 62.9677 74.9297 62.9666 74.9313C62.9654 74.9328 62.9643 74.9344 62.9631 74.9359C62.9619 74.9374 62.9608 74.939 62.9596 74.9405C62.9585 74.9421 62.9573 74.9436 62.9562 74.9452C62.955 74.9467 62.9539 74.9483 62.9527 74.9498C62.9515 74.9514 62.9504 74.9529 62.9492 74.9545C62.9481 74.956 62.9469 74.9576 62.9458 74.9591C62.9446 74.9607 62.9435 74.9622 62.9423 74.9638C62.9412 74.9653 62.94 74.9669 62.9388 74.9684C62.9377 74.9699 62.9365 74.9715 62.9354 74.973C62.9342 74.9746 62.9331 74.9761 62.9319 74.9777C62.9308 74.9792 62.9296 74.9808 62.9284 74.9823C62.9273 74.9839 62.9261 74.9854 62.925 74.987C62.9238 74.9885 62.9227 74.9901 62.9215 74.9916C62.9204 74.9932 62.9192 74.9947 62.918 74.9963C62.9169 74.9978 62.9157 74.9993 62.9146 75.0009C62.9134 75.0024 62.9123 75.004 62.9111 75.0055C62.91 75.0071 62.9088 75.0086 62.9077 75.0102C62.9065 75.0117 62.9053 75.0133 62.9042 75.0148C62.903 75.0164 62.9019 75.0179 62.9007 75.0195C62.8996 75.021 62.8984 75.0226 62.8973 75.0241C62.8961 75.0257 62.8949 75.0272 62.8938 75.0288C62.8926 75.0303 62.8915 75.0318 62.8903 75.0334C62.8892 75.0349 62.888 75.0365 62.8869 75.038C62.8857 75.0396 62.8846 75.0411 62.8834 75.0427C62.8822 75.0442 62.8811 75.0458 62.8799 75.0473C62.8788 75.0489 62.8776 75.0504 62.8765 75.052C62.8753 75.0535 62.8742 75.0551 62.873 75.0566C62.8718 75.0582 62.8707 75.0597 62.8695 75.0612C62.8684 75.0628 62.8672 75.0643 62.8661 75.0659C62.8649 75.0674 62.8638 75.069 62.8626 75.0705C62.8615 75.0721 62.8603 75.0736 62.8591 75.0752C62.858 75.0767 62.8568 75.0783 62.8557 75.0798C62.8545 75.0814 62.8534 75.0829 62.8522 75.0845C62.8511 75.086 62.8499 75.0876 62.8487 75.0891C62.8476 75.0906 62.8464 75.0922 62.8453 75.0937C62.8441 75.0953 62.843 75.0968 62.8418 75.0984C62.8407 75.0999 62.8395 75.1015 62.8384 75.103C62.8372 75.1046 62.836 75.1061 62.8349 75.1077C62.8337 75.1092 62.8326 75.1108 62.8314 75.1123C62.8303 75.1139 62.8291 75.1154 62.828 75.117C62.8268 75.1185 62.8256 75.12 62.8245 75.1216C62.8233 75.1231 62.8222 75.1247 62.821 75.1262C62.8199 75.1278 62.8187 75.1293 62.8176 75.1309C62.8164 75.1324 62.8153 75.134 62.8141 75.1355C62.8129 75.1371 62.8118 75.1386 62.8106 75.1402C62.8095 75.1417 62.8083 75.1433 62.8072 75.1448C62.806 75.1464 62.8049 75.1479 62.8037 75.1495C62.8025 75.151 62.8014 75.1525 62.8002 75.1541C62.7991 75.1556 62.7979 75.1572 62.7968 75.1587C62.7956 75.1603 62.7945 75.1618 62.7933 75.1634C62.7922 75.1649 62.791 75.1665 62.7898 75.168C62.7887 75.1696 62.7875 75.1711 62.7864 75.1727C62.7852 75.1742 62.7841 75.1758 62.7829 75.1773C62.7818 75.1789 62.7806 75.1804 62.7794 75.182C62.7783 75.1835 62.7771 75.185 62.776 75.1866C62.7748 75.1881 62.7737 75.1897 62.7725 75.1912C62.7714 75.1928 62.7702 75.1943 62.7691 75.1959C62.7679 75.1974 62.7667 75.199 62.7656 75.2005C62.7644 75.2021 62.7633 75.2036 62.7621 75.2052C62.761 75.2067 62.7598 75.2083 62.7587 75.2098C62.7575 75.2114 62.7563 75.2129 62.7552 75.2144C62.754 75.216 62.7529 75.2175 62.7517 75.2191C62.7506 75.2206 62.7494 75.2222 62.7483 75.2237C62.7471 75.2253 62.746 75.2268 62.7448 75.2284C62.7436 75.2299 62.7425 75.2315 62.7413 75.233C62.7402 75.2346 62.739 75.2361 62.7379 75.2377C62.7367 75.2392 62.7356 75.2408 62.7344 75.2423C62.7332 75.2438 62.7321 75.2454 62.7309 75.2469C62.7298 75.2485 62.7286 75.25 62.7275 75.2516C62.7263 75.2531 62.7252 75.2547 62.724 75.2562C62.7229 75.2578 62.7217 75.2593 62.7205 75.2609C62.7194 75.2624 62.7182 75.264 62.7171 75.2655C62.7159 75.2671 62.7148 75.2686 62.7136 75.2702C62.7125 75.2717 62.7113 75.2733 62.7101 75.2748C62.709 75.2763 62.7078 75.2779 62.7067 75.2794C62.7055 75.281 62.7044 75.2825 62.7032 75.2841C62.7021 75.2856 62.7009 75.2872 62.6998 75.2887C62.6986 75.2903 62.6974 75.2918 62.6963 75.2934C62.6951 75.2949 62.694 75.2965 62.6928 75.298C62.6917 75.2996 62.6905 75.3011 62.6894 75.3027C62.6882 75.3042 62.687 75.3057 62.6859 75.3073C62.6847 75.3088 62.6836 75.3104 62.6824 75.3119C62.6813 75.3135 62.6801 75.315 62.679 75.3166C62.6778 75.3181 62.6767 75.3197 62.6755 75.3212C62.6743 75.3228 62.6732 75.3243 62.672 75.3259C62.6709 75.3274 62.6697 75.329 62.6686 75.3305C62.6674 75.3321 62.6663 75.3336 62.6651 75.3351C62.6639 75.3367 62.6628 75.3382 62.6616 75.3398C62.6605 75.3413 62.6593 75.3429 62.6582 75.3444C62.657 75.346 62.6559 75.3475 62.6547 75.3491C62.6535 75.3506 62.6524 75.3522 62.6512 75.3537C62.6501 75.3553 62.6489 75.3568 62.6478 75.3584C62.6466 75.3599 62.6455 75.3615 62.6443 75.363C62.6432 75.3646 62.642 75.3661 62.6408 75.3676C62.6397 75.3692 62.6385 75.3707 62.6374 75.3723C62.6362 75.3738 62.6351 75.3754 62.6339 75.3769C62.6328 75.3785 62.6316 75.38 62.6304 75.3816C62.6293 75.3831 62.6281 75.3847 62.627 75.3862L65.8362 77.7797L69.0455 80.1733C69.0467 80.1717 69.0478 80.1702 69.049 80.1686C69.0501 80.1671 69.0513 80.1655 69.0524 80.164C69.0536 80.1624 69.0547 80.1609 69.0559 80.1593C69.0571 80.1578 69.0582 80.1562 69.0594 80.1547C69.0605 80.1531 69.0617 80.1516 69.0628 80.15C69.064 80.1485 69.0651 80.1469 69.0663 80.1454C69.0674 80.1438 69.0686 80.1423 69.0698 80.1408C69.0709 80.1392 69.0721 80.1377 69.0732 80.1361C69.0744 80.1346 69.0755 80.133 69.0767 80.1315C69.0778 80.1299 69.079 80.1284 69.0801 80.1268C69.0813 80.1253 69.0825 80.1237 69.0836 80.1222C69.0848 80.1206 69.0859 80.1191 69.0871 80.1175C69.0882 80.116 69.0894 80.1144 69.0905 80.1129C69.0917 80.1114 69.0929 80.1098 69.094 80.1083C69.0952 80.1067 69.0963 80.1052 69.0975 80.1036C69.0986 80.1021 69.0998 80.1005 69.1009 80.099C69.1021 80.0974 69.1033 80.0959 69.1044 80.0943C69.1056 80.0928 69.1067 80.0912 69.1079 80.0897C69.109 80.0881 69.1102 80.0866 69.1113 80.085C69.1125 80.0835 69.1136 80.082 69.1148 80.0804C69.116 80.0789 69.1171 80.0773 69.1183 80.0758C69.1194 80.0742 69.1206 80.0727 69.1217 80.0711C69.1229 80.0696 69.124 80.068 69.1252 80.0665C69.1264 80.0649 69.1275 80.0634 69.1287 80.0618C69.1298 80.0603 69.131 80.0587 69.1321 80.0572C69.1333 80.0556 69.1344 80.0541 69.1356 80.0526C69.1367 80.051 69.1379 80.0495 69.1391 80.0479C69.1402 80.0464 69.1414 80.0448 69.1425 80.0433C69.1437 80.0417 69.1448 80.0402 69.146 80.0386C69.1471 80.0371 69.1483 80.0355 69.1495 80.034C69.1506 80.0324 69.1518 80.0309 69.1529 80.0293C69.1541 80.0278 69.1552 80.0262 69.1564 80.0247C69.1575 80.0231 69.1587 80.0216 69.1598 80.0201C69.161 80.0185 69.1622 80.017 69.1633 80.0154C69.1645 80.0139 69.1656 80.0123 69.1668 80.0108C69.1679 80.0092 69.1691 80.0077 69.1702 80.0061C69.1714 80.0046 69.1726 80.003 69.1737 80.0015C69.1749 79.9999 69.176 79.9984 69.1772 79.9968C69.1783 79.9953 69.1795 79.9937 69.1806 79.9922C69.1818 79.9907 69.1829 79.9891 69.1841 79.9876C69.1853 79.986 69.1864 79.9845 69.1876 79.9829C69.1887 79.9814 69.1899 79.9798 69.191 79.9783C69.1922 79.9767 69.1933 79.9752 69.1945 79.9736C69.1957 79.9721 69.1968 79.9705 69.198 79.969C69.1991 79.9674 69.2003 79.9659 69.2014 79.9643C69.2026 79.9628 69.2037 79.9612 69.2049 79.9597C69.206 79.9582 69.2072 79.9566 69.2084 79.9551C69.2095 79.9535 69.2107 79.952 69.2118 79.9504C69.213 79.9489 69.2141 79.9473 69.2153 79.9458C69.2164 79.9442 69.2176 79.9427 69.2188 79.9411C69.2199 79.9396 69.2211 79.938 69.2222 79.9365C69.2234 79.9349 69.2245 79.9334 69.2257 79.9318C69.2268 79.9303 69.228 79.9288 69.2291 79.9272C69.2303 79.9257 69.2315 79.9241 69.2326 79.9226C69.2338 79.921 69.2349 79.9195 69.2361 79.9179C69.2372 79.9164 69.2384 79.9148 69.2395 79.9133C69.2407 79.9117 69.2419 79.9102 69.243 79.9086C69.2442 79.9071 69.2453 79.9055 69.2465 79.904C69.2476 79.9024 69.2488 79.9009 69.2499 79.8993C69.2511 79.8978 69.2522 79.8963 69.2534 79.8947C69.2546 79.8932 69.2557 79.8916 69.2569 79.8901C69.258 79.8885 69.2592 79.887 69.2603 79.8854C69.2615 79.8839 69.2626 79.8823 69.2638 79.8808C69.265 79.8792 69.2661 79.8777 69.2673 79.8761C69.2684 79.8746 69.2696 79.873 69.2707 79.8715C69.2719 79.8699 69.273 79.8684 69.2742 79.8669C69.2753 79.8653 69.2765 79.8638 69.2777 79.8622C69.2788 79.8607 69.28 79.8591 69.2811 79.8576C69.2823 79.856 69.2834 79.8545 69.2846 79.8529C69.2857 79.8514 69.2869 79.8498 69.2881 79.8483C69.2892 79.8467 69.2904 79.8452 69.2915 79.8436C69.2927 79.8421 69.2938 79.8405 69.295 79.839C69.2961 79.8375 69.2973 79.8359 69.2984 79.8344C69.2996 79.8328 69.3008 79.8313 69.3019 79.8297C69.3031 79.8282 69.3042 79.8266 69.3054 79.8251C69.3065 79.8235 69.3077 79.822 69.3088 79.8204C69.31 79.8189 69.3112 79.8173 69.3123 79.8158C69.3135 79.8142 69.3146 79.8127 69.3158 79.8111C69.3169 79.8096 69.3181 79.808 69.3192 79.8065C69.3204 79.805 69.3216 79.8034 69.3227 79.8019C69.3239 79.8003 69.325 79.7988 69.3262 79.7972C69.3273 79.7957 69.3285 79.7941 69.3296 79.7926C69.3308 79.791 69.3319 79.7895 69.3331 79.7879C69.3343 79.7864 69.3354 79.7848 69.3366 79.7833C69.3377 79.7817 69.3389 79.7802 69.34 79.7786C69.3412 79.7771 69.3423 79.7756 69.3435 79.774C69.3446 79.7725 69.3458 79.7709 69.347 79.7694C69.3481 79.7678 69.3493 79.7663 69.3504 79.7647C69.3516 79.7632 69.3527 79.7616 69.3539 79.7601C69.355 79.7585 69.3562 79.757 69.3574 79.7554C69.3585 79.7539 69.3597 79.7523 69.3608 79.7508C69.362 79.7492 69.3631 79.7477 69.3643 79.7461C69.3654 79.7446 69.3666 79.7431 69.3678 79.7415C69.3689 79.74 69.3701 79.7384 69.3712 79.7369C69.3724 79.7353 69.3735 79.7338 69.3747 79.7322C69.3758 79.7307 69.377 79.7291 69.3781 79.7276C69.3793 79.726 69.3805 79.7245 69.3816 79.7229C69.3828 79.7214 69.3839 79.7198 69.3851 79.7183C69.3862 79.7167 69.3874 79.7152 69.3885 79.7137C69.3897 79.7121 69.3909 79.7106 69.392 79.709C69.3932 79.7075 69.3943 79.7059 69.3955 79.7044C69.3966 79.7028 69.3978 79.7013 69.3989 79.6997C69.4001 79.6982 69.4012 79.6966 69.4024 79.6951C69.4036 79.6935 69.4047 79.692 69.4059 79.6904C69.407 79.6889 69.4082 79.6873 69.4093 79.6858C69.4105 79.6842 69.4116 79.6827 69.4128 79.6812C69.414 79.6796 69.4151 79.6781 69.4163 79.6765C69.4174 79.675 69.4186 79.6734 69.4197 79.6719C69.4209 79.6703 69.422 79.6688 69.4232 79.6672C69.4243 79.6657 69.4255 79.6641 69.4267 79.6626C69.4278 79.661 69.429 79.6595 69.4301 79.6579C69.4313 79.6564 69.4324 79.6548 69.4336 79.6533C69.4347 79.6518 69.4359 79.6502 69.4371 79.6487C69.4382 79.6471 69.4394 79.6456 69.4405 79.644C69.4417 79.6425 69.4428 79.6409 69.444 79.6394C69.4451 79.6378 69.4463 79.6363 69.4474 79.6347C69.4486 79.6332 69.4498 79.6316 69.4509 79.6301C69.4521 79.6285 69.4532 79.627 69.4544 79.6254C69.4555 79.6239 69.4567 79.6224 69.4578 79.6208C69.459 79.6193 69.4602 79.6177 69.4613 79.6162C69.4625 79.6146 69.4636 79.6131 69.4648 79.6115C69.4659 79.61 69.4671 79.6084 69.4682 79.6069C69.4694 79.6053 69.4705 79.6038 69.4717 79.6022C69.4729 79.6007 69.474 79.5991 69.4752 79.5976C69.4763 79.596 69.4775 79.5945 69.4786 79.593C69.4798 79.5914 69.4809 79.5899 69.4821 79.5883C69.4833 79.5868 69.4844 79.5852 69.4856 79.5837C69.4867 79.5821 69.4879 79.5806 69.489 79.579C69.4902 79.5775 69.4913 79.5759 69.4925 79.5744C69.4936 79.5728 69.4948 79.5713 69.496 79.5697C69.4971 79.5682 69.4983 79.5666 69.4994 79.5651C69.5006 79.5635 69.5017 79.562 69.5029 79.5605C69.504 79.5589 69.5052 79.5574 69.5064 79.5558C69.5075 79.5543 69.5087 79.5527 69.5098 79.5512C69.511 79.5496 69.5121 79.5481 69.5133 79.5465C69.5144 79.545 69.5156 79.5434 69.5167 79.5419C69.5179 79.5403 69.5191 79.5388 69.5202 79.5372C69.5214 79.5357 69.5225 79.5341 69.5237 79.5326C69.5248 79.5311 69.526 79.5295 69.5271 79.528C69.5283 79.5264 69.5295 79.5249 69.5306 79.5233C69.5318 79.5218 69.5329 79.5202 69.5341 79.5187C69.5352 79.5171 69.5364 79.5156 69.5375 79.514C69.5387 79.5125 69.5398 79.5109 69.541 79.5094C69.5422 79.5078 69.5433 79.5063 69.5445 79.5047C69.5456 79.5032 69.5468 79.5016 69.5479 79.5001C69.5491 79.4986 69.5502 79.497 69.5514 79.4955C69.5526 79.4939 69.5537 79.4924 69.5549 79.4908C69.556 79.4893 69.5572 79.4877 69.5583 79.4862C69.5595 79.4846 69.5606 79.4831 69.5618 79.4815C69.5629 79.48 69.5641 79.4784 69.5653 79.4769C69.5664 79.4753 69.5676 79.4738 69.5687 79.4722C69.5699 79.4707 69.571 79.4692 69.5722 79.4676C69.5733 79.4661 69.5745 79.4645 69.5757 79.463C69.5768 79.4614 69.578 79.4599 69.5791 79.4583C69.5803 79.4568 69.5814 79.4552 69.5826 79.4537C69.5837 79.4521 69.5849 79.4506 69.5861 79.449C69.5872 79.4475 69.5884 79.4459 69.5895 79.4444C69.5907 79.4428 69.5918 79.4413 69.593 79.4397C69.5941 79.4382 69.5953 79.4367 69.5964 79.4351C69.5976 79.4336 69.5988 79.432 69.5999 79.4305C69.6011 79.4289 69.6022 79.4274 69.6034 79.4258C69.6045 79.4243 69.6057 79.4227 69.6068 79.4212C69.608 79.4196 69.6092 79.4181 69.6103 79.4165C69.6115 79.415 69.6126 79.4134 69.6138 79.4119C69.6149 79.4103 69.6161 79.4088 69.6172 79.4073C69.6184 79.4057 69.6195 79.4042 69.6207 79.4026C69.6219 79.4011 69.623 79.3995 69.6242 79.398C69.6253 79.3964 69.6265 79.3949 69.6276 79.3933C69.6288 79.3918 69.6299 79.3902 69.6311 79.3887C69.6323 79.3871 69.6334 79.3856 69.6346 79.384C69.6357 79.3825 69.6369 79.3809 69.638 79.3794C69.6392 79.3779 69.6403 79.3763 69.6415 79.3748C69.6426 79.3732 69.6438 79.3717 69.645 79.3701C69.6461 79.3686 69.6473 79.367 69.6484 79.3655C69.6496 79.3639 69.6507 79.3624 69.6519 79.3608C69.653 79.3593 69.6542 79.3577 69.6554 79.3562C69.6565 79.3546 69.6577 79.3531 69.6588 79.3515C69.66 79.35 69.6611 79.3485 69.6623 79.3469C69.6634 79.3454 69.6646 79.3438 69.6657 79.3423C69.6669 79.3407 69.6681 79.3392 69.6692 79.3376C69.6704 79.3361 69.6715 79.3345 69.6727 79.333C69.6738 79.3314 69.675 79.3299 69.6761 79.3283C69.6773 79.3268 69.6785 79.3252 69.6796 79.3237C69.6808 79.3221 69.6819 79.3206 69.6831 79.319C69.6842 79.3175 69.6854 79.316 69.6865 79.3144C69.6877 79.3129 69.6888 79.3113 69.69 79.3098C69.6912 79.3082 69.6923 79.3067 69.6935 79.3051C69.6946 79.3036 69.6958 79.302 69.6969 79.3005C69.6981 79.2989 69.6992 79.2974 69.7004 79.2958C69.7016 79.2943 69.7027 79.2927 69.7039 79.2912C69.705 79.2896 69.7062 79.2881 69.7073 79.2865C69.7085 79.285 69.7096 79.2835 69.7108 79.2819C69.7119 79.2804 69.7131 79.2788 69.7143 79.2773C69.7154 79.2757 69.7166 79.2742 69.7177 79.2726C69.7189 79.2711 69.72 79.2695 69.7212 79.268C69.7223 79.2664 69.7235 79.2649 69.7247 79.2633C69.7258 79.2618 69.727 79.2602 69.7281 79.2587C69.7293 79.2571 69.7304 79.2556 69.7316 79.2541C69.7327 79.2525 69.7339 79.251 69.735 79.2494C69.7362 79.2479 69.7374 79.2463 69.7385 79.2448C69.7397 79.2432 69.7408 79.2417 69.742 79.2401C69.7431 79.2386 69.7443 79.237 69.7454 79.2355C69.7466 79.2339 69.7478 79.2324 69.7489 79.2308C69.7501 79.2293 69.7512 79.2277 69.7524 79.2262C69.7535 79.2247 69.7547 79.2231 69.7558 79.2216C69.757 79.22 69.7581 79.2185 69.7593 79.2169C69.7605 79.2154 69.7616 79.2138 69.7628 79.2123C69.7639 79.2107 69.7651 79.2092 69.7662 79.2076C69.7674 79.2061 69.7685 79.2045 69.7697 79.203C69.7709 79.2014 69.772 79.1999 69.7732 79.1983C69.7743 79.1968 69.7755 79.1952 69.7766 79.1937C69.7778 79.1922 69.7789 79.1906 69.7801 79.1891C69.7812 79.1875 69.7824 79.186 69.7836 79.1844C69.7847 79.1829 69.7859 79.1813 69.787 79.1798C69.7882 79.1782 69.7893 79.1767 69.7905 79.1751C69.7916 79.1736 69.7928 79.172 69.794 79.1705C69.7951 79.1689 69.7963 79.1674 69.7974 79.1658C69.7986 79.1643 69.7997 79.1628 69.8009 79.1612C69.802 79.1597 69.8032 79.1581 69.8043 79.1566C69.8055 79.155 69.8067 79.1535 69.8078 79.1519C69.809 79.1504 69.8101 79.1488 69.8113 79.1473C69.8124 79.1457 69.8136 79.1442 69.8147 79.1426C69.8159 79.1411 69.8171 79.1395 69.8182 79.138C69.8194 79.1364 69.8205 79.1349 69.8217 79.1334C69.8228 79.1318 69.824 79.1303 69.8251 79.1287C69.8263 79.1272 69.8274 79.1256 69.8286 79.1241C69.8298 79.1225 69.8309 79.121 69.8321 79.1194C69.8332 79.1179 69.8344 79.1163 69.8355 79.1148C69.8367 79.1132 69.8378 79.1117 69.839 79.1101C69.8402 79.1086 69.8413 79.107 69.8425 79.1055C69.8436 79.1039 69.8448 79.1024 69.8459 79.1009C69.8471 79.0993 69.8482 79.0978 69.8494 79.0962C69.8506 79.0947 69.8517 79.0931 69.8529 79.0916C69.854 79.09 69.8552 79.0885 69.8563 79.0869C69.8575 79.0854 69.8586 79.0838 69.8598 79.0823C69.8609 79.0807 69.8621 79.0792 69.8633 79.0776C69.8644 79.0761 69.8656 79.0745 69.8667 79.073C69.8679 79.0715 69.869 79.0699 69.8702 79.0684C69.8713 79.0668 69.8725 79.0653 69.8737 79.0637C69.8748 79.0622 69.876 79.0606 69.8771 79.0591C69.8783 79.0575 69.8794 79.056 69.8806 79.0544C69.8817 79.0529 69.8829 79.0513 69.884 79.0498C69.8852 79.0482 69.8864 79.0467 69.8875 79.0451C69.8887 79.0436 69.8898 79.042 69.891 79.0405C69.8921 79.039 69.8933 79.0374 69.8944 79.0359C69.8956 79.0343 69.8968 79.0328 69.8979 79.0312C69.8991 79.0297 69.9002 79.0281 69.9014 79.0266C69.9025 79.025 69.9037 79.0235 69.9048 79.0219C69.906 79.0204 69.9071 79.0188 69.9083 79.0173C69.9095 79.0157 69.9106 79.0142 69.9118 79.0126C69.9129 79.0111 69.9141 79.0096 69.9152 79.008C69.9164 79.0065 69.9175 79.0049 69.9187 79.0034C69.9199 79.0018 69.921 79.0003 69.9222 78.9987C69.9233 78.9972 69.9245 78.9956 69.9256 78.9941C69.9268 78.9925 69.9279 78.991 69.9291 78.9894C69.9302 78.9879 69.9314 78.9863 69.9326 78.9848C69.9337 78.9832 69.9349 78.9817 69.936 78.9801C69.9372 78.9786 69.9383 78.9771 69.9395 78.9755C69.9406 78.974 69.9418 78.9724 69.943 78.9709C69.9441 78.9693 69.9453 78.9678 69.9464 78.9662C69.9476 78.9647 69.9487 78.9631 69.9499 78.9616C69.951 78.96 69.9522 78.9585 69.9533 78.9569C69.9545 78.9554 69.9557 78.9538 69.9568 78.9523C69.958 78.9507 69.9591 78.9492 69.9603 78.9477C69.9614 78.9461 69.9626 78.9446 69.9637 78.943C69.9649 78.9415 69.9661 78.9399 69.9672 78.9384C69.9684 78.9368 69.9695 78.9353 69.9707 78.9337C69.9718 78.9322 69.973 78.9306 69.9741 78.9291C69.9753 78.9275 69.9764 78.926 69.9776 78.9244C69.9788 78.9229 69.9799 78.9213 69.9811 78.9198C69.9822 78.9183 69.9834 78.9167 69.9845 78.9152C69.9857 78.9136 69.9868 78.9121 69.988 78.9105C69.9892 78.909 69.9903 78.9074 69.9915 78.9059C69.9926 78.9043 69.9938 78.9028 69.9949 78.9012C69.9961 78.8997 69.9972 78.8981 69.9984 78.8966C69.9995 78.895 70.0007 78.8935 70.0019 78.8919C70.003 78.8904 70.0042 78.8889 70.0053 78.8873C70.0065 78.8858 70.0076 78.8842 70.0088 78.8827C70.0099 78.8811 70.0111 78.8796 70.0123 78.878C70.0134 78.8765 70.0146 78.8749 70.0157 78.8734C70.0169 78.8718 70.018 78.8703 70.0192 78.8687C70.0203 78.8672 70.0215 78.8656 70.0226 78.8641C70.0238 78.8625 70.025 78.861 70.0261 78.8594C70.0273 78.8579 70.0284 78.8564 70.0296 78.8548C70.0307 78.8533 70.0319 78.8517 70.033 78.8502C70.0342 78.8486 70.0354 78.8471 70.0365 78.8455C70.0377 78.844 70.0388 78.8424 70.04 78.8409C70.0411 78.8393 70.0423 78.8378 70.0434 78.8362C70.0446 78.8347 70.0457 78.8331 70.0469 78.8316C70.0481 78.83 70.0492 78.8285 70.0504 78.8269C70.0515 78.8254 70.0527 78.8239 70.0538 78.8223C70.055 78.8208 70.0561 78.8192 70.0573 78.8177C70.0585 78.8161 70.0596 78.8146 70.0608 78.813C70.0619 78.8115 70.0631 78.8099 70.0642 78.8084C70.0654 78.8068 70.0665 78.8053 70.0677 78.8037C70.0688 78.8022 70.07 78.8006 70.0712 78.7991C70.0723 78.7975 70.0735 78.796 70.0746 78.7945C70.0758 78.7929 70.0769 78.7914 70.0781 78.7898C70.0792 78.7883 70.0804 78.7867 70.0816 78.7852C70.0827 78.7836 70.0839 78.7821 70.085 78.7805C70.0862 78.779 70.0873 78.7774 70.0885 78.7759C70.0896 78.7743 70.0908 78.7728 70.092 78.7712C70.0931 78.7697 70.0943 78.7681 70.0954 78.7666C70.0966 78.7651 70.0977 78.7635 70.0989 78.762C70.1 78.7604 70.1012 78.7589 70.1023 78.7573C70.1035 78.7558 70.1047 78.7542 70.1058 78.7527C70.107 78.7511 70.1081 78.7496 70.1093 78.748C70.1104 78.7465 70.1116 78.7449 70.1127 78.7434C70.1139 78.7418 70.1151 78.7403 70.1162 78.7387C70.1174 78.7372 70.1185 78.7356 70.1197 78.7341C70.1208 78.7326 70.122 78.731 70.1231 78.7295C70.1243 78.7279 70.1254 78.7264 70.1266 78.7248C70.1278 78.7233 70.1289 78.7217 70.1301 78.7202C70.1312 78.7186 70.1324 78.7171 70.1335 78.7155C70.1347 78.714 70.1358 78.7124 70.137 78.7109C70.1382 78.7093 70.1393 78.7078 70.1405 78.7062C70.1416 78.7047 70.1428 78.7032 70.1439 78.7016C70.1451 78.7001 70.1462 78.6985 70.1474 78.697C70.1485 78.6954 70.1497 78.6939 70.1509 78.6923C70.152 78.6908 70.1532 78.6892 70.1543 78.6877C70.1555 78.6861 70.1566 78.6846 70.1578 78.683C70.1589 78.6815 70.1601 78.6799 70.1613 78.6784C70.1624 78.6768 70.1636 78.6753 70.1647 78.6738C70.1659 78.6722 70.167 78.6707 70.1682 78.6691C70.1693 78.6676 70.1705 78.666 70.1716 78.6645C70.1728 78.6629 70.174 78.6614 70.1751 78.6598C70.1763 78.6583 70.1774 78.6567 70.1786 78.6552C70.1797 78.6536 70.1809 78.6521 70.182 78.6505C70.1832 78.649 70.1844 78.6474 70.1855 78.6459C70.1867 78.6443 70.1878 78.6428 70.189 78.6413C70.1901 78.6397 70.1913 78.6382 70.1924 78.6366C70.1936 78.6351 70.1947 78.6335 70.1959 78.632C70.1971 78.6304 70.1982 78.6289 70.1994 78.6273C70.2005 78.6258 70.2017 78.6242 70.2028 78.6227C70.204 78.6211 70.2051 78.6196 70.2063 78.618C70.2075 78.6165 70.2086 78.6149 70.2098 78.6134C70.2109 78.6118 70.2121 78.6103 70.2132 78.6088C70.2144 78.6072 70.2155 78.6057 70.2167 78.6041C70.2178 78.6026 70.219 78.601 70.2202 78.5995C70.2213 78.5979 70.2225 78.5964 70.2236 78.5948C70.2248 78.5933 70.2259 78.5917 70.2271 78.5902C70.2282 78.5886 70.2294 78.5871 70.2306 78.5855C70.2317 78.584 70.2329 78.5824 70.234 78.5809C70.2352 78.5794 70.2363 78.5778 70.2375 78.5763C70.2386 78.5747 70.2398 78.5732 70.2409 78.5716C70.2421 78.5701 70.2433 78.5685 70.2444 78.567C70.2456 78.5654 70.2467 78.5639 70.2479 78.5623C70.249 78.5608 70.2502 78.5592 70.2513 78.5577C70.2525 78.5561 70.2537 78.5546 70.2548 78.553C70.256 78.5515 70.2571 78.55 70.2583 78.5484C70.2594 78.5469 70.2606 78.5453 70.2617 78.5438C70.2629 78.5422 70.264 78.5407 70.2652 78.5391C70.2664 78.5376 70.2675 78.536 70.2687 78.5345C70.2698 78.5329 70.271 78.5314 70.2721 78.5298C70.2733 78.5283 70.2744 78.5267 70.2756 78.5252C70.2768 78.5236 70.2779 78.5221 70.2791 78.5206C70.2802 78.519 70.2814 78.5175 70.2825 78.5159C70.2837 78.5144 70.2848 78.5128 70.286 78.5113C70.2871 78.5097 70.2883 78.5082 70.2895 78.5066C70.2906 78.5051 70.2918 78.5035 70.2929 78.502C70.2941 78.5004 70.2952 78.4989 70.2964 78.4973C70.2975 78.4958 70.2987 78.4942 70.2999 78.4927C70.301 78.4911 70.3022 78.4896 70.3033 78.4881C70.3045 78.4865 70.3056 78.485 70.3068 78.4834C70.3079 78.4819 70.3091 78.4803 70.3102 78.4788C70.3114 78.4772 70.3126 78.4757 70.3137 78.4741C70.3149 78.4726 70.316 78.471 70.3172 78.4695C70.3183 78.4679 70.3195 78.4664 70.3206 78.4648C70.3218 78.4633 70.323 78.4617 70.3241 78.4602C70.3253 78.4587 70.3264 78.4571 70.3276 78.4556C70.3287 78.454 70.3299 78.4525 70.331 78.4509C70.3322 78.4494 70.3333 78.4478 70.3345 78.4463C70.3357 78.4447 70.3368 78.4432 70.338 78.4416C70.3391 78.4401 70.3403 78.4385 70.3414 78.437C70.3426 78.4354 70.3437 78.4339 70.3449 78.4323C70.3461 78.4308 70.3472 78.4292 70.3484 78.4277C70.3495 78.4262 70.3507 78.4246 70.3518 78.4231C70.353 78.4215 70.3541 78.42 70.3553 78.4184C70.3565 78.4169 70.3576 78.4153 70.3588 78.4138C70.3599 78.4122 70.3611 78.4107 70.3622 78.4091C70.3634 78.4076 70.3645 78.406 70.3657 78.4045C70.3668 78.4029 70.368 78.4014 70.3692 78.3998C70.3703 78.3983 70.3715 78.3968 70.3726 78.3952C70.3738 78.3937 70.3749 78.3921 70.3761 78.3906C70.3772 78.389 70.3784 78.3875 70.3796 78.3859C70.3807 78.3844 70.3819 78.3828 70.383 78.3813C70.3842 78.3797 70.3853 78.3782 70.3865 78.3766C70.3876 78.3751 70.3888 78.3735 70.3899 78.372C70.3911 78.3704 70.3923 78.3689 70.3934 78.3673C70.3946 78.3658 70.3957 78.3643 70.3969 78.3627C70.398 78.3612 70.3992 78.3596 70.4003 78.3581C70.4015 78.3565 70.4027 78.355 70.4038 78.3534C70.405 78.3519 70.4061 78.3503 70.4073 78.3488C70.4084 78.3472 70.4096 78.3457 70.4107 78.3441C70.4119 78.3426 70.413 78.341 70.4142 78.3395C70.4154 78.3379 70.4165 78.3364 70.4177 78.3349C70.4188 78.3333 70.42 78.3318 70.4211 78.3302C70.4223 78.3287 70.4234 78.3271 70.4246 78.3256C70.4258 78.324 70.4269 78.3225 70.4281 78.3209C70.4292 78.3194 70.4304 78.3178 70.4315 78.3163C70.4327 78.3147 70.4338 78.3132 70.435 78.3116C70.4361 78.3101 70.4373 78.3085 70.4385 78.307C70.4396 78.3055 70.4408 78.3039 70.4419 78.3024C70.4431 78.3008 70.4442 78.2993 70.4454 78.2977C70.4465 78.2962 70.4477 78.2946 70.4489 78.2931C70.45 78.2915 70.4512 78.29 70.4523 78.2884C70.4535 78.2869 70.4546 78.2853 70.4558 78.2838C70.4569 78.2822 70.4581 78.2807 70.4592 78.2791C70.4604 78.2776 70.4616 78.276 70.4627 78.2745C70.4639 78.273 70.465 78.2714 70.4662 78.2699C70.4673 78.2683 70.4685 78.2668 70.4696 78.2652C70.4708 78.2637 70.472 78.2621 70.4731 78.2606C70.4743 78.259 70.4754 78.2575 70.4766 78.2559C70.4777 78.2544 70.4789 78.2528 70.48 78.2513C70.4812 78.2497 70.4823 78.2482 70.4835 78.2466C70.4847 78.2451 70.4858 78.2436 70.487 78.242C70.4881 78.2405 70.4893 78.2389 70.4904 78.2374C70.4916 78.2358 70.4927 78.2343 70.4939 78.2327C70.4951 78.2312 70.4962 78.2296 70.4974 78.2281C70.4985 78.2265 70.4997 78.225 70.5008 78.2234C70.502 78.2219 70.5031 78.2203 70.5043 78.2188C70.5054 78.2172 70.5066 78.2157 70.5078 78.2142C70.5089 78.2126 70.5101 78.2111 70.5112 78.2095C70.5124 78.208 70.5135 78.2064 70.5147 78.2049C70.5158 78.2033 70.517 78.2018 70.5182 78.2002C70.5193 78.1987 70.5205 78.1971 70.5216 78.1956C70.5228 78.194 70.5239 78.1925 70.5251 78.1909C70.5262 78.1894 70.5274 78.1878 70.5285 78.1863C70.5297 78.1847 70.5309 78.1832 70.532 78.1817C70.5332 78.1801 70.5343 78.1786 70.5355 78.177C70.5366 78.1755 70.5378 78.1739 70.5389 78.1724C70.5401 78.1708 70.5413 78.1693 70.5424 78.1677C70.5436 78.1662 70.5447 78.1646 70.5459 78.1631C70.547 78.1615 70.5482 78.16 70.5493 78.1584C70.5505 78.1569 70.5516 78.1553 70.5528 78.1538C70.554 78.1522 70.5551 78.1507 70.5563 78.1492C70.5574 78.1476 70.5586 78.1461 70.5597 78.1445C70.5609 78.143 70.562 78.1414 70.5632 78.1399C70.5644 78.1383 70.5655 78.1368 70.5667 78.1352C70.5678 78.1337 70.569 78.1321 70.5701 78.1306C70.5713 78.129 70.5724 78.1275 70.5736 78.1259C70.5748 78.1244 70.5759 78.1228 70.5771 78.1213C70.5782 78.1198 70.5794 78.1182 70.5805 78.1167C70.5817 78.1151 70.5828 78.1136 70.584 78.112C70.5851 78.1105 70.5863 78.1089 70.5875 78.1074C70.5886 78.1058 70.5898 78.1043 70.5909 78.1027C70.5921 78.1012 70.5932 78.0996 70.5944 78.0981C70.5955 78.0965 70.5967 78.095 70.5978 78.0934C70.599 78.0919 70.6002 78.0904 70.6013 78.0888C70.6025 78.0873 70.6036 78.0857 70.6048 78.0842C70.6059 78.0826 70.6071 78.0811 70.6082 78.0795C70.6094 78.078 70.6106 78.0764 70.6117 78.0749C70.6129 78.0733 70.614 78.0718 70.6152 78.0702C70.6163 78.0687 70.6175 78.0671 70.6186 78.0656C70.6198 78.064 70.621 78.0625 70.6221 78.061C70.6233 78.0594 70.6244 78.0579 70.6256 78.0563C70.6267 78.0548 70.6279 78.0532 70.629 78.0517C70.6302 78.0501 70.6313 78.0486 70.6325 78.047C70.6337 78.0455 70.6348 78.0439 70.636 78.0424C70.6371 78.0408 70.6383 78.0393 70.6394 78.0377C70.6406 78.0362 70.6417 78.0346 70.6429 78.0331C70.6441 78.0315 70.6452 78.03 70.6464 78.0285C70.6475 78.0269 70.6487 78.0254 70.6498 78.0238C70.651 78.0223 70.6521 78.0207 70.6533 78.0192C70.6544 78.0176 70.6556 78.0161 70.6568 78.0145C70.6579 78.013 70.6591 78.0114 70.6602 78.0099C70.6614 78.0083 70.6625 78.0068 70.6637 78.0052C70.6648 78.0037 70.666 78.0021 70.6672 78.0006C70.6683 77.9991 70.6695 77.9975 70.6706 77.996C70.6718 77.9944 70.6729 77.9929 70.6741 77.9913C70.6752 77.9898 70.6764 77.9882 70.6775 77.9867C70.6787 77.9851 70.6799 77.9836 70.681 77.982C70.6822 77.9805 70.6833 77.9789 70.6845 77.9774C70.6856 77.9758 70.6868 77.9743 70.6879 77.9727C70.6891 77.9712 70.6903 77.9696 70.6914 77.9681C70.6926 77.9666 70.6937 77.965 70.6949 77.9635C70.696 77.9619 70.6972 77.9604 70.6983 77.9588C70.6995 77.9573 70.7006 77.9557 70.7018 77.9542C70.703 77.9526 70.7041 77.9511 70.7053 77.9495C70.7064 77.948 70.7076 77.9464 70.7087 77.9449C70.7099 77.9433 70.711 77.9418 70.7122 77.9402C70.7134 77.9387 70.7145 77.9372 70.7157 77.9356C70.7168 77.9341 70.718 77.9325 70.7191 77.931C70.7203 77.9294 70.7214 77.9279 70.7226 77.9263C70.7237 77.9248 70.7249 77.9232 70.7261 77.9217C70.7272 77.9201 70.7284 77.9186 70.7295 77.917C70.7307 77.9155 70.7318 77.9139 70.733 77.9124C70.7341 77.9108 70.7353 77.9093 70.7365 77.9077C70.7376 77.9062 70.7388 77.9047 70.7399 77.9031C70.7411 77.9016 70.7422 77.9 70.7434 77.8985C70.7445 77.8969 70.7457 77.8954 70.7468 77.8938C70.748 77.8923 70.7492 77.8907 70.7503 77.8892C70.7515 77.8876 70.7526 77.8861 70.7538 77.8845C70.7549 77.883 70.7561 77.8814 70.7572 77.8799C70.7584 77.8783 70.7596 77.8768 70.7607 77.8753C70.7619 77.8737 70.763 77.8722 70.7642 77.8706C70.7653 77.8691 70.7665 77.8675 70.7676 77.866C70.7688 77.8644 70.7699 77.8629 70.7711 77.8613C70.7723 77.8598 70.7734 77.8582 70.7746 77.8567C70.7757 77.8551 70.7769 77.8536 70.778 77.852C70.7792 77.8505 70.7803 77.8489 70.7815 77.8474C70.7827 77.8459 70.7838 77.8443 70.785 77.8428C70.7861 77.8412 70.7873 77.8397 70.7884 77.8381C70.7896 77.8366 70.7907 77.835 70.7919 77.8335C70.793 77.8319 70.7942 77.8304 70.7954 77.8288C70.7965 77.8273 70.7977 77.8257 70.7988 77.8242C70.8 77.8226 70.8011 77.8211 70.8023 77.8195C70.8034 77.818 70.8046 77.8165 70.8058 77.8149C70.8069 77.8134 70.8081 77.8118 70.8092 77.8103C70.8104 77.8087 70.8115 77.8072 70.8127 77.8056C70.8138 77.8041 70.815 77.8025 70.8161 77.801C70.8173 77.7994 70.8185 77.7979 70.8196 77.7963L67.6104 75.4028ZM65.8362 77.7797L62.6452 75.362C62.6846 75.31 62.663 75.3445 62.5158 75.4993C62.3838 75.638 62.1965 75.8259 61.9437 76.0691L64.722 78.9511L67.5003 81.8331C68.0496 81.3046 68.6313 80.7197 69.0273 80.1974L65.8362 77.7797ZM64.722 78.9511L61.9437 76.0691C61.2998 76.6887 60.7093 77.3141 60.1829 77.9457L63.2597 80.5071L66.3364 83.0685C66.6453 82.698 67.0297 82.286 67.5003 81.8331L64.722 78.9511ZM63.2597 80.5071L60.1829 77.9457C59.6248 78.6153 58.6698 79.9181 58.6176 81.656L62.6175 81.7824L66.6174 81.9088C66.6 82.4885 66.4264 82.8738 66.3612 83.0033C66.2918 83.1412 66.256 83.165 66.3364 83.0685L63.2597 80.5071ZM62.6175 81.7824L58.6176 81.656C58.5889 82.6092 58.8745 83.7589 59.7557 84.7099C60.5536 85.571 61.4939 85.8915 62.0691 86.0181C63.1204 86.2496 64.1162 86.0869 64.6429 85.985L63.8762 82.0596L63.1096 78.1341C62.7866 78.1966 63.1478 78.0699 63.7795 78.209C64.1449 78.2895 64.9291 78.5317 65.6247 79.2824C66.4037 80.1231 66.6408 81.1303 66.6174 81.9088L62.6175 81.7824ZM63.8762 82.0596L64.5043 86.0093C65.6437 85.8302 66.715 85.6071 67.6157 85.3052L66.3377 81.5143L65.0598 77.7233C64.7738 77.8192 64.2041 77.9596 63.2481 78.1099L63.8762 82.0596ZM66.3377 81.5143L67.6157 85.3052C68.0686 85.1534 68.765 84.9538 69.7471 84.7067L68.7638 80.8294L67.7805 76.9522C66.7145 77.2205 65.7935 77.4774 65.0598 77.7233L66.3377 81.5143ZM68.7638 80.8294L69.7471 84.7067C71.0071 84.3895 72.2396 84.0535 73.4446 83.6985L72.307 79.8633L71.1694 76.0282C70.0706 76.352 68.941 76.66 67.7805 76.9522L68.7638 80.8294ZM72.307 79.8633L73.4446 83.6985C74.4429 83.4043 75.4566 83.1706 76.4867 82.9972L75.8158 79.0544L75.145 75.1117C73.8004 75.338 72.475 75.6435 71.1694 76.0282L72.307 79.8633ZM75.8158 79.0544L76.4083 83.0096C77.0394 82.9162 77.6893 82.7819 78.353 82.6148L77.3696 78.7376L76.3863 74.8603C75.9328 74.9745 75.5469 75.0514 75.2234 75.0993L75.8158 79.0544ZM77.3696 78.7376L78.6717 82.5204C79.0086 82.4051 79.3517 82.3187 79.7032 82.2607L79.0454 78.3158L78.3876 74.3709C77.5983 74.501 76.8242 74.6959 76.0676 74.9548L77.3696 78.7376ZM79.0454 78.3158L80.0287 82.1931C80.2606 82.1347 80.4588 82.1151 80.6324 82.1185L80.7044 78.121L80.7763 74.1235C79.8551 74.1054 78.9473 74.2157 78.062 74.4386L79.0454 78.3158ZM80.7044 78.121L80.978 82.1103C80.9181 82.1143 80.8233 82.1129 80.7057 82.0896C80.5868 82.0661 80.474 82.026 80.376 81.976L82.1903 78.4152L84.0046 74.8543C82.871 74.2764 81.6491 74.0501 80.4308 74.1316L80.7044 78.121ZM82.1903 78.4152L80.376 81.976C80.2406 81.907 80.1386 81.8285 80.0705 81.7638C80.005 81.7016 79.9842 81.6651 79.9955 81.6826L83.3645 79.5303L86.7335 77.378C86.095 76.3818 85.2047 75.4662 84.0046 74.8543L82.1903 78.4152ZM83.3645 79.5303L79.9955 81.6826C80.0678 81.7954 80.1542 81.9721 80.2249 82.2509L84.104 81.2746L87.983 80.2982C87.7233 79.2743 87.3168 78.2881 86.7335 77.378L83.3645 79.5303ZM84.104 81.2746L80.3118 82.5454C80.3792 82.7453 80.4185 82.9595 80.4237 83.2038L84.4245 83.1243L88.4253 83.0448C88.403 82.009 88.2287 80.9902 87.8961 80.0037L84.104 81.2746ZM84.4245 83.1243L80.4228 83.1311C80.423 83.1792 80.4144 82.9268 80.6244 82.5748L84.0626 84.626L87.5008 86.6773C88.1973 85.5099 88.43 84.2563 88.4262 83.1175L84.4245 83.1243ZM84.0626 84.626L80.4872 82.8245C80.4937 82.8117 80.557 82.6968 80.7125 82.5697C80.872 82.4394 81.0272 82.379 81.1104 82.358L82.0938 86.2353L83.0771 90.1125C85.1427 89.5926 86.7151 88.2602 87.6379 86.4275L84.0626 84.626ZM82.0938 86.2353L81.3157 82.3121C80.3586 82.5001 79.4459 82.7027 78.5791 82.9209L79.5625 86.7981L80.5458 90.6754C81.2617 90.4952 82.0365 90.3226 82.8719 90.1585L82.0938 86.2353ZM79.5625 86.7981L78.5791 82.9209L53.5129 89.23L54.4963 93.1072L55.4796 96.9845L80.5458 90.6754L79.5625 86.7981ZM54.4963 93.1072L53.5129 89.23C52.9209 89.379 52.3071 89.5648 51.6758 89.7809L52.9779 93.5636L54.28 97.3464C54.7422 97.1882 55.1407 97.0698 55.4796 96.9845L54.4963 93.1072ZM52.9779 93.5636L51.6474 89.7907C51.6136 89.8026 51.6163 89.7983 51.6523 89.793C51.6896 89.7875 51.7543 89.7821 51.8398 89.7885L51.546 93.7755L51.2523 97.7626C52.3402 97.8443 53.3722 97.6648 54.3084 97.3366L52.9779 93.5636ZM51.546 93.7755L51.6368 89.7784C51.6468 89.7787 51.7475 89.7814 51.9109 89.8224C52.0778 89.8643 52.3309 89.9515 52.6148 90.1315C53.2787 90.5522 53.6822 91.1992 53.832 91.7895L49.9529 92.7658L46.0739 93.7422C46.3888 94.9839 47.1405 96.1248 48.3354 96.8821C49.4234 97.5717 50.5744 97.7513 51.4553 97.7726L51.546 93.7755ZM49.9529 92.7658L53.8922 92.0682C53.7557 91.3054 53.5873 90.5319 53.3885 89.748L49.5095 90.7243L45.6304 91.7007C45.7856 92.3126 45.9129 92.9001 46.0137 93.4635L49.9529 92.7658ZM49.5095 90.7243L53.3885 89.748C53.2586 89.2359 53.2709 88.8034 53.3889 88.3791L49.5331 87.3031L45.6773 86.2271C45.1738 88.0381 45.1703 89.8864 45.6304 91.7007L49.5095 90.7243ZM49.5331 87.3031L53.4094 88.3026C53.6119 87.514 53.925 86.7613 54.358 86.0355L50.9198 83.9843L47.4816 81.933C46.6637 83.3039 46.0523 84.7638 45.6569 86.3036L49.5331 87.3031ZM50.9198 83.9843L54.358 86.0355C54.9281 85.0799 55.551 84.179 56.2262 83.331L53.0932 80.8386L49.9602 78.3462C49.058 79.4792 48.2319 80.6754 47.4816 81.933L50.9198 83.9843ZM53.0932 80.8386L56.2262 83.331C57.0467 82.3006 57.8072 81.3046 58.5063 80.3433L55.2676 77.9897L52.0288 75.6362C51.4061 76.4925 50.7171 77.3957 49.9602 78.3462L53.0932 80.8386ZM55.2676 77.9897L58.5742 80.2469C59.4559 78.9558 60.4318 77.6329 61.5039 76.2782L58.3634 73.7952L55.2229 71.3123C54.0449 72.8008 52.9569 74.2742 51.9609 75.7326L55.2676 77.9897ZM58.3634 73.7952L61.5039 76.2782C62.6688 74.8063 63.7654 73.3474 64.793 71.9016L61.5291 69.5831L58.2651 67.2647C57.3219 68.5918 56.3081 69.941 55.2229 71.3123L58.3634 73.7952ZM61.5291 69.5831L64.7611 71.9458C66.0988 70.1172 67.2337 68.4322 68.1487 66.8986L64.7105 64.8474L61.2723 62.7961C60.5193 64.0582 59.5334 65.5304 58.297 67.2205L61.5291 69.5831ZM64.7105 64.8474L68.1062 66.9682C69.0763 65.4152 69.8699 63.9091 70.4349 62.463L66.7069 61.0039L62.9788 59.5447C62.643 60.4042 62.1057 61.4605 61.3148 62.7265L64.7105 64.8474ZM66.7069 61.0039L70.4349 62.463C70.9942 61.0315 71.3737 59.5762 71.5034 58.1151L67.5173 57.7558L63.5312 57.3965C63.4811 57.9605 63.3204 58.6706 62.9788 59.5447L66.7069 61.0039ZM67.5173 57.7558L71.5082 58.0557C71.619 56.5515 71.4792 55.0561 71.1062 53.5857L67.2272 54.562L63.3482 55.5383C63.5181 56.2082 63.5716 56.842 63.5264 57.456L67.5173 57.7558ZM67.2272 54.562L71.1062 53.5857C70.2942 50.3838 68.5241 47.6371 65.4883 46.0982L63.6821 49.6632L61.876 53.2282C62.3634 53.4752 62.9567 53.9945 63.3482 55.5383L67.2272 54.562ZM63.6821 49.6632L65.5525 46.1314C62.7728 44.6587 59.7292 44.4545 56.6872 45.2201L57.6706 49.0974L58.6539 52.9746C60.0805 52.6155 61.0447 52.7885 61.8118 53.1949L63.6821 49.6632ZM57.6706 49.0974L56.6872 45.2201C54.4827 45.775 52.489 46.7843 50.7531 48.2392L53.3278 51.3041L55.9025 54.369C56.6986 53.7017 57.6 53.2399 58.6539 52.9746L57.6706 49.0974ZM53.3278 51.3041L50.7135 48.2728C48.957 49.7844 47.6754 51.6735 46.864 53.8561L50.6155 55.2536L54.367 56.6511C54.7331 55.6665 55.2597 54.9226 55.9421 54.3354L53.3278 51.3041ZM50.6155 55.2536L46.7392 54.2541C46.5771 54.8853 46.4226 55.5371 46.2755 56.209L50.1847 57.0697L54.094 57.9304C54.2222 57.345 54.3549 56.786 54.4917 56.2531L50.6155 55.2536ZM50.1847 57.0697L46.2465 56.3541C46.1876 56.6804 46.0984 57.0023 45.9768 57.3225L49.7186 58.7461L53.4603 60.1698C53.7543 59.3954 53.976 58.5997 54.123 57.7853L50.1847 57.0697Z" fill="black" mask="url(#path-4-outside-1_67_171)"/>
<defs>
<filter id="filter0_dg_67_171" x="2.34912" y="1.0708" width="124.301" height="138.859" filterUnits="userSpaceOnUse" color-interpolation-filters="sRGB">
<feFlood flood-opacity="0" result="BackgroundImageFix"/>
<feColorMatrix in="SourceAlpha" type="matrix" values="0 0 0 0 0 0 0 0 0 0 0 0 0 0 0 0 0 0 127 0" result="hardAlpha"/>
<feOffset dx="6" dy="6"/>
<feComposite in2="hardAlpha" operator="out"/>
<feColorMatrix type="matrix" values="0 0 0 0 0 0 0 0 0 0 0 0 0 0 0 0 0 0 1 0"/>
<feBlend mode="normal" in2="BackgroundImageFix" result="effect1_dropShadow_67_171"/>
<feBlend mode="normal" in="SourceGraphic" in2="effect1_dropShadow_67_171" result="shape"/>
<feTurbulence type="fractalNoise" baseFrequency="0.01587301678955555 0.01587301678955555" numOctaves="3" seed="6810" />
<feDisplacementMap in="shape" scale="6" xChannelSelector="R" yChannelSelector="G" result="displacedImage" width="100%" height="100%" />
<feMerge result="effect2_texture_67_171">
<feMergeNode in="displacedImage"/>
</feMerge>
</filter>
<filter id="filter1_g_67_171" x="11.563" y="11.5977" width="102.075" height="114.416" filterUnits="userSpaceOnUse" color-interpolation-filters="sRGB">
<feFlood flood-opacity="0" result="BackgroundImageFix"/>
<feBlend mode="normal" in="SourceGraphic" in2="BackgroundImageFix" result="shape"/>
<feTurbulence type="fractalNoise" baseFrequency="0.01587301678955555 0.01587301678955555" numOctaves="3" seed="6810" />
<feDisplacementMap in="shape" scale="6" xChannelSelector="R" yChannelSelector="G" result="displacedImage" width="100%" height="100%" />
<feMerge result="effect1_texture_67_171">
<feMergeNode in="displacedImage"/>
</feMerge>
</filter>
</defs>
</svg>
