<svg width="348" height="453" viewBox="0 0 348 453" fill="none" xmlns="http://www.w3.org/2000/svg">
<g clip-path="url(#clip0_73_56528)">
<path d="M32.0622 251.356C19.5352 249.71 8.95932 241.211 4.75065 229.406C0.725782 218.114 3.10582 205.446 10.9576 196.277C7.67739 201.276 8.045 207.347 11.3723 210.771C14.2331 213.719 18.3004 213.7 19.2336 213.671C18.7811 207.568 18.7623 195.985 24.201 183.024C31.0772 166.643 42.6899 157.569 47.7894 154.036C39.8763 164.87 39.8292 171.53 41.1677 175.572C43.0481 181.26 47.9637 182.661 49.8584 188.825C52.5212 197.484 45.8665 206.521 46.1351 206.634C46.3943 206.743 49.01 196.933 56.8948 190.07C61.4428 186.108 68.0975 182.826 70.1382 184.689C72.0847 186.462 67.5838 190.877 67.2397 199.182C66.8297 209.139 72.9 212.219 73.032 221.958C73.0838 225.623 72.3014 231.033 68.0645 237.697" fill="#FF9D33"/>
<path d="M32.067 254.186C31.9445 254.186 31.8219 254.176 31.6947 254.162C18.0271 252.365 6.68301 243.243 2.08788 230.358C-2.27161 218.138 0.306379 204.375 8.81327 194.437C9.78413 193.305 11.4667 193.117 12.659 194.017C13.8514 194.914 14.1436 196.583 13.3236 197.833C10.8917 201.535 10.9294 206.252 13.4037 208.804C14.2473 209.671 15.2794 210.176 16.2503 210.469C16.0147 200.682 17.8433 190.881 21.5948 181.934C28.0468 166.563 38.5237 157.017 46.1823 151.715C47.3181 150.932 48.8545 151.078 49.816 152.069C50.7774 153.059 50.8905 154.597 50.0752 155.715C44.3678 163.525 42.2753 169.911 43.8541 174.689C44.5752 176.864 45.8948 178.288 47.4312 179.939C49.2928 181.938 51.3995 184.207 52.5636 187.999C52.7569 188.622 52.9077 189.24 53.0208 189.857C53.657 189.202 54.3263 188.56 55.0427 187.938C59.0864 184.415 67.8478 178.769 72.047 182.599C74.4318 184.773 73.2724 187.735 72.2497 190.348C71.3495 192.654 70.2231 195.517 70.0676 199.3C69.8838 203.771 71.1704 206.568 72.6597 209.803C74.1301 212.997 75.7938 216.619 75.8645 221.92C75.9446 227.627 74.1254 233.447 70.4587 239.216C69.6198 240.536 67.8713 240.923 66.5564 240.083C65.2368 239.244 64.8503 237.494 65.6892 236.178C68.7526 231.353 70.2749 226.585 70.2137 222C70.1571 217.897 68.8799 215.119 67.5226 212.171C65.9531 208.761 64.1811 204.898 64.4214 199.064C64.6194 194.333 66.0427 190.692 66.99 188.277C67.1361 187.91 67.2916 187.504 67.433 187.127C65.5384 187.631 62.032 189.358 58.7612 192.202C55.7213 194.848 53.5345 197.975 51.9934 200.729C51.0037 203.644 49.717 205.945 49.0336 207.167C48.6425 208.12 48.2513 208.822 47.2568 209.242C46.5546 209.539 45.7534 209.539 45.0559 209.242C44.3113 208.931 43.7316 208.308 43.4676 207.544C43.0812 206.422 43.4535 205.578 43.9201 204.719C43.9342 204.686 43.9484 204.653 43.9578 204.62C44.4244 203.441 45.3104 201.196 46.7526 198.541C47.615 195.857 48.0958 192.683 47.1673 189.659C46.3802 187.108 44.9522 185.57 43.298 183.787C41.5636 181.924 39.603 179.811 38.4955 176.463C37.4398 173.279 37.4445 169.746 38.4955 165.898C34.1878 170.605 29.9792 176.609 26.8215 184.127C22.971 193.296 21.3309 203.446 22.0661 213.468C22.1227 214.237 21.8634 214.996 21.345 215.572C20.8266 216.147 20.1008 216.482 19.3279 216.506C17.4804 216.567 12.8051 216.308 9.35054 212.751C8.36082 211.728 7.57847 210.544 7.0082 209.256C5.11359 215.468 5.189 222.208 7.42294 228.467C11.3017 239.338 20.8879 247.04 32.4393 248.559C33.9899 248.762 35.0786 250.186 34.8759 251.733C34.6874 253.157 33.4715 254.195 32.0764 254.195L32.067 254.186Z" fill="black"/>
<path d="M254.594 324.735C255.513 312.043 259.637 307.001 263.28 304.746C269.209 301.082 276.358 303.27 278.913 299.035C280.722 296.035 279.04 291.771 277.522 288.871C278.894 288.706 283.173 288.376 287.019 291.04C291.586 294.21 293.678 300.322 292.232 306.459C295.375 302.058 298.335 296.252 298.603 289.328C299.207 273.66 285.596 264.232 287.603 261.921C290.483 258.605 325.156 270.349 332.193 298.469C335.812 312.925 330.562 325.48 328.14 330.447C329.403 328.598 337.547 316.83 342.038 318.457C346.086 319.924 345.903 331.838 343.197 340.158C337.65 357.213 319.515 365.306 312.172 368.108" fill="#FF9D33"/>
<path d="M312.163 370.933C311.022 370.933 309.948 370.24 309.519 369.108C308.963 367.646 309.698 366.014 311.154 365.457C320.033 362.075 335.652 354.175 340.497 339.276C343.15 331.116 342.514 322.344 341.062 321.127C339.752 321.155 335.562 324.57 330.463 332.041C329.629 333.267 327.989 333.635 326.707 332.89C325.425 332.145 324.935 330.536 325.585 329.201C328.394 323.447 332.626 311.887 329.436 299.153C325.604 283.838 313.185 274.552 306.125 270.382C299.965 266.741 294.673 265.015 291.628 264.43C291.864 264.755 292.1 265.081 292.326 265.387C295.889 270.241 301.851 278.367 301.422 289.441C301.177 295.771 298.858 302.053 294.527 308.109C293.74 309.208 292.288 309.6 291.058 309.038C289.828 308.477 289.163 307.128 289.474 305.812C290.639 300.87 289.003 295.87 285.402 293.37C284.234 292.559 282.994 292.097 281.83 291.847C282.89 295.285 282.721 298.186 281.33 300.497C279.261 303.926 275.439 304.506 272.065 305.011C269.567 305.388 266.984 305.775 264.76 307.152C260.546 309.755 258.072 315.736 257.407 324.933C257.294 326.49 255.951 327.673 254.382 327.551C252.826 327.438 251.653 326.084 251.766 324.523C252.567 313.411 255.942 305.944 261.786 302.332C265 300.346 268.45 299.827 271.221 299.407C274.054 298.983 275.821 298.662 276.486 297.563C277.31 296.191 276.787 293.568 275.01 290.173C274.577 289.347 274.582 288.366 275.01 287.541C275.444 286.715 276.255 286.159 277.178 286.05C279.606 285.763 284.318 285.72 288.621 288.706C291.313 290.573 293.287 293.219 294.414 296.28C295.22 293.922 295.672 291.564 295.762 289.21C296.115 280.112 291.086 273.259 287.759 268.727C285.341 265.435 283.253 262.586 285.45 260.058C286.901 258.383 289.644 258.1 294.084 259.162C306.903 262.232 329.322 275.429 334.912 297.771C336.741 305.086 336.439 312.015 335.284 317.915C338.183 315.693 340.751 314.981 342.971 315.783C349.984 318.321 348.311 333.475 345.856 341.021C340.28 358.161 322.969 366.995 313.143 370.74C312.813 370.867 312.474 370.924 312.139 370.924L312.163 370.933Z" fill="black"/>
<path d="M240.629 117.591C237.42 115.323 233.027 111.432 231.524 105.583C229.818 98.9517 233.131 94.8814 232.763 86.5332C232.594 82.6421 231.585 76.9021 227.381 69.9689C229.742 69.3558 234.535 68.4643 240.21 69.9689C243.961 70.9641 246.742 72.6432 248.486 73.9025C248.919 71.813 249.362 68.7096 249.108 64.9977C248.571 57.14 245.347 52.9046 244.141 48.8485C242.599 43.6603 243.415 35.548 253.863 22.7568C253.519 27.6337 253.877 34.4584 258.209 39.5287C263.506 45.7309 270.627 44.481 275.383 50.5039C277.739 53.4848 279.95 58.8097 278.06 68.9596C278.823 65.8514 280.199 62.748 282.829 61.6867C290.078 58.7719 305.899 71.7329 308.901 87.3633C311.842 102.673 301.426 115.063 299.588 117.181" fill="#FF9D33"/>
<path d="M240.625 120.421C240.059 120.421 239.489 120.251 238.994 119.902C233.551 116.054 230.12 111.474 228.781 106.286C227.683 102.017 228.371 98.5886 229.036 95.2776C229.549 92.7165 230.082 90.0706 229.936 86.6511C229.719 81.6328 228.046 76.5107 224.964 71.431C224.502 70.6669 224.426 69.7284 224.761 68.8983C225.096 68.0682 225.807 67.4503 226.67 67.2239C229.955 66.3749 235.092 65.6816 240.931 67.2239C242.783 67.7144 244.569 68.3936 246.276 69.252C246.37 67.8889 246.375 66.5306 246.28 65.1864C245.946 60.2718 244.442 56.9089 243.123 53.9328C242.472 52.466 241.855 51.0841 241.426 49.6455C239.06 41.6747 242.411 32.2889 251.672 20.9599C252.45 20.0071 253.76 19.6675 254.905 20.1203C256.05 20.5731 256.771 21.7192 256.682 22.9502C256.229 29.3458 257.464 34.3028 260.353 37.6845C262.545 40.2503 265.207 41.3162 268.026 42.4435C271.179 43.7028 274.747 45.1366 277.598 48.7447C279.794 51.5227 281.085 55.0176 281.467 59.1823C281.566 59.1351 281.67 59.0927 281.769 59.0549C284.795 57.8381 288.631 58.4182 292.868 60.7293C300.291 64.7808 309.34 74.676 311.673 86.8209C314.698 102.574 304.82 115.455 301.719 119.03C300.696 120.209 298.91 120.336 297.732 119.313C296.553 118.289 296.426 116.502 297.449 115.323C300.126 112.238 308.661 101.14 306.116 87.8963C304.217 78.0105 296.652 69.2473 290.158 65.7052C287.57 64.295 285.223 63.7714 283.88 64.3138C282.612 64.8232 281.519 66.7145 280.803 69.6387C280.44 71.1244 278.96 72.0536 277.461 71.7282C275.967 71.4074 274.996 69.95 275.279 68.4455C276.627 61.1962 275.915 55.7534 273.163 52.2632C271.249 49.8389 268.785 48.8532 265.929 47.7071C262.752 46.4336 259.156 44.9951 256.06 41.3728C253.651 38.5571 252.091 35.0574 251.38 30.9211C247.011 37.7175 245.488 43.4575 246.851 48.0419C247.171 49.1267 247.689 50.287 248.288 51.6359C249.725 54.8667 251.521 58.8899 251.926 64.8043C252.143 68.0021 251.917 71.2565 251.252 74.4731C251.059 75.4117 250.399 76.19 249.509 76.539C248.613 76.888 247.605 76.7559 246.827 76.1947C244.588 74.5769 242.119 73.4025 239.484 72.7045C236.633 71.9498 233.979 71.8649 231.755 72.0677C234.093 76.822 235.374 81.6281 235.587 86.4106C235.766 90.5187 235.139 93.641 234.583 96.4001C233.97 99.4517 233.485 101.867 234.257 104.88C235.247 108.734 237.938 112.233 242.255 115.285C243.533 116.186 243.834 117.954 242.934 119.228C242.383 120.006 241.511 120.426 240.62 120.426L240.625 120.421Z" fill="black"/>
<path d="M252.765 111.238C250.96 110.271 244.763 106.658 243.386 99.9181C242.533 95.7581 243.434 89.9899 245.87 89.4286C248.095 88.9145 250.795 92.933 251.389 93.848C253.307 91.4567 255.928 87.6646 257.733 82.5284C261.371 72.1898 258.694 64.9878 261.319 64.0303C264.152 62.9974 270.476 70.2372 272.63 78.109C273.474 81.1983 273.554 83.9198 273.46 85.8394C275.859 85.2923 279.115 84.2782 282.565 82.2501C286.892 79.7032 287.782 77.7553 289.46 78.109C292.858 78.8259 294.866 87.9854 293.231 95.5836C291.911 101.72 288.423 105.88 286.425 107.927" fill="#FEC400"/>
<path d="M252.765 114.068C252.313 114.068 251.856 113.959 251.431 113.733C248.693 112.266 242.161 108.031 240.615 100.489C239.574 95.386 240.596 87.7452 245.229 86.6746C247.487 86.1511 249.575 87.4009 251.295 89.1696C252.869 86.7689 254.132 84.2315 255.06 81.5902C256.842 76.5247 256.988 72.2374 257.096 69.1057C257.21 65.6957 257.323 62.4743 260.348 61.3706C261.272 61.0358 262.78 60.8471 264.736 61.8611C268.902 64.0166 273.568 70.8272 275.354 77.3643C275.779 78.9065 276.061 80.4913 276.203 82.1043C277.928 81.4912 279.577 80.7271 281.123 79.8168C282.777 78.8452 283.875 77.968 284.757 77.2652C286.237 76.0861 287.768 74.8645 290.04 75.3456C291.086 75.5673 292.609 76.2559 293.923 78.284C296.497 82.2552 297.369 89.778 295.992 96.183C294.908 101.216 292.302 105.96 288.442 109.908C287.349 111.026 285.558 111.045 284.441 109.955C283.324 108.861 283.305 107.069 284.394 105.951C287.504 102.767 289.602 98.9752 290.459 94.9898C291.84 88.5753 290.233 82.5854 289.022 81.1044C288.796 81.2742 288.518 81.4959 288.277 81.6846C287.311 82.4533 285.987 83.5146 283.989 84.689C280.953 86.4765 277.621 87.7877 274.082 88.5989C273.219 88.797 272.315 88.5754 271.636 88.0094C270.957 87.4387 270.585 86.585 270.627 85.703C270.74 83.3542 270.495 81.0525 269.897 78.8594C268.384 73.3269 264.835 68.8604 262.832 67.3181C262.79 67.9266 262.766 68.6529 262.743 69.2943C262.629 72.5959 262.464 77.5812 260.391 83.4674C258.864 87.8018 256.573 91.891 253.585 95.6171C253.015 96.3245 252.153 96.7207 251.238 96.6736C250.333 96.6311 249.504 96.1547 249.009 95.3907C248 93.8437 247.119 92.9287 246.568 92.4948C246.026 93.7116 245.587 96.6075 246.148 99.3525C247.213 104.555 252.058 107.654 254.094 108.748C255.47 109.488 255.989 111.2 255.249 112.578C254.74 113.53 253.764 114.073 252.756 114.073L252.765 114.068Z" fill="black"/>
<path d="M234.422 207.87C228.003 197.013 220.42 185.5 211.456 173.704C207.101 167.969 202.737 162.592 198.42 157.555C208.826 151.678 223.517 141.764 237.528 125.874C249.169 112.673 256.521 99.6739 261.117 89.8447C272.508 95.4668 286.336 104.046 299.603 117.177C303.83 121.365 307.535 125.549 310.777 129.6C303.246 141.382 293.311 154.913 280.36 168.737C264.166 186.023 247.963 198.739 234.427 207.875L234.422 207.87Z" fill="#A6B857"/>
<path d="M234.422 210.7C234.215 210.7 234.008 210.676 233.8 210.629C233.042 210.459 232.386 209.978 231.991 209.308C225.072 197.612 217.409 186.207 209.208 175.416C205.075 169.973 200.725 164.582 196.276 159.394C195.724 158.752 195.493 157.894 195.64 157.064C195.786 156.234 196.299 155.507 197.035 155.088C211.532 146.895 224.44 136.439 235.412 123.997C244.763 113.389 252.553 101.494 258.558 88.6417C258.878 87.9531 259.467 87.4249 260.184 87.1702C260.9 86.9155 261.692 86.9674 262.37 87.3023C277.037 94.5468 290.233 103.918 301.592 115.163C305.607 119.139 309.439 123.398 312.983 127.831C313.742 128.779 313.812 130.104 313.157 131.123C304.16 145.197 293.82 158.502 282.424 170.671C268.521 185.509 252.902 198.814 236.006 210.219C235.535 210.535 234.983 210.704 234.427 210.704L234.422 210.7ZM202.766 158.304C206.517 162.771 210.188 167.365 213.704 171.992C221.429 182.156 228.687 192.862 235.309 203.837C250.908 193.055 265.358 180.604 278.291 166.799C288.989 155.38 298.735 142.938 307.28 129.788C304.236 126.095 300.988 122.534 297.604 119.186C287.344 109.026 275.515 100.452 262.408 93.6695C256.357 106.008 248.707 117.459 239.64 127.741C229.003 139.801 216.608 150.074 202.761 158.3L202.766 158.304Z" fill="black"/>
<path d="M252.379 167.713C247.308 167.713 242.208 165.869 238.824 161.587C232.443 153.517 235.7 141.796 242.75 135.915C246.907 132.443 252.713 130.75 258.265 131.382C263.054 131.929 267.144 134.141 269.779 137.617C272.489 141.192 273.483 145.857 272.578 150.748C271.509 156.521 268.012 161.742 263.223 164.714C260.15 166.619 256.272 167.709 252.379 167.709V167.713ZM244.555 138.089L246.365 140.263C241.464 144.353 238.985 152.672 243.254 158.078C247.18 163.044 255.207 163.039 260.235 159.912C263.643 157.799 266.24 153.894 267.008 149.725C267.62 146.418 267.003 143.334 265.264 141.042C263.572 138.806 260.853 137.377 257.615 137.009C253.623 136.556 249.311 137.801 246.36 140.263L244.551 138.089H244.555Z" fill="black"/>
<path d="M81.7227 200.417C82.2552 194.135 85.7947 186.523 89.1691 186.749C91.8838 186.933 94.377 192.187 94.1366 196.687C93.7501 203.922 86.2565 209.945 83.3769 208.695C81.1053 207.709 81.5766 202.144 81.7227 200.413V200.417Z" fill="#FF9D33"/>
<path d="M84.2582 211.7C83.5466 211.7 82.8726 211.568 82.2505 211.294C78.1125 209.497 78.6686 202.965 78.9043 200.177C79.4887 193.282 83.5607 183.537 89.3623 183.924C94.0894 184.245 97.2707 191.008 96.9596 196.838C96.6439 202.762 92.6237 207.813 88.7827 210.195C87.1708 211.195 85.6391 211.7 84.2582 211.7ZM88.9947 189.626C87.6751 190.348 84.9981 195.263 84.541 200.654C84.2676 203.899 84.4939 205.351 84.6824 205.964C86.6241 205.398 91.0543 201.408 91.3135 196.536C91.4926 193.202 89.8478 190.207 88.9947 189.626Z" fill="black"/>
<path d="M263.299 264.266C265.495 262.228 262.384 255.498 259.161 248.527C256.324 242.386 254.575 238.608 252.124 238.589C248.509 238.561 243.825 246.73 245.503 253.498C247.713 262.398 260.433 266.916 263.299 264.266Z" fill="#FF9D33"/>
<path d="M260.692 267.854C259.415 267.854 257.987 267.623 256.437 267.161C250.814 265.482 244.409 260.817 242.76 254.181C241.374 248.602 243.467 242.668 246.153 239.258C247.93 236.999 250.046 235.759 252.11 235.759H252.153C256.394 235.792 258.402 240.14 261.729 247.338C265.749 256.035 268.931 262.907 265.222 266.341C264.138 267.345 262.587 267.85 260.692 267.85V267.854ZM252.049 241.452C251.747 241.584 250.96 242.112 250.051 243.522C248.575 245.819 247.444 249.583 248.246 252.818C249.028 255.969 251.813 258.959 255.692 260.818C258.261 262.049 260.372 262.294 261.225 262.162C261.371 260.053 258.402 253.634 256.587 249.715C254.947 246.163 253.095 242.159 252.044 241.447L252.049 241.452Z" fill="black"/>
<path d="M278.522 2.84861C276.142 2.52317 275.406 7.68301 274.643 13.0268C273.974 17.7338 273.559 20.6345 275.232 22.1155C277.702 24.3039 284.413 23.1342 286.152 18.8139C288.438 13.1353 281.623 3.27309 278.522 2.84861Z" fill="#FF9D33"/>
<path d="M278.701 26.0302C276.58 26.0302 274.685 25.4124 273.361 24.238C270.547 21.7477 271.089 17.9226 271.843 12.6354C272.249 9.79608 272.63 7.12183 273.267 4.99941C274.633 0.452712 277.089 -0.198164 278.903 0.0518103C282.542 0.551758 285.732 5.60784 286.623 7.14541C287.914 9.37159 290.705 15.0691 288.772 19.8799C287.632 22.7145 284.898 24.8936 281.462 25.7048C280.52 25.9265 279.591 26.035 278.701 26.035V26.0302ZM278.804 6.1974C278.229 7.8859 277.753 11.2488 277.442 13.4231C277.075 16.003 276.575 19.5215 277.108 19.9978C277.39 20.2478 278.578 20.5638 280.166 20.1912C281.444 19.8894 282.994 19.0923 283.531 17.7575C284.064 16.4369 283.762 14.2909 282.702 11.8761C281.547 9.23953 279.888 7.16899 278.809 6.1974H278.804Z" fill="black"/>
<path d="M34.8193 245.14C33.8956 244.494 20.6663 235.075 22.6787 230.509C22.9992 229.788 24.2528 227.929 30.9547 228.024C29.899 226.444 26.7413 221.27 27.3681 214.218C28.2023 204.837 35.0832 199.583 36.1955 198.758C37.1852 202.588 39.0657 207.898 42.8172 213.388C44.839 216.35 46.9693 218.718 48.8875 220.567C50.0751 220.062 51.8613 219.157 53.5769 217.529C57.0645 214.233 57.1163 210.983 58.5443 210.903C60.5992 210.79 63.6437 217.36 63.4835 223.864C63.3138 230.778 59.567 235.801 57.7196 237.957" fill="#FEC400"/>
<path d="M34.8193 247.975C34.2584 247.975 33.6929 247.81 33.198 247.46C32.7833 247.168 29.06 244.532 25.7091 241.353C22.4101 238.226 18.2391 233.58 20.1007 229.368C21.0103 227.302 23.0887 226.019 26.4019 225.482C25.153 222.529 24.1491 218.591 24.5592 213.969C25.4546 203.908 32.4157 198.041 34.5271 196.48C35.2812 195.923 36.2662 195.777 37.1522 196.088C38.0382 196.405 38.7075 197.136 38.9431 198.046C40.225 203.003 42.3176 207.63 45.1595 211.79C46.4414 213.667 47.8836 215.454 49.4577 217.115C50.2542 216.638 50.9847 216.091 51.6398 215.469C53.1433 214.049 53.8596 212.625 54.4393 211.483C55.1415 210.096 56.0983 208.2 58.3935 208.073C59.2277 208.026 60.486 208.238 61.7868 209.502C64.4591 212.101 66.4479 218.44 66.3113 223.93C66.1369 231.028 62.7106 236.476 59.8639 239.796C58.8459 240.985 57.0644 241.122 55.8768 240.103C54.6891 239.084 54.5524 237.301 55.5704 236.113C57.8185 233.49 60.5237 229.222 60.6557 223.788C60.7405 220.256 59.7838 217.058 58.8836 215.181C58.1908 216.445 57.187 218.006 55.5186 219.581C53.935 221.076 52.0734 222.284 49.9856 223.166C48.944 223.605 47.7375 223.383 46.9222 222.595C44.5185 220.279 42.3553 217.718 40.4795 214.978C38.1278 211.535 36.2285 207.814 34.8146 203.871C32.8068 206.172 30.6059 209.71 30.1817 214.459C29.6822 220.062 31.9255 224.373 33.3017 226.444C33.8861 227.316 33.9332 228.444 33.4337 229.368C32.9388 230.278 31.9868 230.844 30.9499 230.844C30.9358 230.844 30.9217 230.844 30.9075 230.844C27.0288 230.792 25.6667 231.439 25.2944 231.679C25.4876 233.41 30.144 238.395 36.4311 242.815C37.7083 243.711 38.0194 245.48 37.1239 246.758C36.5725 247.541 35.6959 247.96 34.8051 247.96L34.8193 247.975Z" fill="black"/>
<path d="M8.84631 285.083C16.5002 272.387 24.1823 258.119 31.3884 242.267C34.8901 234.56 38.0242 227.047 40.8331 219.77C52.7098 227.273 71.1422 236.966 95.3809 242.626C115.515 247.328 133.056 247.705 145.781 246.988C146.309 261.921 145.14 281.023 138.952 302.072C136.977 308.784 134.711 314.953 132.326 320.566C115.944 319.33 96.4225 316.576 74.9125 310.859C48.0157 303.714 25.8412 294.012 8.85574 285.083H8.84631Z" fill="#A6B857"/>
<path d="M132.316 323.396C132.246 323.396 132.175 323.396 132.104 323.386C112.574 321.91 93.0809 318.618 74.1773 313.595C51.1215 307.468 28.6972 298.719 7.53135 287.588C6.84325 287.225 6.33425 286.593 6.12217 285.843C5.91009 285.093 6.0232 284.286 6.4238 283.621C14.6762 269.925 22.2122 255.62 28.8103 241.093C32.1377 233.768 35.2954 226.25 38.1891 218.746C38.4955 217.958 39.1364 217.345 39.9376 217.076C40.7388 216.812 41.6202 216.921 42.3365 217.369C58.9261 227.849 76.9862 235.419 96.0171 239.862C112.244 243.649 128.928 245.092 145.616 244.154C146.38 244.107 147.12 244.376 147.681 244.89C148.241 245.404 148.576 246.121 148.6 246.88C149.278 266.053 146.941 284.89 141.657 302.865C139.786 309.223 137.519 315.547 134.923 321.665C134.475 322.716 133.447 323.386 132.321 323.386L132.316 323.396ZM12.8099 283.956C32.8211 294.238 53.9398 302.365 75.6241 308.124C93.5381 312.883 111.989 316.061 130.492 317.58C132.679 312.251 134.607 306.77 136.223 301.271C141.073 284.777 143.359 267.524 143.019 249.95C126.769 250.606 110.533 249.068 94.7258 245.375C76.1897 241.046 58.5444 233.844 42.2234 223.953C39.636 230.5 36.8601 237.037 33.9569 243.428C27.6792 257.237 20.5721 270.854 12.8099 283.947V283.956Z" fill="black"/>
<path d="M81.4823 293.488C77.3396 293.488 73.244 292.46 69.7564 290.451C61.4616 285.678 55.2264 274.231 59.6141 264.062C64.2941 253.224 77.9193 250.158 87.7081 254.091C93.4909 256.417 98.3688 261.378 100.763 267.364C102.818 272.5 102.804 277.83 100.735 282.371C98.6044 287.041 94.4429 290.573 89.0089 292.319C86.5675 293.102 84.0131 293.488 81.4776 293.488H81.4823ZM79.008 258.115C73.1733 258.115 67.1926 260.779 64.8078 266.302C61.7538 273.377 66.3584 281.966 72.5748 285.541C76.7787 287.961 82.4154 288.489 87.2839 286.923C91.1815 285.673 94.1318 283.22 95.5882 280.018C97.0115 276.896 96.9832 273.146 95.508 269.458C93.6794 264.878 89.975 261.095 85.5967 259.336C83.5748 258.525 81.2985 258.11 79.0033 258.11L79.008 258.115Z" fill="black"/>
<path d="M273.719 319.136C274.704 315.773 277.885 313.59 281.184 313.892C284.102 314.156 286.609 316.311 287.391 319.273C290.865 318.245 295.229 316.363 298.981 312.646C308.128 303.572 306.22 290.856 308.911 290.696C311.861 290.521 317.281 305.619 315.532 321.754C314.745 328.989 312.7 334.8 310.98 338.733C324.892 337.781 328.333 339.229 328.776 340.804C329.473 343.299 322.951 347.27 321.329 348.256C316.023 351.487 310.876 352.468 307.671 352.812" fill="#FEC400"/>
<path d="M307.662 355.647C306.234 355.647 305.008 354.567 304.853 353.119C304.688 351.567 305.81 350.171 307.365 350.006C311.918 349.52 316.117 348.119 319.854 345.846C323.059 343.893 324.614 342.568 325.364 341.79C323.78 341.403 319.981 340.96 311.168 341.563C310.179 341.625 309.231 341.177 308.661 340.37C308.091 339.564 307.987 338.512 308.383 337.606C310.659 332.39 312.116 326.956 312.714 321.452C313.902 310.505 311.644 300.827 309.712 296.139C308.779 300.836 307.176 308.491 300.965 314.656C297.581 318.014 293.283 320.481 288.188 321.985C287.457 322.202 286.666 322.113 286.001 321.735C285.337 321.358 284.851 320.731 284.653 319.99C284.177 318.184 282.678 316.863 280.925 316.703C278.941 316.528 277.018 317.91 276.429 319.924C275.991 321.424 274.417 322.282 272.923 321.844C271.424 321.405 270.566 319.834 271.004 318.335C272.362 313.698 276.75 310.642 281.434 311.067C284.545 311.345 287.297 313.132 288.923 315.759C292.09 314.528 294.791 312.807 296.982 310.633C302.082 305.577 303.364 299.077 304.217 294.78C304.9 291.323 305.546 288.059 308.741 287.871C309.604 287.819 310.909 288.05 312.233 289.441C316.329 293.748 319.845 308.204 318.341 322.061C317.842 326.669 316.796 331.225 315.226 335.668C325.99 335.243 330.515 336.526 331.495 340.049C332.386 343.247 329.784 346.426 322.79 350.68C318.337 353.392 313.35 355.057 307.963 355.633C307.86 355.642 307.761 355.652 307.657 355.652L307.662 355.647Z" fill="black"/>
<path d="M230.831 450.17C222.904 437.648 213.582 424.39 202.629 410.853C197.308 404.274 191.987 398.109 186.737 392.346C200.239 382.762 215.802 370.112 231.548 353.727C245.107 339.616 255.838 325.81 264.237 313.566C276.509 320.415 290.233 329.428 304.16 341.29C310.23 346.459 315.707 351.638 320.632 356.68C310.622 370.928 298.34 386.549 283.395 402.548C265.099 422.135 246.992 437.813 230.831 450.165V450.17Z" fill="#A6B857"/>
<path d="M230.831 453C230.666 453 230.501 452.986 230.332 452.958C229.549 452.816 228.866 452.359 228.442 451.684C219.888 438.172 210.462 425.036 200.433 412.637C195.376 406.387 190.064 400.204 184.649 394.256C184.102 393.657 183.843 392.851 183.928 392.049C184.013 391.243 184.442 390.512 185.101 390.045C201.041 378.73 215.981 365.854 229.507 351.775C241.336 339.465 252.238 326.07 261.904 311.973C262.729 310.765 264.336 310.388 265.613 311.1C279.973 319.113 293.556 328.546 305.993 339.14C311.757 344.049 317.361 349.285 322.654 354.709C323.606 355.685 323.728 357.199 322.946 358.317C311.569 374.509 298.957 390.045 285.464 404.491C269.247 421.853 251.446 437.978 232.551 452.425C232.057 452.807 231.449 453.005 230.836 453.005L230.831 453ZM190.96 392.799C195.71 398.096 200.367 403.562 204.825 409.071C214.345 420.839 223.328 433.267 231.552 446.039C249.292 432.267 266.028 416.999 281.331 400.614C294.112 386.932 306.088 372.263 316.956 356.977C312.276 352.275 307.36 347.728 302.327 343.441C290.822 333.64 278.305 324.853 265.094 317.297C255.626 330.872 245.036 343.776 233.588 355.69C220.548 369.259 206.22 381.734 190.964 392.799H190.96Z" fill="black"/>
<path d="M249.754 401.874C244.178 401.874 238.593 399.907 234.734 395.318C227.136 386.286 230.482 372.716 238.377 365.712C243.038 361.576 249.655 359.421 256.074 359.958C261.583 360.416 266.343 362.807 269.477 366.689C272.701 370.683 273.997 375.99 273.13 381.63C272.103 388.314 268.261 394.445 262.856 398.034C259.198 400.463 254.481 401.874 249.754 401.874ZM254.104 365.533C249.683 365.533 245.295 367.132 242.128 369.943C236.345 375.075 233.664 385.262 239.06 391.672C244.023 397.567 253.75 397.284 259.731 393.313C263.77 390.634 266.763 385.823 267.54 380.763C268.163 376.716 267.291 372.98 265.076 370.24C262.922 367.571 259.557 365.92 255.603 365.59C255.103 365.547 254.603 365.528 254.104 365.528V365.533Z" fill="black"/>
</g>
<defs>
<clipPath id="clip0_73_56528">
<rect width="348" height="453" fill="white"/>
</clipPath>
</defs>
</svg>
