<svg width="158" height="61" viewBox="0 0 158 61" fill="none" xmlns="http://www.w3.org/2000/svg">
<g filter="url(#filter0_g_226_10159)">
<rect x="4" y="4" width="150" height="53" rx="26.5" fill="#FEC400"/>
<rect x="7" y="7" width="144" height="47" rx="23.5" stroke="black" stroke-width="6"/>
<path d="M32.632 21.684C32.648 21.796 32.656 21.9 32.656 21.996C32.656 22.092 32.656 22.188 32.656 22.284V23.268L32.512 35.724V35.964C32.512 36.06 32.488 36.204 32.44 36.396C32.424 36.476 32.4 36.564 32.368 36.66C32.336 36.74 32.304 36.828 32.272 36.924C32.192 37.116 32.08 37.26 31.936 37.356C31.808 37.484 31.6 37.572 31.312 37.62C30.864 37.716 30.456 37.676 30.088 37.5C29.88 37.372 29.736 37.212 29.656 37.02C29.624 36.988 29.592 36.94 29.56 36.876C29.56 36.844 29.544 36.796 29.512 36.732C29.48 36.652 29.456 36.572 29.44 36.492C29.424 36.396 29.408 36.3 29.392 36.204C29.392 36.124 29.384 36.044 29.368 35.964C29.368 35.884 29.36 35.804 29.344 35.724C29.312 35.644 29.296 35.58 29.296 35.532C29.296 35.468 29.296 35.396 29.296 35.316C29.328 35.252 29.344 35.132 29.344 34.956L29.368 33.06L29.392 30.036H28.096L23.224 30.06L23.176 35.724V35.964C23.176 36.06 23.152 36.204 23.104 36.396C23.088 36.476 23.064 36.564 23.032 36.66C23 36.74 22.968 36.828 22.936 36.924C22.856 37.116 22.744 37.26 22.6 37.356C22.472 37.484 22.264 37.572 21.976 37.62C21.528 37.716 21.12 37.676 20.752 37.5C20.592 37.404 20.44 37.244 20.296 37.02C20.264 36.956 20.248 36.908 20.248 36.876L20.176 36.732C20.144 36.652 20.12 36.572 20.104 36.492C20.088 36.396 20.072 36.3 20.056 36.204C20.056 36.124 20.048 36.044 20.032 35.964C20.016 35.884 20 35.804 19.984 35.724C19.968 35.596 19.968 35.46 19.984 35.316V34.956L20.008 33.06L20.056 29.532C20.072 29.02 20.08 28.492 20.08 27.948C20.08 27.404 20.08 26.844 20.08 26.268C20.064 25.692 20.056 25.18 20.056 24.732C20.072 24.284 20.096 23.78 20.128 23.22V23.124C20.144 22.964 20.152 22.804 20.152 22.644C20.152 22.468 20.16 22.292 20.176 22.116C20.192 21.956 20.216 21.804 20.248 21.66C20.296 21.5 20.36 21.34 20.44 21.18C20.488 21.052 20.552 20.948 20.632 20.868C20.712 20.772 20.808 20.684 20.92 20.604C21.176 20.476 21.432 20.412 21.688 20.412C21.816 20.412 21.928 20.42 22.024 20.436C22.12 20.436 22.216 20.444 22.312 20.46C22.504 20.476 22.688 20.572 22.864 20.748C22.992 20.86 23.08 20.988 23.128 21.132C23.208 21.34 23.256 21.524 23.272 21.684C23.288 21.796 23.296 21.9 23.296 21.996C23.296 22.092 23.296 22.188 23.296 22.284V23.268L23.248 27.228C23.376 27.228 23.52 27.228 23.68 27.228C23.856 27.228 24.056 27.22 24.28 27.204C25.112 27.204 25.936 27.212 26.752 27.228C27.584 27.244 28.456 27.252 29.368 27.252H29.392C29.392 26.532 29.392 25.844 29.392 25.188C29.408 24.532 29.432 23.844 29.464 23.124C29.464 22.964 29.464 22.804 29.464 22.644C29.48 22.468 29.496 22.292 29.512 22.116C29.528 21.956 29.552 21.804 29.584 21.66C29.632 21.5 29.696 21.34 29.776 21.18C29.808 21.052 29.864 20.948 29.944 20.868C30.04 20.772 30.152 20.684 30.28 20.604C30.504 20.476 30.752 20.412 31.024 20.412C31.152 20.412 31.264 20.42 31.36 20.436C31.472 20.436 31.568 20.444 31.648 20.46C31.872 20.492 32.056 20.588 32.2 20.748C32.328 20.828 32.416 20.956 32.464 21.132C32.496 21.228 32.52 21.324 32.536 21.42C32.568 21.5 32.6 21.588 32.632 21.684ZM37.681 26.652C38.209 26.396 38.761 26.212 39.337 26.1C39.913 25.988 40.481 25.964 41.041 26.028C41.617 26.092 42.169 26.244 42.697 26.484C43.241 26.724 43.737 27.06 44.185 27.492C44.553 27.86 44.873 28.308 45.145 28.836C45.417 29.348 45.617 29.852 45.745 30.348C46.017 31.228 46.057 32.116 45.865 33.012C45.673 33.908 45.345 34.74 44.881 35.508C44.657 35.86 44.377 36.18 44.041 36.468C43.721 36.74 43.377 36.964 43.009 37.14C42.529 37.364 42.009 37.516 41.449 37.596C40.889 37.692 40.345 37.716 39.817 37.668C38.857 37.62 38.009 37.38 37.273 36.948C36.553 36.516 35.969 35.964 35.521 35.292C35.089 34.62 34.801 33.86 34.657 33.012C34.529 32.148 34.585 31.268 34.825 30.372C35.081 29.412 35.449 28.636 35.929 28.044C36.425 27.436 37.009 26.972 37.681 26.652ZM38.401 29.868C38.161 30.092 37.977 30.372 37.849 30.708C37.721 31.044 37.641 31.396 37.609 31.764C37.577 32.116 37.601 32.476 37.681 32.844C37.777 33.196 37.921 33.516 38.113 33.804C38.273 34.044 38.561 34.244 38.977 34.404C39.393 34.564 39.825 34.66 40.273 34.692C40.785 34.724 41.233 34.588 41.617 34.284C42.001 33.964 42.289 33.572 42.481 33.108C42.689 32.644 42.785 32.14 42.769 31.596C42.753 31.052 42.609 30.556 42.337 30.108C42.145 29.788 41.873 29.556 41.521 29.412C41.185 29.252 40.825 29.172 40.441 29.172C40.073 29.156 39.705 29.212 39.337 29.34C38.969 29.452 38.657 29.628 38.401 29.868ZM61.8895 26.7C62.0335 26.908 62.0815 27.236 62.0335 27.684C62.0015 28.116 61.9215 28.588 61.7935 29.1C61.6655 29.596 61.5135 30.092 61.3375 30.588C61.1615 31.068 61.0175 31.468 60.9055 31.788C60.6335 32.524 60.3935 33.212 60.1855 33.852C59.9775 34.492 59.7295 35.196 59.4415 35.964C59.3455 36.188 59.2495 36.412 59.1535 36.636C59.0735 36.86 58.9695 37.06 58.8415 37.236C58.7295 37.412 58.5855 37.556 58.4095 37.668C58.2495 37.78 58.0495 37.836 57.8095 37.836C57.5375 37.836 57.2975 37.74 57.0895 37.548C56.8975 37.356 56.7295 37.116 56.5855 36.828C56.4575 36.54 56.3455 36.236 56.2495 35.916C56.1535 35.596 56.0735 35.316 56.0095 35.076C55.8015 34.372 55.6175 33.732 55.4575 33.156C55.2975 32.564 55.1535 32.036 55.0255 31.572C54.8815 32.036 54.7375 32.54 54.5935 33.084C54.4495 33.628 54.2655 34.244 54.0415 34.932C53.9775 35.172 53.8975 35.468 53.8015 35.82C53.7055 36.156 53.5855 36.476 53.4415 36.78C53.3135 37.084 53.1455 37.34 52.9375 37.548C52.7455 37.772 52.5135 37.868 52.2415 37.836C51.8575 37.82 51.5215 37.668 51.2335 37.38C50.9615 37.076 50.7215 36.716 50.5135 36.3C50.3215 35.884 50.1535 35.452 50.0095 35.004C49.8655 34.556 49.7455 34.164 49.6495 33.828C49.5215 33.396 49.3695 32.916 49.1935 32.388C49.0175 31.86 48.8415 31.324 48.6655 30.78C48.5055 30.22 48.3535 29.668 48.2095 29.124C48.0655 28.564 47.9695 28.052 47.9215 27.588C47.8895 27.284 47.9455 27.004 48.0895 26.748C48.2495 26.492 48.4495 26.316 48.6895 26.22C48.9455 26.108 49.2175 26.084 49.5055 26.148C49.8095 26.212 50.0815 26.404 50.3215 26.724C50.4495 26.884 50.5615 27.084 50.6575 27.324C50.7695 27.564 50.8655 27.828 50.9455 28.116C51.0255 28.388 51.1055 28.668 51.1855 28.956C51.2655 29.244 51.3455 29.524 51.4255 29.796C51.6015 30.404 51.7455 30.884 51.8575 31.236C51.9855 31.572 52.1135 31.924 52.2415 32.292C52.3535 31.924 52.4655 31.572 52.5775 31.236C52.7055 30.884 52.8575 30.404 53.0335 29.796C53.0975 29.604 53.1695 29.388 53.2495 29.148C53.3455 28.892 53.4415 28.652 53.5375 28.428C53.6495 28.204 53.7695 27.996 53.8975 27.804C54.0415 27.596 54.1935 27.444 54.3535 27.348C54.7055 27.108 55.0255 27.052 55.3135 27.18C55.6015 27.292 55.8495 27.492 56.0575 27.78C56.2655 28.068 56.4415 28.404 56.5855 28.788C56.7455 29.156 56.8735 29.492 56.9695 29.796C57.0655 30.116 57.1535 30.396 57.2335 30.636C57.3135 30.86 57.3855 31.068 57.4495 31.26C57.5135 31.452 57.5695 31.636 57.6175 31.812C57.6815 31.988 57.7455 32.172 57.8095 32.364C57.8735 32.172 57.9295 31.988 57.9775 31.812C58.0415 31.636 58.1055 31.452 58.1695 31.26C58.2335 31.068 58.3055 30.86 58.3855 30.636C58.4655 30.396 58.5535 30.116 58.6495 29.796C58.7135 29.588 58.7775 29.348 58.8415 29.076C58.9215 28.804 59.0015 28.532 59.0815 28.26C59.1615 27.972 59.2415 27.7 59.3215 27.444C59.4175 27.188 59.5215 26.972 59.6335 26.796C59.7455 26.62 59.8975 26.476 60.0895 26.364C60.2815 26.236 60.4815 26.164 60.6895 26.148C60.8975 26.116 61.1055 26.14 61.3135 26.22C61.5375 26.3 61.7295 26.46 61.8895 26.7ZM81.4424 26.916C81.5704 27.22 81.5784 27.556 81.4664 27.924C81.3704 28.292 81.1864 28.532 80.9144 28.644C80.7704 28.708 80.5784 28.764 80.3384 28.812C80.0984 28.844 79.8344 28.876 79.5464 28.908C79.2744 28.94 79.0024 28.964 78.7304 28.98C78.4584 28.996 78.2264 29.004 78.0344 29.004C78.0504 29.484 78.0664 29.98 78.0824 30.492C78.0984 30.988 78.1144 31.476 78.1304 31.956C78.1464 32.436 78.1544 32.9 78.1544 33.348C78.1544 33.78 78.1464 34.172 78.1304 34.524C78.1304 34.764 78.1304 35.044 78.1304 35.364C78.1304 35.668 78.1064 35.964 78.0584 36.252C78.0264 36.54 77.9704 36.796 77.8904 37.02C77.8104 37.228 77.6904 37.364 77.5304 37.428C77.0344 37.636 76.5784 37.692 76.1624 37.596C75.7624 37.516 75.4744 37.348 75.2984 37.092C75.1704 36.884 75.0744 36.644 75.0104 36.372C74.9464 36.084 74.8984 35.796 74.8664 35.508C74.8504 35.204 74.8424 34.916 74.8424 34.644C74.8584 34.356 74.8664 34.108 74.8664 33.9C74.8824 33.228 74.8904 32.468 74.8904 31.62C74.9064 30.756 74.9144 29.892 74.9144 29.028H74.5544C74.3624 29.028 74.1144 29.028 73.8104 29.028C73.5224 29.012 73.2264 28.988 72.9224 28.956C72.6344 28.908 72.3624 28.852 72.1064 28.788C71.8504 28.708 71.6664 28.596 71.5544 28.452C71.3784 28.244 71.2664 28.02 71.2184 27.78C71.1864 27.54 71.2024 27.316 71.2664 27.108C71.3464 26.884 71.4664 26.692 71.6264 26.532C71.7864 26.356 71.9704 26.244 72.1784 26.196C72.4664 26.116 72.8744 26.076 73.4024 26.076C73.9304 26.06 74.4264 26.06 74.8904 26.076C74.8744 25.916 74.8664 25.764 74.8664 25.62C74.8664 25.46 74.8584 25.308 74.8424 25.164C74.8264 24.972 74.8184 24.732 74.8184 24.444C74.8184 24.14 74.8344 23.844 74.8664 23.556C74.9144 23.252 74.9864 22.972 75.0824 22.716C75.1784 22.444 75.3144 22.236 75.4904 22.092C75.7304 21.9 75.9704 21.796 76.2104 21.78C76.4664 21.748 76.6984 21.78 76.9064 21.876C77.1304 21.972 77.3144 22.116 77.4584 22.308C77.6184 22.484 77.7304 22.684 77.7944 22.908C77.8424 23.1 77.8824 23.332 77.9144 23.604C77.9464 23.86 77.9624 24.132 77.9624 24.42C77.9784 24.708 77.9864 24.996 77.9864 25.284C77.9864 25.572 77.9864 25.836 77.9864 26.076H78.2264C78.4664 26.076 78.7464 26.068 79.0664 26.052C79.3864 26.036 79.6984 26.044 80.0024 26.076C80.3224 26.108 80.6104 26.188 80.8664 26.316C81.1224 26.428 81.3144 26.628 81.4424 26.916ZM85.2826 26.652C85.8106 26.396 86.3626 26.212 86.9386 26.1C87.5146 25.988 88.0826 25.964 88.6426 26.028C89.2186 26.092 89.7706 26.244 90.2986 26.484C90.8426 26.724 91.3386 27.06 91.7866 27.492C92.1546 27.86 92.4746 28.308 92.7466 28.836C93.0186 29.348 93.2186 29.852 93.3466 30.348C93.6186 31.228 93.6586 32.116 93.4666 33.012C93.2746 33.908 92.9466 34.74 92.4826 35.508C92.2586 35.86 91.9786 36.18 91.6426 36.468C91.3226 36.74 90.9786 36.964 90.6106 37.14C90.1306 37.364 89.6106 37.516 89.0506 37.596C88.4906 37.692 87.9466 37.716 87.4186 37.668C86.4586 37.62 85.6106 37.38 84.8746 36.948C84.1546 36.516 83.5706 35.964 83.1226 35.292C82.6906 34.62 82.4026 33.86 82.2586 33.012C82.1306 32.148 82.1866 31.268 82.4266 30.372C82.6826 29.412 83.0506 28.636 83.5306 28.044C84.0266 27.436 84.6106 26.972 85.2826 26.652ZM86.0026 29.868C85.7626 30.092 85.5786 30.372 85.4506 30.708C85.3226 31.044 85.2426 31.396 85.2106 31.764C85.1786 32.116 85.2026 32.476 85.2826 32.844C85.3786 33.196 85.5226 33.516 85.7146 33.804C85.8746 34.044 86.1626 34.244 86.5786 34.404C86.9946 34.564 87.4266 34.66 87.8746 34.692C88.3866 34.724 88.8346 34.588 89.2186 34.284C89.6026 33.964 89.8906 33.572 90.0826 33.108C90.2906 32.644 90.3866 32.14 90.3706 31.596C90.3546 31.052 90.2106 30.556 89.9386 30.108C89.7466 29.788 89.4746 29.556 89.1226 29.412C88.7866 29.252 88.4266 29.172 88.0426 29.172C87.6746 29.156 87.3066 29.212 86.9386 29.34C86.5706 29.452 86.2586 29.628 86.0026 29.868ZM102.742 22.332C102.774 21.756 102.95 21.292 103.27 20.94C103.606 20.588 104.078 20.492 104.686 20.652C104.974 20.732 105.182 20.852 105.31 21.012C105.454 21.172 105.55 21.364 105.598 21.588C105.662 21.796 105.694 22.028 105.694 22.284C105.694 22.524 105.694 22.764 105.694 23.004V26.316C105.678 26.444 105.67 26.572 105.67 26.7C105.686 26.812 105.694 26.916 105.694 27.012V27.324H106.294C106.47 27.324 106.638 27.324 106.798 27.324C106.974 27.324 107.126 27.316 107.254 27.3C108.134 27.3 108.886 27.428 109.51 27.684C110.15 27.94 110.662 28.3 111.046 28.764C111.446 29.212 111.734 29.756 111.91 30.396C112.102 31.02 112.19 31.708 112.174 32.46C112.158 33.356 112.014 34.124 111.742 34.764C111.47 35.404 111.086 35.932 110.59 36.348C110.094 36.764 109.494 37.076 108.79 37.284C108.102 37.476 107.326 37.572 106.462 37.572C105.47 37.572 104.718 37.564 104.206 37.548C103.694 37.532 103.326 37.388 103.102 37.116C102.894 36.844 102.782 36.372 102.766 35.7C102.75 35.028 102.742 34.044 102.742 32.748C102.742 31.5 102.742 30.268 102.742 29.052C102.758 27.836 102.758 26.612 102.742 25.38C102.742 25.22 102.734 25.052 102.718 24.876C102.718 24.7 102.718 24.5 102.718 24.276C102.718 24.052 102.718 23.788 102.718 23.484C102.718 23.164 102.726 22.78 102.742 22.332ZM107.23 34.884C108.11 34.836 108.718 34.596 109.054 34.164C109.23 33.924 109.366 33.636 109.462 33.3C109.558 32.964 109.598 32.628 109.582 32.292C109.566 31.956 109.494 31.636 109.366 31.332C109.254 31.012 109.07 30.748 108.814 30.54C108.59 30.348 108.366 30.212 108.142 30.132C107.918 30.036 107.686 29.98 107.446 29.964C107.206 29.932 106.95 29.924 106.678 29.94C106.406 29.94 106.094 29.948 105.742 29.964V32.844L105.694 34.836C105.854 34.852 106.022 34.868 106.198 34.884C106.502 34.916 106.846 34.916 107.23 34.884ZM123.972 31.788C123.94 32.316 123.908 32.852 123.876 33.396C123.844 33.924 123.756 34.436 123.612 34.932C123.484 35.428 123.276 35.876 122.988 36.276C122.716 36.676 122.324 36.996 121.812 37.236C121.364 37.46 120.884 37.612 120.372 37.692C119.86 37.788 119.348 37.828 118.836 37.812C118.324 37.796 117.828 37.716 117.348 37.572C116.868 37.444 116.436 37.26 116.052 37.02C115.668 36.78 115.356 36.468 115.116 36.084C114.876 35.7 114.684 35.284 114.54 34.836C114.412 34.388 114.324 33.924 114.276 33.444C114.228 32.964 114.196 32.516 114.18 32.1C114.116 30.996 114.116 29.908 114.18 28.836C114.18 28.628 114.18 28.396 114.18 28.14C114.18 27.868 114.196 27.604 114.228 27.348C114.276 27.092 114.348 26.86 114.444 26.652C114.54 26.428 114.7 26.26 114.924 26.148C115.404 25.892 115.844 25.876 116.244 26.1C116.66 26.324 116.908 26.788 116.988 27.492C117.036 27.86 117.052 28.268 117.036 28.716C117.036 29.164 117.052 29.572 117.084 29.94C117.1 30.484 117.116 31.076 117.132 31.716C117.148 32.34 117.236 32.9 117.396 33.396C117.572 33.892 117.852 34.268 118.236 34.524C118.636 34.764 119.228 34.772 120.012 34.548C120.38 34.436 120.62 34.156 120.732 33.708C120.86 33.26 120.924 32.596 120.924 31.716C120.924 31.332 120.916 30.908 120.9 30.444C120.884 29.98 120.876 29.524 120.876 29.076C120.876 28.612 120.884 28.188 120.9 27.804C120.932 27.404 120.98 27.1 121.044 26.892C121.124 26.604 121.292 26.388 121.548 26.244C121.804 26.1 122.076 26.028 122.364 26.028C122.652 26.012 122.924 26.068 123.18 26.196C123.436 26.324 123.612 26.532 123.708 26.82C123.804 27.076 123.868 27.404 123.9 27.804C123.948 28.188 123.98 28.612 123.996 29.076C124.012 29.524 124.012 29.988 123.996 30.468C123.996 30.932 123.988 31.372 123.972 31.788ZM136.96 26.796C137.104 27.02 137.168 27.26 137.152 27.516C137.152 27.884 137.088 28.204 136.96 28.476C136.928 28.556 136.88 28.66 136.816 28.788C136.768 28.916 136.712 29.052 136.648 29.196C136.6 29.34 136.544 29.476 136.48 29.604C136.416 29.732 136.368 29.828 136.336 29.892L136.288 30.012C136.064 30.508 135.848 30.988 135.64 31.452C135.432 31.916 135.2 32.412 134.944 32.94C134.688 33.452 134.44 33.956 134.2 34.452C133.976 34.932 133.752 35.404 133.528 35.868C133.464 35.996 133.408 36.124 133.36 36.252C133.312 36.364 133.248 36.484 133.168 36.612L132.016 39.084C131.808 39.5 131.608 39.908 131.416 40.308C131.24 40.708 131.04 41.108 130.816 41.508C130.768 41.588 130.72 41.66 130.672 41.724C130.64 41.804 130.608 41.884 130.576 41.964C130.464 42.156 130.296 42.34 130.072 42.516C129.864 42.708 129.64 42.812 129.4 42.828C128.968 42.86 128.592 42.732 128.272 42.444C128.08 42.332 127.928 42.172 127.816 41.964C127.752 41.82 127.72 41.636 127.72 41.412C127.736 41.316 127.744 41.22 127.744 41.124C127.76 41.044 127.776 40.964 127.792 40.884C127.824 40.804 127.848 40.724 127.864 40.644C127.88 40.564 127.904 40.5 127.936 40.452C127.984 40.324 128.024 40.26 128.056 40.26L129.808 36.468C129.728 36.292 129.648 36.116 129.568 35.94C129.488 35.748 129.416 35.58 129.352 35.436C129.144 34.94 128.92 34.42 128.68 33.876C128.456 33.316 128.224 32.764 127.984 32.22C127.744 31.66 127.496 31.116 127.24 30.588C126.984 30.06 126.728 29.556 126.472 29.076C126.376 28.916 126.288 28.748 126.208 28.572C126.128 28.38 126.064 28.196 126.016 28.02C125.968 27.828 125.952 27.636 125.968 27.444C125.984 27.252 126.056 27.06 126.184 26.868C126.312 26.628 126.48 26.46 126.688 26.364C126.896 26.252 127.112 26.204 127.336 26.22C127.576 26.22 127.8 26.268 128.008 26.364C128.216 26.46 128.384 26.588 128.512 26.748C128.784 27.036 129 27.356 129.16 27.708C129.32 28.06 129.472 28.42 129.616 28.788C129.92 29.428 130.232 30.1 130.552 30.804C130.872 31.508 131.192 32.196 131.512 32.868L132.76 30.228C132.888 29.972 133 29.724 133.096 29.484C133.208 29.244 133.32 29.012 133.432 28.788C133.56 28.516 133.68 28.236 133.792 27.948C133.92 27.66 134.064 27.396 134.224 27.156C134.256 27.092 134.288 27.036 134.32 26.988C134.352 26.94 134.384 26.884 134.416 26.82C134.56 26.628 134.688 26.476 134.8 26.364C134.88 26.3 134.944 26.252 134.992 26.22C135.056 26.172 135.128 26.14 135.208 26.124C135.32 26.092 135.424 26.076 135.52 26.076C135.632 26.06 135.736 26.06 135.832 26.076C135.992 26.124 136.184 26.196 136.408 26.292C136.648 26.388 136.832 26.556 136.96 26.796Z" fill="black"/>
</g>
<defs>
<filter id="filter0_g_226_10159" x="0" y="0" width="158" height="61" filterUnits="userSpaceOnUse" color-interpolation-filters="sRGB">
<feFlood flood-opacity="0" result="BackgroundImageFix"/>
<feBlend mode="normal" in="SourceGraphic" in2="BackgroundImageFix" result="shape"/>
<feTurbulence type="fractalNoise" baseFrequency="0.011363636702299118 0.011363636702299118" numOctaves="3" seed="6061" />
<feDisplacementMap in="shape" scale="8" xChannelSelector="R" yChannelSelector="G" result="displacedImage" width="100%" height="100%" />
<feMerge result="effect1_texture_226_10159">
<feMergeNode in="displacedImage"/>
</feMerge>
</filter>
</defs>
</svg>
