<svg width="147" height="61" viewBox="0 0 147 61" fill="none" xmlns="http://www.w3.org/2000/svg">
<g filter="url(#filter0_g_226_10161)">
<rect x="4" y="4" width="139" height="53" rx="26.5" fill="#FEC400"/>
<rect x="7" y="7" width="133" height="47" rx="23.5" stroke="black" stroke-width="6"/>
<path d="M28.708 21.084C29.78 20.684 30.748 20.508 31.612 20.556C32.492 20.604 33.276 20.828 33.964 21.228C34.652 21.612 35.236 22.132 35.716 22.788C36.212 23.444 36.612 24.18 36.916 24.996C37.156 25.604 37.34 26.244 37.468 26.916C37.596 27.588 37.668 28.26 37.684 28.932C37.716 29.588 37.692 30.236 37.612 30.876C37.548 31.516 37.436 32.108 37.276 32.652C37.18 33.02 37.068 33.356 36.94 33.66C36.812 33.964 36.66 34.268 36.484 34.572C36.084 35.26 35.564 35.82 34.924 36.252C34.3 36.684 33.612 36.988 32.86 37.164C32.348 37.292 31.82 37.356 31.276 37.356C30.732 37.34 30.196 37.268 29.668 37.14C29.14 36.996 28.628 36.796 28.132 36.54C27.652 36.268 27.212 35.932 26.812 35.532C26.316 35.052 25.908 34.5 25.588 33.876C25.268 33.236 25.02 32.572 24.844 31.884C24.668 31.18 24.556 30.476 24.508 29.772C24.46 29.068 24.46 28.396 24.508 27.756C24.556 27.164 24.668 26.532 24.844 25.86C25.036 25.188 25.308 24.54 25.66 23.916C26.012 23.292 26.436 22.732 26.932 22.236C27.444 21.724 28.036 21.34 28.708 21.084ZM34.324 31.356C34.516 30.604 34.596 29.756 34.564 28.812C34.532 27.868 34.38 26.98 34.108 26.148C33.932 25.636 33.708 25.188 33.436 24.804C33.18 24.404 32.868 24.1 32.5 23.892C32.148 23.684 31.732 23.58 31.252 23.58C30.772 23.58 30.236 23.724 29.644 24.012C29.292 24.188 28.988 24.428 28.732 24.732C28.492 25.036 28.292 25.38 28.132 25.764C27.988 26.148 27.868 26.548 27.772 26.964C27.692 27.38 27.644 27.78 27.628 28.164C27.596 28.58 27.588 29.02 27.604 29.484C27.62 29.932 27.668 30.388 27.748 30.852C27.844 31.3 27.972 31.732 28.132 32.148C28.292 32.548 28.508 32.908 28.78 33.228C29.196 33.708 29.676 34.044 30.22 34.236C30.78 34.412 31.332 34.436 31.876 34.308C32.756 34.116 33.428 33.532 33.892 32.556C34.084 32.204 34.228 31.804 34.324 31.356ZM49.5115 31.788C49.4795 32.316 49.4475 32.852 49.4155 33.396C49.3835 33.924 49.2955 34.436 49.1515 34.932C49.0235 35.428 48.8155 35.876 48.5275 36.276C48.2555 36.676 47.8635 36.996 47.3515 37.236C46.9035 37.46 46.4235 37.612 45.9115 37.692C45.3995 37.788 44.8875 37.828 44.3755 37.812C43.8635 37.796 43.3675 37.716 42.8875 37.572C42.4075 37.444 41.9755 37.26 41.5915 37.02C41.2075 36.78 40.8955 36.468 40.6555 36.084C40.4155 35.7 40.2235 35.284 40.0795 34.836C39.9515 34.388 39.8635 33.924 39.8155 33.444C39.7675 32.964 39.7355 32.516 39.7195 32.1C39.6555 30.996 39.6555 29.908 39.7195 28.836C39.7195 28.628 39.7195 28.396 39.7195 28.14C39.7195 27.868 39.7355 27.604 39.7675 27.348C39.8155 27.092 39.8875 26.86 39.9835 26.652C40.0795 26.428 40.2395 26.26 40.4635 26.148C40.9435 25.892 41.3835 25.876 41.7835 26.1C42.1995 26.324 42.4475 26.788 42.5275 27.492C42.5755 27.86 42.5915 28.268 42.5755 28.716C42.5755 29.164 42.5915 29.572 42.6235 29.94C42.6395 30.484 42.6555 31.076 42.6715 31.716C42.6875 32.34 42.7755 32.9 42.9355 33.396C43.1115 33.892 43.3915 34.268 43.7755 34.524C44.1755 34.764 44.7675 34.772 45.5515 34.548C45.9195 34.436 46.1595 34.156 46.2715 33.708C46.3995 33.26 46.4635 32.596 46.4635 31.716C46.4635 31.332 46.4555 30.908 46.4395 30.444C46.4235 29.98 46.4155 29.524 46.4155 29.076C46.4155 28.612 46.4235 28.188 46.4395 27.804C46.4715 27.404 46.5195 27.1 46.5835 26.892C46.6635 26.604 46.8315 26.388 47.0875 26.244C47.3435 26.1 47.6155 26.028 47.9035 26.028C48.1915 26.012 48.4635 26.068 48.7195 26.196C48.9755 26.324 49.1515 26.532 49.2475 26.82C49.3435 27.076 49.4075 27.404 49.4395 27.804C49.4875 28.188 49.5195 28.612 49.5355 29.076C49.5515 29.524 49.5515 29.988 49.5355 30.468C49.5355 30.932 49.5275 31.372 49.5115 31.788ZM51.5074 29.004C51.5074 28.812 51.5074 28.596 51.5074 28.356C51.5074 28.1 51.5154 27.844 51.5314 27.588C51.5474 27.316 51.5714 27.06 51.6034 26.82C51.6514 26.564 51.7154 26.34 51.7954 26.148C51.9234 25.86 52.1234 25.668 52.3954 25.572C52.6674 25.46 52.9634 25.412 53.2834 25.428C53.6194 25.428 53.8834 25.484 54.0754 25.596C54.2674 25.708 54.4114 25.86 54.5074 26.052C54.6034 26.228 54.6594 26.436 54.6754 26.676C54.7074 26.9 54.7234 27.14 54.7234 27.396C54.8674 27.14 55.0594 26.932 55.2994 26.772C55.5554 26.612 55.8114 26.484 56.0674 26.388C56.3234 26.292 56.5554 26.228 56.7634 26.196C56.9714 26.148 57.0914 26.124 57.1234 26.124C57.5234 26.092 57.8834 26.084 58.2034 26.1C58.5394 26.116 58.9074 26.188 59.3074 26.316C59.5634 26.412 59.8274 26.548 60.0994 26.724C60.3714 26.884 60.6114 27.076 60.8194 27.3C61.0274 27.524 61.1634 27.772 61.2274 28.044C61.3074 28.3 61.2754 28.572 61.1314 28.86C60.9074 29.26 60.6594 29.46 60.3874 29.46C60.1154 29.444 59.8194 29.396 59.4994 29.316C59.3234 29.284 59.1154 29.212 58.8754 29.1C58.6354 28.988 58.4274 28.916 58.2514 28.884C57.7074 28.804 57.2274 28.844 56.8114 29.004C56.3954 29.164 56.0354 29.356 55.7314 29.58C55.3794 29.852 55.0754 30.164 54.8194 30.516V33.972C54.8194 34.404 54.8114 34.852 54.7954 35.316C54.7954 35.78 54.7314 36.204 54.6034 36.588C54.4914 36.956 54.2914 37.26 54.0034 37.5C53.7314 37.724 53.3314 37.82 52.8034 37.788C52.5154 37.772 52.2594 37.636 52.0354 37.38C51.8114 37.108 51.6754 36.844 51.6274 36.588C51.5954 36.348 51.5714 36.06 51.5554 35.724C51.5394 35.388 51.5234 35.036 51.5074 34.668C51.5074 34.3 51.5074 33.932 51.5074 33.564C51.5074 33.18 51.5074 32.828 51.5074 32.508V29.004ZM83.6455 21.252C83.8215 21.46 83.9095 21.676 83.9095 21.9C83.9095 21.996 83.9015 22.1 83.8855 22.212C83.8855 22.308 83.8775 22.396 83.8615 22.476C83.8135 22.652 83.7095 22.82 83.5495 22.98C83.4215 23.076 83.2455 23.148 83.0215 23.196C82.9095 23.228 82.7975 23.252 82.6855 23.268C82.5735 23.284 82.4535 23.308 82.3255 23.34C82.2135 23.356 82.1015 23.364 81.9895 23.364C81.8775 23.364 81.7575 23.364 81.6295 23.364H80.4055C80.1175 23.38 79.8295 23.388 79.5415 23.388C79.2695 23.388 78.9975 23.388 78.7255 23.388C78.7415 23.884 78.7495 24.42 78.7495 24.996C78.7495 25.556 78.7415 26.212 78.7255 26.964C78.7255 27.716 78.7175 28.588 78.7015 29.58C78.7015 30.572 78.7015 31.724 78.7015 33.036V34.86C78.7015 35.02 78.7095 35.14 78.7255 35.22C78.7255 35.284 78.7255 35.348 78.7255 35.412C78.7255 35.46 78.7175 35.524 78.7015 35.604C78.6695 35.748 78.6455 35.916 78.6295 36.108C78.6295 36.188 78.6215 36.268 78.6055 36.348C78.5895 36.412 78.5655 36.484 78.5335 36.564C78.4695 36.628 78.4375 36.676 78.4375 36.708L78.3655 36.852C78.2855 37.012 78.1335 37.164 77.9095 37.308C77.5575 37.484 77.1655 37.524 76.7335 37.428C76.4615 37.396 76.2535 37.324 76.1095 37.212C75.9655 37.068 75.8615 36.924 75.7975 36.78C75.7015 36.604 75.6455 36.436 75.6295 36.276C75.5815 36.132 75.5575 35.98 75.5575 35.82V23.484C75.4615 23.484 75.2615 23.484 74.9575 23.484C74.6535 23.484 74.3255 23.484 73.9735 23.484C73.6375 23.468 73.3175 23.452 73.0135 23.436C72.7095 23.42 72.5015 23.404 72.3895 23.388C72.2935 23.372 72.1415 23.348 71.9335 23.316C71.7415 23.284 71.5815 23.252 71.4535 23.22C71.1175 23.124 70.8535 22.972 70.6615 22.764C70.4855 22.556 70.3975 22.324 70.3975 22.068C70.3975 21.972 70.3975 21.876 70.3975 21.78C70.3975 21.684 70.4135 21.596 70.4455 21.516C70.4935 21.324 70.6215 21.164 70.8295 21.036C70.8935 20.988 70.9895 20.932 71.1175 20.868C71.2615 20.788 71.3975 20.732 71.5255 20.7C71.7175 20.636 71.9575 20.588 72.2455 20.556C72.3735 20.54 72.5015 20.532 72.6295 20.532C72.7575 20.532 72.8935 20.532 73.0375 20.532C73.5975 20.532 74.1255 20.532 74.6215 20.532C75.1335 20.532 75.6695 20.524 76.2295 20.508C77.1575 20.492 78.0775 20.492 78.9895 20.508C79.9175 20.508 80.8375 20.524 81.7495 20.556C81.9575 20.572 82.1575 20.596 82.3495 20.628C82.5415 20.66 82.7335 20.716 82.9255 20.796C83.0695 20.844 83.2055 20.908 83.3335 20.988C83.4615 21.052 83.5655 21.14 83.6455 21.252ZM91.8265 34.212C92.0185 34.164 92.2105 34.132 92.4025 34.116C92.6105 34.1 92.7945 34.124 92.9545 34.188C93.1305 34.252 93.2745 34.364 93.3865 34.524C93.4985 34.668 93.5545 34.876 93.5545 35.148C93.5545 35.34 93.5065 35.524 93.4105 35.7C93.3145 35.876 93.1945 36.036 93.0505 36.18C92.9065 36.324 92.7465 36.452 92.5705 36.564C92.3945 36.66 92.2265 36.74 92.0665 36.804C91.6025 37.012 91.0665 37.172 90.4585 37.284C89.8665 37.396 89.2505 37.436 88.6105 37.404C87.7465 37.372 86.9145 37.204 86.1145 36.9C85.3305 36.58 84.7145 36.06 84.2665 35.34C83.8505 34.636 83.6025 33.852 83.5225 32.988C83.4425 32.124 83.4825 31.308 83.6425 30.54C83.8185 29.612 84.1145 28.86 84.5305 28.284C84.9625 27.692 85.4745 27.22 86.0665 26.868C86.7865 26.452 87.5945 26.236 88.4905 26.22C89.3865 26.204 90.2425 26.38 91.0585 26.748C91.6025 26.988 92.0905 27.316 92.5225 27.732C92.9545 28.132 93.2825 28.62 93.5065 29.196C93.5705 29.34 93.6185 29.516 93.6505 29.724C93.6985 29.932 93.7305 30.156 93.7465 30.396C93.7625 30.62 93.7625 30.844 93.7465 31.068C93.7305 31.292 93.6905 31.492 93.6265 31.668C93.5305 31.956 93.4105 32.18 93.2665 32.34C93.1225 32.5 92.9385 32.62 92.7145 32.7C92.4905 32.78 92.2185 32.836 91.8985 32.868C91.5945 32.884 91.2265 32.9 90.7945 32.916C90.4105 32.932 90.0505 32.94 89.7145 32.94C89.3785 32.94 89.0345 32.94 88.6825 32.94C88.3305 32.924 87.9625 32.916 87.5785 32.916C87.2105 32.9 86.7945 32.884 86.3305 32.868C86.2825 33.188 86.3225 33.468 86.4505 33.708C86.5945 33.932 86.7865 34.124 87.0265 34.284C87.2665 34.428 87.5385 34.54 87.8425 34.62C88.1465 34.7 88.4425 34.748 88.7305 34.764C89.2745 34.796 89.7945 34.756 90.2905 34.644C90.7865 34.516 91.2985 34.372 91.8265 34.212ZM90.7945 29.556C90.4905 29.204 90.1705 28.948 89.8345 28.788C89.5785 28.676 89.3065 28.628 89.0185 28.644C88.7465 28.644 88.4825 28.684 88.2265 28.764C87.7625 28.876 87.3705 29.116 87.0505 29.484C87.0185 29.516 86.9625 29.596 86.8825 29.724C86.8025 29.836 86.7225 29.956 86.6425 30.084C86.5785 30.212 86.5305 30.332 86.4985 30.444C86.4665 30.556 86.4825 30.612 86.5465 30.612H91.2505C91.2345 30.388 91.1945 30.204 91.1305 30.06C91.0665 29.9 90.9545 29.732 90.7945 29.556ZM98.2602 27.396C98.7402 27.156 99.2442 26.988 99.7722 26.892C100.3 26.78 100.82 26.756 101.332 26.82C101.86 26.868 102.364 27.004 102.844 27.228C103.324 27.436 103.772 27.74 104.188 28.14C104.604 28.556 104.924 29.012 105.148 29.508C105.372 30.004 105.532 30.556 105.628 31.164C105.692 31.58 105.796 31.964 105.94 32.316C106.084 32.668 106.236 33.02 106.396 33.372C106.572 33.724 106.732 34.076 106.876 34.428C107.036 34.78 107.164 35.148 107.26 35.532C107.34 35.9 107.308 36.26 107.164 36.612C107.036 36.948 106.764 37.156 106.348 37.236C106.108 37.284 105.876 37.268 105.652 37.188C105.444 37.092 105.252 36.964 105.076 36.804C104.9 36.628 104.74 36.444 104.596 36.252C104.468 36.044 104.348 35.852 104.236 35.676C103.868 36.156 103.468 36.532 103.036 36.804C102.604 37.06 102.084 37.228 101.476 37.308C100.964 37.372 100.476 37.388 100.012 37.356C99.5482 37.324 99.0522 37.236 98.5242 37.092C97.8362 36.916 97.2682 36.612 96.8202 36.18C96.3882 35.732 96.0522 35.22 95.8122 34.644C95.5882 34.052 95.4682 33.42 95.4522 32.748C95.4362 32.076 95.5162 31.412 95.6922 30.756C95.9162 29.892 96.2522 29.188 96.7002 28.644C97.1482 28.1 97.6682 27.684 98.2602 27.396ZM98.8602 30.204C98.6362 30.428 98.4602 30.692 98.3322 30.996C98.2042 31.3 98.1242 31.62 98.0922 31.956C98.0762 32.292 98.1082 32.628 98.1882 32.964C98.2682 33.3 98.3962 33.596 98.5722 33.852C98.7322 34.076 99.0042 34.268 99.3882 34.428C99.7722 34.572 100.172 34.66 100.588 34.692C101.068 34.724 101.484 34.596 101.836 34.308C102.204 34.02 102.476 33.66 102.652 33.228C102.844 32.78 102.932 32.308 102.916 31.812C102.9 31.3 102.764 30.836 102.508 30.42C102.316 30.116 102.06 29.892 101.74 29.748C101.436 29.604 101.108 29.532 100.756 29.532C100.404 29.516 100.052 29.572 99.7002 29.7C99.3642 29.812 99.0842 29.98 98.8602 30.204ZM122.265 31.908C122.297 32.42 122.313 32.908 122.313 33.372C122.313 33.82 122.297 34.3 122.265 34.812C122.265 35.004 122.265 35.22 122.265 35.46C122.265 35.7 122.249 35.932 122.217 36.156C122.185 36.38 122.129 36.588 122.049 36.78C121.969 36.972 121.849 37.124 121.689 37.236C121.497 37.364 121.281 37.452 121.041 37.5C120.801 37.532 120.577 37.516 120.369 37.452C120.161 37.388 119.977 37.268 119.817 37.092C119.673 36.916 119.593 36.668 119.577 36.348C119.529 35.612 119.505 34.876 119.505 34.14C119.505 33.772 119.497 33.42 119.481 33.084C119.481 32.748 119.489 32.276 119.505 31.668C119.505 31.364 119.481 31.02 119.433 30.636C119.385 30.236 119.265 29.956 119.073 29.796C118.929 29.668 118.769 29.596 118.593 29.58C118.417 29.548 118.241 29.564 118.065 29.628C117.905 29.692 117.761 29.812 117.633 29.988C117.505 30.148 117.417 30.356 117.369 30.612C117.369 30.82 117.361 31.036 117.345 31.26C117.345 31.468 117.353 31.668 117.369 31.86C117.385 32.372 117.393 32.86 117.393 33.324C117.393 33.772 117.385 34.252 117.369 34.764C117.353 34.972 117.345 35.196 117.345 35.436C117.361 35.676 117.361 35.916 117.345 36.156C117.329 36.38 117.281 36.588 117.201 36.78C117.137 36.972 117.017 37.124 116.841 37.236C116.649 37.364 116.441 37.444 116.217 37.476C116.009 37.492 115.809 37.46 115.617 37.38C115.441 37.284 115.281 37.14 115.137 36.948C115.009 36.756 114.937 36.5 114.921 36.18C114.889 35.812 114.865 35.476 114.849 35.172C114.849 34.852 114.849 34.516 114.849 34.164C114.849 33.796 114.857 33.42 114.873 33.036C114.889 32.636 114.881 32.252 114.849 31.884C114.849 31.772 114.841 31.644 114.825 31.5C114.825 31.34 114.817 31.18 114.801 31.02C114.801 30.86 114.785 30.708 114.753 30.564C114.737 30.404 114.705 30.276 114.657 30.18C114.529 29.956 114.297 29.812 113.961 29.748C113.641 29.684 113.369 29.708 113.145 29.82C112.921 29.932 112.753 30.076 112.641 30.252C112.529 30.428 112.449 30.62 112.401 30.828C112.353 31.036 112.329 31.26 112.329 31.5C112.329 31.724 112.329 31.94 112.329 32.148C112.329 33.188 112.329 34.092 112.329 34.86C112.345 35.612 112.265 36.22 112.089 36.684C112.009 36.924 111.841 37.108 111.585 37.236C111.345 37.364 111.081 37.428 110.793 37.428C110.521 37.428 110.265 37.364 110.025 37.236C109.785 37.108 109.625 36.908 109.545 36.636C109.497 36.46 109.449 36.212 109.401 35.892C109.369 35.556 109.345 35.188 109.329 34.788C109.313 34.388 109.305 33.988 109.305 33.588C109.305 33.172 109.305 32.796 109.305 32.46V29.004C109.289 28.636 109.281 28.236 109.281 27.804C109.281 27.372 109.345 26.98 109.473 26.628C109.585 26.324 109.761 26.132 110.001 26.052C110.241 25.956 110.489 25.916 110.745 25.932C111.033 25.932 111.257 26.012 111.417 26.172C111.593 26.316 111.721 26.5 111.801 26.724C111.881 26.932 111.929 27.172 111.945 27.444C111.961 27.7 111.977 27.948 111.993 28.188C112.169 27.788 112.377 27.46 112.617 27.204C112.873 26.932 113.233 26.756 113.697 26.676C114.881 26.452 115.825 26.756 116.529 27.588C116.849 27.268 117.257 27.004 117.753 26.796C118.137 26.652 118.529 26.588 118.929 26.604C119.329 26.604 119.705 26.676 120.057 26.82C120.425 26.964 120.753 27.172 121.041 27.444C121.345 27.716 121.585 28.044 121.761 28.428C122.001 28.94 122.137 29.508 122.169 30.132C122.201 30.756 122.233 31.348 122.265 31.908Z" fill="black"/>
</g>
<defs>
<filter id="filter0_g_226_10161" x="0" y="0" width="147" height="61" filterUnits="userSpaceOnUse" color-interpolation-filters="sRGB">
<feFlood flood-opacity="0" result="BackgroundImageFix"/>
<feBlend mode="normal" in="SourceGraphic" in2="BackgroundImageFix" result="shape"/>
<feTurbulence type="fractalNoise" baseFrequency="0.011363636702299118 0.011363636702299118" numOctaves="3" seed="6061" />
<feDisplacementMap in="shape" scale="8" xChannelSelector="R" yChannelSelector="G" result="displacedImage" width="100%" height="100%" />
<feMerge result="effect1_texture_226_10161">
<feMergeNode in="displacedImage"/>
</feMerge>
</filter>
</defs>
</svg>
