<svg width="108" height="61" viewBox="0 0 108 61" fill="none" xmlns="http://www.w3.org/2000/svg">
<g filter="url(#filter0_g_226_10158)">
<rect x="4" y="4" width="100" height="53" rx="26.5" fill="#FEC400"/>
<rect x="7" y="7" width="94" height="47" rx="23.5" stroke="black" stroke-width="6"/>
<path d="M38.668 21.228C38.812 21.42 38.9 21.644 38.932 21.9C38.932 21.996 38.924 22.092 38.908 22.188C38.908 22.268 38.9 22.348 38.884 22.428C38.868 22.604 38.764 22.772 38.572 22.932C38.46 23.012 38.316 23.092 38.14 23.172C38.044 23.204 37.94 23.228 37.828 23.244C37.732 23.244 37.62 23.252 37.492 23.268C37.396 23.3 37.292 23.316 37.18 23.316C37.068 23.316 36.956 23.316 36.844 23.316H35.764L30.748 23.34V23.412L30.724 27.324C30.852 27.324 30.988 27.324 31.132 27.324C31.292 27.324 31.484 27.316 31.708 27.3C32.348 27.3 32.916 27.3 33.412 27.3C33.924 27.3 34.484 27.308 35.092 27.324H35.236C35.412 27.324 35.588 27.332 35.764 27.348C35.956 27.348 36.148 27.348 36.34 27.348C36.516 27.364 36.692 27.388 36.868 27.42C37.044 27.436 37.22 27.476 37.396 27.54C37.684 27.636 37.892 27.788 38.02 27.996C38.196 28.204 38.284 28.42 38.284 28.644C38.284 28.74 38.284 28.836 38.284 28.932C38.284 29.012 38.268 29.1 38.236 29.196C38.22 29.324 38.116 29.484 37.924 29.676C37.796 29.788 37.644 29.86 37.468 29.892C37.388 29.924 37.292 29.956 37.18 29.988C37.084 30.004 36.98 30.02 36.868 30.036C36.756 30.052 36.644 30.068 36.532 30.084C36.436 30.084 36.324 30.084 36.196 30.084H35.092L30.676 30.108L30.604 35.676V35.868C30.604 35.948 30.596 36.028 30.58 36.108C30.58 36.172 30.572 36.244 30.556 36.324C30.524 36.404 30.492 36.492 30.46 36.588C30.444 36.668 30.42 36.748 30.388 36.828C30.276 37.052 30.172 37.204 30.076 37.284C29.9 37.412 29.684 37.5 29.428 37.548C28.996 37.644 28.588 37.596 28.204 37.404C28.124 37.356 28.044 37.3 27.964 37.236C27.9 37.156 27.844 37.06 27.796 36.948C27.764 36.884 27.748 36.836 27.748 36.804L27.676 36.66C27.628 36.58 27.596 36.5 27.58 36.42C27.564 36.324 27.548 36.236 27.532 36.156C27.532 36.076 27.524 35.996 27.508 35.916C27.508 35.836 27.5 35.756 27.484 35.676C27.468 35.548 27.468 35.42 27.484 35.292V34.908L27.508 33.036L27.532 29.58C27.548 29.068 27.556 28.548 27.556 28.02C27.556 27.492 27.556 26.948 27.556 26.388C27.54 25.812 27.532 25.3 27.532 24.852C27.548 24.404 27.572 23.916 27.604 23.388V23.268C27.62 23.092 27.628 22.932 27.628 22.788C27.628 22.628 27.644 22.468 27.676 22.308C27.708 21.956 27.788 21.644 27.916 21.372C28.028 21.1 28.188 20.908 28.396 20.796C28.636 20.652 28.892 20.58 29.164 20.58C29.292 20.58 29.396 20.588 29.476 20.604V20.58C29.764 20.58 29.996 20.58 30.172 20.58C30.348 20.58 30.516 20.58 30.676 20.58C30.836 20.58 31.012 20.58 31.204 20.58C31.396 20.564 31.652 20.556 31.972 20.556C33.252 20.54 34.516 20.54 35.764 20.556H35.884C36.06 20.572 36.236 20.58 36.412 20.58C36.604 20.58 36.796 20.588 36.988 20.604C37.164 20.604 37.34 20.628 37.516 20.676C37.692 20.708 37.868 20.756 38.044 20.82C38.316 20.9 38.524 21.036 38.668 21.228ZM43.4667 37.5C43.4667 37.916 43.3147 38.268 43.0107 38.556C42.7227 38.86 42.3707 39.012 41.9547 39.012C41.5387 39.012 41.1787 38.86 40.8747 38.556C40.5867 38.268 40.4427 37.916 40.4427 37.5C40.4427 37.084 40.5867 36.724 40.8747 36.42C41.1787 36.116 41.5387 35.964 41.9547 35.964C42.3707 35.964 42.7227 36.116 43.0107 36.42C43.3147 36.724 43.4667 37.084 43.4667 37.5ZM60.1274 35.868C60.1434 35.964 60.1514 36.06 60.1514 36.156C60.1674 36.236 60.1754 36.332 60.1754 36.444C60.1754 36.636 60.1194 36.812 60.0074 36.972C59.9594 37.052 59.8954 37.132 59.8154 37.212C59.7354 37.276 59.6394 37.332 59.5274 37.38C59.1274 37.604 58.7034 37.684 58.2554 37.62C58.0314 37.556 57.8314 37.452 57.6554 37.308C57.6234 37.276 57.5994 37.26 57.5834 37.26C57.5674 37.244 57.5514 37.22 57.5354 37.188C57.5194 37.172 57.5034 37.156 57.4874 37.14C57.4714 37.108 57.4474 37.084 57.4154 37.068C57.3354 36.988 57.2714 36.916 57.2234 36.852C57.1754 36.772 57.1274 36.692 57.0794 36.612C57.0474 36.532 57.0074 36.46 56.9594 36.396C56.9274 36.316 56.8874 36.236 56.8394 36.156C56.8074 36.092 56.7754 36.036 56.7434 35.988C56.7114 35.924 56.6874 35.86 56.6714 35.796C56.6074 35.652 56.5674 35.524 56.5514 35.412L56.0474 34.236C54.9434 34.236 53.8394 34.244 52.7354 34.26C51.6474 34.26 50.5514 34.252 49.4474 34.236L48.9434 35.412C48.9114 35.476 48.8874 35.54 48.8714 35.604C48.8714 35.668 48.8554 35.732 48.8234 35.796C48.7914 35.86 48.7594 35.924 48.7274 35.988C48.7114 36.036 48.6874 36.092 48.6554 36.156C48.6074 36.236 48.5594 36.316 48.5114 36.396C48.4794 36.46 48.4394 36.532 48.3914 36.612C48.3594 36.692 48.3194 36.772 48.2714 36.852C48.2234 36.916 48.1594 36.988 48.0794 37.068C48.0474 37.084 48.0234 37.108 48.0074 37.14C47.9914 37.156 47.9754 37.172 47.9594 37.188C47.9434 37.22 47.9274 37.244 47.9114 37.26C47.8954 37.26 47.8714 37.276 47.8394 37.308C47.6634 37.452 47.4634 37.556 47.2394 37.62C46.7914 37.684 46.3674 37.604 45.9674 37.38C45.8554 37.332 45.7594 37.276 45.6794 37.212C45.5994 37.132 45.5354 37.052 45.4874 36.972C45.3754 36.812 45.3194 36.636 45.3194 36.444C45.3194 36.332 45.3194 36.236 45.3194 36.156C45.3354 36.06 45.3514 35.964 45.3674 35.868C45.3994 35.724 45.4394 35.58 45.4874 35.436C45.5354 35.292 45.5594 35.22 45.5594 35.22L50.5514 22.932L50.6954 22.548C50.7274 22.452 50.7674 22.364 50.8154 22.284C50.8634 22.204 50.9034 22.108 50.9354 21.996C51.0154 21.788 51.1034 21.604 51.1994 21.444C51.2474 21.348 51.3034 21.26 51.3674 21.18C51.4314 21.1 51.4954 21.02 51.5594 20.94C51.6554 20.812 51.7914 20.708 51.9674 20.628C52.1914 20.548 52.4474 20.508 52.7354 20.508C53.0394 20.508 53.3034 20.548 53.5274 20.628C53.7034 20.708 53.8394 20.812 53.9354 20.94C54.0474 21.084 54.1674 21.252 54.2954 21.444C54.3914 21.604 54.4794 21.788 54.5594 21.996C54.5914 22.108 54.6314 22.204 54.6794 22.284C54.7274 22.364 54.7674 22.452 54.7994 22.548L54.9434 22.932L59.9354 35.22C59.9354 35.22 59.9594 35.292 60.0074 35.436C60.0554 35.58 60.0954 35.724 60.1274 35.868ZM54.4394 29.988C54.2314 29.524 54.0154 29.044 53.7914 28.548C53.5834 28.052 53.3594 27.548 53.1194 27.036C53.0554 26.892 52.9914 26.748 52.9274 26.604C52.8634 26.444 52.7994 26.292 52.7354 26.148C52.6874 26.292 52.6314 26.444 52.5674 26.604C52.5034 26.748 52.4394 26.892 52.3754 27.036C52.1354 27.548 51.9034 28.052 51.6794 28.548C51.4714 29.044 51.2634 29.524 51.0554 29.988L50.6234 31.044H54.8714L54.4394 29.988ZM65.0526 37.5C65.0526 37.916 64.9006 38.268 64.5966 38.556C64.3086 38.86 63.9566 39.012 63.5406 39.012C63.1246 39.012 62.7646 38.86 62.4606 38.556C62.1726 38.268 62.0286 37.916 62.0286 37.5C62.0286 37.084 62.1726 36.724 62.4606 36.42C62.7646 36.116 63.1246 35.964 63.5406 35.964C63.9566 35.964 64.3086 36.116 64.5966 36.42C64.9006 36.724 65.0526 37.084 65.0526 37.5ZM80.3693 35.796C80.4333 35.908 80.4733 36.028 80.4893 36.156C80.5053 36.268 80.5053 36.38 80.4893 36.492C80.4733 36.716 80.3853 36.916 80.2253 37.092C80.1133 37.22 79.9773 37.34 79.8173 37.452C79.6893 37.532 79.5133 37.572 79.2893 37.572C79.1133 37.572 78.9533 37.54 78.8093 37.476C78.6173 37.396 78.4493 37.292 78.3053 37.164C78.1293 37.068 77.9613 36.948 77.8013 36.804L77.1293 36.228C76.8573 36.484 76.5533 36.7 76.2173 36.876C75.8973 37.052 75.5613 37.196 75.2093 37.308C74.6973 37.468 74.1693 37.556 73.6253 37.572C73.0973 37.604 72.5693 37.556 72.0413 37.428C71.5133 37.3 71.0013 37.1 70.5053 36.828C70.0253 36.556 69.5853 36.204 69.1853 35.772C68.7053 35.276 68.3133 34.708 68.0093 34.068C67.7053 33.412 67.4653 32.732 67.2893 32.028C67.1133 31.324 67.0013 30.612 66.9533 29.892C66.9053 29.172 66.9053 28.492 66.9533 27.852C67.0013 27.244 67.0973 26.588 67.2413 25.884C67.3853 25.164 67.6013 24.476 67.8893 23.82C68.1933 23.164 68.5693 22.58 69.0173 22.068C69.4813 21.556 70.0413 21.204 70.6973 21.012C72.2813 20.516 73.6253 20.428 74.7293 20.748C75.8333 21.052 76.7373 21.604 77.4413 22.404C78.0013 23.044 78.4413 23.796 78.7613 24.66C79.0973 25.524 79.3213 26.428 79.4333 27.372C79.5613 28.316 79.5933 29.268 79.5293 30.228C79.4653 31.172 79.3213 32.052 79.0973 32.868L78.6653 34.02C78.9053 34.244 79.1293 34.452 79.3373 34.644C79.5613 34.82 79.7053 34.948 79.7693 35.028C79.8813 35.14 79.9853 35.26 80.0813 35.388C80.1933 35.5 80.2893 35.636 80.3693 35.796ZM71.0573 33.3C71.5373 33.924 72.1133 34.3 72.7853 34.428C73.4733 34.54 74.1133 34.42 74.7053 34.068C74.4813 33.844 74.2733 33.644 74.0813 33.468C73.8893 33.292 73.7693 33.172 73.7213 33.108C73.4813 32.868 73.2973 32.58 73.1693 32.244C73.0413 31.988 73.0013 31.748 73.0493 31.524C73.0973 31.268 73.2013 31.052 73.3613 30.876C73.4413 30.812 73.5133 30.756 73.5773 30.708C73.6413 30.644 73.7133 30.588 73.7933 30.54C73.8733 30.492 73.9613 30.46 74.0573 30.444C74.1693 30.428 74.2813 30.42 74.3933 30.42C74.5533 30.42 74.7133 30.476 74.8733 30.588C75.0173 30.668 75.1853 30.772 75.3773 30.9C75.4573 30.98 75.5373 31.06 75.6173 31.14C75.7133 31.204 75.8013 31.276 75.8813 31.356C75.9453 31.42 76.0093 31.484 76.0733 31.548C76.1373 31.596 76.2093 31.652 76.2893 31.716C76.4013 31.188 76.4813 30.628 76.5293 30.036C76.5933 29.444 76.6013 28.852 76.5533 28.26C76.5053 27.652 76.3933 27.06 76.2173 26.484C76.0413 25.892 75.7933 25.34 75.4733 24.828C75.0893 24.22 74.6013 23.812 74.0093 23.604C73.4173 23.38 72.6973 23.476 71.8493 23.892C71.5133 24.068 71.2253 24.324 70.9853 24.66C70.7613 24.98 70.5693 25.348 70.4093 25.764C70.2493 26.164 70.1213 26.58 70.0253 27.012C69.9453 27.444 69.8973 27.852 69.8813 28.236C69.8653 28.652 69.8653 29.092 69.8813 29.556C69.9133 30.004 69.9693 30.46 70.0493 30.924C70.1453 31.372 70.2733 31.804 70.4333 32.22C70.5933 32.62 70.8013 32.98 71.0573 33.3Z" fill="black"/>
</g>
<defs>
<filter id="filter0_g_226_10158" x="0" y="0" width="108" height="61" filterUnits="userSpaceOnUse" color-interpolation-filters="sRGB">
<feFlood flood-opacity="0" result="BackgroundImageFix"/>
<feBlend mode="normal" in="SourceGraphic" in2="BackgroundImageFix" result="shape"/>
<feTurbulence type="fractalNoise" baseFrequency="0.011363636702299118 0.011363636702299118" numOctaves="3" seed="6061" />
<feDisplacementMap in="shape" scale="8" xChannelSelector="R" yChannelSelector="G" result="displacedImage" width="100%" height="100%" />
<feMerge result="effect1_texture_226_10158">
<feMergeNode in="displacedImage"/>
</feMerge>
</filter>
</defs>
</svg>
