<svg width="198" height="61" viewBox="0 0 198 61" fill="none" xmlns="http://www.w3.org/2000/svg">
<g filter="url(#filter0_g_226_10160)">
<rect x="4" y="4" width="190" height="53" rx="26.5" fill="#FEC400"/>
<rect x="7" y="7" width="184" height="47" rx="23.5" stroke="black" stroke-width="6"/>
<path d="M36.768 35.868C36.784 35.964 36.792 36.06 36.792 36.156C36.808 36.236 36.816 36.332 36.816 36.444C36.816 36.636 36.76 36.812 36.648 36.972C36.6 37.052 36.536 37.132 36.456 37.212C36.376 37.276 36.28 37.332 36.168 37.38C35.768 37.604 35.344 37.684 34.896 37.62C34.672 37.556 34.472 37.452 34.296 37.308C34.264 37.276 34.24 37.26 34.224 37.26C34.208 37.244 34.192 37.22 34.176 37.188C34.16 37.172 34.144 37.156 34.128 37.14C34.112 37.108 34.088 37.084 34.056 37.068C33.976 36.988 33.912 36.916 33.864 36.852C33.816 36.772 33.768 36.692 33.72 36.612C33.688 36.532 33.648 36.46 33.6 36.396C33.568 36.316 33.528 36.236 33.48 36.156C33.448 36.092 33.416 36.036 33.384 35.988C33.352 35.924 33.328 35.86 33.312 35.796C33.248 35.652 33.208 35.524 33.192 35.412L32.688 34.236C31.584 34.236 30.48 34.244 29.376 34.26C28.288 34.26 27.192 34.252 26.088 34.236L25.584 35.412C25.552 35.476 25.528 35.54 25.512 35.604C25.512 35.668 25.496 35.732 25.464 35.796C25.432 35.86 25.4 35.924 25.368 35.988C25.352 36.036 25.328 36.092 25.296 36.156C25.248 36.236 25.2 36.316 25.152 36.396C25.12 36.46 25.08 36.532 25.032 36.612C25 36.692 24.96 36.772 24.912 36.852C24.864 36.916 24.8 36.988 24.72 37.068C24.688 37.084 24.664 37.108 24.648 37.14C24.632 37.156 24.616 37.172 24.6 37.188C24.584 37.22 24.568 37.244 24.552 37.26C24.536 37.26 24.512 37.276 24.48 37.308C24.304 37.452 24.104 37.556 23.88 37.62C23.432 37.684 23.008 37.604 22.608 37.38C22.496 37.332 22.4 37.276 22.32 37.212C22.24 37.132 22.176 37.052 22.128 36.972C22.016 36.812 21.96 36.636 21.96 36.444C21.96 36.332 21.96 36.236 21.96 36.156C21.976 36.06 21.992 35.964 22.008 35.868C22.04 35.724 22.08 35.58 22.128 35.436C22.176 35.292 22.2 35.22 22.2 35.22L27.192 22.932L27.336 22.548C27.368 22.452 27.408 22.364 27.456 22.284C27.504 22.204 27.544 22.108 27.576 21.996C27.656 21.788 27.744 21.604 27.84 21.444C27.888 21.348 27.944 21.26 28.008 21.18C28.072 21.1 28.136 21.02 28.2 20.94C28.296 20.812 28.432 20.708 28.608 20.628C28.832 20.548 29.088 20.508 29.376 20.508C29.68 20.508 29.944 20.548 30.168 20.628C30.344 20.708 30.48 20.812 30.576 20.94C30.688 21.084 30.808 21.252 30.936 21.444C31.032 21.604 31.12 21.788 31.2 21.996C31.232 22.108 31.272 22.204 31.32 22.284C31.368 22.364 31.408 22.452 31.44 22.548L31.584 22.932L36.576 35.22C36.576 35.22 36.6 35.292 36.648 35.436C36.696 35.58 36.736 35.724 36.768 35.868ZM31.08 29.988C30.872 29.524 30.656 29.044 30.432 28.548C30.224 28.052 30 27.548 29.76 27.036C29.696 26.892 29.632 26.748 29.568 26.604C29.504 26.444 29.44 26.292 29.376 26.148C29.328 26.292 29.272 26.444 29.208 26.604C29.144 26.748 29.08 26.892 29.016 27.036C28.776 27.548 28.544 28.052 28.32 28.548C28.112 29.044 27.904 29.524 27.696 29.988L27.264 31.044H31.512L31.08 29.988ZM38.7653 29.004C38.7653 28.812 38.7653 28.596 38.7653 28.356C38.7653 28.1 38.7733 27.844 38.7893 27.588C38.8053 27.316 38.8293 27.06 38.8613 26.82C38.9093 26.564 38.9733 26.34 39.0533 26.148C39.1813 25.86 39.3813 25.668 39.6533 25.572C39.9253 25.46 40.2213 25.412 40.5413 25.428C40.8773 25.428 41.1413 25.484 41.3333 25.596C41.5253 25.708 41.6693 25.86 41.7653 26.052C41.8613 26.228 41.9173 26.436 41.9333 26.676C41.9653 26.9 41.9813 27.14 41.9813 27.396C42.1253 27.14 42.3173 26.932 42.5573 26.772C42.8133 26.612 43.0693 26.484 43.3253 26.388C43.5813 26.292 43.8133 26.228 44.0213 26.196C44.2293 26.148 44.3493 26.124 44.3813 26.124C44.7813 26.092 45.1413 26.084 45.4613 26.1C45.7973 26.116 46.1653 26.188 46.5653 26.316C46.8213 26.412 47.0853 26.548 47.3573 26.724C47.6293 26.884 47.8693 27.076 48.0773 27.3C48.2853 27.524 48.4213 27.772 48.4853 28.044C48.5653 28.3 48.5333 28.572 48.3893 28.86C48.1653 29.26 47.9173 29.46 47.6453 29.46C47.3733 29.444 47.0773 29.396 46.7573 29.316C46.5813 29.284 46.3733 29.212 46.1333 29.1C45.8933 28.988 45.6853 28.916 45.5093 28.884C44.9653 28.804 44.4853 28.844 44.0693 29.004C43.6533 29.164 43.2933 29.356 42.9893 29.58C42.6373 29.852 42.3333 30.164 42.0773 30.516V33.972C42.0773 34.404 42.0693 34.852 42.0533 35.316C42.0533 35.78 41.9893 36.204 41.8613 36.588C41.7493 36.956 41.5493 37.26 41.2613 37.5C40.9893 37.724 40.5893 37.82 40.0613 37.788C39.7733 37.772 39.5173 37.636 39.2933 37.38C39.0693 37.108 38.9333 36.844 38.8853 36.588C38.8533 36.348 38.8293 36.06 38.8133 35.724C38.7973 35.388 38.7813 35.036 38.7653 34.668C38.7653 34.3 38.7653 33.932 38.7653 33.564C38.7653 33.18 38.7653 32.828 38.7653 32.508V29.004ZM59.9814 26.916C60.1094 27.22 60.1174 27.556 60.0054 27.924C59.9094 28.292 59.7254 28.532 59.4534 28.644C59.3094 28.708 59.1174 28.764 58.8774 28.812C58.6374 28.844 58.3734 28.876 58.0854 28.908C57.8134 28.94 57.5414 28.964 57.2694 28.98C56.9974 28.996 56.7654 29.004 56.5734 29.004C56.5894 29.484 56.6054 29.98 56.6214 30.492C56.6374 30.988 56.6534 31.476 56.6694 31.956C56.6854 32.436 56.6934 32.9 56.6934 33.348C56.6934 33.78 56.6854 34.172 56.6694 34.524C56.6694 34.764 56.6694 35.044 56.6694 35.364C56.6694 35.668 56.6454 35.964 56.5974 36.252C56.5654 36.54 56.5094 36.796 56.4294 37.02C56.3494 37.228 56.2294 37.364 56.0694 37.428C55.5734 37.636 55.1174 37.692 54.7014 37.596C54.3014 37.516 54.0134 37.348 53.8374 37.092C53.7094 36.884 53.6134 36.644 53.5494 36.372C53.4854 36.084 53.4374 35.796 53.4054 35.508C53.3894 35.204 53.3814 34.916 53.3814 34.644C53.3974 34.356 53.4054 34.108 53.4054 33.9C53.4214 33.228 53.4294 32.468 53.4294 31.62C53.4454 30.756 53.4534 29.892 53.4534 29.028H53.0934C52.9014 29.028 52.6534 29.028 52.3494 29.028C52.0614 29.012 51.7654 28.988 51.4614 28.956C51.1734 28.908 50.9014 28.852 50.6454 28.788C50.3894 28.708 50.2054 28.596 50.0934 28.452C49.9174 28.244 49.8054 28.02 49.7574 27.78C49.7254 27.54 49.7414 27.316 49.8054 27.108C49.8854 26.884 50.0054 26.692 50.1654 26.532C50.3254 26.356 50.5094 26.244 50.7174 26.196C51.0054 26.116 51.4134 26.076 51.9414 26.076C52.4694 26.06 52.9654 26.06 53.4294 26.076C53.4134 25.916 53.4054 25.764 53.4054 25.62C53.4054 25.46 53.3974 25.308 53.3814 25.164C53.3654 24.972 53.3574 24.732 53.3574 24.444C53.3574 24.14 53.3734 23.844 53.4054 23.556C53.4534 23.252 53.5254 22.972 53.6214 22.716C53.7174 22.444 53.8534 22.236 54.0294 22.092C54.2694 21.9 54.5094 21.796 54.7494 21.78C55.0054 21.748 55.2374 21.78 55.4454 21.876C55.6694 21.972 55.8534 22.116 55.9974 22.308C56.1574 22.484 56.2694 22.684 56.3334 22.908C56.3814 23.1 56.4214 23.332 56.4534 23.604C56.4854 23.86 56.5014 24.132 56.5014 24.42C56.5174 24.708 56.5254 24.996 56.5254 25.284C56.5254 25.572 56.5254 25.836 56.5254 26.076H56.7654C57.0054 26.076 57.2854 26.068 57.6054 26.052C57.9254 26.036 58.2374 26.044 58.5414 26.076C58.8614 26.108 59.1494 26.188 59.4054 26.316C59.6614 26.428 59.8534 26.628 59.9814 26.916ZM78.138 28.26C78.266 28.484 78.33 28.724 78.33 28.98C78.346 29.236 78.29 29.476 78.162 29.7C78.018 29.988 77.81 30.188 77.538 30.3C77.282 30.396 76.994 30.404 76.674 30.324C76.53 30.292 76.402 30.236 76.29 30.156C76.178 30.076 76.058 29.996 75.93 29.916C75.818 29.82 75.682 29.732 75.522 29.652C75.378 29.572 75.186 29.516 74.946 29.484C74.706 29.452 74.442 29.452 74.154 29.484C73.882 29.516 73.634 29.58 73.41 29.676C73.058 29.852 72.778 30.124 72.57 30.492C72.362 30.844 72.226 31.228 72.162 31.644C72.098 32.044 72.106 32.452 72.186 32.868C72.282 33.284 72.458 33.636 72.714 33.924C72.906 34.148 73.154 34.332 73.458 34.476C73.778 34.62 74.082 34.708 74.37 34.74C74.642 34.772 74.914 34.772 75.186 34.74C75.458 34.692 75.722 34.628 75.978 34.548C76.17 34.468 76.386 34.364 76.626 34.236C76.866 34.092 77.098 34.004 77.322 33.972C77.61 33.972 77.834 34.052 77.994 34.212C78.154 34.356 78.266 34.54 78.33 34.764C78.394 34.972 78.402 35.196 78.354 35.436C78.322 35.676 78.234 35.884 78.09 36.06C77.898 36.3 77.626 36.532 77.274 36.756C76.922 36.964 76.586 37.116 76.266 37.212C75.882 37.34 75.45 37.412 74.97 37.428C74.506 37.444 74.066 37.428 73.65 37.38C73.458 37.348 73.258 37.308 73.05 37.26C72.842 37.212 72.642 37.156 72.45 37.092C71.746 36.836 71.154 36.476 70.674 36.012C70.21 35.532 69.85 34.996 69.594 34.404C69.354 33.812 69.218 33.18 69.186 32.508C69.154 31.836 69.234 31.172 69.426 30.516C69.602 29.892 69.818 29.364 70.074 28.932C70.346 28.5 70.658 28.148 71.01 27.876C71.378 27.588 71.786 27.364 72.234 27.204C72.682 27.028 73.178 26.876 73.722 26.748C74.282 26.636 74.874 26.636 75.498 26.748C76.122 26.86 76.682 27.068 77.178 27.372C77.562 27.58 77.882 27.876 78.138 28.26ZM83.3919 26.652C83.9199 26.396 84.4719 26.212 85.0479 26.1C85.6239 25.988 86.1919 25.964 86.7519 26.028C87.3279 26.092 87.8799 26.244 88.4079 26.484C88.9519 26.724 89.4479 27.06 89.8959 27.492C90.2639 27.86 90.5839 28.308 90.8559 28.836C91.1279 29.348 91.3279 29.852 91.4559 30.348C91.7279 31.228 91.7679 32.116 91.5759 33.012C91.3839 33.908 91.0559 34.74 90.5919 35.508C90.3679 35.86 90.0879 36.18 89.7519 36.468C89.4319 36.74 89.0879 36.964 88.7199 37.14C88.2399 37.364 87.7199 37.516 87.1599 37.596C86.5999 37.692 86.0559 37.716 85.5279 37.668C84.5679 37.62 83.7199 37.38 82.9839 36.948C82.2639 36.516 81.6799 35.964 81.2319 35.292C80.7999 34.62 80.5119 33.86 80.3679 33.012C80.2399 32.148 80.2959 31.268 80.5359 30.372C80.7919 29.412 81.1599 28.636 81.6399 28.044C82.1359 27.436 82.7199 26.972 83.3919 26.652ZM84.1119 29.868C83.8719 30.092 83.6879 30.372 83.5599 30.708C83.4319 31.044 83.3519 31.396 83.3199 31.764C83.2879 32.116 83.3119 32.476 83.3919 32.844C83.4879 33.196 83.6319 33.516 83.8239 33.804C83.9839 34.044 84.2719 34.244 84.6879 34.404C85.1039 34.564 85.5359 34.66 85.9839 34.692C86.4959 34.724 86.9439 34.588 87.3279 34.284C87.7119 33.964 87.9999 33.572 88.1919 33.108C88.3999 32.644 88.4959 32.14 88.4799 31.596C88.4639 31.052 88.3199 30.556 88.0479 30.108C87.8559 29.788 87.5839 29.556 87.2319 29.412C86.8959 29.252 86.5359 29.172 86.1519 29.172C85.7839 29.156 85.4159 29.212 85.0479 29.34C84.6799 29.452 84.3679 29.628 84.1119 29.868ZM106.616 31.908C106.648 32.42 106.664 32.908 106.664 33.372C106.664 33.82 106.648 34.3 106.616 34.812C106.616 35.004 106.616 35.22 106.616 35.46C106.616 35.7 106.6 35.932 106.568 36.156C106.536 36.38 106.48 36.588 106.4 36.78C106.32 36.972 106.2 37.124 106.04 37.236C105.848 37.364 105.632 37.452 105.392 37.5C105.152 37.532 104.928 37.516 104.72 37.452C104.512 37.388 104.328 37.268 104.168 37.092C104.024 36.916 103.944 36.668 103.928 36.348C103.88 35.612 103.856 34.876 103.856 34.14C103.856 33.772 103.848 33.42 103.832 33.084C103.832 32.748 103.84 32.276 103.856 31.668C103.856 31.364 103.832 31.02 103.784 30.636C103.736 30.236 103.616 29.956 103.424 29.796C103.28 29.668 103.12 29.596 102.944 29.58C102.768 29.548 102.592 29.564 102.416 29.628C102.256 29.692 102.112 29.812 101.984 29.988C101.856 30.148 101.768 30.356 101.72 30.612C101.72 30.82 101.712 31.036 101.696 31.26C101.696 31.468 101.704 31.668 101.72 31.86C101.736 32.372 101.744 32.86 101.744 33.324C101.744 33.772 101.736 34.252 101.72 34.764C101.704 34.972 101.696 35.196 101.696 35.436C101.712 35.676 101.712 35.916 101.696 36.156C101.68 36.38 101.632 36.588 101.552 36.78C101.488 36.972 101.368 37.124 101.192 37.236C101 37.364 100.792 37.444 100.568 37.476C100.36 37.492 100.16 37.46 99.9684 37.38C99.7924 37.284 99.6324 37.14 99.4884 36.948C99.3604 36.756 99.2884 36.5 99.2724 36.18C99.2404 35.812 99.2164 35.476 99.2004 35.172C99.2004 34.852 99.2004 34.516 99.2004 34.164C99.2004 33.796 99.2084 33.42 99.2244 33.036C99.2404 32.636 99.2324 32.252 99.2004 31.884C99.2004 31.772 99.1924 31.644 99.1764 31.5C99.1764 31.34 99.1684 31.18 99.1524 31.02C99.1524 30.86 99.1364 30.708 99.1044 30.564C99.0884 30.404 99.0564 30.276 99.0084 30.18C98.8804 29.956 98.6484 29.812 98.3124 29.748C97.9924 29.684 97.7204 29.708 97.4964 29.82C97.2724 29.932 97.1044 30.076 96.9924 30.252C96.8804 30.428 96.8004 30.62 96.7524 30.828C96.7044 31.036 96.6804 31.26 96.6804 31.5C96.6804 31.724 96.6804 31.94 96.6804 32.148C96.6804 33.188 96.6804 34.092 96.6804 34.86C96.6964 35.612 96.6164 36.22 96.4404 36.684C96.3604 36.924 96.1924 37.108 95.9364 37.236C95.6964 37.364 95.4324 37.428 95.1444 37.428C94.8724 37.428 94.6164 37.364 94.3764 37.236C94.1364 37.108 93.9764 36.908 93.8964 36.636C93.8484 36.46 93.8004 36.212 93.7524 35.892C93.7204 35.556 93.6964 35.188 93.6804 34.788C93.6644 34.388 93.6564 33.988 93.6564 33.588C93.6564 33.172 93.6564 32.796 93.6564 32.46V29.004C93.6404 28.636 93.6324 28.236 93.6324 27.804C93.6324 27.372 93.6964 26.98 93.8244 26.628C93.9364 26.324 94.1124 26.132 94.3524 26.052C94.5924 25.956 94.8404 25.916 95.0964 25.932C95.3844 25.932 95.6084 26.012 95.7684 26.172C95.9444 26.316 96.0724 26.5 96.1524 26.724C96.2324 26.932 96.2804 27.172 96.2964 27.444C96.3124 27.7 96.3284 27.948 96.3444 28.188C96.5204 27.788 96.7284 27.46 96.9684 27.204C97.2244 26.932 97.5844 26.756 98.0484 26.676C99.2324 26.452 100.176 26.756 100.88 27.588C101.2 27.268 101.608 27.004 102.104 26.796C102.488 26.652 102.88 26.588 103.28 26.604C103.68 26.604 104.056 26.676 104.408 26.82C104.776 26.964 105.104 27.172 105.392 27.444C105.696 27.716 105.936 28.044 106.112 28.428C106.352 28.94 106.488 29.508 106.52 30.132C106.552 30.756 106.584 31.348 106.616 31.908ZM121.593 31.908C121.625 32.42 121.641 32.908 121.641 33.372C121.641 33.82 121.625 34.3 121.593 34.812C121.593 35.004 121.593 35.22 121.593 35.46C121.593 35.7 121.577 35.932 121.545 36.156C121.513 36.38 121.457 36.588 121.377 36.78C121.297 36.972 121.177 37.124 121.017 37.236C120.825 37.364 120.609 37.452 120.369 37.5C120.129 37.532 119.905 37.516 119.697 37.452C119.489 37.388 119.305 37.268 119.145 37.092C119.001 36.916 118.921 36.668 118.905 36.348C118.857 35.612 118.833 34.876 118.833 34.14C118.833 33.772 118.825 33.42 118.809 33.084C118.809 32.748 118.817 32.276 118.833 31.668C118.833 31.364 118.809 31.02 118.761 30.636C118.713 30.236 118.593 29.956 118.401 29.796C118.257 29.668 118.097 29.596 117.921 29.58C117.745 29.548 117.569 29.564 117.393 29.628C117.233 29.692 117.089 29.812 116.961 29.988C116.833 30.148 116.745 30.356 116.697 30.612C116.697 30.82 116.689 31.036 116.673 31.26C116.673 31.468 116.681 31.668 116.697 31.86C116.713 32.372 116.721 32.86 116.721 33.324C116.721 33.772 116.713 34.252 116.697 34.764C116.681 34.972 116.673 35.196 116.673 35.436C116.689 35.676 116.689 35.916 116.673 36.156C116.657 36.38 116.609 36.588 116.529 36.78C116.465 36.972 116.345 37.124 116.169 37.236C115.977 37.364 115.769 37.444 115.545 37.476C115.337 37.492 115.137 37.46 114.945 37.38C114.769 37.284 114.609 37.14 114.465 36.948C114.337 36.756 114.265 36.5 114.249 36.18C114.217 35.812 114.193 35.476 114.177 35.172C114.177 34.852 114.177 34.516 114.177 34.164C114.177 33.796 114.185 33.42 114.201 33.036C114.217 32.636 114.209 32.252 114.177 31.884C114.177 31.772 114.169 31.644 114.153 31.5C114.153 31.34 114.145 31.18 114.129 31.02C114.129 30.86 114.113 30.708 114.081 30.564C114.065 30.404 114.033 30.276 113.985 30.18C113.857 29.956 113.625 29.812 113.289 29.748C112.969 29.684 112.697 29.708 112.473 29.82C112.249 29.932 112.081 30.076 111.969 30.252C111.857 30.428 111.777 30.62 111.729 30.828C111.681 31.036 111.657 31.26 111.657 31.5C111.657 31.724 111.657 31.94 111.657 32.148C111.657 33.188 111.657 34.092 111.657 34.86C111.673 35.612 111.593 36.22 111.417 36.684C111.337 36.924 111.169 37.108 110.913 37.236C110.673 37.364 110.409 37.428 110.121 37.428C109.849 37.428 109.593 37.364 109.353 37.236C109.113 37.108 108.953 36.908 108.873 36.636C108.825 36.46 108.777 36.212 108.729 35.892C108.697 35.556 108.673 35.188 108.657 34.788C108.641 34.388 108.633 33.988 108.633 33.588C108.633 33.172 108.633 32.796 108.633 32.46V29.004C108.617 28.636 108.609 28.236 108.609 27.804C108.609 27.372 108.673 26.98 108.801 26.628C108.913 26.324 109.089 26.132 109.329 26.052C109.569 25.956 109.817 25.916 110.073 25.932C110.361 25.932 110.585 26.012 110.745 26.172C110.921 26.316 111.049 26.5 111.129 26.724C111.209 26.932 111.257 27.172 111.273 27.444C111.289 27.7 111.305 27.948 111.321 28.188C111.497 27.788 111.705 27.46 111.945 27.204C112.201 26.932 112.561 26.756 113.025 26.676C114.209 26.452 115.153 26.756 115.857 27.588C116.177 27.268 116.585 27.004 117.081 26.796C117.465 26.652 117.857 26.588 118.257 26.604C118.657 26.604 119.033 26.676 119.385 26.82C119.753 26.964 120.081 27.172 120.369 27.444C120.673 27.716 120.913 28.044 121.089 28.428C121.329 28.94 121.465 29.508 121.497 30.132C121.529 30.756 121.561 31.348 121.593 31.908ZM133.426 31.788C133.394 32.316 133.362 32.852 133.33 33.396C133.298 33.924 133.21 34.436 133.066 34.932C132.938 35.428 132.73 35.876 132.442 36.276C132.17 36.676 131.778 36.996 131.266 37.236C130.818 37.46 130.338 37.612 129.826 37.692C129.314 37.788 128.802 37.828 128.29 37.812C127.778 37.796 127.282 37.716 126.802 37.572C126.322 37.444 125.89 37.26 125.506 37.02C125.122 36.78 124.81 36.468 124.57 36.084C124.33 35.7 124.138 35.284 123.994 34.836C123.866 34.388 123.778 33.924 123.73 33.444C123.682 32.964 123.65 32.516 123.634 32.1C123.57 30.996 123.57 29.908 123.634 28.836C123.634 28.628 123.634 28.396 123.634 28.14C123.634 27.868 123.65 27.604 123.682 27.348C123.73 27.092 123.802 26.86 123.898 26.652C123.994 26.428 124.154 26.26 124.378 26.148C124.858 25.892 125.298 25.876 125.698 26.1C126.114 26.324 126.362 26.788 126.442 27.492C126.49 27.86 126.506 28.268 126.49 28.716C126.49 29.164 126.506 29.572 126.538 29.94C126.554 30.484 126.57 31.076 126.586 31.716C126.602 32.34 126.69 32.9 126.85 33.396C127.026 33.892 127.306 34.268 127.69 34.524C128.09 34.764 128.682 34.772 129.466 34.548C129.834 34.436 130.074 34.156 130.186 33.708C130.314 33.26 130.378 32.596 130.378 31.716C130.378 31.332 130.37 30.908 130.354 30.444C130.338 29.98 130.33 29.524 130.33 29.076C130.33 28.612 130.338 28.188 130.354 27.804C130.386 27.404 130.434 27.1 130.498 26.892C130.578 26.604 130.746 26.388 131.002 26.244C131.258 26.1 131.53 26.028 131.818 26.028C132.106 26.012 132.378 26.068 132.634 26.196C132.89 26.324 133.066 26.532 133.162 26.82C133.258 27.076 133.322 27.404 133.354 27.804C133.402 28.188 133.434 28.612 133.45 29.076C133.466 29.524 133.466 29.988 133.45 30.468C133.45 30.932 133.442 31.372 133.426 31.788ZM135.937 28.932C135.937 28.564 135.929 28.172 135.913 27.756C135.913 27.34 135.985 26.964 136.129 26.628C136.257 26.324 136.465 26.108 136.753 25.98C137.057 25.836 137.353 25.804 137.641 25.884C137.929 25.932 138.153 26.02 138.313 26.148C138.473 26.276 138.585 26.428 138.649 26.604C138.729 26.764 138.777 26.956 138.793 27.18C138.809 27.388 138.825 27.596 138.841 27.804C139.001 27.516 139.201 27.284 139.441 27.108C139.681 26.932 139.929 26.788 140.185 26.676C140.441 26.564 140.681 26.484 140.905 26.436C141.145 26.388 141.329 26.364 141.457 26.364C142.065 26.364 142.665 26.5 143.257 26.772C143.865 27.028 144.369 27.396 144.769 27.876C144.993 28.164 145.161 28.468 145.273 28.788C145.401 29.092 145.489 29.412 145.537 29.748C145.601 30.084 145.641 30.428 145.657 30.78C145.673 31.116 145.689 31.46 145.705 31.812C145.785 32.836 145.785 33.852 145.705 34.86C145.689 35.068 145.681 35.308 145.681 35.58C145.681 35.852 145.657 36.124 145.609 36.396C145.577 36.652 145.505 36.884 145.393 37.092C145.297 37.284 145.129 37.404 144.889 37.452C144.553 37.532 144.273 37.548 144.049 37.5C143.841 37.468 143.673 37.396 143.545 37.284C143.417 37.172 143.321 37.028 143.257 36.852C143.193 36.676 143.137 36.476 143.089 36.252C143.057 36.076 143.025 35.876 142.993 35.652C142.977 35.412 142.961 35.172 142.945 34.932C142.945 34.692 142.937 34.46 142.921 34.236C142.921 33.996 142.921 33.78 142.921 33.588C142.921 33.284 142.913 32.948 142.897 32.58C142.881 32.212 142.881 31.868 142.897 31.548C142.897 30.796 142.697 30.228 142.297 29.844C141.913 29.444 141.385 29.276 140.713 29.34C140.201 29.404 139.753 29.612 139.369 29.964C138.985 30.3 138.801 30.74 138.817 31.284C138.817 31.492 138.817 31.684 138.817 31.86C138.817 32.036 138.809 32.212 138.793 32.388C138.793 32.564 138.793 32.756 138.793 32.964C138.793 33.172 138.793 33.404 138.793 33.66C138.793 34.188 138.793 34.748 138.793 35.34C138.793 35.916 138.721 36.388 138.577 36.756C138.449 37.14 138.233 37.404 137.929 37.548C137.625 37.692 137.265 37.652 136.849 37.428C136.673 37.332 136.529 37.204 136.417 37.044C136.321 36.868 136.241 36.684 136.177 36.492C136.129 36.3 136.097 36.108 136.081 35.916C136.065 35.708 136.049 35.516 136.033 35.34C135.985 34.812 135.953 34.324 135.937 33.876C135.937 33.412 135.937 32.916 135.937 32.388V28.932ZM150.726 28.404C150.726 28.852 150.726 29.356 150.726 29.916C150.742 30.476 150.75 31.06 150.75 31.668C150.75 32.26 150.75 32.852 150.75 33.444C150.75 34.02 150.742 34.556 150.726 35.052C150.71 35.292 150.686 35.556 150.654 35.844C150.622 36.116 150.558 36.372 150.462 36.612C150.366 36.852 150.214 37.052 150.006 37.212C149.814 37.356 149.55 37.42 149.214 37.404C148.718 37.372 148.358 37.156 148.134 36.756C147.926 36.356 147.806 35.796 147.774 35.076C147.774 34.708 147.766 34.284 147.75 33.804C147.75 33.324 147.742 32.836 147.726 32.34C147.726 31.844 147.726 31.364 147.726 30.9C147.726 30.42 147.726 29.988 147.726 29.604C147.726 29.38 147.718 29.108 147.702 28.788C147.702 28.468 147.71 28.14 147.726 27.804C147.742 27.468 147.782 27.148 147.846 26.844C147.91 26.524 148.014 26.26 148.158 26.052C148.27 25.924 148.43 25.828 148.638 25.764C148.846 25.684 149.062 25.644 149.286 25.644C149.526 25.644 149.75 25.684 149.958 25.764C150.182 25.844 150.342 25.956 150.438 26.1C150.502 26.196 150.55 26.332 150.582 26.508C150.614 26.684 150.638 26.884 150.654 27.108C150.686 27.316 150.702 27.54 150.702 27.78C150.718 28.004 150.726 28.212 150.726 28.404ZM149.814 23.556C149.318 23.684 148.902 23.636 148.566 23.412C148.246 23.172 148.046 22.82 147.966 22.356C147.902 22.02 147.926 21.724 148.038 21.468C148.15 21.212 148.318 21.02 148.542 20.892C148.766 20.748 149.022 20.684 149.31 20.7C149.598 20.716 149.886 20.828 150.174 21.036C150.446 21.228 150.638 21.452 150.75 21.708C150.878 21.964 150.918 22.212 150.87 22.452C150.838 22.692 150.734 22.916 150.558 23.124C150.382 23.316 150.134 23.46 149.814 23.556ZM163.083 26.916C163.211 27.22 163.219 27.556 163.107 27.924C163.011 28.292 162.827 28.532 162.555 28.644C162.411 28.708 162.219 28.764 161.979 28.812C161.739 28.844 161.475 28.876 161.187 28.908C160.915 28.94 160.643 28.964 160.371 28.98C160.099 28.996 159.867 29.004 159.675 29.004C159.691 29.484 159.707 29.98 159.723 30.492C159.739 30.988 159.755 31.476 159.771 31.956C159.787 32.436 159.795 32.9 159.795 33.348C159.795 33.78 159.787 34.172 159.771 34.524C159.771 34.764 159.771 35.044 159.771 35.364C159.771 35.668 159.747 35.964 159.699 36.252C159.667 36.54 159.611 36.796 159.531 37.02C159.451 37.228 159.331 37.364 159.171 37.428C158.675 37.636 158.219 37.692 157.803 37.596C157.403 37.516 157.115 37.348 156.939 37.092C156.811 36.884 156.715 36.644 156.651 36.372C156.587 36.084 156.539 35.796 156.507 35.508C156.491 35.204 156.483 34.916 156.483 34.644C156.499 34.356 156.507 34.108 156.507 33.9C156.523 33.228 156.531 32.468 156.531 31.62C156.547 30.756 156.555 29.892 156.555 29.028H156.195C156.003 29.028 155.755 29.028 155.451 29.028C155.163 29.012 154.867 28.988 154.563 28.956C154.275 28.908 154.003 28.852 153.747 28.788C153.491 28.708 153.307 28.596 153.195 28.452C153.019 28.244 152.907 28.02 152.859 27.78C152.827 27.54 152.843 27.316 152.907 27.108C152.987 26.884 153.107 26.692 153.267 26.532C153.427 26.356 153.611 26.244 153.819 26.196C154.107 26.116 154.515 26.076 155.043 26.076C155.571 26.06 156.067 26.06 156.531 26.076C156.515 25.916 156.507 25.764 156.507 25.62C156.507 25.46 156.499 25.308 156.483 25.164C156.467 24.972 156.459 24.732 156.459 24.444C156.459 24.14 156.475 23.844 156.507 23.556C156.555 23.252 156.627 22.972 156.723 22.716C156.819 22.444 156.955 22.236 157.131 22.092C157.371 21.9 157.611 21.796 157.851 21.78C158.107 21.748 158.339 21.78 158.547 21.876C158.771 21.972 158.955 22.116 159.099 22.308C159.259 22.484 159.371 22.684 159.435 22.908C159.483 23.1 159.523 23.332 159.555 23.604C159.587 23.86 159.603 24.132 159.603 24.42C159.619 24.708 159.627 24.996 159.627 25.284C159.627 25.572 159.627 25.836 159.627 26.076H159.867C160.107 26.076 160.387 26.068 160.707 26.052C161.027 26.036 161.339 26.044 161.643 26.076C161.963 26.108 162.251 26.188 162.507 26.316C162.763 26.428 162.955 26.628 163.083 26.916ZM175.359 26.796C175.503 27.02 175.567 27.26 175.551 27.516C175.551 27.884 175.487 28.204 175.359 28.476C175.327 28.556 175.279 28.66 175.215 28.788C175.167 28.916 175.111 29.052 175.047 29.196C174.999 29.34 174.943 29.476 174.879 29.604C174.815 29.732 174.767 29.828 174.735 29.892L174.687 30.012C174.463 30.508 174.247 30.988 174.039 31.452C173.831 31.916 173.599 32.412 173.343 32.94C173.087 33.452 172.839 33.956 172.599 34.452C172.375 34.932 172.151 35.404 171.927 35.868C171.863 35.996 171.807 36.124 171.759 36.252C171.711 36.364 171.647 36.484 171.567 36.612L170.415 39.084C170.207 39.5 170.007 39.908 169.815 40.308C169.639 40.708 169.439 41.108 169.215 41.508C169.167 41.588 169.119 41.66 169.071 41.724C169.039 41.804 169.007 41.884 168.975 41.964C168.863 42.156 168.695 42.34 168.471 42.516C168.263 42.708 168.039 42.812 167.799 42.828C167.367 42.86 166.991 42.732 166.671 42.444C166.479 42.332 166.327 42.172 166.215 41.964C166.151 41.82 166.119 41.636 166.119 41.412C166.135 41.316 166.143 41.22 166.143 41.124C166.159 41.044 166.175 40.964 166.191 40.884C166.223 40.804 166.247 40.724 166.263 40.644C166.279 40.564 166.303 40.5 166.335 40.452C166.383 40.324 166.423 40.26 166.455 40.26L168.207 36.468C168.127 36.292 168.047 36.116 167.967 35.94C167.887 35.748 167.815 35.58 167.751 35.436C167.543 34.94 167.319 34.42 167.079 33.876C166.855 33.316 166.623 32.764 166.383 32.22C166.143 31.66 165.895 31.116 165.639 30.588C165.383 30.06 165.127 29.556 164.871 29.076C164.775 28.916 164.687 28.748 164.607 28.572C164.527 28.38 164.463 28.196 164.415 28.02C164.367 27.828 164.351 27.636 164.367 27.444C164.383 27.252 164.455 27.06 164.583 26.868C164.711 26.628 164.879 26.46 165.087 26.364C165.295 26.252 165.511 26.204 165.735 26.22C165.975 26.22 166.199 26.268 166.407 26.364C166.615 26.46 166.783 26.588 166.911 26.748C167.183 27.036 167.399 27.356 167.559 27.708C167.719 28.06 167.871 28.42 168.015 28.788C168.319 29.428 168.631 30.1 168.951 30.804C169.271 31.508 169.591 32.196 169.911 32.868L171.159 30.228C171.287 29.972 171.399 29.724 171.495 29.484C171.607 29.244 171.719 29.012 171.831 28.788C171.959 28.516 172.079 28.236 172.191 27.948C172.319 27.66 172.463 27.396 172.623 27.156C172.655 27.092 172.687 27.036 172.719 26.988C172.751 26.94 172.783 26.884 172.815 26.82C172.959 26.628 173.087 26.476 173.199 26.364C173.279 26.3 173.343 26.252 173.391 26.22C173.455 26.172 173.527 26.14 173.607 26.124C173.719 26.092 173.823 26.076 173.919 26.076C174.031 26.06 174.135 26.06 174.231 26.076C174.391 26.124 174.583 26.196 174.807 26.292C175.047 26.388 175.231 26.556 175.359 26.796Z" fill="black"/>
</g>
<defs>
<filter id="filter0_g_226_10160" x="0" y="0" width="198" height="61" filterUnits="userSpaceOnUse" color-interpolation-filters="sRGB">
<feFlood flood-opacity="0" result="BackgroundImageFix"/>
<feBlend mode="normal" in="SourceGraphic" in2="BackgroundImageFix" result="shape"/>
<feTurbulence type="fractalNoise" baseFrequency="0.011363636702299118 0.011363636702299118" numOctaves="3" seed="6061" />
<feDisplacementMap in="shape" scale="8" xChannelSelector="R" yChannelSelector="G" result="displacedImage" width="100%" height="100%" />
<feMerge result="effect1_texture_226_10160">
<feMergeNode in="displacedImage"/>
</feMerge>
</filter>
</defs>
</svg>
