<svg width="147" height="61" viewBox="0 0 147 61" fill="none" xmlns="http://www.w3.org/2000/svg">
<g filter="url(#filter0_g_226_10163)">
<rect x="4" y="4" width="139" height="53" rx="26.5" fill="#FEC400"/>
<rect x="7" y="7" width="133" height="47" rx="23.5" stroke="black" stroke-width="6"/>
<path d="M29.708 21.252C29.884 21.46 29.972 21.676 29.972 21.9C29.972 21.996 29.964 22.1 29.948 22.212C29.948 22.308 29.94 22.396 29.924 22.476C29.876 22.652 29.772 22.82 29.612 22.98C29.484 23.076 29.308 23.148 29.084 23.196C28.972 23.228 28.86 23.252 28.748 23.268C28.636 23.284 28.516 23.308 28.388 23.34C28.276 23.356 28.164 23.364 28.052 23.364C27.94 23.364 27.82 23.364 27.692 23.364H26.468C26.18 23.38 25.892 23.388 25.604 23.388C25.332 23.388 25.06 23.388 24.788 23.388C24.804 23.884 24.812 24.42 24.812 24.996C24.812 25.556 24.804 26.212 24.788 26.964C24.788 27.716 24.78 28.588 24.764 29.58C24.764 30.572 24.764 31.724 24.764 33.036V34.86C24.764 35.02 24.772 35.14 24.788 35.22C24.788 35.284 24.788 35.348 24.788 35.412C24.788 35.46 24.78 35.524 24.764 35.604C24.732 35.748 24.708 35.916 24.692 36.108C24.692 36.188 24.684 36.268 24.668 36.348C24.652 36.412 24.628 36.484 24.596 36.564C24.532 36.628 24.5 36.676 24.5 36.708L24.428 36.852C24.348 37.012 24.196 37.164 23.972 37.308C23.62 37.484 23.228 37.524 22.796 37.428C22.524 37.396 22.316 37.324 22.172 37.212C22.028 37.068 21.924 36.924 21.86 36.78C21.764 36.604 21.708 36.436 21.692 36.276C21.644 36.132 21.62 35.98 21.62 35.82V23.484C21.524 23.484 21.324 23.484 21.02 23.484C20.716 23.484 20.388 23.484 20.036 23.484C19.7 23.468 19.38 23.452 19.076 23.436C18.772 23.42 18.564 23.404 18.452 23.388C18.356 23.372 18.204 23.348 17.996 23.316C17.804 23.284 17.644 23.252 17.516 23.22C17.18 23.124 16.916 22.972 16.724 22.764C16.548 22.556 16.46 22.324 16.46 22.068C16.46 21.972 16.46 21.876 16.46 21.78C16.46 21.684 16.476 21.596 16.508 21.516C16.556 21.324 16.684 21.164 16.892 21.036C16.956 20.988 17.052 20.932 17.18 20.868C17.324 20.788 17.46 20.732 17.588 20.7C17.78 20.636 18.02 20.588 18.308 20.556C18.436 20.54 18.564 20.532 18.692 20.532C18.82 20.532 18.956 20.532 19.1 20.532C19.66 20.532 20.188 20.532 20.684 20.532C21.196 20.532 21.732 20.524 22.292 20.508C23.22 20.492 24.14 20.492 25.052 20.508C25.98 20.508 26.9 20.524 27.812 20.556C28.02 20.572 28.22 20.596 28.412 20.628C28.604 20.66 28.796 20.716 28.988 20.796C29.132 20.844 29.268 20.908 29.396 20.988C29.524 21.052 29.628 21.14 29.708 21.252ZM31.8841 26.652C32.4121 26.396 32.9641 26.212 33.5401 26.1C34.1161 25.988 34.6841 25.964 35.2441 26.028C35.8201 26.092 36.3721 26.244 36.9001 26.484C37.4441 26.724 37.9401 27.06 38.3881 27.492C38.7561 27.86 39.0761 28.308 39.3481 28.836C39.6201 29.348 39.8201 29.852 39.9481 30.348C40.2201 31.228 40.2601 32.116 40.0681 33.012C39.8761 33.908 39.5481 34.74 39.0841 35.508C38.8601 35.86 38.5801 36.18 38.2441 36.468C37.9241 36.74 37.5801 36.964 37.2121 37.14C36.7321 37.364 36.2121 37.516 35.6521 37.596C35.0921 37.692 34.5481 37.716 34.0201 37.668C33.0601 37.62 32.2121 37.38 31.4761 36.948C30.7561 36.516 30.1721 35.964 29.7241 35.292C29.2921 34.62 29.0041 33.86 28.8601 33.012C28.7321 32.148 28.7881 31.268 29.0281 30.372C29.2841 29.412 29.6521 28.636 30.1321 28.044C30.6281 27.436 31.2121 26.972 31.8841 26.652ZM32.6041 29.868C32.3641 30.092 32.1801 30.372 32.0521 30.708C31.9241 31.044 31.8441 31.396 31.8121 31.764C31.7801 32.116 31.8041 32.476 31.8841 32.844C31.9801 33.196 32.1241 33.516 32.3161 33.804C32.4761 34.044 32.7641 34.244 33.1801 34.404C33.5961 34.564 34.0281 34.66 34.4761 34.692C34.9881 34.724 35.4361 34.588 35.8201 34.284C36.2041 33.964 36.4921 33.572 36.6841 33.108C36.8921 32.644 36.9881 32.14 36.9721 31.596C36.9561 31.052 36.8121 30.556 36.5401 30.108C36.3481 29.788 36.0761 29.556 35.7241 29.412C35.3881 29.252 35.0281 29.172 34.6441 29.172C34.2761 29.156 33.9081 29.212 33.5401 29.34C33.1721 29.452 32.8601 29.628 32.6041 29.868ZM46.8766 31.98C47.2286 32.348 47.4846 32.62 47.6446 32.796C47.8206 32.956 47.9406 33.076 48.0046 33.156C48.0846 33.236 48.1406 33.284 48.1726 33.3C48.2046 33.316 48.2606 33.364 48.3406 33.444C48.4206 33.524 48.5486 33.652 48.7246 33.828C48.9006 33.988 49.1646 34.252 49.5166 34.62C49.8046 34.908 50.0366 35.244 50.2126 35.628C50.4046 35.996 50.3886 36.396 50.1646 36.828C50.0366 37.052 49.8926 37.212 49.7326 37.308C49.5726 37.388 49.3966 37.42 49.2046 37.404C49.0286 37.388 48.8366 37.332 48.6286 37.236C48.4366 37.14 48.2446 37.02 48.0526 36.876C47.6846 36.604 47.3326 36.292 46.9966 35.94C46.6606 35.572 46.3886 35.292 46.1806 35.1C46.0366 34.956 45.9486 34.86 45.9166 34.812C45.8846 34.78 45.8526 34.756 45.8206 34.74C45.7886 34.708 45.7566 34.676 45.7246 34.644C45.6126 34.532 45.4926 34.42 45.3646 34.308C45.2366 34.196 45.1086 34.076 44.9806 33.948V34.884C44.9806 35.06 44.9886 35.188 45.0046 35.268C45.0046 35.428 44.9966 35.548 44.9806 35.628C44.9326 35.804 44.9086 35.972 44.9086 36.132C44.8926 36.212 44.8766 36.292 44.8606 36.372C44.8446 36.436 44.8206 36.508 44.7886 36.588C44.7726 36.62 44.7566 36.644 44.7406 36.66C44.7406 36.676 44.7406 36.7 44.7406 36.732C44.7246 36.764 44.7086 36.788 44.6926 36.804C44.6926 36.82 44.6846 36.844 44.6686 36.876C44.5886 37.036 44.4606 37.188 44.2846 37.332C43.9806 37.508 43.6046 37.556 43.1566 37.476C42.9166 37.428 42.7326 37.34 42.6046 37.212C42.4606 37.116 42.3646 36.98 42.3166 36.804C42.2846 36.724 42.2526 36.644 42.2206 36.564C42.2046 36.468 42.1806 36.38 42.1486 36.3C42.1166 36.22 42.1006 36.148 42.1006 36.084C42.1006 36.004 42.1006 35.94 42.1006 35.892V22.236C42.1006 22.14 42.1006 22.044 42.1006 21.948C42.1006 21.852 42.1086 21.756 42.1246 21.66C42.1406 21.564 42.1566 21.476 42.1726 21.396C42.2046 21.3 42.2366 21.212 42.2686 21.132C42.3326 20.972 42.4126 20.844 42.5086 20.748C42.5886 20.668 42.6686 20.612 42.7486 20.58C42.8446 20.532 42.9326 20.492 43.0126 20.46C43.0926 20.444 43.1806 20.436 43.2766 20.436C43.3886 20.42 43.4926 20.412 43.5886 20.412C43.8126 20.412 44.0366 20.476 44.2606 20.604C44.4686 20.748 44.6206 20.932 44.7166 21.156C44.8446 21.46 44.9086 21.756 44.9086 22.044C44.9246 22.204 44.9406 22.452 44.9566 22.788C44.9726 23.108 44.9806 23.348 44.9806 23.508V23.604C44.9966 24.132 45.0046 24.636 45.0046 25.116C45.0046 25.596 45.0046 26.116 45.0046 26.676C44.9886 27.236 44.9806 27.772 44.9806 28.284C44.9806 28.78 44.9806 29.276 44.9806 29.772V30.036C45.1086 29.908 45.2366 29.788 45.3646 29.676C45.4926 29.564 45.6126 29.444 45.7246 29.316C45.7886 29.268 45.8526 29.212 45.9166 29.148L46.1806 28.884C46.3886 28.676 46.6606 28.396 46.9966 28.044C47.3326 27.676 47.6846 27.356 48.0526 27.084C48.4526 26.796 48.8366 26.62 49.2046 26.556C49.5886 26.492 49.9086 26.684 50.1646 27.132C50.3886 27.564 50.4046 27.972 50.2126 28.356C50.0366 28.724 49.8046 29.068 49.5166 29.388C49.1646 29.756 48.9006 30.028 48.7246 30.204C48.5486 30.364 48.4206 30.484 48.3406 30.564C48.2606 30.628 48.2046 30.668 48.1726 30.684C48.1406 30.7 48.0846 30.748 48.0046 30.828C47.9406 30.892 47.8206 31.012 47.6446 31.188C47.4846 31.348 47.2286 31.612 46.8766 31.98ZM60.5765 34.212C60.7685 34.164 60.9605 34.132 61.1525 34.116C61.3605 34.1 61.5445 34.124 61.7045 34.188C61.8805 34.252 62.0245 34.364 62.1365 34.524C62.2485 34.668 62.3045 34.876 62.3045 35.148C62.3045 35.34 62.2565 35.524 62.1605 35.7C62.0645 35.876 61.9445 36.036 61.8005 36.18C61.6565 36.324 61.4965 36.452 61.3205 36.564C61.1445 36.66 60.9765 36.74 60.8165 36.804C60.3525 37.012 59.8165 37.172 59.2085 37.284C58.6165 37.396 58.0005 37.436 57.3605 37.404C56.4965 37.372 55.6645 37.204 54.8645 36.9C54.0805 36.58 53.4645 36.06 53.0165 35.34C52.6005 34.636 52.3525 33.852 52.2725 32.988C52.1925 32.124 52.2325 31.308 52.3925 30.54C52.5685 29.612 52.8645 28.86 53.2805 28.284C53.7125 27.692 54.2245 27.22 54.8165 26.868C55.5365 26.452 56.3445 26.236 57.2405 26.22C58.1365 26.204 58.9925 26.38 59.8085 26.748C60.3525 26.988 60.8405 27.316 61.2725 27.732C61.7045 28.132 62.0325 28.62 62.2565 29.196C62.3205 29.34 62.3685 29.516 62.4005 29.724C62.4485 29.932 62.4805 30.156 62.4965 30.396C62.5125 30.62 62.5125 30.844 62.4965 31.068C62.4805 31.292 62.4405 31.492 62.3765 31.668C62.2805 31.956 62.1605 32.18 62.0165 32.34C61.8725 32.5 61.6885 32.62 61.4645 32.7C61.2405 32.78 60.9685 32.836 60.6485 32.868C60.3445 32.884 59.9765 32.9 59.5445 32.916C59.1605 32.932 58.8005 32.94 58.4645 32.94C58.1285 32.94 57.7845 32.94 57.4325 32.94C57.0805 32.924 56.7125 32.916 56.3285 32.916C55.9605 32.9 55.5445 32.884 55.0805 32.868C55.0325 33.188 55.0725 33.468 55.2005 33.708C55.3445 33.932 55.5365 34.124 55.7765 34.284C56.0165 34.428 56.2885 34.54 56.5925 34.62C56.8965 34.7 57.1925 34.748 57.4805 34.764C58.0245 34.796 58.5445 34.756 59.0405 34.644C59.5365 34.516 60.0485 34.372 60.5765 34.212ZM59.5445 29.556C59.2405 29.204 58.9205 28.948 58.5845 28.788C58.3285 28.676 58.0565 28.628 57.7685 28.644C57.4965 28.644 57.2325 28.684 56.9765 28.764C56.5125 28.876 56.1205 29.116 55.8005 29.484C55.7685 29.516 55.7125 29.596 55.6325 29.724C55.5525 29.836 55.4725 29.956 55.3925 30.084C55.3285 30.212 55.2805 30.332 55.2485 30.444C55.2165 30.556 55.2325 30.612 55.2965 30.612H60.0005C59.9845 30.388 59.9445 30.204 59.8805 30.06C59.8165 29.9 59.7045 29.732 59.5445 29.556ZM64.4606 28.932C64.4606 28.564 64.4526 28.172 64.4366 27.756C64.4366 27.34 64.5086 26.964 64.6526 26.628C64.7806 26.324 64.9886 26.108 65.2766 25.98C65.5806 25.836 65.8766 25.804 66.1646 25.884C66.4526 25.932 66.6766 26.02 66.8366 26.148C66.9966 26.276 67.1086 26.428 67.1726 26.604C67.2526 26.764 67.3006 26.956 67.3166 27.18C67.3326 27.388 67.3486 27.596 67.3646 27.804C67.5246 27.516 67.7246 27.284 67.9646 27.108C68.2046 26.932 68.4526 26.788 68.7086 26.676C68.9646 26.564 69.2046 26.484 69.4286 26.436C69.6686 26.388 69.8526 26.364 69.9806 26.364C70.5886 26.364 71.1886 26.5 71.7806 26.772C72.3886 27.028 72.8926 27.396 73.2926 27.876C73.5166 28.164 73.6846 28.468 73.7966 28.788C73.9246 29.092 74.0126 29.412 74.0606 29.748C74.1246 30.084 74.1646 30.428 74.1806 30.78C74.1966 31.116 74.2126 31.46 74.2286 31.812C74.3086 32.836 74.3086 33.852 74.2286 34.86C74.2126 35.068 74.2046 35.308 74.2046 35.58C74.2046 35.852 74.1806 36.124 74.1326 36.396C74.1006 36.652 74.0286 36.884 73.9166 37.092C73.8206 37.284 73.6526 37.404 73.4126 37.452C73.0766 37.532 72.7966 37.548 72.5726 37.5C72.3646 37.468 72.1966 37.396 72.0686 37.284C71.9406 37.172 71.8446 37.028 71.7806 36.852C71.7166 36.676 71.6606 36.476 71.6126 36.252C71.5806 36.076 71.5486 35.876 71.5166 35.652C71.5006 35.412 71.4846 35.172 71.4686 34.932C71.4686 34.692 71.4606 34.46 71.4446 34.236C71.4446 33.996 71.4446 33.78 71.4446 33.588C71.4446 33.284 71.4366 32.948 71.4206 32.58C71.4046 32.212 71.4046 31.868 71.4206 31.548C71.4206 30.796 71.2206 30.228 70.8206 29.844C70.4366 29.444 69.9086 29.276 69.2366 29.34C68.7246 29.404 68.2766 29.612 67.8926 29.964C67.5086 30.3 67.3246 30.74 67.3406 31.284C67.3406 31.492 67.3406 31.684 67.3406 31.86C67.3406 32.036 67.3326 32.212 67.3166 32.388C67.3166 32.564 67.3166 32.756 67.3166 32.964C67.3166 33.172 67.3166 33.404 67.3166 33.66C67.3166 34.188 67.3166 34.748 67.3166 35.34C67.3166 35.916 67.2446 36.388 67.1006 36.756C66.9726 37.14 66.7566 37.404 66.4526 37.548C66.1486 37.692 65.7886 37.652 65.3726 37.428C65.1966 37.332 65.0526 37.204 64.9406 37.044C64.8446 36.868 64.7646 36.684 64.7006 36.492C64.6526 36.3 64.6206 36.108 64.6046 35.916C64.5886 35.708 64.5726 35.516 64.5566 35.34C64.5086 34.812 64.4766 34.324 64.4606 33.876C64.4606 33.412 64.4606 32.916 64.4606 32.388V28.932ZM79.3216 26.652C79.8496 26.396 80.4016 26.212 80.9776 26.1C81.5536 25.988 82.1216 25.964 82.6816 26.028C83.2576 26.092 83.8096 26.244 84.3376 26.484C84.8816 26.724 85.3776 27.06 85.8256 27.492C86.1936 27.86 86.5136 28.308 86.7856 28.836C87.0576 29.348 87.2576 29.852 87.3856 30.348C87.6576 31.228 87.6976 32.116 87.5056 33.012C87.3136 33.908 86.9856 34.74 86.5216 35.508C86.2976 35.86 86.0176 36.18 85.6816 36.468C85.3616 36.74 85.0176 36.964 84.6496 37.14C84.1696 37.364 83.6496 37.516 83.0896 37.596C82.5296 37.692 81.9856 37.716 81.4576 37.668C80.4976 37.62 79.6496 37.38 78.9136 36.948C78.1936 36.516 77.6096 35.964 77.1616 35.292C76.7296 34.62 76.4416 33.86 76.2976 33.012C76.1696 32.148 76.2256 31.268 76.4656 30.372C76.7216 29.412 77.0896 28.636 77.5696 28.044C78.0656 27.436 78.6496 26.972 79.3216 26.652ZM80.0416 29.868C79.8016 30.092 79.6176 30.372 79.4896 30.708C79.3616 31.044 79.2816 31.396 79.2496 31.764C79.2176 32.116 79.2416 32.476 79.3216 32.844C79.4176 33.196 79.5616 33.516 79.7536 33.804C79.9136 34.044 80.2016 34.244 80.6176 34.404C81.0336 34.564 81.4656 34.66 81.9136 34.692C82.4256 34.724 82.8736 34.588 83.2576 34.284C83.6416 33.964 83.9296 33.572 84.1216 33.108C84.3296 32.644 84.4256 32.14 84.4096 31.596C84.3936 31.052 84.2496 30.556 83.9776 30.108C83.7856 29.788 83.5136 29.556 83.1616 29.412C82.8256 29.252 82.4656 29.172 82.0816 29.172C81.7136 29.156 81.3456 29.212 80.9776 29.34C80.6096 29.452 80.2976 29.628 80.0416 29.868ZM102.546 31.908C102.578 32.42 102.594 32.908 102.594 33.372C102.594 33.82 102.578 34.3 102.546 34.812C102.546 35.004 102.546 35.22 102.546 35.46C102.546 35.7 102.53 35.932 102.498 36.156C102.466 36.38 102.41 36.588 102.33 36.78C102.25 36.972 102.13 37.124 101.97 37.236C101.778 37.364 101.562 37.452 101.322 37.5C101.082 37.532 100.858 37.516 100.65 37.452C100.442 37.388 100.258 37.268 100.098 37.092C99.9541 36.916 99.8741 36.668 99.8581 36.348C99.8101 35.612 99.7861 34.876 99.7861 34.14C99.7861 33.772 99.7781 33.42 99.7621 33.084C99.7621 32.748 99.7701 32.276 99.7861 31.668C99.7861 31.364 99.7621 31.02 99.7141 30.636C99.6661 30.236 99.5461 29.956 99.3541 29.796C99.2101 29.668 99.0501 29.596 98.8741 29.58C98.6981 29.548 98.5221 29.564 98.3461 29.628C98.1861 29.692 98.0421 29.812 97.9141 29.988C97.7861 30.148 97.6981 30.356 97.6501 30.612C97.6501 30.82 97.6421 31.036 97.6261 31.26C97.6261 31.468 97.6341 31.668 97.6501 31.86C97.6661 32.372 97.6741 32.86 97.6741 33.324C97.6741 33.772 97.6661 34.252 97.6501 34.764C97.6341 34.972 97.6261 35.196 97.6261 35.436C97.6421 35.676 97.6421 35.916 97.6261 36.156C97.6101 36.38 97.5621 36.588 97.4821 36.78C97.4181 36.972 97.2981 37.124 97.1221 37.236C96.9301 37.364 96.7221 37.444 96.4981 37.476C96.2901 37.492 96.0901 37.46 95.8981 37.38C95.7221 37.284 95.5621 37.14 95.4181 36.948C95.2901 36.756 95.2181 36.5 95.2021 36.18C95.1701 35.812 95.1461 35.476 95.1301 35.172C95.1301 34.852 95.1301 34.516 95.1301 34.164C95.1301 33.796 95.1381 33.42 95.1541 33.036C95.1701 32.636 95.1621 32.252 95.1301 31.884C95.1301 31.772 95.1221 31.644 95.1061 31.5C95.1061 31.34 95.0981 31.18 95.0821 31.02C95.0821 30.86 95.0661 30.708 95.0341 30.564C95.0181 30.404 94.9861 30.276 94.9381 30.18C94.8101 29.956 94.5781 29.812 94.2421 29.748C93.9221 29.684 93.6501 29.708 93.4261 29.82C93.2021 29.932 93.0341 30.076 92.9221 30.252C92.8101 30.428 92.7301 30.62 92.6821 30.828C92.6341 31.036 92.6101 31.26 92.6101 31.5C92.6101 31.724 92.6101 31.94 92.6101 32.148C92.6101 33.188 92.6101 34.092 92.6101 34.86C92.6261 35.612 92.5461 36.22 92.3701 36.684C92.2901 36.924 92.1221 37.108 91.8661 37.236C91.6261 37.364 91.3621 37.428 91.0741 37.428C90.8021 37.428 90.5461 37.364 90.3061 37.236C90.0661 37.108 89.9061 36.908 89.8261 36.636C89.7781 36.46 89.7301 36.212 89.6821 35.892C89.6501 35.556 89.6261 35.188 89.6101 34.788C89.5941 34.388 89.5861 33.988 89.5861 33.588C89.5861 33.172 89.5861 32.796 89.5861 32.46V29.004C89.5701 28.636 89.5621 28.236 89.5621 27.804C89.5621 27.372 89.6261 26.98 89.7541 26.628C89.8661 26.324 90.0421 26.132 90.2821 26.052C90.5221 25.956 90.7701 25.916 91.0261 25.932C91.3141 25.932 91.5381 26.012 91.6981 26.172C91.8741 26.316 92.0021 26.5 92.0821 26.724C92.1621 26.932 92.2101 27.172 92.2261 27.444C92.2421 27.7 92.2581 27.948 92.2741 28.188C92.4501 27.788 92.6581 27.46 92.8981 27.204C93.1541 26.932 93.5141 26.756 93.9781 26.676C95.1621 26.452 96.1061 26.756 96.8101 27.588C97.1301 27.268 97.5381 27.004 98.0341 26.796C98.4181 26.652 98.8101 26.588 99.2101 26.604C99.6101 26.604 99.9861 26.676 100.338 26.82C100.706 26.964 101.034 27.172 101.322 27.444C101.626 27.716 101.866 28.044 102.042 28.428C102.282 28.94 102.418 29.508 102.45 30.132C102.482 30.756 102.514 31.348 102.546 31.908ZM107.539 28.404C107.539 28.852 107.539 29.356 107.539 29.916C107.555 30.476 107.563 31.06 107.563 31.668C107.563 32.26 107.563 32.852 107.563 33.444C107.563 34.02 107.555 34.556 107.539 35.052C107.523 35.292 107.499 35.556 107.467 35.844C107.435 36.116 107.371 36.372 107.275 36.612C107.179 36.852 107.027 37.052 106.819 37.212C106.627 37.356 106.363 37.42 106.027 37.404C105.531 37.372 105.171 37.156 104.947 36.756C104.739 36.356 104.619 35.796 104.587 35.076C104.587 34.708 104.579 34.284 104.563 33.804C104.563 33.324 104.555 32.836 104.539 32.34C104.539 31.844 104.539 31.364 104.539 30.9C104.539 30.42 104.539 29.988 104.539 29.604C104.539 29.38 104.531 29.108 104.515 28.788C104.515 28.468 104.523 28.14 104.539 27.804C104.555 27.468 104.595 27.148 104.659 26.844C104.723 26.524 104.827 26.26 104.971 26.052C105.083 25.924 105.243 25.828 105.451 25.764C105.659 25.684 105.875 25.644 106.099 25.644C106.339 25.644 106.563 25.684 106.771 25.764C106.995 25.844 107.155 25.956 107.251 26.1C107.315 26.196 107.363 26.332 107.395 26.508C107.427 26.684 107.451 26.884 107.467 27.108C107.499 27.316 107.515 27.54 107.515 27.78C107.531 28.004 107.539 28.212 107.539 28.404ZM106.627 23.556C106.131 23.684 105.715 23.636 105.379 23.412C105.059 23.172 104.859 22.82 104.779 22.356C104.715 22.02 104.739 21.724 104.851 21.468C104.963 21.212 105.131 21.02 105.355 20.892C105.579 20.748 105.835 20.684 106.123 20.7C106.411 20.716 106.699 20.828 106.987 21.036C107.259 21.228 107.451 21.452 107.563 21.708C107.691 21.964 107.731 22.212 107.683 22.452C107.651 22.692 107.547 22.916 107.371 23.124C107.195 23.316 106.947 23.46 106.627 23.556ZM118.576 28.26C118.704 28.484 118.768 28.724 118.768 28.98C118.784 29.236 118.728 29.476 118.6 29.7C118.456 29.988 118.248 30.188 117.976 30.3C117.72 30.396 117.432 30.404 117.112 30.324C116.968 30.292 116.84 30.236 116.728 30.156C116.616 30.076 116.496 29.996 116.368 29.916C116.256 29.82 116.12 29.732 115.96 29.652C115.816 29.572 115.624 29.516 115.384 29.484C115.144 29.452 114.88 29.452 114.592 29.484C114.32 29.516 114.072 29.58 113.848 29.676C113.496 29.852 113.216 30.124 113.008 30.492C112.8 30.844 112.664 31.228 112.6 31.644C112.536 32.044 112.544 32.452 112.624 32.868C112.72 33.284 112.896 33.636 113.152 33.924C113.344 34.148 113.592 34.332 113.896 34.476C114.216 34.62 114.52 34.708 114.808 34.74C115.08 34.772 115.352 34.772 115.624 34.74C115.896 34.692 116.16 34.628 116.416 34.548C116.608 34.468 116.824 34.364 117.064 34.236C117.304 34.092 117.536 34.004 117.76 33.972C118.048 33.972 118.272 34.052 118.432 34.212C118.592 34.356 118.704 34.54 118.768 34.764C118.832 34.972 118.84 35.196 118.792 35.436C118.76 35.676 118.672 35.884 118.528 36.06C118.336 36.3 118.064 36.532 117.712 36.756C117.36 36.964 117.024 37.116 116.704 37.212C116.32 37.34 115.888 37.412 115.408 37.428C114.944 37.444 114.504 37.428 114.088 37.38C113.896 37.348 113.696 37.308 113.488 37.26C113.28 37.212 113.08 37.156 112.888 37.092C112.184 36.836 111.592 36.476 111.112 36.012C110.648 35.532 110.288 34.996 110.032 34.404C109.792 33.812 109.656 33.18 109.624 32.508C109.592 31.836 109.672 31.172 109.864 30.516C110.04 29.892 110.256 29.364 110.512 28.932C110.784 28.5 111.096 28.148 111.448 27.876C111.816 27.588 112.224 27.364 112.672 27.204C113.12 27.028 113.616 26.876 114.16 26.748C114.72 26.636 115.312 26.636 115.936 26.748C116.56 26.86 117.12 27.068 117.616 27.372C118 27.58 118.32 27.876 118.576 28.26ZM126.469 33.276C126.165 33.084 125.821 32.932 125.437 32.82C125.069 32.708 124.685 32.604 124.285 32.508C123.901 32.412 123.525 32.308 123.157 32.196C122.789 32.068 122.453 31.892 122.149 31.668C121.493 31.172 121.109 30.564 120.997 29.844C120.901 29.108 121.061 28.372 121.477 27.636C121.701 27.252 121.997 26.94 122.365 26.7C122.733 26.444 123.133 26.252 123.565 26.124C124.013 25.98 124.469 25.9 124.933 25.884C125.397 25.868 125.837 25.892 126.253 25.956C126.525 26.004 126.813 26.076 127.117 26.172C127.421 26.252 127.701 26.364 127.957 26.508C128.229 26.652 128.469 26.836 128.677 27.06C128.901 27.268 129.061 27.532 129.157 27.852C129.221 28.06 129.229 28.26 129.181 28.452C129.149 28.644 129.069 28.804 128.941 28.932C128.829 29.06 128.677 29.156 128.485 29.22C128.309 29.284 128.117 29.3 127.909 29.268C127.669 29.22 127.445 29.148 127.237 29.052C127.029 28.956 126.821 28.852 126.613 28.74C126.405 28.628 126.189 28.532 125.965 28.452C125.757 28.372 125.533 28.332 125.293 28.332C124.925 28.316 124.621 28.38 124.381 28.524C124.141 28.668 123.973 28.844 123.877 29.052C123.797 29.26 123.805 29.484 123.901 29.724C124.013 29.964 124.237 30.172 124.573 30.348C124.877 30.508 125.213 30.636 125.581 30.732C125.949 30.828 126.309 30.924 126.661 31.02C127.029 31.116 127.381 31.228 127.717 31.356C128.069 31.484 128.381 31.66 128.653 31.884C129.181 32.316 129.501 32.82 129.613 33.396C129.741 33.972 129.709 34.54 129.517 35.1C129.325 35.66 128.989 36.156 128.509 36.588C128.045 37.02 127.493 37.308 126.853 37.452C126.389 37.548 125.885 37.596 125.341 37.596C124.813 37.596 124.285 37.54 123.757 37.428C123.245 37.316 122.749 37.14 122.269 36.9C121.805 36.66 121.413 36.356 121.093 35.988C120.869 35.732 120.749 35.444 120.733 35.124C120.733 34.788 120.797 34.5 120.925 34.26C121.069 34.004 121.269 33.828 121.525 33.732C121.781 33.636 122.069 33.692 122.389 33.9C122.645 34.076 122.949 34.252 123.301 34.428C123.653 34.588 124.005 34.716 124.357 34.812C124.709 34.908 125.045 34.956 125.365 34.956C125.701 34.956 125.989 34.884 126.229 34.74C126.581 34.516 126.765 34.26 126.781 33.972C126.797 33.668 126.693 33.436 126.469 33.276Z" fill="black"/>
</g>
<defs>
<filter id="filter0_g_226_10163" x="0" y="0" width="147" height="61" filterUnits="userSpaceOnUse" color-interpolation-filters="sRGB">
<feFlood flood-opacity="0" result="BackgroundImageFix"/>
<feBlend mode="normal" in="SourceGraphic" in2="BackgroundImageFix" result="shape"/>
<feTurbulence type="fractalNoise" baseFrequency="0.011363636702299118 0.011363636702299118" numOctaves="3" seed="6061" />
<feDisplacementMap in="shape" scale="8" xChannelSelector="R" yChannelSelector="G" result="displacedImage" width="100%" height="100%" />
<feMerge result="effect1_texture_226_10163">
<feMergeNode in="displacedImage"/>
</feMerge>
</filter>
</defs>
</svg>
