<svg width="147" height="61" viewBox="0 0 147 61" fill="none" xmlns="http://www.w3.org/2000/svg">
<g filter="url(#filter0_g_226_10162)">
<rect x="4" y="4" width="139" height="53" rx="26.5" fill="#FEC400"/>
<rect x="7" y="7" width="133" height="47" rx="23.5" stroke="black" stroke-width="6"/>
<path d="M39.844 36.444C39.86 36.604 39.844 36.756 39.796 36.9C39.764 36.996 39.716 37.076 39.652 37.14C39.604 37.204 39.54 37.268 39.46 37.332C39.316 37.428 39.14 37.516 38.932 37.596C38.804 37.628 38.676 37.652 38.548 37.668C38.436 37.7 38.316 37.7 38.188 37.668C37.932 37.652 37.708 37.556 37.516 37.38C37.244 37.156 37.02 36.908 36.844 36.636C36.764 36.508 36.676 36.364 36.58 36.204C36.484 36.044 36.396 35.876 36.316 35.7L33.652 30.636C33.524 30.636 33.396 30.644 33.268 30.66C33.14 30.66 33.012 30.668 32.884 30.684C32.548 30.716 32.228 30.724 31.924 30.708C31.636 30.692 31.332 30.692 31.012 30.708H30.556V35.052C30.556 35.18 30.548 35.3 30.532 35.412C30.532 35.524 30.532 35.644 30.532 35.772C30.532 35.852 30.524 35.956 30.508 36.084C30.508 36.212 30.5 36.332 30.484 36.444C30.452 36.62 30.38 36.804 30.268 36.996C30.156 37.172 30.004 37.324 29.812 37.452C29.476 37.66 29.068 37.716 28.588 37.62C28.38 37.572 28.18 37.492 27.988 37.38C27.924 37.332 27.868 37.276 27.82 37.212C27.772 37.132 27.732 37.052 27.7 36.972C27.668 36.892 27.636 36.812 27.604 36.732C27.588 36.636 27.564 36.548 27.532 36.468C27.484 36.308 27.46 36.156 27.46 36.012V22.38C27.46 22.284 27.46 22.188 27.46 22.092C27.476 21.98 27.492 21.884 27.508 21.804C27.524 21.628 27.58 21.452 27.676 21.276C27.724 21.084 27.804 20.948 27.916 20.868C28.012 20.772 28.156 20.692 28.348 20.628C28.556 20.548 28.852 20.516 29.236 20.532C29.956 20.548 30.668 20.556 31.372 20.556C32.076 20.556 32.78 20.572 33.484 20.604C33.948 20.636 34.436 20.692 34.948 20.772C35.476 20.836 35.964 20.956 36.412 21.132C36.7 21.244 36.964 21.356 37.204 21.468C37.508 21.644 37.748 21.812 37.924 21.972C38.484 22.484 38.908 23.1 39.196 23.82C39.484 24.54 39.628 25.268 39.628 26.004C39.628 26.868 39.42 27.66 39.004 28.38C38.604 29.1 37.956 29.636 37.06 29.988C37.028 30.02 36.98 30.044 36.916 30.06C36.868 30.06 36.828 30.068 36.796 30.084L39.004 34.524L39.22 34.908C39.252 34.972 39.292 35.044 39.34 35.124C39.388 35.204 39.428 35.284 39.46 35.364C39.508 35.444 39.548 35.532 39.58 35.628C39.628 35.724 39.676 35.812 39.724 35.892C39.772 36.116 39.812 36.3 39.844 36.444ZM33.844 27.9C34.132 27.9 34.404 27.852 34.66 27.756C34.932 27.644 35.172 27.5 35.38 27.324C35.604 27.148 35.788 26.948 35.932 26.724C36.076 26.484 36.156 26.228 36.172 25.956C36.236 25.156 36.028 24.564 35.548 24.18C35.068 23.78 34.436 23.564 33.652 23.532C33.188 23.5 32.676 23.484 32.116 23.484C31.572 23.484 31.052 23.484 30.556 23.484C30.572 24.14 30.572 24.812 30.556 25.5C30.556 26.172 30.556 26.972 30.556 27.9H33.844ZM44.8763 26.652C45.4043 26.396 45.9563 26.212 46.5323 26.1C47.1083 25.988 47.6763 25.964 48.2363 26.028C48.8123 26.092 49.3643 26.244 49.8923 26.484C50.4363 26.724 50.9323 27.06 51.3803 27.492C51.7483 27.86 52.0683 28.308 52.3403 28.836C52.6123 29.348 52.8123 29.852 52.9403 30.348C53.2123 31.228 53.2523 32.116 53.0603 33.012C52.8683 33.908 52.5403 34.74 52.0763 35.508C51.8523 35.86 51.5723 36.18 51.2363 36.468C50.9163 36.74 50.5723 36.964 50.2043 37.14C49.7243 37.364 49.2043 37.516 48.6443 37.596C48.0843 37.692 47.5403 37.716 47.0123 37.668C46.0523 37.62 45.2043 37.38 44.4683 36.948C43.7483 36.516 43.1643 35.964 42.7163 35.292C42.2843 34.62 41.9963 33.86 41.8523 33.012C41.7243 32.148 41.7803 31.268 42.0203 30.372C42.2763 29.412 42.6443 28.636 43.1243 28.044C43.6203 27.436 44.2043 26.972 44.8763 26.652ZM45.5963 29.868C45.3563 30.092 45.1723 30.372 45.0443 30.708C44.9163 31.044 44.8363 31.396 44.8043 31.764C44.7723 32.116 44.7963 32.476 44.8763 32.844C44.9723 33.196 45.1163 33.516 45.3083 33.804C45.4683 34.044 45.7563 34.244 46.1723 34.404C46.5883 34.564 47.0203 34.66 47.4683 34.692C47.9803 34.724 48.4283 34.588 48.8123 34.284C49.1963 33.964 49.4843 33.572 49.6763 33.108C49.8843 32.644 49.9803 32.14 49.9643 31.596C49.9483 31.052 49.8043 30.556 49.5323 30.108C49.3403 29.788 49.0683 29.556 48.7163 29.412C48.3803 29.252 48.0203 29.172 47.6363 29.172C47.2683 29.156 46.9003 29.212 46.5323 29.34C46.1643 29.452 45.8523 29.628 45.5963 29.868ZM57.9008 27.396C58.3808 27.156 58.8848 26.988 59.4128 26.892C59.9408 26.78 60.4608 26.756 60.9728 26.82C61.5008 26.868 62.0048 27.004 62.4848 27.228C62.9648 27.436 63.4128 27.74 63.8288 28.14C64.2448 28.556 64.5648 29.012 64.7888 29.508C65.0128 30.004 65.1728 30.556 65.2688 31.164C65.3328 31.58 65.4368 31.964 65.5808 32.316C65.7248 32.668 65.8768 33.02 66.0368 33.372C66.2128 33.724 66.3728 34.076 66.5168 34.428C66.6768 34.78 66.8048 35.148 66.9008 35.532C66.9808 35.9 66.9488 36.26 66.8048 36.612C66.6768 36.948 66.4048 37.156 65.9888 37.236C65.7488 37.284 65.5168 37.268 65.2928 37.188C65.0848 37.092 64.8928 36.964 64.7168 36.804C64.5408 36.628 64.3808 36.444 64.2368 36.252C64.1088 36.044 63.9888 35.852 63.8768 35.676C63.5088 36.156 63.1088 36.532 62.6768 36.804C62.2448 37.06 61.7248 37.228 61.1168 37.308C60.6048 37.372 60.1168 37.388 59.6528 37.356C59.1888 37.324 58.6928 37.236 58.1648 37.092C57.4768 36.916 56.9088 36.612 56.4608 36.18C56.0288 35.732 55.6928 35.22 55.4528 34.644C55.2288 34.052 55.1088 33.42 55.0928 32.748C55.0768 32.076 55.1568 31.412 55.3328 30.756C55.5568 29.892 55.8928 29.188 56.3408 28.644C56.7888 28.1 57.3088 27.684 57.9008 27.396ZM58.5008 30.204C58.2768 30.428 58.1008 30.692 57.9728 30.996C57.8448 31.3 57.7648 31.62 57.7328 31.956C57.7168 32.292 57.7488 32.628 57.8288 32.964C57.9088 33.3 58.0368 33.596 58.2128 33.852C58.3728 34.076 58.6448 34.268 59.0288 34.428C59.4128 34.572 59.8128 34.66 60.2288 34.692C60.7088 34.724 61.1248 34.596 61.4768 34.308C61.8448 34.02 62.1168 33.66 62.2928 33.228C62.4848 32.78 62.5728 32.308 62.5568 31.812C62.5408 31.3 62.4048 30.836 62.1488 30.42C61.9568 30.116 61.7008 29.892 61.3808 29.748C61.0768 29.604 60.7488 29.532 60.3968 29.532C60.0448 29.516 59.6928 29.572 59.3408 29.7C59.0048 29.812 58.7248 29.98 58.5008 30.204ZM76.3855 20.724C76.6895 20.644 76.9535 20.636 77.1775 20.7C77.4175 20.748 77.6175 20.852 77.7775 21.012C77.9535 21.172 78.0815 21.372 78.1615 21.612C78.2575 21.852 78.3055 22.116 78.3055 22.404C78.3215 23.204 78.3215 23.828 78.3055 24.276C78.3055 24.724 78.3055 25.116 78.3055 25.452V32.82C78.3055 33.684 78.3055 34.404 78.3055 34.98C78.3055 35.556 78.2735 36.028 78.2095 36.396C78.1615 36.748 78.0655 37.012 77.9215 37.188C77.7935 37.364 77.5935 37.484 77.3215 37.548C77.0495 37.628 76.6895 37.668 76.2415 37.668C75.8095 37.668 75.2655 37.668 74.6095 37.668C72.8815 37.668 71.5135 37.26 70.5055 36.444C69.5135 35.628 68.9855 34.332 68.9215 32.556C68.8895 31.788 68.9855 31.084 69.2095 30.444C69.4335 29.804 69.7615 29.26 70.1935 28.812C70.6415 28.348 71.1855 27.996 71.8255 27.756C72.4815 27.5 73.2255 27.38 74.0575 27.396H75.3775V23.1C75.3775 22.844 75.3775 22.596 75.3775 22.356C75.3775 22.1 75.4015 21.868 75.4495 21.66C75.4975 21.436 75.5935 21.244 75.7375 21.084C75.8815 20.924 76.0975 20.804 76.3855 20.724ZM72.2095 34.044C72.5455 34.508 73.1535 34.764 74.0335 34.812C74.2095 34.828 74.3775 34.836 74.5375 34.836C74.6975 34.82 74.8415 34.796 74.9695 34.764C75.1135 34.748 75.2495 34.724 75.3775 34.692V30.252C74.8175 30.156 74.3055 30.1 73.8415 30.084C73.3935 30.052 72.9455 30.212 72.4975 30.564C72.2575 30.756 72.0735 31.004 71.9455 31.308C71.8175 31.596 71.7455 31.908 71.7295 32.244C71.7135 32.564 71.7455 32.884 71.8255 33.204C71.9055 33.524 72.0335 33.804 72.2095 34.044ZM93.2493 31.908C93.2813 32.42 93.2973 32.908 93.2973 33.372C93.2973 33.82 93.2813 34.3 93.2493 34.812C93.2493 35.004 93.2493 35.22 93.2493 35.46C93.2493 35.7 93.2333 35.932 93.2013 36.156C93.1693 36.38 93.1133 36.588 93.0333 36.78C92.9533 36.972 92.8333 37.124 92.6733 37.236C92.4813 37.364 92.2653 37.452 92.0253 37.5C91.7853 37.532 91.5613 37.516 91.3533 37.452C91.1453 37.388 90.9613 37.268 90.8013 37.092C90.6573 36.916 90.5773 36.668 90.5613 36.348C90.5133 35.612 90.4893 34.876 90.4893 34.14C90.4893 33.772 90.4813 33.42 90.4653 33.084C90.4653 32.748 90.4733 32.276 90.4893 31.668C90.4893 31.364 90.4653 31.02 90.4173 30.636C90.3693 30.236 90.2493 29.956 90.0573 29.796C89.9133 29.668 89.7533 29.596 89.5773 29.58C89.4013 29.548 89.2253 29.564 89.0493 29.628C88.8893 29.692 88.7453 29.812 88.6173 29.988C88.4893 30.148 88.4013 30.356 88.3533 30.612C88.3533 30.82 88.3453 31.036 88.3293 31.26C88.3293 31.468 88.3373 31.668 88.3533 31.86C88.3693 32.372 88.3773 32.86 88.3773 33.324C88.3773 33.772 88.3693 34.252 88.3533 34.764C88.3373 34.972 88.3293 35.196 88.3293 35.436C88.3453 35.676 88.3453 35.916 88.3293 36.156C88.3133 36.38 88.2653 36.588 88.1853 36.78C88.1213 36.972 88.0013 37.124 87.8253 37.236C87.6333 37.364 87.4253 37.444 87.2013 37.476C86.9933 37.492 86.7933 37.46 86.6013 37.38C86.4253 37.284 86.2653 37.14 86.1213 36.948C85.9933 36.756 85.9213 36.5 85.9053 36.18C85.8733 35.812 85.8493 35.476 85.8333 35.172C85.8333 34.852 85.8333 34.516 85.8333 34.164C85.8333 33.796 85.8413 33.42 85.8573 33.036C85.8733 32.636 85.8653 32.252 85.8333 31.884C85.8333 31.772 85.8253 31.644 85.8093 31.5C85.8093 31.34 85.8013 31.18 85.7853 31.02C85.7853 30.86 85.7693 30.708 85.7373 30.564C85.7213 30.404 85.6893 30.276 85.6413 30.18C85.5133 29.956 85.2813 29.812 84.9453 29.748C84.6253 29.684 84.3533 29.708 84.1293 29.82C83.9053 29.932 83.7373 30.076 83.6253 30.252C83.5133 30.428 83.4333 30.62 83.3853 30.828C83.3373 31.036 83.3133 31.26 83.3133 31.5C83.3133 31.724 83.3133 31.94 83.3133 32.148C83.3133 33.188 83.3133 34.092 83.3133 34.86C83.3293 35.612 83.2493 36.22 83.0733 36.684C82.9933 36.924 82.8253 37.108 82.5693 37.236C82.3293 37.364 82.0653 37.428 81.7773 37.428C81.5053 37.428 81.2493 37.364 81.0093 37.236C80.7693 37.108 80.6093 36.908 80.5293 36.636C80.4813 36.46 80.4333 36.212 80.3853 35.892C80.3533 35.556 80.3293 35.188 80.3133 34.788C80.2973 34.388 80.2893 33.988 80.2893 33.588C80.2893 33.172 80.2893 32.796 80.2893 32.46V29.004C80.2733 28.636 80.2653 28.236 80.2653 27.804C80.2653 27.372 80.3293 26.98 80.4573 26.628C80.5693 26.324 80.7453 26.132 80.9853 26.052C81.2253 25.956 81.4733 25.916 81.7293 25.932C82.0173 25.932 82.2413 26.012 82.4013 26.172C82.5773 26.316 82.7053 26.5 82.7853 26.724C82.8653 26.932 82.9133 27.172 82.9293 27.444C82.9453 27.7 82.9613 27.948 82.9773 28.188C83.1533 27.788 83.3613 27.46 83.6013 27.204C83.8573 26.932 84.2173 26.756 84.6813 26.676C85.8653 26.452 86.8093 26.756 87.5133 27.588C87.8333 27.268 88.2413 27.004 88.7373 26.796C89.1213 26.652 89.5133 26.588 89.9133 26.604C90.3133 26.604 90.6893 26.676 91.0413 26.82C91.4093 26.964 91.7373 27.172 92.0253 27.444C92.3293 27.716 92.5693 28.044 92.7453 28.428C92.9853 28.94 93.1213 29.508 93.1533 30.132C93.1853 30.756 93.2173 31.348 93.2493 31.908ZM98.0258 27.396C98.5058 27.156 99.0098 26.988 99.5378 26.892C100.066 26.78 100.586 26.756 101.098 26.82C101.626 26.868 102.13 27.004 102.61 27.228C103.09 27.436 103.538 27.74 103.954 28.14C104.37 28.556 104.69 29.012 104.914 29.508C105.138 30.004 105.298 30.556 105.394 31.164C105.458 31.58 105.562 31.964 105.706 32.316C105.85 32.668 106.002 33.02 106.162 33.372C106.338 33.724 106.498 34.076 106.642 34.428C106.802 34.78 106.93 35.148 107.026 35.532C107.106 35.9 107.074 36.26 106.93 36.612C106.802 36.948 106.53 37.156 106.114 37.236C105.874 37.284 105.642 37.268 105.418 37.188C105.21 37.092 105.018 36.964 104.842 36.804C104.666 36.628 104.506 36.444 104.362 36.252C104.234 36.044 104.114 35.852 104.002 35.676C103.634 36.156 103.234 36.532 102.802 36.804C102.37 37.06 101.85 37.228 101.242 37.308C100.73 37.372 100.242 37.388 99.7778 37.356C99.3138 37.324 98.8178 37.236 98.2898 37.092C97.6018 36.916 97.0338 36.612 96.5858 36.18C96.1538 35.732 95.8178 35.22 95.5778 34.644C95.3538 34.052 95.2338 33.42 95.2178 32.748C95.2018 32.076 95.2818 31.412 95.4578 30.756C95.6818 29.892 96.0178 29.188 96.4658 28.644C96.9138 28.1 97.4338 27.684 98.0258 27.396ZM98.6258 30.204C98.4018 30.428 98.2258 30.692 98.0978 30.996C97.9698 31.3 97.8898 31.62 97.8578 31.956C97.8418 32.292 97.8738 32.628 97.9538 32.964C98.0338 33.3 98.1618 33.596 98.3378 33.852C98.4978 34.076 98.7698 34.268 99.1538 34.428C99.5378 34.572 99.9378 34.66 100.354 34.692C100.834 34.724 101.25 34.596 101.602 34.308C101.97 34.02 102.242 33.66 102.418 33.228C102.61 32.78 102.698 32.308 102.682 31.812C102.666 31.3 102.53 30.836 102.274 30.42C102.082 30.116 101.826 29.892 101.506 29.748C101.202 29.604 100.874 29.532 100.522 29.532C100.17 29.516 99.8178 29.572 99.4658 29.7C99.1298 29.812 98.8498 29.98 98.6258 30.204ZM115.743 26.7C116.207 26.892 116.631 27.172 117.015 27.54C117.399 27.892 117.727 28.3 117.999 28.764C118.287 29.228 118.503 29.732 118.647 30.276C118.807 30.804 118.887 31.34 118.887 31.884C118.903 32.7 118.711 33.468 118.311 34.188C117.927 34.908 117.295 35.46 116.415 35.844C115.743 36.116 115.047 36.324 114.327 36.468C113.623 36.596 112.887 36.684 112.119 36.732V41.124C112.119 41.22 112.103 41.308 112.071 41.388C112.055 41.468 112.047 41.548 112.047 41.628C112.015 41.788 111.975 41.932 111.927 42.06C111.895 42.188 111.847 42.324 111.783 42.468C111.719 42.564 111.655 42.652 111.59 42.732C111.527 42.812 111.455 42.892 111.375 42.972C110.991 43.164 110.591 43.204 110.175 43.092C109.919 43.076 109.711 42.996 109.551 42.852C109.407 42.708 109.303 42.556 109.239 42.396C109.175 42.236 109.119 42.052 109.071 41.844C109.055 41.764 109.039 41.684 109.023 41.604C109.023 41.54 109.023 41.468 109.023 41.388V28.02C109.023 27.924 109.023 27.828 109.023 27.732C109.039 27.62 109.055 27.508 109.071 27.396C109.087 27.204 109.135 27.012 109.215 26.82C109.359 26.42 109.655 26.148 110.103 26.004C110.551 25.86 111.055 25.796 111.615 25.812C111.999 25.828 112.391 25.868 112.791 25.932C113.207 25.996 113.599 26.076 113.967 26.172C114.351 26.252 114.695 26.34 114.999 26.436C115.303 26.532 115.551 26.62 115.743 26.7ZM115.791 31.884C115.855 31.436 115.799 31.06 115.623 30.756C115.463 30.436 115.231 30.18 114.927 29.988C114.623 29.78 114.271 29.62 113.871 29.508C113.487 29.396 113.103 29.316 112.719 29.268C112.671 29.252 112.591 29.244 112.479 29.244C112.383 29.244 112.271 29.244 112.143 29.244C112.143 29.756 112.143 30.252 112.143 30.732C112.159 31.196 112.159 31.7 112.143 32.244V33.852C112.511 33.836 112.895 33.796 113.295 33.732C113.711 33.668 114.095 33.564 114.447 33.42C114.799 33.276 115.095 33.084 115.335 32.844C115.591 32.604 115.743 32.284 115.791 31.884Z" fill="black"/>
</g>
<defs>
<filter id="filter0_g_226_10162" x="0" y="0" width="147" height="61" filterUnits="userSpaceOnUse" color-interpolation-filters="sRGB">
<feFlood flood-opacity="0" result="BackgroundImageFix"/>
<feBlend mode="normal" in="SourceGraphic" in2="BackgroundImageFix" result="shape"/>
<feTurbulence type="fractalNoise" baseFrequency="0.011363636702299118 0.011363636702299118" numOctaves="3" seed="6061" />
<feDisplacementMap in="shape" scale="8" xChannelSelector="R" yChannelSelector="G" result="displacedImage" width="100%" height="100%" />
<feMerge result="effect1_texture_226_10162">
<feMergeNode in="displacedImage"/>
</feMerge>
</filter>
</defs>
</svg>
