<svg width="1774" height="30" viewBox="0 0 1774 30" fill="none" xmlns="http://www.w3.org/2000/svg">
<g filter="url(#filter0_g_65_6036)">
<path d="M4.33284 15C4.33284 20.891 9.10847 25.6667 14.9995 25.6667C20.8905 25.6667 25.6662 20.891 25.6662 15C25.6662 9.10896 20.8905 4.33333 14.9995 4.33333C9.10847 4.33333 4.33284 9.10896 4.33284 15ZM1748.33 15C1748.33 20.891 1753.11 25.6667 1759 25.6667C1764.89 25.6667 1769.67 20.891 1769.67 15C1769.67 9.10896 1764.89 4.33333 1759 4.33333C1753.11 4.33333 1748.33 9.10896 1748.33 15ZM14.9995 15V17H1759V15V13H14.9995V15Z" fill="black"/>
</g>
<defs>
<filter id="filter0_g_65_6036" x="0.332764" y="0.333252" width="1773.33" height="29.3335" filterUnits="userSpaceOnUse" color-interpolation-filters="sRGB">
<feFlood flood-opacity="0" result="BackgroundImageFix"/>
<feBlend mode="normal" in="SourceGraphic" in2="BackgroundImageFix" result="shape"/>
<feTurbulence type="fractalNoise" baseFrequency="0.011904762126505375 0.011904762126505375" numOctaves="3" seed="3810" />
<feDisplacementMap in="shape" scale="8" xChannelSelector="R" yChannelSelector="G" result="displacedImage" width="100%" height="100%" />
<feMerge result="effect1_texture_65_6036">
<feMergeNode in="displacedImage"/>
</feMerge>
</filter>
</defs>
</svg>
