<svg width="844" height="349" viewBox="0 0 844 349" fill="none" xmlns="http://www.w3.org/2000/svg">
<path d="M175.287 188.021C26.1596 118.013 45.3995 27.1698 67.4841 1.50017H841.758V223.525C699.945 240.809 403.175 254.557 233.681 208.735C153.277 294.914 44.838 337.179 0.668655 347.539C99.4882 298.334 158.256 220.692 175.287 188.021Z" fill="#D9D9D9"/>
<path d="M175.287 188.021C26.1596 118.013 45.3995 27.1698 67.4841 1.50017H841.758V223.525C699.945 240.809 403.175 254.557 233.681 208.735M175.287 188.021C192.255 195.987 211.919 202.852 233.681 208.735M175.287 188.021C158.256 220.692 99.4882 298.334 0.668655 347.539C44.838 337.179 153.277 294.914 233.681 208.735" stroke="black" stroke-width="3"/>
</svg>
