<svg width="389" height="1042" viewBox="0 0 389 1042" fill="none" xmlns="http://www.w3.org/2000/svg">
<g filter="url(#filter0_dg_73_56593)">
<ellipse cx="31.6876" cy="34.7857" rx="31.6876" ry="34.7857" transform="matrix(0.805222 -0.592974 0.441606 0.897209 216 163.58)" fill="#FEC400"/>
<path d="M239.749 141.201C255.896 129.311 276.313 135.942 285.614 154.839C294.914 173.735 290.152 198.908 274.005 210.799C257.858 222.69 237.442 216.059 228.141 197.162C218.84 178.266 223.602 153.092 239.749 141.201Z" stroke="black" stroke-width="8"/>
</g>
<g filter="url(#filter1_g_73_56593)">
<path d="M242.542 146.876C256.127 136.872 273.216 142.492 280.975 158.254C288.733 174.017 284.797 195.12 271.212 205.124C257.627 215.128 240.538 209.508 232.78 193.745C225.022 177.983 228.958 156.88 242.542 146.876Z" stroke="#FF9D33" stroke-width="8"/>
</g>
<g filter="url(#filter2_g_73_56593)">
<path d="M267.611 193.253C267.583 193.778 267.425 194.263 267.137 194.708C266.848 195.153 266.492 195.493 266.068 195.728C265.668 195.945 265.234 196.032 264.768 195.987C264.339 195.953 263.959 195.729 263.627 195.313C263.576 195.273 263.476 195.134 263.326 194.895C263.2 194.638 263.062 194.391 262.913 194.151C262.773 193.867 262.635 193.619 262.499 193.408C262.387 193.18 262.331 193.066 262.331 193.066C261.753 193.375 261.069 193.724 260.277 194.113C259.494 194.457 258.779 194.712 258.131 194.879C257.697 194.965 257.241 195.068 256.761 195.189C256.29 195.264 255.824 195.316 255.362 195.346C254.887 195.346 254.421 195.302 253.964 195.211C253.516 195.075 253.11 194.831 252.746 194.478C252.461 194.222 252.205 193.926 251.976 193.59C251.756 193.208 251.59 192.807 251.478 192.385C251.389 191.946 251.367 191.515 251.413 191.093C251.483 190.654 251.671 190.263 251.978 189.921C252.169 189.664 252.409 189.506 252.698 189.449C252.973 189.363 253.257 189.328 253.551 189.345C253.845 189.361 254.152 189.406 254.474 189.48C254.782 189.525 255.069 189.527 255.334 189.487C255.996 189.349 256.732 189.136 257.543 188.85C258.363 188.518 259.104 188.186 259.765 187.854L256.106 180.419C255.603 180.557 255.048 180.752 254.443 181.004C253.86 181.239 253.378 181.419 252.996 181.545C252.623 181.626 252.288 181.718 251.989 181.821C251.7 181.879 251.428 181.905 251.171 181.899C249.908 182.17 248.792 181.964 247.821 181.281C247.336 180.94 246.909 180.556 246.54 180.129C246.157 179.674 245.805 179.118 245.482 178.463C245.202 177.893 244.989 177.332 244.844 176.779C244.685 176.198 244.57 175.642 244.499 175.112C244.358 174.052 244.448 172.977 244.768 171.887C244.879 171.34 245.053 170.823 245.291 170.338C245.551 169.836 245.835 169.316 246.142 168.78C246.425 168.261 246.842 167.721 247.391 167.161C247.941 166.601 248.434 166.121 248.872 165.721C248.676 165.323 248.472 164.91 248.262 164.482C248.038 164.027 247.942 163.574 247.974 163.123C248.015 162.433 248.103 161.903 248.237 161.532C248.372 161.161 248.686 160.832 249.18 160.546C249.627 160.295 250.063 160.148 250.487 160.108C250.911 160.067 251.331 160.243 251.747 160.636C251.775 160.693 251.852 160.849 251.978 161.106C252.113 161.316 252.263 161.556 252.426 161.823C252.604 162.12 252.791 162.467 252.987 162.866C253.83 162.516 254.725 162.207 255.671 161.937C256.626 161.622 257.542 161.452 258.418 161.427C259.127 161.449 259.759 161.605 260.314 161.894C260.878 162.139 261.331 162.639 261.672 163.397C261.845 163.813 261.906 164.292 261.856 164.834C261.805 165.376 261.631 165.795 261.333 166.092C260.988 166.423 260.604 166.609 260.18 166.65C259.742 166.662 259.322 166.68 258.921 166.704C258.413 166.767 257.835 166.882 257.188 167.049C256.549 167.17 255.948 167.399 255.384 167.737L258.286 173.633C258.86 173.444 259.484 173.294 260.16 173.185C260.822 173.047 261.4 172.931 261.894 172.839C263.52 172.534 264.987 172.871 266.293 173.849C267.609 174.782 268.643 176.077 269.395 177.735C269.905 178.834 270.221 179.96 270.344 181.112C270.354 181.647 270.326 182.172 270.262 182.685C270.197 183.199 270.095 183.701 269.956 184.191C269.831 184.71 269.661 185.204 269.447 185.672C269.219 186.111 268.964 186.591 268.68 187.11C268.354 187.544 267.982 188.012 267.563 188.515C267.13 188.989 266.708 189.454 266.299 189.911C266.276 189.929 266.301 190.045 266.376 190.262C266.46 190.433 266.558 190.632 266.671 190.86C266.806 191.071 266.93 191.29 267.042 191.518C267.163 191.7 267.231 191.806 267.245 191.834C267.483 192.318 267.605 192.791 267.611 193.253ZM250.198 175.281C250.334 175.492 250.541 175.688 250.821 175.87C251.087 176.024 251.355 176.117 251.626 176.151C251.92 176.168 252.246 176.121 252.605 176.012C252.949 175.875 253.31 175.706 253.688 175.506L251.311 170.678C250.571 171.301 250.05 172.014 249.748 172.819C249.455 173.578 249.605 174.399 250.198 175.281ZM265.161 179.864C264.932 179.528 264.647 179.272 264.307 179.096C263.975 178.874 263.607 178.738 263.201 178.687C262.819 178.619 262.423 178.62 262.013 178.689C261.612 178.713 261.239 178.793 260.894 178.931C261.385 179.928 261.894 180.93 262.422 181.939C262.959 182.901 263.462 183.89 263.929 184.904C264.307 184.703 264.642 184.418 264.935 184.047C265.214 183.647 265.419 183.225 265.549 182.78C265.665 182.306 265.695 181.819 265.638 181.317C265.605 180.798 265.446 180.314 265.161 179.864Z" fill="#FF9D33"/>
</g>
<g filter="url(#filter3_dg_73_56593)">
<ellipse cx="40.1164" cy="48.3198" rx="40.1164" ry="48.3198" transform="matrix(0.934541 -0.355857 0.327263 0.944933 285 343.551)" fill="#FEC400"/>
<path d="M321.181 325.496C344.572 316.589 370.314 332.62 379.532 359.235C388.75 385.851 378.817 415.467 355.426 424.373C332.035 433.28 306.293 417.249 297.075 390.633C287.857 364.018 297.791 334.403 321.181 325.496Z" stroke="black" stroke-width="8"/>
</g>
<g filter="url(#filter4_g_73_56593)">
<path d="M324.057 333.797C343.607 326.353 364.923 339.886 372.546 361.895C380.169 383.905 372.101 408.627 352.551 416.071C333.001 423.515 311.684 409.983 304.061 387.973C296.438 365.964 304.507 341.242 324.057 333.797Z" stroke="#FF9D33" stroke-width="8"/>
</g>
<g filter="url(#filter5_g_73_56593)">
<path d="M350.23 401.063C350.107 401.724 349.813 402.285 349.347 402.745C348.881 403.206 348.34 403.507 347.724 403.647C347.143 403.774 346.538 403.721 345.91 403.487C345.331 403.283 344.849 402.852 344.465 402.195C344.402 402.124 344.288 401.908 344.123 401.546C343.993 401.17 343.846 400.801 343.681 400.438C343.537 400.021 343.389 399.652 343.239 399.331C343.123 398.997 343.066 398.83 343.066 398.83C342.228 399.007 341.237 399.196 340.095 399.395C338.972 399.539 337.955 399.595 337.045 399.563C336.44 399.51 335.801 399.47 335.127 399.443C334.473 399.362 333.83 399.252 333.196 399.116C332.548 398.937 331.92 398.704 331.312 398.416C330.724 398.073 330.211 397.607 329.772 397.018C329.426 396.583 329.124 396.107 328.867 395.591C328.63 395.019 328.47 394.443 328.385 393.861C328.336 393.266 328.377 392.707 328.508 392.184C328.675 391.648 328.995 391.219 329.47 390.897C329.772 390.64 330.124 390.529 330.528 390.565C330.916 390.558 331.309 390.621 331.707 390.753C332.105 390.885 332.517 391.059 332.943 391.275C333.355 391.449 333.746 391.56 334.114 391.608C335.039 391.682 336.077 391.688 337.229 391.627C338.4 391.512 339.464 391.367 340.42 391.192L336.647 380.297C335.939 380.284 335.151 380.324 334.284 380.417C333.452 380.498 332.766 380.547 332.224 380.564C331.703 380.526 331.231 380.517 330.807 380.537C330.404 380.501 330.028 380.432 329.68 380.328C327.914 380.197 326.426 379.512 325.215 378.272C324.609 377.653 324.09 377 323.657 376.314C323.21 375.587 322.82 374.743 322.487 373.783C322.198 372.948 322 372.15 321.892 371.388C321.77 370.584 321.704 369.829 321.695 369.124C321.676 367.714 321.973 366.373 322.588 365.099C322.829 364.441 323.15 363.846 323.553 363.314C323.99 362.77 324.461 362.213 324.967 361.642C325.439 361.084 326.094 360.551 326.935 360.042C327.775 359.533 328.526 359.106 329.188 358.759C328.985 358.175 328.776 357.57 328.559 356.943C328.327 356.276 328.27 355.66 328.388 355.095C328.556 354.228 328.763 353.582 329.007 353.159C329.251 352.735 329.733 352.433 330.453 352.254C331.103 352.1 331.721 352.078 332.306 352.186C332.89 352.294 333.434 352.678 333.936 353.337C333.965 353.42 334.044 353.65 334.174 354.026C334.325 354.346 334.489 354.709 334.668 355.113C334.862 355.559 335.06 356.074 335.262 356.659C336.469 356.53 337.738 356.472 339.072 356.484C340.425 356.441 341.701 356.569 342.899 356.869C343.862 357.164 344.697 357.602 345.406 358.182C346.136 358.707 346.671 359.519 347.012 360.618C347.18 361.215 347.185 361.851 347.028 362.525C346.87 363.199 346.564 363.67 346.11 363.938C345.586 364.232 345.032 364.325 344.447 364.217C343.848 364.067 343.273 363.931 342.723 363.81C342.02 363.7 341.214 363.629 340.304 363.597C339.414 363.511 338.557 363.577 337.734 363.796L340.727 372.437C341.539 372.411 342.414 372.455 343.353 372.57C344.278 372.644 345.084 372.715 345.772 372.783C348.039 373.007 349.983 373.991 351.603 375.736C353.244 377.426 354.442 379.474 355.197 381.88C355.712 383.479 355.959 385.039 355.938 386.558C355.864 387.248 355.741 387.909 355.569 388.541C355.397 389.174 355.176 389.778 354.906 390.353C354.651 390.97 354.339 391.537 353.971 392.055C353.589 392.532 353.162 393.048 352.691 393.606C352.176 394.038 351.592 394.497 350.939 394.982C350.271 395.425 349.621 395.861 348.988 396.291C348.954 396.305 348.97 396.464 349.037 396.769C349.123 397.02 349.224 397.312 349.34 397.646C349.49 397.966 349.623 398.294 349.739 398.628C349.875 398.907 349.95 399.067 349.964 399.109C350.21 399.818 350.299 400.47 350.23 401.063ZM329.434 371.492C329.584 371.813 329.835 372.143 330.187 372.481C330.524 372.778 330.875 372.999 331.238 373.144C331.635 373.276 332.087 373.34 332.594 373.336C333.087 373.291 333.606 373.211 334.153 373.097L331.703 366.022C330.592 366.54 329.765 367.256 329.222 368.171C328.699 369.032 328.77 370.139 329.434 371.492ZM349.078 383.005C348.821 382.489 348.475 382.054 348.039 381.7C347.624 381.291 347.144 380.977 346.6 380.76C346.09 380.529 345.55 380.38 344.979 380.314C344.429 380.192 343.908 380.155 343.415 380.2C343.921 381.661 344.452 383.137 345.007 384.626C345.582 386.061 346.105 387.515 346.577 388.989C347.124 388.875 347.627 388.636 348.087 388.272C348.533 387.866 348.881 387.403 349.131 386.883C349.366 386.321 349.486 385.708 349.491 385.045C349.53 384.368 349.393 383.688 349.078 383.005Z" fill="#FF9D33"/>
</g>
<g filter="url(#filter6_dg_73_56593)">
<ellipse cx="305.456" cy="624.516" rx="57.2221" ry="66.463" transform="rotate(17.3715 305.456 624.516)" fill="#FEC400"/>
<path d="M326.493 557.267C359.279 567.524 375.33 606.211 363.886 642.795C352.441 679.379 317.204 702.022 284.418 691.765C251.632 681.508 235.581 642.821 247.026 606.237C258.471 569.653 293.707 547.011 326.493 557.267Z" stroke="black" stroke-width="8"/>
</g>
<g filter="url(#filter7_g_73_56593)">
<path d="M322.886 568.8C350.07 577.304 363.155 609.418 353.709 639.611C344.264 669.805 315.21 688.736 288.026 680.232C260.842 671.728 247.757 639.614 257.202 609.421C266.648 579.227 295.702 560.296 322.886 568.8Z" stroke="#FF9D33" stroke-width="8"/>
</g>
<g filter="url(#filter8_g_73_56593)">
<path d="M297.383 663.318C296.695 663.93 295.894 664.284 294.98 664.38C294.066 664.476 293.2 664.333 292.381 663.949C291.612 663.581 290.966 662.997 290.443 662.197C289.952 661.47 289.761 660.583 289.868 659.534C289.854 659.402 289.903 659.068 290.016 658.53C290.179 658.008 290.317 657.478 290.43 656.941C290.612 656.361 290.75 655.831 290.845 655.352C290.99 654.888 291.062 654.656 291.062 654.656C289.96 654.12 288.674 653.463 287.205 652.685C285.805 651.865 284.598 651.042 283.586 650.216C282.94 649.632 282.244 649.032 281.498 648.417C280.82 647.759 280.176 647.08 279.567 646.38C278.975 645.622 278.452 644.822 277.998 643.979C277.612 643.095 277.413 642.141 277.401 641.119C277.367 640.344 277.418 639.565 277.553 638.779C277.757 637.952 278.052 637.185 278.439 636.478C278.876 635.787 279.386 635.215 279.97 634.761C280.605 634.322 281.326 634.134 282.135 634.197C282.693 634.18 283.187 634.366 283.617 634.756C284.066 635.087 284.462 635.497 284.806 635.987C285.15 636.477 285.476 637.024 285.784 637.63C286.11 638.177 286.463 638.638 286.843 639.011C287.837 639.895 289.016 640.805 290.38 641.741C291.813 642.635 293.147 643.403 294.382 644.044L299.117 628.909C298.32 628.278 297.389 627.636 296.322 626.984C295.306 626.348 294.482 625.804 293.85 625.352C293.287 624.857 292.756 624.436 292.257 624.089C291.826 623.7 291.455 623.297 291.143 622.881C289.238 621.203 288.109 619.163 287.756 616.76C287.579 615.559 287.528 614.397 287.603 613.275C287.696 612.094 287.952 610.837 288.369 609.504C288.732 608.344 289.168 607.303 289.677 606.38C290.205 605.399 290.756 604.521 291.33 603.745C292.478 602.195 293.931 600.994 295.688 600.143C296.51 599.636 297.37 599.269 298.27 599.041C299.22 598.829 300.22 598.632 301.271 598.452C302.272 598.256 303.462 598.246 304.843 598.423C306.223 598.601 307.435 598.789 308.477 598.987C308.731 598.176 308.994 597.335 309.267 596.465C309.557 595.537 310.003 594.817 310.605 594.305C311.517 593.508 312.288 592.986 312.918 592.737C313.548 592.489 314.348 592.58 315.318 593.01C316.188 593.41 316.911 593.922 317.488 594.549C318.066 595.175 318.367 596.065 318.393 597.219C318.357 597.335 318.257 597.654 318.094 598.176C317.999 598.655 317.886 599.193 317.755 599.789C317.605 600.442 317.404 601.175 317.15 601.987C318.633 602.896 320.13 603.938 321.641 605.111C323.22 606.241 324.569 607.491 325.688 608.86C326.541 610.018 327.131 611.221 327.458 612.469C327.854 613.675 327.791 615.024 327.269 616.516C326.965 617.313 326.443 618.009 325.704 618.605C324.966 619.202 324.226 619.448 323.485 619.343C322.644 619.208 321.935 618.826 321.357 618.2C320.798 617.516 320.255 616.869 319.728 616.258C319.018 615.527 318.157 614.748 317.145 613.922C316.201 613.054 315.169 612.381 314.048 611.903L310.293 623.906C311.24 624.585 312.202 625.395 313.178 626.337C314.172 627.221 315.033 627.999 315.761 628.673C318.161 630.888 319.562 633.65 319.963 636.958C320.432 640.225 320.1 643.495 318.965 646.769C318.226 648.956 317.213 650.868 315.928 652.503C315.272 653.189 314.583 653.801 313.863 654.34C313.142 654.878 312.389 655.343 311.604 655.734C310.8 656.183 309.974 656.529 309.125 656.773C308.293 656.958 307.377 657.149 306.377 657.346C305.431 657.368 304.384 657.359 303.237 657.318C302.108 657.22 301.004 657.129 299.925 657.046C299.875 657.031 299.761 657.218 299.584 657.608C299.475 657.956 299.348 658.362 299.203 658.826C299.108 659.305 298.988 659.777 298.843 660.241C298.766 660.663 298.719 660.903 298.701 660.961C298.392 661.946 297.953 662.732 297.383 663.318ZM298.194 613.055C298.099 613.535 298.112 614.111 298.233 614.786C298.371 615.402 298.587 615.947 298.881 616.421C299.225 616.911 299.688 617.374 300.269 617.81C300.869 618.189 301.528 618.554 302.246 618.906L305.321 609.077C303.624 608.674 302.087 608.734 300.708 609.257C299.397 609.739 298.559 611.005 298.194 613.055ZM311.051 642.669C311.186 641.884 311.152 641.11 310.95 640.346C310.815 639.54 310.528 638.781 310.087 638.071C309.697 637.376 309.204 636.744 308.609 636.176C308.082 635.565 307.518 635.071 306.919 634.692C306.284 636.722 305.665 638.788 305.062 640.891C304.528 642.952 303.918 644.99 303.233 647.004C303.951 647.356 304.724 647.534 305.551 647.538C306.397 647.484 307.178 647.283 307.894 646.934C308.629 646.527 309.274 645.965 309.83 645.248C310.436 644.546 310.843 643.687 311.051 642.669Z" fill="#FF9D33"/>
</g>
<g filter="url(#filter9_dg_73_56593)">
<ellipse cx="30.3193" cy="45.4015" rx="30.3193" ry="45.4015" transform="matrix(0.99805 -0.0624117 -0.743144 0.669131 357.48 810.785)" fill="#FEC400"/>
<path d="M390.712 806.216C400.815 805.584 404.911 809.154 404.226 814.758C403.539 820.38 398.076 828.285 388.253 837.13C378.43 845.975 365.838 854.326 353.209 860.694C340.618 867.043 327.391 871.696 317.288 872.328C307.185 872.96 303.09 869.39 303.774 863.786C304.461 858.164 309.925 850.258 319.748 841.414C329.571 832.569 342.162 824.218 354.791 817.849C367.382 811.5 380.609 806.848 390.712 806.216Z" stroke="black" stroke-width="8"/>
</g>
<g filter="url(#filter10_g_73_56593)">
<path d="M384.578 811.739C393.161 811.202 396.567 814.24 395.997 818.907C395.425 823.591 390.879 830.154 382.75 837.474C374.621 844.793 364.179 851.725 353.656 857.032C343.17 862.319 332.006 866.267 323.422 866.804C314.839 867.341 311.433 864.303 312.003 859.636C312.575 854.952 317.121 848.389 325.25 841.069C333.379 833.75 343.821 826.818 354.344 821.511C364.83 816.224 375.994 812.276 384.578 811.739Z" stroke="#FF9D33" stroke-width="8"/>
</g>
<g filter="url(#filter11_g_73_56593)">
<path d="M335.99 857.123C335.341 857.499 334.703 857.784 334.076 857.978C333.45 858.172 332.932 858.256 332.524 858.23C332.144 858.202 331.915 858.062 331.836 857.808C331.754 857.581 331.92 857.236 332.333 856.771C332.367 856.717 332.508 856.567 332.758 856.319C333.035 856.069 333.298 855.821 333.548 855.573C333.856 855.296 334.119 855.047 334.338 854.827C334.584 854.605 334.707 854.494 334.707 854.494C334.165 854.451 333.542 854.386 332.84 854.301C332.196 854.187 331.68 854.038 331.291 853.856C331.061 853.716 330.804 853.577 330.52 853.44C330.293 853.274 330.096 853.093 329.928 852.897C329.791 852.673 329.712 852.42 329.692 852.137C329.73 851.825 329.913 851.453 330.24 851.02C330.471 850.695 330.759 850.355 331.105 849.998C331.508 849.611 331.951 849.235 332.434 848.87C332.945 848.503 333.465 848.173 333.994 847.882C334.55 847.589 335.082 847.388 335.589 847.279C335.957 847.179 336.218 847.176 336.371 847.269C336.555 847.335 336.679 847.443 336.742 847.594C336.806 847.745 336.839 847.924 336.841 848.13C336.874 848.308 336.954 848.445 337.079 848.541C337.437 848.751 337.907 848.94 338.489 849.11C339.13 849.251 339.748 849.354 340.342 849.42L348.379 842.184C348.067 842.048 347.67 841.931 347.189 841.832C346.735 841.732 346.377 841.638 346.113 841.551C345.908 841.435 345.7 841.345 345.489 841.281C345.336 841.187 345.226 841.078 345.159 840.953C344.467 840.558 344.399 839.878 344.956 838.915C345.234 838.433 345.581 837.947 345.997 837.456C346.444 836.938 347.022 836.36 347.73 835.723C348.346 835.168 348.971 834.652 349.604 834.173C350.269 833.668 350.915 833.201 351.543 832.775C352.798 831.923 354.137 831.168 355.56 830.511C356.261 830.158 356.942 829.857 357.603 829.61C358.291 829.36 359.007 829.109 359.75 828.856C360.466 828.605 361.245 828.402 362.086 828.246C362.927 828.09 363.655 827.967 364.269 827.877C364.7 827.489 365.146 827.087 365.608 826.671C366.101 826.227 366.627 825.846 367.187 825.527C368.041 825.035 368.715 824.684 369.206 824.472C369.698 824.261 370.189 824.166 370.68 824.187C371.116 824.211 371.419 824.308 371.59 824.478C371.761 824.648 371.666 824.976 371.305 825.463C371.244 825.519 371.074 825.671 370.797 825.921C370.578 826.141 370.329 826.389 370.049 826.664C369.738 826.967 369.366 827.313 368.935 827.701C369.604 827.84 370.238 828.033 370.838 828.279C371.497 828.496 371.966 828.802 372.247 829.197C372.423 829.547 372.414 829.961 372.219 830.437C372.082 830.884 371.599 831.469 370.771 832.192C370.312 832.582 369.745 832.966 369.068 833.343C368.392 833.721 367.83 833.95 367.381 834.029C366.878 834.112 366.541 834.069 366.369 833.899C366.229 833.701 366.087 833.517 365.944 833.345C365.721 833.153 365.415 832.966 365.026 832.783C364.695 832.572 364.243 832.458 363.67 832.443L357.296 838.182C357.691 838.312 358.052 838.496 358.379 838.733C358.737 838.943 359.043 839.13 359.297 839.295C360.136 839.836 360.144 840.777 359.322 842.119C358.559 843.431 357.272 844.878 355.462 846.462C354.264 847.518 352.979 848.501 351.607 849.412C350.955 849.814 350.306 850.19 349.661 850.54C349.015 850.89 348.373 851.214 347.733 851.512C347.063 851.838 346.412 852.124 345.779 852.37C345.176 852.588 344.517 852.823 343.802 853.074C343.178 853.242 342.499 853.413 341.765 853.588C341.062 853.736 340.373 853.882 339.697 854.027C339.67 854.029 339.534 854.128 339.291 854.324C339.107 854.49 338.891 854.684 338.645 854.906C338.426 855.126 338.193 855.347 337.947 855.569C337.759 855.761 337.65 855.871 337.619 855.899C337.095 856.37 336.552 856.778 335.99 857.123ZM352.967 835.589C352.748 835.809 352.568 836.052 352.426 836.319C352.314 836.558 352.277 836.754 352.313 836.907C352.377 837.057 352.526 837.177 352.762 837.266C353.029 837.326 353.338 837.371 353.691 837.401L358.911 832.701C357.938 832.814 356.916 833.097 355.847 833.551C354.836 833.975 353.876 834.655 352.967 835.589ZM351.649 846.043C351.994 845.686 352.225 845.362 352.343 845.071C352.519 844.75 352.58 844.475 352.526 844.246C352.499 844.016 352.385 843.83 352.183 843.687C352.04 843.516 351.835 843.4 351.568 843.339C350.49 844.309 349.411 845.293 348.33 846.289C347.308 847.256 346.244 848.226 345.138 849.198C345.491 849.227 345.936 849.174 346.473 849.037C347.042 848.872 347.616 848.656 348.197 848.387C348.809 848.091 349.413 847.744 350.01 847.345C350.634 846.945 351.181 846.511 351.649 846.043Z" fill="#FF9D33"/>
</g>
<g filter="url(#filter12_dg_73_56593)">
<ellipse cx="358.848" cy="46.1893" rx="27.5104" ry="31.9531" transform="rotate(-23.1211 358.848 46.1893)" fill="#FEC400"/>
<path d="M344.73 13.124C361.233 6.07817 380.259 16.0909 387.827 33.8161C395.395 51.5413 389.468 72.2083 372.966 79.2545C356.464 86.3005 337.437 76.288 329.869 58.5627C322.3 40.8374 328.228 20.17 344.73 13.124Z" stroke="black" stroke-width="8"/>
</g>
<g filter="url(#filter13_g_73_56593)">
<path d="M347.011 18.4673C360.927 12.5255 376.813 21.0749 383.113 35.829C389.412 50.583 384.6 67.9701 370.684 73.9119C356.768 79.8534 340.882 71.3038 334.583 56.5499C328.283 41.7959 333.095 24.4093 347.011 18.4673Z" stroke="#FF9D33" stroke-width="8"/>
</g>
<g filter="url(#filter14_g_73_56593)">
<path d="M368.01 62.8959C367.949 63.3347 367.767 63.7144 367.463 64.0348C367.158 64.3552 366.797 64.5731 366.378 64.6886C365.982 64.7941 365.563 64.7822 365.122 64.6528C364.716 64.5404 364.369 64.2758 364.081 63.8589C364.034 63.8151 363.948 63.6773 363.821 63.4455C363.718 63.2037 363.603 62.9669 363.477 62.7351C363.362 62.4664 363.247 62.2296 363.132 62.0247C363.04 61.8097 362.994 61.7023 362.994 61.7023C362.424 61.8506 361.749 62.0118 360.969 62.186C360.201 62.3234 359.503 62.399 358.875 62.413C358.457 62.4011 358.015 62.3991 357.55 62.4071C357.097 62.3783 356.649 62.3311 356.208 62.2654C355.755 62.1729 355.314 62.0436 354.885 61.8775C354.467 61.6745 354.097 61.388 353.774 61.0179C353.52 60.7453 353.295 60.4443 353.099 60.1149C352.915 59.7488 352.783 59.3762 352.704 58.9971C352.648 58.608 352.656 58.2394 352.728 57.8911C352.823 57.5329 353.028 57.2389 353.343 57.009C353.542 56.8289 353.781 56.7428 354.06 56.7507C354.327 56.7318 354.6 56.7582 354.879 56.8298C355.158 56.9014 355.448 56.9999 355.749 57.1252C356.039 57.2237 356.312 57.2819 356.568 57.2998C357.207 57.3127 357.922 57.2773 358.713 57.1937C359.516 57.0732 360.243 56.9374 360.895 56.7861L357.902 49.7744C357.413 49.7924 356.872 49.8486 356.279 49.9432C355.709 50.0278 355.238 50.086 354.865 50.1179C354.505 50.113 354.179 50.1249 353.889 50.1538C353.61 50.1459 353.348 50.1145 353.105 50.0598C351.884 50.041 350.834 49.6476 349.955 48.8795C349.516 48.4954 349.134 48.0865 348.811 47.6527C348.477 47.192 348.178 46.6527 347.914 46.0349C347.684 45.4976 347.519 44.9807 347.417 44.4842C347.304 43.9608 347.231 43.4678 347.199 43.0051C347.134 42.0797 347.291 41.1872 347.668 40.3275C347.81 39.8857 348.01 39.4827 348.268 39.1185C348.549 38.7443 348.853 38.3602 349.181 37.9662C349.485 37.5821 349.918 37.207 350.478 36.8407C351.038 36.4745 351.54 36.1651 351.983 35.9123C351.822 35.5362 351.656 35.1466 351.484 34.7437C351.3 34.3138 351.239 33.9114 351.299 33.5362C351.384 32.9601 351.503 32.5283 351.655 32.2407C351.808 31.9531 352.129 31.7367 352.618 31.5914C353.061 31.466 353.485 31.4277 353.892 31.4764C354.298 31.5251 354.686 31.7564 355.056 32.1703C355.079 32.224 355.142 32.3718 355.245 32.6136C355.36 32.8185 355.487 33.0504 355.625 33.3091C355.774 33.5946 355.929 33.9255 356.09 34.3016C356.916 34.1712 357.789 34.0845 358.707 34.0417C359.638 33.962 360.521 33.9978 361.357 34.149C362.031 34.3061 362.622 34.5618 363.131 34.916C363.653 35.2334 364.051 35.7463 364.326 36.4547C364.463 36.8407 364.49 37.2582 364.406 37.7069C364.322 38.1557 364.128 38.4766 363.825 38.6696C363.475 38.8826 363.096 38.9647 362.69 38.916C362.272 38.8404 361.871 38.7732 361.488 38.7146C361 38.6688 360.442 38.653 359.814 38.6669C359.198 38.6441 358.611 38.7202 358.052 38.8954L360.426 44.4564C360.984 44.4086 361.589 44.4046 362.24 44.4443C362.879 44.4572 363.437 44.4731 363.913 44.4919C365.482 44.5525 366.857 45.1251 368.036 46.2095C369.228 47.2572 370.127 48.5566 370.734 50.1078C371.147 51.1386 371.373 52.1535 371.414 53.1525C371.388 53.6082 371.327 54.047 371.232 54.4689C371.137 54.8908 371.006 55.2958 370.841 55.6839C370.688 56.0988 370.494 56.4834 370.259 56.8376C370.013 57.165 369.738 57.5208 369.434 57.9048C369.095 58.2084 368.709 58.5318 368.277 58.8751C367.833 59.1915 367.401 59.503 366.981 59.8095C366.958 59.8194 366.975 59.9234 367.032 60.1214C367.101 60.2826 367.181 60.4707 367.273 60.6856C367.388 60.8905 367.491 61.1005 367.583 61.3154C367.686 61.4935 367.744 61.596 367.755 61.6228C367.95 62.0795 368.035 62.5039 368.01 62.8959ZM352.615 44.2659C352.73 44.4709 352.915 44.6778 353.169 44.8867C353.412 45.0688 353.662 45.2006 353.917 45.2822C354.195 45.3538 354.509 45.3787 354.858 45.3568C355.195 45.308 355.55 45.2358 355.923 45.1403L353.979 40.5867C353.233 40.9689 352.689 41.4709 352.348 42.0928C352.019 42.6779 352.108 43.4023 352.615 44.2659ZM366.561 51.0797C366.365 50.7504 366.111 50.4778 365.798 50.2619C365.497 50.0092 365.156 49.8217 364.773 49.6993C364.413 49.567 364.036 49.4899 363.64 49.468C363.257 49.4094 362.897 49.4044 362.559 49.4532C362.961 50.3934 363.38 51.3422 363.816 52.2993C364.264 53.2197 364.677 54.155 365.055 55.1052C365.428 55.0096 365.766 54.8335 366.07 54.5768C366.362 54.2932 366.585 53.9757 366.738 53.6245C366.88 53.2464 366.94 52.8394 366.919 52.4036C366.922 51.9578 366.802 51.5165 366.561 51.0797Z" fill="#FF9D33"/>
</g>
<g filter="url(#filter15_dg_73_56593)">
<ellipse cx="46.0697" cy="68.9869" rx="46.0697" ry="68.9869" transform="matrix(0.639538 0.76876 -0.978793 -0.204852 141.048 799.264)" fill="#FEC400"/>
<path d="M174.426 835.5C183.681 846.625 183.152 854.525 175.869 858.597C168.572 862.678 154.321 863.082 135.008 859.04C115.696 854.998 94.6238 847.202 76.0277 837.701C57.4698 828.221 40.8035 816.722 31.548 805.597C22.2928 794.471 22.8227 786.573 30.1053 782.5C37.403 778.419 51.6529 778.015 70.9653 782.057C90.278 786.099 111.351 793.896 129.947 803.396C148.505 812.877 165.17 824.374 174.426 835.5Z" stroke="black" stroke-width="8"/>
</g>
<g filter="url(#filter16_g_73_56593)">
<path d="M162.149 832.931C169.925 842.278 169.43 848.855 163.4 852.227C157.355 855.608 145.574 855.933 129.652 852.601C113.73 849.269 96.3257 842.835 80.9205 834.965C65.5539 827.114 51.6014 817.514 43.8253 808.167C36.0491 798.819 36.5442 792.243 42.5745 788.871C48.6199 785.49 60.4008 785.164 76.3233 788.497C92.2456 791.829 109.649 798.263 125.054 806.133C140.421 813.983 154.373 823.583 162.149 832.931Z" stroke="#FF9D33" stroke-width="8"/>
</g>
<g filter="url(#filter17_g_73_56593)">
<path d="M64.9382 814.471C63.895 814.012 62.9735 813.486 62.1735 812.891C61.3735 812.297 60.8066 811.737 60.4727 811.214C60.1657 810.722 60.1321 810.315 60.3719 809.991C60.577 809.687 61.1495 809.58 62.0896 809.67C62.186 809.664 62.498 809.702 63.0258 809.786C63.5804 809.902 64.1216 810.002 64.6494 810.086C65.2656 810.215 65.8068 810.315 66.2729 810.385C66.7659 810.489 67.0124 810.54 67.0124 810.54C66.5789 809.836 66.0993 809.014 65.5739 808.077C65.1369 807.185 64.8557 806.418 64.7303 805.778C64.6967 805.371 64.6362 804.931 64.5488 804.459C64.55 804.032 64.5954 803.628 64.685 803.246C64.8363 802.877 65.0761 802.554 65.4045 802.275C65.8213 802.042 66.442 801.932 67.2667 801.944C67.8718 801.937 68.548 801.985 69.2954 802.088C70.1312 802.237 70.9901 802.443 71.8719 802.708C72.7806 803.005 73.6506 803.347 74.482 803.735C75.3403 804.154 76.0635 804.626 76.6517 805.15C77.1055 805.512 77.3436 805.828 77.366 806.1C77.45 806.385 77.4282 806.634 77.3004 806.847C77.1727 807.061 76.9833 807.261 76.7323 807.449C76.5429 807.65 76.446 807.87 76.4415 808.109C76.5053 808.736 76.6941 809.483 77.0078 810.35C77.41 811.261 77.8374 812.112 78.29 812.901L94.3744 816.267C94.2602 815.762 94.0479 815.171 93.7375 814.492C93.4541 813.845 93.2474 813.321 93.1174 812.92C93.076 812.565 92.9998 812.228 92.8889 811.912C92.8665 811.64 92.9018 811.407 92.9948 811.213C92.8593 810.01 93.6319 809.318 95.3127 809.135C96.153 809.044 97.0606 809.034 98.0355 809.105C99.0719 809.188 100.299 809.378 101.716 809.675C102.949 809.933 104.143 810.236 105.298 810.584C106.515 810.946 107.666 811.32 108.752 811.708C110.923 812.483 113.05 813.448 115.132 814.605C116.194 815.147 117.173 815.713 118.069 816.301C118.993 816.921 119.943 817.574 120.92 818.259C121.87 818.911 122.818 819.684 123.763 820.576C124.709 821.468 125.512 822.25 126.173 822.922C127.036 823.103 127.93 823.29 128.854 823.483C129.84 823.69 130.78 823.993 131.673 824.393C133.043 825.001 134.078 825.511 134.779 825.924C135.479 826.338 136.036 826.855 136.451 827.476C136.812 828.032 136.965 828.491 136.91 828.853C136.855 829.215 136.367 829.393 135.446 829.388C135.322 829.362 134.983 829.291 134.429 829.175C133.963 829.104 133.435 829.02 132.846 828.923C132.195 828.814 131.438 828.669 130.575 828.488C131.004 829.432 131.337 830.383 131.573 831.34C131.898 832.342 131.944 833.193 131.711 833.892C131.44 834.422 130.924 834.781 130.165 834.969C129.493 835.203 128.343 835.135 126.714 834.768C125.824 834.555 124.844 834.203 123.774 833.712C122.704 833.221 121.92 832.737 121.42 832.258C120.866 831.715 120.617 831.263 120.672 830.9C120.789 830.551 120.888 830.212 120.97 829.882C121.005 829.435 120.961 828.892 120.835 828.252C120.798 827.657 120.532 827 120.037 826.283L107.28 823.613C107.475 824.214 107.574 824.822 107.576 825.437C107.64 826.064 107.685 826.607 107.71 827.067C107.799 828.58 106.652 829.434 104.27 829.63C101.976 829.871 99.0461 829.591 95.4796 828.791C93.1109 828.269 90.7524 827.575 88.4039 826.71C87.326 826.271 86.2828 825.812 85.2744 825.334C84.266 824.856 83.2923 824.359 82.3534 823.842C81.3528 823.312 80.4178 822.769 79.5483 822.214C78.7405 821.671 77.8615 821.073 76.9114 820.42C76.1461 819.806 75.3271 819.128 74.4543 818.385C73.6431 817.654 72.8453 816.94 72.061 816.242C72.0341 816.21 71.7916 816.132 71.3333 816.009C70.9635 815.932 70.5322 815.842 70.0391 815.739C69.573 815.668 69.0935 815.581 68.6005 815.478C68.196 815.42 67.9629 815.384 67.9013 815.371C66.8536 815.152 65.8659 814.852 64.9382 814.471ZM106.578 815.978C106.112 815.907 105.652 815.904 105.197 815.969C104.803 816.047 104.529 816.177 104.375 816.358C104.247 816.571 104.235 816.862 104.338 817.231C104.502 817.612 104.725 818.033 105.005 818.492L115.451 820.678C114.44 819.585 113.177 818.587 111.661 817.682C110.233 816.823 108.539 816.255 106.578 815.978ZM92.5739 823.738C93.3213 823.841 93.9264 823.835 94.3891 823.718C94.9404 823.646 95.332 823.475 95.564 823.203C95.8228 822.964 95.9489 822.656 95.9422 822.281C96.024 821.951 95.9826 821.595 95.8179 821.214C93.661 820.763 91.4867 820.321 89.295 819.889C87.1919 819.502 85.0484 819.067 82.8646 818.583C83.1447 819.042 83.6097 819.54 84.2596 820.076C84.971 820.626 85.752 821.136 86.6024 821.608C87.5145 822.092 88.4825 822.522 89.5066 822.896C90.5576 823.303 91.5801 823.584 92.5739 823.738Z" fill="#FF9D33"/>
</g>
<g filter="url(#filter18_dg_73_56593)">
<ellipse cx="126.623" cy="645.836" rx="68.1101" ry="79.1093" transform="rotate(17.3715 126.623 645.836)" fill="#FEC400"/>
<path d="M151.437 566.518C189.962 578.57 208.975 624.116 195.444 667.366C181.914 710.616 140.334 737.207 101.809 725.155C63.2843 713.103 44.2717 667.557 57.8018 624.307C71.332 581.057 112.912 554.466 151.437 566.518Z" stroke="black" stroke-width="8"/>
</g>
<g filter="url(#filter19_g_73_56593)">
<path d="M147.142 580.245C178.996 590.21 194.484 627.929 183.332 663.577C172.18 699.224 137.958 721.392 106.104 711.427C74.2503 701.462 58.7626 663.743 69.9144 628.096C81.0663 592.448 115.289 570.28 147.142 580.245Z" stroke="#FF9D33" stroke-width="8"/>
</g>
<g filter="url(#filter20_g_73_56593)">
<path d="M117.015 692.021C116.195 692.75 115.241 693.171 114.154 693.286C113.066 693.4 112.035 693.229 111.06 692.773C110.145 692.335 109.376 691.64 108.754 690.687C108.17 689.822 107.941 688.766 108.069 687.518C108.052 687.361 108.111 686.963 108.246 686.323C108.44 685.701 108.604 685.071 108.739 684.431C108.955 683.741 109.119 683.11 109.232 682.539C109.405 681.987 109.491 681.711 109.491 681.711C108.178 681.073 106.648 680.291 104.9 679.365C103.233 678.389 101.797 677.41 100.592 676.427C99.8235 675.731 98.995 675.018 98.1065 674.285C97.2995 673.502 96.5332 672.694 95.8077 671.861C95.1038 670.959 94.4814 670.006 93.9404 669.003C93.4809 667.95 93.2442 666.815 93.2304 665.599C93.1901 664.677 93.2504 663.748 93.4113 662.814C93.6537 661.829 94.0051 660.916 94.4655 660.074C94.9857 659.252 95.5933 658.571 96.2883 658.03C97.0432 657.509 97.9022 657.285 98.8652 657.359C99.5288 657.339 100.117 657.561 100.629 658.024C101.163 658.419 101.635 658.907 102.044 659.49C102.454 660.073 102.842 660.725 103.208 661.445C103.596 662.097 104.016 662.645 104.468 663.09C105.651 664.142 107.055 665.225 108.679 666.339C110.384 667.403 111.972 668.317 113.442 669.08L119.078 651.065C118.13 650.314 117.021 649.55 115.751 648.774C114.542 648.017 113.561 647.369 112.809 646.831C112.139 646.242 111.506 645.741 110.913 645.328C110.4 644.865 109.958 644.386 109.587 643.891C107.319 641.893 105.975 639.465 105.555 636.605C105.345 635.175 105.284 633.792 105.374 632.456C105.484 631.051 105.788 629.555 106.285 627.968C106.717 626.587 107.236 625.348 107.842 624.249C108.471 623.082 109.126 622.037 109.81 621.114C111.176 619.268 112.905 617.839 114.997 616.826C115.975 616.222 116.999 615.785 118.07 615.514C119.201 615.262 120.392 615.028 121.642 614.813C122.833 614.579 124.25 614.568 125.893 614.779C127.537 614.99 128.979 615.214 130.22 615.45C130.522 614.484 130.835 613.483 131.159 612.448C131.504 611.344 132.035 610.487 132.752 609.877C133.838 608.929 134.756 608.307 135.506 608.011C136.256 607.715 137.208 607.823 138.362 608.336C139.397 608.811 140.258 609.422 140.945 610.167C141.632 610.913 141.991 611.972 142.022 613.346C141.979 613.484 141.86 613.863 141.666 614.484C141.553 615.055 141.418 615.695 141.262 616.404C141.085 617.182 140.845 618.054 140.542 619.021C142.307 620.103 144.089 621.343 145.888 622.739C147.768 624.085 149.373 625.572 150.705 627.201C151.72 628.579 152.422 630.012 152.812 631.498C153.283 632.933 153.208 634.539 152.587 636.315C152.225 637.262 151.604 638.091 150.725 638.801C149.845 639.511 148.965 639.804 148.083 639.68C147.082 639.518 146.237 639.064 145.55 638.319C144.885 637.504 144.238 636.734 143.611 636.007C142.765 635.137 141.74 634.21 140.536 633.227C139.413 632.193 138.184 631.392 136.85 630.823L132.38 645.111C133.508 645.918 134.653 646.883 135.814 648.004C136.997 649.056 138.022 649.983 138.889 650.784C141.746 653.421 143.413 656.708 143.891 660.646C144.449 664.534 144.054 668.426 142.703 672.323C141.823 674.927 140.618 677.203 139.088 679.149C138.307 679.965 137.487 680.694 136.63 681.335C135.772 681.976 134.875 682.529 133.941 682.995C132.985 683.529 132.001 683.941 130.99 684.231C130 684.452 128.91 684.679 127.72 684.913C126.594 684.94 125.348 684.929 123.982 684.88C122.638 684.763 121.324 684.655 120.04 684.557C119.98 684.538 119.845 684.761 119.634 685.225C119.504 685.639 119.353 686.122 119.181 686.674C119.068 687.245 118.925 687.807 118.752 688.359C118.661 688.861 118.604 689.146 118.583 689.215C118.216 690.389 117.693 691.324 117.015 692.021ZM117.98 632.195C117.867 632.765 117.882 633.452 118.026 634.255C118.191 634.988 118.448 635.637 118.797 636.201C119.207 636.784 119.757 637.335 120.45 637.855C121.163 638.305 121.948 638.74 122.803 639.159L126.463 627.46C124.443 626.98 122.613 627.051 120.972 627.675C119.412 628.247 118.414 629.754 117.98 632.195ZM133.283 667.444C133.444 666.509 133.404 665.587 133.162 664.678C133.002 663.719 132.66 662.816 132.136 661.97C131.671 661.143 131.085 660.391 130.376 659.715C129.748 658.988 129.078 658.399 128.364 657.949C127.608 660.364 126.872 662.824 126.154 665.328C125.518 667.781 124.793 670.206 123.977 672.603C124.832 673.022 125.752 673.234 126.737 673.239C127.743 673.175 128.672 672.935 129.525 672.52C130.4 672.036 131.168 671.367 131.83 670.513C132.551 669.678 133.036 668.655 133.283 667.444Z" fill="#FF9D33"/>
</g>
<g filter="url(#filter21_dg_73_56593)">
<ellipse cx="68.8114" cy="75.5391" rx="68.8114" ry="75.5391" transform="matrix(0.805222 -0.592974 0.441606 0.897209 38 288.607)" fill="#FEC400"/>
<path d="M91.6421 244.215C124.298 220.166 166.156 233.312 185.396 272.403C204.637 311.493 194.548 362.893 161.892 386.941C129.236 410.989 87.3779 397.844 68.1376 358.753C48.8973 319.663 58.9859 268.263 91.6421 244.215Z" stroke="black" stroke-width="8"/>
</g>
<g filter="url(#filter22_g_73_56593)">
<path d="M97.7072 256.538C124.8 236.586 159.432 247.537 175.322 279.821C191.213 312.106 182.919 354.668 155.827 374.619C128.734 394.569 94.1027 383.619 78.2122 351.334C62.3217 319.05 70.6151 276.489 97.7072 256.538Z" stroke="#FF9D33" stroke-width="8"/>
</g>
<g filter="url(#filter23_g_73_56593)">
<path d="M150.075 353.044C150.016 354.183 149.673 355.236 149.047 356.203C148.42 357.17 147.647 357.908 146.726 358.418C145.856 358.89 144.915 359.077 143.903 358.98C142.971 358.908 142.146 358.42 141.426 357.518C141.314 357.431 141.096 357.128 140.772 356.609C140.498 356.052 140.198 355.514 139.874 354.994C139.569 354.376 139.27 353.838 138.976 353.38C138.732 352.885 138.611 352.638 138.611 352.638C137.356 353.309 135.869 354.067 134.149 354.912C132.449 355.658 130.896 356.212 129.49 356.574C128.548 356.761 127.557 356.986 126.514 357.248C125.492 357.411 124.48 357.524 123.478 357.588C122.445 357.59 121.433 357.492 120.441 357.296C119.468 357.001 118.587 356.47 117.797 355.704C117.178 355.148 116.621 354.505 116.124 353.775C115.647 352.946 115.287 352.074 115.043 351.158C114.849 350.205 114.802 349.27 114.902 348.354C115.053 347.4 115.462 346.551 116.129 345.807C116.544 345.249 117.065 344.908 117.692 344.783C118.289 344.596 118.906 344.521 119.544 344.557C120.182 344.592 120.85 344.69 121.549 344.85C122.217 344.948 122.84 344.953 123.417 344.865C124.854 344.565 126.453 344.104 128.213 343.482C129.994 342.76 131.603 342.039 133.039 341.319L125.093 325.174C124 325.474 122.796 325.897 121.481 326.444C120.216 326.954 119.169 327.346 118.339 327.62C117.529 327.795 116.801 327.994 116.153 328.218C115.526 328.343 114.934 328.4 114.377 328.389C111.634 328.976 109.209 328.528 107.102 327.046C106.048 326.305 105.121 325.471 104.32 324.544C103.489 323.555 102.723 322.349 102.023 320.926C101.414 319.689 100.952 318.471 100.636 317.27C100.291 316.008 100.041 314.801 99.888 313.65C99.5814 311.347 99.776 309.013 100.472 306.647C100.713 305.457 101.091 304.336 101.606 303.283C102.172 302.192 102.788 301.064 103.455 299.899C104.071 298.771 104.975 297.599 106.168 296.384C107.361 295.168 108.433 294.126 109.384 293.257C108.957 292.391 108.516 291.495 108.059 290.567C107.572 289.577 107.363 288.593 107.433 287.615C107.522 286.116 107.713 284.964 108.006 284.159C108.298 283.354 108.981 282.641 110.053 282.019C111.024 281.473 111.97 281.155 112.891 281.067C113.812 280.979 114.724 281.361 115.626 282.213C115.687 282.337 115.854 282.677 116.128 283.234C116.422 283.692 116.747 284.211 117.102 284.792C117.487 285.436 117.893 286.19 118.32 287.056C120.151 286.297 122.094 285.625 124.148 285.04C126.222 284.355 128.211 283.986 130.114 283.933C131.653 283.979 133.025 284.317 134.23 284.947C135.456 285.477 136.439 286.565 137.18 288.21C137.556 289.113 137.688 290.153 137.579 291.33C137.469 292.506 137.09 293.417 136.443 294.062C135.695 294.782 134.86 295.186 133.939 295.274C132.988 295.3 132.077 295.339 131.206 295.39C130.103 295.529 128.848 295.779 127.441 296.14C126.055 296.403 124.75 296.9 123.526 297.633L129.828 310.437C131.072 310.026 132.428 309.702 133.896 309.464C135.333 309.164 136.588 308.914 137.661 308.714C141.193 308.051 144.377 308.782 147.214 310.907C150.072 312.932 152.317 315.745 153.951 319.345C155.058 321.733 155.744 324.177 156.01 326.678C156.032 327.842 155.973 328.981 155.832 330.096C155.692 331.21 155.471 332.3 155.168 333.366C154.896 334.493 154.528 335.565 154.064 336.581C153.569 337.535 153.013 338.576 152.397 339.704C151.69 340.647 150.881 341.663 149.972 342.755C149.031 343.784 148.116 344.795 147.227 345.787C147.176 345.824 147.232 346.078 147.395 346.548C147.578 346.919 147.791 347.352 148.034 347.847C148.328 348.305 148.597 348.781 148.841 349.276C149.104 349.672 149.251 349.9 149.282 349.962C149.799 351.014 150.064 352.041 150.075 353.044ZM112.264 314.017C112.558 314.475 113.009 314.901 113.617 315.296C114.194 315.629 114.776 315.833 115.364 315.906C116.001 315.942 116.71 315.841 117.489 315.605C118.238 315.306 119.022 314.939 119.841 314.505L114.681 304.02C113.073 305.373 111.941 306.923 111.285 308.67C110.65 310.318 110.976 312.1 112.264 314.017ZM144.755 323.968C144.258 323.239 143.64 322.682 142.901 322.3C142.182 321.818 141.381 321.523 140.501 321.413C139.67 321.266 138.81 321.267 137.919 321.418C137.049 321.469 136.239 321.644 135.49 321.942C136.556 324.107 137.662 326.284 138.809 328.474C139.975 330.564 141.066 332.711 142.081 334.913C142.901 334.478 143.629 333.857 144.265 333.051C144.872 332.184 145.316 331.266 145.598 330.3C145.85 329.272 145.915 328.213 145.792 327.124C145.72 325.997 145.374 324.945 144.755 323.968Z" fill="#FF9D33"/>
</g>
<g filter="url(#filter24_dg_73_56593)">
<ellipse cx="40.1164" cy="48.3198" rx="40.1164" ry="48.3198" transform="matrix(0.934541 -0.355857 0.327263 0.944933 0 442.551)" fill="#FEC400"/>
<path d="M36.1812 424.496C59.5719 415.589 85.3137 431.62 94.5317 458.235C103.75 484.851 93.8167 514.467 70.4258 523.373C47.0351 532.28 21.2928 516.249 12.075 489.633C2.85739 463.018 12.7906 433.403 36.1812 424.496Z" stroke="black" stroke-width="8"/>
</g>
<g filter="url(#filter25_g_73_56593)">
<path d="M39.0568 432.797C58.6066 425.353 79.9234 438.886 87.5461 460.895C95.1687 482.905 87.1008 507.627 67.551 515.071C48.0011 522.515 26.6835 508.983 19.0609 486.973C11.4383 464.964 19.5069 440.242 39.0568 432.797Z" stroke="#FF9D33" stroke-width="8"/>
</g>
<g filter="url(#filter26_g_73_56593)">
<path d="M65.2303 500.063C65.1074 500.724 64.813 501.285 64.3472 501.745C63.8813 502.206 63.3403 502.507 62.7243 502.647C62.1428 502.774 61.538 502.721 60.9099 502.487C60.3308 502.283 59.8493 501.852 59.4654 501.195C59.4019 501.124 59.2879 500.908 59.1233 500.546C58.9932 500.17 58.8458 499.801 58.6811 499.438C58.5366 499.021 58.3892 498.652 58.239 498.331C58.1234 497.997 58.0655 497.83 58.0655 497.83C57.2278 498.007 56.2375 498.196 55.0945 498.395C53.9717 498.539 52.9552 498.595 52.0452 498.563C51.4404 498.51 50.8011 498.47 50.1272 498.443C49.4734 498.362 48.8297 498.252 48.1959 498.116C47.5478 497.937 46.9197 497.704 46.3117 497.416C45.7238 497.073 45.2105 496.607 44.772 496.018C44.4258 495.583 44.1243 495.107 43.8673 494.591C43.6303 494.019 43.4697 493.443 43.3854 492.861C43.3356 492.266 43.3766 491.707 43.5083 491.184C43.6746 490.648 43.9951 490.219 44.4698 489.897C44.7718 489.64 45.1244 489.529 45.5276 489.565C45.9163 489.558 46.3095 489.621 46.7071 489.753C47.1046 489.885 47.5167 490.059 47.9432 490.275C48.3552 490.449 48.7455 490.56 49.1142 490.608C50.0387 490.682 51.0768 490.688 52.2286 490.627C53.4004 490.512 54.4643 490.367 55.4201 490.192L51.647 479.297C50.9386 479.284 50.151 479.324 49.2844 479.417C48.4523 479.498 47.7656 479.547 47.2242 479.564C46.703 479.526 46.2307 479.517 45.8074 479.537C45.4042 479.501 45.0283 479.432 44.6797 479.328C42.9143 479.197 41.426 478.512 40.2149 477.272C39.6093 476.653 39.09 476 38.6571 475.314C38.2098 474.587 37.8198 473.743 37.4874 472.783C37.1982 471.948 36.9999 471.15 36.8923 470.388C36.7702 469.584 36.7044 468.829 36.6947 468.124C36.6755 466.714 36.9731 465.373 37.5876 464.099C37.8286 463.441 38.1503 462.846 38.5527 462.314C38.9896 461.77 39.4611 461.213 39.9672 460.642C40.4386 460.084 41.0945 459.551 41.9346 459.042C42.7748 458.533 43.5258 458.106 44.1876 457.759C43.9852 457.175 43.7756 456.57 43.5588 455.943C43.3275 455.276 43.2704 454.66 43.3877 454.095C43.5564 453.228 43.7629 452.582 44.007 452.159C44.2512 451.735 44.7331 451.433 45.4528 451.254C46.1034 451.1 46.721 451.078 47.3058 451.186C47.8905 451.294 48.4338 451.678 48.9358 452.337C48.9647 452.42 49.0442 452.65 49.1743 453.026C49.3245 453.346 49.4892 453.709 49.6683 454.113C49.8618 454.559 50.0598 455.074 50.2622 455.659C51.4686 455.53 52.7384 455.472 54.0717 455.484C55.4251 455.441 56.7009 455.569 57.8993 455.869C58.8615 456.164 59.6972 456.602 60.4064 457.182C61.1357 457.707 61.671 458.519 62.0123 459.618C62.1802 460.215 62.1854 460.851 62.0279 461.525C61.8705 462.199 61.5645 462.67 61.1098 462.938C60.5862 463.232 60.0319 463.325 59.4472 463.217C58.8481 463.067 58.2734 462.931 57.7232 462.81C57.0204 462.7 56.214 462.629 55.304 462.597C54.4141 462.511 53.5575 462.577 52.7342 462.796L55.7266 471.437C56.5386 471.411 57.4141 471.455 58.353 471.57C59.2775 471.644 60.0839 471.715 60.7722 471.783C63.0388 472.007 64.9825 472.991 66.6033 474.736C68.2442 476.426 69.4421 478.474 70.197 480.88C70.7118 482.479 70.9587 484.039 70.9378 485.558C70.8639 486.248 70.741 486.909 70.5691 487.541C70.3972 488.174 70.1763 488.778 69.9064 489.353C69.651 489.97 69.3393 490.537 68.9714 491.055C68.5891 491.532 68.1622 492.048 67.6907 492.606C67.1759 493.038 66.5919 493.497 65.9389 493.982C65.2714 494.425 64.6213 494.861 63.9883 495.291C63.9538 495.305 63.9698 495.464 64.0365 495.769C64.1232 496.02 64.2244 496.312 64.3401 496.646C64.4903 496.966 64.6232 497.294 64.7388 497.628C64.8746 497.907 64.9497 498.067 64.9641 498.109C65.2099 498.818 65.2986 499.47 65.2303 500.063ZM44.4342 470.492C44.5844 470.813 44.8354 471.143 45.1872 471.481C45.5245 471.778 45.8747 471.999 46.2377 472.144C46.6353 472.276 47.0875 472.34 47.5943 472.336C48.0867 472.291 48.6063 472.211 49.1533 472.097L46.703 465.022C45.5921 465.54 44.7652 466.256 44.2223 467.171C43.6994 468.032 43.77 469.139 44.4342 470.492ZM64.0779 482.005C63.8209 481.489 63.4747 481.054 63.0394 480.7C62.6241 480.291 62.1443 479.977 61.5997 479.76C61.0897 479.529 60.5495 479.38 59.9793 479.314C59.4291 479.192 58.9078 479.155 58.4155 479.2C58.9214 480.661 59.4519 482.137 60.0069 483.626C60.5819 485.061 61.1051 486.515 61.5766 487.989C62.1235 487.875 62.6271 487.636 63.0874 487.272C63.5332 486.866 63.881 486.403 64.1308 485.883C64.3661 485.321 64.4862 484.708 64.4911 484.045C64.5304 483.368 64.3927 482.688 64.0779 482.005Z" fill="#FF9D33"/>
</g>
<defs>
<filter id="filter0_dg_73_56593" x="215.761" y="126.936" width="86.2318" height="102.129" filterUnits="userSpaceOnUse" color-interpolation-filters="sRGB">
<feFlood flood-opacity="0" result="BackgroundImageFix"/>
<feColorMatrix in="SourceAlpha" type="matrix" values="0 0 0 0 0 0 0 0 0 0 0 0 0 0 0 0 0 0 127 0" result="hardAlpha"/>
<feOffset dx="8" dy="8"/>
<feComposite in2="hardAlpha" operator="out"/>
<feColorMatrix type="matrix" values="0 0 0 0 0 0 0 0 0 0 0 0 0 0 0 0 0 0 1 0"/>
<feBlend mode="normal" in2="BackgroundImageFix" result="effect1_dropShadow_73_56593"/>
<feBlend mode="normal" in="SourceGraphic" in2="effect1_dropShadow_73_56593" result="shape"/>
<feTurbulence type="fractalNoise" baseFrequency="0.011904762126505375 0.011904762126505375" numOctaves="3" seed="6810" />
<feDisplacementMap in="shape" scale="8" xChannelSelector="R" yChannelSelector="G" result="displacedImage" width="100%" height="100%" />
<feMerge result="effect2_texture_73_56593">
<feMergeNode in="displacedImage"/>
</feMerge>
</filter>
<filter id="filter1_g_73_56593" x="221.177" y="133.56" width="71.4" height="84.8804" filterUnits="userSpaceOnUse" color-interpolation-filters="sRGB">
<feFlood flood-opacity="0" result="BackgroundImageFix"/>
<feBlend mode="normal" in="SourceGraphic" in2="BackgroundImageFix" result="shape"/>
<feTurbulence type="fractalNoise" baseFrequency="0.011904762126505375 0.011904762126505375" numOctaves="3" seed="6810" />
<feDisplacementMap in="shape" scale="8" xChannelSelector="R" yChannelSelector="G" result="displacedImage" width="100%" height="100%" />
<feMerge result="effect1_texture_73_56593">
<feMergeNode in="displacedImage"/>
</feMerge>
</filter>
<filter id="filter2_g_73_56593" x="240.435" y="156.102" width="33.9111" height="43.896" filterUnits="userSpaceOnUse" color-interpolation-filters="sRGB">
<feFlood flood-opacity="0" result="BackgroundImageFix"/>
<feBlend mode="normal" in="SourceGraphic" in2="BackgroundImageFix" result="shape"/>
<feTurbulence type="fractalNoise" baseFrequency="0.011904762126505375 0.011904762126505375" numOctaves="3" seed="6810" />
<feDisplacementMap in="shape" scale="8" xChannelSelector="R" yChannelSelector="G" result="displacedImage" width="100%" height="100%" />
<feMerge result="effect1_texture_73_56593">
<feMergeNode in="displacedImage"/>
</feMerge>
</filter>
<filter id="filter3_dg_73_56593" x="285.723" y="314.959" width="109.161" height="123.951" filterUnits="userSpaceOnUse" color-interpolation-filters="sRGB">
<feFlood flood-opacity="0" result="BackgroundImageFix"/>
<feColorMatrix in="SourceAlpha" type="matrix" values="0 0 0 0 0 0 0 0 0 0 0 0 0 0 0 0 0 0 127 0" result="hardAlpha"/>
<feOffset dx="8" dy="8"/>
<feComposite in2="hardAlpha" operator="out"/>
<feColorMatrix type="matrix" values="0 0 0 0 0 0 0 0 0 0 0 0 0 0 0 0 0 0 1 0"/>
<feBlend mode="normal" in2="BackgroundImageFix" result="effect1_dropShadow_73_56593"/>
<feBlend mode="normal" in="SourceGraphic" in2="effect1_dropShadow_73_56593" result="shape"/>
<feTurbulence type="fractalNoise" baseFrequency="0.011904762126505375 0.011904762126505375" numOctaves="3" seed="6810" />
<feDisplacementMap in="shape" scale="8" xChannelSelector="R" yChannelSelector="G" result="displacedImage" width="100%" height="100%" />
<feMerge result="effect2_texture_73_56593">
<feMergeNode in="displacedImage"/>
</feMerge>
</filter>
<filter id="filter4_g_73_56593" x="293.28" y="323.678" width="90.0472" height="102.514" filterUnits="userSpaceOnUse" color-interpolation-filters="sRGB">
<feFlood flood-opacity="0" result="BackgroundImageFix"/>
<feBlend mode="normal" in="SourceGraphic" in2="BackgroundImageFix" result="shape"/>
<feTurbulence type="fractalNoise" baseFrequency="0.011904762126505375 0.011904762126505375" numOctaves="3" seed="6810" />
<feDisplacementMap in="shape" scale="8" xChannelSelector="R" yChannelSelector="G" result="displacedImage" width="100%" height="100%" />
<feMerge result="effect1_texture_73_56593">
<feMergeNode in="displacedImage"/>
</feMerge>
</filter>
<filter id="filter5_g_73_56593" x="317.694" y="348.119" width="42.2452" height="59.5952" filterUnits="userSpaceOnUse" color-interpolation-filters="sRGB">
<feFlood flood-opacity="0" result="BackgroundImageFix"/>
<feBlend mode="normal" in="SourceGraphic" in2="BackgroundImageFix" result="shape"/>
<feTurbulence type="fractalNoise" baseFrequency="0.011904762126505375 0.011904762126505375" numOctaves="3" seed="6810" />
<feDisplacementMap in="shape" scale="8" xChannelSelector="R" yChannelSelector="G" result="displacedImage" width="100%" height="100%" />
<feMerge result="effect1_texture_73_56593">
<feMergeNode in="displacedImage"/>
</feMerge>
</filter>
<filter id="filter6_dg_73_56593" x="235.365" y="546.776" width="144.182" height="159.48" filterUnits="userSpaceOnUse" color-interpolation-filters="sRGB">
<feFlood flood-opacity="0" result="BackgroundImageFix"/>
<feColorMatrix in="SourceAlpha" type="matrix" values="0 0 0 0 0 0 0 0 0 0 0 0 0 0 0 0 0 0 127 0" result="hardAlpha"/>
<feOffset dx="8" dy="8"/>
<feComposite in2="hardAlpha" operator="out"/>
<feColorMatrix type="matrix" values="0 0 0 0 0 0 0 0 0 0 0 0 0 0 0 0 0 0 1 0"/>
<feBlend mode="normal" in2="BackgroundImageFix" result="effect1_dropShadow_73_56593"/>
<feBlend mode="normal" in="SourceGraphic" in2="effect1_dropShadow_73_56593" result="shape"/>
<feTurbulence type="fractalNoise" baseFrequency="0.011904762126505375 0.011904762126505375" numOctaves="3" seed="6810" />
<feDisplacementMap in="shape" scale="8" xChannelSelector="R" yChannelSelector="G" result="displacedImage" width="100%" height="100%" />
<feMerge result="effect2_texture_73_56593">
<feMergeNode in="displacedImage"/>
</feMerge>
</filter>
<filter id="filter7_g_73_56593" x="246.166" y="558.742" width="118.58" height="131.549" filterUnits="userSpaceOnUse" color-interpolation-filters="sRGB">
<feFlood flood-opacity="0" result="BackgroundImageFix"/>
<feBlend mode="normal" in="SourceGraphic" in2="BackgroundImageFix" result="shape"/>
<feTurbulence type="fractalNoise" baseFrequency="0.011904762126505375 0.011904762126505375" numOctaves="3" seed="6810" />
<feDisplacementMap in="shape" scale="8" xChannelSelector="R" yChannelSelector="G" result="displacedImage" width="100%" height="100%" />
<feMerge result="effect1_texture_73_56593">
<feMergeNode in="displacedImage"/>
</feMerge>
</filter>
<filter id="filter8_g_73_56593" x="273.391" y="588.601" width="58.3235" height="79.8086" filterUnits="userSpaceOnUse" color-interpolation-filters="sRGB">
<feFlood flood-opacity="0" result="BackgroundImageFix"/>
<feBlend mode="normal" in="SourceGraphic" in2="BackgroundImageFix" result="shape"/>
<feTurbulence type="fractalNoise" baseFrequency="0.011904762126505375 0.011904762126505375" numOctaves="3" seed="6810" />
<feDisplacementMap in="shape" scale="8" xChannelSelector="R" yChannelSelector="G" result="displacedImage" width="100%" height="100%" />
<feMerge result="effect1_texture_73_56593">
<feMergeNode in="displacedImage"/>
</feMerge>
</filter>
<filter id="filter9_dg_73_56593" x="294.725" y="799.455" width="122.551" height="83.6338" filterUnits="userSpaceOnUse" color-interpolation-filters="sRGB">
<feFlood flood-opacity="0" result="BackgroundImageFix"/>
<feColorMatrix in="SourceAlpha" type="matrix" values="0 0 0 0 0 0 0 0 0 0 0 0 0 0 0 0 0 0 127 0" result="hardAlpha"/>
<feOffset dx="8" dy="8"/>
<feComposite in2="hardAlpha" operator="out"/>
<feColorMatrix type="matrix" values="0 0 0 0 0 0 0 0 0 0 0 0 0 0 0 0 0 0 1 0"/>
<feBlend mode="normal" in2="BackgroundImageFix" result="effect1_dropShadow_73_56593"/>
<feBlend mode="normal" in="SourceGraphic" in2="effect1_dropShadow_73_56593" result="shape"/>
<feTurbulence type="fractalNoise" baseFrequency="0.011904762126505375 0.011904762126505375" numOctaves="3" seed="6810" />
<feDisplacementMap in="shape" scale="8" xChannelSelector="R" yChannelSelector="G" result="displacedImage" width="100%" height="100%" />
<feMerge result="effect2_texture_73_56593">
<feMergeNode in="displacedImage"/>
</feMerge>
</filter>
<filter id="filter10_g_73_56593" x="302.965" y="804.989" width="102.07" height="68.5654" filterUnits="userSpaceOnUse" color-interpolation-filters="sRGB">
<feFlood flood-opacity="0" result="BackgroundImageFix"/>
<feBlend mode="normal" in="SourceGraphic" in2="BackgroundImageFix" result="shape"/>
<feTurbulence type="fractalNoise" baseFrequency="0.011904762126505375 0.011904762126505375" numOctaves="3" seed="6810" />
<feDisplacementMap in="shape" scale="8" xChannelSelector="R" yChannelSelector="G" result="displacedImage" width="100%" height="100%" />
<feMerge result="effect1_texture_73_56593">
<feMergeNode in="displacedImage"/>
</feMerge>
</filter>
<filter id="filter11_g_73_56593" x="325.692" y="820.184" width="50.6804" height="42.0508" filterUnits="userSpaceOnUse" color-interpolation-filters="sRGB">
<feFlood flood-opacity="0" result="BackgroundImageFix"/>
<feBlend mode="normal" in="SourceGraphic" in2="BackgroundImageFix" result="shape"/>
<feTurbulence type="fractalNoise" baseFrequency="0.011904762126505375 0.011904762126505375" numOctaves="3" seed="6810" />
<feDisplacementMap in="shape" scale="8" xChannelSelector="R" yChannelSelector="G" result="displacedImage" width="100%" height="100%" />
<feMerge result="effect1_texture_73_56593">
<feMergeNode in="displacedImage"/>
</feMerge>
</filter>
<filter id="filter12_dg_73_56593" x="318.635" y="2.83057" width="84.4257" height="90.7173" filterUnits="userSpaceOnUse" color-interpolation-filters="sRGB">
<feFlood flood-opacity="0" result="BackgroundImageFix"/>
<feColorMatrix in="SourceAlpha" type="matrix" values="0 0 0 0 0 0 0 0 0 0 0 0 0 0 0 0 0 0 127 0" result="hardAlpha"/>
<feOffset dx="8" dy="8"/>
<feComposite in2="hardAlpha" operator="out"/>
<feColorMatrix type="matrix" values="0 0 0 0 0 0 0 0 0 0 0 0 0 0 0 0 0 0 1 0"/>
<feBlend mode="normal" in2="BackgroundImageFix" result="effect1_dropShadow_73_56593"/>
<feBlend mode="normal" in="SourceGraphic" in2="effect1_dropShadow_73_56593" result="shape"/>
<feTurbulence type="fractalNoise" baseFrequency="0.011904762126505375 0.011904762126505375" numOctaves="3" seed="6810" />
<feDisplacementMap in="shape" scale="8" xChannelSelector="R" yChannelSelector="G" result="displacedImage" width="100%" height="100%" />
<feMerge result="effect2_texture_73_56593">
<feMergeNode in="displacedImage"/>
</feMerge>
</filter>
<filter id="filter13_g_73_56593" x="323.874" y="8.54004" width="69.9469" height="75.2983" filterUnits="userSpaceOnUse" color-interpolation-filters="sRGB">
<feFlood flood-opacity="0" result="BackgroundImageFix"/>
<feBlend mode="normal" in="SourceGraphic" in2="BackgroundImageFix" result="shape"/>
<feTurbulence type="fractalNoise" baseFrequency="0.011904762126505375 0.011904762126505375" numOctaves="3" seed="6810" />
<feDisplacementMap in="shape" scale="8" xChannelSelector="R" yChannelSelector="G" result="displacedImage" width="100%" height="100%" />
<feMerge result="effect1_texture_73_56593">
<feMergeNode in="displacedImage"/>
</feMerge>
</filter>
<filter id="filter14_g_73_56593" x="343.185" y="27.4561" width="32.2292" height="41.3037" filterUnits="userSpaceOnUse" color-interpolation-filters="sRGB">
<feFlood flood-opacity="0" result="BackgroundImageFix"/>
<feBlend mode="normal" in="SourceGraphic" in2="BackgroundImageFix" result="shape"/>
<feTurbulence type="fractalNoise" baseFrequency="0.011904762126505375 0.011904762126505375" numOctaves="3" seed="6810" />
<feDisplacementMap in="shape" scale="8" xChannelSelector="R" yChannelSelector="G" result="displacedImage" width="100%" height="100%" />
<feMerge result="effect1_texture_73_56593">
<feMergeNode in="displacedImage"/>
</feMerge>
</filter>
<filter id="filter15_dg_73_56593" x="15.9436" y="772.042" width="178.087" height="101.013" filterUnits="userSpaceOnUse" color-interpolation-filters="sRGB">
<feFlood flood-opacity="0" result="BackgroundImageFix"/>
<feColorMatrix in="SourceAlpha" type="matrix" values="0 0 0 0 0 0 0 0 0 0 0 0 0 0 0 0 0 0 127 0" result="hardAlpha"/>
<feOffset dx="8" dy="8"/>
<feComposite in2="hardAlpha" operator="out"/>
<feColorMatrix type="matrix" values="0 0 0 0 0 0 0 0 0 0 0 0 0 0 0 0 0 0 1 0"/>
<feBlend mode="normal" in2="BackgroundImageFix" result="effect1_dropShadow_73_56593"/>
<feBlend mode="normal" in="SourceGraphic" in2="effect1_dropShadow_73_56593" result="shape"/>
<feTurbulence type="fractalNoise" baseFrequency="0.011904762126505375 0.011904762126505375" numOctaves="3" seed="6810" />
<feDisplacementMap in="shape" scale="8" xChannelSelector="R" yChannelSelector="G" result="displacedImage" width="100%" height="100%" />
<feMerge result="effect2_texture_73_56593">
<feMergeNode in="displacedImage"/>
</feMerge>
</filter>
<filter id="filter16_g_73_56593" x="29.3422" y="778.977" width="147.29" height="83.1436" filterUnits="userSpaceOnUse" color-interpolation-filters="sRGB">
<feFlood flood-opacity="0" result="BackgroundImageFix"/>
<feBlend mode="normal" in="SourceGraphic" in2="BackgroundImageFix" result="shape"/>
<feTurbulence type="fractalNoise" baseFrequency="0.011904762126505375 0.011904762126505375" numOctaves="3" seed="6810" />
<feDisplacementMap in="shape" scale="8" xChannelSelector="R" yChannelSelector="G" result="displacedImage" width="100%" height="100%" />
<feMerge result="effect1_texture_73_56593">
<feMergeNode in="displacedImage"/>
</feMerge>
</filter>
<filter id="filter17_g_73_56593" x="56.2141" y="797.943" width="84.7064" height="41.1621" filterUnits="userSpaceOnUse" color-interpolation-filters="sRGB">
<feFlood flood-opacity="0" result="BackgroundImageFix"/>
<feBlend mode="normal" in="SourceGraphic" in2="BackgroundImageFix" result="shape"/>
<feTurbulence type="fractalNoise" baseFrequency="0.011904762126505375 0.011904762126505375" numOctaves="3" seed="6810" />
<feDisplacementMap in="shape" scale="8" xChannelSelector="R" yChannelSelector="G" result="displacedImage" width="100%" height="100%" />
<feMerge result="effect1_texture_73_56593">
<feMergeNode in="displacedImage"/>
</feMerge>
</filter>
<filter id="filter18_dg_73_56593" x="45.473" y="555.593" width="166.3" height="184.486" filterUnits="userSpaceOnUse" color-interpolation-filters="sRGB">
<feFlood flood-opacity="0" result="BackgroundImageFix"/>
<feColorMatrix in="SourceAlpha" type="matrix" values="0 0 0 0 0 0 0 0 0 0 0 0 0 0 0 0 0 0 127 0" result="hardAlpha"/>
<feOffset dx="8" dy="8"/>
<feComposite in2="hardAlpha" operator="out"/>
<feColorMatrix type="matrix" values="0 0 0 0 0 0 0 0 0 0 0 0 0 0 0 0 0 0 1 0"/>
<feBlend mode="normal" in2="BackgroundImageFix" result="effect1_dropShadow_73_56593"/>
<feBlend mode="normal" in="SourceGraphic" in2="effect1_dropShadow_73_56593" result="shape"/>
<feTurbulence type="fractalNoise" baseFrequency="0.011904762126505375 0.011904762126505375" numOctaves="3" seed="6810" />
<feDisplacementMap in="shape" scale="8" xChannelSelector="R" yChannelSelector="G" result="displacedImage" width="100%" height="100%" />
<feMerge result="effect2_texture_73_56593">
<feMergeNode in="displacedImage"/>
</feMerge>
</filter>
<filter id="filter19_g_73_56593" x="58.3285" y="569.836" width="136.589" height="152" filterUnits="userSpaceOnUse" color-interpolation-filters="sRGB">
<feFlood flood-opacity="0" result="BackgroundImageFix"/>
<feBlend mode="normal" in="SourceGraphic" in2="BackgroundImageFix" result="shape"/>
<feTurbulence type="fractalNoise" baseFrequency="0.011904762126505375 0.011904762126505375" numOctaves="3" seed="6810" />
<feDisplacementMap in="shape" scale="8" xChannelSelector="R" yChannelSelector="G" result="displacedImage" width="100%" height="100%" />
<feMerge result="effect1_texture_73_56593">
<feMergeNode in="displacedImage"/>
</feMerge>
</filter>
<filter id="filter20_g_73_56593" x="89.2183" y="603.848" width="67.8988" height="93.4722" filterUnits="userSpaceOnUse" color-interpolation-filters="sRGB">
<feFlood flood-opacity="0" result="BackgroundImageFix"/>
<feBlend mode="normal" in="SourceGraphic" in2="BackgroundImageFix" result="shape"/>
<feTurbulence type="fractalNoise" baseFrequency="0.011904762126505375 0.011904762126505375" numOctaves="3" seed="6810" />
<feDisplacementMap in="shape" scale="8" xChannelSelector="R" yChannelSelector="G" result="displacedImage" width="100%" height="100%" />
<feMerge result="effect1_texture_73_56593">
<feMergeNode in="displacedImage"/>
</feMerge>
</filter>
<filter id="filter21_dg_73_56593" x="50.7537" y="223.828" width="156.027" height="187.501" filterUnits="userSpaceOnUse" color-interpolation-filters="sRGB">
<feFlood flood-opacity="0" result="BackgroundImageFix"/>
<feColorMatrix in="SourceAlpha" type="matrix" values="0 0 0 0 0 0 0 0 0 0 0 0 0 0 0 0 0 0 127 0" result="hardAlpha"/>
<feOffset dx="8" dy="8"/>
<feComposite in2="hardAlpha" operator="out"/>
<feColorMatrix type="matrix" values="0 0 0 0 0 0 0 0 0 0 0 0 0 0 0 0 0 0 1 0"/>
<feBlend mode="normal" in2="BackgroundImageFix" result="effect1_dropShadow_73_56593"/>
<feBlend mode="normal" in="SourceGraphic" in2="effect1_dropShadow_73_56593" result="shape"/>
<feTurbulence type="fractalNoise" baseFrequency="0.011904762126505375 0.011904762126505375" numOctaves="3" seed="6810" />
<feDisplacementMap in="shape" scale="8" xChannelSelector="R" yChannelSelector="G" result="displacedImage" width="100%" height="100%" />
<feMerge result="effect2_texture_73_56593">
<feMergeNode in="displacedImage"/>
</feMerge>
</filter>
<filter id="filter22_g_73_56593" x="62.5148" y="238.213" width="128.505" height="154.73" filterUnits="userSpaceOnUse" color-interpolation-filters="sRGB">
<feFlood flood-opacity="0" result="BackgroundImageFix"/>
<feBlend mode="normal" in="SourceGraphic" in2="BackgroundImageFix" result="shape"/>
<feTurbulence type="fractalNoise" baseFrequency="0.011904762126505375 0.011904762126505375" numOctaves="3" seed="6810" />
<feDisplacementMap in="shape" scale="8" xChannelSelector="R" yChannelSelector="G" result="displacedImage" width="100%" height="100%" />
<feMerge result="effect1_texture_73_56593">
<feMergeNode in="displacedImage"/>
</feMerge>
</filter>
<filter id="filter23_g_73_56593" x="95.7473" y="277.055" width="64.2673" height="85.9507" filterUnits="userSpaceOnUse" color-interpolation-filters="sRGB">
<feFlood flood-opacity="0" result="BackgroundImageFix"/>
<feBlend mode="normal" in="SourceGraphic" in2="BackgroundImageFix" result="shape"/>
<feTurbulence type="fractalNoise" baseFrequency="0.011904762126505375 0.011904762126505375" numOctaves="3" seed="6810" />
<feDisplacementMap in="shape" scale="8" xChannelSelector="R" yChannelSelector="G" result="displacedImage" width="100%" height="100%" />
<feMerge result="effect1_texture_73_56593">
<feMergeNode in="displacedImage"/>
</feMerge>
</filter>
<filter id="filter24_dg_73_56593" x="0.7229" y="413.959" width="109.161" height="123.951" filterUnits="userSpaceOnUse" color-interpolation-filters="sRGB">
<feFlood flood-opacity="0" result="BackgroundImageFix"/>
<feColorMatrix in="SourceAlpha" type="matrix" values="0 0 0 0 0 0 0 0 0 0 0 0 0 0 0 0 0 0 127 0" result="hardAlpha"/>
<feOffset dx="8" dy="8"/>
<feComposite in2="hardAlpha" operator="out"/>
<feColorMatrix type="matrix" values="0 0 0 0 0 0 0 0 0 0 0 0 0 0 0 0 0 0 1 0"/>
<feBlend mode="normal" in2="BackgroundImageFix" result="effect1_dropShadow_73_56593"/>
<feBlend mode="normal" in="SourceGraphic" in2="effect1_dropShadow_73_56593" result="shape"/>
<feTurbulence type="fractalNoise" baseFrequency="0.011904762126505375 0.011904762126505375" numOctaves="3" seed="6810" />
<feDisplacementMap in="shape" scale="8" xChannelSelector="R" yChannelSelector="G" result="displacedImage" width="100%" height="100%" />
<feMerge result="effect2_texture_73_56593">
<feMergeNode in="displacedImage"/>
</feMerge>
</filter>
<filter id="filter25_g_73_56593" x="8.28003" y="422.678" width="90.0472" height="102.514" filterUnits="userSpaceOnUse" color-interpolation-filters="sRGB">
<feFlood flood-opacity="0" result="BackgroundImageFix"/>
<feBlend mode="normal" in="SourceGraphic" in2="BackgroundImageFix" result="shape"/>
<feTurbulence type="fractalNoise" baseFrequency="0.011904762126505375 0.011904762126505375" numOctaves="3" seed="6810" />
<feDisplacementMap in="shape" scale="8" xChannelSelector="R" yChannelSelector="G" result="displacedImage" width="100%" height="100%" />
<feMerge result="effect1_texture_73_56593">
<feMergeNode in="displacedImage"/>
</feMerge>
</filter>
<filter id="filter26_g_73_56593" x="32.6938" y="447.119" width="42.2452" height="59.5952" filterUnits="userSpaceOnUse" color-interpolation-filters="sRGB">
<feFlood flood-opacity="0" result="BackgroundImageFix"/>
<feBlend mode="normal" in="SourceGraphic" in2="BackgroundImageFix" result="shape"/>
<feTurbulence type="fractalNoise" baseFrequency="0.011904762126505375 0.011904762126505375" numOctaves="3" seed="6810" />
<feDisplacementMap in="shape" scale="8" xChannelSelector="R" yChannelSelector="G" result="displacedImage" width="100%" height="100%" />
<feMerge result="effect1_texture_73_56593">
<feMergeNode in="displacedImage"/>
</feMerge>
</filter>
</defs>
</svg>
