<svg width="487" height="443" viewBox="0 0 487 443" fill="none" xmlns="http://www.w3.org/2000/svg">
<g filter="url(#filter0_dg_281_289)">
<ellipse cx="201.53" cy="81.5133" rx="57.835" ry="57.8561" fill="#FEC400"/>
<path d="M201.53 19.6572C235.682 19.6572 263.365 47.3529 263.365 81.5137C263.365 115.674 235.682 143.369 201.53 143.369C167.378 143.369 139.695 115.674 139.695 81.5137C139.695 47.3529 167.378 19.6573 201.53 19.6572Z" stroke="black" stroke-width="8"/>
</g>
<g filter="url(#filter1_dg_281_289)">
<ellipse cx="50.313" cy="55.2411" rx="50.313" ry="55.2411" transform="matrix(0.805119 -0.593113 0.441477 0.897273 98.3502 284.443)" fill="#FEC400"/>
<path d="M137.092 251.013C161.519 233.018 192.689 242.921 206.974 271.955C221.26 300.989 213.826 339.329 189.399 357.324C164.972 375.319 133.803 365.416 119.517 336.382C105.232 307.348 112.665 269.008 137.092 251.013Z" stroke="black" stroke-width="8"/>
</g>
<g filter="url(#filter2_dg_281_289)">
<ellipse cx="28.0511" cy="30.803" rx="28.0511" ry="30.803" transform="matrix(0.981097 0.193516 -0.363397 0.931634 27.3356 29.2266)" fill="#FEC400"/>
<path d="M56.3097 30.9283C74.0139 34.4204 81.9621 51.9831 75.1084 69.5543C68.2545 87.1255 48.7195 99.2672 31.0153 95.7752C13.3112 92.2829 5.36369 74.7205 12.2175 57.1494C19.0715 39.5784 38.6056 27.4365 56.3097 30.9283Z" stroke="black" stroke-width="8"/>
</g>
<g filter="url(#filter3_dg_281_289)">
<ellipse cx="33.6877" cy="50.4356" rx="33.6877" ry="50.4356" transform="matrix(0.6394 0.768874 -0.978778 -0.204923 344.488 384.658)" fill="#FEC400"/>
<path d="M369.943 411.379C377.01 419.877 376.532 425.823 371.101 428.861C365.656 431.907 355.059 432.196 340.76 429.202C326.462 426.208 310.816 420.425 296.94 413.334C283.102 406.262 270.449 397.567 263.382 389.069C256.315 380.571 256.794 374.626 262.224 371.589C267.67 368.542 278.267 368.254 292.565 371.247C306.863 374.241 322.509 380.024 336.386 387.115C350.224 394.188 362.876 402.881 369.943 411.379Z" stroke="black" stroke-width="8"/>
</g>
<g filter="url(#filter4_dg_281_289)">
<ellipse cx="33.6806" cy="50.443" rx="33.6806" ry="50.443" transform="matrix(0.998049 -0.0624343 -0.743023 0.669266 74.9605 168.326)" fill="#FEC400"/>
<path d="M111.548 163.546C122.577 162.856 127.092 166.752 126.337 172.93C125.581 179.126 119.558 187.853 108.702 197.631C97.8464 207.409 83.9449 216.629 70.0317 223.647C56.1569 230.646 41.6727 235.73 30.643 236.42C19.6133 237.11 15.0981 233.214 15.8524 227.036C16.6089 220.841 22.6322 212.114 33.4878 202.336C44.3434 192.558 58.245 183.338 72.1582 176.32C86.033 169.321 100.518 164.236 111.548 163.546Z" stroke="black" stroke-width="8"/>
</g>
<g filter="url(#filter5_dg_281_289)">
<ellipse cx="49.7954" cy="57.8542" rx="49.7954" ry="57.8542" transform="matrix(0.954358 0.298666 -0.298468 0.95442 303.178 148.651)" fill="#FEC400"/>
<path d="M351.895 159.706C380.767 168.742 394.795 202.761 384.773 234.808C374.752 266.854 343.844 286.81 314.972 277.775C286.101 268.74 272.072 234.721 282.093 202.674C292.115 170.628 323.024 150.671 351.895 159.706Z" stroke="black" stroke-width="8"/>
</g>
<g filter="url(#filter6_dg_281_289)">
<ellipse cx="41.8352" cy="48.6057" rx="41.8352" ry="48.6057" transform="matrix(0.95438 0.298593 -0.29854 0.954397 394.582 2)" fill="#FEC400"/>
<path d="M435.702 10.6741C460.379 18.3945 472.241 47.3957 463.742 74.5666C455.242 101.738 428.969 118.808 404.293 111.087C379.616 103.367 367.754 74.3654 376.254 47.1945C384.753 20.0238 411.026 2.95378 435.702 10.6741Z" stroke="black" stroke-width="8"/>
</g>
<g filter="url(#filter7_dg_281_289)">
<ellipse cx="20.1134" cy="23.3674" rx="20.1134" ry="23.3674" transform="matrix(0.919626 -0.392796 0.392555 0.919729 6.80333 371.125)" fill="#FEC400"/>
<path d="M23.7298 359.546C36.4751 354.102 50.944 361.88 56.6481 375.244C62.3522 388.609 57.9614 404.443 45.216 409.886C32.4707 415.33 18.0018 407.552 12.2977 394.188C6.59377 380.823 10.9845 364.99 23.7298 359.546Z" stroke="black" stroke-width="8"/>
</g>
<g filter="url(#filter8_g_281_289)">
<path d="M201.53 30.1768C229.874 30.1768 252.85 53.1625 252.85 81.5137C252.85 109.865 229.874 132.851 201.53 132.851C173.186 132.85 150.211 109.865 150.211 81.5137C150.211 53.1626 173.186 30.1769 201.53 30.1768Z" stroke="#FF9D33" stroke-width="8"/>
</g>
<g filter="url(#filter9_g_281_289)">
<path d="M141.527 260.026C161.886 245.027 187.773 253.324 199.61 277.381C211.446 301.438 205.325 333.314 184.966 348.312C164.606 363.311 138.719 355.014 126.883 330.957C115.047 306.9 121.167 275.024 141.527 260.026Z" stroke="#FF9D33" stroke-width="8"/>
</g>
<g filter="url(#filter10_g_281_289)">
<path d="M54.2752 36.1465C69.2157 39.0936 75.8337 53.8781 70.104 68.5676C64.3742 83.2571 47.9916 93.5057 33.0509 90.5589C18.1102 87.6119 11.4917 72.8264 17.2215 58.1368C22.9515 43.4473 39.3345 33.1996 54.2752 36.1465Z" stroke="#FF9D33" stroke-width="8"/>
</g>
<g filter="url(#filter11_g_281_289)">
<path d="M360.967 409.5C366.952 416.698 366.501 421.676 361.986 424.202C357.456 426.736 348.663 426.966 336.843 424.492C325.023 422.017 312.06 417.232 300.517 411.332C289.012 405.452 278.342 398.146 272.357 390.948C266.371 383.751 266.825 378.773 271.34 376.247C275.87 373.713 284.661 373.482 296.481 375.956C308.301 378.431 321.265 383.217 332.809 389.117C344.313 394.997 354.981 402.303 360.967 409.5Z" stroke="#FF9D33" stroke-width="8"/>
</g>
<g filter="url(#filter12_g_281_289)">
<path d="M104.732 169.684C114.074 169.1 117.824 172.405 117.197 177.541C116.567 182.695 111.564 189.93 102.59 198.013C93.6159 206.096 82.1026 213.738 70.5285 219.577C58.9929 225.396 46.7989 229.697 37.4569 230.282C28.115 230.866 24.3653 227.562 24.9925 222.425C25.6219 217.272 30.6258 210.036 39.5996 201.953C48.5734 193.87 60.0868 186.228 71.6608 180.39C83.1962 174.571 95.3904 170.269 104.732 169.684Z" stroke="#FF9D33" stroke-width="8"/>
</g>
<g filter="url(#filter13_g_281_289)">
<path d="M348.755 169.745C372.754 177.256 384.199 205.555 375.918 232.036C367.637 258.517 342.111 275.247 318.111 267.736C294.112 260.226 282.668 231.925 290.949 205.445C299.23 178.964 324.756 162.235 348.755 169.745Z" stroke="#FF9D33" stroke-width="8"/>
</g>
<g filter="url(#filter14_g_281_289)">
<path d="M433.064 19.1116C453.649 25.5539 463.338 49.7544 456.304 72.2464C449.27 94.7383 427.522 109.1 406.937 102.658C386.352 96.2157 376.663 72.016 383.696 49.5239C390.73 27.0318 412.478 12.6694 433.064 19.1116Z" stroke="#FF9D33" stroke-width="8"/>
</g>
<g filter="url(#filter15_g_281_289)">
<path d="M25.3973 363.453C36.2566 358.815 48.4278 365.531 53.2021 376.717C57.9761 387.903 54.4072 401.341 43.5479 405.979C32.6888 410.617 20.5187 403.902 15.7444 392.716C10.9702 381.53 14.5381 368.092 25.3973 363.453Z" stroke="#FF9D33" stroke-width="8"/>
</g>
<g filter="url(#filter16_g_281_289)">
<path d="M205.259 115.743C204.784 116.429 204.124 116.931 203.279 117.248C202.435 117.564 201.564 117.67 200.667 117.564C199.822 117.459 199.03 117.142 198.291 116.614C197.605 116.139 197.156 115.452 196.945 114.555C196.893 114.449 196.84 114.159 196.787 113.683C196.787 113.208 196.761 112.733 196.708 112.258C196.708 111.73 196.681 111.254 196.629 110.832C196.629 110.41 196.629 110.198 196.629 110.198C195.415 110.04 193.989 109.829 192.353 109.565C190.77 109.248 189.371 108.878 188.157 108.456C187.365 108.139 186.521 107.822 185.623 107.505C184.779 107.136 183.961 106.74 183.169 106.317C182.377 105.842 181.638 105.314 180.952 104.733C180.319 104.1 179.843 103.36 179.527 102.516C179.263 101.882 179.078 101.222 178.973 100.535C178.92 99.7962 178.973 99.0834 179.131 98.397C179.342 97.7105 179.659 97.1033 180.081 96.5753C180.556 96.0472 181.189 95.704 181.981 95.5456C182.509 95.3872 183.037 95.4136 183.565 95.6248C184.093 95.7832 184.594 96.0208 185.069 96.3377C185.544 96.6545 186.019 97.0241 186.494 97.4465C186.969 97.8161 187.444 98.1065 187.919 98.3178C189.133 98.793 190.532 99.2418 192.116 99.6642C193.752 100.034 195.256 100.324 196.629 100.535V86.754C195.679 86.4372 194.596 86.1467 193.382 85.8827C192.221 85.6187 191.271 85.3811 190.532 85.1699C189.846 84.9059 189.213 84.6947 188.632 84.5363C188.104 84.325 187.629 84.0874 187.207 83.8234C184.884 82.9258 183.195 81.5265 182.14 79.6256C181.612 78.6752 181.216 77.7247 180.952 76.7743C180.688 75.771 180.556 74.6622 180.556 73.4477C180.556 72.3916 180.662 71.4148 180.873 70.5171C181.084 69.5667 181.348 68.6954 181.665 67.9034C182.298 66.3193 183.327 64.9465 184.752 63.7848C185.386 63.1512 186.098 62.6231 186.89 62.2007C187.735 61.7783 188.632 61.3559 189.582 60.9335C190.479 60.511 191.614 60.1942 192.987 59.983C194.359 59.7718 195.573 59.6134 196.629 59.5078C196.629 58.7685 196.629 58.0029 196.629 57.2109C196.629 56.366 196.84 55.6532 197.262 55.0724C197.895 54.1747 198.476 53.5411 199.004 53.1715C199.532 52.8018 200.323 52.6698 201.379 52.7754C202.329 52.881 203.174 53.1187 203.913 53.4883C204.652 53.8579 205.206 54.5179 205.575 55.4684C205.575 55.574 205.575 55.8644 205.575 56.3396C205.628 56.762 205.681 57.2373 205.734 57.7653C205.787 58.3461 205.813 59.0062 205.813 59.7454C207.502 60.115 209.244 60.5902 211.039 61.1711C212.886 61.6991 214.549 62.3855 216.027 63.2304C217.188 63.9696 218.112 64.8145 218.798 65.7649C219.537 66.6625 219.88 67.7978 219.827 69.1707C219.774 69.9099 219.484 70.6227 218.956 71.3092C218.428 71.9956 217.795 72.3916 217.056 72.4972C216.211 72.6028 215.42 72.4708 214.681 72.1012C213.942 71.6788 213.229 71.2828 212.543 70.9132C211.646 70.4907 210.59 70.0683 209.376 69.6459C208.215 69.1707 207.027 68.8803 205.813 68.7747V79.7048C206.921 80.0216 208.083 80.444 209.297 80.9721C210.511 81.4473 211.566 81.8697 212.464 82.2393C215.42 83.4538 217.584 85.3811 218.956 88.0212C220.381 90.6086 221.041 93.4071 220.935 96.4169C220.883 98.4234 220.487 100.271 219.748 101.961C219.326 102.7 218.85 103.387 218.323 104.02C217.795 104.654 217.214 105.235 216.581 105.763C215.947 106.344 215.261 106.845 214.522 107.268C213.783 107.637 212.965 108.033 212.068 108.456C211.17 108.72 210.168 108.984 209.059 109.248C207.951 109.459 206.869 109.67 205.813 109.882C205.76 109.882 205.707 110.066 205.655 110.436C205.655 110.753 205.655 111.122 205.655 111.545C205.707 111.967 205.734 112.39 205.734 112.812C205.787 113.182 205.813 113.393 205.813 113.446C205.813 114.343 205.628 115.109 205.259 115.743ZM191.007 73.8437C191.06 74.2661 191.245 74.7414 191.561 75.2694C191.878 75.7446 192.248 76.1406 192.67 76.4574C193.145 76.7743 193.726 77.0383 194.412 77.2495C195.098 77.4079 195.837 77.5399 196.629 77.6455V68.6954C194.887 68.8011 193.435 69.2499 192.274 70.0419C191.166 70.7812 190.743 72.0484 191.007 73.8437ZM212.147 95.0704C212.041 94.384 211.778 93.7503 211.355 93.1695C210.986 92.5359 210.484 91.9814 209.851 91.5062C209.27 91.031 208.61 90.635 207.872 90.3181C207.185 89.9485 206.499 89.6845 205.813 89.5261C205.813 91.3742 205.839 93.2487 205.892 95.1496C205.998 96.9977 206.024 98.8458 205.971 100.694C206.763 100.799 207.555 100.747 208.347 100.535C209.138 100.271 209.825 99.9018 210.405 99.4266C210.986 98.8986 211.434 98.265 211.751 97.5257C212.121 96.7865 212.253 95.968 212.147 95.0704Z" fill="#FF9D33"/>
</g>
<g filter="url(#filter17_g_281_289)">
<path d="M180.286 331.57C180.243 332.403 179.992 333.174 179.534 333.881C179.076 334.588 178.511 335.128 177.838 335.5C177.202 335.846 176.514 335.983 175.773 335.912C175.092 335.858 174.489 335.502 173.963 334.842C173.881 334.779 173.722 334.557 173.484 334.177C173.284 333.77 173.065 333.376 172.828 332.997C172.605 332.544 172.387 332.151 172.172 331.816C171.994 331.454 171.905 331.273 171.905 331.273C170.987 331.764 169.9 332.318 168.643 332.936C167.4 333.482 166.265 333.887 165.236 334.152C164.548 334.289 163.823 334.453 163.061 334.645C162.314 334.764 161.574 334.846 160.841 334.893C160.086 334.894 159.346 334.823 158.621 334.68C157.91 334.464 157.266 334.076 156.688 333.515C156.236 333.109 155.828 332.638 155.465 332.105C155.116 331.499 154.853 330.861 154.674 330.191C154.533 329.494 154.499 328.81 154.572 328.14C154.682 327.443 154.981 326.822 155.469 326.278C155.772 325.869 156.153 325.62 156.611 325.528C157.048 325.392 157.499 325.337 157.966 325.363C158.432 325.389 158.92 325.461 159.431 325.577C159.92 325.649 160.375 325.653 160.797 325.589C161.847 325.369 163.016 325.032 164.303 324.577C165.605 324.049 166.781 323.522 167.831 322.995L162.022 311.188C161.223 311.407 160.343 311.716 159.381 312.116C158.457 312.489 157.691 312.776 157.084 312.976C156.493 313.104 155.96 313.25 155.486 313.414C155.028 313.505 154.595 313.547 154.188 313.539C152.183 313.968 150.41 313.641 148.869 312.557C148.099 312.015 147.421 311.405 146.835 310.727C146.228 310.004 145.668 309.122 145.156 308.081C144.711 307.176 144.373 306.285 144.142 305.407C143.89 304.484 143.707 303.601 143.595 302.759C143.371 301.075 143.513 299.368 144.022 297.638C144.198 296.768 144.475 295.948 144.851 295.178C145.265 294.38 145.715 293.555 146.203 292.703C146.653 291.878 147.314 291.021 148.187 290.132C149.059 289.243 149.842 288.481 150.537 287.846C150.226 287.212 149.903 286.556 149.569 285.878C149.213 285.154 149.06 284.434 149.111 283.719C149.177 282.623 149.316 281.781 149.53 281.192C149.744 280.603 150.243 280.081 151.027 279.627C151.737 279.227 152.428 278.995 153.102 278.93C153.775 278.866 154.442 279.145 155.101 279.769C155.145 279.859 155.268 280.108 155.468 280.515C155.683 280.85 155.921 281.23 156.18 281.655C156.462 282.125 156.759 282.677 157.07 283.31C158.409 282.755 159.829 282.264 161.331 281.835C162.848 281.335 164.302 281.065 165.693 281.026C166.818 281.06 167.821 281.307 168.702 281.768C169.598 282.155 170.317 282.951 170.859 284.154C171.133 284.815 171.23 285.575 171.15 286.436C171.07 287.296 170.793 287.962 170.32 288.434C169.773 288.96 169.163 289.256 168.489 289.32C167.794 289.34 167.128 289.368 166.491 289.405C165.685 289.507 164.767 289.689 163.739 289.954C162.725 290.146 161.771 290.51 160.876 291.046L165.484 300.41C166.393 300.109 167.385 299.872 168.458 299.698C169.508 299.479 170.426 299.296 171.21 299.15C173.792 298.665 176.12 299.2 178.195 300.753C180.283 302.235 181.925 304.292 183.12 306.925C183.929 308.671 184.43 310.458 184.625 312.287C184.641 313.139 184.598 313.972 184.495 314.787C184.392 315.602 184.231 316.399 184.009 317.178C183.811 318.003 183.541 318.787 183.202 319.53C182.84 320.228 182.434 320.989 181.984 321.814C181.466 322.503 180.875 323.247 180.21 324.045C179.523 324.798 178.854 325.537 178.204 326.263C178.167 326.29 178.208 326.476 178.327 326.82C178.46 327.091 178.616 327.408 178.794 327.77C179.009 328.104 179.205 328.452 179.384 328.814C179.576 329.104 179.684 329.271 179.706 329.316C180.084 330.085 180.278 330.837 180.286 331.57ZM152.643 303.028C152.858 303.363 153.188 303.674 153.632 303.963C154.054 304.207 154.48 304.356 154.909 304.409C155.375 304.436 155.893 304.362 156.463 304.189C157.01 303.971 157.584 303.703 158.183 303.385L154.41 295.717C153.235 296.706 152.407 297.84 151.928 299.117C151.463 300.322 151.701 301.626 152.643 303.028ZM176.397 310.306C176.034 309.772 175.582 309.365 175.041 309.086C174.515 308.733 173.93 308.517 173.286 308.437C172.679 308.329 172.05 308.331 171.399 308.44C170.763 308.478 170.171 308.606 169.623 308.824C170.402 310.407 171.211 312 172.049 313.601C172.902 315.13 173.7 316.699 174.442 318.31C175.041 317.992 175.573 317.538 176.039 316.949C176.482 316.314 176.807 315.643 177.013 314.936C177.197 314.185 177.244 313.41 177.155 312.613C177.102 311.79 176.849 311.02 176.397 310.306Z" fill="#FF9D33"/>
</g>
<g filter="url(#filter18_g_281_289)">
<path d="M38.8143 80.6797C38.4554 80.9756 38.0444 81.1625 37.5812 81.2404C37.1181 81.3183 36.6832 81.2889 36.2766 81.1523C35.8952 81.0206 35.5797 80.7892 35.3303 80.4579C35.0957 80.1578 35.015 79.7752 35.0882 79.3102C35.0835 79.2528 35.1146 79.1038 35.1814 78.8631C35.2733 78.6274 35.3527 78.3892 35.4196 78.1486C35.5217 77.8867 35.6011 77.6485 35.6577 77.434C35.7394 77.2245 35.7803 77.1197 35.7803 77.1197C35.2333 76.9272 34.596 76.6887 33.8684 76.4041C33.1762 76.0984 32.5821 75.7837 32.0861 75.4603C31.7707 75.2288 31.4301 74.9924 31.0644 74.751C30.734 74.4884 30.4214 74.2152 30.1263 73.9314C29.8415 73.6213 29.592 73.2901 29.3779 72.9376C29.1991 72.5638 29.116 72.1526 29.1288 71.7038C29.1258 71.3648 29.1656 71.02 29.2482 70.6696C29.3661 70.298 29.5291 69.9494 29.7373 69.6238C29.9705 69.3031 30.2387 69.0317 30.5418 68.8094C30.87 68.5921 31.2379 68.4813 31.6453 68.477C31.9271 68.448 32.1731 68.5106 32.3834 68.6649C32.604 68.793 32.7966 68.958 32.9614 69.1597C33.1261 69.3614 33.2807 69.5894 33.425 69.8435C33.5795 70.0714 33.7494 70.26 33.9346 70.4094C34.4203 70.759 34.9991 71.1129 35.6709 71.4711C36.378 71.808 37.0377 72.0933 37.6498 72.3268L40.3162 65.4911C39.9254 65.2448 39.4667 64.9992 38.9401 64.7543C38.4386 64.5143 38.0324 64.3073 37.7217 64.1332C37.4462 63.9378 37.1857 63.7736 36.94 63.6405C36.7297 63.4862 36.5497 63.3238 36.3998 63.1532C35.4683 62.49 34.9353 61.6374 34.8007 60.5954C34.7335 60.0744 34.729 59.5659 34.7873 59.0697C34.8558 58.5473 35.0075 57.9849 35.2425 57.3825C35.4468 56.8587 35.686 56.3841 35.9602 55.9586C36.2445 55.507 36.5387 55.0997 36.8426 54.7365C37.4505 54.0103 38.2059 53.4259 39.1088 52.9835C39.5328 52.7286 39.9741 52.5336 40.4326 52.3984C40.9162 52.2682 41.4249 52.1428 41.9587 52.0225C42.4674 51.8972 43.0687 51.8466 43.7627 51.8706C44.4566 51.8947 45.0649 51.93 45.5877 51.9767C45.7307 51.6101 45.8788 51.2303 46.0321 50.8375C46.1955 50.4184 46.4339 50.0846 46.7472 49.8362C47.2223 49.4504 47.6212 49.1906 47.9439 49.0568C48.2665 48.923 48.6688 48.9319 49.1508 49.0833C49.5824 49.2249 49.9383 49.422 50.2185 49.6747C50.4986 49.9274 50.6346 50.3068 50.6265 50.8129C50.6061 50.8653 50.5499 51.0093 50.458 51.245C50.4014 51.4595 50.3345 51.7002 50.2575 51.9671C50.1702 52.2601 50.0551 52.59 49.9121 52.9566C50.6443 53.2985 51.3812 53.6977 52.1228 54.1542C52.8998 54.5896 53.5582 55.0861 54.098 55.6439C54.5075 56.1195 54.7836 56.6253 54.9263 57.1611C55.1042 57.6757 55.0478 58.271 54.7571 58.947C54.589 59.3087 54.3129 59.635 53.9289 59.926C53.5449 60.2169 53.1669 60.3539 52.7949 60.3369C52.3725 60.31 52.0213 60.1702 51.7412 59.9175C51.4713 59.6387 51.2088 59.3753 50.9538 59.1276C50.6086 58.8339 50.1879 58.5253 49.692 58.2018C49.2313 57.8571 48.7224 57.6016 48.1651 57.4352L46.0504 62.8567C46.5166 63.1179 46.9874 63.4364 47.463 63.8122C47.9487 64.1619 48.3693 64.4705 48.7248 64.7381C49.8964 65.6179 50.5533 66.777 50.6956 68.2153C50.8731 69.6324 50.6457 71.0824 50.0131 72.5654C49.5998 73.5557 49.0538 74.4352 48.3753 75.2039C48.0313 75.531 47.6725 75.8268 47.2987 76.0916C46.9249 76.3563 46.5363 76.5899 46.1327 76.7924C45.7189 77.021 45.2954 77.2054 44.862 77.3456C44.4388 77.4596 43.9729 77.5792 43.4642 77.7045C42.9861 77.7513 42.4578 77.7881 41.8793 77.815C41.311 77.8157 40.7552 77.8189 40.212 77.8246C40.1869 77.8196 40.126 77.9064 40.0294 78.0847C39.9681 78.2419 39.8966 78.4252 39.8148 78.6347C39.7582 78.8492 39.689 79.0612 39.6073 79.2707C39.5609 79.459 39.5326 79.5663 39.5224 79.5925C39.3487 80.0377 39.1127 80.4001 38.8143 80.6797ZM40.1391 58.5599C40.0824 58.7743 40.0784 59.0274 40.127 59.319C40.1857 59.5845 40.2849 59.8156 40.4246 60.0124C40.5893 60.2141 40.8145 60.3995 41.1002 60.5687C41.3961 60.7117 41.7222 60.8465 42.0785 60.9732L43.8101 56.5339C42.9608 56.4228 42.1832 56.5092 41.4774 56.793C40.8069 57.0557 40.3608 57.6446 40.1391 58.5599ZM46.0916 71.0726C46.1742 70.7223 46.1712 70.3832 46.0826 70.0555C46.0294 69.7065 45.8981 69.3844 45.6886 69.0893C45.5043 68.7991 45.2669 68.5407 44.9766 68.3142C44.7216 68.0665 44.4461 67.8711 44.1503 67.7281C43.7927 68.6448 43.4426 69.577 43.0999 70.5249C42.7926 71.4514 42.4476 72.3706 42.0649 73.2823C42.4212 73.409 42.8082 73.4571 43.2258 73.4267C43.6537 73.37 44.0517 73.2511 44.4199 73.0699C44.7984 72.8625 45.1345 72.5903 45.4282 72.2533C45.747 71.9214 45.9682 71.5278 46.0916 71.0726Z" fill="#FF9D33"/>
</g>
<g filter="url(#filter19_g_281_289)">
<path d="M288.845 395.779C288.083 395.444 287.409 395.059 286.824 394.624C286.239 394.189 285.825 393.78 285.581 393.397C285.356 393.038 285.332 392.74 285.507 392.503C285.657 392.281 286.075 392.202 286.763 392.268C286.833 392.263 287.061 392.292 287.447 392.353C287.853 392.438 288.248 392.511 288.634 392.572C289.085 392.667 289.48 392.74 289.821 392.791C290.181 392.867 290.362 392.905 290.362 392.905C290.045 392.389 289.694 391.789 289.31 391.103C288.991 390.451 288.785 389.89 288.693 389.422C288.669 389.124 288.625 388.802 288.561 388.457C288.562 388.145 288.595 387.849 288.66 387.57C288.771 387.3 288.946 387.064 289.186 386.86C289.491 386.69 289.945 386.609 290.548 386.618C290.99 386.613 291.484 386.648 292.031 386.724C292.642 386.832 293.27 386.983 293.914 387.177C294.579 387.394 295.215 387.644 295.823 387.928C296.45 388.235 296.979 388.58 297.409 388.962C297.741 389.227 297.915 389.459 297.931 389.657C297.992 389.866 297.976 390.048 297.883 390.204C297.79 390.36 297.651 390.507 297.468 390.644C297.329 390.791 297.258 390.952 297.255 391.127C297.302 391.585 297.44 392.132 297.669 392.765C297.963 393.432 298.276 394.054 298.606 394.631L310.365 397.093C310.282 396.724 310.127 396.291 309.9 395.795C309.693 395.322 309.541 394.939 309.446 394.645C309.416 394.385 309.36 394.139 309.279 393.908C309.263 393.709 309.289 393.539 309.357 393.397C309.258 392.517 309.823 392.011 311.051 391.877C311.666 391.811 312.329 391.803 313.042 391.855C313.8 391.916 314.697 392.055 315.733 392.272C316.634 392.46 317.507 392.682 318.351 392.937C319.241 393.201 320.083 393.475 320.876 393.759C322.464 394.325 324.019 395.031 325.541 395.877C326.317 396.274 327.033 396.688 327.688 397.118C328.363 397.571 329.058 398.049 329.772 398.55C330.467 399.027 331.16 399.592 331.851 400.244C332.542 400.896 333.13 401.468 333.613 401.96C334.244 402.092 334.897 402.229 335.573 402.37C336.294 402.521 336.98 402.743 337.633 403.036C338.635 403.48 339.392 403.853 339.904 404.156C340.416 404.458 340.823 404.836 341.126 405.29C341.39 405.697 341.502 406.033 341.462 406.297C341.422 406.562 341.065 406.693 340.392 406.688C340.301 406.669 340.054 406.618 339.648 406.533C339.307 406.481 338.922 406.42 338.491 406.349C338.015 406.269 337.461 406.163 336.831 406.031C337.144 406.721 337.388 407.416 337.56 408.116C337.798 408.849 337.831 409.471 337.661 409.982C337.463 410.37 337.086 410.633 336.53 410.77C336.04 410.941 335.199 410.892 334.008 410.623C333.357 410.467 332.641 410.21 331.859 409.851C331.077 409.492 330.503 409.138 330.137 408.788C329.733 408.391 329.551 408.06 329.591 407.795C329.676 407.539 329.748 407.291 329.808 407.05C329.835 406.723 329.802 406.326 329.71 405.858C329.683 405.423 329.489 404.943 329.127 404.418L319.801 402.465C319.943 402.905 320.015 403.35 320.017 403.799C320.063 404.258 320.096 404.655 320.115 404.991C320.179 406.098 319.341 406.723 317.599 406.866C315.923 407.042 313.781 406.837 311.173 406.252C309.441 405.87 307.717 405.363 306 404.73C305.212 404.409 304.45 404.073 303.712 403.724C302.975 403.374 302.263 403.01 301.577 402.632C300.845 402.245 300.162 401.848 299.526 401.442C298.936 401.045 298.293 400.608 297.598 400.13C297.039 399.681 296.44 399.185 295.802 398.641C295.209 398.107 294.626 397.585 294.053 397.074C294.033 397.051 293.856 396.994 293.52 396.904C293.25 396.848 292.935 396.782 292.574 396.706C292.234 396.654 291.883 396.591 291.523 396.515C291.227 396.473 291.056 396.447 291.011 396.438C290.245 396.277 289.523 396.058 288.845 395.779ZM319.287 396.881C318.947 396.83 318.61 396.828 318.277 396.875C317.99 396.932 317.789 397.027 317.676 397.159C317.583 397.315 317.574 397.528 317.649 397.798C317.77 398.077 317.932 398.384 318.137 398.72L325.774 400.319C325.035 399.52 324.111 398.79 323.003 398.128C321.959 397.5 320.721 397.084 319.287 396.881ZM309.049 402.557C309.595 402.632 310.038 402.627 310.376 402.542C310.779 402.49 311.065 402.364 311.235 402.165C311.424 401.99 311.516 401.765 311.511 401.491C311.571 401.25 311.541 400.99 311.421 400.711C309.844 400.381 308.254 400.057 306.652 399.742C305.114 399.459 303.547 399.14 301.951 398.787C302.156 399.122 302.495 399.486 302.971 399.879C303.491 400.28 304.062 400.654 304.683 400.999C305.35 401.353 306.058 401.667 306.807 401.941C307.575 402.238 308.322 402.444 309.049 402.557Z" fill="#FF9D33"/>
</g>
<g filter="url(#filter20_g_281_289)">
<path d="M51.0882 219.821C50.3674 220.239 49.659 220.555 48.9629 220.771C48.2668 220.987 47.6922 221.08 47.239 221.051C46.8166 221.02 46.5616 220.864 46.4742 220.583C46.3832 220.33 46.5672 219.946 47.026 219.43C47.0637 219.37 47.2212 219.203 47.4983 218.927C47.8062 218.65 48.0987 218.374 48.3759 218.098C48.718 217.79 49.0105 217.514 49.2535 217.269C49.5271 217.023 49.6639 216.9 49.6639 216.9C49.0609 216.851 48.3694 216.78 47.5894 216.685C46.8743 216.558 46.3008 216.393 45.8688 216.191C45.6139 216.035 45.3282 215.881 45.0119 215.728C44.7605 215.543 44.5416 215.342 44.355 215.124C44.2027 214.876 44.1153 214.595 44.0927 214.281C44.1351 213.934 44.3378 213.52 44.7011 213.038C44.9582 212.678 45.2784 212.3 45.6617 211.903C46.1099 211.474 46.6024 211.056 47.1391 210.649C47.7065 210.241 48.2839 209.875 48.8714 209.552C49.4896 209.227 50.0801 209.003 50.6429 208.882C51.0523 208.77 51.342 208.767 51.512 208.871C51.7161 208.944 51.8536 209.064 51.9245 209.232C51.9954 209.4 52.0321 209.598 52.0345 209.827C52.0712 210.026 52.1591 210.178 52.2984 210.284C52.6962 210.517 53.2184 210.728 53.8651 210.917C54.5767 211.073 55.2629 211.188 55.9237 211.261L64.8517 203.219C64.5047 203.069 64.0639 202.939 63.5293 202.829C63.0254 202.717 62.6272 202.613 62.3345 202.517C62.1067 202.388 61.8754 202.287 61.6405 202.216C61.4706 202.112 61.3484 201.991 61.274 201.852C60.5056 201.413 60.4304 200.658 61.0482 199.587C61.3572 199.051 61.7428 198.511 62.2051 197.966C62.7017 197.39 63.3433 196.748 64.1301 196.039C64.8142 195.423 65.5084 194.849 66.2126 194.318C66.951 193.756 67.6688 193.238 68.366 192.764C69.7604 191.817 71.248 190.978 72.8288 190.248C73.6075 189.856 74.3637 189.522 75.0975 189.246C75.862 188.969 76.6572 188.69 77.4831 188.409C78.2783 188.13 79.1431 187.904 80.0776 187.731C81.0121 187.558 81.8203 187.421 82.5023 187.321C82.9812 186.89 83.4772 186.443 83.9903 185.981C84.5376 185.488 85.1221 185.064 85.7438 184.71C86.6935 184.163 87.4414 183.772 87.9876 183.537C88.5339 183.302 89.0796 183.197 89.6247 183.22C90.1085 183.247 90.4455 183.355 90.6355 183.544C90.8256 183.732 90.7201 184.097 90.3192 184.639C90.2508 184.7 90.0626 184.87 89.7548 185.147C89.5118 185.392 89.2346 185.667 88.9232 185.973C88.5776 186.31 88.1654 186.694 87.6865 187.126C88.4288 187.28 89.1333 187.494 89.8001 187.768C90.5318 188.008 91.0535 188.349 91.3652 188.788C91.5612 189.177 91.5508 189.636 91.3339 190.166C91.1819 190.663 90.6459 191.313 89.7258 192.116C89.2163 192.549 88.5857 192.976 87.8343 193.395C87.0828 193.815 86.4581 194.069 85.9602 194.158C85.4009 194.25 85.0262 194.202 84.8362 194.013C84.6803 193.793 84.5227 193.588 84.3633 193.397C84.1154 193.184 83.7755 192.976 83.3436 192.773C82.9765 192.538 82.4744 192.412 81.8372 192.394L74.7564 198.772C75.1954 198.917 75.5967 199.121 75.9602 199.385C76.358 199.618 76.6979 199.826 76.98 200.009C77.9112 200.611 77.9205 201.656 77.0079 203.147C76.1601 204.605 74.7306 206.214 72.7195 207.974C71.3889 209.147 69.9616 210.24 68.4375 211.252C67.7132 211.699 66.9924 212.117 66.2751 212.506C65.5578 212.895 64.8441 213.255 64.1339 213.586C63.3895 213.948 62.6657 214.266 61.9625 214.539C61.2936 214.781 60.5615 215.042 59.7663 215.321C59.0737 215.508 58.3198 215.699 57.5045 215.893C56.7234 216.057 55.9577 216.219 55.2073 216.381C55.1766 216.383 55.0262 216.492 54.7561 216.71C54.5508 216.895 54.3114 217.111 54.0377 217.357C53.7948 217.602 53.5365 217.847 53.2628 218.094C53.054 218.307 52.9325 218.43 52.8983 218.46C52.3168 218.984 51.7135 219.438 51.0882 219.821ZM69.9479 195.891C69.7049 196.135 69.5045 196.406 69.3465 196.702C69.2227 196.968 69.1809 197.186 69.2211 197.355C69.2919 197.523 69.4584 197.656 69.7204 197.754C70.0166 197.822 70.3606 197.872 70.7523 197.905L76.5504 192.682C75.4695 192.807 74.3351 193.122 73.1471 193.626C72.0239 194.098 70.9575 194.853 69.9479 195.891ZM68.4837 207.508C68.867 207.111 69.1241 206.751 69.255 206.428C69.4507 206.071 69.5184 205.766 69.4581 205.512C69.4285 205.255 69.3016 205.048 69.0773 204.89C68.9179 204.7 68.6901 204.571 68.3939 204.503C67.1967 205.581 65.9977 206.674 64.797 207.782C63.6611 208.856 62.4792 209.934 61.2513 211.014C61.643 211.047 62.1374 210.987 62.7344 210.835C63.3657 210.652 64.0039 210.412 64.6493 210.113C65.3288 209.784 66 209.398 66.663 208.955C67.3566 208.51 67.9635 208.028 68.4837 207.508Z" fill="#FF9D33"/>
</g>
<g filter="url(#filter21_g_281_289)">
<path d="M326.409 252.517C325.81 253.05 325.113 253.359 324.317 253.442C323.522 253.526 322.768 253.401 322.056 253.067C321.387 252.747 320.825 252.238 320.37 251.542C319.943 250.909 319.776 250.137 319.869 249.224C319.857 249.109 319.9 248.818 319.998 248.35C320.14 247.895 320.26 247.434 320.359 246.966C320.516 246.461 320.637 246 320.719 245.583C320.845 245.179 320.909 244.977 320.909 244.977C319.949 244.51 318.83 243.939 317.552 243.262C316.333 242.548 315.284 241.831 314.403 241.112C313.841 240.604 313.235 240.082 312.586 239.546C311.996 238.973 311.435 238.382 310.905 237.773C310.39 237.113 309.935 236.417 309.54 235.683C309.204 234.913 309.031 234.083 309.021 233.193C308.991 232.519 309.035 231.84 309.153 231.157C309.33 230.436 309.587 229.768 309.924 229.153C310.304 228.552 310.748 228.054 311.256 227.658C311.808 227.277 312.436 227.113 313.14 227.167C313.625 227.153 314.055 227.315 314.43 227.654C314.82 227.942 315.165 228.3 315.465 228.726C315.764 229.152 316.047 229.629 316.315 230.156C316.599 230.633 316.906 231.034 317.237 231.359C318.102 232.128 319.128 232.92 320.315 233.735C321.561 234.513 322.722 235.181 323.797 235.739L327.917 222.565C327.224 222.015 326.413 221.457 325.485 220.889C324.601 220.335 323.884 219.862 323.334 219.468C322.844 219.037 322.382 218.671 321.948 218.369C321.573 218.03 321.25 217.679 320.979 217.317C319.321 215.856 318.338 214.08 318.031 211.989C317.877 210.943 317.833 209.932 317.898 208.955C317.979 207.927 318.201 206.833 318.565 205.672C318.88 204.663 319.26 203.756 319.703 202.953C320.163 202.099 320.642 201.335 321.141 200.66C322.14 199.31 323.404 198.264 324.934 197.524C325.649 197.082 326.397 196.763 327.18 196.564C328.007 196.38 328.878 196.209 329.792 196.052C330.663 195.881 331.699 195.872 332.9 196.027C334.101 196.181 335.156 196.345 336.063 196.518C336.284 195.811 336.513 195.079 336.75 194.322C337.002 193.514 337.39 192.888 337.914 192.442C338.708 191.748 339.379 191.293 339.927 191.077C340.476 190.86 341.172 190.94 342.016 191.315C342.772 191.662 343.402 192.109 343.904 192.654C344.406 193.199 344.669 193.974 344.691 194.978C344.66 195.079 344.573 195.357 344.431 195.811C344.348 196.229 344.25 196.697 344.136 197.215C344.006 197.784 343.83 198.422 343.609 199.129C344.9 199.921 346.203 200.827 347.517 201.848C348.892 202.832 350.066 203.92 351.039 205.111C351.781 206.12 352.295 207.167 352.58 208.254C352.924 209.304 352.869 210.478 352.415 211.777C352.15 212.47 351.697 213.076 351.054 213.595C350.411 214.114 349.767 214.328 349.122 214.238C348.39 214.119 347.773 213.788 347.271 213.242C346.784 212.647 346.311 212.083 345.853 211.552C345.235 210.915 344.485 210.237 343.605 209.518C342.784 208.763 341.885 208.177 340.91 207.761L337.642 218.21C338.467 218.8 339.304 219.505 340.153 220.325C341.018 221.095 341.767 221.773 342.401 222.359C344.49 224.287 345.708 226.691 346.057 229.571C346.466 232.415 346.176 235.261 345.189 238.111C344.546 240.016 343.665 241.68 342.547 243.103C341.975 243.7 341.376 244.233 340.749 244.702C340.122 245.171 339.466 245.575 338.783 245.916C338.084 246.307 337.365 246.608 336.626 246.82C335.903 246.982 335.106 247.148 334.235 247.319C333.412 247.338 332.501 247.33 331.503 247.295C330.52 247.209 329.56 247.13 328.621 247.058C328.577 247.044 328.478 247.207 328.324 247.547C328.229 247.85 328.119 248.203 327.992 248.607C327.91 249.025 327.805 249.435 327.679 249.839C327.612 250.206 327.571 250.415 327.555 250.465C327.287 251.324 326.905 252.008 326.409 252.517ZM327.114 208.763C327.032 209.181 327.043 209.683 327.148 210.27C327.269 210.807 327.457 211.281 327.712 211.694C328.011 212.12 328.414 212.523 328.92 212.903C329.442 213.233 330.015 213.551 330.64 213.857L333.316 205.301C331.84 204.95 330.502 205.002 329.302 205.458C328.161 205.877 327.432 206.979 327.114 208.763ZM338.302 234.543C338.42 233.859 338.391 233.185 338.214 232.52C338.097 231.819 337.847 231.158 337.463 230.54C337.124 229.935 336.695 229.385 336.177 228.89C335.718 228.359 335.228 227.928 334.706 227.599C334.154 229.365 333.615 231.164 333.091 232.995C332.626 234.789 332.095 236.563 331.499 238.316C332.124 238.622 332.797 238.777 333.516 238.781C334.252 238.734 334.932 238.559 335.555 238.255C336.195 237.901 336.756 237.412 337.24 236.787C337.767 236.177 338.122 235.429 338.302 234.543Z" fill="#FF9D33"/>
</g>
<g filter="url(#filter22_g_281_289)">
<path d="M414.098 89.2625C413.595 89.7102 413.009 89.9692 412.341 90.0395C411.673 90.1098 411.039 90.0046 410.441 89.7242C409.879 89.4552 409.406 89.028 409.024 88.4428C408.665 87.9115 408.525 87.2623 408.603 86.4953C408.593 86.399 408.629 86.1542 408.712 85.7611C408.831 85.3794 408.932 84.9919 409.015 84.5987C409.147 84.1747 409.248 83.7872 409.318 83.4364C409.424 83.0972 409.477 82.9275 409.477 82.9275C408.671 82.5356 407.731 82.0551 406.657 81.4863C405.633 80.8865 404.751 80.2846 404.011 79.6806C403.539 79.2535 403.03 78.8148 402.484 78.3647C401.989 77.8837 401.518 77.3872 401.073 76.8753C400.64 76.3209 400.258 75.7357 399.926 75.1195C399.643 74.4725 399.498 73.7752 399.49 73.0276C399.465 72.4611 399.502 71.8907 399.601 71.3164C399.75 70.7111 399.965 70.1501 400.248 69.6333C400.568 69.1281 400.941 68.7094 401.368 68.3774C401.831 68.0569 402.359 67.9194 402.95 67.9648C403.358 67.9527 403.719 68.089 404.034 68.3738C404.362 68.6161 404.652 68.9163 404.903 69.2743C405.155 69.6324 405.393 70.0328 405.618 70.4757C405.856 70.8762 406.114 71.213 406.392 71.4862C407.119 72.1327 407.981 72.7982 408.978 73.4828C410.025 74.1365 411.001 74.6978 411.904 75.1667L415.365 64.0979C414.783 63.6363 414.102 63.167 413.322 62.6903C412.579 62.225 411.977 61.8269 411.515 61.4962C411.103 61.1345 410.715 60.8267 410.35 60.5729C410.035 60.2881 409.764 59.9937 409.536 59.6896C408.143 58.4621 407.318 56.97 407.059 55.213C406.93 54.3346 406.893 53.4849 406.948 52.664C407.016 51.8006 407.203 50.8813 407.508 49.9059C407.773 49.0577 408.092 48.2961 408.464 47.6212C408.85 46.9039 409.253 46.2617 409.673 45.6946C410.512 44.5605 411.574 43.6823 412.859 43.0601C413.459 42.6893 414.088 42.4206 414.746 42.254C415.441 42.0989 416.172 41.9553 416.94 41.8232C417.672 41.6796 418.542 41.6727 419.551 41.8023C420.561 41.9319 421.447 42.0694 422.209 42.2148C422.394 41.6211 422.587 41.0062 422.786 40.37C422.998 39.6915 423.324 39.165 423.764 38.7906C424.431 38.2078 424.995 37.8255 425.455 37.6437C425.916 37.462 426.501 37.5286 427.21 37.8436C427.845 38.1357 428.374 38.5107 428.796 38.9687C429.218 39.4267 429.439 40.0777 429.458 40.9216C429.431 41.0064 429.358 41.2397 429.239 41.6213C429.169 41.9721 429.087 42.3653 428.991 42.8009C428.882 43.2789 428.735 43.8148 428.549 44.4085C429.633 45.0737 430.727 45.8353 431.832 46.6931C432.987 47.5201 433.973 48.434 434.791 49.4348C435.414 50.2818 435.846 51.1618 436.085 52.0748C436.375 52.9569 436.329 53.9435 435.947 55.0346C435.724 55.6168 435.343 56.126 434.803 56.5622C434.263 56.9985 433.722 57.1784 433.18 57.1021C432.565 57.0027 432.047 56.724 431.625 56.266C431.216 55.7656 430.819 55.2921 430.433 54.8456C429.914 54.3107 429.285 53.7412 428.545 53.1372C427.855 52.5023 427.1 52.01 426.281 51.6605L423.536 60.4391C424.229 60.9353 424.932 61.5278 425.645 62.2167C426.372 62.8631 427.001 63.4326 427.534 63.9251C429.288 65.5451 430.312 67.565 430.605 69.9847C430.949 72.3735 430.706 74.7651 429.876 77.1594C429.335 78.7594 428.595 80.1574 427.656 81.3534C427.176 81.855 426.673 82.3027 426.146 82.6965C425.619 83.0903 425.068 83.4302 424.494 83.7162C423.907 84.0445 423.303 84.2978 422.682 84.4759C422.074 84.6116 421.404 84.7513 420.673 84.8949C419.981 84.9112 419.216 84.9046 418.378 84.8749C417.552 84.8028 416.745 84.7365 415.956 84.6759C415.92 84.6644 415.836 84.8013 415.707 85.0867C415.627 85.3411 415.534 85.638 415.428 85.9773C415.359 86.3281 415.271 86.6731 415.165 87.0124C415.109 87.3207 415.074 87.4961 415.061 87.5385C414.836 88.2595 414.515 88.8341 414.098 89.2625ZM414.691 52.503C414.621 52.8538 414.631 53.2758 414.719 53.7689C414.82 54.2197 414.978 54.6183 415.193 54.9649C415.444 55.3229 415.783 55.6616 416.208 55.9808C416.646 56.2577 417.128 56.5249 417.653 56.7823L419.901 49.594C418.661 49.299 417.537 49.3429 416.528 49.7258C415.57 50.0778 414.958 51.0036 414.691 52.503ZM424.09 74.1615C424.189 73.5871 424.164 73.0207 424.016 72.4621C423.918 71.8726 423.707 71.3179 423.385 70.7981C423.1 70.2898 422.74 69.8279 422.305 69.4123C421.919 68.9658 421.507 68.6041 421.069 68.3272C420.605 69.8115 420.152 71.3228 419.712 72.8611C419.321 74.3684 418.875 75.8585 418.374 77.3313C418.9 77.5888 419.465 77.719 420.069 77.722C420.687 77.6826 421.258 77.5354 421.782 77.2803C422.319 76.9829 422.791 76.5718 423.198 76.0471C423.641 75.534 423.938 74.9054 424.09 74.1615Z" fill="#FF9D33"/>
</g>
<g filter="url(#filter23_g_281_289)">
<path d="M41.1713 396.934C41.127 397.255 40.9936 397.533 40.7713 397.767C40.549 398.002 40.2846 398.161 39.9781 398.245C39.6887 398.322 39.3828 398.314 39.0604 398.219C38.7634 398.137 38.5096 397.943 38.2988 397.639C38.265 397.607 38.2019 397.506 38.1094 397.336C38.0339 397.159 37.9499 396.986 37.8574 396.817C37.7735 396.62 37.6895 396.447 37.6054 396.297C37.5383 396.14 37.5048 396.061 37.5048 396.061C37.0877 396.17 36.5941 396.288 36.0239 396.415C35.4624 396.516 34.9522 396.571 34.4931 396.581C34.1872 396.572 33.8643 396.571 33.5243 396.577C33.1929 396.556 32.8659 396.521 32.5433 396.473C32.2122 396.406 31.8898 396.311 31.576 396.189C31.2709 396.041 31.0001 395.831 30.7637 395.561C30.5779 395.361 30.4134 395.141 30.2703 394.9C30.1359 394.633 30.0397 394.36 29.9818 394.083C29.941 393.798 29.9468 393.529 29.9992 393.274C30.0687 393.012 30.2187 392.797 30.4492 392.629C30.5944 392.497 30.769 392.434 30.9729 392.44C31.1685 392.426 31.3681 392.445 31.5718 392.498C31.7755 392.55 31.9875 392.622 32.208 392.714C32.42 392.786 32.6195 392.829 32.8064 392.842C33.2738 392.851 33.7966 392.825 34.3749 392.764C34.9618 392.676 35.4936 392.577 35.9702 392.466L33.7815 387.338C33.4245 387.351 33.029 387.392 32.5952 387.461C32.1784 387.523 31.8339 387.566 31.5618 387.589C31.2984 387.586 31.0604 387.594 30.8478 387.615C30.6438 387.61 30.4527 387.587 30.2745 387.547C29.3822 387.533 28.6147 387.245 27.972 386.683C27.6506 386.403 27.3719 386.104 27.1357 385.786C26.8912 385.449 26.6725 385.055 26.4796 384.603C26.3119 384.21 26.1909 383.832 26.1165 383.469C26.0337 383.086 25.9805 382.726 25.957 382.387C25.9099 381.71 26.0241 381.058 26.2997 380.429C26.4036 380.106 26.5498 379.811 26.7383 379.545C26.9438 379.271 27.1664 378.99 27.406 378.702C27.6286 378.421 27.9447 378.147 28.3542 377.879C28.7637 377.611 29.1304 377.385 29.4545 377.2C29.3371 376.925 29.2155 376.64 29.0897 376.345C28.9555 376.031 28.9105 375.737 28.9545 375.462C29.0165 375.041 29.1033 374.725 29.215 374.515C29.3267 374.304 29.5613 374.146 29.9189 374.04C30.2424 373.948 30.5527 373.92 30.85 373.956C31.1472 373.991 31.431 374.161 31.7012 374.463C31.718 374.503 31.7641 374.611 31.8396 374.787C31.9237 374.937 32.0162 375.107 32.1171 375.296C32.2264 375.505 32.3397 375.747 32.4571 376.022C33.0611 375.927 33.6989 375.863 34.3705 375.832C35.0508 375.774 35.6965 375.8 36.3078 375.91C36.8001 376.025 37.2325 376.212 37.6049 376.471C37.986 376.703 38.2771 377.079 38.4781 377.597C38.5785 377.879 38.5979 378.184 38.5366 378.512C38.4752 378.841 38.3336 379.075 38.1118 379.217C37.8559 379.372 37.5794 379.432 37.2821 379.397C36.9765 379.341 36.6835 379.292 36.4033 379.249C36.0465 379.216 35.6387 379.204 35.1797 379.215C34.7293 379.198 34.2998 379.254 33.8911 379.382L35.627 383.449C36.0351 383.414 36.4771 383.411 36.9528 383.44C37.4202 383.449 37.8281 383.461 38.1765 383.475C39.3236 383.519 40.3283 383.938 41.1906 384.731C42.0616 385.497 42.7191 386.447 43.163 387.582C43.4646 388.336 43.6303 389.078 43.6601 389.809C43.6412 390.142 43.5968 390.463 43.5271 390.771C43.4573 391.08 43.3621 391.376 43.2415 391.66C43.1292 391.963 42.9874 392.245 42.8159 392.504C42.636 392.743 42.4348 393.003 42.2122 393.284C41.9645 393.506 41.6826 393.743 41.3667 393.994C41.0424 394.225 40.7267 394.453 40.4194 394.677C40.4024 394.684 40.4147 394.76 40.4563 394.905C40.5067 395.023 40.5654 395.161 40.6324 395.318C40.7166 395.468 40.7922 395.621 40.8593 395.778C40.935 395.909 40.9771 395.984 40.9854 396.003C41.128 396.337 41.19 396.648 41.1713 396.934ZM29.9164 383.309C30.0006 383.459 30.1357 383.611 30.3218 383.763C30.4995 383.897 30.6817 383.993 30.8683 384.053C31.072 384.105 31.3013 384.123 31.5564 384.107C31.8031 384.071 32.0626 384.019 32.335 383.949L30.9136 380.619C30.368 380.898 29.9707 381.265 29.7216 381.72C29.4812 382.148 29.5461 382.678 29.9164 383.309ZM40.112 388.293C39.9689 388.052 39.7831 387.852 39.5545 387.694C39.3346 387.51 39.0847 387.373 38.8047 387.283C38.5418 387.186 38.2659 387.13 37.977 387.114C37.6968 387.071 37.4334 387.067 37.1867 387.103C37.4802 387.791 37.7864 388.485 38.1053 389.185C38.4329 389.858 38.7349 390.542 39.0114 391.237C39.2838 391.167 39.531 391.038 39.753 390.85C39.9667 390.643 40.1295 390.411 40.2415 390.154C40.3451 389.877 40.3893 389.58 40.3741 389.261C40.376 388.935 40.2886 388.612 40.112 388.293Z" fill="#FF9D33"/>
</g>
<g filter="url(#filter24_dg_281_289)">
<ellipse cx="29.3295" cy="35.337" rx="29.3295" ry="35.337" transform="matrix(0.934498 -0.35597 0.327157 0.94497 402.061 316.803)" fill="#FEC400"/>
<path d="M428.16 302.583C445.984 295.793 465.308 308.051 472.177 327.89C479.045 347.73 471.723 370.138 453.899 376.927C436.076 383.716 416.752 371.459 409.884 351.619C403.015 331.779 410.337 309.372 428.16 302.583Z" stroke="black" stroke-width="8"/>
</g>
<g filter="url(#filter25_g_281_289)">
<path d="M430.264 308.653C445.284 302.931 461.369 313.369 467.07 329.835C472.771 346.301 466.818 365.133 451.798 370.855C436.778 376.576 420.692 366.138 414.992 349.673C409.291 333.207 415.244 314.374 430.264 308.653Z" stroke="#FF9D33" stroke-width="8"/>
</g>
<g filter="url(#filter26_g_281_289)">
<path d="M449.75 358.862C449.66 359.346 449.445 359.756 449.104 360.093C448.764 360.43 448.368 360.65 447.918 360.752C447.493 360.845 447.051 360.806 446.592 360.636C446.168 360.486 445.816 360.171 445.535 359.69C445.489 359.639 445.406 359.481 445.285 359.216C445.19 358.941 445.082 358.671 444.962 358.406C444.856 358.101 444.749 357.831 444.639 357.596C444.554 357.352 444.512 357.23 444.512 357.23C443.9 357.359 443.176 357.497 442.34 357.642C441.519 357.748 440.776 357.789 440.111 357.766C439.669 357.727 439.201 357.698 438.709 357.678C438.231 357.618 437.76 357.539 437.297 357.439C436.823 357.308 436.364 357.138 435.919 356.927C435.489 356.676 435.114 356.335 434.793 355.904C434.54 355.586 434.32 355.238 434.132 354.861C433.959 354.443 433.841 354.021 433.78 353.595C433.743 353.16 433.773 352.751 433.87 352.369C433.991 351.977 434.225 351.663 434.573 351.428C434.793 351.24 435.051 351.159 435.346 351.185C435.63 351.18 435.917 351.226 436.208 351.323C436.499 351.419 436.8 351.547 437.112 351.704C437.413 351.831 437.698 351.913 437.968 351.948C438.644 352.002 439.403 352.006 440.245 351.962C441.102 351.877 441.879 351.771 442.578 351.643L439.82 343.676C439.302 343.666 438.726 343.695 438.092 343.764C437.484 343.823 436.982 343.858 436.586 343.871C436.205 343.843 435.86 343.837 435.55 343.851C435.256 343.825 434.981 343.774 434.726 343.698C433.435 343.603 432.347 343.102 431.462 342.195C431.019 341.742 430.639 341.264 430.323 340.763C429.996 340.231 429.711 339.614 429.468 338.912C429.256 338.301 429.111 337.717 429.033 337.16C428.944 336.572 428.895 336.02 428.888 335.505C428.874 334.473 429.092 333.492 429.541 332.561C429.717 332.079 429.952 331.644 430.247 331.255C430.566 330.857 430.911 330.45 431.281 330.032C431.625 329.625 432.105 329.235 432.719 328.862C433.333 328.49 433.882 328.177 434.366 327.924C434.218 327.497 434.065 327.054 433.906 326.596C433.737 326.108 433.696 325.657 433.781 325.244C433.905 324.61 434.056 324.138 434.234 323.828C434.413 323.518 434.765 323.298 435.291 323.166C435.767 323.054 436.218 323.038 436.646 323.117C437.073 323.196 437.471 323.476 437.838 323.959C437.859 324.02 437.917 324.187 438.012 324.462C438.122 324.697 438.242 324.962 438.373 325.258C438.515 325.584 438.659 325.961 438.807 326.388C439.689 326.294 440.618 326.251 441.592 326.26C442.582 326.229 443.514 326.322 444.391 326.542C445.094 326.757 445.705 327.077 446.223 327.502C446.757 327.886 447.148 328.48 447.397 329.283C447.52 329.72 447.524 330.185 447.409 330.678C447.294 331.171 447.07 331.516 446.738 331.711C446.355 331.926 445.95 331.994 445.522 331.915C445.084 331.806 444.664 331.707 444.262 331.618C443.748 331.537 443.158 331.485 442.493 331.462C441.843 331.399 441.216 331.448 440.614 331.608L442.802 337.927C443.396 337.908 444.036 337.941 444.722 338.025C445.398 338.078 445.988 338.13 446.491 338.18C448.148 338.344 449.569 339.064 450.754 340.34C451.953 341.576 452.829 343.074 453.381 344.833C453.757 346.003 453.938 347.143 453.923 348.255C453.869 348.759 453.779 349.243 453.653 349.705C453.527 350.168 453.366 350.609 453.169 351.03C452.982 351.481 452.754 351.896 452.485 352.275C452.206 352.623 451.894 353.001 451.549 353.409C451.172 353.725 450.746 354.061 450.268 354.415C449.78 354.739 449.305 355.059 448.842 355.373C448.817 355.383 448.829 355.499 448.877 355.722C448.941 355.906 449.015 356.119 449.099 356.363C449.209 356.598 449.306 356.837 449.391 357.082C449.49 357.286 449.545 357.403 449.555 357.434C449.735 357.952 449.8 358.429 449.75 358.862ZM434.547 337.236C434.656 337.471 434.84 337.712 435.097 337.96C435.344 338.177 435.6 338.338 435.865 338.444C436.156 338.541 436.486 338.588 436.857 338.585C437.217 338.552 437.597 338.493 437.997 338.41L436.205 333.236C435.393 333.614 434.789 334.138 434.392 334.808C434.009 335.437 434.061 336.247 434.547 337.236ZM448.908 345.656C448.72 345.278 448.467 344.96 448.148 344.701C447.845 344.402 447.494 344.173 447.096 344.014C446.723 343.845 446.328 343.736 445.911 343.688C445.509 343.599 445.128 343.571 444.768 343.605C445.138 344.673 445.526 345.752 445.931 346.842C446.352 347.891 446.734 348.954 447.079 350.032C447.479 349.949 447.847 349.774 448.183 349.508C448.509 349.211 448.764 348.872 448.946 348.492C449.118 348.081 449.206 347.633 449.21 347.148C449.238 346.653 449.138 346.156 448.908 345.656Z" fill="#FF9D33"/>
</g>
<defs>
<filter id="filter0_dg_281_289" x="131.695" y="11.6572" width="143.67" height="143.712" filterUnits="userSpaceOnUse" color-interpolation-filters="sRGB">
<feFlood flood-opacity="0" result="BackgroundImageFix"/>
<feColorMatrix in="SourceAlpha" type="matrix" values="0 0 0 0 0 0 0 0 0 0 0 0 0 0 0 0 0 0 127 0" result="hardAlpha"/>
<feOffset dx="8" dy="8"/>
<feComposite in2="hardAlpha" operator="out"/>
<feColorMatrix type="matrix" values="0 0 0 0 0 0 0 0 0 0 0 0 0 0 0 0 0 0 1 0"/>
<feBlend mode="normal" in2="BackgroundImageFix" result="effect1_dropShadow_281_289"/>
<feBlend mode="normal" in="SourceGraphic" in2="effect1_dropShadow_281_289" result="shape"/>
<feTurbulence type="fractalNoise" baseFrequency="0.011904762126505375 0.011904762126505375" numOctaves="3" seed="6810" />
<feDisplacementMap in="shape" scale="8" xChannelSelector="R" yChannelSelector="G" result="displacedImage" width="100%" height="100%" />
<feMerge result="effect2_texture_281_289">
<feMergeNode in="displacedImage"/>
</feMerge>
</filter>
<filter id="filter1_dg_281_289" x="104.629" y="233.673" width="121.234" height="144.991" filterUnits="userSpaceOnUse" color-interpolation-filters="sRGB">
<feFlood flood-opacity="0" result="BackgroundImageFix"/>
<feColorMatrix in="SourceAlpha" type="matrix" values="0 0 0 0 0 0 0 0 0 0 0 0 0 0 0 0 0 0 127 0" result="hardAlpha"/>
<feOffset dx="8" dy="8"/>
<feComposite in2="hardAlpha" operator="out"/>
<feColorMatrix type="matrix" values="0 0 0 0 0 0 0 0 0 0 0 0 0 0 0 0 0 0 1 0"/>
<feBlend mode="normal" in2="BackgroundImageFix" result="effect1_dropShadow_281_289"/>
<feBlend mode="normal" in="SourceGraphic" in2="effect1_dropShadow_281_289" result="shape"/>
<feTurbulence type="fractalNoise" baseFrequency="0.011904762126505375 0.011904762126505375" numOctaves="3" seed="6810" />
<feDisplacementMap in="shape" scale="8" xChannelSelector="R" yChannelSelector="G" result="displacedImage" width="100%" height="100%" />
<feMerge result="effect2_texture_281_289">
<feMergeNode in="displacedImage"/>
</feMerge>
</filter>
<filter id="filter2_dg_281_289" x="1.59639" y="22.5156" width="88.1327" height="85.6729" filterUnits="userSpaceOnUse" color-interpolation-filters="sRGB">
<feFlood flood-opacity="0" result="BackgroundImageFix"/>
<feColorMatrix in="SourceAlpha" type="matrix" values="0 0 0 0 0 0 0 0 0 0 0 0 0 0 0 0 0 0 127 0" result="hardAlpha"/>
<feOffset dx="8" dy="8"/>
<feComposite in2="hardAlpha" operator="out"/>
<feColorMatrix type="matrix" values="0 0 0 0 0 0 0 0 0 0 0 0 0 0 0 0 0 0 1 0"/>
<feBlend mode="normal" in2="BackgroundImageFix" result="effect1_dropShadow_281_289"/>
<feBlend mode="normal" in="SourceGraphic" in2="effect1_dropShadow_281_289" result="shape"/>
<feTurbulence type="fractalNoise" baseFrequency="0.011904762126505375 0.011904762126505375" numOctaves="3" seed="6810" />
<feDisplacementMap in="shape" scale="8" xChannelSelector="R" yChannelSelector="G" result="displacedImage" width="100%" height="100%" />
<feMerge result="effect2_texture_281_289">
<feMergeNode in="displacedImage"/>
</feMerge>
</filter>
<filter id="filter3_dg_281_289" x="249.437" y="361.964" width="138.452" height="80.5215" filterUnits="userSpaceOnUse" color-interpolation-filters="sRGB">
<feFlood flood-opacity="0" result="BackgroundImageFix"/>
<feColorMatrix in="SourceAlpha" type="matrix" values="0 0 0 0 0 0 0 0 0 0 0 0 0 0 0 0 0 0 127 0" result="hardAlpha"/>
<feOffset dx="8" dy="8"/>
<feComposite in2="hardAlpha" operator="out"/>
<feColorMatrix type="matrix" values="0 0 0 0 0 0 0 0 0 0 0 0 0 0 0 0 0 0 1 0"/>
<feBlend mode="normal" in2="BackgroundImageFix" result="effect1_dropShadow_281_289"/>
<feBlend mode="normal" in="SourceGraphic" in2="effect1_dropShadow_281_289" result="shape"/>
<feTurbulence type="fractalNoise" baseFrequency="0.011904762126505375 0.011904762126505375" numOctaves="3" seed="6810" />
<feDisplacementMap in="shape" scale="8" xChannelSelector="R" yChannelSelector="G" result="displacedImage" width="100%" height="100%" />
<feMerge result="effect2_texture_281_289">
<feMergeNode in="displacedImage"/>
</feMerge>
</filter>
<filter id="filter4_dg_281_289" x="6.79578" y="156.778" width="132.599" height="90.4102" filterUnits="userSpaceOnUse" color-interpolation-filters="sRGB">
<feFlood flood-opacity="0" result="BackgroundImageFix"/>
<feColorMatrix in="SourceAlpha" type="matrix" values="0 0 0 0 0 0 0 0 0 0 0 0 0 0 0 0 0 0 127 0" result="hardAlpha"/>
<feOffset dx="8" dy="8"/>
<feComposite in2="hardAlpha" operator="out"/>
<feColorMatrix type="matrix" values="0 0 0 0 0 0 0 0 0 0 0 0 0 0 0 0 0 0 1 0"/>
<feBlend mode="normal" in2="BackgroundImageFix" result="effect1_dropShadow_281_289"/>
<feBlend mode="normal" in="SourceGraphic" in2="effect1_dropShadow_281_289" result="shape"/>
<feTurbulence type="fractalNoise" baseFrequency="0.011904762126505375 0.011904762126505375" numOctaves="3" seed="6810" />
<feDisplacementMap in="shape" scale="8" xChannelSelector="R" yChannelSelector="G" result="displacedImage" width="100%" height="100%" />
<feMerge result="effect2_texture_281_289">
<feMergeNode in="displacedImage"/>
</feMerge>
</filter>
<filter id="filter5_dg_281_289" x="270.888" y="149.509" width="129.09" height="142.464" filterUnits="userSpaceOnUse" color-interpolation-filters="sRGB">
<feFlood flood-opacity="0" result="BackgroundImageFix"/>
<feColorMatrix in="SourceAlpha" type="matrix" values="0 0 0 0 0 0 0 0 0 0 0 0 0 0 0 0 0 0 127 0" result="hardAlpha"/>
<feOffset dx="8" dy="8"/>
<feComposite in2="hardAlpha" operator="out"/>
<feColorMatrix type="matrix" values="0 0 0 0 0 0 0 0 0 0 0 0 0 0 0 0 0 0 1 0"/>
<feBlend mode="normal" in2="BackgroundImageFix" result="effect1_dropShadow_281_289"/>
<feBlend mode="normal" in="SourceGraphic" in2="effect1_dropShadow_281_289" result="shape"/>
<feTurbulence type="fractalNoise" baseFrequency="0.011904762126505375 0.011904762126505375" numOctaves="3" seed="6810" />
<feDisplacementMap in="shape" scale="8" xChannelSelector="R" yChannelSelector="G" result="displacedImage" width="100%" height="100%" />
<feMerge result="effect2_texture_281_289">
<feMergeNode in="displacedImage"/>
</feMerge>
</filter>
<filter id="filter6_dg_281_289" x="365.535" y="0.794922" width="112.925" height="124.172" filterUnits="userSpaceOnUse" color-interpolation-filters="sRGB">
<feFlood flood-opacity="0" result="BackgroundImageFix"/>
<feColorMatrix in="SourceAlpha" type="matrix" values="0 0 0 0 0 0 0 0 0 0 0 0 0 0 0 0 0 0 127 0" result="hardAlpha"/>
<feOffset dx="8" dy="8"/>
<feComposite in2="hardAlpha" operator="out"/>
<feColorMatrix type="matrix" values="0 0 0 0 0 0 0 0 0 0 0 0 0 0 0 0 0 0 1 0"/>
<feBlend mode="normal" in2="BackgroundImageFix" result="effect1_dropShadow_281_289"/>
<feBlend mode="normal" in="SourceGraphic" in2="effect1_dropShadow_281_289" result="shape"/>
<feTurbulence type="fractalNoise" baseFrequency="0.011904762126505375 0.011904762126505375" numOctaves="3" seed="6810" />
<feDisplacementMap in="shape" scale="8" xChannelSelector="R" yChannelSelector="G" result="displacedImage" width="100%" height="100%" />
<feMerge result="effect2_texture_281_289">
<feMergeNode in="displacedImage"/>
</feMerge>
</filter>
<filter id="filter7_dg_281_289" x="1.85732" y="349.771" width="69.2315" height="73.8916" filterUnits="userSpaceOnUse" color-interpolation-filters="sRGB">
<feFlood flood-opacity="0" result="BackgroundImageFix"/>
<feColorMatrix in="SourceAlpha" type="matrix" values="0 0 0 0 0 0 0 0 0 0 0 0 0 0 0 0 0 0 127 0" result="hardAlpha"/>
<feOffset dx="8" dy="8"/>
<feComposite in2="hardAlpha" operator="out"/>
<feColorMatrix type="matrix" values="0 0 0 0 0 0 0 0 0 0 0 0 0 0 0 0 0 0 1 0"/>
<feBlend mode="normal" in2="BackgroundImageFix" result="effect1_dropShadow_281_289"/>
<feBlend mode="normal" in="SourceGraphic" in2="effect1_dropShadow_281_289" result="shape"/>
<feTurbulence type="fractalNoise" baseFrequency="0.011904762126505375 0.011904762126505375" numOctaves="3" seed="6810" />
<feDisplacementMap in="shape" scale="8" xChannelSelector="R" yChannelSelector="G" result="displacedImage" width="100%" height="100%" />
<feMerge result="effect2_texture_281_289">
<feMergeNode in="displacedImage"/>
</feMerge>
</filter>
<filter id="filter8_g_281_289" x="142.211" y="22.1768" width="118.639" height="118.674" filterUnits="userSpaceOnUse" color-interpolation-filters="sRGB">
<feFlood flood-opacity="0" result="BackgroundImageFix"/>
<feBlend mode="normal" in="SourceGraphic" in2="BackgroundImageFix" result="shape"/>
<feTurbulence type="fractalNoise" baseFrequency="0.011904762126505375 0.011904762126505375" numOctaves="3" seed="6810" />
<feDisplacementMap in="shape" scale="8" xChannelSelector="R" yChannelSelector="G" result="displacedImage" width="100%" height="100%" />
<feMerge result="effect1_texture_281_289">
<feMergeNode in="displacedImage"/>
</feMerge>
</filter>
<filter id="filter9_g_281_289" x="113.228" y="244.194" width="100.038" height="119.949" filterUnits="userSpaceOnUse" color-interpolation-filters="sRGB">
<feFlood flood-opacity="0" result="BackgroundImageFix"/>
<feBlend mode="normal" in="SourceGraphic" in2="BackgroundImageFix" result="shape"/>
<feTurbulence type="fractalNoise" baseFrequency="0.011904762126505375 0.011904762126505375" numOctaves="3" seed="6810" />
<feDisplacementMap in="shape" scale="8" xChannelSelector="R" yChannelSelector="G" result="displacedImage" width="100%" height="100%" />
<feMerge result="effect1_texture_281_289">
<feMergeNode in="displacedImage"/>
</feMerge>
</filter>
<filter id="filter10_g_281_289" x="6.99985" y="27.8271" width="73.3261" height="71.0498" filterUnits="userSpaceOnUse" color-interpolation-filters="sRGB">
<feFlood flood-opacity="0" result="BackgroundImageFix"/>
<feBlend mode="normal" in="SourceGraphic" in2="BackgroundImageFix" result="shape"/>
<feTurbulence type="fractalNoise" baseFrequency="0.011904762126505375 0.011904762126505375" numOctaves="3" seed="6810" />
<feDisplacementMap in="shape" scale="8" xChannelSelector="R" yChannelSelector="G" result="displacedImage" width="100%" height="100%" />
<feMerge result="effect1_texture_281_289">
<feMergeNode in="displacedImage"/>
</feMerge>
</filter>
<filter id="filter11_g_281_289" x="259.232" y="367.035" width="114.861" height="66.3779" filterUnits="userSpaceOnUse" color-interpolation-filters="sRGB">
<feFlood flood-opacity="0" result="BackgroundImageFix"/>
<feBlend mode="normal" in="SourceGraphic" in2="BackgroundImageFix" result="shape"/>
<feTurbulence type="fractalNoise" baseFrequency="0.011904762126505375 0.011904762126505375" numOctaves="3" seed="6810" />
<feDisplacementMap in="shape" scale="8" xChannelSelector="R" yChannelSelector="G" result="displacedImage" width="100%" height="100%" />
<feMerge result="effect1_texture_281_289">
<feMergeNode in="displacedImage"/>
</feMerge>
</filter>
<filter id="filter12_g_281_289" x="15.9494" y="162.929" width="110.291" height="74.1094" filterUnits="userSpaceOnUse" color-interpolation-filters="sRGB">
<feFlood flood-opacity="0" result="BackgroundImageFix"/>
<feBlend mode="normal" in="SourceGraphic" in2="BackgroundImageFix" result="shape"/>
<feTurbulence type="fractalNoise" baseFrequency="0.011904762126505375 0.011904762126505375" numOctaves="3" seed="6810" />
<feDisplacementMap in="shape" scale="8" xChannelSelector="R" yChannelSelector="G" result="displacedImage" width="100%" height="100%" />
<feMerge result="effect1_texture_281_289">
<feMergeNode in="displacedImage"/>
</feMerge>
</filter>
<filter id="filter13_g_281_289" x="280.287" y="159.925" width="106.293" height="117.631" filterUnits="userSpaceOnUse" color-interpolation-filters="sRGB">
<feFlood flood-opacity="0" result="BackgroundImageFix"/>
<feBlend mode="normal" in="SourceGraphic" in2="BackgroundImageFix" result="shape"/>
<feTurbulence type="fractalNoise" baseFrequency="0.011904762126505375 0.011904762126505375" numOctaves="3" seed="6810" />
<feDisplacementMap in="shape" scale="8" xChannelSelector="R" yChannelSelector="G" result="displacedImage" width="100%" height="100%" />
<feMerge result="effect1_texture_281_289">
<feMergeNode in="displacedImage"/>
</feMerge>
</filter>
<filter id="filter14_g_281_289" x="373.436" y="9.54785" width="93.1275" height="102.674" filterUnits="userSpaceOnUse" color-interpolation-filters="sRGB">
<feFlood flood-opacity="0" result="BackgroundImageFix"/>
<feBlend mode="normal" in="SourceGraphic" in2="BackgroundImageFix" result="shape"/>
<feTurbulence type="fractalNoise" baseFrequency="0.011904762126505375 0.011904762126505375" numOctaves="3" seed="6810" />
<feDisplacementMap in="shape" scale="8" xChannelSelector="R" yChannelSelector="G" result="displacedImage" width="100%" height="100%" />
<feMerge result="effect1_texture_281_289">
<feMergeNode in="displacedImage"/>
</feMerge>
</filter>
<filter id="filter15_g_281_289" x="5.68788" y="353.945" width="57.5701" height="61.542" filterUnits="userSpaceOnUse" color-interpolation-filters="sRGB">
<feFlood flood-opacity="0" result="BackgroundImageFix"/>
<feBlend mode="normal" in="SourceGraphic" in2="BackgroundImageFix" result="shape"/>
<feTurbulence type="fractalNoise" baseFrequency="0.011904762126505375 0.011904762126505375" numOctaves="3" seed="6810" />
<feDisplacementMap in="shape" scale="8" xChannelSelector="R" yChannelSelector="G" result="displacedImage" width="100%" height="100%" />
<feMerge result="effect1_texture_281_289">
<feMergeNode in="displacedImage"/>
</feMerge>
</filter>
<filter id="filter16_g_281_289" x="174.953" y="48.7402" width="49.9936" height="72.8633" filterUnits="userSpaceOnUse" color-interpolation-filters="sRGB">
<feFlood flood-opacity="0" result="BackgroundImageFix"/>
<feBlend mode="normal" in="SourceGraphic" in2="BackgroundImageFix" result="shape"/>
<feTurbulence type="fractalNoise" baseFrequency="0.011904762126505375 0.011904762126505375" numOctaves="3" seed="6810" />
<feDisplacementMap in="shape" scale="8" xChannelSelector="R" yChannelSelector="G" result="displacedImage" width="100%" height="100%" />
<feMerge result="effect1_texture_281_289">
<feMergeNode in="displacedImage"/>
</feMerge>
</filter>
<filter id="filter17_g_281_289" x="139.492" y="274.921" width="49.1358" height="65.0088" filterUnits="userSpaceOnUse" color-interpolation-filters="sRGB">
<feFlood flood-opacity="0" result="BackgroundImageFix"/>
<feBlend mode="normal" in="SourceGraphic" in2="BackgroundImageFix" result="shape"/>
<feTurbulence type="fractalNoise" baseFrequency="0.011904762126505375 0.011904762126505375" numOctaves="3" seed="6810" />
<feDisplacementMap in="shape" scale="8" xChannelSelector="R" yChannelSelector="G" result="displacedImage" width="100%" height="100%" />
<feMerge result="effect1_texture_281_289">
<feMergeNode in="displacedImage"/>
</feMerge>
</filter>
<filter id="filter18_g_281_289" x="25.1275" y="44.9629" width="33.9001" height="40.3203" filterUnits="userSpaceOnUse" color-interpolation-filters="sRGB">
<feFlood flood-opacity="0" result="BackgroundImageFix"/>
<feBlend mode="normal" in="SourceGraphic" in2="BackgroundImageFix" result="shape"/>
<feTurbulence type="fractalNoise" baseFrequency="0.011904762126505375 0.011904762126505375" numOctaves="3" seed="6810" />
<feDisplacementMap in="shape" scale="8" xChannelSelector="R" yChannelSelector="G" result="displacedImage" width="100%" height="100%" />
<feMerge result="effect1_texture_281_289">
<feMergeNode in="displacedImage"/>
</feMerge>
</filter>
<filter id="filter19_g_281_289" x="281.392" y="382.617" width="64.0782" height="32.2529" filterUnits="userSpaceOnUse" color-interpolation-filters="sRGB">
<feFlood flood-opacity="0" result="BackgroundImageFix"/>
<feBlend mode="normal" in="SourceGraphic" in2="BackgroundImageFix" result="shape"/>
<feTurbulence type="fractalNoise" baseFrequency="0.011904762126505375 0.011904762126505375" numOctaves="3" seed="6810" />
<feDisplacementMap in="shape" scale="8" xChannelSelector="R" yChannelSelector="G" result="displacedImage" width="100%" height="100%" />
<feMerge result="effect1_texture_281_289">
<feMergeNode in="displacedImage"/>
</feMerge>
</filter>
<filter id="filter20_g_281_289" x="40.0927" y="179.217" width="55.4121" height="45.8389" filterUnits="userSpaceOnUse" color-interpolation-filters="sRGB">
<feFlood flood-opacity="0" result="BackgroundImageFix"/>
<feBlend mode="normal" in="SourceGraphic" in2="BackgroundImageFix" result="shape"/>
<feTurbulence type="fractalNoise" baseFrequency="0.011904762126505375 0.011904762126505375" numOctaves="3" seed="6810" />
<feDisplacementMap in="shape" scale="8" xChannelSelector="R" yChannelSelector="G" result="displacedImage" width="100%" height="100%" />
<feMerge result="effect1_texture_281_289">
<feMergeNode in="displacedImage"/>
</feMerge>
</filter>
<filter id="filter21_g_281_289" x="305.012" y="186.958" width="51.7907" height="70.5098" filterUnits="userSpaceOnUse" color-interpolation-filters="sRGB">
<feFlood flood-opacity="0" result="BackgroundImageFix"/>
<feBlend mode="normal" in="SourceGraphic" in2="BackgroundImageFix" result="shape"/>
<feTurbulence type="fractalNoise" baseFrequency="0.011904762126505375 0.011904762126505375" numOctaves="3" seed="6810" />
<feDisplacementMap in="shape" scale="8" xChannelSelector="R" yChannelSelector="G" result="displacedImage" width="100%" height="100%" />
<feMerge result="effect1_texture_281_289">
<feMergeNode in="displacedImage"/>
</feMerge>
</filter>
<filter id="filter22_g_281_289" x="395.482" y="33.5439" width="44.7904" height="60.5166" filterUnits="userSpaceOnUse" color-interpolation-filters="sRGB">
<feFlood flood-opacity="0" result="BackgroundImageFix"/>
<feBlend mode="normal" in="SourceGraphic" in2="BackgroundImageFix" result="shape"/>
<feTurbulence type="fractalNoise" baseFrequency="0.011904762126505375 0.011904762126505375" numOctaves="3" seed="6810" />
<feDisplacementMap in="shape" scale="8" xChannelSelector="R" yChannelSelector="G" result="displacedImage" width="100%" height="100%" />
<feMerge result="effect1_texture_281_289">
<feMergeNode in="displacedImage"/>
</feMerge>
</filter>
<filter id="filter23_g_281_289" x="21.9467" y="369.94" width="25.7134" height="32.3564" filterUnits="userSpaceOnUse" color-interpolation-filters="sRGB">
<feFlood flood-opacity="0" result="BackgroundImageFix"/>
<feBlend mode="normal" in="SourceGraphic" in2="BackgroundImageFix" result="shape"/>
<feTurbulence type="fractalNoise" baseFrequency="0.011904762126505375 0.011904762126505375" numOctaves="3" seed="6810" />
<feDisplacementMap in="shape" scale="8" xChannelSelector="R" yChannelSelector="G" result="displacedImage" width="100%" height="100%" />
<feMerge result="effect1_texture_281_289">
<feMergeNode in="displacedImage"/>
</feMerge>
</filter>
<filter id="filter24_dg_281_289" x="399.395" y="292.635" width="87.2702" height="98.2402" filterUnits="userSpaceOnUse" color-interpolation-filters="sRGB">
<feFlood flood-opacity="0" result="BackgroundImageFix"/>
<feColorMatrix in="SourceAlpha" type="matrix" values="0 0 0 0 0 0 0 0 0 0 0 0 0 0 0 0 0 0 127 0" result="hardAlpha"/>
<feOffset dx="8" dy="8"/>
<feComposite in2="hardAlpha" operator="out"/>
<feColorMatrix type="matrix" values="0 0 0 0 0 0 0 0 0 0 0 0 0 0 0 0 0 0 1 0"/>
<feBlend mode="normal" in2="BackgroundImageFix" result="effect1_dropShadow_281_289"/>
<feBlend mode="normal" in="SourceGraphic" in2="effect1_dropShadow_281_289" result="shape"/>
<feTurbulence type="fractalNoise" baseFrequency="0.011904762126505375 0.011904762126505375" numOctaves="3" seed="6810" />
<feDisplacementMap in="shape" scale="8" xChannelSelector="R" yChannelSelector="G" result="displacedImage" width="100%" height="100%" />
<feMerge result="effect2_texture_281_289">
<feMergeNode in="displacedImage"/>
</feMerge>
</filter>
<filter id="filter25_g_281_289" x="404.921" y="299.009" width="72.2199" height="81.4893" filterUnits="userSpaceOnUse" color-interpolation-filters="sRGB">
<feFlood flood-opacity="0" result="BackgroundImageFix"/>
<feBlend mode="normal" in="SourceGraphic" in2="BackgroundImageFix" result="shape"/>
<feTurbulence type="fractalNoise" baseFrequency="0.011904762126505375 0.011904762126505375" numOctaves="3" seed="6810" />
<feDisplacementMap in="shape" scale="8" xChannelSelector="R" yChannelSelector="G" result="displacedImage" width="100%" height="100%" />
<feMerge result="effect1_texture_281_289">
<feMergeNode in="displacedImage"/>
</feMerge>
</filter>
<filter id="filter26_g_281_289" x="424.888" y="319.067" width="33.0359" height="45.7344" filterUnits="userSpaceOnUse" color-interpolation-filters="sRGB">
<feFlood flood-opacity="0" result="BackgroundImageFix"/>
<feBlend mode="normal" in="SourceGraphic" in2="BackgroundImageFix" result="shape"/>
<feTurbulence type="fractalNoise" baseFrequency="0.011904762126505375 0.011904762126505375" numOctaves="3" seed="6810" />
<feDisplacementMap in="shape" scale="8" xChannelSelector="R" yChannelSelector="G" result="displacedImage" width="100%" height="100%" />
<feMerge result="effect1_texture_281_289">
<feMergeNode in="displacedImage"/>
</feMerge>
</filter>
</defs>
</svg>
