<svg width="1360" height="631" viewBox="0 0 1360 631" fill="none" xmlns="http://www.w3.org/2000/svg">
<g clip-path="url(#clip0_219_2)" filter="url(#filter0_g_219_2)">
<path d="M255.084 205.375C252.508 205.375 249.723 206.075 246.57 207.52C240.091 210.595 234.156 214.506 228.42 218.29C226.616 219.481 224.751 220.712 222.919 221.88L222.869 221.911C166.277 259.94 114.654 280.533 60.4059 286.716C49.09 288.018 38.001 288.758 27.4486 288.924C25.1375 288.968 22.8182 288.992 20.536 288.992C16.9415 288.992 13.3181 288.936 9.7731 288.825H9.66993C7.93251 288.825 6.52937 290.128 6.47159 291.794C6.41381 293.433 7.70553 294.822 9.40994 294.952C18.0434 295.617 26.8089 295.954 35.4547 295.954C63.3649 295.954 90.8087 292.514 117.027 285.734C153.145 276.56 189.483 260.185 231.37 234.205C232.716 233.397 234.074 232.566 235.431 231.743C238.547 229.847 241.551 228.015 244.585 226.273C244.506 226.396 244.428 226.518 244.35 226.645C241.721 230.757 238.692 235.151 234.821 240.466C230.132 246.946 225.151 253.575 220.335 259.987C211.293 272.024 201.942 284.472 193.708 296.959L193.684 296.999C193.362 297.509 193.019 298.048 192.664 298.606C186.722 307.947 177.742 322.061 182.009 332.403C183.412 336.124 187.126 339.535 191.071 340.715C192.982 341.32 195.103 341.625 197.377 341.625C202.726 341.625 208.099 339.998 212.837 338.562C213.518 338.356 214.182 338.154 214.826 337.964L214.888 337.944C218.61 336.745 222.316 335.51 225.906 334.319C233.607 331.758 240.883 329.34 248.534 327.139C262.722 323.019 276.824 319.856 290.455 317.739C306.212 315.312 321.989 314.081 337.341 314.081C341.554 314.081 345.805 314.176 349.965 314.358C350.25 314.37 350.538 314.378 350.827 314.378C360.278 314.378 368.036 307.282 368.495 298.222C368.771 293.638 367.071 289.213 363.699 285.79C360.34 282.374 355.668 280.415 350.885 280.415C350.171 280.415 349.453 280.458 348.743 280.545C316.979 283.858 286.477 290.353 258.096 299.852C247.754 303.276 236.925 307.349 224.02 312.664C221.788 313.563 219.518 314.509 217.327 315.427C211.974 317.663 206.444 319.975 200.992 321.716C201.137 321.313 201.294 320.905 201.446 320.493L201.653 319.943C202.495 317.893 203.58 315.633 204.975 313.033C213.394 298.051 223.983 283.906 234.222 270.227C239.179 263.609 244.3 256.766 249.137 249.887C252.422 245.216 255.897 240.221 259.05 235C261.253 231.288 263.977 226.689 265.533 221.527C267.646 214.664 265.45 208.83 259.805 206.317C258.36 205.687 256.78 205.375 255.088 205.375H255.084Z" fill="#FFF3DC"/>
<path d="M197.382 339.25C203.101 339.25 209.147 337.157 214.104 335.696C225.531 332.015 236.426 328.144 247.824 324.867C261.699 320.838 275.772 317.616 290.063 315.399C305.688 312.993 321.522 311.711 337.345 311.711C341.591 311.711 345.838 311.802 350.08 311.992C350.332 312.003 350.58 312.007 350.827 312.007C358.896 312.007 365.626 305.928 366.023 298.111C366.526 289.799 359.337 282.793 350.885 282.793C350.274 282.793 349.655 282.829 349.032 282.904C318.299 286.106 288.049 292.344 258.909 302.093C247.424 305.892 236.104 310.266 224.995 314.845C216.955 318.075 209.044 321.72 200.997 324.21C199.771 324.566 198.677 324.843 197.617 324.994C197.807 323.007 198.611 321.036 199.338 319.104C200.303 316.745 201.496 314.331 202.784 311.924C215.358 289.542 232.241 269.673 247.082 248.561C250.486 243.724 253.833 238.899 256.908 233.813C259.314 229.752 261.732 225.6 263.156 220.87C264.596 216.192 263.998 210.801 258.765 208.47C257.589 207.959 256.346 207.746 255.092 207.746C252.492 207.746 249.843 208.652 247.647 209.657C239.331 213.603 231.878 219.014 224.305 223.851C174.18 257.533 122.148 282.065 60.7155 289.067C49.7256 290.329 38.5747 291.117 27.5064 291.291C25.1912 291.335 22.8719 291.359 20.5526 291.359C16.9375 291.359 13.3223 291.303 9.71129 291.188C9.70304 291.188 9.69478 291.188 9.68653 291.188C9.2986 291.188 8.9767 291.485 8.96432 291.861C8.95194 292.233 9.24908 292.546 9.62875 292.578C18.2127 293.239 26.8379 293.571 35.4713 293.571C62.7294 293.571 90.0577 290.246 116.395 283.431C157.136 273.084 194.839 254.031 230.038 232.202C236.315 228.422 242.36 224.587 248.728 221.25C249.438 220.898 250.127 220.55 250.812 220.225C250.705 220.455 250.594 220.688 250.478 220.926C249.343 223.19 247.952 225.541 246.475 227.868C243.495 232.531 240.227 237.193 236.863 241.816C223.439 260.367 208.421 279.105 195.817 298.218C190.556 306.557 180.238 321.705 184.336 331.556C185.48 334.635 188.599 337.485 191.835 338.447C193.614 339.013 195.483 339.246 197.39 339.246M197.39 343.996C194.86 343.996 192.483 343.652 190.325 342.971C185.636 341.562 181.382 337.659 179.706 333.238C175.022 321.796 184.374 307.1 190.564 297.363C190.919 296.805 191.257 296.27 191.579 295.76L191.604 295.72L191.629 295.681C199.903 283.134 209.275 270.654 218.338 258.59C223.146 252.186 228.119 245.568 232.794 239.109C234.14 237.26 235.382 235.527 236.537 233.88C235.266 234.656 233.987 235.436 232.699 236.212C213.109 248.359 195.037 258.234 177.453 266.399C156.86 275.962 137.302 283.035 117.671 288.022C91.2503 294.857 63.5961 298.321 35.4713 298.321C26.7595 298.321 17.9321 297.98 9.23257 297.311C6.19105 297.078 3.90476 294.616 3.99968 291.711C4.09872 288.758 6.59136 286.447 9.67415 286.447C9.74018 286.447 9.80208 286.447 9.86811 286.447C13.3801 286.557 16.9746 286.613 20.5444 286.613C22.8059 286.613 25.1128 286.589 27.395 286.546C37.8856 286.383 48.8878 285.647 60.1171 284.357C113.948 278.222 165.212 257.763 221.454 219.968L221.503 219.936L221.553 219.905C223.369 218.745 225.226 217.522 227.021 216.335C232.827 212.503 238.836 208.541 245.443 205.406L245.476 205.391L245.509 205.375C249.001 203.776 252.133 203 255.088 203C257.135 203 259.058 203.388 260.808 204.148L260.828 204.156L260.849 204.164C267.58 207.164 270.353 214.241 267.91 222.2C266.276 227.627 263.47 232.36 261.212 236.16L261.204 236.176L261.196 236.192C258.001 241.476 254.502 246.51 251.192 251.216C246.339 258.119 241.205 264.978 236.24 271.608C226.051 285.22 215.511 299.294 207.17 314.133C206.498 315.392 205.899 316.563 205.367 317.667C208.966 316.326 212.585 314.814 216.34 313.242C218.536 312.324 220.802 311.378 223.063 310.468C236.017 305.128 246.896 301.04 257.3 297.596C285.837 288.046 316.512 281.511 348.459 278.178C349.263 278.083 350.081 278.036 350.889 278.036C356.353 278.036 361.681 280.268 365.507 284.155C369.345 288.054 371.284 293.096 370.975 298.352C370.443 308.667 361.603 316.745 350.836 316.745C350.51 316.745 350.175 316.737 349.845 316.721C345.735 316.539 341.525 316.448 337.349 316.448C322.125 316.448 306.48 317.667 290.851 320.078C277.336 322.176 263.342 325.314 249.265 329.403C241.651 331.592 234.4 334.002 226.724 336.555C223.133 337.75 219.419 338.985 215.688 340.188L215.626 340.208L215.565 340.228C214.925 340.418 214.269 340.616 213.596 340.818C208.92 342.239 203.11 344 197.382 344L197.39 343.996Z" fill="black"/>
</g>
<g filter="url(#filter1_dg_219_2)">
<path d="M312.487 230.313C296.574 124.042 288.617 70.9062 319.058 38.1133C349.499 5.32032 403.079 9.30727 510.239 17.2812L1171.24 66.4671C1260.09 73.0783 1304.51 76.3839 1329.71 106.152C1354.9 135.92 1350.82 180.279 1342.66 268.997L1325.8 452.197C1318.14 535.434 1314.31 577.052 1286.4 601.513C1258.5 625.974 1216.74 624.319 1133.22 621.009L520.231 596.714C446.659 593.798 409.873 592.34 384.938 569.986C360.003 547.631 354.551 511.223 343.647 438.405L312.487 230.313Z" fill="#FFF3DC"/>
<path d="M386.084 15.4023C412.622 13.5759 446.51 15.6167 490.525 18.8311L510.016 20.2725L1171.02 69.459C1215.53 72.7709 1248.6 75.2386 1273.72 80.5605C1298.36 85.7816 1314.9 93.6671 1326.85 107.431L1327.42 108.09C1339.41 122.262 1344.6 140.033 1345.69 165.597C1346.65 188.041 1344.45 216.136 1341.15 252.583L1339.67 268.723L1322.81 451.923C1318.97 493.623 1316.12 524.604 1310.77 548.233C1305.44 571.778 1297.72 587.607 1284.43 599.257C1271.14 610.906 1254.43 616.487 1230.39 618.688C1209.28 620.619 1182.84 619.922 1148.53 618.606L1133.33 618.011L520.349 593.717C483.488 592.256 456.115 591.165 434.831 587.679C413.627 584.206 398.822 578.404 386.941 567.752C375.06 557.1 367.681 543.014 361.921 522.314C356.862 504.133 353.119 481.119 348.603 451.208L346.615 437.961L315.455 229.869C307.484 176.641 301.562 137.042 301.39 106.642C301.222 76.7956 306.609 56.3924 320.584 40.8887L321.256 40.1543C335.731 24.5612 355.836 17.4842 386.084 15.4023Z" stroke="black" stroke-width="6"/>
</g>
<defs>
<filter id="filter0_g_219_2" x="-0.000488281" y="199" width="375" height="149" filterUnits="userSpaceOnUse" color-interpolation-filters="sRGB">
<feFlood flood-opacity="0" result="BackgroundImageFix"/>
<feBlend mode="normal" in="SourceGraphic" in2="BackgroundImageFix" result="shape"/>
<feTurbulence type="fractalNoise" baseFrequency="0.012048192322254181 0.012048192322254181" numOctaves="3" seed="9090" />
<feDisplacementMap in="shape" scale="8" xChannelSelector="R" yChannelSelector="G" result="displacedImage" width="100%" height="100%" />
<feMerge result="effect1_texture_219_2">
<feMergeNode in="displacedImage"/>
</feMerge>
</filter>
<filter id="filter1_dg_219_2" x="294.386" y="7.71552" width="1062.53" height="623.166" filterUnits="userSpaceOnUse" color-interpolation-filters="sRGB">
<feFlood flood-opacity="0" result="BackgroundImageFix"/>
<feColorMatrix in="SourceAlpha" type="matrix" values="0 0 0 0 0 0 0 0 0 0 0 0 0 0 0 0 0 0 127 0" result="hardAlpha"/>
<feOffset dx="8" dy="8"/>
<feComposite in2="hardAlpha" operator="out"/>
<feColorMatrix type="matrix" values="0 0 0 0 0 0 0 0 0 0 0 0 0 0 0 0 0 0 1 0"/>
<feBlend mode="normal" in2="BackgroundImageFix" result="effect1_dropShadow_219_2"/>
<feBlend mode="normal" in="SourceGraphic" in2="effect1_dropShadow_219_2" result="shape"/>
<feTurbulence type="fractalNoise" baseFrequency="0.011904762126505375 0.011904762126505375" numOctaves="3" seed="6810" />
<feDisplacementMap in="shape" scale="8" xChannelSelector="R" yChannelSelector="G" result="displacedImage" width="100%" height="100%" />
<feMerge result="effect2_texture_219_2">
<feMergeNode in="displacedImage"/>
</feMerge>
</filter>
<clipPath id="clip0_219_2">
<rect width="367" height="141" fill="white" transform="matrix(1 0 0 -1 3.99951 344)"/>
</clipPath>
</defs>
</svg>
