<svg width="605" height="268" viewBox="0 0 605 268" fill="none" xmlns="http://www.w3.org/2000/svg">
<g filter="url(#filter0_n_43_3)">
<mask id="path-1-outside-1_43_3" maskUnits="userSpaceOnUse" x="0" y="-1" width="737" height="269" fill="black">
<rect fill="white" y="-1" width="737" height="269"/>
<path d="M629.399 176.563C613.148 210.972 564.455 224.961 532.422 204.425C525.777 214.457 511.949 218.274 500.376 214.986C488.802 211.696 479.601 202.366 474.321 191.554C467.464 209.087 451.941 222.982 433.761 227.862C415.58 232.743 395.188 228.489 380.474 216.747C370.325 232.797 350.498 242.147 331.658 239.765C327.439 239.231 323.118 238.169 319.004 239.245C314.15 240.513 310.576 244.478 306.769 247.743C293.038 259.519 272.848 263.212 255.839 257.062C238.831 250.912 225.67 235.159 222.643 217.326C208.98 227.433 188.704 222.447 175.877 211.297C163.05 200.147 155.521 184.306 146.837 169.695C145.526 167.488 143.926 165.11 141.425 164.532C138.588 163.875 135.881 165.789 133.405 167.322C120.634 175.222 102.978 174.245 91.1526 164.987C86.3661 161.237 81.7207 155.999 75.6455 156.264C72.3671 156.407 69.4293 158.196 66.4197 159.509C52.7883 165.457 36.0083 161.32 25.057 151.255C14.1034 141.19 8.60872 126.115 8.04849 111.252C7.07593 85.4911 20.806 59.6769 42.7086 46.0885C48.0532 42.7737 54.3457 40.0798 60.4948 41.3999C66.6438 42.72 71.78 49.6408 69.1805 55.3671C86.2473 37.6302 111.841 28.4995 136.28 31.4265C160.717 34.3558 183.431 49.2755 195.823 70.5423C224.812 39.2707 279.441 36.8547 311.073 65.4503C322.139 25.0951 369.577 -1.12925 409.631 10.9665C414.529 12.4457 419.509 14.5704 422.664 18.5978C425.819 22.6253 426.453 29.0083 422.841 32.6323C438.319 18.051 461.788 12.5556 482.129 18.7458C502.47 24.936 518.9 42.5743 523.635 63.3054C559.05 50.3916 599.044 50.4633 634.412 63.5071C651.004 69.6256 669.222 84.4624 663.77 101.289C682.363 98.9294 702.997 99.8237 717.317 111.917C731.636 124.011 733.951 150.504 717.738 159.908C724.091 160.294 723.914 170.032 720.521 175.417C712.739 187.778 698.596 195.884 683.999 196.348C669.402 196.812 654.771 189.624 646.219 177.782C642.656 179.49 639.091 181.197 635.528 182.907C633.045 181.928 631.087 179.707 630.423 177.121"/>
</mask>
<path d="M629.399 176.563C613.148 210.972 564.455 224.961 532.422 204.425C525.777 214.457 511.949 218.274 500.376 214.986C488.802 211.696 479.601 202.366 474.321 191.554C467.464 209.087 451.941 222.982 433.761 227.862C415.58 232.743 395.188 228.489 380.474 216.747C370.325 232.797 350.498 242.147 331.658 239.765C327.439 239.231 323.118 238.169 319.004 239.245C314.15 240.513 310.576 244.478 306.769 247.743C293.038 259.519 272.848 263.212 255.839 257.062C238.831 250.912 225.67 235.159 222.643 217.326C208.98 227.433 188.704 222.447 175.877 211.297C163.05 200.147 155.521 184.306 146.837 169.695C145.526 167.488 143.926 165.11 141.425 164.532C138.588 163.875 135.881 165.789 133.405 167.322C120.634 175.222 102.978 174.245 91.1526 164.987C86.3661 161.237 81.7207 155.999 75.6455 156.264C72.3671 156.407 69.4293 158.196 66.4197 159.509C52.7883 165.457 36.0083 161.32 25.057 151.255C14.1034 141.19 8.60872 126.115 8.04849 111.252C7.07593 85.4911 20.806 59.6769 42.7086 46.0885C48.0532 42.7737 54.3457 40.0798 60.4948 41.3999C66.6438 42.72 71.78 49.6408 69.1805 55.3671C86.2473 37.6302 111.841 28.4995 136.28 31.4265C160.717 34.3558 183.431 49.2755 195.823 70.5423C224.812 39.2707 279.441 36.8547 311.073 65.4503C322.139 25.0951 369.577 -1.12925 409.631 10.9665C414.529 12.4457 419.509 14.5704 422.664 18.5978C425.819 22.6253 426.453 29.0083 422.841 32.6323C438.319 18.051 461.788 12.5556 482.129 18.7458C502.47 24.936 518.9 42.5743 523.635 63.3054C559.05 50.3916 599.044 50.4633 634.412 63.5071C651.004 69.6256 669.222 84.4624 663.77 101.289C682.363 98.9294 702.997 99.8237 717.317 111.917C731.636 124.011 733.951 150.504 717.738 159.908C724.091 160.294 723.914 170.032 720.521 175.417C712.739 187.778 698.596 195.884 683.999 196.348C669.402 196.812 654.771 189.624 646.219 177.782C642.656 179.49 639.091 181.197 635.528 182.907C633.045 181.928 631.087 179.707 630.423 177.121" fill="#8B625B"/>
<path d="M532.422 204.425L536.739 197.69C533.059 195.331 528.166 196.363 525.752 200.008L532.422 204.425ZM500.376 214.986L498.189 222.681L498.19 222.681L500.376 214.986ZM474.321 191.554L481.51 188.044C480.117 185.19 477.168 183.431 473.996 183.561C470.823 183.69 468.027 185.683 466.871 188.64L474.321 191.554ZM433.761 227.862L431.687 220.135L431.686 220.135L433.761 227.862ZM380.474 216.747L385.464 210.494C383.687 209.076 381.39 208.481 379.147 208.858C376.904 209.236 374.928 210.55 373.713 212.472L380.474 216.747ZM331.658 239.765L332.662 231.828L332.662 231.828L331.658 239.765ZM319.004 239.245L321.027 246.985L321.028 246.984L319.004 239.245ZM306.769 247.743L311.977 253.816L311.977 253.816L306.769 247.743ZM222.643 217.326L230.53 215.987C230.064 213.246 228.21 210.943 225.631 209.905C223.052 208.866 220.119 209.241 217.885 210.894L222.643 217.326ZM146.837 169.695L139.958 173.78L139.96 173.783L146.837 169.695ZM141.425 164.532L139.621 172.326L139.623 172.326L141.425 164.532ZM133.405 167.322L137.614 174.126L137.616 174.124L133.405 167.322ZM91.1526 164.987L86.2193 171.285L86.2209 171.286L91.1526 164.987ZM75.6455 156.264L75.2976 148.272L75.2959 148.272L75.6455 156.264ZM66.4197 159.509L69.6192 166.842L69.6195 166.841L66.4197 159.509ZM25.057 151.255L30.4705 145.365L30.4699 145.364L25.057 151.255ZM8.04849 111.252L16.0428 110.95L16.0428 110.95L8.04849 111.252ZM42.7086 46.0885L38.4921 39.2899L38.4912 39.2905L42.7086 46.0885ZM69.1805 55.3671L61.896 52.0602C60.2855 55.6078 61.4649 59.7997 64.6889 61.9872C67.9129 64.1746 72.2439 63.7214 74.9452 60.914L69.1805 55.3671ZM136.28 31.4265L137.232 23.4834L137.231 23.4833L136.28 31.4265ZM195.823 70.5423L188.911 74.57C190.187 76.7601 192.426 78.2158 194.945 78.494C197.465 78.7721 199.967 77.8398 201.69 75.9809L195.823 70.5423ZM311.073 65.4503L305.709 71.3848C307.769 73.2477 310.649 73.9082 313.316 73.1296C315.982 72.3511 318.054 70.2449 318.789 67.5658L311.073 65.4503ZM409.631 10.9665L407.318 18.6249L407.318 18.625L409.631 10.9665ZM422.841 32.6323L417.175 26.9846C414.09 30.0791 414.059 35.076 417.105 38.2088C420.151 41.3416 425.146 41.4513 428.327 38.4553L422.841 32.6323ZM523.635 63.3054L515.836 65.0868C516.347 67.3248 517.795 69.2354 519.811 70.3326C521.828 71.4298 524.219 71.6078 526.375 70.8214L523.635 63.3054ZM634.412 63.5071L631.644 71.013L631.644 71.013L634.412 63.5071ZM663.77 101.289L656.16 98.8235C655.316 101.429 655.863 104.284 657.61 106.393C659.357 108.502 662.061 109.571 664.778 109.226L663.77 101.289ZM717.738 159.908L713.724 152.988C710.672 154.758 709.14 158.318 709.953 161.751C710.766 165.185 713.732 167.68 717.254 167.893L717.738 159.908ZM720.521 175.417L713.752 171.153L713.752 171.155L720.521 175.417ZM646.219 177.782L652.705 173.098C650.439 169.96 646.252 168.895 642.762 170.568L646.219 177.782ZM635.528 182.907L632.593 190.349C634.664 191.166 636.982 191.083 638.99 190.12L635.528 182.907ZM629.399 176.563L622.165 173.146C615.187 187.922 601.016 198.699 584.62 203.409C568.223 208.12 550.495 206.509 536.739 197.69L532.422 204.425L528.104 211.16C546.382 222.878 569.017 224.54 589.038 218.787C609.059 213.035 627.36 199.612 636.633 179.979L629.399 176.563ZM532.422 204.425L525.752 200.008C521.388 206.595 511.452 209.816 502.563 207.29L500.376 214.986L498.19 222.681C512.445 226.731 530.166 222.318 539.091 208.843L532.422 204.425ZM500.376 214.986L502.564 207.291C493.725 204.778 486.074 197.391 481.51 188.044L474.321 191.554L467.133 195.064C473.128 207.341 483.879 218.613 498.189 222.681L500.376 214.986ZM474.321 191.554L466.871 188.64C460.939 203.806 447.412 215.915 431.687 220.135L433.761 227.862L435.835 235.588C456.471 230.05 473.989 214.368 481.772 194.468L474.321 191.554ZM433.761 227.862L431.686 220.135C415.961 224.357 398.191 220.651 385.464 210.494L380.474 216.747L375.484 223C392.185 236.328 415.199 241.128 435.835 235.588L433.761 227.862ZM380.474 216.747L373.713 212.472C365.222 225.898 348.421 233.821 332.662 231.828L331.658 239.765L330.655 247.701C352.574 250.473 375.428 239.695 387.236 221.023L380.474 216.747ZM331.658 239.765L332.662 231.828C331.335 231.66 328.178 231.136 326.034 230.936C323.466 230.696 320.312 230.634 316.98 231.505L319.004 239.245L321.028 246.984C321.811 246.78 322.874 246.71 324.549 246.867C326.649 247.062 327.762 247.336 330.655 247.701L331.658 239.765ZM319.004 239.245L316.981 231.505C313.045 232.533 309.932 234.578 307.541 236.463C305.502 238.07 302.813 240.597 301.56 241.671L306.769 247.743L311.977 253.816C314.531 251.625 315.533 250.536 317.447 249.028C319.008 247.796 320.109 247.224 321.027 246.985L319.004 239.245ZM306.769 247.743L301.561 241.671C290.019 251.569 272.857 254.709 258.56 249.539L255.839 257.062L253.119 264.586C272.839 271.716 296.058 267.468 311.977 253.816L306.769 247.743ZM255.839 257.062L258.56 249.539C244.262 244.369 233.075 230.979 230.53 215.987L222.643 217.326L214.755 218.665C218.265 239.339 233.4 257.455 253.119 264.586L255.839 257.062ZM222.643 217.326L217.885 210.894C213.192 214.366 207.039 215.505 200.243 214.389C193.41 213.266 186.484 209.917 181.125 205.259L175.877 211.297L170.629 217.335C178.097 223.826 187.723 228.546 197.649 230.177C207.614 231.814 218.43 230.393 227.4 223.757L222.643 217.326ZM175.877 211.297L181.125 205.259C169.569 195.214 162.956 181.157 153.714 165.608L146.837 169.695L139.96 173.783C148.086 187.455 156.531 205.08 170.629 217.335L175.877 211.297ZM146.837 169.695L153.716 165.611C153.026 164.449 151.935 162.668 150.436 161.055C148.891 159.394 146.542 157.504 143.227 156.737L141.425 164.532L139.623 172.326C138.81 172.138 138.51 171.726 138.718 171.95C138.817 172.056 138.976 172.249 139.201 172.575C139.426 172.902 139.667 173.289 139.958 173.78L146.837 169.695ZM141.425 164.532L143.229 156.738C139.479 155.87 136.236 156.828 134.067 157.779C132.057 158.661 130.087 159.967 129.194 160.52L133.405 167.322L137.616 174.124C138.397 173.641 138.821 173.364 139.396 173.021C139.906 172.718 140.248 172.539 140.493 172.432C141.006 172.207 140.535 172.537 139.621 172.326L141.425 164.532ZM133.405 167.322L129.196 160.519C119.278 166.654 105.271 165.88 96.0844 158.688L91.1526 164.987L86.2209 171.286C100.685 182.61 121.99 183.79 137.614 174.126L133.405 167.322ZM91.1526 164.987L96.086 158.689C95.0388 157.869 94.0453 157.004 92.7197 155.887C91.4862 154.848 90.0261 153.644 88.4379 152.544C85.2879 150.362 80.8555 148.03 75.2976 148.272L75.6455 156.264L75.9935 164.256C76.5107 164.234 77.4386 164.388 79.3267 165.696C80.2576 166.341 81.236 167.133 82.4096 168.122C83.491 169.034 84.8732 170.23 86.2193 171.285L91.1526 164.987ZM75.6455 156.264L75.2959 148.272C72.3263 148.402 69.7856 149.264 67.8727 150.056C66.9121 150.453 66.0022 150.88 65.2499 151.236C64.4446 151.617 63.833 151.909 63.22 152.177L66.4197 159.509L69.6195 166.841C70.5112 166.452 71.3954 166.029 72.0899 165.7C72.8372 165.347 73.4311 165.072 73.9909 164.84C75.1189 164.373 75.6864 164.27 75.9952 164.256L75.6455 156.264ZM66.4197 159.509L63.2202 152.177C52.9888 156.641 39.5166 153.679 30.4705 145.365L25.057 151.255L19.6434 157.145C32.5001 168.961 52.5877 174.273 69.6192 166.842L66.4197 159.509ZM25.057 151.255L30.4699 145.364C21.4485 137.074 16.5432 124.226 16.0428 110.95L8.04849 111.252L0.0541649 111.553C0.674252 128.005 6.7584 145.305 19.644 157.146L25.057 151.255ZM8.04849 111.252L16.0428 110.95C15.1787 88.0621 27.4674 64.9587 46.9261 52.8865L42.7086 46.0885L38.4912 39.2905C14.1446 54.3951 -1.02683 82.9202 0.054184 111.553L8.04849 111.252ZM42.7086 46.0885L46.9252 52.8871C51.927 49.7849 55.8796 48.5914 58.8156 49.2217L60.4948 41.3999L62.1739 33.5781C52.8118 31.5682 44.1794 35.7626 38.4921 39.2899L42.7086 46.0885ZM60.4948 41.3999L58.8156 49.2217C59.6569 49.4023 60.7632 50.1129 61.4467 51.1459C62.1068 52.1433 61.7555 52.3697 61.896 52.0602L69.1805 55.3671L76.4651 58.6739C79.205 52.6381 77.5854 46.541 74.7899 42.3165C72.018 38.1274 67.4816 34.7175 62.1739 33.5781L60.4948 41.3999ZM69.1805 55.3671L74.9452 60.914C90.2726 44.9848 113.38 36.741 135.329 39.3697L136.28 31.4265L137.231 23.4833C110.302 20.258 82.222 30.2756 63.4158 49.8202L69.1805 55.3671ZM136.28 31.4265L135.328 39.3696C157.275 42.0004 177.782 55.4709 188.911 74.57L195.823 70.5423L202.735 66.5146C189.08 43.0801 164.16 26.7111 137.232 23.4834L136.28 31.4265ZM195.823 70.5423L201.69 75.9809C227.702 47.9205 277.325 45.7264 305.709 71.3848L311.073 65.4503L316.438 59.5157C281.556 27.983 221.921 30.621 189.956 65.1037L195.823 70.5423ZM311.073 65.4503L318.789 67.5658C328.665 31.5483 371.571 7.82992 407.318 18.6249L409.631 10.9665L411.944 3.30813C367.582 -10.0884 315.613 18.6419 303.358 63.3347L311.073 65.4503ZM409.631 10.9665L407.318 18.625C411.925 20.0162 414.823 21.5612 416.366 23.5315L422.664 18.5978L428.962 13.6642C424.195 7.57964 417.134 4.8753 411.943 3.30807L409.631 10.9665ZM422.664 18.5978L416.366 23.5315C416.898 24.2096 417.261 25.1935 417.297 26.0839C417.331 26.9407 417.069 27.0905 417.175 26.9846L422.841 32.6323L428.507 38.28C432.225 34.5501 433.453 29.6964 433.284 25.4488C433.117 21.2348 431.586 17.0136 428.962 13.6642L422.664 18.5978ZM422.841 32.6323L428.327 38.4553C441.716 25.8415 462.203 21.0442 479.8 26.3992L482.129 18.7458L484.458 11.0923C461.373 4.06691 434.922 10.2605 417.355 26.8093L422.841 32.6323ZM482.129 18.7458L479.8 26.3992C497.396 31.7542 511.739 47.1518 515.836 65.0868L523.635 63.3054L531.434 61.5241C526.06 37.9967 507.543 18.1178 484.458 11.0923L482.129 18.7458ZM523.635 63.3054L526.375 70.8214C560.012 58.5563 598.053 58.6246 631.644 71.013L634.412 63.5071L637.18 56.0013C600.035 42.302 558.089 42.2269 520.894 55.7895L523.635 63.3054ZM634.412 63.5071L631.644 71.013C639.036 73.7389 646.54 78.3469 651.424 83.748C656.263 89.1004 657.685 94.1154 656.16 98.8235L663.77 101.289L671.381 103.755C675.307 91.6364 670.346 80.8195 663.292 73.0172C656.281 65.2635 646.38 59.3939 637.18 56.0012L634.412 63.5071ZM663.77 101.289L664.778 109.226C682.921 106.923 700.55 108.228 712.155 118.029L717.317 111.917L722.479 105.805C705.445 91.4192 681.805 90.936 662.763 93.3531L663.77 101.289ZM717.317 111.917L712.155 118.029C717.378 122.44 720.712 129.859 720.982 137.215C721.251 144.529 718.537 150.196 713.724 152.988L717.738 159.908L721.752 166.828C733.152 160.216 737.387 147.934 736.972 136.628C736.558 125.363 731.575 113.488 722.479 105.805L717.317 111.917ZM717.738 159.908L717.254 167.893C717.007 167.879 716.582 167.8 716.097 167.545C715.615 167.291 715.26 166.961 715.033 166.671C714.637 166.165 714.762 165.982 714.827 166.609C714.885 167.171 714.845 168.002 714.624 168.944C714.402 169.885 714.065 170.658 713.752 171.153L720.521 175.417L727.29 179.681C729.932 175.488 731.253 169.919 730.742 164.966C730.481 162.438 729.671 159.411 727.627 156.802C725.397 153.956 722.104 152.158 718.223 151.923L717.738 159.908ZM720.521 175.417L713.752 171.155C707.385 181.266 695.683 187.973 683.745 188.352L683.999 196.348L684.253 204.344C701.509 203.795 718.092 194.289 727.291 179.68L720.521 175.417ZM683.999 196.348L683.745 188.352C671.804 188.731 659.699 182.785 652.705 173.098L646.219 177.782L639.734 182.465C649.842 196.464 666.999 204.892 684.253 204.344L683.999 196.348ZM646.219 177.782L642.762 170.568C639.201 172.274 635.632 173.984 632.067 175.695L635.528 182.907L638.99 190.12C642.55 188.411 646.112 186.705 649.677 184.996L646.219 177.782ZM635.528 182.907L638.464 175.465C638.464 175.466 638.386 175.431 638.293 175.325C638.251 175.277 638.219 175.23 638.198 175.19C638.177 175.151 638.172 175.13 638.172 175.133L630.423 177.121L622.674 179.108C623.974 184.176 627.721 188.428 632.593 190.349L635.528 182.907Z" fill="black" mask="url(#path-1-outside-1_43_3)"/>
</g>
<path d="M516.695 124.818C507.095 136.016 495.866 146.81 481.719 151.873C468.425 156.633 452.675 156.254 441.713 146.439C436.472 141.746 432.662 135.387 432.009 128.295C431.717 125.118 426.717 125.089 427.013 128.295C428.328 142.533 439.353 154.226 452.842 158.195C469.096 162.975 486.544 157.345 499.859 147.713C507.486 142.192 514.114 135.491 520.226 128.358C522.307 125.93 518.789 122.378 516.691 124.822L516.695 124.818Z" fill="black"/>
<path d="M373.588 166.858C365.969 176.381 357.963 186.496 346.589 191.673C341.218 194.117 334.973 195.408 329.103 194.358C323.595 193.376 318.824 190.436 314.839 186.592C310.185 182.099 306.571 176.689 303.049 171.301C301.825 169.427 298.09 169.91 298.394 172.563C300.201 188.337 284.834 199.593 270.529 200.613C261.532 201.255 252.618 199.081 244.233 195.983C235.927 192.913 227.925 188.928 220.315 184.41C211.792 179.355 203.778 173.516 196.342 166.966C193.936 164.846 190.393 168.369 192.807 170.501C207.229 183.202 223.849 193.555 241.835 200.401C258.734 206.835 279.247 209.208 293.644 196.07C300.147 190.132 304.418 181.499 303.394 172.567L298.74 173.829C305.339 183.931 312.966 194.987 325.164 198.564C338.208 202.391 351.718 196.262 361.448 187.766C367.339 182.624 372.252 176.481 377.123 170.393C379.113 167.907 375.599 164.347 373.588 166.858Z" fill="black"/>
<defs>
<filter id="filter0_n_43_3" x="0" y="-0.000854492" width="736.999" height="268.001" filterUnits="userSpaceOnUse" color-interpolation-filters="sRGB">
<feFlood flood-opacity="0" result="BackgroundImageFix"/>
<feBlend mode="normal" in="SourceGraphic" in2="BackgroundImageFix" result="shape"/>
<feTurbulence type="fractalNoise" baseFrequency="2 2" stitchTiles="stitch" numOctaves="3" result="noise" seed="299" />
<feColorMatrix in="noise" type="luminanceToAlpha" result="alphaNoise" />
<feComponentTransfer in="alphaNoise" result="coloredNoise1">
<feFuncA type="discrete" tableValues="1 1 1 1 1 1 1 1 1 1 1 1 1 1 1 1 1 1 1 1 1 1 1 1 1 1 1 1 1 1 1 1 1 1 1 1 1 1 1 1 1 1 1 1 1 1 1 1 1 1 1 0 0 0 0 0 0 0 0 0 0 0 0 0 0 0 0 0 0 0 0 0 0 0 0 0 0 0 0 0 0 0 0 0 0 0 0 0 0 0 0 0 0 0 0 0 0 0 0 0 "/>
</feComponentTransfer>
<feComposite operator="in" in2="shape" in="coloredNoise1" result="noise1Clipped" />
<feFlood flood-color="rgba(0, 0, 0, 0.25)" result="color1Flood" />
<feComposite operator="in" in2="noise1Clipped" in="color1Flood" result="color1" />
<feMerge result="effect1_noise_43_3">
<feMergeNode in="shape" />
<feMergeNode in="color1" />
</feMerge>
</filter>
</defs>
</svg>
