<svg width="957" height="408" viewBox="0 0 957 408" fill="none" xmlns="http://www.w3.org/2000/svg">
<g filter="url(#filter0_n_43_2)">
<path d="M789.218 127.415C823.744 91.2357 878.537 87.282 914.466 115.554C950.641 144.016 957.859 197.404 938.636 231.925C930.894 245.83 919.981 254.659 911.537 260.018C908.935 267.513 904.592 277.991 897.321 289.299C889.348 301.702 864.123 341.282 817.464 347.606C783.591 352.194 747.833 338.619 725.285 312.609C691.648 356.994 642.826 392.203 587.867 397.897C532.908 403.597 473.082 374.3 452.815 322.252C437.169 362.412 399.222 392.756 357.023 398.846C314.824 404.937 270.017 386.541 243.919 352.406C190.288 381.665 123.244 384.268 67.5572 359.25C35.3658 344.791 4.38449 315.96 5.98013 280.328C-51.2544 293.882 -113.656 283.393 -163.501 251.845C-176.898 243.368 -189.915 232.787 -196.084 218.057C-212.169 179.648 -175.597 140.968 -142.924 115.565C-127.048 103.221 -109.324 90.254 -89.3304 91.1923C-69.3366 92.1305 -50.4405 115.625 -61.3798 132.6C-28.5137 72.0802 37.0203 31.1713 105.167 28.6494C150.194 26.979 204.285 52.1925 205.302 97.8143C207.771 68.3163 229.467 43.1788 255.378 29.4792C281.288 15.7797 311.017 11.7175 340.151 9.28782C364.894 7.22692 390.815 6.38087 413.422 16.7721C436.029 27.1634 453.998 52.0894 448.671 76.6467C482.067 41.3619 532.763 23.7738 580.504 30.9001C628.245 38.0265 671.778 69.6884 693.699 113.228C698.004 110.375 720.129 96.3662 748.786 102.565C771.725 107.522 785.122 122.458 789.213 127.415H789.218Z" fill="url(#paint0_linear_43_2)"/>
<path d="M342.143 5.1123C366.219 3.19299 392.173 2.60258 415.093 13.1377L416.199 13.6592C436.073 23.2533 452.858 43.7932 453.598 66.2139C487.674 35.1572 535.653 20.1613 581.095 26.9443L582.243 27.1201C629.411 34.5487 672.363 65.222 695.257 107.569C703.969 102.562 724.371 93.1912 749.632 98.6553H749.631C769.916 103.039 783.113 114.789 789.401 121.562C825.388 86.8572 880.355 83.6237 916.938 112.41H916.939C954.447 141.92 962.138 196.86 942.598 233.02L942.131 233.87C934.317 247.903 923.472 256.99 914.854 262.636C912.225 269.98 908.045 279.79 901.378 290.373L900.686 291.462C892.772 303.774 866.669 344.973 818.001 351.569H818C784.377 356.124 749.05 343.489 725.535 318.825C691.844 361.658 643.85 395.648 589.6 401.733L588.279 401.876C534.938 407.408 476.771 380.878 452.835 332.222C435.054 369.119 398.813 396.482 358.616 402.653L357.594 402.806C315.063 408.944 270.076 391.065 242.85 357.51C189.067 385.635 122.783 387.933 67.252 363.492L65.918 362.898C49.3969 355.478 33.0887 344.334 21.0645 330.336C10.1239 317.599 2.60557 302.337 1.96582 285.327C-54.9505 297.403 -116.318 286.442 -165.641 255.225V255.224C-178.987 246.779 -192.676 235.859 -199.455 220.344L-199.773 219.602C-208.515 198.728 -202.763 178.036 -191.164 159.788C-179.586 141.573 -161.858 125.219 -145.379 112.407L-142.405 110.106C-127.349 98.534 -109.488 86.2416 -89.1426 87.1963L-88.6084 87.2266C-77.3871 87.9484 -66.8502 94.7597 -60.5117 103.541C-58.0909 106.895 -56.1984 110.674 -55.1299 114.633C-19.4008 61.8022 41.6596 26.9971 105.02 24.6523L106.109 24.6172C129.047 23.9813 154.132 30.0334 173.826 42.085C188.191 50.8752 199.907 63.0229 205.594 78.252C213.859 55.6176 232.492 37.055 253.508 25.9434L254.762 25.2891C281.144 11.7064 311.092 7.69748 339.818 5.30176L342.143 5.1123Z" stroke="black" stroke-width="8" stroke-linejoin="round"/>
</g>
<path d="M890.309 211.621C884.094 224.363 872.141 233.741 858.368 237.031C844.663 240.304 830.087 236.602 819.141 227.828C812.963 222.877 808.117 216.534 805.023 209.243C804.095 207.052 801.11 208.081 800.456 209.838C794.706 225.329 784.81 239.95 770.784 249.032C757.624 257.553 741.353 260.064 726.423 254.892C718.542 252.16 711.465 247.163 706.752 240.229C705.678 238.647 702.559 238.526 702.185 240.825C700.473 251.315 694.894 260.826 686.597 267.472C677.962 274.389 666.679 277.254 655.755 275.9C649.281 275.097 643.098 272.756 637.665 269.167C634.976 267.389 632.469 271.715 635.142 273.481C645.663 280.435 658.882 282.788 671.193 280.156C682.846 277.666 692.984 270.395 699.641 260.584C703.379 255.071 705.931 248.733 707.001 242.153L702.434 242.749C711.906 256.682 728.917 263.366 745.429 262.525C763.315 261.613 779.181 251.66 790.26 237.943C796.747 229.906 801.688 220.832 805.277 211.163C803.753 211.362 802.234 211.562 800.71 211.758C806.66 225.796 819.212 236.61 833.725 241.066C848.647 245.647 865.059 242.611 877.761 233.662C884.889 228.64 890.788 221.994 894.623 214.14C896.026 211.262 891.721 208.726 890.309 211.616V211.621Z" fill="black"/>
<path d="M178.695 295.818C169.095 307.016 157.866 317.81 143.719 322.873C130.425 327.633 114.675 327.254 103.713 317.439C98.4717 312.746 94.6623 306.387 94.0086 299.295C93.7172 296.118 88.717 296.089 89.0126 299.295C90.3282 313.533 101.353 325.226 114.842 329.195C131.096 333.975 148.544 328.345 161.859 318.713C169.486 313.192 176.114 306.491 182.226 299.358C184.307 296.93 180.789 293.378 178.691 295.822L178.695 295.818Z" fill="black"/>
<path d="M99.6072 229.02C88.4703 240.268 76.6797 252.215 61.0463 256.762C53.6939 258.903 45.9833 259.148 38.6684 256.737C32.2152 254.609 26.5156 250.624 21.557 246.052C15.6825 240.638 10.649 234.383 5.80707 228.05C3.87944 225.53 -0.458778 228.016 1.49383 230.573C10.4783 242.329 20.3913 254.651 34.4384 260.468C50.3382 267.056 67.7243 261.797 81.2011 252.232C89.2447 246.522 96.2266 239.543 103.146 232.555C105.411 230.269 101.88 226.734 99.6114 229.02H99.6072Z" fill="black"/>
<path d="M159.588 117.858C151.969 127.381 143.963 137.496 132.589 142.673C127.218 145.117 120.973 146.408 115.103 145.358C109.595 144.376 104.824 141.436 100.839 137.592C96.1846 133.099 92.5709 127.689 89.0487 122.301C87.8246 120.427 84.0901 120.91 84.394 123.563C86.2009 139.337 70.834 150.593 56.5288 151.613C47.5318 152.255 38.618 150.081 30.2331 146.983C21.9272 143.913 13.9252 139.928 6.31465 135.41C-2.20772 130.355 -10.2222 124.516 -17.6579 117.966C-20.0643 115.846 -23.6073 119.369 -21.1926 121.501C-6.77075 134.202 9.84933 144.555 27.835 151.401C44.734 157.835 65.2468 160.208 79.6437 147.07C86.1468 141.132 90.4184 132.499 89.3942 123.567L84.7396 124.829C91.3385 134.931 98.9658 145.987 111.164 149.564C124.208 153.391 137.718 147.262 147.448 138.766C153.339 133.624 158.252 127.481 163.123 121.393C165.113 118.907 161.599 115.347 159.588 117.858Z" fill="black"/>
<defs>
<filter id="filter0_n_43_2" x="-208.007" y="-0.00378418" width="1165" height="408.004" filterUnits="userSpaceOnUse" color-interpolation-filters="sRGB">
<feFlood flood-opacity="0" result="BackgroundImageFix"/>
<feBlend mode="normal" in="SourceGraphic" in2="BackgroundImageFix" result="shape"/>
<feTurbulence type="fractalNoise" baseFrequency="2 2" stitchTiles="stitch" numOctaves="3" result="noise" seed="5697" />
<feColorMatrix in="noise" type="luminanceToAlpha" result="alphaNoise" />
<feComponentTransfer in="alphaNoise" result="coloredNoise1">
<feFuncA type="discrete" tableValues="1 1 1 1 1 1 1 1 1 1 1 1 1 1 1 1 1 1 1 1 1 1 1 1 1 1 1 1 1 1 1 1 1 1 1 1 1 1 1 1 1 1 1 1 1 1 1 1 1 1 1 0 0 0 0 0 0 0 0 0 0 0 0 0 0 0 0 0 0 0 0 0 0 0 0 0 0 0 0 0 0 0 0 0 0 0 0 0 0 0 0 0 0 0 0 0 0 0 0 0 "/>
</feComponentTransfer>
<feComposite operator="in" in2="shape" in="coloredNoise1" result="noise1Clipped" />
<feFlood flood-color="rgba(0, 0, 0, 0.25)" result="color1Flood" />
<feComposite operator="in" in2="noise1Clipped" in="color1Flood" result="color1" />
<feMerge result="effect1_noise_43_2">
<feMergeNode in="shape" />
<feMergeNode in="color1" />
</feMerge>
</filter>
<linearGradient id="paint0_linear_43_2" x1="374.5" y1="8" x2="374.5" y2="400" gradientUnits="userSpaceOnUse">
<stop stop-color="#936551"/>
<stop offset="1" stop-color="#8C6168"/>
</linearGradient>
</defs>
</svg>
