<svg width="186" height="105" viewBox="0 0 186 105" fill="none" xmlns="http://www.w3.org/2000/svg">
<g filter="url(#filter0_g_8_160)">
<path d="M179.251 6.81396H7V97.9601H179.251L136.747 55.7216L179.251 6.81396Z" fill="#E85834"/>
<path d="M179.251 4.49658C180.159 4.49669 180.983 5.02705 181.359 5.85303C181.712 6.62744 181.611 7.5285 181.106 8.20264L181 8.33447L139.918 55.605L180.884 96.3169C181.549 96.9785 181.75 97.9756 181.393 98.8433C181.035 99.7109 180.189 100.278 179.251 100.278H7C5.72033 100.278 4.68282 99.2401 4.68262 97.9604V6.81396L4.69434 6.57666C4.81316 5.40832 5.80031 4.49658 7 4.49658H179.251Z" stroke="black" stroke-width="4.63455" stroke-linejoin="round"/>
</g>
<defs>
<filter id="filter0_g_8_160" x="0.897841" y="0.711836" width="184.455" height="103.35" filterUnits="userSpaceOnUse" color-interpolation-filters="sRGB">
<feFlood flood-opacity="0" result="BackgroundImageFix"/>
<feBlend mode="normal" in="SourceGraphic" in2="BackgroundImageFix" result="shape"/>
<feTurbulence type="fractalNoise" baseFrequency="0.053942691534757614 0.053942691534757614" numOctaves="3" seed="719" />
<feDisplacementMap in="shape" scale="2.9352138042449951" xChannelSelector="R" yChannelSelector="G" result="displacedImage" width="100%" height="100%" />
<feMerge result="effect1_texture_8_160">
<feMergeNode in="displacedImage"/>
</feMerge>
</filter>
</defs>
</svg>
