<svg width="738" height="301" viewBox="0 0 738 301" fill="none" xmlns="http://www.w3.org/2000/svg">
<g filter="url(#filter0_g_65_6011)">
<mask id="path-1-inside-1_65_6011" fill="white">
<path d="M552.927 35.3251C579.354 37.0662 600.963 55.28 609.331 79.8558C618.438 75.7043 628.581 73.6929 639.14 74.3885C644.243 74.7248 649.167 75.6761 653.851 77.1683C661.99 63.2311 676.976 54.3471 693.494 55.4354C717.221 56.9987 735.12 78.5422 733.472 103.554C732.103 124.347 717.656 140.989 699.191 145.115C699.17 145.529 699.149 145.944 699.121 146.359C698.187 160.547 693.166 173.441 685.354 183.855C688.008 187.989 689.411 192.987 689.063 198.276C688.201 211.356 676.96 221.265 663.956 220.408C655.956 219.881 649.153 215.402 645.302 208.988C640.42 209.872 635.368 210.178 630.216 209.839C622.363 209.322 614.936 207.349 608.154 204.188C596.127 242.685 559.158 269.422 517.356 266.668C488.026 264.735 462.959 248.721 448.238 225.608C448.219 226.366 448.186 227.126 448.136 227.889C446.14 258.179 420.109 281.125 389.994 279.142C359.879 277.158 337.083 250.994 339.078 220.704C339.353 216.535 340.083 212.505 341.216 208.66C334.841 211.861 328.044 214.31 320.947 215.902C305.554 237.589 279.692 251.01 251.324 249.141C233.503 247.967 217.455 240.941 204.906 230.05C190.135 241.644 171.24 248.039 151.08 246.71C115.004 244.333 86.1871 217.976 78.9754 184.103C73.3582 185.533 67.4269 186.116 61.3342 185.715C30.0783 183.656 6.41932 156.501 8.4902 125.064C9.93986 103.059 23.6109 84.7885 42.4028 76.5114C42.4153 76.1939 42.4329 75.8757 42.4539 75.5567C43.7389 56.0518 60.5007 41.2755 79.893 42.5529C84.9692 42.8873 89.7218 44.2901 93.9503 46.5266C102.807 36.1387 116.248 29.9253 130.864 30.8882C144.354 31.777 156.049 38.5963 163.603 48.653C171.902 26.6361 193.752 11.6624 218.32 13.2809C239.687 14.6886 257.369 28.2687 265.126 46.8582C277.989 41.027 292.418 38.1932 307.474 39.1851C329.964 40.6668 349.948 50.4284 364.682 65.3207C369.882 60.0752 375.716 55.4815 382.049 51.6624C381.933 50.4144 381.913 49.1409 381.998 47.85C382.86 34.7702 394.101 24.8615 407.105 25.7182C415.842 26.2939 423.151 31.5826 426.747 38.958C429.015 38.9338 431.302 38.9967 433.603 39.1483C457.423 40.7177 478.431 51.5748 493.369 67.9785C505.55 47.0426 528.084 33.6884 552.927 35.3251Z"/>
</mask>
<path d="M552.927 35.3251C579.354 37.0662 600.963 55.28 609.331 79.8558C618.438 75.7043 628.581 73.6929 639.14 74.3885C644.243 74.7248 649.167 75.6761 653.851 77.1683C661.99 63.2311 676.976 54.3471 693.494 55.4354C717.221 56.9987 735.12 78.5422 733.472 103.554C732.103 124.347 717.656 140.989 699.191 145.115C699.17 145.529 699.149 145.944 699.121 146.359C698.187 160.547 693.166 173.441 685.354 183.855C688.008 187.989 689.411 192.987 689.063 198.276C688.201 211.356 676.96 221.265 663.956 220.408C655.956 219.881 649.153 215.402 645.302 208.988C640.42 209.872 635.368 210.178 630.216 209.839C622.363 209.322 614.936 207.349 608.154 204.188C596.127 242.685 559.158 269.422 517.356 266.668C488.026 264.735 462.959 248.721 448.238 225.608C448.219 226.366 448.186 227.126 448.136 227.889C446.14 258.179 420.109 281.125 389.994 279.142C359.879 277.158 337.083 250.994 339.078 220.704C339.353 216.535 340.083 212.505 341.216 208.66C334.841 211.861 328.044 214.31 320.947 215.902C305.554 237.589 279.692 251.01 251.324 249.141C233.503 247.967 217.455 240.941 204.906 230.05C190.135 241.644 171.24 248.039 151.08 246.71C115.004 244.333 86.1871 217.976 78.9754 184.103C73.3582 185.533 67.4269 186.116 61.3342 185.715C30.0783 183.656 6.41932 156.501 8.4902 125.064C9.93986 103.059 23.6109 84.7885 42.4028 76.5114C42.4153 76.1939 42.4329 75.8757 42.4539 75.5567C43.7389 56.0518 60.5007 41.2755 79.893 42.5529C84.9692 42.8873 89.7218 44.2901 93.9503 46.5266C102.807 36.1387 116.248 29.9253 130.864 30.8882C144.354 31.777 156.049 38.5963 163.603 48.653C171.902 26.6361 193.752 11.6624 218.32 13.2809C239.687 14.6886 257.369 28.2687 265.126 46.8582C277.989 41.027 292.418 38.1932 307.474 39.1851C329.964 40.6668 349.948 50.4284 364.682 65.3207C369.882 60.0752 375.716 55.4815 382.049 51.6624C381.933 50.4144 381.913 49.1409 381.998 47.85C382.86 34.7702 394.101 24.8615 407.105 25.7182C415.842 26.2939 423.151 31.5826 426.747 38.958C429.015 38.9338 431.302 38.9967 433.603 39.1483C457.423 40.7177 478.431 51.5748 493.369 67.9785C505.55 47.0426 528.084 33.6884 552.927 35.3251Z" fill="url(#paint0_radial_65_6011)"/>
<path d="M552.927 35.3251L553.453 27.3424L552.927 35.3251ZM609.331 79.8558L601.758 82.4343C602.486 84.5738 604.086 86.3053 606.161 87.2009C608.236 88.0965 610.593 88.0726 612.649 87.1352L609.331 79.8558ZM639.14 74.3885L639.666 66.4058L639.14 74.3885ZM653.851 77.1683L651.423 84.7908C654.991 85.9277 658.871 84.4367 660.759 81.2025L653.851 77.1683ZM693.494 55.4354L694.02 47.4527L694.02 47.4527L693.494 55.4354ZM733.472 103.554L741.455 104.08L741.455 104.08L733.472 103.554ZM699.191 145.115L697.446 137.308C693.932 138.093 691.375 141.129 691.2 144.726L699.191 145.115ZM699.121 146.359L707.104 146.885L707.104 146.885L699.121 146.359ZM685.354 183.855L678.955 179.054C676.949 181.727 676.817 185.365 678.622 188.177L685.354 183.855ZM689.063 198.276L697.045 198.802L697.045 198.802L689.063 198.276ZM663.956 220.408L663.43 228.391L663.956 220.408ZM645.302 208.988L652.16 204.87C650.448 202.018 647.15 200.523 643.877 201.116L645.302 208.988ZM630.216 209.839L629.69 217.822L630.216 209.839ZM608.154 204.188L611.534 196.937C609.443 195.962 607.033 195.938 604.922 196.87C602.812 197.802 601.206 199.6 600.518 201.802L608.154 204.188ZM517.356 266.668L516.83 274.65L516.83 274.65L517.356 266.668ZM448.238 225.608L454.986 221.311C453.095 218.343 449.487 216.959 446.097 217.9C442.706 218.842 440.329 221.889 440.241 225.407L448.238 225.608ZM448.136 227.889L456.118 228.415L456.118 228.415L448.136 227.889ZM389.994 279.142L389.468 287.124L389.468 287.124L389.994 279.142ZM339.078 220.704L331.096 220.178L331.096 220.178L339.078 220.704ZM341.216 208.66L348.89 210.922C349.791 207.865 348.792 204.565 346.346 202.522C343.901 200.478 340.476 200.081 337.628 201.511L341.216 208.66ZM320.947 215.902L319.196 208.096C317.268 208.529 315.568 209.66 314.424 211.272L320.947 215.902ZM251.324 249.141L250.798 257.124L250.798 257.124L251.324 249.141ZM204.906 230.05L210.15 224.008C207.254 221.495 202.983 221.389 199.967 223.757L204.906 230.05ZM151.08 246.71L150.554 254.693L150.554 254.693L151.08 246.71ZM78.9754 184.103L86.8 182.438C86.3468 180.309 85.0458 178.457 83.197 177.308C81.3482 176.159 79.1113 175.814 77.002 176.351L78.9754 184.103ZM61.3342 185.715L60.8083 193.698L60.8083 193.698L61.3342 185.715ZM8.4902 125.064L0.507506 124.538L0.507502 124.538L8.4902 125.064ZM42.4028 76.5114L45.6275 83.8327C48.4252 82.6004 50.2761 79.8814 50.3966 76.8267L42.4028 76.5114ZM42.4539 75.5567L34.4712 75.0308L34.4712 75.0308L42.4539 75.5567ZM79.893 42.5529L80.4189 34.5702L80.4188 34.5702L79.893 42.5529ZM93.9503 46.5266L90.2099 53.5984C93.5222 55.3503 97.6067 54.5684 100.038 51.7171L93.9503 46.5266ZM130.864 30.8882L131.39 22.9055L131.39 22.9055L130.864 30.8882ZM163.603 48.653L157.206 53.4576C158.959 55.7915 161.844 56.9853 164.734 56.5726C167.624 56.1599 170.059 54.2061 171.089 51.4748L163.603 48.653ZM218.32 13.2809L218.846 5.29821L218.846 5.29821L218.32 13.2809ZM265.126 46.8582L257.743 49.9391C258.576 51.936 260.183 53.5101 262.196 54.3025C264.21 55.0949 266.458 55.0379 268.429 54.1445L265.126 46.8582ZM307.474 39.1851L308 31.2024L307.474 39.1851ZM364.682 65.3207L358.995 70.9474C360.497 72.4652 362.543 73.3197 364.678 73.3207C366.813 73.3218 368.86 72.4693 370.364 70.9529L364.682 65.3207ZM382.049 51.6624L386.181 58.513C388.81 56.9275 390.3 53.9772 390.015 50.9202L382.049 51.6624ZM381.998 47.85L374.015 47.324L374.015 47.3241L381.998 47.85ZM407.105 25.7182L407.631 17.7355L407.631 17.7355L407.105 25.7182ZM426.747 38.958L419.556 42.4636C420.91 45.2411 423.742 46.9904 426.832 46.9575L426.747 38.958ZM433.603 39.1483L434.129 31.1656L434.129 31.1656L433.603 39.1483ZM493.369 67.9785L487.454 73.3649C489.17 75.249 491.68 76.2029 494.214 75.9337C496.748 75.6645 499.002 74.2042 500.284 72.0018L493.369 67.9785ZM552.927 35.3251L552.402 43.3078C575.312 44.8172 594.335 60.6322 601.758 82.4343L609.331 79.8558L616.904 77.2773C607.592 49.9277 583.396 29.3151 553.453 27.3424L552.927 35.3251ZM609.331 79.8558L612.649 87.1352C620.594 83.5135 629.419 81.7655 638.614 82.3712L639.14 74.3885L639.666 66.4058C627.742 65.6203 616.282 67.8951 606.013 72.5765L609.331 79.8558ZM639.14 74.3885L638.614 82.3712C643.064 82.6644 647.349 83.493 651.423 84.7908L653.851 77.1683L656.28 69.5458C650.986 67.8591 645.423 66.7851 639.666 66.4058L639.14 74.3885ZM653.851 77.1683L660.759 81.2025C667.515 69.6351 679.754 62.5475 692.969 63.4181L693.494 55.4354L694.02 47.4527C674.198 46.1468 656.466 56.8272 646.943 73.134L653.851 77.1683ZM693.494 55.4354L692.969 63.4181C711.895 64.6651 726.873 82.0231 725.49 103.028L733.472 103.554L741.455 104.08C743.367 75.0614 722.548 49.3323 694.02 47.4527L693.494 55.4354ZM733.472 103.554L725.49 103.028C724.343 120.43 712.3 133.988 697.446 137.308L699.191 145.115L700.935 152.923C723.012 147.989 739.862 128.263 741.455 104.08L733.472 103.554ZM699.191 145.115L691.2 144.726C691.181 145.124 691.161 145.486 691.139 145.833L699.121 146.359L707.104 146.885C707.136 146.402 707.16 145.934 707.181 145.504L699.191 145.115ZM699.121 146.359L691.139 145.833C690.307 158.448 685.85 169.862 678.955 179.054L685.354 183.855L691.754 188.655C700.482 177.02 706.066 162.645 707.104 146.885L699.121 146.359ZM685.354 183.855L678.622 188.177C680.381 190.917 681.312 194.223 681.08 197.75L689.063 198.276L697.045 198.802C697.51 191.75 695.635 185.061 692.086 179.533L685.354 183.855ZM689.063 198.276L681.08 197.75C680.506 206.465 673.034 212.989 664.482 212.425L663.956 220.408L663.43 228.391C680.886 229.541 695.896 216.247 697.045 198.802L689.063 198.276ZM663.956 220.408L664.482 212.425C659.222 212.079 654.726 209.143 652.16 204.87L645.302 208.988L638.443 213.106C643.58 221.66 652.69 227.683 663.43 228.391L663.956 220.408ZM645.302 208.988L643.877 201.116C639.631 201.885 635.233 202.152 630.742 201.856L630.216 209.839L629.69 217.822C635.503 218.205 641.21 217.859 646.727 216.86L645.302 208.988ZM630.216 209.839L630.742 201.856C623.899 201.406 617.437 199.689 611.534 196.937L608.154 204.188L604.774 211.439C612.434 215.01 620.827 217.238 629.69 217.822L630.216 209.839ZM608.154 204.188L600.518 201.802C589.558 236.883 555.883 261.189 517.882 258.685L517.356 266.668L516.83 274.65C562.432 277.655 602.696 248.487 615.79 206.574L608.154 204.188ZM517.356 266.668L517.882 258.685C491.213 256.928 468.403 242.377 454.986 221.311L448.238 225.608L441.49 229.906C457.515 255.065 484.838 272.543 516.83 274.65L517.356 266.668ZM448.238 225.608L440.241 225.407C440.224 226.068 440.195 226.719 440.153 227.363L448.136 227.889L456.118 228.415C456.177 227.533 456.214 226.664 456.235 225.81L448.238 225.608ZM448.136 227.889L440.153 227.363C438.445 253.288 416.183 272.849 390.52 271.159L389.994 279.142L389.468 287.124C424.036 289.401 453.835 263.07 456.118 228.415L448.136 227.889ZM389.994 279.142L390.52 271.159C364.857 269.468 345.353 247.155 347.061 221.23L339.078 220.704L331.096 220.178C328.812 254.834 354.901 284.847 389.468 287.124L389.994 279.142ZM339.078 220.704L347.061 221.23C347.297 217.653 347.922 214.206 348.89 210.922L341.216 208.66L333.543 206.399C332.244 210.805 331.409 215.417 331.096 220.178L339.078 220.704ZM341.216 208.66L337.628 201.511C331.826 204.422 325.646 206.649 319.196 208.096L320.947 215.902L322.699 223.708C330.442 221.971 337.855 219.299 344.805 215.81L341.216 208.66ZM320.947 215.902L314.424 211.272C300.562 230.8 277.316 242.836 251.85 241.159L251.324 249.141L250.798 257.124C282.067 259.184 310.545 244.378 327.471 220.533L320.947 215.902ZM251.324 249.141L251.85 241.159C235.835 240.104 221.429 233.798 210.15 224.008L204.906 230.05L199.662 236.091C213.481 248.085 231.172 255.831 250.798 257.124L251.324 249.141ZM204.906 230.05L199.967 223.757C186.681 234.184 169.717 239.921 151.606 238.728L151.08 246.71L150.554 254.693C172.763 256.156 193.588 249.103 209.845 236.343L204.906 230.05ZM151.08 246.71L151.606 238.728C119.223 236.594 93.2918 212.929 86.8 182.438L78.9754 184.103L71.1508 185.769C79.0825 223.024 110.785 252.073 150.554 254.693L151.08 246.71ZM78.9754 184.103L77.002 176.351C72.1892 177.576 67.101 178.077 61.8601 177.732L61.3342 185.715L60.8083 193.698C67.7527 194.155 74.5273 193.491 80.9487 191.856L78.9754 184.103ZM61.3342 185.715L61.8601 177.732C35.0565 175.966 14.6896 152.662 16.4729 125.59L8.4902 125.064L0.507502 124.538C-1.85092 160.34 25.1002 191.345 60.8083 193.698L61.3342 185.715ZM8.4902 125.064L16.4729 125.59C17.7201 106.658 29.4726 90.9483 45.6275 83.8327L42.4028 76.5114L39.178 69.1901C17.7492 78.6287 2.15962 99.4606 0.507506 124.538L8.4902 125.064ZM42.4028 76.5114L50.3966 76.8267C50.4058 76.5933 50.4192 76.3468 50.4366 76.0825L42.4539 75.5567L34.4712 75.0308C34.4466 75.4045 34.4248 75.7945 34.409 76.1962L42.4028 76.5114ZM42.4539 75.5567L50.4366 76.0826C51.434 60.9426 64.4272 49.5515 79.3671 50.5356L79.893 42.5529L80.4188 34.5702C56.5742 32.9995 36.0438 51.1609 34.4712 75.0308L42.4539 75.5567ZM79.893 42.5529L79.3671 50.5356C83.2952 50.7944 86.9549 51.8767 90.2099 53.5984L93.9503 46.5266L97.6906 39.4549C92.4886 36.7034 86.6432 34.9803 80.4189 34.5702L79.893 42.5529ZM93.9503 46.5266L100.038 51.7171C107.333 43.1611 118.361 38.0818 130.338 38.8708L130.864 30.8882L131.39 22.9055C114.135 21.7687 98.2818 29.1163 87.8627 41.3361L93.9503 46.5266ZM130.864 30.8882L130.338 38.8708C141.395 39.5994 150.987 45.1782 157.206 53.4576L163.603 48.653L169.999 43.8484C161.111 32.0144 147.313 23.9547 131.39 22.9055L130.864 30.8882ZM163.603 48.653L171.089 51.4748C178.189 32.6373 196.865 19.8848 217.794 21.2636L218.32 13.2809L218.846 5.29821C190.638 3.43994 165.615 20.6349 156.117 45.8312L163.603 48.653ZM218.32 13.2809L217.794 21.2636C235.996 22.4628 251.103 34.0269 257.743 49.9391L265.126 46.8582L272.509 43.7774C263.634 22.5105 243.378 6.91438 218.846 5.29821L218.32 13.2809ZM265.126 46.8582L268.429 54.1445C280.123 48.843 293.24 46.2647 306.948 47.1678L307.474 39.1851L308 31.2024C291.596 30.1217 275.854 33.211 261.823 39.572L265.126 46.8582ZM307.474 39.1851L306.948 47.1678C327.409 48.5157 345.578 57.3869 358.995 70.9474L364.682 65.3207L370.369 59.6941C354.317 43.4699 332.52 32.8178 308 31.2024L307.474 39.1851ZM364.682 65.3207L370.364 70.9529C375.102 66.1732 380.416 61.9894 386.181 58.513L382.049 51.6624L377.918 44.8117C371.017 48.9735 364.663 53.9773 359.001 59.6885L364.682 65.3207ZM382.049 51.6624L390.015 50.9202C389.937 50.089 389.924 49.2395 389.981 48.3759L381.998 47.85L374.015 47.3241C373.902 49.0424 373.929 50.7399 374.084 52.4045L382.049 51.6624ZM381.998 47.85L389.981 48.3759C390.555 39.6613 398.027 33.1375 406.579 33.7009L407.105 25.7182L407.631 17.7355C390.174 16.5855 375.165 29.8791 374.015 47.324L381.998 47.85ZM407.105 25.7182L406.579 33.7009C412.32 34.0792 417.159 37.5476 419.556 42.4636L426.747 38.958L433.938 35.4523C429.143 25.6176 419.363 18.5086 407.631 17.7355L407.105 25.7182ZM426.747 38.958L426.832 46.9575C428.895 46.9355 430.978 46.9928 433.077 47.131L433.603 39.1483L434.129 31.1656C431.626 31.0007 429.135 30.9321 426.662 30.9584L426.747 38.958ZM433.603 39.1483L433.077 47.131C454.744 48.5586 473.848 58.4245 487.454 73.3649L493.369 67.9785L499.284 62.592C483.013 44.725 460.101 32.8768 434.129 31.1656L433.603 39.1483ZM493.369 67.9785L500.284 72.0018C511.078 53.4505 530.857 41.8884 552.402 43.3078L552.927 35.3251L553.453 27.3424C525.311 25.4883 500.023 40.6346 486.454 63.9552L493.369 67.9785Z" fill="black" mask="url(#path-1-inside-1_65_6011)"/>
</g>
<g filter="url(#filter1_g_65_6011)">
<path d="M151.932 202.309C151.412 210.203 186.761 226.012 205.084 199.269" stroke="black" stroke-width="6" stroke-linecap="round" stroke-linejoin="round"/>
</g>
<g filter="url(#filter2_g_65_6011)">
<path d="M476.309 208.146C474.284 218.849 519.957 246.408 549.446 212.941" stroke="black" stroke-width="6" stroke-linecap="round" stroke-linejoin="round"/>
</g>
<g filter="url(#filter3_g_65_6011)">
<path d="M534.316 201.069C533.921 207.072 560.801 219.094 574.734 198.757" stroke="black" stroke-width="6" stroke-linecap="round" stroke-linejoin="round"/>
</g>
<defs>
<filter id="filter0_g_65_6011" x="4.36401" y="9.16138" width="733.214" height="274.1" filterUnits="userSpaceOnUse" color-interpolation-filters="sRGB">
<feFlood flood-opacity="0" result="BackgroundImageFix"/>
<feBlend mode="normal" in="SourceGraphic" in2="BackgroundImageFix" result="shape"/>
<feTurbulence type="fractalNoise" baseFrequency="0.011904762126505375 0.011904762126505375" numOctaves="3" seed="9687" />
<feDisplacementMap in="shape" scale="8" xChannelSelector="R" yChannelSelector="G" result="displacedImage" width="100%" height="100%" />
<feMerge result="effect1_texture_65_6011">
<feMergeNode in="displacedImage"/>
</feMerge>
</filter>
<filter id="filter1_g_65_6011" x="144.927" y="192.267" width="67.155" height="28.9187" filterUnits="userSpaceOnUse" color-interpolation-filters="sRGB">
<feFlood flood-opacity="0" result="BackgroundImageFix"/>
<feBlend mode="normal" in="SourceGraphic" in2="BackgroundImageFix" result="shape"/>
<feTurbulence type="fractalNoise" baseFrequency="0.011904762126505375 0.011904762126505375" numOctaves="3" seed="1807" />
<feDisplacementMap in="shape" scale="8" xChannelSelector="R" yChannelSelector="G" result="displacedImage" width="100%" height="100%" />
<feMerge result="effect1_texture_65_6011">
<feMergeNode in="displacedImage"/>
</feMerge>
</filter>
<filter id="filter2_g_65_6011" x="469.243" y="201.146" width="87.203" height="34.8464" filterUnits="userSpaceOnUse" color-interpolation-filters="sRGB">
<feFlood flood-opacity="0" result="BackgroundImageFix"/>
<feBlend mode="normal" in="SourceGraphic" in2="BackgroundImageFix" result="shape"/>
<feTurbulence type="fractalNoise" baseFrequency="0.011904762126505375 0.011904762126505375" numOctaves="3" seed="1807" />
<feDisplacementMap in="shape" scale="8" xChannelSelector="R" yChannelSelector="G" result="displacedImage" width="100%" height="100%" />
<feMerge result="effect1_texture_65_6011">
<feMergeNode in="displacedImage"/>
</feMerge>
</filter>
<filter id="filter3_g_65_6011" x="527.313" y="191.756" width="54.4192" height="25.3447" filterUnits="userSpaceOnUse" color-interpolation-filters="sRGB">
<feFlood flood-opacity="0" result="BackgroundImageFix"/>
<feBlend mode="normal" in="SourceGraphic" in2="BackgroundImageFix" result="shape"/>
<feTurbulence type="fractalNoise" baseFrequency="0.011904762126505375 0.011904762126505375" numOctaves="3" seed="1807" />
<feDisplacementMap in="shape" scale="8" xChannelSelector="R" yChannelSelector="G" result="displacedImage" width="100%" height="100%" />
<feMerge result="effect1_texture_65_6011">
<feMergeNode in="displacedImage"/>
</feMerge>
</filter>
<radialGradient id="paint0_radial_65_6011" cx="0" cy="0" r="1" gradientUnits="userSpaceOnUse" gradientTransform="translate(368.6 150.457) rotate(93.7692) scale(127 361)">
<stop stop-color="#A7725B"/>
<stop offset="1" stop-color="#824852"/>
</radialGradient>
</defs>
</svg>
