<svg width="897" height="392" viewBox="0 0 897 392" fill="none" xmlns="http://www.w3.org/2000/svg">
<g filter="url(#filter0_g_65_5731)">
<mask id="path-1-inside-1_65_5731" fill="white">
<path d="M664.962 340.317C696.693 339.304 723.323 318.509 734.347 289.618C745.089 294.92 757.158 297.718 769.837 297.314C775.964 297.118 781.9 296.184 787.571 294.597C796.755 311.498 814.352 322.662 834.186 322.029C862.676 321.12 884.995 296.217 884.037 266.406C883.241 241.625 866.61 221.254 844.655 215.608C844.648 215.115 844.638 214.621 844.622 214.127C844.079 197.217 838.589 181.682 829.652 168.985C833 164.175 834.884 158.288 834.681 151.984C834.18 136.395 821.116 124.162 805.502 124.66C795.896 124.966 787.564 130.02 782.689 137.493C776.877 136.247 770.836 135.68 764.65 135.877C755.221 136.178 746.242 138.227 737.989 141.715C725.144 95.4522 681.94 62.177 631.748 63.7782C596.529 64.9018 565.847 82.9437 547.272 109.84C547.279 108.938 547.27 108.033 547.241 107.123C546.081 71.0219 515.827 42.6916 479.666 43.8454C443.506 44.9993 415.133 75.2 416.293 111.301C416.453 116.27 417.164 121.091 418.365 125.709C410.857 121.648 402.813 118.463 394.376 116.286C376.815 89.8789 346.376 72.8833 312.313 73.9699C290.916 74.6526 271.404 82.3657 255.927 94.8157C238.701 80.4362 216.324 72.0759 192.117 72.8482C148.799 74.2303 113.205 104.42 103.188 144.413C96.5164 142.488 89.4339 141.558 82.1182 141.791C44.5881 142.989 15.1394 174.334 16.3433 211.803C17.186 238.028 32.8229 260.301 55.0001 270.897C55.0022 271.275 55.0088 271.655 55.0211 272.036C55.768 295.283 75.2505 313.527 98.5356 312.784C104.631 312.589 110.381 311.11 115.538 308.62C125.727 321.328 141.576 329.255 159.126 328.695C175.324 328.179 189.613 320.538 199.071 308.88C208.12 335.395 233.688 354.077 263.188 353.135C288.844 352.317 310.58 336.875 320.629 315.079C335.802 322.529 352.974 326.476 371.052 325.9C398.057 325.038 422.395 314.229 440.653 297.109C446.67 303.555 453.473 309.251 460.905 314.046C460.714 315.526 460.639 317.04 460.689 318.579C461.19 334.168 474.254 346.401 489.868 345.903C500.359 345.568 509.332 339.572 513.939 330.944C516.656 331.064 519.397 331.081 522.159 330.993C550.761 330.08 576.372 318.01 594.935 299.1C608.678 324.485 635.131 341.268 664.962 340.317Z"/>
</mask>
<path d="M664.962 340.317C696.693 339.304 723.323 318.509 734.347 289.618C745.089 294.92 757.158 297.718 769.837 297.314C775.964 297.118 781.9 296.184 787.571 294.597C796.755 311.498 814.352 322.662 834.186 322.029C862.676 321.12 884.995 296.217 884.037 266.406C883.241 241.625 866.61 221.254 844.655 215.608C844.648 215.115 844.638 214.621 844.622 214.127C844.079 197.217 838.589 181.682 829.652 168.985C833 164.175 834.884 158.288 834.681 151.984C834.18 136.395 821.116 124.162 805.502 124.66C795.896 124.966 787.564 130.02 782.689 137.493C776.877 136.247 770.836 135.68 764.65 135.877C755.221 136.178 746.242 138.227 737.989 141.715C725.144 95.4522 681.94 62.177 631.748 63.7782C596.529 64.9018 565.847 82.9437 547.272 109.84C547.279 108.938 547.27 108.033 547.241 107.123C546.081 71.0219 515.827 42.6916 479.666 43.8454C443.506 44.9993 415.133 75.2 416.293 111.301C416.453 116.27 417.164 121.091 418.365 125.709C410.857 121.648 402.813 118.463 394.376 116.286C376.815 89.8789 346.376 72.8833 312.313 73.9699C290.916 74.6526 271.404 82.3657 255.927 94.8157C238.701 80.4362 216.324 72.0759 192.117 72.8482C148.799 74.2303 113.205 104.42 103.188 144.413C96.5164 142.488 89.4339 141.558 82.1182 141.791C44.5881 142.989 15.1394 174.334 16.3433 211.803C17.186 238.028 32.8229 260.301 55.0001 270.897C55.0022 271.275 55.0088 271.655 55.0211 272.036C55.768 295.283 75.2505 313.527 98.5356 312.784C104.631 312.589 110.381 311.11 115.538 308.62C125.727 321.328 141.576 329.255 159.126 328.695C175.324 328.179 189.613 320.538 199.071 308.88C208.12 335.395 233.688 354.077 263.188 353.135C288.844 352.317 310.58 336.875 320.629 315.079C335.802 322.529 352.974 326.476 371.052 325.9C398.057 325.038 422.395 314.229 440.653 297.109C446.67 303.555 453.473 309.251 460.905 314.046C460.714 315.526 460.639 317.04 460.689 318.579C461.19 334.168 474.254 346.401 489.868 345.903C500.359 345.568 509.332 339.572 513.939 330.944C516.656 331.064 519.397 331.081 522.159 330.993C550.761 330.08 576.372 318.01 594.935 299.1C608.678 324.485 635.131 341.268 664.962 340.317Z" fill="url(#paint0_radial_65_5731)"/>
<path d="M664.962 340.317L665.219 348.313L664.962 340.317ZM734.347 289.618L726.873 286.765C727.675 284.661 729.328 282.993 731.424 282.171C733.521 281.348 735.867 281.448 737.886 282.445L734.347 289.618ZM769.837 297.314L770.094 305.31L770.094 305.31L769.837 297.314ZM787.571 294.597L785.414 286.893C789.007 285.888 792.818 287.5 794.6 290.779L787.571 294.597ZM834.186 322.029L834.443 330.025L834.443 330.025L834.186 322.029ZM884.037 266.406L892.033 266.151L892.033 266.151L884.037 266.406ZM844.655 215.608L842.664 223.356C839.171 222.457 836.71 219.332 836.656 215.725L844.655 215.608ZM844.622 214.127L852.618 213.872L852.618 213.872L844.622 214.127ZM829.652 168.985L823.111 173.588C821.175 170.838 821.165 167.173 823.086 164.414L829.652 168.985ZM834.681 151.984L842.677 151.729L842.677 151.729L834.681 151.984ZM805.502 124.66L805.245 116.664L805.245 116.664L805.502 124.66ZM782.689 137.493L789.39 141.865C787.581 144.638 784.251 146.01 781.013 145.316L782.689 137.493ZM764.65 135.877L764.394 127.882L764.394 127.882L764.65 135.877ZM737.989 141.715L741.105 149.084C738.985 149.98 736.582 149.919 734.51 148.918C732.437 147.917 730.896 146.071 730.281 143.854L737.989 141.715ZM631.748 63.7782L631.491 55.7823L631.491 55.7823L631.748 63.7782ZM547.272 109.84L553.855 114.387C551.858 117.279 548.208 118.528 544.857 117.467C541.507 116.405 539.241 113.282 539.272 109.768L547.272 109.84ZM547.241 107.123L555.237 106.868L555.237 106.868L547.241 107.123ZM479.666 43.8454L479.409 35.8495L479.409 35.8495L479.666 43.8454ZM416.293 111.301L408.297 111.556L408.297 111.556L416.293 111.301ZM418.365 125.709L426.107 123.696C426.909 126.778 425.807 130.042 423.301 132.006C420.795 133.97 417.362 134.261 414.56 132.746L418.365 125.709ZM394.376 116.286L392.379 124.032C390.468 123.539 388.808 122.357 387.715 120.715L394.376 116.286ZM312.313 73.9699L312.056 65.974L312.056 65.974L312.313 73.9699ZM255.927 94.8157L260.942 101.05C257.972 103.439 253.728 103.4 250.801 100.957L255.927 94.8157ZM192.117 72.8482L191.86 64.8523L192.117 72.8482ZM103.188 144.413L110.948 146.358C110.421 148.464 109.06 150.264 107.179 151.347C105.298 152.43 103.057 152.701 100.971 152.099L103.188 144.413ZM82.1182 141.791L81.8613 133.796L81.8614 133.796L82.1182 141.791ZM16.3433 211.803L8.34732 212.058L8.34732 212.058L16.3433 211.803ZM55.0001 270.897L58.4476 263.678C61.2148 265.001 62.9831 267.788 63 270.854L55.0001 270.897ZM55.0211 272.036L47.0251 272.291L47.0251 272.291L55.0211 272.036ZM98.5356 312.784L98.7925 320.779L98.7925 320.779L98.5356 312.784ZM115.538 308.62L112.057 301.416C115.414 299.795 119.446 300.708 121.779 303.617L115.538 308.62ZM159.126 328.695L159.383 336.691L159.383 336.691L159.126 328.695ZM199.071 308.88L192.859 303.839C194.692 301.579 197.609 300.493 200.475 301.005C203.34 301.516 205.703 303.543 206.643 306.298L199.071 308.88ZM263.188 353.135L263.445 361.131L263.445 361.131L263.188 353.135ZM320.629 315.079L313.364 311.729C314.266 309.771 315.92 308.261 317.951 307.54C319.982 306.819 322.219 306.948 324.154 307.898L320.629 315.079ZM371.052 325.9L371.309 333.896L371.052 325.9ZM440.653 297.109L435.18 291.273C436.73 289.819 438.795 289.042 440.918 289.113C443.042 289.184 445.051 290.097 446.501 291.651L440.653 297.109ZM460.905 314.046L465.241 307.324C467.832 308.996 469.232 312.009 468.839 315.067L460.905 314.046ZM460.689 318.579L452.693 318.834L452.693 318.834L460.689 318.579ZM489.868 345.903L490.125 353.899L490.125 353.899L489.868 345.903ZM513.939 330.944L506.882 327.175C508.333 324.459 511.213 322.817 514.289 322.952L513.939 330.944ZM522.159 330.993L522.416 338.989L522.416 338.989L522.159 330.993ZM594.935 299.1L589.226 293.495C591.004 291.684 593.537 290.824 596.051 291.179C598.565 291.533 600.761 293.06 601.97 295.293L594.935 299.1ZM664.962 340.317L664.705 332.321C692.95 331.42 716.901 312.899 726.873 286.765L734.347 289.618L741.822 292.472C729.746 324.12 700.437 347.189 665.219 348.313L664.962 340.317ZM734.347 289.618L737.886 282.445C747.488 287.183 758.258 289.679 769.58 289.318L769.837 297.314L770.094 305.31C756.059 305.757 742.69 302.656 730.808 296.792L734.347 289.618ZM769.837 297.314L769.58 289.318C775.057 289.143 780.355 288.308 785.414 286.893L787.571 294.597L789.727 302.302C783.445 304.059 776.871 305.093 770.094 305.31L769.837 297.314ZM787.571 294.597L794.6 290.779C802.465 305.253 817.371 314.561 833.93 314.033L834.186 322.029L834.443 330.025C811.332 330.762 791.045 317.743 780.542 298.416L787.571 294.597ZM834.186 322.029L833.929 314.033C857.665 313.276 876.868 292.401 876.041 266.661L884.037 266.406L892.033 266.151C893.122 300.032 867.687 328.964 834.443 330.025L834.186 322.029ZM884.037 266.406L876.041 266.661C875.356 245.316 861.062 228.087 842.664 223.356L844.655 215.608L846.646 207.86C872.159 214.421 891.127 237.934 892.033 266.151L884.037 266.406ZM844.655 215.608L836.656 215.725C836.649 215.256 836.64 214.812 836.626 214.382L844.622 214.127L852.618 213.872C852.636 214.43 852.647 214.975 852.654 215.491L844.655 215.608ZM844.622 214.127L836.626 214.382C836.134 199.06 831.165 185.031 823.111 173.588L829.652 168.985L836.194 164.381C846.013 178.332 852.024 195.374 852.618 213.872L844.622 214.127ZM829.652 168.985L823.086 164.414C825.485 160.967 826.831 156.762 826.685 152.239L834.681 151.984L842.677 151.729C842.937 159.814 840.515 167.383 836.219 173.555L829.652 168.985ZM834.681 151.984L826.685 152.24C826.327 141.079 816.969 132.298 805.758 132.656L805.502 124.66L805.245 116.664C825.263 116.026 842.034 131.712 842.677 151.729L834.681 151.984ZM805.502 124.66L805.759 132.656C798.871 132.875 792.897 136.488 789.39 141.865L782.689 137.493L775.988 133.122C782.23 123.552 792.921 117.057 805.245 116.664L805.502 124.66ZM782.689 137.493L781.013 145.316C775.828 144.204 770.437 143.697 764.907 143.873L764.65 135.877L764.394 127.882C771.236 127.663 777.925 128.29 784.365 129.671L782.689 137.493ZM764.65 135.877L764.907 143.873C756.482 144.142 748.471 145.971 741.105 149.084L737.989 141.715L734.873 134.346C744.013 130.483 753.96 128.214 764.394 127.882L764.65 135.877ZM737.989 141.715L730.281 143.854C718.402 101.071 678.432 70.2929 632.005 71.774L631.748 63.7782L631.491 55.7823C685.448 54.061 731.886 89.833 745.698 139.576L737.989 141.715ZM631.748 63.7782L632.005 71.774C599.427 72.8135 571.048 89.4914 553.855 114.387L547.272 109.84L540.688 105.293C560.646 76.396 593.631 56.9902 631.491 55.7823L631.748 63.7782ZM547.272 109.84L539.272 109.768C539.279 108.969 539.27 108.172 539.245 107.378L547.241 107.123L555.237 106.868C555.27 107.893 555.28 108.908 555.271 109.912L547.272 109.84ZM547.241 107.123L539.245 107.378C538.227 75.7054 511.68 50.828 479.923 51.8412L479.666 43.8454L479.409 35.8495C519.973 34.5553 553.935 66.3384 555.237 106.868L547.241 107.123ZM479.666 43.8454L479.923 51.8412C448.167 52.8547 423.271 79.3732 424.289 111.046L416.293 111.301L408.297 111.556C406.995 71.0269 438.845 37.144 479.409 35.8495L479.666 43.8454ZM416.293 111.301L424.289 111.046C424.429 115.417 425.054 119.649 426.107 123.696L418.365 125.709L410.623 127.722C409.273 122.534 408.476 117.123 408.297 111.556L416.293 111.301ZM418.365 125.709L414.56 132.746C407.616 128.989 400.178 126.045 392.379 124.032L394.376 116.286L396.374 108.54C405.448 110.881 414.098 114.307 422.17 118.673L418.365 125.709ZM394.376 116.286L387.715 120.715C371.625 96.5203 343.755 80.971 312.57 81.9658L312.313 73.9699L312.056 65.974C348.997 64.7956 382.005 83.2375 401.037 111.857L394.376 116.286ZM312.313 73.9699L312.57 81.9658C292.967 82.5912 275.112 89.6505 260.942 101.05L255.927 94.8157L250.912 88.582C267.695 75.0809 288.865 66.714 312.056 65.974L312.313 73.9699ZM255.927 94.8157L250.801 100.957C235.024 87.7866 214.547 80.1366 192.374 80.8441L192.117 72.8482L191.86 64.8523C218.102 64.0151 242.378 73.0858 261.053 88.6748L255.927 94.8157ZM192.117 72.8482L192.374 80.8441C152.715 82.1095 120.118 109.748 110.948 146.358L103.188 144.413L95.4275 142.468C106.292 99.0927 144.884 66.3512 191.86 64.8523L192.117 72.8482ZM103.188 144.413L100.971 152.099C95.0932 150.403 88.845 149.581 82.3751 149.787L82.1182 141.791L81.8614 133.796C90.0228 133.535 97.9395 134.573 105.404 136.727L103.188 144.413ZM82.1182 141.791L82.3751 149.787C49.2487 150.844 23.2776 178.507 24.3392 211.547L16.3433 211.803L8.34732 212.058C7.00123 170.161 39.9275 135.133 81.8613 133.796L82.1182 141.791ZM16.3433 211.803L24.3392 211.547C25.082 234.663 38.8573 254.319 58.4476 263.678L55.0001 270.897L51.5526 278.115C26.7885 266.284 9.29 241.393 8.34732 212.058L16.3433 211.803ZM55.0001 270.897L63 270.854C63.0017 271.169 63.0072 271.478 63.017 271.781L55.0211 272.036L47.0251 272.291C47.0104 271.833 47.0026 271.382 47.0001 270.939L55.0001 270.897ZM55.0211 272.036L63.017 271.781C63.6216 290.6 79.3972 305.39 98.2787 304.788L98.5356 312.784L98.7925 320.779C71.1038 321.663 47.9144 299.967 47.0251 272.291L55.0211 272.036ZM98.5356 312.784L98.2786 304.788C103.232 304.63 107.886 303.43 112.057 301.416L115.538 308.62L119.018 315.824C112.876 318.79 106.029 320.548 98.7925 320.779L98.5356 312.784ZM115.538 308.62L121.779 303.617C130.459 314.442 143.938 321.176 158.869 320.7L159.126 328.695L159.383 336.691C139.214 337.335 120.995 328.214 109.296 313.624L115.538 308.62ZM159.126 328.695L158.869 320.7C172.653 320.26 184.802 313.769 192.859 303.839L199.071 308.88L205.284 313.922C194.424 327.306 177.996 336.097 159.383 336.691L159.126 328.695ZM199.071 308.88L206.643 306.298C214.585 329.571 237.037 345.966 262.931 345.14L263.188 353.135L263.445 361.131C230.339 362.187 201.655 341.22 191.5 311.462L199.071 308.88ZM263.188 353.135L262.931 345.14C285.449 344.421 304.536 330.876 313.364 311.729L320.629 315.079L327.894 318.43C316.624 342.875 292.239 360.213 263.445 361.131L263.188 353.135ZM320.629 315.079L324.154 307.898C338.18 314.785 354.056 318.438 370.795 317.904L371.052 325.9L371.309 333.896C351.892 334.515 333.425 330.273 317.105 322.26L320.629 315.079ZM371.052 325.9L370.795 317.904C395.785 317.107 418.287 307.113 435.18 291.273L440.653 297.109L446.126 302.945C426.503 321.345 400.33 332.97 371.309 333.896L371.052 325.9ZM440.653 297.109L446.501 291.651C452.069 297.617 458.365 302.888 465.241 307.324L460.905 314.046L456.568 320.768C448.581 315.614 441.27 309.493 434.805 302.567L440.653 297.109ZM460.905 314.046L468.839 315.067C468.703 316.127 468.649 317.214 468.685 318.323L460.689 318.579L452.693 318.834C452.63 316.865 452.726 314.925 452.97 313.025L460.905 314.046ZM460.689 318.579L468.685 318.323C469.043 329.484 478.4 338.265 489.611 337.907L489.868 345.903L490.125 353.899C470.107 354.538 453.336 338.851 452.693 318.834L460.689 318.579ZM489.868 345.903L489.611 337.907C497.131 337.667 503.569 333.378 506.882 327.175L513.939 330.944L520.996 334.714C515.095 345.765 503.587 353.469 490.125 353.899L489.868 345.903ZM513.939 330.944L514.289 322.952C516.803 323.063 519.341 323.079 521.902 322.997L522.159 330.993L522.416 338.989C519.452 339.083 516.508 339.065 513.59 338.937L513.939 330.944ZM522.159 330.993L521.902 322.997C548.367 322.153 572.048 310.994 589.226 293.495L594.935 299.1L600.645 304.705C580.696 325.026 553.155 338.008 522.416 338.989L522.159 330.993ZM594.935 299.1L601.97 295.293C614.392 318.237 638.147 333.168 664.705 332.321L664.962 340.317L665.219 348.313C632.115 349.369 602.965 330.733 587.9 302.908L594.935 299.1Z" fill="black" mask="url(#path-1-inside-1_65_5731)"/>
</g>
<g filter="url(#filter1_g_65_5731)">
<path d="M177.788 188.552C177.452 197.96 220.383 215.508 241.364 183.051" stroke="black" stroke-width="6" stroke-linecap="round" stroke-linejoin="round"/>
</g>
<g filter="url(#filter2_g_65_5731)">
<path d="M297.789 254.131C297.453 263.539 340.384 281.088 361.364 248.63" stroke="black" stroke-width="6" stroke-linecap="round" stroke-linejoin="round"/>
</g>
<g filter="url(#filter3_g_65_5731)">
<path d="M543.186 233.007C542.931 240.16 575.576 253.505 591.53 228.824" stroke="black" stroke-width="6" stroke-linecap="round" stroke-linejoin="round"/>
</g>
<defs>
<filter id="filter0_g_65_5731" x="12.3076" y="39.8113" width="875.759" height="317.358" filterUnits="userSpaceOnUse" color-interpolation-filters="sRGB">
<feFlood flood-opacity="0" result="BackgroundImageFix"/>
<feBlend mode="normal" in="SourceGraphic" in2="BackgroundImageFix" result="shape"/>
<feTurbulence type="fractalNoise" baseFrequency="0.011904762126505375 0.011904762126505375" numOctaves="3" seed="9687" />
<feDisplacementMap in="shape" scale="8" xChannelSelector="R" yChannelSelector="G" result="displacedImage" width="100%" height="100%" />
<feMerge result="effect1_texture_65_5731">
<feMergeNode in="displacedImage"/>
</feMerge>
</filter>
<filter id="filter1_g_65_5731" x="170.786" y="176.051" width="77.579" height="32.7542" filterUnits="userSpaceOnUse" color-interpolation-filters="sRGB">
<feFlood flood-opacity="0" result="BackgroundImageFix"/>
<feBlend mode="normal" in="SourceGraphic" in2="BackgroundImageFix" result="shape"/>
<feTurbulence type="fractalNoise" baseFrequency="0.011904762126505375 0.011904762126505375" numOctaves="3" seed="1807" />
<feDisplacementMap in="shape" scale="8" xChannelSelector="R" yChannelSelector="G" result="displacedImage" width="100%" height="100%" />
<feMerge result="effect1_texture_65_5731">
<feMergeNode in="displacedImage"/>
</feMerge>
</filter>
<filter id="filter2_g_65_5731" x="290.786" y="241.63" width="77.579" height="32.7542" filterUnits="userSpaceOnUse" color-interpolation-filters="sRGB">
<feFlood flood-opacity="0" result="BackgroundImageFix"/>
<feBlend mode="normal" in="SourceGraphic" in2="BackgroundImageFix" result="shape"/>
<feTurbulence type="fractalNoise" baseFrequency="0.011904762126505375 0.011904762126505375" numOctaves="3" seed="1807" />
<feDisplacementMap in="shape" scale="8" xChannelSelector="R" yChannelSelector="G" result="displacedImage" width="100%" height="100%" />
<feMerge result="effect1_texture_65_5731">
<feMergeNode in="displacedImage"/>
</feMerge>
</filter>
<filter id="filter3_g_65_5731" x="536.184" y="221.824" width="62.3464" height="28.2603" filterUnits="userSpaceOnUse" color-interpolation-filters="sRGB">
<feFlood flood-opacity="0" result="BackgroundImageFix"/>
<feBlend mode="normal" in="SourceGraphic" in2="BackgroundImageFix" result="shape"/>
<feTurbulence type="fractalNoise" baseFrequency="0.011904762126505375 0.011904762126505375" numOctaves="3" seed="1807" />
<feDisplacementMap in="shape" scale="8" xChannelSelector="R" yChannelSelector="G" result="displacedImage" width="100%" height="100%" />
<feMerge result="effect1_texture_65_5731">
<feMergeNode in="displacedImage"/>
</feMerge>
</filter>
<radialGradient id="paint0_radial_65_5731" cx="0" cy="0" r="1" gradientUnits="userSpaceOnUse" gradientTransform="translate(448.806 196.022) rotate(-91.8402) scale(151.115 432.747)">
<stop stop-color="#A7725B"/>
<stop offset="1" stop-color="#824852"/>
</radialGradient>
</defs>
</svg>
