<svg width="733" height="353" viewBox="0 0 733 353" fill="none" xmlns="http://www.w3.org/2000/svg">
<g filter="url(#filter0_dg_219_21)">
<path d="M468.522 286C467.757 268.626 466.991 251.252 466.226 233.878C452.4 245.129 439.653 257.483 428.181 270.749C430.343 248.707 432.504 226.662 434.662 204.62C435.614 194.899 433.221 181.441 422.515 181.111C413.482 180.831 407.083 191.395 398.098 190.525C406.133 166.25 403.134 139.108 389.95 116.781C390.366 132.867 386.915 149.024 379.913 163.795C381.014 142.47 373.231 120.861 358.477 104.276C347.319 91.7346 332.559 82.184 321.289 69.7254C306.273 53.1204 298.207 31.4902 298.65 10C296.359 43.6851 301.622 77.7904 314.097 109.57C321.714 128.968 332.161 148.936 328.185 169.216C325.485 182.992 316.334 195.003 306.125 205.463C301.405 173.203 297.065 140.899 293.11 108.554C286.488 140.591 269.639 170.816 245.155 194.591C253.429 175.051 238.497 154.272 224.448 137.694C210.4 121.117 195.655 100.137 204.29 80.7259C186.685 111.357 202.497 155.656 174.022 178.519C171.12 157.839 161.387 137.994 146.419 122.223C144.972 133.413 142.018 144.438 137.642 154.975C130.863 134.476 111.986 119.604 97.8135 102.526C86.7607 89.2082 78.5442 71.2687 81.908 55.7291C69.8968 82.2664 60.3028 110.718 69.6194 137.604C74.6379 152.083 84.898 164.924 88.0869 179.826C92.9608 202.618 80.5637 225.209 68.5555 245.689C56.2368 237.984 54.7176 222.109 55.7213 208.525C56.725 194.943 58.6571 179.996 50.0006 168.903C42.6853 178.445 29.6583 198.131 25.3843 225.986C21.2248 253.098 27.3736 274.813 31.4879 285.995H468.522V286Z" fill="#FF9D33"/>
<path d="M298.783 7.00293C300.41 7.07505 301.682 8.43281 301.649 10.0615C301.222 30.7715 309.001 51.6637 323.514 67.7129L324.551 68.8408C329.787 74.4416 335.749 79.4895 341.867 84.6826C348.336 90.1745 354.977 95.8287 360.718 102.281L361.428 103.089C372.921 116.326 380.199 132.567 382.348 149.377C385.664 138.824 387.235 127.821 386.952 116.858C386.916 115.492 387.809 114.275 389.123 113.897C390.436 113.52 391.839 114.079 392.534 115.256C405.349 136.959 408.853 163.071 402.293 187.001C404.234 186.319 406.258 185.076 408.657 183.521C412.295 181.163 416.976 177.938 422.608 178.112H422.607C429.567 178.327 433.668 182.946 435.752 188.246C437.672 193.127 438.102 198.977 437.732 203.934L437.648 204.912C435.788 223.904 433.926 242.899 432.064 261.892C442.004 251.088 452.797 240.938 464.333 231.552L464.5 231.424C465.362 230.818 466.484 230.706 467.454 231.142C468.488 231.606 469.173 232.613 469.223 233.746C469.988 251.107 470.752 268.468 471.517 285.829C471.52 285.884 471.522 285.939 471.522 285.994V286L471.519 286.152C471.441 287.713 470.168 288.964 468.588 288.999C468.506 289.001 468.424 288.999 468.342 288.994H31.4878C30.3092 288.994 29.2481 288.305 28.7622 287.247L28.6724 287.03C24.4588 275.579 18.1554 253.324 22.4194 225.531L22.6304 224.199C27.2143 196.357 40.2604 176.677 47.6196 167.077L47.729 166.942C48.294 166.288 49.1173 165.906 49.9878 165.902C50.9163 165.898 51.7945 166.325 52.3657 167.057C57.1901 173.239 58.9784 180.405 59.4761 187.573C59.9687 194.669 59.2051 202.092 58.7134 208.746C58.2231 215.382 58.3707 222.364 60.0386 228.527C61.4156 233.616 63.7956 238.037 67.6362 241.307C73.0644 231.96 78.3054 222.371 81.8306 212.605C85.7068 201.867 87.4332 191.117 85.1528 180.453V180.452C83.6512 173.436 80.4649 166.817 76.8794 159.944C73.4611 153.392 69.6339 146.536 67.0327 139.289L66.7847 138.586C57.0456 110.481 67.163 81.0318 79.1753 54.4922L79.3042 54.2383C80.0049 53.0121 81.4835 52.4297 82.8491 52.8809C84.3055 53.3621 85.1646 54.8641 84.8403 56.3633C81.7682 70.5558 89.2863 87.5543 100.122 100.61L101.44 102.177C104.546 105.82 107.864 109.387 111.249 112.988C115.098 117.083 119.046 121.236 122.761 125.496C128.478 132.051 133.776 139.014 137.545 146.805C140.37 138.675 142.349 130.304 143.444 121.839L143.479 121.626C143.693 120.573 144.457 119.708 145.489 119.371C146.589 119.012 147.798 119.319 148.595 120.158C162.644 134.96 172.224 153.278 176.058 172.593C185.982 162.211 188.636 148.077 190.248 132.232C191.134 123.515 191.72 114.166 193.177 105.23C194.645 96.2292 197.037 87.3236 201.689 79.2305C202.485 77.8463 204.225 77.3285 205.649 78.0518C207.072 78.7751 207.68 80.4864 207.031 81.9453C203.184 90.5917 204.437 99.748 208.601 109.047C212.782 118.383 219.745 127.505 226.737 135.755L228.063 137.329C234.709 145.274 241.553 154.305 245.9 163.78C248.985 170.503 250.879 177.606 250.472 184.785C270.534 162.738 284.367 136.033 290.172 107.946L290.24 107.682C290.633 106.385 291.857 105.5 293.233 105.557C294.701 105.617 295.909 106.731 296.087 108.189C299.787 138.452 303.825 168.678 308.196 198.866C316.419 189.708 323.075 179.69 325.242 168.639L325.406 167.752C327.002 158.585 325.522 149.357 322.622 139.945C319.786 130.746 315.744 121.78 312.041 112.522L311.305 110.666C298.669 78.476 293.336 43.9271 295.657 9.79688L295.67 9.64551C295.854 8.09488 297.206 6.9331 298.783 7.00293Z" stroke="black" stroke-width="6" stroke-linejoin="round"/>
</g>
<path d="M90.2621 141.028C91.1253 140.402 92.2957 140.41 93.1498 141.048C118.984 160.356 137.236 187.938 144.078 217.813C149.621 207.222 153.926 196.097 156.887 184.687L156.946 184.492C157.281 183.536 158.179 182.88 159.205 182.864C160.3 182.847 161.272 183.562 161.58 184.613C163.98 192.79 166.379 200.967 168.779 209.144C170.958 216.572 173.137 224.001 175.317 231.429C180.911 229.476 184.646 223.695 187.701 217.489V217.488L188.505 215.843C196.774 198.827 203.617 181.238 208.954 163.28L209.017 163.094C209.367 162.189 210.228 161.571 211.211 161.54C212.26 161.506 213.212 162.149 213.575 163.133C221.873 185.701 224.373 210.025 220.81 233.615L220.811 233.616C220.608 234.969 220.582 235.603 220.724 236.012L220.795 236.175V236.177L220.841 236.253C221.097 236.641 221.769 237.12 223.042 237.53H223.043L223.477 237.663C227.964 238.959 232.591 238.012 237.112 235.662C241.793 233.228 246.157 229.386 249.719 225.455L250.787 224.265C261.755 211.928 270.74 198.142 277.372 183.482L277.465 183.299C277.96 182.411 278.963 181.917 279.981 182.082C281.067 182.257 281.9 183.14 282.014 184.234L286.445 226.739V226.74L286.578 227.909C286.923 230.641 287.502 233.382 288.555 235.657C289.734 238.205 291.403 239.969 293.873 240.668H293.874L294.213 240.756C297.734 241.581 301.729 239.865 305.701 237.42L305.702 237.419L307.073 236.56C335.223 218.56 351.98 186.807 349.946 155.721L349.832 154.217C349.729 153 350.543 151.894 351.737 151.632C352.93 151.37 354.132 152.033 354.548 153.181L355.406 155.559C363.344 177.715 370.454 201.448 367.799 224.991C371.528 221.056 375.256 217.121 378.983 213.187L380.012 212.109C382.411 209.631 385.385 206.89 389.321 205.697L389.762 205.571C392.307 204.886 395.166 205.14 397.52 206.143C399.856 207.139 402.123 209.091 402.592 212.083C402.664 212.541 402.603 213.011 402.417 213.436C397.236 225.278 395.233 238.251 396.575 250.925C401.003 247.004 405.231 242.898 409.24 238.622L409.348 238.512C409.909 237.985 410.691 237.752 411.454 237.892C412.269 238.041 412.951 238.594 413.267 239.359C417.536 249.711 418.969 258.212 419.462 264.194L419.567 265.585C419.788 268.783 419.866 271.631 420.37 274.209C420.931 277.071 421.886 278.754 423.479 279.609H423.481L423.65 279.697C424.494 280.109 425.3 280.183 427.222 280.287H427.223L427.817 280.309C433.77 280.439 440.114 277.701 443.894 273.411L444.263 272.976C446.35 270.432 447.293 267.687 447.768 265.517C448.006 264.43 448.122 263.508 448.216 262.788C448.258 262.469 448.31 262.068 448.379 261.751C448.409 261.616 448.481 261.295 448.649 260.961C448.721 260.817 449.375 259.529 450.916 259.547L451.069 259.553L451.075 259.554L451.314 259.582C452.469 259.767 453 260.663 453.114 260.867C453.298 261.198 453.384 261.516 453.425 261.687C453.516 262.064 453.564 262.501 453.597 262.929C453.665 263.822 453.695 265.149 453.683 266.993C453.66 270.703 453.469 276.74 453.027 286.115C452.965 287.414 451.895 288.435 450.594 288.435H85.224L53.3705 288.048C52.9059 288.043 52.4543 287.904 52.0677 287.651L51.9056 287.536C49.5016 285.667 46.7122 283.022 44.3715 279.418L43.9095 278.684C36.2224 266.082 40.5803 252.857 41.6801 249.794L41.7406 249.642C42.0674 248.894 42.7503 248.356 43.5619 248.217C44.4278 248.069 45.3062 248.399 45.8607 249.081C46.8126 250.25 51.1763 255.705 56.7523 261.16C59.5412 263.888 62.5918 266.574 65.6312 268.711C68.7028 270.871 71.5935 272.348 74.0785 272.854H74.0795C76.4687 273.339 78.5328 273.479 80.1742 272.857V272.856L80.4017 272.764C82.7187 271.766 84.1221 269.263 85.4506 266.02V266.019L86.1869 264.193C101.18 226.381 102.537 184.184 90.0023 145.641L89.3842 143.779C89.043 142.769 89.3989 141.654 90.2621 141.028Z" fill="#FEC400" stroke="black" stroke-width="4.87073" stroke-linejoin="round"/>
<g filter="url(#filter1_dg_219_21)">
<path d="M274 288C274.765 270.626 275.531 253.252 276.296 235.878C290.122 247.129 302.869 259.483 314.341 272.749C312.179 250.707 310.018 228.662 307.86 206.62C306.908 196.899 309.301 183.441 320.007 183.111C329.04 182.831 335.439 193.395 344.424 192.525C336.389 168.25 339.388 141.108 352.572 118.781C352.156 134.867 355.607 151.024 362.609 165.795C361.508 144.47 369.291 122.861 384.045 106.276C395.203 93.7346 409.963 84.184 421.233 71.7254C436.249 55.1204 444.315 33.4902 443.872 12C446.163 45.6851 440.9 79.7904 428.425 111.57C420.808 130.968 410.361 150.936 414.337 171.216C417.037 184.992 426.188 197.003 436.397 207.463C441.117 175.203 445.457 142.899 449.412 110.554C456.034 142.591 472.883 172.816 497.367 196.591C489.093 177.051 504.025 156.272 518.074 139.694C532.122 123.117 546.867 102.137 538.232 82.7259C555.837 113.357 540.025 157.656 568.5 180.519C571.402 159.839 581.135 139.994 596.103 124.223C597.55 135.413 600.504 146.438 604.88 156.975C611.659 136.476 630.536 121.604 644.708 104.526C655.761 91.2082 663.978 73.2687 660.614 57.7291C672.625 84.2664 682.219 112.718 672.903 139.604C667.884 154.083 657.624 166.924 654.435 181.826C649.561 204.618 661.958 227.209 673.967 247.689C686.285 239.984 687.804 224.109 686.801 210.525C685.797 196.943 683.865 181.996 692.521 170.903C699.837 180.445 712.864 200.131 717.138 227.986C721.297 255.098 715.148 276.813 711.034 287.995H274V288Z" fill="#FF9D33"/>
<path d="M443.739 9.00293C442.112 9.07505 440.84 10.4328 440.873 12.0615C441.3 32.7715 433.521 53.6637 419.008 69.7129L417.971 70.8408C412.735 76.4416 406.773 81.4895 400.655 86.6826C394.186 92.1745 387.545 97.8287 381.804 104.281L381.094 105.089C369.6 118.326 362.323 134.567 360.174 151.377C356.858 140.824 355.287 129.821 355.57 118.858C355.606 117.492 354.713 116.275 353.399 115.897C352.086 115.52 350.683 116.079 349.988 117.256C337.173 138.959 333.669 165.071 340.229 189.001C338.288 188.319 336.264 187.076 333.865 185.521C330.227 183.163 325.545 179.938 319.914 180.112H319.915C312.955 180.327 308.854 184.946 306.77 190.246C304.85 195.127 304.42 200.977 304.79 205.934L304.874 206.912C306.734 225.904 308.596 244.899 310.458 263.892C300.518 253.088 289.725 242.938 278.189 233.552L278.021 233.424C277.16 232.818 276.038 232.706 275.068 233.142C274.034 233.606 273.349 234.613 273.299 235.746C272.534 253.107 271.77 270.468 271.005 287.829C271.002 287.884 271 287.939 271 287.994V288L271.003 288.152C271.081 289.713 272.354 290.964 273.934 290.999C274.016 291.001 274.098 290.999 274.18 290.994H711.034C712.213 290.994 713.274 290.305 713.76 289.247L713.85 289.03C718.063 277.579 724.367 255.324 720.103 227.531L719.892 226.199C715.308 198.357 702.262 178.677 694.902 169.077L694.793 168.942C694.228 168.288 693.405 167.906 692.534 167.902C691.606 167.898 690.728 168.325 690.156 169.057C685.332 175.239 683.544 182.405 683.046 189.573C682.553 196.669 683.317 204.092 683.809 210.746C684.299 217.382 684.151 224.364 682.483 230.527C681.106 235.616 678.726 240.037 674.886 243.307C669.458 233.96 664.217 224.371 660.691 214.605C656.815 203.867 655.089 193.117 657.369 182.453V182.452C658.871 175.436 662.057 168.817 665.643 161.944C669.061 155.392 672.888 148.536 675.489 141.289L675.737 140.586C685.476 112.481 675.359 83.0318 663.347 56.4922L663.218 56.2383C662.517 55.0121 661.038 54.4297 659.673 54.8809C658.216 55.3621 657.357 56.8641 657.682 58.3633C660.754 72.5558 653.236 89.5543 642.4 102.61L641.082 104.177C637.976 107.82 634.658 111.387 631.273 114.988C627.424 119.083 623.476 123.236 619.761 127.496C614.044 134.051 608.746 141.014 604.977 148.805C602.152 140.675 600.173 132.304 599.078 123.839L599.043 123.626C598.829 122.573 598.065 121.708 597.033 121.371C595.933 121.012 594.724 121.319 593.927 122.158C579.877 136.96 570.298 155.278 566.464 174.593C556.54 164.211 553.886 150.077 552.274 134.232C551.387 125.515 550.802 116.166 549.345 107.23C547.876 98.2292 545.485 89.3236 540.833 81.2305C540.037 79.8463 538.297 79.3285 536.873 80.0518C535.45 80.7751 534.842 82.4864 535.491 83.9453C539.338 92.5917 538.085 101.748 533.921 111.047C529.74 120.383 522.777 129.505 515.785 137.755L514.459 139.329C507.813 147.274 500.969 156.305 496.622 165.78C493.537 172.503 491.643 179.606 492.05 186.785C471.988 164.738 458.155 138.033 452.35 109.946L452.282 109.682C451.889 108.385 450.665 107.5 449.289 107.557C447.821 107.617 446.613 108.731 446.435 110.189C442.735 140.452 438.697 170.678 434.326 200.866C426.103 191.708 419.447 181.69 417.28 170.639L417.116 169.752C415.52 160.585 417 151.357 419.9 141.945C422.735 132.746 426.778 123.78 430.481 114.522L431.217 112.666C443.853 80.476 449.186 45.9271 446.865 11.7969L446.852 11.6455C446.668 10.0949 445.316 8.9331 443.739 9.00293Z" stroke="black" stroke-width="6" stroke-linejoin="round"/>
</g>
<path d="M652.26 143.028C651.397 142.402 650.226 142.41 649.372 143.048C623.538 162.356 605.286 189.938 598.444 219.813C592.9 209.222 588.596 198.097 585.635 186.687L585.576 186.492C585.241 185.536 584.343 184.88 583.317 184.864C582.222 184.847 581.25 185.562 580.942 186.613C578.542 194.79 576.142 202.967 573.743 211.144C571.564 218.572 569.385 226.001 567.205 233.429C561.611 231.476 557.876 225.695 554.821 219.489V219.488L554.017 217.843C545.748 200.827 538.905 183.238 533.568 165.28L533.505 165.094C533.155 164.189 532.294 163.571 531.311 163.54C530.262 163.506 529.31 164.149 528.947 165.133C520.649 187.701 518.149 212.025 521.712 235.615L521.711 235.616C521.914 236.969 521.94 237.603 521.798 238.012L521.727 238.175V238.177L521.681 238.253C521.425 238.641 520.753 239.12 519.48 239.53H519.479L519.045 239.663C514.558 240.959 509.931 240.012 505.41 237.662C500.729 235.228 496.365 231.386 492.803 227.455L491.734 226.265C480.766 213.928 471.782 200.142 465.15 185.482L465.057 185.299C464.562 184.411 463.559 183.917 462.541 184.082C461.455 184.257 460.622 185.14 460.508 186.234L456.077 228.739V228.74L455.943 229.909C455.599 232.641 455.019 235.382 453.967 237.657C452.788 240.205 451.119 241.969 448.649 242.668H448.648L448.309 242.756C444.788 243.581 440.793 241.865 436.821 239.42L436.82 239.419L435.449 238.56C407.299 220.56 390.542 188.807 392.576 157.721L392.69 156.217C392.793 155 391.978 153.894 390.785 153.632C389.592 153.37 388.39 154.033 387.974 155.181L387.116 157.559C379.178 179.715 372.068 203.448 374.723 226.991C370.994 223.056 367.266 219.121 363.539 215.187L362.51 214.109C360.111 211.631 357.137 208.89 353.201 207.697L352.76 207.571C350.215 206.886 347.356 207.14 345.002 208.143C342.666 209.139 340.399 211.091 339.93 214.083C339.858 214.541 339.919 215.011 340.105 215.436C345.286 227.278 347.289 240.251 345.947 252.925C341.519 249.004 337.291 244.898 333.282 240.622L333.174 240.512C332.613 239.985 331.831 239.752 331.068 239.892C330.253 240.041 329.571 240.594 329.255 241.359C324.986 251.711 323.553 260.212 323.06 266.194L322.955 267.585C322.734 270.783 322.656 273.631 322.151 276.209C321.591 279.071 320.636 280.754 319.043 281.609H319.041L318.872 281.697C318.028 282.109 317.222 282.183 315.3 282.287H315.299L314.705 282.309C308.752 282.439 302.408 279.701 298.628 275.411L298.259 274.976C296.172 272.432 295.229 269.687 294.754 267.517C294.516 266.43 294.4 265.508 294.306 264.788C294.264 264.469 294.212 264.068 294.143 263.751C294.113 263.616 294.041 263.295 293.873 262.961C293.801 262.817 293.147 261.529 291.606 261.547L291.453 261.553L291.447 261.554L291.208 261.582C290.053 261.767 289.522 262.663 289.408 262.867C289.224 263.198 289.138 263.516 289.097 263.687C289.006 264.064 288.958 264.501 288.925 264.929C288.857 265.822 288.827 267.149 288.839 268.993C288.862 272.703 289.053 278.74 289.495 288.115C289.557 289.414 290.627 290.435 291.928 290.435H657.298L689.151 290.048C689.616 290.043 690.068 289.904 690.454 289.651L690.616 289.536C693.02 287.667 695.81 285.022 698.151 281.418L698.612 280.684C706.3 268.082 701.942 254.857 700.842 251.794L700.781 251.642C700.455 250.894 699.772 250.356 698.96 250.217C698.094 250.069 697.216 250.399 696.661 251.081C695.709 252.25 691.346 257.705 685.77 263.16C682.981 265.888 679.93 268.574 676.891 270.711C673.819 272.871 670.928 274.348 668.443 274.854H668.443C666.053 275.339 663.989 275.479 662.348 274.857V274.856L662.12 274.764C659.803 273.766 658.4 271.263 657.071 268.02V268.019L656.335 266.193C641.342 228.381 639.985 186.184 652.52 147.641L653.138 145.779C653.479 144.769 653.123 143.654 652.26 143.028Z" fill="#FEC400" stroke="black" stroke-width="4.87073" stroke-linejoin="round"/>
<g filter="url(#filter2_g_219_21)">
<ellipse cx="366" cy="298.357" rx="362" ry="50" fill="#808080"/>
<path d="M366 251.357C465.87 251.357 556.227 256.949 621.562 265.973C654.252 270.488 680.554 275.847 698.621 281.747C707.675 284.703 714.482 287.74 718.966 290.767C723.581 293.882 725 296.469 725 298.357C725 300.245 723.581 302.832 718.966 305.947C714.482 308.974 707.675 312.011 698.621 314.967C680.554 320.867 654.252 326.226 621.562 330.741C556.227 339.765 465.87 345.357 366 345.357C266.129 345.357 175.772 339.765 110.437 330.741C77.7472 326.226 51.4454 320.867 33.3784 314.967C24.3245 312.011 17.5171 308.974 13.0327 305.947C8.418 302.832 6.99951 300.245 6.99951 298.357C6.99951 296.469 8.418 293.882 13.0327 290.767C17.5171 287.74 24.3245 284.703 33.3784 281.747C51.4454 275.847 77.7472 270.488 110.437 265.973C175.772 256.949 266.129 251.357 366 251.357Z" stroke="black" stroke-width="6"/>
</g>
<defs>
<filter id="filter0_dg_219_21" x="13.9993" y="0" width="468.523" height="300" filterUnits="userSpaceOnUse" color-interpolation-filters="sRGB">
<feFlood flood-opacity="0" result="BackgroundImageFix"/>
<feColorMatrix in="SourceAlpha" type="matrix" values="0 0 0 0 0 0 0 0 0 0 0 0 0 0 0 0 0 0 127 0" result="hardAlpha"/>
<feOffset dx="8" dy="8"/>
<feComposite in2="hardAlpha" operator="out"/>
<feColorMatrix type="matrix" values="0 0 0 0 0 0 0 0 0 0 0 0 0 0 0 0 0 0 1 0"/>
<feBlend mode="normal" in2="BackgroundImageFix" result="effect1_dropShadow_219_21"/>
<feBlend mode="normal" in="SourceGraphic" in2="effect1_dropShadow_219_21" result="shape"/>
<feTurbulence type="fractalNoise" baseFrequency="0.011904762126505375 0.011904762126505375" numOctaves="3" seed="6810" />
<feDisplacementMap in="shape" scale="8" xChannelSelector="R" yChannelSelector="G" result="displacedImage" width="100%" height="100%" />
<feMerge result="effect2_texture_219_21">
<feMergeNode in="displacedImage"/>
</feMerge>
</filter>
<filter id="filter1_dg_219_21" x="264" y="2" width="468.523" height="300" filterUnits="userSpaceOnUse" color-interpolation-filters="sRGB">
<feFlood flood-opacity="0" result="BackgroundImageFix"/>
<feColorMatrix in="SourceAlpha" type="matrix" values="0 0 0 0 0 0 0 0 0 0 0 0 0 0 0 0 0 0 127 0" result="hardAlpha"/>
<feOffset dx="8" dy="8"/>
<feComposite in2="hardAlpha" operator="out"/>
<feColorMatrix type="matrix" values="0 0 0 0 0 0 0 0 0 0 0 0 0 0 0 0 0 0 1 0"/>
<feBlend mode="normal" in2="BackgroundImageFix" result="effect1_dropShadow_219_21"/>
<feBlend mode="normal" in="SourceGraphic" in2="effect1_dropShadow_219_21" result="shape"/>
<feTurbulence type="fractalNoise" baseFrequency="0.011904762126505375 0.011904762126505375" numOctaves="3" seed="6810" />
<feDisplacementMap in="shape" scale="8" xChannelSelector="R" yChannelSelector="G" result="displacedImage" width="100%" height="100%" />
<feMerge result="effect2_texture_219_21">
<feMergeNode in="displacedImage"/>
</feMerge>
</filter>
<filter id="filter2_g_219_21" x="-0.000488281" y="244.357" width="732" height="108" filterUnits="userSpaceOnUse" color-interpolation-filters="sRGB">
<feFlood flood-opacity="0" result="BackgroundImageFix"/>
<feBlend mode="normal" in="SourceGraphic" in2="BackgroundImageFix" result="shape"/>
<feTurbulence type="fractalNoise" baseFrequency="0.011904762126505375 0.011904762126505375" numOctaves="3" seed="5797" />
<feDisplacementMap in="shape" scale="8" xChannelSelector="R" yChannelSelector="G" result="displacedImage" width="100%" height="100%" />
<feMerge result="effect1_texture_219_21">
<feMergeNode in="displacedImage"/>
</feMerge>
</filter>
</defs>
</svg>
