<svg width="851" height="356" viewBox="0 0 851 356" fill="none" xmlns="http://www.w3.org/2000/svg">
<mask id="path-1-outside-1_2_59" maskUnits="userSpaceOnUse" x="-0.84668" y="-7" width="859" height="363" fill="black">
<rect fill="white" x="-0.84668" y="-7" width="859" height="363"/>
<path d="M850.315 224.828L848.997 224.989C778.037 233.637 668.342 241.398 555.189 241.268C442.449 241.138 326.146 233.174 241.286 210.393C160.703 296.389 52.4244 338.579 8.16504 348.96L7.15332 346.157C104.275 297.797 162.551 221.874 180.359 188.686C106.574 153.731 74.0647 113.549 62.8994 78.5811C51.6775 43.4357 62.1004 13.7637 73.4932 0.521484L73.9424 0H850.315V224.828Z"/>
</mask>
<path d="M850.315 224.828L848.997 224.989C778.037 233.637 668.342 241.398 555.189 241.268C442.449 241.138 326.146 233.174 241.286 210.393C160.703 296.389 52.4244 338.579 8.16504 348.96L7.15332 346.157C104.275 297.797 162.551 221.874 180.359 188.686C106.574 153.731 74.0647 113.549 62.8994 78.5811C51.6775 43.4357 62.1004 13.7637 73.4932 0.521484L73.9424 0H850.315V224.828Z" fill="#FFF3DC"/>
<path d="M850.315 224.828L851.165 231.776C854.676 231.347 857.315 228.366 857.315 224.828H850.315ZM848.997 224.989L849.844 231.938L849.846 231.938L848.997 224.989ZM555.189 241.268L555.181 248.268L555.189 241.268ZM241.286 210.393L243.101 203.632C240.606 202.962 237.945 203.721 236.178 205.606L241.286 210.393ZM8.16504 348.96L1.58088 351.337C2.78706 354.678 6.30493 356.586 9.76355 355.775L8.16504 348.96ZM7.15332 346.157L4.03319 339.891C0.852035 341.475 -0.637436 345.191 0.569158 348.534L7.15332 346.157ZM180.359 188.686L186.528 191.995C187.434 190.306 187.608 188.318 187.009 186.497C186.409 184.676 185.089 183.18 183.356 182.36L180.359 188.686ZM62.8994 78.5811L56.2311 80.7103L56.2311 80.7103L62.8994 78.5811ZM73.4932 0.521484L68.1896 -4.04713L68.1868 -4.04383L73.4932 0.521484ZM73.9424 0V-7C71.9049 -7 69.9686 -6.11229 68.6388 -4.56861L73.9424 0ZM850.315 0H857.315C857.315 -3.86599 854.181 -7 850.315 -7V0ZM850.315 224.828L849.466 217.88L848.148 218.041L848.997 224.989L849.846 231.938L851.165 231.776L850.315 224.828ZM848.997 224.989L848.15 218.041C777.479 226.654 668.07 234.397 555.198 234.268L555.189 241.268L555.181 248.268C668.615 248.398 778.595 240.621 849.844 231.938L848.997 224.989ZM555.189 241.268L555.198 234.268C442.613 234.138 327.053 226.17 243.101 203.632L241.286 210.393L239.471 217.153C325.239 240.179 442.285 248.138 555.181 248.268L555.189 241.268ZM241.286 210.393L236.178 205.606C156.772 290.347 49.8564 331.991 6.56653 342.145L8.16504 348.96L9.76355 355.775C54.9924 345.166 164.634 302.431 246.394 215.179L241.286 210.393ZM8.16504 348.96L14.7492 346.583L13.7375 343.781L7.15332 346.157L0.569158 348.534L1.58088 351.337L8.16504 348.96ZM7.15332 346.157L10.2735 352.423C108.858 303.335 168.126 226.289 186.528 191.995L180.359 188.686L174.191 185.376C156.976 217.459 99.693 292.259 4.03319 339.891L7.15332 346.157ZM180.359 188.686L183.356 182.36C110.675 147.928 79.9556 108.985 69.5677 76.4518L62.8994 78.5811L56.2311 80.7103C68.1737 118.112 102.474 159.534 177.362 195.012L180.359 188.686ZM62.8994 78.5811L69.5677 76.4519C59.0592 43.5407 69.0484 16.4209 78.7996 5.0868L73.4932 0.521484L68.1868 -4.04383C55.1523 11.1065 44.2958 43.3308 56.2311 80.7103L62.8994 78.5811ZM73.4932 0.521484L78.7967 5.0901L79.2459 4.56861L73.9424 0L68.6388 -4.56861L68.1896 -4.04713L73.4932 0.521484ZM73.9424 0V7H850.315V0V-7H73.9424V0ZM850.315 0H843.315V224.828H850.315H857.315V0H850.315Z" fill="black" mask="url(#path-1-outside-1_2_59)"/>
</svg>
