<svg width="399" height="670" viewBox="0 0 399 670" fill="none" xmlns="http://www.w3.org/2000/svg">
<g clip-path="url(#clip0_65_5795)">
<path d="M96.2533 286.244C76.0023 290.172 59.9216 292.573 48.9054 294.045C35.8983 295.79 26.4538 296.711 18.0083 303.968C11.4908 309.565 8.3543 316.536 6.34247 322.474C-3.25566 350.715 6.17481 374.043 8.41019 422.813C8.95506 434.62 10.5967 449.693 13.8938 479.845C15.0045 490.013 16.6881 503.627 26.9917 510.842C31.1551 513.759 35.535 514.799 38.6646 515.211C39.44 560.052 40.2153 604.901 40.9907 649.742C42.7371 650.929 47.3127 653.699 53.7882 653.811C59.7958 653.915 64.2037 651.682 66.0409 650.608C66.2295 608.522 66.4251 566.444 66.6137 524.359C88.6391 527.541 110.665 530.723 132.69 533.905C132.851 568.545 133.018 603.184 133.179 637.824C135.386 638.738 138.677 639.819 142.798 640.147C146.5 640.441 149.609 640.029 151.816 639.568C152.48 645.863 153.151 652.164 153.814 658.458C154.275 659.03 162.441 668.835 172.759 666.881C175.567 666.35 177.81 665.087 179.479 663.817C180.247 619.702 181.016 575.593 181.777 531.477C194.407 529.216 207.044 526.955 219.674 524.694C237.138 519.216 254.595 513.738 272.058 508.26C271.842 552.809 271.625 597.35 271.409 641.899C272.114 642.715 277.032 648.186 285.065 648.137C294.063 648.082 299.134 641.145 299.616 640.454C298.925 592.898 298.233 545.335 297.542 497.779C292.114 488.191 286.679 478.603 281.251 469.015C219.583 408.089 157.922 347.17 96.2533 286.244Z" fill="#FF9D33"/>
<path d="M82.8759 69.1674C86.9485 67.0949 92.0759 68.5533 97.5526 71.2678C114.43 79.6346 154.338 113.193 156.364 114.902C163.81 115.607 174.729 115.767 187.394 112.774C203.3 109.006 214.84 101.937 221.525 97.08C227.798 97.7918 234.064 98.5036 240.337 99.2083C243.425 96.1798 248.196 91.4138 253.875 85.3986C262.341 76.4386 271.388 68.023 279.7 58.9165C283.619 54.618 289.061 48.4912 296.745 47.7864C299.672 47.5142 301.363 48.1771 302.152 48.554C307.189 50.9824 308.39 57.9396 309.026 61.945C316.326 107.757 314.202 115.419 311.89 121.099C310.507 124.483 308.25 129.159 304.499 134.308C306.127 135.641 309.263 138.593 311.24 143.45C312.987 147.748 313.022 151.558 312.889 153.61C318.827 157.218 322.389 161.446 324.303 164.098C325.435 165.668 333.524 177.315 331.093 192.764C330.325 197.635 328.739 201.445 327.51 203.908C329.94 205.841 333.105 208.842 335.634 213.196C348.78 235.834 328.809 267.542 325.274 273.153C312.833 292.901 295.355 303.061 285.093 307.848C285.638 310.2 286.588 313.054 288.272 316.047C292.722 323.94 299.539 327.792 302.795 329.355C306.246 331.357 313.531 334.916 323.123 334.644C340.593 334.149 351.239 321.365 352.923 319.278C346.182 309.851 346.203 297.22 352.874 288.079C359.922 278.421 372.95 274.611 382.206 278.561C397.47 285.078 396.534 310.179 396.422 313.2C395.241 344.902 364.659 366.541 355.661 372.368C355.179 372.675 354.613 373.052 353.81 373.54C350.094 375.801 340.09 381.279 316.116 382.577C310.542 382.877 303.13 383.01 294.37 382.403C296.389 392.256 297.954 406.038 295.774 422.129C294.747 429.728 293.071 436.448 291.234 442.17C295.509 442.952 301.314 444.543 307.489 447.99C318.75 454.27 324.862 463.161 327.607 467.829C329.794 472.637 334.726 485.247 331.68 500.954C329.766 510.814 325.463 517.995 322.529 522.098C326.594 523.068 335.857 525.88 343.318 534.275C345.539 536.773 357.652 550.401 352.043 563.527C348.662 571.441 339.734 577.086 331.875 576.507C328.879 576.283 328.152 575.32 320.049 570.889C304.052 562.153 301.991 563.255 296.137 557.952C292.694 554.833 287.42 550.053 285.925 542.607C285.226 539.125 286.113 538.839 287.867 525.559C289.382 514.087 289.438 508.854 289.417 506.383C289.375 500.333 289.355 497.305 288.446 494.569C285.24 484.87 274.105 480.208 268.321 478.31C264.144 479.859 259.973 481.415 255.796 482.965C258.828 487.78 262.083 494.241 264.116 502.273C269.746 524.547 262.055 543.444 258.751 550.464C262.474 551.832 268.782 554.728 274.294 560.82C277.535 564.4 287.133 575.02 283.41 586.974C280.511 596.283 271.003 601.677 263.047 602.668C256.194 603.519 251.297 601 242.041 596.248C230.089 590.107 221.245 585.557 217.285 575.551C215.021 569.829 216.118 563.737 218.046 551.651C220.219 538.001 223.139 535.147 221.707 527.276C220.093 518.379 214.651 512.559 213.024 510.856C207.54 505.134 200.443 501.896 186.821 499.391C167.946 495.923 162.008 498.554 143.958 497.207C134.995 496.537 118.46 495.176 99.774 487.417C89.7777 483.265 75.6948 477.229 63.3164 463.007C59.9075 459.092 51.6785 449.435 47.4174 434.725C44.9165 426.086 43.8128 415.835 47.8924 392.765C53.3551 361.873 63.1558 335.977 72.8447 315.391C77.8813 304.687 84.9157 291.128 94.4929 275.993C91.6358 275.386 87.207 274.039 82.7642 270.78C74.4514 264.681 71.8318 256.105 71.0844 253.209C68.1085 249.336 65.1397 245.463 62.1638 241.584C63.2186 242.03 69.2611 244.493 75.7367 241.584C80.0328 239.658 82.2752 236.378 83.1065 234.996C82.352 232.505 81.4439 228.918 80.9759 224.536C80.2634 217.9 80.8711 212.317 82.7223 202.841C84.1194 195.688 86.1801 186.575 89.2677 176.052C83.7631 165.501 80.4031 156.366 78.3563 150.016C78.3563 150.016 66.1176 111.985 76.9732 77.5272C77.7346 75.0988 79.2365 71.0306 82.9249 69.1535L82.8759 69.1674Z" fill="#957C5E"/>
<path d="M293.923 380.644C296.277 375.138 298.96 367.644 300.832 358.502C303.158 347.1 303.34 337.421 303.032 330.722C308.264 331.79 313.497 332.865 318.722 333.932C319.225 339.508 319.413 346.919 318.345 355.606C316.752 368.579 313.036 378.83 310.206 385.312C304.779 383.756 299.351 382.2 293.923 380.637V380.644Z" fill="#4F3B24"/>
<path d="M338.114 378.418C338.463 373.645 338.582 364.057 334.593 353.025C331.373 344.113 326.825 338.022 323.926 334.658C329.067 332.334 334.209 330.004 339.343 327.68C342.368 331.783 345.882 337.282 349.025 344.232C353.636 354.413 355.64 363.701 356.576 370.212C350.422 372.947 344.261 375.683 338.107 378.418H338.114Z" fill="#4F3B24"/>
<path d="M294.629 380.016C313.755 381.914 333.426 378.251 350.548 369.612C367.313 360.861 380.781 345.642 387.914 328.252C391.511 319.285 393.313 309.174 390.729 299.732C389.758 296.006 388.207 292.273 385.944 289.209C384.086 286.634 381.71 284.646 378.909 283.285C376.108 282.092 372.776 281.422 369.779 281.554C353.056 282.182 351.449 305.803 356.206 317.98C356.737 319.292 356.409 320.737 355.494 321.7C352.993 324.323 350.248 326.57 347.3 328.559C328.341 341.35 304.485 337.987 289.229 321.218C286.833 318.622 284.681 315.929 282.879 312.858C281.377 310.109 285.226 307.681 287.056 310.248C288.803 312.796 290.933 315.217 293.155 317.387C299.735 323.835 308.341 328.559 317.485 329.487C329.626 330.904 342.019 325.628 350.324 316.864L349.612 320.583C348.606 318.064 347.859 315.433 347.404 312.761C346.161 304.729 346.461 296.753 349.451 288.944C355.089 274.339 370.743 270.487 383.925 277.716C389.45 280.947 393.411 286.369 395.744 292.168C408.563 323.521 381.033 361.65 353.349 375.124C335.068 383.994 314.195 387.385 294.077 384.81C290.975 384.322 291.45 379.793 294.615 380.002L294.629 380.016Z" fill="black"/>
<path d="M270.654 161.46C274.978 157.385 280.35 156.785 289.403 155.892C298.191 155.027 302.585 154.594 307.817 155.976C316.954 158.383 330.171 166.617 332.609 181.669C334.844 195.5 326.818 207.928 316.912 213.964C303.116 222.373 288.356 216.734 283.962 215.06C279.449 213.336 268.146 209.017 263.794 198.012C260.658 190.092 262.607 182.458 264.57 174.768C266.114 168.732 267.113 164.803 270.654 161.467V161.46Z" fill="#FFF3DC"/>
<path d="M257.389 221.745C259.729 219.749 262.886 219.051 268.216 217.921C273.393 216.825 275.977 216.274 279.17 216.378C284.737 216.56 293.071 218.716 295.383 224.515C297.507 229.846 293.455 235.492 287.909 238.75C278.869 244.061 269.474 242.323 268.384 242.002C267.63 241.779 261.88 239.999 257.619 234.745C256.257 233.063 254.329 230.621 254.539 227.578C254.706 225.157 255.859 223.057 257.389 221.752V221.745Z" fill="#4F3B24"/>
<path d="M71.7899 322.39C73.1451 324.568 75.3176 327.84 78.3493 331.518C95.89 352.794 117.308 357.351 116.239 361.991C115.463 365.334 103.728 365.69 95.5617 364.79C76.7147 362.703 63.6028 352.417 57.5254 346.891C62.2825 338.726 67.0327 330.555 71.7899 322.39Z" fill="#4F3B24"/>
<path d="M50.7845 369.94C55.7303 376.353 63.6449 385.068 75.3317 392.312C92.5092 402.96 106.452 403.372 106.292 407.301C106.11 411.634 88.9605 416.686 72.9008 413.79C59.4257 411.355 50.0161 403.923 45.1472 399.359C47.0263 389.548 48.9054 379.744 50.7845 369.933V369.94Z" fill="#4F3B24"/>
<path d="M50.8962 434.153C55.2273 437.097 61.9963 441.075 70.9098 443.775C90.8326 449.818 105.481 444.641 106.955 449.037C108.227 452.826 98.5935 460.509 89.2678 463.691C76.9034 467.906 65.8243 463.97 61.9124 462.365C59.7399 459.832 57.0645 456.155 54.878 451.27C51.7974 444.383 51.0499 438.13 50.8962 434.153Z" fill="#4F3B24"/>
<path d="M125.292 385.131C131.181 386.227 139.089 387.211 148.428 387.036C160.08 386.82 169.567 384.88 176.049 383.121C176.147 388.453 176.245 393.784 176.336 399.122C170.999 400.832 163.796 402.632 155.079 403.484C142.057 404.761 131.23 403.379 124.279 402.032C124.615 396.401 124.957 390.769 125.292 385.138V385.131Z" fill="#4F3B24"/>
<path d="M130.021 418.898C134.611 420.28 143.944 422.499 155.595 421.027C165.005 419.833 171.949 416.735 175.867 414.649C177.013 420.168 178.166 425.688 179.311 431.208C174.645 433.259 168.498 435.478 161.023 437.028C150.063 439.295 140.563 439.219 133.989 438.702C132.662 432.101 131.342 425.5 130.014 418.898H130.021Z" fill="#4F3B24"/>
<path d="M80.1236 195.025C86.8577 191.404 92.7605 189.387 96.8749 188.229C113.948 183.428 123.42 186.84 125.481 187.642C127.423 188.396 131.656 190.036 131.698 192.339C131.74 194.642 127.583 196.407 121.331 198.968C113.081 202.352 108.953 204.048 99.6063 207.698C94.2903 209.77 86.6621 213.35 77.9651 219.784C78.6846 211.536 79.4041 203.28 80.1236 195.032V195.025Z" fill="#4F3B24"/>
<path d="M63.2747 242.03C63.7567 242.086 74.8567 243.133 80.1098 235.394C81.8492 232.833 82.3731 230.153 82.5198 228.29C84.1824 227.788 86.76 227.048 89.9454 226.266C104.545 222.694 111.747 223.329 115.17 223.692C122.54 224.473 123.721 226.092 123.958 227.048C124.377 228.73 122.491 230.879 117.657 234.347C108.806 240.697 101.038 243.586 97.42 245.087C91.8176 247.417 84.1754 251.43 75.7788 258.764C71.6154 253.188 67.445 247.606 63.2747 242.03Z" fill="#4F3B24"/>
<path d="M79.3135 264.625C83.4908 261.981 89.8896 258.373 98.2233 255.449C100.605 254.612 121.352 247.445 123.986 252.204C126.138 256.105 115.107 266.147 113.703 267.417C108.276 272.357 102.841 275.148 99.2223 276.705C92.586 272.678 85.9567 268.652 79.3205 264.625H79.3135Z" fill="#4F3B24"/>
<path d="M237.983 124.302C242.586 137.728 241.483 152.919 238.423 153.568C236.195 154.043 233.694 146.611 224.619 129.242C218.933 118.356 213.869 109.69 210.467 104.058C214.085 102.83 217.704 101.602 221.329 100.381C226.324 104.651 233.924 112.453 237.99 124.309L237.983 124.302Z" fill="#4F3B24"/>
<path d="M256.697 116.521C261.769 124.769 260.595 134.699 257.088 135.32C252.981 136.046 245.332 124.002 242.789 120.003C240.058 115.705 232.786 104.254 236.229 102.732C239.317 101.372 251.36 107.833 256.697 116.521Z" fill="#4F3B24"/>
<path d="M212.011 122.746C215.001 130.261 215.58 140.987 212.402 141.545C208.294 142.271 200.645 130.226 198.103 126.228C194.302 120.247 188.951 112.104 191.543 108.957C193.199 106.94 197.502 107.715 200.527 108.552C203.586 110.708 209.007 115.209 212.004 122.739L212.011 122.746Z" fill="#4F3B24"/>
<path d="M289.445 358.021C286.288 358.147 281.58 358.628 276.18 360.373C273.057 361.377 263.243 364.539 263.41 368.09C263.55 371.105 270.808 373.031 273.693 373.799C280.825 375.69 287 375.124 290.773 374.468C290.333 368.984 289.886 363.506 289.445 358.021Z" fill="#4F3B24"/>
<path d="M293.092 392.256C289.662 392.402 284.402 392.995 278.499 395.277C277.06 395.836 263.068 401.348 263.739 406.184C264.298 410.19 274.741 412.402 282.313 412.06C287.329 411.829 291.346 410.476 293.923 409.373C293.644 403.665 293.371 397.964 293.092 392.256Z" fill="#4F3B24"/>
<path d="M290.605 432.366C278.101 431.738 270.41 435.164 266.554 437.397C262.928 439.498 262.083 440.914 262.076 442.094C262.062 446.141 271.953 449.135 274.182 449.812C279.379 451.389 283.92 451.577 286.951 451.486C288.167 445.108 289.382 438.73 290.598 432.352L290.605 432.366Z" fill="#4F3B24"/>
<path d="M305.03 473.146C312.945 466.936 322.284 467.78 324.932 468.115C327.251 473.321 329.577 478.52 331.897 483.725C329.179 484.158 324.806 484.905 319.455 486.077C303.416 489.587 298.121 492.685 296.235 490.438C293.874 487.633 298.408 478.352 305.023 473.153L305.03 473.146Z" fill="#4F3B24"/>
<path d="M308.684 511.24C308.663 510.068 309.864 508.916 317.807 505.197C324.115 502.245 329.389 500.145 332.902 498.819C332.351 503.46 331.799 508.107 331.247 512.747C329.48 514.059 326.127 516.132 321.628 516.439C315.592 516.851 308.746 513.997 308.691 511.233L308.684 511.24Z" fill="#4F3B24"/>
<path d="M258.758 493.278C255.181 492.95 249.635 492.936 243.502 495.128C234.141 498.47 225.095 506.335 226.422 509.726C227.854 513.403 241.385 511.631 252.129 510.228C257.026 509.586 261.035 508.798 263.739 508.212C262.083 503.236 260.42 498.254 258.765 493.278H258.758Z" fill="#4F3B24"/>
<path d="M263.236 524.666C255.356 526.187 249.411 528.532 245.492 530.374C241.112 532.426 237.564 534.128 237.696 536.082C237.885 538.874 245.478 540.779 250.634 541.114C254.993 541.4 258.59 540.625 260.916 539.941C261.692 534.854 262.467 529.76 263.236 524.673V524.666Z" fill="#4F3B24"/>
<path d="M295.858 167.566C305.778 166.192 317.925 175.968 318.729 186.533C319.399 195.353 312.267 206.058 301.768 206.7C292.938 207.244 285.568 200.433 282.844 194.69C277.78 184.028 284.912 169.088 295.858 167.573V167.566Z" fill="black"/>
<path d="M248.811 222.121C250.899 216.699 257.054 215.143 261.957 213.769C265.101 212.917 268.65 212.806 271.562 212.729C276.466 212.596 281.391 212.52 286.365 213.357C288.95 213.769 291.541 214.613 293.958 215.716C294.971 216.155 296.354 216.853 297.297 217.781C301.572 222.149 299.302 228.52 296.543 232.777C288.956 244.766 274.671 251.576 261.895 242.916C255.719 238.632 246.002 230.739 248.818 222.121H248.811ZM256.341 224.969C256.215 225.269 256.222 225.576 256.32 226.001C257.026 228.569 259.037 230.788 261.021 232.896C263.885 235.715 267.197 238.667 271.046 239.734C276.906 241.458 282.935 238.401 286.931 234.166C289.466 231.444 292.142 227.934 292.533 224.215C292.568 223.545 292.4 223.189 292.324 223.071C292.051 222.945 291.653 222.729 291.094 222.526C287.161 220.851 283.04 220.656 278.723 220.663C273.379 220.831 267.497 220.81 262.453 222.331C260.651 222.833 258.527 223.391 257.123 224.264C256.718 224.508 256.537 224.689 256.341 224.962V224.969Z" fill="black"/>
<path d="M278.534 244.486C278.373 252.958 275.453 261.381 270.368 268.24C269.006 270.138 266.351 270.557 264.465 269.168C262.453 267.71 262.174 264.751 263.878 262.937C266.239 260.39 268.244 257.466 269.753 254.27C271.269 251.074 272.296 247.606 272.778 244.033C273.351 240.46 278.527 240.879 278.534 244.486Z" fill="black"/>
<path d="M154.583 123.423C145.103 111.804 134.639 100.981 123.315 91.1486C119.452 87.9317 114.004 84.1914 109.198 81.3652C104.287 78.4274 99.0337 75.6362 93.8364 73.3543C90.2319 71.9517 87.3119 70.6119 84.3291 72.4053C80.5499 75.1058 79.5789 81.2117 78.7197 85.7894C78.2517 88.3364 77.6579 91.7696 77.4623 94.2957C77.0292 97.5894 76.8825 101.7 76.7428 105.035C76.7428 106.305 76.7707 110.157 76.7707 111.504C76.8406 113.025 77.0502 116.521 77.127 117.966C78.3146 131.315 81.0249 144.629 85.9707 157.106C86.0755 157.364 86.2711 157.916 86.3619 158.181L86.1453 157.518C88.6881 163.345 91.601 169.011 94.9471 174.405C96.0229 176.149 95.9461 178.208 95.0519 179.904C86.334 196.219 84.3081 215.709 89.1072 233.587C89.6102 235.199 89.226 236.971 88.1921 238.178C81.9889 245.547 74.1651 247.403 65.1259 244.144L64.7277 244.033C64.6578 244.005 64.7277 244.033 65.0839 243.949C65.3145 243.907 65.5729 243.782 65.8244 243.649C66.5998 243.195 67.2844 242.302 67.1866 241.374C67.1726 241.318 67.1866 241.36 67.1656 241.353C67.1447 241.339 67.1586 241.395 67.1656 241.444C68.2763 245.282 71.5805 248.855 75.1012 250.941C78.4822 252.944 82.5967 253.998 86.8159 254.291C88.1432 254.367 89.1561 255.519 89.0653 256.845C88.9815 258.073 87.9616 259.022 86.7601 259.064C76.5402 259.58 66.1877 255.4 60.7878 246.119C57.3579 240.697 60.0194 234.738 66.7605 236.001C72.7261 237.334 76.3307 237.124 79.9492 231.779L79.0341 236.371C76.156 226.253 75.0593 215.583 76.0233 205.025C76.9454 194.467 79.9422 184.084 84.7203 174.607L84.8251 180.106C81.6606 174 78.4612 166.673 76.3446 160.728C72.5794 149.263 70.3929 137.302 69.2543 125.321C68.1715 111.692 68.5697 97.7918 71.4757 84.3588C73.3199 73.4729 78.4403 61.5194 91.9713 65.3434C96.5678 66.7181 100.633 68.979 104.769 71.1073C112.159 74.9942 119.278 79.3904 125.942 84.4286C131.956 89.2296 138.739 95.5099 144.866 101.413C150.412 106.738 155.714 112.306 160.926 117.959C164.642 122.334 158.355 127.735 154.583 123.43V123.423Z" fill="black"/>
<path d="M218.507 94.212C225.123 93.3955 231.829 93.5351 238.339 94.6446C244.857 95.7402 251.165 97.7918 257.033 100.667C258.437 101.358 259.023 103.053 258.332 104.463C257.668 105.81 256.076 106.396 254.713 105.838C249.153 103.591 243.306 102.16 237.41 101.602C231.514 101.03 225.57 101.344 219.821 102.481C214.134 103.367 212.807 95.1331 218.507 94.212Z" fill="black"/>
<path d="M239.925 97.1149C254.112 80.8558 268.586 64.6944 285.366 50.9196C295.411 42.162 306.434 40.3337 310.898 55.3716C314.349 67.7369 315.913 80.5976 316.305 93.3956C316.731 108.064 315.04 122.892 310.618 136.946C308.837 142.229 301.097 139.884 302.613 134.469C310.374 111.308 310.206 86.0825 305.568 62.273C302.983 49.2518 300.119 47.3677 289.25 55.8461C272.589 68.993 257.982 84.6868 243.697 100.416C241.483 102.788 237.836 99.6898 239.925 97.1149Z" fill="black"/>
<path d="M292.156 114.183C291.429 116.689 291.269 118.991 292.456 121.141C293.832 123.381 296.012 124.232 298.569 125.795C302.39 127.951 306.239 130.777 309.263 134.064C310.835 135.711 312.309 137.539 313.587 139.64C316.179 143.896 317.332 149.011 317.066 153.938C316.968 156.269 314.985 158.083 312.644 157.95C310.241 157.832 308.425 155.676 308.705 153.296C309.389 147.916 307.405 142.912 303.836 138.879C301.342 135.844 298.478 133.492 295.139 131.315C293.441 130.163 291.513 129.033 289.592 127.205C285.596 123.464 285.128 117.212 287.07 112.467C288.356 109.243 293.099 110.855 292.149 114.19L292.156 114.183Z" fill="black"/>
<path d="M130.028 136.514C124.733 121.245 115.436 107.47 102.827 97.3173C98.6493 93.9398 94.1715 90.9043 89.4493 88.2526C88.1291 87.5199 87.654 85.8522 88.3945 84.5403C89.0861 83.3121 90.6019 82.8306 91.8663 83.3819C102.512 88.0433 112.041 95.2727 119.522 104.184C126.997 113.081 132.466 123.757 135.058 135.076C135.715 138.286 131.181 139.598 130.035 136.514H130.028Z" fill="black"/>
<path d="M265.695 105.614C268.321 89.5785 278.143 74.729 290.745 64.6735C293.602 62.5312 297.088 66.3203 294.712 68.972C289.571 74.5266 284.884 80.4232 280.958 86.871C277.004 93.3188 273.91 100.116 270.878 107.08C269.599 109.969 265.261 108.72 265.688 105.614H265.695Z" fill="black"/>
<path d="M273.888 114.567C271.667 106.954 278.967 99.306 286.651 100.436C287.671 100.576 288.614 100.792 289.62 101.253C291.366 102.014 291.115 104.686 289.292 105.126C287.894 105.482 286.323 105.796 285.009 106.382C281.335 107.882 279.4 111.113 278.059 114.735C277.311 116.654 274.468 116.514 273.881 114.567H273.888Z" fill="black"/>
<path d="M213.408 173.986C220.379 170.19 229.419 175.675 229.964 183.421C230.047 184.446 230.033 185.409 229.796 186.491C229.426 188.361 226.757 188.689 225.94 187C225.29 185.709 224.648 184.244 223.795 183.093C221.546 179.834 217.969 178.634 214.141 178.103C212.101 177.782 211.633 174.977 213.408 173.993V173.986Z" fill="black"/>
<path d="M122.023 143.157C119.194 141.998 117.734 139.368 116.253 136.89C115.813 136.039 115.387 135.174 115.086 134.211C114.653 132.822 115.429 131.343 116.819 130.91C118.635 130.338 120.046 131.95 121.297 132.948C122.68 134.253 123.986 135.627 124.992 137.239C125.467 138.07 125.865 138.956 125.998 140.044C126.319 142.194 124.021 143.959 122.023 143.15V143.157Z" fill="black"/>
<path d="M108.876 140.589L119.187 145.376C121.827 146.52 122.212 150.33 119.906 152.012C114.695 156.359 110.127 161.579 106.452 167.441C104.405 170.567 99.7042 167.978 101.241 164.587C104.503 157.797 108.862 151.461 114.157 145.92L114.877 152.556L105.796 145.725C102.952 143.527 105.628 139.123 108.883 140.589H108.876Z" fill="black"/>
<path d="M328.753 202.471C339.357 210.656 345.518 223.936 343.779 237.425C342.675 246.573 338.973 254.57 334.942 262.518C333.824 264.577 332.553 266.81 331.296 268.77C316.612 291.54 293.574 307.925 269.243 319.069C268.146 319.571 266.847 319.083 266.351 317.987C265.869 316.927 266.302 315.691 267.315 315.154C278.22 309.425 288.642 302.824 298.233 295.238C310.081 285.811 320.817 274.737 328.334 261.548C335.424 248.729 341.907 234.298 336.199 219.735C334.083 214.222 330.548 209.421 326.252 205.36C324.527 203.699 326.818 200.992 328.753 202.464V202.471Z" fill="black"/>
<path d="M71.7061 249.315C73.5783 256.175 77.6927 262.392 83.4349 266.544C89.0792 270.627 96.2463 272.755 103.169 272.755C109.065 272.95 109.079 281.464 103.169 281.673C98.6843 281.478 94.3323 280.577 90.134 279.049C77.7277 274.744 68.0317 263.69 65.3912 250.864C64.6018 246.74 70.5046 245.296 71.7061 249.322V249.315Z" fill="black"/>
<path d="M74.5424 225.771C76.156 228.311 78.9363 230.021 81.8772 230.244C87.4237 230.879 86.781 238.89 81.2066 238.639C78.2657 238.157 75.5134 236.706 73.2989 234.843C71.315 233.14 69.7643 231.019 68.7653 228.688C67.2634 224.927 72.4397 222.352 74.5494 225.771H74.5424Z" fill="black"/>
<path d="M286.588 307.674C288.488 323.074 299.295 392.374 299.728 406.491C299.896 409.883 299.91 413.316 299.707 416.756C298.876 434.173 291.478 450.963 280.197 464.117C278.695 465.875 276.047 466.085 274.287 464.584C272.485 463.056 272.317 460.321 273.91 458.583C278.164 453.915 281.873 448.772 284.87 443.224C289.39 434.906 292.24 425.723 293.022 416.268C293.902 406.554 292.987 396.889 292.051 387.106C292.051 387.078 283.592 308.064 283.592 308.043C283.403 306.236 286.197 305.608 286.588 307.674Z" fill="black"/>
<path d="M97.9926 278.24C79.6765 308.162 65.447 340.687 57.1342 374.796C52.901 392.639 48.563 412.827 52.7194 430.775C59.2718 454.11 78.4052 472.972 100.235 482.727C119.711 491.415 141.457 492.734 162.483 494.123C170.3 494.555 178.166 494.59 186.255 495.023C194.749 495.581 203.481 496.307 211.186 500.996C219.855 506.09 224.2 517.255 225.444 523.403C226.282 527.548 226.142 532.265 225.29 536.34C224.494 540.332 223.558 543.842 222.943 547.45C222.447 550.178 222.112 552.851 221.825 555.635C221.266 561.769 220.135 567.986 222 573.66C223.558 578.314 226.722 582.229 230.641 585.181C234.93 588.474 239.841 590.7 244.787 592.954C251.039 595.732 257.619 598.928 264.535 598.474C272.387 597.972 278.499 590.693 279.931 583.255C281.209 577.177 278.841 570.61 274.538 565.684C270.214 560.701 263.948 557.442 257.326 556.34C254.972 555.942 253.414 553.66 253.917 551.33C258.052 541.239 260.63 530.493 260.749 519.565C260.763 517.939 260.721 514.673 260.665 513.047C260.476 506.579 260.106 500.529 257.871 494.66C252.799 481.046 238.451 473.886 224.396 472.867C222.07 472.707 220.33 470.676 220.512 468.359C220.694 466.057 222.705 464.333 225.011 464.521C229.831 464.891 234.567 465.833 239.156 467.389C248.447 470.453 257.095 476.517 262.348 484.96C267.692 493.202 268.88 503.453 269.041 512.824C269.711 526.808 267.378 540.96 261.873 553.842C261.873 553.842 258.674 548.064 258.709 548.085C274.049 550.395 288.565 563.569 288.53 579.807C288.467 590.505 281.999 600.916 271.96 605.103C267.797 606.862 262.928 607.141 258.555 606.443C250.494 605.117 243.376 601.44 236.062 598.083C226.485 593.61 217.431 586.744 214.015 576.325C211.899 570.38 212.535 563.402 213.107 557.61C213.478 553.765 213.904 549.78 214.581 545.97C215.706 538.685 218.528 532.209 217.047 525.022L216.97 524.212C216.956 524.464 217.005 524.827 217.04 524.987L217.026 524.917C216.977 524.694 216.831 524.094 216.768 523.857C212.066 506.844 201.944 504.569 185.78 503.669C170.118 503.083 153.856 502.873 138.125 501.143C120.863 499.44 103.344 495.79 88.0312 487.298C66.9908 475.819 49.2825 456.734 42.6532 433.406C35.4511 405.186 47.8574 364.559 57.9236 337.777C66.6276 315.35 77.7276 293.864 90.9163 273.746C94.0528 269.294 100.738 273.397 97.9926 278.233V278.24Z" fill="black"/>
<path d="M333.685 579.856C324.107 579.856 314.495 574.413 307.433 570.415C298.701 565.467 284.087 557.191 281.677 542.321C280.846 537.171 281.957 533.968 283.13 530.577C284.206 527.478 285.429 523.961 285.848 517.29C286.309 510.061 286.875 501.059 281.95 493.299C278.254 487.473 272.743 484.388 268.349 482.769L257.235 486.9C255.069 487.71 252.652 486.607 251.842 484.437C251.032 482.267 252.135 479.859 254.308 479.05L266.833 474.396C267.713 474.068 268.677 474.047 269.578 474.333C275.46 476.217 283.605 480.257 289.033 488.812C295.418 498.875 294.726 509.824 294.216 517.821C293.72 525.629 292.177 530.074 291.052 533.319C290.025 536.285 289.459 537.911 289.955 540.974C291.723 551.881 303.668 558.65 311.568 563.123C320.335 568.091 332.343 574.888 341.006 569.424C347.516 565.314 348.773 556.591 348.829 556.221C350.338 545.168 341.334 536.696 337.394 533.563C333.363 530.36 328.453 528.281 323.199 527.548C321.844 527.36 320.664 526.522 320.042 525.301C319.42 524.08 319.434 522.635 320.077 521.428C324.429 513.271 326.839 504.157 327.048 495.079C327.195 488.722 327.544 473.823 317.366 462.135C306.944 450.153 292.428 449.428 288.23 449.484C285.925 449.525 284.011 447.669 283.976 445.359C283.941 443.05 285.792 441.145 288.104 441.117C293.217 441.033 310.891 441.947 323.688 456.65C335.997 470.788 335.592 487.954 335.424 495.288C335.222 503.871 333.307 512.461 329.85 520.444C334.509 521.805 338.84 524.031 342.598 527.018C347.663 531.044 359.21 542.049 357.121 557.359C356.94 558.678 355.081 570.436 345.476 576.507C341.676 578.907 337.673 579.856 333.678 579.856H333.685Z" fill="black"/>
<path d="M256.418 583.073C260.127 588.439 261.566 595.313 260.595 601.796C259.631 607.273 251.675 606.164 252.261 600.623C252.932 598.153 253.442 595.613 253.225 592.989C253.079 590.596 252.457 588.195 251.381 585.969C249.893 582.724 254.371 580.17 256.418 583.066V583.073Z" fill="black"/>
<path d="M269.732 573.89C275.642 579.773 279.924 587.895 280.343 596.318C280.399 600.156 275.069 601.147 273.707 597.609C273.036 595.836 272.498 594.071 271.905 592.326C270.242 587.072 268.056 582.068 265.317 577.253C263.808 574.434 267.434 571.706 269.732 573.883V573.89Z" fill="black"/>
<path d="M338.637 544.177C346.636 550.122 351.19 560.024 351.232 569.919C351.26 572.236 349.402 574.134 347.083 574.162C344.624 574.204 342.633 572.069 342.85 569.619C343.164 565.823 342.668 561.908 341.327 558.322C339.986 554.707 337.771 551.371 334.851 548.727C332.141 546.152 335.606 541.993 338.631 544.17L338.637 544.177Z" fill="black"/>
<path d="M330.632 558.824C333.692 563.576 335.201 569.347 335.082 575.041C335.054 577.372 333.133 579.235 330.807 579.207C328.138 579.207 326.106 576.598 326.748 574.016C327.733 569.871 327.566 565.356 325.994 561.134C324.953 558.21 328.949 556.256 330.632 558.831V558.824Z" fill="black"/>
<path d="M131.949 353.618C128.568 372.117 128.422 391.146 131.488 409.694C132.676 417.593 134.317 425.458 136.93 432.952C143.93 452.498 157.202 470.634 174.31 482.448C181.637 487.256 189.901 490.592 198.654 490.054C204.452 489.796 210.753 487.982 214.595 484.067C217.683 481.074 219.583 476.496 219.89 472.309C220.449 459.769 205.682 454.584 195.078 453.622C192.654 453.419 190.251 453.51 187.855 453.873C185.968 454.18 184.159 453.161 183.391 451.507C173.325 429.896 170.125 405.068 174.827 381.684C175.658 378.055 181.002 378.851 180.666 382.612C180.331 385.417 180.073 388.222 179.905 391.028C179.465 399.401 179.8 407.852 181.155 416.121C182.888 427.132 186.213 437.872 191.005 447.927L186.541 445.562C200.45 443.357 220.826 448.855 226.911 462.805C230.648 471.325 228.147 481.555 222.461 488.547C216.803 495.414 207.749 498.372 199.192 498.735C176.671 499.754 157.838 482.413 145.313 465.526C133.214 449.323 126.452 430.733 124.216 410.727C121.436 391.397 122.037 371.538 126.249 352.48C127.171 348.859 132.48 349.849 131.942 353.618H131.949Z" fill="black"/>
<path d="M207.589 466.608C212.709 469.26 217.557 473.586 220.051 479.085C220.959 481.06 221.609 483.223 221.888 485.463C222.203 487.766 220.582 489.887 218.277 490.201C215.971 490.515 213.848 488.896 213.534 486.593C213.485 484.96 213.54 483.362 213.058 481.709C211.871 477.208 208.853 473.544 205.06 470.599C202.769 468.827 205.018 465.31 207.582 466.615L207.589 466.608Z" fill="black"/>
<path d="M198.591 478.931C202.287 482.916 205.507 487.64 207.554 493.083C209.356 498.359 201.833 501.22 199.667 496.07C198.738 491.311 197.076 486.621 194.26 482.232C192.563 479.413 196.335 476.559 198.584 478.931H198.591Z" fill="black"/>
<path d="M152.571 539.132C139.102 539.132 127.129 537.652 107.758 535.259C73.5013 531.03 48.3184 525.441 32.9153 518.644C19.9222 512.915 16.0452 507.346 14.1172 503.139C12.2172 498.986 11.7771 495.672 11.2671 491.827C10.6245 486.998 10.0028 482.385 9.402 477.892C3.4084 433.385 -0.922629 401.223 0.167115 340.052C0.320797 331.392 0.579261 316.899 10.5616 305.929C16.0732 299.879 22.7863 296.732 40.4876 291.924C55.786 287.765 71.6501 284.394 87.654 281.91C89.9383 281.547 92.0828 283.117 92.4391 285.406C92.7954 287.695 91.2306 289.83 88.9393 290.186C73.2428 292.622 57.686 295.929 42.6881 300.005C26.6213 304.373 21.0469 306.857 16.7648 311.567C8.90602 320.206 8.68947 332.244 8.54278 340.206C7.46002 400.741 11.7561 432.638 17.7008 476.782C18.3086 481.283 18.9303 485.902 19.559 490.675C20.041 494.29 20.3483 496.642 21.7315 499.656C28.3747 514.157 72.7399 522.503 108.778 526.955C132.802 529.921 144.076 531.212 159.521 530.625C179.989 529.858 200.338 526.355 219.988 520.214C222.195 519.523 224.55 520.751 225.241 522.963C225.933 525.168 224.703 527.52 222.496 528.211C202.133 534.575 181.051 538.204 159.843 538.999C157.342 539.09 154.932 539.139 152.564 539.139L152.571 539.132Z" fill="black"/>
<path d="M264.731 513.522C262.963 513.522 261.322 512.399 260.742 510.626C260.029 508.428 261.231 506.062 263.431 505.351L288.223 497.312C290.423 496.6 292.792 497.8 293.504 499.998C294.217 502.196 293.015 504.562 290.815 505.274L266.023 513.313C265.59 513.452 265.157 513.515 264.731 513.515V513.522Z" fill="black"/>
<path d="M55.0596 658.13H54.9618C49.5829 658.116 44.3298 657.028 39.3561 654.885C37.8891 654.257 36.9112 652.848 36.8273 651.257C35.6049 627.503 34.8225 603.401 34.4942 579.619C34.2078 558.671 34.2636 537.429 34.6688 516.481C34.7107 514.171 36.6178 512.336 38.937 512.378C41.2492 512.419 43.0934 514.331 43.0445 516.648C42.6393 537.499 42.5834 558.65 42.8698 579.507C43.1842 602.277 43.9177 625.347 45.0563 648.117C48.2627 649.205 51.5878 649.756 54.9828 649.763C57.302 649.749 59.5932 649.519 61.8495 649.017L62.4154 524.359C62.4223 522.056 64.3015 520.193 66.6067 520.193H66.6276C68.9399 520.2 70.812 522.084 70.798 524.401L70.2182 652.234C70.2112 654.041 69.0446 655.639 67.3262 656.197C63.3514 657.488 59.223 658.144 55.0666 658.144L55.0596 658.13Z" fill="black"/>
<path d="M169.615 670C168.302 670 166.933 669.909 165.501 669.714C158.935 668.793 154.135 665.89 151.264 663.622C150.3 662.861 149.721 661.71 149.679 660.482L145.606 538.441C145.529 536.131 147.339 534.191 149.658 534.115C151.97 534.045 153.912 535.852 153.989 538.162L157.991 658.151C160.066 659.512 162.979 660.907 166.668 661.424C170.042 661.891 172.989 661.494 175.295 660.852L176.335 535.943C176.356 533.64 178.229 531.791 180.527 531.791H180.562C182.874 531.812 184.739 533.703 184.718 536.013L183.649 663.859C183.635 665.534 182.629 667.034 181.086 667.683C178.389 668.821 174.421 670 169.608 670H169.615Z" fill="black"/>
<path d="M142.539 645.856C139.515 645.856 136.497 645.437 133.542 644.614C131.733 644.104 130.482 642.457 130.482 640.58L130.594 534.108C130.594 531.798 132.473 529.928 134.786 529.928C137.098 529.928 138.977 531.805 138.97 534.121L138.858 637.217C140.653 637.489 142.456 637.559 144.258 637.433C145.934 637.314 147.604 637.021 149.232 636.561C151.46 635.933 153.772 637.224 154.408 639.45C155.037 641.676 153.744 643.985 151.516 644.62C149.343 645.235 147.101 645.625 144.852 645.786C144.083 645.842 143.308 645.87 142.532 645.87L142.539 645.856Z" fill="black"/>
<path d="M286.008 652.345C285.624 652.345 285.24 652.338 284.842 652.317C277.675 651.955 272.68 648.403 270.34 646.323C269.488 645.563 268.985 644.495 268.943 643.35L267.357 600.951C267.273 598.641 269.075 596.695 271.388 596.611C273.707 596.527 275.649 598.327 275.733 600.637L277.249 641.117C279.009 642.367 281.74 643.769 285.268 643.944C289.927 644.188 293.497 642.136 295.418 640.671L295.767 560.876C295.774 558.573 297.653 556.71 299.959 556.71H299.98C302.292 556.717 304.164 558.601 304.15 560.918L303.794 642.625C303.794 643.755 303.326 644.837 302.508 645.625C300.825 647.244 294.81 652.338 286.008 652.338V652.345Z" fill="black"/>
<path d="M270.885 561.287C270.885 561.287 270.815 561.287 270.78 561.287C268.468 561.232 266.638 559.313 266.687 557.003L267.881 506.851C267.937 504.541 269.837 502.699 272.17 502.762C274.482 502.818 276.313 504.737 276.264 507.046L275.069 557.198C275.013 559.473 273.148 561.287 270.878 561.287H270.885Z" fill="black"/>
<path d="M41.2004 480.111C39.0418 480.111 37.2046 478.45 37.03 476.266L25.3921 334.079C25.2035 331.776 26.9219 329.752 29.2271 329.564C31.5324 329.39 33.5582 331.092 33.7468 333.395L45.3847 475.582C45.5733 477.885 43.8549 479.908 41.5496 480.097C41.4309 480.104 41.3191 480.111 41.2004 480.111Z" fill="black"/>
<path d="M152.124 512.657H152.075C134.779 512.447 117.42 510.598 100.48 507.151C82.0099 503.39 63.8544 497.703 46.5233 490.236C44.3997 489.322 43.4148 486.859 44.3368 484.73C45.252 482.609 47.7178 481.625 49.8484 482.546C66.6487 489.782 84.2522 495.302 102.156 498.945C118.579 502.287 135.407 504.088 152.173 504.283C154.485 504.311 156.343 506.209 156.315 508.519C156.287 510.814 154.415 512.657 152.124 512.657Z" fill="black"/>
<path d="M232.953 247.934C215.93 252.567 199.57 258.931 183.489 266.147C182.504 266.572 181.351 266.119 180.932 265.128C180.555 264.256 180.869 263.265 181.631 262.755C189.154 257.724 197.411 253.844 205.926 250.788C214.435 247.745 223.258 245.477 232.234 244.354C234.448 244.117 235.098 247.278 232.96 247.927L232.953 247.934Z" fill="black"/>
<path d="M227.337 258.582C221.057 262.902 211.766 268.596 205.27 272.748C197.872 277.416 190.656 282.273 183.209 286.907C182.28 287.486 181.058 287.193 180.478 286.265C179.989 285.469 180.129 284.471 180.757 283.836C187.086 277.514 194.246 272.099 201.735 267.242C209.251 262.413 217.18 258.178 225.632 255.212C227.721 254.514 229.146 257.333 227.337 258.589V258.582Z" fill="black"/>
<path d="M304.835 238.604C321.502 228.332 343.353 228.241 361.166 235.638C362.34 236.134 362.891 237.48 362.395 238.653C361.934 239.755 360.705 240.3 359.587 239.958C355.221 238.604 350.792 237.55 346.315 236.88C337.366 235.513 328.229 235.868 319.378 237.801C314.936 238.722 310.549 239.972 306.092 241.332C304.429 241.842 303.361 239.532 304.835 238.604Z" fill="black"/>
<path d="M312.26 245.408C326.553 245.226 340.971 247.641 354.299 252.825C355.305 253.223 355.801 254.361 355.403 255.372C355.04 256.286 354.062 256.775 353.132 256.559C349.737 255.777 346.35 255.037 342.962 254.347C339.574 253.656 336.165 253.056 332.756 252.511C325.924 251.444 319.05 250.767 312.141 250.299C309.047 250.013 309.152 245.554 312.26 245.408Z" fill="black"/>
<path d="M319.441 258.157C324.771 259.343 329.948 261.199 334.886 263.509C339.825 265.826 344.561 268.617 348.809 272.022C349.654 272.699 349.794 273.934 349.109 274.786C348.515 275.525 347.488 275.721 346.671 275.302C342.019 272.915 337.387 270.578 332.616 268.477C327.859 266.384 323.004 264.57 318.093 262.867C315.222 261.813 316.438 257.543 319.434 258.157H319.441Z" fill="black"/>
<path d="M251.465 347.044C252.226 352.152 252.219 357.365 251.556 362.48C251.437 363.408 252.436 364.211 253.288 364.211C254.322 364.211 254.902 363.408 255.021 362.48C255.726 357.03 255.614 351.559 254.804 346.123C254.664 345.195 253.498 344.686 252.673 344.916C251.681 345.188 251.325 346.116 251.465 347.044Z" fill="black"/>
<path d="M233.533 349.682C233.743 352.913 233.645 356.158 233.24 359.375C233.128 360.275 234.12 361.147 234.972 361.105C236.006 361.056 236.586 360.338 236.704 359.375C237.11 356.158 237.207 352.913 236.998 349.682C236.942 348.782 236.243 347.91 235.265 347.951C234.378 347.993 233.47 348.712 233.533 349.682Z" fill="black"/>
<path d="M249.006 387.65C249.397 392.039 249.313 396.45 248.755 400.825C248.636 401.753 249.635 402.555 250.487 402.555C251.521 402.555 252.101 401.753 252.219 400.825C252.771 396.457 252.855 392.039 252.471 387.65C252.387 386.722 251.73 385.92 250.738 385.92C249.865 385.92 248.922 386.715 249.006 387.65Z" fill="black"/>
<path d="M233.219 390.755C232.779 395.277 232.101 399.764 231.2 404.223C231.018 405.137 231.465 406.093 232.408 406.352C233.261 406.589 234.357 406.066 234.539 405.144C235.496 400.392 236.209 395.584 236.677 390.762C236.767 389.827 235.817 389.032 234.944 389.032C233.931 389.032 233.303 389.827 233.212 390.762L233.219 390.755Z" fill="black"/>
<path d="M106.815 75.1826C104.901 70.7166 99.313 56.1113 104.517 39.0148C105.614 35.4071 109.016 24.7445 119.145 16.0986C126.661 9.68568 134.345 7.40383 138.956 6.08496C143.315 4.84285 150.915 2.67265 160.346 4.04734C174.275 6.08496 183.258 14.5634 187.415 18.4921C196.349 26.9217 201.148 36.8516 205.018 44.8556C206.38 47.6747 207.393 50.0612 208.064 51.7011C210.16 49.3844 214.749 44.9532 221.979 42.7691C224.745 41.9317 235.762 38.6031 242.866 44.702C247.777 48.9168 248.217 55.4135 248.566 60.5355C249.46 73.6823 243.11 83.6122 241.322 86.3267C235.782 94.7284 229.181 98.692 218.905 104.686C207.177 111.532 190.293 121.392 168.288 119.682C161.331 119.138 155.735 117.589 152.11 116.368C144.88 107.331 135.491 97.2196 123.49 87.3943C117.769 82.705 112.152 78.6647 106.815 75.1756V75.1826Z" fill="#FF9D33"/>
<path d="M158.935 113.214C159.717 112.795 160.443 112.795 161.275 112.83L163.259 112.844C174.491 112.788 185.703 111.127 196.412 107.764C203.977 105.524 211.298 102.732 217.969 98.5454C224.578 94.4841 230.18 89.0831 234.86 82.9562C240.554 75.5803 245.967 66.0901 243.054 56.8789C241.818 52.9921 239.017 48.8331 235.447 47.0327C229.195 43.9972 222.692 49.6495 217.459 52.9153C205.863 60.7029 193.89 67.6601 181.714 74.4429C174.303 78.6507 166.486 82.5166 158.271 84.9031C147.22 88.2108 135.743 89.6413 124.391 89.6623L126.85 82.1119C138.537 90.7508 149.169 100.841 158.404 112.055L159.326 113.179L159.438 113.318C159.312 113.179 159.116 113.172 158.921 113.22L158.935 113.214ZM154.995 120.603C153.828 119.759 152.85 118.475 151.942 117.359L150.161 115.237C141.778 105.391 132.271 96.5148 121.869 88.8249C120.011 87.4502 119.62 84.8264 120.996 82.9702C121.813 81.8746 123.057 81.2885 124.328 81.2745C135.016 81.1419 145.648 79.6765 155.7 76.5503C163.322 74.2475 170.447 70.57 177.328 66.5785C189.182 59.8795 201.022 52.9153 212.255 45.2673C220.17 39.7057 229.691 33.6486 239.597 38.5962C245.939 41.827 249.844 47.5282 252.052 53.969C255.167 63.2569 252.254 73.4101 247.386 81.4769C241.252 91.5394 233.065 100.423 223.048 106.64C220.568 108.196 217.976 109.62 215.336 110.876C199.709 118.084 182.441 122.229 165.201 121.692C161.869 121.552 158.222 121.462 154.995 120.603Z" fill="black"/>
<path d="M124.37 89.6553C123.63 89.6553 122.896 89.4599 122.247 89.0831L104.699 78.7973C103.861 78.3088 103.218 77.5412 102.883 76.6271C100.661 70.577 99.5086 64.3525 99.4737 58.135C99.3409 36.091 112.446 9.75546 137.733 2.08647C167.31 -6.88045 191.173 15.7148 195.658 20.3343C206.255 31.2551 210.683 43.8367 212.528 52.4617C212.87 54.0458 212.255 55.6856 210.97 56.6696C200.736 64.4502 189.615 71.0097 177.907 76.1735C161.093 83.5913 143.196 88.1201 124.712 89.6343C124.601 89.6413 124.482 89.6483 124.37 89.6483V89.6553ZM110.266 72.3495L125.341 81.1838C142.428 79.6416 158.969 75.3849 174.526 68.5184C184.809 63.9827 194.617 58.3024 203.726 51.6313C201.819 44.2833 197.858 34.6256 189.65 26.1611C187.268 23.7048 165.627 2.37956 140.178 10.0974C119.04 16.5103 107.752 39.608 107.863 58.0791C107.891 62.8522 108.702 67.6462 110.273 72.3495H110.266Z" fill="black"/>
<path d="M106.843 70.4444C135.917 53.2642 168.135 41.3246 201.225 34.6744C203.502 34.2348 205.703 35.7211 206.143 37.996C206.555 40.1383 205.263 42.2108 203.209 42.8109C195.287 45.1835 187.387 47.577 179.563 50.1799C163.908 55.3507 148.512 61.2402 133.368 67.7509C125.788 71.0027 118.279 74.408 110.748 77.8482C105.921 79.9068 102.394 73.2845 106.837 70.4444H106.843Z" fill="black"/>
<path d="M108.317 72.6914C117.867 67.4648 128.471 62.266 140.129 57.3883C163.119 47.7794 184.578 41.7991 203.09 38.017C204.138 43.2855 205.186 48.554 206.234 53.8225C197.145 60.8076 184.753 69 169.022 76.0897C153.458 83.0958 139.256 86.9338 128.079 89.1249C121.492 83.6471 114.905 78.1692 108.31 72.6914H108.317Z" fill="black"/>
<path d="M136.197 536.424C140.332 536.815 144.467 537.199 148.61 537.59C149.742 572.201 150.873 606.82 152.005 641.431C147.967 641.878 143.923 642.332 139.885 642.778C137.545 642.136 135.205 641.494 132.865 640.852C133.975 606.045 135.086 571.238 136.197 536.431V536.424Z" fill="black"/>
<path d="M271.129 161.412C276.885 154.887 284.73 153.491 289.327 152.682C293.008 152.033 302.222 150.526 312.155 155.089C314.398 156.122 330.464 163.84 332.672 181.488C334.306 194.579 327.572 207.181 317.08 213.573C303.374 221.926 288.705 216.323 284.346 214.655C279.861 212.938 268.635 208.654 264.311 197.719C261.196 189.848 263.131 182.269 265.08 174.628C266.351 169.639 267.539 165.48 271.122 161.412H271.129Z" fill="#FFF3DC"/>
<path d="M278.709 158.006C267.455 164.601 263.271 181.257 267.658 193.385C270.235 200.636 275.726 206.777 282.439 210.552C286.218 212.701 290.305 214.062 294.678 214.494C306.832 216.092 319.707 211.773 325.644 200.699C330.129 192.478 330.017 182.039 326.629 173.414C323.716 166.366 317.96 160.574 311.247 157.05L311.75 157.274C309.012 156.318 306.211 155.585 303.368 155.138C300.524 154.685 297.653 154.475 294.796 154.566C289.39 154.88 283.382 155.403 278.716 158.006H278.709ZM274.517 150.826C279.044 148.076 284.465 147.051 289.592 146.604C297.989 145.753 306.567 146.981 314.426 149.974C318.324 151.928 321.747 154.685 324.778 157.755C328.767 161.858 331.876 166.855 333.734 172.291C337.569 184.523 336.193 198.982 327.524 208.912C319.42 218.598 306.155 222.045 293.986 220.579C291.848 220.335 289.711 220 287.545 219.421C285.233 218.737 282.921 217.851 280.755 216.783C263.801 208.716 254.776 189.485 259.966 171.3C262.195 163.079 267.022 155.424 274.517 150.826Z" fill="black"/>
<path d="M289.872 167.476C299.721 166.108 311.792 175.821 312.596 186.317C313.259 195.074 306.176 205.709 295.746 206.351C286.98 206.888 279.659 200.126 276.941 194.418C271.905 183.825 278.995 168.983 289.865 167.476H289.872Z" fill="black"/>
<path d="M295.795 261.346C290.388 274.897 274.566 277.605 264.395 267.347L270.668 267.556C267.42 270.948 263.606 273.683 259.394 275.637C246.715 281.596 231.626 278.812 221.183 269.747C219.087 267.842 221.7 264.653 223.984 266.356C236.956 275.951 254.175 274.89 264.577 262.162L265.785 261.213C267.238 260.076 269.341 260.334 270.473 261.785C272.904 266.984 279.17 269.503 284.528 267.124C287.559 265.756 289.955 262.923 290.947 259.748C291.967 256.273 297.046 257.912 295.795 261.346Z" fill="black"/>
<path d="M280.462 270.745C271.025 279.049 266.205 287.402 263.662 294.597C261.224 301.498 261.364 305.95 258.143 307.157C252.625 309.23 242.098 299.921 238.821 289.084C237.131 283.487 237.669 278.449 238.311 275.295C240.316 275.532 242.552 275.616 244.955 275.4C256.069 274.409 263.795 267.779 267.141 264.472C268.161 265.595 269.697 267.026 271.842 268.247C275.314 270.229 278.618 270.647 280.469 270.745H280.462Z" fill="#E85834"/>
<path d="M282.104 269.796C281.775 270.578 281.552 271.303 280.979 272.19C280.078 273.474 278.834 274.485 277.821 275.679C271.968 282.015 267.434 289.586 265.15 297.911C263.934 301.658 263.829 306.801 259.98 309.16C255.552 311.539 250.592 308.832 247.19 306.166C241.099 301.163 236.705 294.206 235.321 286.446C234.644 282.538 234.826 278.54 235.622 274.744C235.901 273.341 237.229 272.406 238.626 272.58C248.587 273.997 258.513 269.678 265.618 262.797C266.526 261.932 267.986 262.009 268.796 262.958C271.625 266.265 275.789 268.366 280.127 268.763C280.839 268.763 281.712 269.217 282.097 269.796H282.104ZM278.611 271.262C278.569 271.904 279.323 272.664 279.938 272.664C279.924 272.664 279.854 272.664 279.84 272.664C274.42 272.385 269.166 269.957 265.464 265.979L268.719 266.07C262.9 272.113 255.07 276.67 246.603 277.849C243.753 278.296 240.84 278.323 237.983 278.002L240.987 275.839C238.877 285.518 243.152 295.727 250.627 301.931C252.527 303.375 255.112 305.343 257.417 304.631C258.213 304.108 258.569 302.789 258.947 301.679C259.443 300.081 259.911 298.281 260.476 296.516C262.67 289.391 266.561 282.762 271.486 277.2C273.4 275.044 275.425 273.006 277.605 271.122C277.745 271.01 277.787 271.052 277.961 271.101C278.108 271.164 278.345 271.241 278.625 271.262H278.611Z" fill="black"/>
<path d="M238.814 285.811C241.594 286.711 246.121 288.602 250.368 292.65C252.611 294.792 254.182 296.969 255.272 298.776" fill="#E85834"/>
<path d="M239.492 283.725C246.617 286.272 252.834 291.449 256.46 298.065C256.83 298.735 256.585 299.579 255.922 299.949C255.286 300.298 254.483 300.095 254.092 299.495C251.29 295.238 247.385 291.826 242.81 289.656C241.308 288.93 239.736 288.351 238.137 287.904C235.272 286.983 236.621 282.789 239.492 283.732V283.725Z" fill="black"/>
<path d="M245.541 285.748C252.485 280.64 260.553 287.06 263.976 293.096C264.27 293.571 264.116 294.192 263.641 294.485C263.201 294.757 262.635 294.645 262.321 294.248C260.434 291.91 258.066 289.768 255.342 288.595C252.939 287.542 250.305 287.458 248.454 289.342C245.96 291.554 242.859 287.737 245.548 285.748H245.541Z" fill="black"/>
<g style="mix-blend-mode:color-dodge">
<path d="M237.361 285.706C240.093 286.662 242.831 287.618 245.562 288.581C246.945 286.921 248.343 286.244 249.279 285.937C253.791 284.464 259.82 287.563 263.997 293.864C262.041 297.325 261.524 300.165 261.433 302.168C261.357 303.815 261.566 304.973 260.777 306.041C259.268 308.064 255.642 307.743 254.567 307.646C246.037 306.892 238.276 287.995 237.354 285.699L237.361 285.706Z" fill="#808080"/>
</g>
<path d="M264.255 313.647C260.644 319.948 252.324 321.393 246.435 317.276C244.591 316.019 243.047 314.352 241.972 312.419C241.504 311.574 241.804 310.514 242.649 310.039C244.472 309.076 245.45 311.421 246.673 312.293C248.517 313.912 250.836 315.133 253.253 315.433C256.634 315.929 259.778 314.463 262.244 312.098C263.291 311.037 265.01 312.37 264.255 313.64V313.647Z" fill="black"/>
<path d="M171.173 198.047C188.469 187.531 210.767 186.1 229.328 194.286C234.874 196.875 233.205 205.032 227.162 205.318C213.729 205.821 200.149 208.765 187.317 214.124C186.297 214.55 185.123 214.069 184.697 213.05C184.32 212.15 184.655 211.124 185.445 210.608C197.453 202.715 211.096 196.875 225.563 193.588L223.781 204.788C212.591 198.438 199.032 196.323 186.395 198.926C182.078 199.777 177.83 201.159 173.765 203.001C170.552 204.376 168.204 199.924 171.173 198.061V198.047Z" fill="black"/>
<path d="M371.588 309.279C368.829 308.378 366.398 308.022 365.539 309.167C363.883 311.365 367.795 319.557 372.308 319.941C377.777 320.409 382.59 309.279 380.628 307.025C379.398 305.615 375.228 307.367 371.588 309.279Z" fill="#D39281"/>
<path d="M361.012 301.128C363.024 300.033 365.685 301.247 366.545 303.229C367.579 305.608 365.839 308.671 363.555 309.006C361.99 309.237 360.474 308.134 359.769 306.892C358.749 305.092 358.979 302.238 361.012 301.128Z" fill="#D39281"/>
<path d="M369.039 293.396C371.588 292.112 375.78 294.506 376.352 297.862C376.751 300.179 375.444 303.096 373.069 303.724C370.38 304.429 367.655 301.84 367.02 299.223C366.51 297.13 367.152 294.345 369.039 293.403V293.396Z" fill="#D39281"/>
<path d="M380.327 297.674C378.113 298.434 377.205 302.119 378.728 303.857C379.636 304.889 381.207 305.022 382.325 304.75C383.855 304.38 385.301 303.061 385.392 301.498C385.525 299.132 382.5 296.927 380.327 297.674Z" fill="#D39281"/>
<path d="M162.253 178.166C166.255 174.803 172.885 170.016 182.106 166.659C189.552 163.952 197.977 160.888 207.121 163.17C221.469 166.757 231.626 182.004 233.324 196.714C233.603 199.101 235.286 216.169 222.782 228.953C206.199 245.91 181.239 238.401 179.193 237.746C175.316 236.51 162.022 232.268 155.148 218.765C154.122 216.741 147.527 203.26 153.793 189.317C156.28 183.783 159.899 180.162 162.253 178.159V178.166Z" fill="#FFF3DC"/>
<path d="M270.997 161.3C275.321 157.225 280.692 156.625 289.746 155.731C298.534 154.866 302.927 154.433 308.16 155.815C317.297 158.223 330.513 166.457 332.951 181.509C335.187 195.339 327.16 207.767 317.255 213.804C303.458 222.212 288.698 216.574 284.304 214.899C279.791 213.175 268.489 208.856 264.137 197.851C261 189.931 262.949 182.297 264.912 174.607C266.456 168.571 267.455 164.642 270.997 161.307V161.3Z" fill="#FFF3DC"/>
<path d="M199.856 179.415C209.985 179.555 218.612 190.838 219.415 200.915C220.058 208.954 216.097 220.761 205.703 223.189C194.784 225.743 182.65 216.588 179.849 206.916C176.175 194.251 188.057 179.248 199.863 179.408L199.856 179.415Z" fill="black"/>
<path d="M296.193 167.406C306.113 166.031 318.261 175.807 319.064 186.372C319.735 195.193 312.602 205.897 302.103 206.539C293.273 207.084 285.904 200.273 283.179 194.53C278.115 183.867 285.247 168.927 296.193 167.413V167.406Z" fill="black"/>
<path d="M278.876 244.326C278.716 252.797 275.796 261.22 270.71 268.08C269.348 269.978 266.694 270.396 264.807 269.008C262.796 267.549 262.516 264.59 264.221 262.776C266.582 260.229 268.587 257.305 270.096 254.109C271.611 250.913 272.645 247.445 273.12 243.872C273.693 240.3 278.869 240.718 278.876 244.326Z" fill="black"/>
<path d="M163.44 178.006C167.415 174.663 174.002 169.911 183.16 166.575C190.558 163.882 198.927 160.839 208.015 163.114C222.265 166.673 232.359 181.823 234.05 196.442C234.322 198.814 235.999 215.764 223.579 228.472C207.107 245.317 182.308 237.857 180.275 237.208C176.426 235.98 163.217 231.765 156.385 218.346C155.365 216.337 148.812 202.946 155.037 189.094C157.509 183.602 161.107 179.994 163.44 178.006Z" fill="#FFF3DC"/>
<path d="M271.465 161.258C277.221 154.733 285.066 153.338 289.662 152.528C293.343 151.879 302.557 150.372 312.491 154.936C314.733 155.969 330.8 163.686 333.007 181.334C334.642 194.425 327.908 207.028 317.416 213.42C303.71 221.773 289.04 216.169 284.681 214.501C280.197 212.785 268.971 208.5 264.647 197.565C261.531 189.694 263.466 182.116 265.415 174.475C266.687 169.485 267.874 165.326 271.458 161.258H271.465Z" fill="#FFF3DC"/>
<path d="M206.282 157.294C217.243 161.084 226.953 168.704 232.576 178.941C243.627 199.191 236.488 227.585 215.58 238.381C203.062 244.912 187.408 244.912 174.757 238.736C148.805 226.301 141.757 196.602 159.598 173.965C170.153 159.918 189.294 153.875 206.282 157.287V157.294ZM204.18 165.403C192.004 163.435 178.69 166.645 169.448 174.935C161.324 182.744 155.749 193.951 156.916 205.353C158.061 217.621 166.479 228.018 177.397 233.307C192.514 241.011 213.387 237.822 223.502 223.594C232.185 212.003 233.072 195.158 225.884 182.653C221.162 174.475 213.079 168.446 204.18 165.396V165.403Z" fill="black"/>
<path d="M279.044 157.846C267.79 164.447 263.606 181.097 267.993 193.225C270.571 200.475 276.061 206.616 282.774 210.391C286.553 212.54 290.64 213.901 295.013 214.334C307.168 215.932 320.035 211.612 325.98 200.538C330.465 192.318 330.353 181.878 326.965 173.253C324.052 166.206 318.296 160.414 311.583 156.89L312.086 157.113C309.347 156.157 306.546 155.424 303.703 154.978C300.86 154.524 297.989 154.315 295.132 154.405C289.725 154.72 283.717 155.243 279.051 157.846H279.044ZM274.853 150.665C279.379 147.916 284.8 146.89 289.92 146.443C298.317 145.592 306.895 146.82 314.754 149.814C318.652 151.768 322.075 154.524 325.107 157.594C329.095 161.698 332.204 166.694 334.062 172.13C337.897 184.363 336.521 198.821 327.852 208.751C319.749 218.437 306.483 221.884 294.314 220.419C292.177 220.175 290.039 219.84 287.874 219.26C285.562 218.577 283.249 217.69 281.084 216.623C264.13 208.556 255.105 189.324 260.295 171.139C262.523 162.919 267.35 155.264 274.846 150.665H274.853Z" fill="black"/>
<path d="M194.512 179.255C204.571 179.394 213.142 190.601 213.946 200.615C214.588 208.605 210.648 220.328 200.324 222.743C189.475 225.283 177.425 216.19 174.638 206.574C170.985 193.993 182.79 179.087 194.519 179.248L194.512 179.255Z" fill="black"/>
<path d="M290.214 167.322C300.063 165.954 312.134 175.668 312.938 186.163C313.601 194.921 306.518 205.555 296.089 206.197C287.322 206.735 280.001 199.973 277.284 194.265C272.247 183.672 279.337 168.829 290.207 167.322H290.214Z" fill="black"/>
<path d="M296.137 261.192C290.731 274.744 274.908 277.451 264.737 267.193L271.01 267.403C267.762 270.794 263.948 273.529 259.736 275.483C247.057 281.443 231.961 278.658 221.525 269.594C219.429 267.689 222.042 264.5 224.326 266.202C237.298 275.797 254.518 274.737 264.919 262.002L266.128 261.053C267.581 259.915 269.683 260.173 270.815 261.625C273.246 266.823 279.512 269.343 284.87 266.963C287.902 265.595 290.298 262.762 291.29 259.587C292.309 256.112 297.388 257.752 296.137 261.185V261.192Z" fill="black"/>
<path d="M280.797 270.585C271.36 278.889 266.54 287.242 263.997 294.436C261.559 301.337 261.699 305.789 258.479 306.997C252.96 309.069 242.433 299.76 239.157 288.923C237.466 283.327 238.004 278.289 238.647 275.134C240.651 275.372 242.887 275.455 245.29 275.239C256.404 274.248 264.13 267.619 267.476 264.311C268.496 265.435 270.033 266.865 272.177 268.087C275.649 270.068 278.953 270.487 280.804 270.585H280.797Z" fill="#E85834"/>
<path d="M282.446 269.643C282.118 270.424 281.894 271.15 281.321 272.036C280.42 273.327 279.177 274.332 278.164 275.525C272.31 281.861 267.776 289.433 265.492 297.758C264.277 301.505 264.172 306.648 260.323 309.006C255.894 311.386 250.934 308.678 247.532 306.013C241.441 301.009 237.047 294.052 235.664 286.293C234.986 282.385 235.168 278.386 235.964 274.59C236.244 273.188 237.571 272.252 238.968 272.427C248.929 273.844 258.856 269.524 265.96 262.644C266.868 261.778 268.328 261.855 269.138 262.804C271.968 266.112 276.131 268.212 280.469 268.61C281.182 268.61 282.055 269.063 282.439 269.643H282.446ZM278.953 271.108C278.911 271.75 279.666 272.511 280.28 272.511C280.266 272.511 280.197 272.511 280.183 272.511C274.762 272.232 269.509 269.803 265.806 265.826L269.062 265.916C263.243 271.959 255.412 276.516 246.945 277.695C244.102 278.135 241.182 278.17 238.325 277.849L241.329 275.686C239.219 285.364 243.495 295.573 250.969 301.777C252.869 303.222 255.454 305.189 257.759 304.478C258.555 303.954 258.912 302.635 259.289 301.526C259.785 299.928 260.253 298.127 260.819 296.362C263.012 289.237 266.903 282.608 271.828 277.046C273.742 274.89 275.768 272.853 277.947 270.969C278.087 270.857 278.129 270.899 278.303 270.948C278.45 271.01 278.688 271.087 278.967 271.108H278.953Z" fill="black"/>
<path d="M239.156 285.651C241.937 286.551 246.463 288.442 250.711 292.489C252.953 294.631 254.525 296.809 255.614 298.616" fill="#E85834"/>
<path d="M239.834 283.564C246.959 286.111 253.176 291.289 256.802 297.904C257.172 298.574 256.928 299.418 256.264 299.788C255.628 300.137 254.825 299.935 254.434 299.335C251.633 295.078 247.728 291.666 243.152 289.495C241.65 288.77 240.079 288.191 238.479 287.744C235.615 286.823 236.963 282.629 239.834 283.571V283.564Z" fill="black"/>
<path d="M245.877 285.595C252.82 280.487 260.888 286.907 264.311 292.943C264.605 293.417 264.451 294.038 263.976 294.331C263.536 294.603 262.97 294.492 262.656 294.094C260.77 291.756 258.402 289.614 255.677 288.442C253.274 287.388 250.641 287.304 248.789 289.188C246.296 291.401 243.194 287.583 245.884 285.595H245.877Z" fill="black"/>
<g style="mix-blend-mode:color-dodge">
<path d="M237.696 285.553C240.428 286.509 243.166 287.465 245.897 288.428C247.281 286.767 248.678 286.09 249.614 285.783C254.126 284.311 260.155 287.409 264.332 293.71C262.376 297.171 261.859 300.012 261.769 302.014C261.692 303.661 261.901 304.82 261.112 305.887C259.603 307.911 255.978 307.59 254.902 307.492C246.372 306.738 238.612 287.842 237.689 285.546L237.696 285.553Z" fill="#808080"/>
</g>
<path d="M264.598 313.486C260.986 319.788 252.659 321.232 246.778 317.115C244.933 315.859 243.39 314.191 242.314 312.258C241.846 311.414 242.146 310.353 242.991 309.879C244.815 308.916 245.793 311.26 247.015 312.133C248.859 313.752 251.178 314.98 253.595 315.273C256.976 315.768 260.12 314.303 262.586 311.937C263.634 310.877 265.352 312.209 264.598 313.479V313.486Z" fill="black"/>
<path d="M376.981 292.608C376.562 292.608 376.129 292.531 375.717 292.37C373.922 291.673 373.027 289.649 373.733 287.856C374.194 286.683 375.626 283.787 379.049 282.322C383.534 280.396 387.473 282.58 388.221 283.041C389.863 284.053 390.379 286.202 389.367 287.842C388.354 289.482 386.202 289.998 384.561 288.986C384.505 288.958 383.149 288.156 381.801 288.735C380.753 289.181 380.313 290.193 380.236 290.396C379.699 291.777 378.378 292.615 376.981 292.615V292.608Z" fill="black"/>
<path d="M363.318 294.52C362.088 294.52 360.901 293.871 360.265 292.726C359.531 291.407 357.911 287.89 358.763 283.738C359.692 279.203 363.122 276.586 365.776 275.721C367.607 275.12 369.584 276.125 370.177 277.954C370.778 279.789 369.772 281.757 367.942 282.35C367.753 282.413 366.035 283.062 365.609 285.134C365.204 287.102 366.175 288.972 366.37 289.328C367.306 291.01 366.699 293.138 365.015 294.073C364.477 294.373 363.897 294.513 363.318 294.513V294.52Z" fill="black"/>
</g>
<defs>
<clipPath id="clip0_65_5795">
<rect width="399" height="670" fill="white" transform="translate(-0.000488281)"/>
</clipPath>
</defs>
</svg>
