<svg width="255" height="474" viewBox="0 0 255 474" fill="none" xmlns="http://www.w3.org/2000/svg">
<g clip-path="url(#clip0_65_5918)">
<path d="M187.303 203.698C201.546 206.465 212.856 208.156 220.604 209.193C229.752 210.422 236.394 211.071 242.334 216.182C246.918 220.124 249.124 225.034 250.538 229.217C257.289 249.108 250.656 265.539 249.084 299.89C248.701 308.206 247.546 318.823 245.228 340.061C244.446 347.222 243.262 356.811 236.016 361.893C233.087 363.948 230.007 364.68 227.806 364.97C227.261 396.554 226.715 428.143 226.17 459.727C224.942 460.562 221.724 462.514 217.169 462.592C212.944 462.666 209.844 461.093 208.552 460.336C208.419 430.694 208.282 401.056 208.149 371.414C192.658 373.655 177.168 375.896 161.677 378.137C161.564 402.536 161.446 426.934 161.333 451.332C159.78 451.976 157.466 452.738 154.568 452.969C151.964 453.175 149.778 452.885 148.225 452.561C147.758 456.994 147.287 461.432 146.82 465.866C146.496 466.269 140.752 473.174 133.496 471.798C131.521 471.425 129.944 470.535 128.77 469.64C128.229 438.568 127.689 407.5 127.153 376.427C118.27 374.834 109.383 373.242 100.5 371.65C88.2175 367.791 75.9399 363.933 63.6574 360.075C63.8097 391.452 63.962 422.825 64.1143 454.202C63.6181 454.777 60.1593 458.631 54.5094 458.596C48.1814 458.557 44.6146 453.671 44.2756 453.185C44.7619 419.689 45.2483 386.188 45.7347 352.692C49.5521 345.939 53.3745 339.186 57.1919 332.433C100.564 289.519 143.931 246.611 187.303 203.698Z" fill="#FF9D33"/>
<path d="M180.11 54.1094C181.575 51.0178 185.883 40.8781 182.665 28.7135C181.987 26.1478 179.875 18.5492 172.982 12.2039C167.862 7.49038 162.522 5.68657 159.319 4.63967C156.287 3.65175 151.001 1.92658 144.339 2.64909C134.498 3.72056 127.964 9.45148 124.937 12.1105C118.437 17.8119 114.807 24.6782 111.879 30.2125C110.847 32.1589 110.071 33.8153 109.56 34.9506C108.15 33.2648 105.035 30.0258 100.014 28.3006C98.0927 27.642 90.4333 25.0124 85.2845 29.1214C81.7225 31.9623 81.246 36.5234 80.8677 40.1163C79.8949 49.3467 84.1004 56.4981 85.2845 58.4543C88.9545 64.5096 93.4941 67.4733 100.559 71.9608C108.626 77.0871 120.231 84.4646 135.746 83.8305C140.649 83.629 144.624 82.6853 147.203 81.9186C152.519 75.7453 159.382 68.8741 168.069 62.2732C172.215 59.1227 176.264 56.4244 180.106 54.1045L180.11 54.1094Z" fill="#FF9D33"/>
<path d="M196.712 50.8016C193.847 49.3419 190.246 50.3691 186.389 52.281C174.52 58.1742 146.451 81.8105 145.027 83.0147C139.789 83.5111 132.11 83.6242 123.203 81.5156C112.016 78.8615 103.9 73.8826 99.1982 70.4617C94.7863 70.963 90.3793 71.4644 85.9674 71.9608C83.7959 69.8277 80.4403 66.4707 76.446 62.234C70.4914 55.9231 64.1291 49.9956 58.2826 43.5814C55.5264 40.5538 51.6992 36.2433 46.2949 35.742C44.2363 35.5503 43.0474 36.0172 42.4922 36.2826C38.9499 37.9931 38.1049 42.8933 37.6578 45.7146C32.5237 77.9817 34.0172 83.3784 35.6484 87.3792C36.6211 89.763 38.208 93.0561 40.8463 96.6834C39.7016 97.6221 37.4957 99.7012 36.1053 103.122C34.877 106.15 34.8525 108.833 34.9458 110.278C30.7698 112.819 28.2641 115.798 26.918 117.666C26.122 118.771 20.4328 126.975 22.1425 137.857C22.6829 141.287 23.7982 143.971 24.6629 145.706C22.9532 147.067 20.7276 149.181 18.9491 152.248C9.70276 168.192 23.7491 190.526 26.235 194.478C34.9851 208.387 47.2775 215.543 54.4947 218.915C53.6742 229.591 52.6818 238.482 51.876 244.96C47.98 276.303 43.9563 286.767 39.6033 294.759C37.3483 298.897 35.162 302.077 33.7372 304.038C31.5657 304.245 26.8393 305.002 22.4029 308.501C20.1036 310.315 15.1759 314.198 15.3675 320.012C15.5296 324.888 19.2438 329.41 24.599 331.602C23.0612 334.988 19.5927 343.87 21.7347 354.933C23.0809 361.878 26.1073 366.936 28.1708 369.826C25.3114 370.509 18.7967 372.49 13.5496 378.403C11.9873 380.162 3.46815 389.761 7.4133 399.007C9.7912 404.58 16.07 408.556 21.5972 408.148C23.7048 407.991 24.2158 407.313 29.9149 404.192C41.1657 398.038 42.615 398.815 46.7321 395.079C49.1542 392.882 52.8636 389.516 53.9199 384.271C54.4112 381.819 53.7872 381.617 52.554 372.264C51.4879 364.184 51.4486 360.497 51.4633 358.757C51.4928 354.496 51.5076 352.363 52.1463 350.436C54.4013 343.609 62.2327 340.321 66.3006 338.984C69.2386 340.075 72.1717 341.171 75.1097 342.263C72.9774 345.654 70.688 350.205 69.2583 355.862C65.2984 371.551 70.7076 384.861 73.0315 389.806C70.4128 390.764 65.9764 392.809 62.1 397.099C59.8204 399.621 53.0699 407.102 55.6885 415.521C57.7274 422.078 64.414 425.877 70.01 426.575C74.8296 427.174 78.2737 425.4 84.7834 422.053C93.1896 417.728 99.4094 414.523 102.195 407.475C103.787 403.445 103.016 399.154 101.66 390.641C100.132 381.027 98.078 379.017 99.0852 373.473C100.22 367.206 104.047 363.107 105.192 361.908C109.049 357.878 114.04 355.597 123.621 353.833C136.896 351.39 141.072 353.243 153.767 352.294C160.07 351.822 171.699 350.864 184.842 345.398C191.872 342.474 201.777 338.222 210.483 328.206C212.88 325.448 218.668 318.646 221.665 308.285C223.424 302.205 224.2 294.98 221.331 278.731C217.489 256.972 210.596 238.732 203.781 224.233C200.239 216.694 195.292 207.144 188.556 196.483C190.565 196.055 193.68 195.107 196.805 192.811C202.651 188.516 204.494 182.475 205.019 180.435C207.112 177.708 209.2 174.98 211.293 172.247C210.552 172.562 206.302 174.297 201.747 172.247C198.726 170.89 197.149 168.58 196.564 167.607C197.095 165.853 197.734 163.326 198.063 160.24C198.564 155.565 198.136 151.633 196.834 144.959C195.852 139.921 194.402 133.502 192.231 126.09C196.102 118.658 198.466 112.225 199.905 107.752C199.905 107.752 208.513 80.9651 200.878 56.6947C200.342 54.9843 199.286 52.1188 196.692 50.7967L196.712 50.8016Z" fill="#957C5E"/>
<path d="M141.121 127.688C138.306 125.318 133.643 121.947 127.158 119.583C121.921 117.676 115.996 115.518 109.565 117.125C99.4733 119.651 92.3297 130.391 91.1359 140.752C90.9394 142.433 89.7553 154.455 98.5496 163.459C110.213 175.403 127.767 170.114 129.207 169.652C131.934 168.782 141.283 165.794 146.117 156.283C146.84 154.858 151.477 145.362 147.07 135.542C145.321 131.644 142.777 129.093 141.121 127.683V127.688Z" fill="#FFF3DC"/>
<path d="M64.645 115.808C61.6038 112.937 57.8257 112.515 51.4584 111.886C45.2779 111.276 42.1876 110.971 38.5077 111.945C32.0815 113.64 22.7861 119.44 21.0715 130.042C19.4993 139.783 25.1443 148.537 32.111 152.788C41.8142 158.711 52.1954 154.74 55.2857 153.56C58.4595 152.346 66.4087 149.304 69.4695 141.553C71.6755 135.974 70.3048 130.597 68.9242 125.181C67.8384 120.929 67.1358 118.162 64.645 115.813V115.808Z" fill="#FFF3DC"/>
<path d="M73.9748 158.269C72.3289 156.863 70.1082 156.372 66.3596 155.575C62.7191 154.804 60.9012 154.415 58.656 154.489C54.7403 154.617 48.8791 156.136 47.2529 160.22C45.7594 163.975 48.6089 167.951 52.5098 170.247C58.8673 173.987 65.4753 172.763 66.2417 172.537C66.7723 172.38 70.8157 171.126 73.8126 167.425C74.7707 166.241 76.1267 164.521 75.9793 162.378C75.8614 160.672 75.0507 159.193 73.9748 158.274V158.269Z" fill="#4F3B24"/>
<path d="M204.509 229.158C203.555 230.691 202.027 232.997 199.895 235.587C187.559 250.573 172.495 253.782 173.247 257.051C173.792 259.405 182.046 259.656 187.79 259.022C201.045 257.552 210.267 250.307 214.541 246.415C211.195 240.664 207.854 234.909 204.509 229.158Z" fill="#4F3B24"/>
<path d="M219.282 262.649C215.803 267.166 210.237 273.305 202.018 278.407C189.936 285.907 180.13 286.197 180.243 288.964C180.371 292.016 192.432 295.575 203.727 293.535C213.205 291.82 219.822 286.585 223.247 283.371C221.925 276.46 220.604 269.555 219.282 262.644V262.649Z" fill="#4F3B24"/>
<path d="M219.203 307.882C216.157 309.956 211.397 312.758 205.128 314.66C191.116 318.916 180.813 315.269 179.776 318.366C178.882 321.035 185.657 326.446 192.216 328.687C200.912 331.656 208.704 328.884 211.456 327.754C212.983 325.969 214.865 323.379 216.403 319.939C218.57 315.088 219.095 310.684 219.203 307.882Z" fill="#4F3B24"/>
<path d="M166.88 273.349C162.738 274.121 157.177 274.814 150.608 274.691C142.413 274.539 135.741 273.172 131.182 271.934C131.113 275.689 131.044 279.444 130.98 283.204C134.734 284.408 139.799 285.676 145.931 286.276C155.089 287.175 162.704 286.202 167.592 285.253C167.356 281.287 167.116 277.32 166.88 273.354V273.349Z" fill="#4F3B24"/>
<path d="M163.554 297.133C160.326 298.106 153.762 299.669 145.567 298.632C138.949 297.792 134.066 295.609 131.31 294.14C130.504 298.027 129.693 301.915 128.887 305.803C132.169 307.248 136.493 308.811 141.75 309.902C149.458 311.5 156.14 311.445 160.763 311.082C161.697 306.432 162.625 301.782 163.559 297.133H163.554Z" fill="#4F3B24"/>
<path d="M198.647 139.449C193.911 136.898 189.76 135.478 186.866 134.662C174.858 131.28 168.196 133.684 166.747 134.249C165.381 134.78 162.404 135.935 162.375 137.557C162.345 139.179 165.268 140.422 169.665 142.226C175.468 144.61 178.371 145.804 184.945 148.375C188.684 149.834 194.049 152.356 200.165 156.887C199.659 151.078 199.153 145.263 198.647 139.454V139.449Z" fill="#4F3B24"/>
<path d="M210.497 172.557C210.158 172.596 202.352 173.333 198.657 167.883C197.434 166.079 197.065 164.191 196.962 162.879C195.793 162.525 193.98 162.004 191.74 161.454C181.471 158.937 176.406 159.384 173.999 159.64C168.815 160.191 167.985 161.331 167.818 162.004C167.523 163.189 168.85 164.703 172.25 167.145C178.474 171.618 183.938 173.653 186.483 174.71C190.423 176.351 195.798 179.177 201.703 184.343C204.631 180.416 207.564 176.484 210.497 172.557Z" fill="#4F3B24"/>
<path d="M199.217 188.472C196.279 186.609 191.779 184.068 185.918 182.008C184.242 181.418 169.651 176.371 167.798 179.723C166.285 182.47 174.043 189.543 175.03 190.438C178.848 193.917 182.67 195.883 185.215 196.979C189.882 194.143 194.545 191.307 199.212 188.472H199.217Z" fill="#4F3B24"/>
<path d="M87.6231 89.6353C84.3854 99.0918 85.1617 109.792 87.3136 110.249C88.8809 110.583 90.6397 105.349 97.0217 93.1152C101.021 85.4477 104.583 79.3433 106.975 75.3768C104.431 74.5118 101.886 73.6468 99.3357 72.7866C95.8229 75.7946 90.4776 81.2896 87.6182 89.6402L87.6231 89.6353Z" fill="#4F3B24"/>
<path d="M74.4611 84.155C70.8943 89.9646 71.7197 96.9587 74.186 97.3961C77.0748 97.9073 82.4546 89.4239 84.2429 86.6076C86.1639 83.58 91.2783 75.5144 88.8562 74.4429C86.6847 73.4845 78.2147 78.0358 74.4611 84.155Z" fill="#4F3B24"/>
<path d="M105.89 88.5442C103.787 93.8377 103.379 101.392 105.615 101.785C108.503 102.296 113.883 93.8131 115.671 90.9968C118.344 86.7846 122.107 81.0488 120.285 78.8321C119.12 77.4117 116.094 77.9572 113.967 78.547C111.815 80.0658 108.002 83.236 105.895 88.5393L105.89 88.5442Z" fill="#4F3B24"/>
<path d="M51.4289 254.254C53.6496 254.343 56.961 254.682 60.7587 255.911C62.9549 256.618 69.8576 258.845 69.7397 261.347C69.6415 263.47 64.5368 264.826 62.5078 265.367C57.4916 266.699 53.1485 266.301 50.4955 265.839C50.805 261.976 51.1194 258.117 51.4289 254.254Z" fill="#4F3B24"/>
<path d="M48.8644 278.367C51.2767 278.47 54.9762 278.888 59.1277 280.495C60.1397 280.889 69.9805 284.771 69.5089 288.178C69.1158 290.999 61.7708 292.557 56.4451 292.316C52.9176 292.154 50.0926 291.2 48.2797 290.424C48.4762 286.403 48.6679 282.388 48.8644 278.367Z" fill="#4F3B24"/>
<path d="M50.6134 306.619C59.4076 306.177 64.8169 308.59 67.5289 310.163C70.0787 311.642 70.6732 312.64 70.6781 313.47C70.6879 316.321 63.7311 318.43 62.1638 318.906C58.5086 320.017 55.3151 320.15 53.1829 320.086C52.328 315.594 51.4731 311.101 50.6183 306.609L50.6134 306.619Z" fill="#4F3B24"/>
<path d="M40.468 335.342C34.9016 330.968 28.3329 331.563 26.4709 331.799C24.8398 335.465 23.2037 339.127 21.5726 342.794C23.4838 343.098 26.5593 343.624 30.3227 344.45C41.6029 346.922 45.327 349.104 46.6535 347.522C48.3141 345.546 45.1256 339.009 40.473 335.347L40.468 335.342Z" fill="#4F3B24"/>
<path d="M37.8985 362.173C37.9132 361.348 37.0682 360.537 31.4821 357.917C27.0457 355.838 23.3363 354.358 20.8651 353.425C21.2532 356.693 21.6413 359.966 22.0295 363.235C23.2725 364.159 25.6307 365.619 28.7947 365.835C33.0395 366.125 37.8543 364.115 37.8936 362.168L37.8985 362.173Z" fill="#4F3B24"/>
<path d="M73.0117 349.527C75.5272 349.296 79.4281 349.286 83.7418 350.83C90.3252 353.184 96.6875 358.723 95.7541 361.112C94.7469 363.702 85.2304 362.454 77.6742 361.466C74.2302 361.014 71.4101 360.458 69.5088 360.045C70.6732 356.541 71.8424 353.032 73.0068 349.527H73.0117Z" fill="#4F3B24"/>
<path d="M69.8625 371.63C75.4044 372.701 79.5854 374.353 82.3416 375.65C85.422 377.095 87.9178 378.295 87.8245 379.671C87.6918 381.637 82.3514 382.979 78.7256 383.215C75.6599 383.416 73.1297 382.871 71.4936 382.389C70.9483 378.806 70.403 375.218 69.8625 371.635V371.63Z" fill="#4F3B24"/>
<path d="M104.062 107.28C113.736 118.914 129.418 124.91 144.393 123.878C147.532 123.588 147.296 119.017 144.133 119.061C139.033 119.292 133.899 118.678 128.996 117.282C124.112 115.862 119.45 113.674 115.298 110.73C112.522 108.769 109.963 106.523 107.516 104.13C105.384 102.134 102.269 104.965 104.062 107.28Z" fill="black"/>
<path d="M114.315 112.2C113.524 112.175 112.689 112.416 111.942 112.667C102.229 115.862 93.6956 123.21 90.3793 133.05C85.7316 146.448 90.905 162.938 103.487 170.05C110.395 173.997 118.801 174.867 126.485 173.112C135.83 170.802 144.702 164.766 148.574 155.673C154.681 141.759 147.193 124.596 133.491 118.614C127.384 117.508 121.439 115.513 115.868 112.775C115.382 112.524 114.846 112.303 114.315 112.195V112.2ZM113.633 118.059C113.421 118.083 113.2 118.044 113.009 117.951C112.984 117.936 113.043 117.97 113.058 117.975C113.485 118.191 114.522 118.717 114.969 118.929C120.501 121.588 126.431 123.406 132.484 124.414L131.658 124.139C139.956 128.144 145.847 136.996 145.631 146.3C145.543 156.199 138.679 163.842 129.836 167.563C122.176 170.831 112.842 170.566 105.59 166.393C92.0841 158.735 89.2591 138.476 99.4536 126.984C103.163 122.782 108.238 119.759 113.637 118.25C113.711 118.226 114.202 118.108 114.266 118.088C114.139 118.123 113.819 118.152 113.633 118.059Z" fill="black"/>
<path d="M58.4644 115.115C60.351 115.469 62.2229 117.174 63.4855 118.811C67.2292 123.716 69.0323 130.548 67.7205 136.652C66.4432 142.949 61.6382 148.139 56.0128 151.039C51.4192 153.491 45.9019 154.081 40.7776 153.418C32.8234 152.444 26.5053 147.048 24.1864 139.405C22.7026 134.588 22.9827 129.162 25.282 124.655L25.7094 123.814C25.8666 123.544 26.2891 122.871 26.4365 122.605C30.1115 116.958 36.7047 113.449 43.4257 113.488L42.7772 113.419C46.8009 114.348 50.8493 114.943 54.986 115.075C56.3469 115.125 58.0173 115.002 58.4595 115.11L58.4644 115.115ZM59.5355 109.359C58.0567 109.074 56.6024 109.246 55.1629 109.163C53.9494 109.118 52.6916 109.04 51.4437 108.922C48.9528 108.691 46.4669 108.347 44.0153 107.831C43.804 107.782 43.578 107.757 43.3667 107.762C34.1647 107.929 25.4392 113.218 21.2336 121.426C16.6252 130.302 17.9911 141.218 24.2699 148.925C30.8337 157.354 42.6691 159.438 52.5983 157.02C57.413 155.688 61.8544 153.201 65.495 149.746C72.6041 143.101 74.9623 133.094 72.098 123.849C70.2311 117.838 66.2368 110.932 59.5306 109.359H59.5355Z" fill="black"/>
<path d="M67.3765 103.874C65.2492 107.098 61.5841 109.241 57.7028 109.286C54.3423 109.477 54.4455 114.333 57.8158 114.373C61.9034 114.201 65.9173 112.421 68.7964 109.517C69.7397 108.568 70.5749 107.521 71.2823 106.395C72.8201 103.776 69.1255 101.397 67.3765 103.874Z" fill="black"/>
<path d="M114.674 128.567C107.55 128.665 101.483 136.613 100.918 143.71C100.466 149.372 103.251 157.689 110.562 159.399C118.241 161.198 126.775 154.749 128.745 147.937C131.329 139.016 122.972 128.449 114.669 128.562L114.674 128.567Z" fill="black"/>
<path d="M46.9188 120.108C39.9423 119.14 31.3986 126.026 30.8336 133.467C30.3619 139.68 35.3781 147.22 42.7624 147.672C48.9724 148.055 54.1556 143.258 56.0717 139.213C59.6336 131.703 54.6174 121.18 46.9188 120.113V120.108Z" fill="black"/>
<path d="M80.0079 158.534C78.5389 154.715 74.2105 153.619 70.7616 152.651C68.5508 152.051 66.055 151.972 64.0062 151.918C60.5573 151.825 57.0936 151.771 53.5956 152.361C51.7777 152.651 49.955 153.245 48.2551 154.022C47.5427 154.332 46.57 154.823 45.9067 155.477C42.8999 158.554 44.4967 163.041 46.4373 166.039C51.7728 174.483 61.8199 179.28 70.8058 173.181C75.1489 170.163 81.9829 164.604 80.003 158.534H80.0079ZM74.7117 160.539C74.7952 160.751 74.7952 160.967 74.7264 161.267C74.2302 163.075 72.8153 164.638 71.42 166.123C69.4056 168.108 67.0769 170.187 64.3698 170.939C60.2478 172.153 56.0078 170.001 53.1976 167.017C51.4142 165.1 49.5325 162.628 49.2574 160.008C49.2328 159.537 49.3507 159.286 49.4048 159.202C49.5964 159.114 49.8764 158.961 50.2695 158.819C53.0355 157.639 55.9341 157.502 58.9704 157.507C62.7288 157.625 66.8656 157.61 70.4128 158.681C71.6804 159.035 73.1739 159.428 74.1614 160.043C74.4464 160.22 74.5741 160.343 74.7117 160.534V160.539Z" fill="black"/>
<path d="M59.1031 174.287C59.2161 180.254 61.2697 186.186 64.8464 191.017C65.8044 192.354 67.6714 192.649 68.9979 191.671C70.4128 190.644 70.6093 188.56 69.4106 187.282C67.75 185.488 66.3399 183.429 65.2787 181.182C64.2126 178.931 63.4904 176.489 63.1465 173.972C62.7436 171.456 59.1031 171.751 59.0982 174.292L59.1031 174.287Z" fill="black"/>
<path d="M100.176 207.841C99.321 202.612 96.3535 197.657 92.1627 194.374C88.0161 191.219 83.5846 188.801 78.6765 186.962C72.9528 184.893 66.502 184.259 60.4738 185.694C58.4693 186.255 56.1454 186.476 54.2097 187.277C51.5026 188.575 49.4539 190.944 48.9037 194.055C48.5892 196.114 50.0042 198.036 52.0627 198.351C54.7649 198.572 57.1673 198.198 59.2897 196.93C60.0857 196.399 60.7931 195.628 61.6627 195.121C64.3698 193.794 67.3324 193.209 70.3981 193.121C74.6871 193.042 78.9811 194.084 83.0098 195.755C87.0139 197.392 91.1064 199.309 93.7054 202.882C94.9926 204.573 95.9556 206.544 96.5451 208.652C97.228 210.889 100.515 210.147 100.171 207.827L100.176 207.841Z" fill="black"/>
<path d="M142.492 79.525C141.951 79.2055 141.44 79.1908 140.856 79.1908L139.46 79.1514C131.57 78.8172 123.729 77.3575 116.291 74.7132C111.029 72.9389 105.958 70.7812 101.38 67.6601C96.84 64.6275 93.0422 60.6808 89.9126 56.2474C86.1001 50.9097 82.548 44.0827 84.8326 37.6785C85.8004 34.9752 87.8786 32.1196 90.4334 30.9449C94.9091 28.974 99.3308 33.1173 102.922 35.5552C110.867 41.3402 119.106 46.5452 127.482 51.6371C132.582 54.7926 137.977 57.717 143.685 59.6093C151.369 62.229 159.392 63.5315 167.371 63.8411L165.838 58.4592C157.398 64.2343 149.665 71.0613 142.88 78.714L142.202 79.4808L142.118 79.5741C142.212 79.4807 142.349 79.4758 142.482 79.5201L142.492 79.525ZM145.066 84.8332C145.911 84.268 146.628 83.3882 147.297 82.6313L148.603 81.1813C154.75 74.4723 161.667 68.4662 169.174 63.33C170.515 62.4109 170.859 60.5727 169.941 59.2309C169.395 58.4346 168.536 57.9923 167.641 57.9529C160.129 57.5794 152.701 56.2769 145.715 53.8096C140.418 51.991 135.505 49.2189 130.774 46.2257C122.619 41.2025 114.478 35.9926 106.784 30.3158C101.365 26.1921 94.8354 21.685 87.7411 24.9092C83.2014 27.0227 80.3027 30.9252 78.5881 35.4077C76.1562 41.8661 77.9396 49.0862 81.1478 54.8909C85.201 62.1307 90.7232 68.5989 97.5965 73.2387C99.3014 74.3986 101.08 75.4652 102.908 76.4187C113.696 81.8989 125.738 85.2657 137.864 85.3345C140.212 85.3247 142.777 85.3493 145.066 84.8381V84.8332Z" fill="black"/>
<path d="M167.509 63.8411C167.995 63.8411 168.476 63.7232 168.904 63.4873L181.506 56.7045C182.105 56.3801 182.577 55.8591 182.837 55.2251C184.557 51.0228 185.525 46.673 185.716 42.2937C186.384 26.7819 177.86 7.90816 160.282 1.84793C139.726 -5.23953 122.368 10.0511 119.096 13.1869C111.363 20.5988 107.924 29.3377 106.406 35.3635C106.125 36.4694 106.509 37.6391 107.393 38.3666C114.384 44.1073 122.029 49.0174 130.121 52.9544C141.745 58.6165 154.204 62.2683 167.16 63.8166C167.278 63.8313 167.391 63.8362 167.509 63.8362V63.8411ZM177.762 52.0254L166.939 57.8497C154.971 56.3211 143.455 52.8954 132.7 47.656C125.591 44.1958 118.845 39.9443 112.616 35.0096C114.148 29.8881 117.185 23.1939 123.174 17.4482C124.913 15.782 140.674 1.33186 158.361 7.42649C173.051 12.489 180.381 29.0378 179.821 42.043C179.678 45.4049 178.981 48.7569 177.757 52.0254H177.762Z" fill="black"/>
<path d="M180.214 50.7722C160.223 37.9243 137.898 28.6841 114.812 23.135C113.225 22.7664 111.638 23.7543 111.269 25.3419C110.921 26.836 111.78 28.3302 113.205 28.8069C118.713 30.6845 124.2 32.5718 129.629 34.6116C140.497 38.6616 151.163 43.203 161.638 48.182C166.88 50.6641 172.068 53.2592 177.271 55.8789C180.612 57.4517 183.26 52.8856 180.214 50.7673V50.7722Z" fill="black"/>
<path d="M146.28 89.0158C152.947 80.8323 160.306 73.2091 168.27 66.2838C170.987 64.018 174.819 61.3835 178.199 59.393C181.653 57.3237 185.348 55.3577 189.003 53.7505C191.538 52.7626 193.592 51.8189 195.69 53.0821C198.348 54.9842 199.031 59.2848 199.635 62.5091C199.964 64.3031 200.382 66.7213 200.519 68.5005C200.824 70.8204 200.927 73.7153 201.025 76.0647C201.025 76.9592 201.006 79.6723 201.006 80.6209C200.956 81.6924 200.809 84.1548 200.755 85.1723C199.92 94.5747 198.014 103.953 194.535 112.741C194.461 112.922 194.324 113.311 194.26 113.498L194.412 113.031C192.624 117.135 190.575 121.126 188.222 124.925C187.465 126.159 187.519 127.604 188.148 128.798C194.28 140.289 195.704 154.017 192.329 166.609C191.975 167.745 192.246 168.993 192.973 169.843C197.336 175.034 202.838 176.341 209.196 174.046L209.476 173.967C209.525 173.947 209.476 173.967 209.225 173.908C209.063 173.879 208.881 173.79 208.704 173.697C208.159 173.377 207.677 172.748 207.746 172.094C207.756 172.055 207.746 172.085 207.761 172.08C207.776 172.07 207.766 172.109 207.761 172.144C206.98 174.847 204.656 177.363 202.18 178.833C199.802 180.244 196.908 180.986 193.941 181.192C193.007 181.246 192.295 182.057 192.359 182.991C192.418 183.856 193.135 184.525 193.98 184.554C201.168 184.918 208.449 181.974 212.247 175.437C214.659 171.618 212.792 167.42 208.046 168.31C203.85 169.249 201.315 169.101 198.77 165.336L199.414 168.57C201.438 161.444 202.209 153.929 201.531 146.492C200.883 139.056 198.775 131.742 195.415 125.068L195.341 128.941C197.566 124.64 199.817 119.479 201.305 115.292C203.953 107.216 205.491 98.7918 206.292 90.3527C207.053 80.7537 206.773 70.9629 204.73 61.5015C203.433 53.8341 199.826 45.4146 190.315 48.1081C187.087 49.0763 184.223 50.6688 181.314 52.1679C176.116 54.9055 171.11 58.002 166.423 61.5507C162.198 64.9322 157.422 69.3557 153.114 73.5138C149.213 77.264 145.484 81.1862 141.819 85.1673C139.205 88.2491 143.627 92.0533 146.28 89.0207V89.0158Z" fill="black"/>
<path d="M101.321 68.4415C96.668 67.8665 91.9515 67.9648 87.3725 68.7463C82.7887 69.5179 78.3522 70.963 74.2253 72.9879C73.2378 73.4745 72.8251 74.6689 73.3115 75.6617C73.7782 76.6103 74.8984 77.0232 75.8564 76.63C79.7672 75.0473 83.8794 74.0398 88.026 73.6466C92.1726 73.2435 96.3535 73.4647 100.397 74.2659C104.396 74.8851 105.33 69.0903 101.321 68.4415Z" fill="black"/>
<path d="M86.2573 70.4912C76.279 59.0392 66.0992 47.656 54.2982 37.9537C47.2332 31.7854 39.4805 30.4976 36.3411 41.0895C33.9141 49.7989 32.8136 58.8573 32.5384 67.8715C32.2387 78.2029 33.4277 88.6473 36.5376 98.5461C37.7904 102.267 43.2341 100.615 42.1679 96.8013C36.7096 80.4883 36.8275 62.7205 40.0897 45.9505C41.9076 36.779 43.9219 35.452 51.5665 41.4237C63.2841 50.6836 73.5572 61.7375 83.6043 72.816C85.1617 74.4871 87.7263 72.3048 86.2573 70.4912Z" fill="black"/>
<path d="M49.5227 82.5133C50.0337 84.2778 50.1467 85.8998 49.3115 87.4136C48.3436 88.9913 46.8108 89.5909 45.0126 90.6919C42.3252 92.2106 39.6181 94.2012 37.4908 96.5162C36.3853 97.6761 35.3487 98.9639 34.4496 100.443C32.6269 103.441 31.8162 107.044 32.0029 110.514C32.0668 112.156 33.467 113.434 35.1129 113.34C36.803 113.257 38.0803 111.738 37.8838 110.062C37.4023 106.273 38.7976 102.748 41.3082 99.9076C43.0621 97.7695 45.0765 96.1132 47.4249 94.5797C48.6187 93.7687 49.9747 92.9725 51.3258 91.6847C54.1361 89.0503 54.4652 84.6464 53.0994 81.3042C52.1954 79.0335 48.8595 80.1688 49.5276 82.5182L49.5227 82.5133Z" fill="black"/>
<path d="M163.549 98.2365C167.273 87.4825 173.812 77.7802 182.68 70.6289C185.618 68.25 188.767 66.112 192.088 64.2442C193.017 63.7282 193.351 62.5535 192.83 61.6295C192.344 60.7644 191.278 60.4253 190.389 60.8136C182.901 64.0968 176.2 69.1888 170.938 75.4652C165.681 81.7319 161.834 89.2568 160.016 97.2241C159.554 99.485 162.743 100.409 163.549 98.2415V98.2365Z" fill="black"/>
<path d="M68.1331 76.4728C66.2859 65.178 59.3782 54.7189 50.5151 47.6363C48.5057 46.1274 46.0541 48.7963 47.7245 50.664C51.3405 54.5763 54.6371 58.7295 57.3982 63.271C60.179 67.8125 62.3555 72.5997 64.4877 77.5049C65.3868 79.5397 68.4378 78.6599 68.1381 76.4728H68.1331Z" fill="black"/>
<path d="M62.3702 82.7786C63.9326 77.4163 58.7985 72.0295 53.3942 72.8257C52.6769 72.924 52.0136 73.0764 51.3061 73.4008C50.0779 73.9365 50.2547 75.819 51.537 76.1286C52.5196 76.3793 53.6251 76.6005 54.5487 77.0133C57.133 78.07 58.4939 80.3457 59.4372 82.8966C59.9629 84.2482 61.9624 84.1499 62.3751 82.7786H62.3702Z" fill="black"/>
<path d="M169.179 102.916C171.169 102.1 172.196 100.247 173.237 98.502C173.547 97.9023 173.846 97.2929 174.058 96.6146C174.362 95.6365 173.817 94.5945 172.839 94.2898C171.562 93.8917 170.569 95.0221 169.69 95.725C168.717 96.6441 167.794 97.6123 167.091 98.7477C166.757 99.3326 166.477 99.9568 166.384 100.724C166.158 102.237 167.774 103.481 169.179 102.911V102.916Z" fill="black"/>
<path d="M178.425 101.107L171.174 104.478C169.317 105.285 169.046 107.968 170.668 109.153C174.333 112.215 177.546 115.891 180.13 120.02C181.57 122.222 184.876 120.398 183.795 118.01C181.506 113.227 178.435 108.764 174.711 104.862L174.205 109.536L180.592 104.724C182.592 103.176 180.71 100.075 178.42 101.107H178.425Z" fill="black"/>
<path d="M23.7835 144.693C16.3255 150.459 11.9922 159.812 13.2156 169.313C13.9918 175.756 16.5957 181.389 19.4305 186.987C20.2166 188.437 21.1108 190.01 21.9951 191.391C32.3223 207.429 48.5254 218.969 65.6374 226.818C66.4087 227.172 67.3225 226.828 67.6714 226.057C68.0104 225.309 67.7058 224.439 66.9934 224.061C59.3242 220.026 51.994 215.376 45.2484 210.034C36.9159 203.393 29.3646 195.593 24.0782 186.304C19.0915 177.275 14.5322 167.111 18.5462 156.853C20.0348 152.97 22.5208 149.589 25.5423 146.728C26.7558 145.558 25.1444 143.651 23.7835 144.688V144.693Z" fill="black"/>
<path d="M204.567 177.688C203.251 182.519 200.357 186.899 196.318 189.823C192.349 192.698 187.308 194.197 182.439 194.197C178.293 194.335 178.283 200.331 182.439 200.479C185.593 200.341 188.654 199.707 191.607 198.631C200.332 195.598 207.152 187.813 209.009 178.779C209.564 175.874 205.412 174.857 204.567 177.693V177.688Z" fill="black"/>
<path d="M202.573 161.104C201.443 162.894 199.483 164.098 197.414 164.255C193.513 164.702 193.965 170.345 197.886 170.168C199.949 169.829 201.89 168.806 203.447 167.494C204.843 166.295 205.933 164.801 206.636 163.159C207.697 160.51 204.052 158.696 202.568 161.104H202.573Z" fill="black"/>
<path d="M53.4384 218.792C52.1021 229.64 44.5016 278.451 44.197 288.394C44.0791 290.783 44.0693 293.201 44.2118 295.624C44.7964 307.892 49.9993 319.717 57.9338 328.982C58.9901 330.221 60.8521 330.368 62.0902 329.311C63.3578 328.235 63.4757 326.308 62.3555 325.085C59.3635 321.796 56.7547 318.174 54.647 314.267C51.4683 308.408 49.4638 301.94 48.9135 295.28C48.2945 288.438 48.9381 281.631 49.5964 274.74C49.5964 274.72 55.5461 219.067 55.5461 219.053C55.6787 217.78 53.7135 217.337 53.4384 218.792Z" fill="black"/>
<path d="M186.08 198.061C198.962 219.136 208.969 242.045 214.816 266.07C217.793 278.638 220.844 292.857 217.921 305.498C213.313 321.934 199.856 335.219 184.503 342.09C170.805 348.21 155.511 349.139 140.723 350.117C135.225 350.421 129.693 350.446 124.004 350.751C118.03 351.144 111.888 351.655 106.469 354.958C100.372 358.546 97.3164 366.41 96.4419 370.74C95.8523 373.66 95.9506 376.982 96.55 379.853C97.1101 382.664 97.7684 385.136 98.2008 387.677C98.5496 389.599 98.7854 391.482 98.9868 393.443C99.3799 397.763 100.176 402.142 98.864 406.138C97.7684 409.416 95.5428 412.174 92.7866 414.253C89.77 416.573 86.3162 418.141 82.8378 419.728C78.4406 421.684 73.8126 423.935 68.9487 423.616C63.4265 423.262 59.1276 418.136 58.1204 412.896C57.2213 408.615 58.8868 403.99 61.9133 400.52C64.9544 397.011 69.3614 394.716 74.0189 393.939C75.6746 393.659 76.7702 392.052 76.4165 390.41C73.508 383.303 71.6951 375.734 71.6115 368.037C71.6017 366.892 71.6312 364.591 71.6705 363.446C71.8031 358.89 72.0635 354.629 73.6357 350.495C77.2025 340.906 87.2939 335.863 97.1788 335.146C98.8149 335.032 100.038 333.602 99.9105 331.97C99.7827 330.348 98.3678 329.134 96.7465 329.267C93.3565 329.528 90.0255 330.191 86.7977 331.287C80.2634 333.445 74.181 337.716 70.4865 343.663C66.728 349.468 65.8928 356.688 65.7798 363.289C65.3082 373.139 66.9491 383.106 70.8205 392.179C70.8205 392.179 73.0707 388.11 73.0461 388.125C62.2572 389.751 52.0479 399.031 52.0725 410.468C52.1167 418.003 56.6662 425.336 63.7262 428.285C66.6543 429.529 70.0787 429.72 73.1542 429.229C78.8238 428.295 83.8302 425.705 88.9741 423.341C95.7099 420.19 102.077 415.354 104.48 408.016C105.968 403.828 105.521 398.918 105.118 394.834C104.858 392.125 104.558 389.319 104.082 386.635C103.286 381.504 101.306 376.943 102.347 371.88L102.401 371.31C102.411 371.487 102.377 371.743 102.352 371.856L102.362 371.807C102.396 371.649 102.5 371.227 102.544 371.06C105.85 359.077 112.969 357.474 124.338 356.84C135.353 356.432 146.79 356.28 157.855 355.061C169.995 353.862 182.316 351.291 193.086 345.31C207.884 337.225 220.338 323.782 225.001 307.351C230.066 287.475 221.34 258.859 214.261 239.996C208.139 224.199 200.332 209.065 191.057 194.895C188.851 191.76 184.149 194.65 186.08 198.056V198.061Z" fill="black"/>
<path d="M20.3148 410.503C27.0506 410.503 33.8109 406.669 38.7779 403.853C44.9192 400.368 55.1972 394.539 56.8922 384.065C57.4768 380.437 56.6957 378.181 55.8703 375.793C55.1137 373.61 54.2539 371.133 53.9591 366.434C53.6349 361.343 53.2369 355.002 56.7006 349.537C59.2996 345.433 63.1759 343.26 66.2662 342.12L74.0828 345.03C75.6108 345.6 77.3058 344.823 77.8757 343.295C78.4456 341.766 77.6644 340.07 76.1414 339.5L67.3323 336.222C66.7133 335.991 66.0353 335.976 65.4015 336.178C61.2648 337.505 55.5362 340.35 51.7188 346.376C47.2283 353.464 47.7147 361.175 48.0733 366.808C48.4222 372.308 49.5079 375.439 50.2989 377.724C51.0211 379.813 51.4191 380.958 51.0703 383.116C49.8273 390.798 41.426 395.566 35.8694 398.716C29.7036 402.216 21.2581 407.008 15.166 403.155C10.5871 400.26 9.70274 394.116 9.66343 393.855C8.60222 386.07 14.9351 380.103 17.706 377.896C20.5408 375.64 23.9947 374.176 27.6893 373.66C28.6424 373.527 29.4727 372.937 29.9099 372.077C30.3472 371.217 30.3374 370.199 29.8854 369.349C26.8246 363.603 25.1296 357.184 24.9822 350.79C24.879 346.312 24.6334 335.819 31.7916 327.586C39.1267 319.147 49.3311 318.646 52.2838 318.675C53.9149 318.715 55.2513 317.397 55.2758 315.77C55.3004 314.144 53.9984 312.802 52.3722 312.777C48.7759 312.718 36.346 313.357 27.3454 323.718C18.6886 333.676 18.9736 345.767 19.0915 350.932C19.234 356.978 20.5801 363.028 23.0121 368.651C19.7351 369.61 16.689 371.177 14.0458 373.281C10.4839 376.117 2.36269 383.868 3.83167 394.652C3.95941 395.581 5.26628 403.862 12.0217 408.138C14.6943 409.829 17.5095 410.498 20.3197 410.498L20.3148 410.503Z" fill="black"/>
<path d="M74.6576 412.768C72.0488 416.548 71.0367 421.389 71.7196 425.955C72.3976 429.814 77.9935 429.032 77.5808 425.13C77.1092 423.39 76.7505 421.601 76.9028 419.753C77.006 418.067 77.4433 416.376 78.1999 414.808C79.2464 412.523 76.0971 410.724 74.6576 412.764V412.768Z" fill="black"/>
<path d="M65.2935 406.3C61.1371 410.444 58.1254 416.165 57.8306 422.097C57.7913 424.8 61.5399 425.498 62.498 423.006C62.9696 421.758 63.3479 420.514 63.7655 419.286C64.9348 415.585 66.4726 412.061 68.3985 408.669C69.4597 406.684 66.9099 404.762 65.2935 406.295V406.3Z" fill="black"/>
<path d="M16.8316 385.372C11.2062 389.56 8.00289 396.534 7.97341 403.504C7.95376 405.136 9.26062 406.472 10.8917 406.492C12.6211 406.522 14.0213 405.018 13.869 403.292C13.6479 400.619 13.9968 397.861 14.9401 395.335C15.8834 392.789 17.4408 390.44 19.4944 388.577C21.4007 386.763 18.9638 383.834 16.8365 385.367L16.8316 385.372Z" fill="black"/>
<path d="M22.4618 395.689C20.3099 399.036 19.2487 403.101 19.3323 407.111C19.3519 408.753 20.6981 410.065 22.339 410.046C24.2158 410.046 25.6455 408.207 25.1935 406.389C24.5007 403.469 24.6186 400.289 25.7241 397.316C26.4561 395.256 23.6459 393.88 22.4618 395.694V395.689Z" fill="black"/>
<path d="M162.198 251.153C164.576 264.182 164.679 277.586 162.522 290.65C161.687 296.214 160.532 301.753 158.695 307.032C153.772 320.799 144.437 333.573 132.405 341.894C127.251 345.28 121.439 347.63 115.283 347.251C111.206 347.069 106.769 345.791 104.072 343.034C101.9 340.926 100.564 337.701 100.348 334.757C99.9548 325.925 110.341 322.273 117.799 321.595C119.504 321.452 121.194 321.516 122.879 321.772C124.21 321.988 125.478 321.27 126.018 320.106C133.098 304.884 135.348 287.396 132.042 270.926C131.457 268.37 127.699 268.93 127.934 271.58C128.17 273.555 128.352 275.531 128.47 277.507C128.779 283.405 128.544 289.357 127.59 295.181C126.372 302.937 124.033 310.502 120.663 317.584L123.803 315.918C114.021 314.365 99.6895 318.238 95.4102 328.063C92.7818 334.064 94.5406 341.27 98.5398 346.194C102.519 351.031 108.887 353.115 114.905 353.37C130.745 354.088 143.99 341.874 152.799 329.98C161.308 318.567 166.064 305.474 167.636 291.382C169.592 277.768 169.169 263.779 166.207 250.356C165.558 247.806 161.824 248.503 162.203 251.158L162.198 251.153Z" fill="black"/>
<path d="M109 330.737C105.398 332.605 101.989 335.652 100.235 339.525C99.5961 340.916 99.1392 342.439 98.9427 344.017C98.7216 345.639 99.8614 347.133 101.483 347.354C103.104 347.576 104.598 346.435 104.819 344.813C104.853 343.663 104.814 342.538 105.153 341.373C105.988 338.203 108.11 335.622 110.778 333.548C112.39 332.3 110.808 329.823 109.005 330.742L109 330.737Z" fill="black"/>
<path d="M115.328 339.417C112.729 342.223 110.464 345.551 109.024 349.384C107.757 353.1 113.048 355.115 114.571 351.488C115.224 348.136 116.394 344.833 118.374 341.742C119.567 339.756 116.914 337.746 115.332 339.417H115.328Z" fill="black"/>
<path d="M147.694 381.823C157.172 381.823 165.588 380.781 179.211 379.096C203.305 376.117 221.016 372.18 231.849 367.393C240.988 363.358 243.714 359.436 245.07 356.472C246.407 353.547 246.716 351.213 247.075 348.504C247.527 345.103 247.964 341.854 248.387 338.689C252.602 307.336 255.648 284.688 254.882 241.603C254.774 235.503 254.592 225.295 247.571 217.568C243.695 213.307 238.973 211.09 226.524 207.704C215.769 204.774 204.607 202.4 193.351 200.651C191.745 200.395 190.236 201.501 189.986 203.113C189.735 204.72 190.836 206.229 192.447 206.48C203.487 208.195 214.428 210.525 224.976 213.395C236.276 216.472 240.197 218.222 243.208 221.54C248.735 227.624 248.888 236.103 248.991 241.711C249.752 284.349 246.731 306.815 242.55 337.908C242.123 341.078 241.685 344.332 241.243 347.693C240.904 350.239 240.688 351.896 239.715 354.019C235.043 364.233 203.84 370.111 178.494 373.247C161.598 375.336 153.674 376.245 142.806 375.832C128.411 375.291 114.104 372.824 100.279 368.499C98.7265 368.012 97.0708 368.877 96.5844 370.435C96.098 371.988 96.9627 373.645 98.5201 374.131C112.842 378.614 127.669 381.17 142.585 381.73C144.344 381.794 146.039 381.828 147.699 381.828L147.694 381.823Z" fill="black"/>
<path d="M68.8112 363.781C70.0542 363.781 71.2087 362.989 71.6165 361.741C72.1176 360.193 71.2726 358.526 69.725 358.025L52.2887 352.363C50.7411 351.862 49.0756 352.707 48.5745 354.255C48.0734 355.803 48.9184 357.47 50.466 357.971L67.9023 363.633C68.2069 363.731 68.5115 363.776 68.8112 363.776V363.781Z" fill="black"/>
<path d="M216.275 465.639H216.344C220.127 465.63 223.817 464.863 227.32 463.354C228.351 462.911 229.039 461.919 229.098 460.798C229.958 444.067 230.508 427.091 230.739 410.34C230.94 395.586 230.901 380.624 230.616 365.869C230.587 364.262 229.27 362.979 227.668 362.979C227.649 362.979 227.629 362.979 227.609 362.979C225.983 363.009 224.686 364.355 224.721 365.982C225.006 380.673 225.045 395.571 224.843 410.257C224.622 426.295 224.106 442.544 223.306 458.581C221.051 459.348 218.707 459.736 216.324 459.741C214.693 459.761 213.082 459.569 211.495 459.215L211.097 371.413C211.092 369.791 209.77 368.479 208.149 368.479H208.134C206.508 368.484 205.191 369.811 205.201 371.443L205.609 461.481C205.614 462.754 206.434 463.88 207.643 464.273C210.439 465.182 213.342 465.644 216.265 465.644L216.275 465.639Z" fill="black"/>
<path d="M135.707 474C136.63 474 137.593 473.936 138.6 473.798C143.219 473.15 146.594 471.105 148.613 469.508C149.291 468.972 149.699 468.161 149.728 467.296L152.593 381.337C152.647 379.71 151.374 378.344 149.743 378.29C148.122 378.245 146.751 379.514 146.697 381.14L143.882 465.654C142.423 466.613 140.374 467.596 137.775 467.959C135.402 468.294 133.329 468.009 131.707 467.556L130.975 379.577C130.961 377.951 129.644 376.638 128.003 376.653C126.377 376.668 125.065 378 125.08 379.627L125.832 469.675C125.841 470.849 126.549 471.911 127.635 472.368C129.531 473.169 132.322 474.005 135.707 474.005V474Z" fill="black"/>
<path d="M154.75 456.989C156.877 456.989 158.999 456.694 161.077 456.114C162.35 455.755 163.229 454.595 163.229 453.273L163.151 378.28C163.151 376.653 161.829 375.336 160.203 375.336C158.577 375.336 157.255 376.658 157.26 378.29L157.339 450.904C156.076 451.096 154.808 451.145 153.541 451.057C152.367 450.973 151.188 450.767 150.043 450.442C148.476 450 146.849 450.909 146.402 452.477C145.96 454.045 146.869 455.672 148.436 456.119C149.969 456.552 151.546 456.827 153.123 456.94C153.669 456.979 154.209 456.999 154.754 456.999L154.75 456.989Z" fill="black"/>
<path d="M53.8461 461.56C54.1163 461.56 54.3915 461.555 54.6666 461.54C59.7073 461.285 63.2201 458.783 64.866 457.318C65.4654 456.782 65.8191 456.03 65.8486 455.224L66.9638 425.361C67.0228 423.734 65.7552 422.363 64.129 422.304C62.5028 422.25 61.1321 423.513 61.0732 425.14L60.007 453.652C58.7689 454.531 56.848 455.519 54.3669 455.642C51.085 455.814 48.5794 454.369 47.2283 453.337L46.9826 397.134C46.9777 395.512 45.6561 394.199 44.0348 394.199H44.0201C42.3939 394.204 41.0772 395.531 41.087 397.163L41.3376 454.713C41.3376 455.509 41.6668 456.271 42.2416 456.827C43.4256 457.967 47.6508 461.555 53.8461 461.555V461.56Z" fill="black"/>
<path d="M64.4828 397.424C64.4828 397.424 64.5319 397.424 64.5565 397.424C66.1827 397.384 67.4699 396.033 67.4355 394.406L66.5953 359.082C66.556 357.455 65.205 356.182 63.5788 356.201C61.9526 356.241 60.6653 357.592 60.6997 359.219L61.5399 394.544C61.5792 396.146 62.8909 397.424 64.4877 397.424H64.4828Z" fill="black"/>
<path d="M226.023 340.247C227.541 340.247 228.833 339.078 228.956 337.539L237.141 237.391C237.273 235.769 236.065 234.343 234.443 234.211C232.822 234.088 231.397 235.287 231.265 236.909L223.08 337.057C222.947 338.679 224.156 340.105 225.777 340.237C225.86 340.242 225.939 340.247 226.023 340.247Z" fill="black"/>
<path d="M148.009 363.171H148.043C160.208 363.024 172.417 361.721 184.331 359.293C197.326 356.644 210.09 352.633 222.279 347.379C223.772 346.735 224.465 345 223.817 343.501C223.168 342.002 221.439 341.314 219.94 341.963C208.124 347.06 195.749 350.947 183.152 353.513C171.606 355.867 159.766 357.131 147.974 357.273C146.348 357.293 145.041 358.63 145.061 360.256C145.081 361.874 146.397 363.171 148.009 363.171Z" fill="black"/>
<path d="M46.9974 266.168C45.6266 272.612 43.5877 278.903 40.9151 284.904C38.2424 290.886 34.9556 296.563 31.1185 301.807L33.1427 300.534C25.5324 301.222 17.986 305.061 13.9967 311.996C9.15244 320.518 13.2695 328.869 21.4939 333.052C24.8151 334.629 27.4632 330.113 24.5007 327.979C19.8579 324.76 17.0231 320.533 20.0495 315.392C22.8745 310.413 28.6817 307.43 34.3267 306.294C35.0538 306.137 35.6483 305.685 36.007 305.095C41.4751 296.307 45.4989 286.718 47.9456 276.701C48.7513 273.378 49.39 270.026 49.8469 266.655C49.955 265.863 49.3998 265.131 48.6088 265.023C47.8522 264.92 47.1546 265.426 46.9974 266.158V266.168Z" fill="black"/>
<path d="M25.2917 315.146C24.9085 318.774 26.0139 322.617 28.2297 325.591C30.642 328.727 35.2848 325.404 33.0887 322.106C32.9216 321.875 32.7202 321.669 32.5089 321.497C31.5509 320.74 30.7059 319.816 30.0524 318.729C29.3843 317.633 28.9126 316.36 28.6719 315.004C28.2985 313.062 25.4981 313.2 25.2966 315.146H25.2917Z" fill="black"/>
<path d="M91.1604 176.715C103.133 179.983 114.64 184.461 125.949 189.543C126.642 189.843 127.453 189.523 127.748 188.825C128.013 188.211 127.792 187.513 127.256 187.154C121.965 183.61 116.158 180.878 110.169 178.725C104.185 176.582 97.9796 174.98 91.6664 174.193C90.109 174.026 89.6521 176.253 91.1555 176.71L91.1604 176.715Z" fill="black"/>
<path d="M95.1105 184.215C99.5273 187.258 106.062 191.268 110.631 194.193C115.834 197.481 120.909 200.902 126.146 204.165C126.799 204.568 127.659 204.367 128.067 203.713C128.411 203.153 128.313 202.45 127.87 202.003C123.419 197.55 118.383 193.736 113.117 190.315C107.83 186.914 102.254 183.93 96.3093 181.841C94.8403 181.35 93.8381 183.335 95.1105 184.22V184.215Z" fill="black"/>
<path d="M40.6056 170.143C28.8832 162.908 13.5153 162.844 0.987091 168.054C0.161705 168.403 -0.226429 169.352 0.122395 170.178C0.446655 170.954 1.31136 171.338 2.09743 171.097C5.16807 170.143 8.28292 169.401 11.4322 168.929C17.7257 167.966 24.1519 168.217 30.3767 169.578C33.5014 170.227 36.5868 171.107 39.7213 172.065C40.8906 172.424 41.6423 170.797 40.6056 170.143Z" fill="black"/>
<path d="M35.383 174.936C25.3309 174.808 15.1905 176.508 5.81646 180.16C5.10898 180.44 4.76017 181.242 5.04021 181.954C5.29569 182.598 5.98351 182.942 6.63694 182.79C9.02466 182.239 11.4075 181.718 13.7903 181.232C16.1731 180.745 18.5706 180.323 20.9682 179.939C25.7731 179.187 30.6075 178.71 35.4665 178.381C37.6429 178.18 37.5692 175.039 35.383 174.936Z" fill="black"/>
<path d="M30.3325 183.915C26.5838 184.751 22.9433 186.058 19.4698 187.685C15.9963 189.317 12.6653 191.283 9.67817 193.682C9.08369 194.158 8.98542 195.028 9.46689 195.628C9.8845 196.149 10.6067 196.286 11.1815 195.992C14.4536 194.311 17.7109 192.664 21.0665 191.185C24.4123 189.71 27.8268 188.432 31.2807 187.233C33.2999 186.491 32.4451 183.483 30.3374 183.915H30.3325Z" fill="black"/>
<path d="M78.141 246.523C77.6055 250.121 77.6104 253.792 78.0771 257.395C78.1607 258.049 77.4581 258.614 76.8587 258.614C76.1316 258.614 75.7238 258.049 75.6403 257.395C75.1441 253.556 75.2227 249.703 75.7926 245.874C75.8908 245.22 76.7113 244.862 77.2911 245.024C77.9887 245.216 78.2393 245.869 78.141 246.523Z" fill="black"/>
<path d="M90.7527 248.386C90.6053 250.661 90.674 252.947 90.959 255.213C91.0376 255.847 90.34 256.461 89.7406 256.432C89.0135 256.397 88.6057 255.891 88.5222 255.213C88.2372 252.947 88.1684 250.661 88.3158 248.386C88.3551 247.752 88.8464 247.137 89.5342 247.167C90.1582 247.196 90.7969 247.703 90.7527 248.386Z" fill="black"/>
<path d="M79.8703 275.128C79.5952 278.22 79.6541 281.326 80.0472 284.408C80.1307 285.062 79.4281 285.627 78.8287 285.627C78.1016 285.627 77.6938 285.062 77.6103 284.408C77.2222 281.331 77.1632 278.22 77.4334 275.128C77.4924 274.475 77.9542 273.909 78.6519 273.909C79.266 273.909 79.9293 274.47 79.8703 275.128Z" fill="black"/>
<path d="M90.9738 277.311C91.2833 280.496 91.7599 283.656 92.3937 286.797C92.5214 287.441 92.207 288.114 91.5437 288.296C90.9443 288.463 90.173 288.094 90.0452 287.445C89.3722 284.098 88.871 280.712 88.5419 277.316C88.478 276.657 89.1462 276.097 89.7603 276.097C90.4727 276.097 90.9148 276.657 90.9787 277.316L90.9738 277.311Z" fill="black"/>
<path d="M179.123 52.3155C172.544 48.3884 165.229 44.4515 157.167 40.716C141.258 33.3533 126.333 28.5907 113.416 25.4451C112.542 29.1264 111.667 32.8078 110.793 36.4842C116.998 41.6401 125.493 47.7298 136.365 53.1216C147.12 58.4593 157 61.5312 164.802 63.3596C169.577 59.6733 174.347 55.9919 179.123 52.3057V52.3155Z" fill="black"/>
<path d="M159.211 379.912C156.302 380.187 153.394 380.457 150.48 380.732C149.684 405.111 148.888 429.494 148.092 453.873C150.932 454.187 153.777 454.507 156.616 454.821C158.262 454.369 159.908 453.917 161.554 453.465C160.773 428.949 159.992 404.433 159.211 379.917V379.912Z" fill="black"/>
</g>
<defs>
<clipPath id="clip0_65_5918">
<rect width="255" height="474" fill="white" transform="matrix(-1 0 0 1 255 0)"/>
</clipPath>
</defs>
</svg>
