<svg width="332" height="1112" viewBox="0 0 332 1112" fill="none" xmlns="http://www.w3.org/2000/svg">
<g clip-path="url(#clip0_73_56313)">
<path d="M264.522 918.006C270.715 917.572 297.757 915.005 317.59 892.589C339.917 867.351 338.622 833.308 335.846 832.434C334.294 831.947 331.592 841.597 320.138 854.464C315.878 859.25 311.822 862.893 308.674 865.479C310.478 859.656 313.548 851.328 318.861 842.18C338.148 808.972 366.224 800.62 363.86 793.884C361.239 786.416 323.247 786.821 291.858 805.469C274.99 815.49 264.15 828.333 257.724 837.52C258.928 832.984 261.191 826.616 265.789 820.15C270.421 813.642 274.917 810.564 274.279 809.56C273.278 807.978 259.88 811.939 250.506 819.726C227.535 838.813 221.859 886.611 244.564 907.84C250.752 913.63 258.072 916.525 264.517 918.006H264.522Z" fill="#FF9D33"/>
<path d="M253.909 902.331C259.354 903.875 275.425 907.643 290.814 899.436C305.295 891.721 313.325 876.528 311.643 874.791C310.516 873.624 305.459 878.984 295.088 881.57C288.165 883.297 282.01 883.008 277.683 882.419C282.266 877.614 287.009 872.104 291.665 865.827C302.781 850.851 309.956 836.198 314.66 824.049C309.288 822.901 291.781 819.885 273.863 829.463C263.695 834.9 257.439 842.229 254.122 846.832C253.895 845.828 253.653 844.535 253.484 843.02C252.29 832.246 256.593 825.386 255.606 824.802C254.05 823.875 238.007 837.954 232.515 860.1C227.134 881.782 232.882 907.783 242.136 909.602C244.859 910.137 248.63 908.728 253.909 902.326V902.331Z" fill="#FF9D33"/>
<path d="M229.551 892.994C232.346 897.206 247.919 892.478 256.641 888.42C290.186 872.817 285.423 837.838 314.66 824.053C317.01 822.949 326.607 818.659 333.255 808.937C335.542 805.589 339.468 799.674 337.379 794.034C335.464 788.866 329.6 786.898 328.391 786.522C319.161 783.67 309.84 790.131 303.801 794.434C299.217 797.705 291.902 803.775 283.431 816.758C270.343 836.815 273.858 843.695 260.857 859.236C254.021 867.409 250.602 871.495 245.859 874.704C238.999 879.345 231.495 881.926 229.556 888.946C229.193 890.259 228.763 891.812 229.546 892.989L229.551 892.994Z" fill="#957C5E"/>
<path d="M234.439 897.525C236.426 897.525 238.771 897.226 241.493 896.637C247.532 895.32 253.909 892.883 257.869 891.045C276.116 882.558 283.446 868.851 290.534 855.598C296.776 843.931 302.669 832.912 315.898 826.673L316.13 826.562C324.513 822.635 331.079 817.255 335.648 810.573C337.954 807.201 342.746 800.19 340.101 793.035C337.805 786.831 331.215 784.37 329.252 783.762C318.46 780.423 307.828 788.013 302.118 792.085C294.508 797.513 287.604 805.068 281.004 815.181C274.729 824.801 272.156 831.503 269.884 837.418C267.404 843.883 265.262 849.466 258.638 857.383C251.98 865.339 248.644 869.329 244.24 872.311C242.668 873.377 241.015 874.352 239.424 875.292C234.082 878.453 228.555 881.719 226.771 888.179C226.346 889.728 225.63 892.319 227.139 894.591C228.439 896.55 230.852 897.525 234.449 897.525H234.439ZM323.672 788.722C324.963 788.722 326.259 788.896 327.53 789.291C328.473 789.581 333.24 791.226 334.652 795.042C336.262 799.394 332.742 804.542 330.852 807.312C326.873 813.125 321.09 817.844 313.659 821.323L313.413 821.439C298.444 828.492 291.82 840.887 285.409 852.872C278.766 865.291 271.9 878.129 255.408 885.801C251.018 887.842 245.492 889.767 240.986 890.818C234.517 892.329 232.428 891.6 232.003 891.393C232.003 891.002 232.225 890.186 232.351 889.728C233.511 885.516 237.418 883.205 242.369 880.281C244.037 879.292 245.767 878.274 247.484 877.107C252.561 873.671 256.075 869.469 263.081 861.098C270.324 852.438 272.741 846.151 275.294 839.493C277.46 833.848 279.916 827.45 285.858 818.346C295.069 804.229 302.911 798.637 305.488 796.798C309.898 793.653 316.802 788.727 323.672 788.727V788.722Z" fill="black"/>
<path d="M337.693 795.076C334.594 786.99 321.018 782.768 311.667 787.419C307.045 789.721 304.565 793.634 303.414 795.853C305.889 797.247 309.762 799.857 313.156 804.34C317.957 810.679 319.079 817.178 319.403 820.213C334.101 816.252 340.759 803.076 337.693 795.076Z" fill="#4F3B24"/>
<path d="M305.889 829.525C306.005 827.267 305.947 822.264 303.032 817.043C298.652 809.203 291.061 806.66 289.277 806.115C285.186 811.808 281.091 817.502 277.001 823.195C278.814 823.32 283.335 823.885 287.377 827.301C294.305 833.148 293.705 842.18 293.623 843.174C297.714 838.624 301.799 834.07 305.889 829.52V829.525Z" fill="#4F3B24"/>
<path d="M287.546 859.655C287.396 857.943 286.772 854.194 283.509 850.648C278.606 845.321 271.368 844.39 269.676 844.207C266.582 849.007 263.487 853.813 260.388 858.613C262.061 858.473 266.263 858.319 270.348 860.365C277.354 863.867 277.837 870.728 277.876 871.481C281.101 867.539 284.321 863.592 287.546 859.651V859.655Z" fill="#4F3B24"/>
<path d="M234.439 897.525C236.426 897.525 238.771 897.226 241.493 896.637C247.532 895.32 253.909 892.883 257.869 891.045C276.116 882.558 283.446 868.851 290.534 855.598C296.776 843.931 302.669 832.912 315.898 826.673L316.13 826.562C324.513 822.635 331.079 817.255 335.648 810.573C337.954 807.201 342.746 800.19 340.101 793.035C337.805 786.831 331.215 784.37 329.252 783.762C318.46 780.423 307.828 788.013 302.118 792.085C294.508 797.513 287.604 805.068 281.004 815.181C274.729 824.801 272.156 831.503 269.884 837.418C267.404 843.883 265.262 849.466 258.638 857.383C251.98 865.339 248.644 869.329 244.24 872.311C242.668 873.377 241.015 874.352 239.424 875.292C234.082 878.453 228.555 881.719 226.771 888.179C226.346 889.728 225.63 892.319 227.139 894.591C228.439 896.55 230.852 897.525 234.449 897.525H234.439ZM323.672 788.722C324.963 788.722 326.259 788.896 327.53 789.291C328.473 789.581 333.24 791.226 334.652 795.042C336.262 799.394 332.742 804.542 330.852 807.312C326.873 813.125 321.09 817.844 313.659 821.323L313.413 821.439C298.444 828.492 291.82 840.887 285.409 852.872C278.766 865.291 271.9 878.129 255.408 885.801C251.018 887.842 245.492 889.767 240.986 890.818C234.517 892.329 232.428 891.6 232.003 891.393C232.003 891.002 232.225 890.186 232.351 889.728C233.511 885.516 237.418 883.205 242.369 880.281C244.037 879.292 245.767 878.274 247.484 877.107C252.561 873.671 256.075 869.469 263.081 861.098C270.324 852.438 272.741 846.151 275.294 839.493C277.46 833.848 279.916 827.45 285.858 818.346C295.069 804.229 302.911 798.637 305.488 796.798C309.898 793.653 316.802 788.727 323.672 788.727V788.722Z" fill="black"/>
<path d="M255.012 880.083C258.314 882.694 263.782 887.75 267.665 895.841C273.394 907.778 272.079 918.865 271.359 923.086C260.311 933.228 249.258 943.37 238.211 953.511C235.605 950.641 232.999 947.77 230.393 944.899C235.285 940.962 244.762 932.249 250.772 917.784C257.7 901.1 256.061 886.274 255.017 880.079L255.012 880.083Z" fill="#B26E24"/>
<path d="M229.72 1019.64C235.435 1019.84 247.697 1019.47 260.533 1012.26C263.367 1010.67 278.34 1001.95 285.651 983.859C290.776 971.184 291.254 956.088 288.6 955.292C287.633 955.002 286.69 956.744 284.321 959.465C274.472 970.779 261.268 974.6 257.773 975.613C254.63 976.525 249.935 977.563 243.969 977.693C243.026 985.813 240.899 996.08 236.122 1007.18C234.111 1011.84 231.911 1016 229.72 1019.64Z" fill="#B26E24"/>
<path d="M185.177 922.237C178.785 920.081 169.096 917.929 157.797 919.695C125.848 924.693 110.903 956.368 109.375 959.74C109.375 959.74 81.1973 1000.77 82.4785 1057.82C82.6381 1065.01 83.6003 1077.95 89.8711 1092.12C93.0283 1099.25 94.7882 1103.22 98.835 1106.11C111.744 1115.32 134.347 1103.85 146.57 1097.64C167.365 1087.08 179.616 1073.93 198.55 1053.99C218.358 1033.12 226.007 1020.48 228.691 1015.86C236.784 1001.94 242.427 991.969 243.07 977.712C243.345 971.595 244.293 950.752 228.265 935.375C211.14 918.942 188.237 921.808 185.177 922.242V922.237Z" fill="#808080"/>
<path d="M182.89 1070.23C181.724 1063.39 178.011 1047.46 164.585 1033.44C147.097 1015.18 125.2 1012.75 118.958 1012.16C105.647 1010.89 94.8123 1013.48 88.4158 1015.54C82.435 1031.06 81.6614 1044.18 81.8016 1052.08C81.9467 1060.09 83.0974 1066 84.1369 1071.36C87.3086 1087.68 89.1313 1097.05 96.4465 1102.91C103.82 1108.83 113.146 1108.28 120.176 1107.87C137.345 1106.86 149.756 1097.75 162.187 1088.62C171.431 1081.84 178.296 1075.14 182.89 1070.23Z" fill="#B26E24"/>
<path d="M242.069 659.679L240.367 641.895L227.845 625.269L211.396 618.915L190.911 620.29C190.911 620.29 176.266 628.337 176.053 628.656C175.84 628.974 166.185 639.883 166.185 639.883C166.185 639.883 157.502 635.801 152.174 636.81C148.456 637.514 144.056 641.133 140.275 652.953C142.687 658.699 147.087 666.569 155.074 673.246C165.421 681.897 176.479 684.116 183.378 685.419C191.336 686.919 198.076 686.818 202.587 686.48C215.96 674.23 223.793 670.318 228.589 669.217C230.035 668.885 235.488 667.828 239.521 663.394C240.797 661.99 241.595 660.615 242.074 659.679H242.069Z" fill="#FF9D33"/>
<path d="M256.337 731.192C259.682 724.273 263.632 714.102 265.407 701.297C266.495 693.452 267.215 681.434 264.343 667.519C263.797 664.875 263.231 662.68 262.796 661.122C260.001 660.321 255.708 659.423 250.554 659.795C244.278 660.248 239.197 662.4 225.77 670.612C220.302 673.956 213.432 678.312 205.623 683.663C200.682 685.081 186.419 688.459 170.575 682.133C161.268 678.418 155.06 672.807 151.613 669.131C141.662 654.029 132.307 643.424 125.422 636.433C122.091 633.051 118.784 629.944 114.684 630.219C106.474 630.769 101.378 644.418 98.893 651.077C95.523 660.099 91.307 676.146 94.5899 698.567C93.0863 700.366 91.5391 702.47 90.0838 704.911C85.8774 711.96 84.2142 718.787 83.518 723.689C79.9353 725.759 74.6943 729.508 71.1938 735.838C63.9947 748.85 69.2261 763.546 73.3164 775.025C76.0336 782.648 81.8403 795.607 94.5657 808.523C90.311 808.103 85.3794 807.182 80.1094 805.314C62.9068 799.211 52.8647 786.826 48.4843 780.53C51.8591 777.678 52.6182 772.988 50.573 769.722C48.9968 767.213 45.9363 765.824 42.7405 766.118C44.7179 759.064 41.4834 752.715 36.9144 751.282C33.0078 750.056 29.1544 752.753 28.5307 753.202C26.9787 749.077 22.4581 746.867 18.3436 748.117C14.3886 749.318 11.8842 753.395 12.6336 757.559C10.4531 757.284 7.77933 757.351 5.85504 758.953C-2.46097 765.872 11.1444 794.903 15.2251 802.627C34.6662 839.411 81.2552 853.022 105.802 858.136C104.4 864.784 103.302 873.879 104.443 884.508C105.014 889.834 106.044 894.563 107.199 898.601C103.926 897.839 98.6754 897.081 92.5786 898.374C80.3511 900.965 70.8361 910.484 66.8086 921.244C61.0116 936.726 68.2155 950.404 70.2704 954.303C76.2415 965.636 85.4616 971.329 89.4988 973.505C86.8637 975.257 77.4309 981.978 76.1496 992.978C75.8063 995.916 75.2165 1000.98 78.6976 1004.56C82.522 1008.49 88.4447 1007.75 89.3392 1007.63C90.1901 999.342 94.5125 966.891 122.284 942.709C138.926 928.22 156.651 923.087 166.103 921.094C166.374 923.304 167.147 927.067 169.7 930.883C174.25 937.691 181.173 939.785 183.185 940.321C181.11 944.822 178.417 952.083 177.692 961.39C176.996 970.326 178.383 977.645 179.655 982.349C168.82 998.083 162.665 1010.74 163.265 1014.51C163.695 1017.22 165.107 1019 165.107 1019C166.291 1020.5 167.747 1021.28 168.675 1021.68C168.806 1022.26 170.213 1028.02 175.763 1030.29C179.496 1031.81 182.88 1030.86 183.895 1030.53C184.659 1032.11 186.24 1034.76 188.798 1035.24C191.984 1035.84 194.841 1032.9 197.926 1029.63C202.045 1025.25 204.192 1021.02 206.629 1016.14C208.635 1012.12 210.197 1008.24 211.986 1003.79C213.108 1000.99 213.669 999.598 214.181 998.131C217.184 989.509 218.711 985.119 217.527 980.27C216.342 975.435 213.572 974.967 213.422 970.316C213.32 967.05 214.495 964.329 215.893 961.897C219.678 955.302 229.488 948.407 235.629 942.714C236.866 941.565 243.147 935.67 248.499 927.352C249.935 925.123 255.539 916.134 258.474 903.064C262.453 885.376 259.141 870.912 256.162 857.88C254.523 850.72 253.242 845.114 249.809 838.243C247.953 834.528 245.975 831.46 242.63 824.57C240.642 820.483 239.148 817.058 238.186 814.771C244.989 813.796 256.583 811.032 266.949 802.125C269.579 799.862 271.76 797.527 273.563 795.284C270.474 792.809 267.379 790.338 264.29 787.863C268.559 786.194 272.828 784.524 277.102 782.855C273.752 782.223 270.401 781.591 267.051 780.959C265.997 775.71 264.943 770.465 263.889 765.216C264.899 760.695 266.466 750.52 261.679 739.785C260.098 736.243 258.164 733.392 256.351 731.182L256.337 731.192Z" fill="#957C5E"/>
<path d="M229.488 666.795C225.814 661.039 219.712 653.006 210.212 645.634C197.157 635.507 184.069 631.565 176.517 629.905C173.839 634.233 171.16 638.566 168.482 642.894C174.047 649.233 181.681 656.745 191.733 663.915C199.599 669.526 207.112 673.618 213.582 676.609C218.885 673.338 224.189 670.067 229.498 666.791L229.488 666.795Z" fill="black"/>
<path d="M81.3616 805.864C77.5179 807.268 77.1553 833.008 82.0337 834.673C86.7381 836.275 96.316 815.524 93.4102 811.225C92.5061 809.888 90.8912 810.877 86.7671 808.938C83.0635 807.196 82.4205 805.478 81.3616 805.864Z" fill="#4F3B24"/>
<path d="M178.582 682.167C176.179 682.515 174.409 690.369 175.768 697.852C176.425 701.461 178.263 707.488 180.438 707.454C182.222 707.425 182.116 703.348 186.38 696.159C188.943 691.836 191.617 688.869 190.63 687.527C190.253 687.011 189.731 687.04 186.738 686.254C185.969 686.051 185.065 685.747 183.987 685.241C180.259 683.489 179.718 682.003 178.582 682.167Z" fill="#4F3B24"/>
<path d="M165.049 678.278C163.772 678.824 158.923 686.36 160.417 698.263C160.785 701.206 162.071 711.425 165.523 711.806C171.131 712.418 174.313 686.239 173.602 684.512C172.959 682.954 171.813 684.107 165.252 678.211C165.252 678.211 165.165 678.225 165.049 678.274V678.278Z" fill="#4F3B24"/>
<path d="M152.879 671.644C150.926 671.514 147.895 678.896 147.464 687.262C147.363 689.264 146.763 700.926 150.153 701.809C155.118 703.102 162.23 679.629 161.432 677.883C161.258 677.502 161.007 677.246 161.007 677.246C160.552 676.86 159.9 676.884 158.875 676.484C158.275 676.252 157.743 675.958 156.718 675.219C154.025 673.285 153.769 671.702 152.879 671.644Z" fill="#4F3B24"/>
<path d="M74.3028 804.807C73.5727 802.11 68.0174 803.133 63.1245 799.278C59.1309 796.128 59.242 792.61 57.8544 792.673C53.7254 792.852 48.4361 824.135 54.7408 826.606C56.3024 827.218 61.7369 821.048 72.6057 808.706C73.3696 807.837 74.6992 806.289 74.3028 804.812V804.807Z" fill="#4F3B24"/>
<path d="M64.8263 939.467C68.114 935.978 71.4404 934.251 73.4566 933.392C83.6872 929.06 93.2555 933.238 96.5239 934.661C98.3563 935.462 104.134 937.985 103.781 939.939C103.37 942.197 95.2619 941.078 85.626 944.262C78.9055 946.487 73.882 949.999 70.4831 952.875C68.5975 948.402 66.7071 943.93 64.8214 939.462L64.8263 939.467Z" fill="#4F3B24"/>
<path d="M236.48 888.556C229.048 882.457 215.849 872.243 212.987 874.791C209.738 877.681 221.332 895.629 226.351 903.127C229.725 898.268 233.105 893.414 236.48 888.556Z" fill="#4F3B24"/>
<path d="M222.831 907.642C217.159 901.727 208.258 893.096 205.768 894.804C202.882 896.782 209.917 911.71 213.364 918.672C216.521 914.995 219.674 911.319 222.831 907.642Z" fill="#4F3B24"/>
<path d="M247.46 929.856C241.788 923.94 232.887 915.309 230.397 917.017C227.511 918.995 234.546 933.923 237.993 940.885C241.15 937.209 244.302 933.532 247.46 929.856Z" fill="#4F3B24"/>
<path d="M244.684 828.753C240.343 830.939 222.362 840.135 223.599 843.719C224.905 847.512 247.025 843.029 251.192 842.166L244.684 828.753Z" fill="#4F3B24"/>
<path d="M264.822 773.775C263.342 773.847 260.988 773.929 258.077 773.862C247.252 773.625 241.073 771.671 240.043 773.78C239.482 774.923 240.739 776.645 241.479 777.644C247.431 785.644 260.818 786.859 264.232 787.096C267.906 786.025 268.738 785.036 268.67 784.264C268.549 782.942 265.803 782.474 264.474 780.317C263.221 778.291 263.864 775.816 264.827 773.77L264.822 773.775Z" fill="#4F3B24"/>
<path d="M267.041 788.726C260.519 787.752 254.983 787.313 250.767 787.105C244.278 786.787 242.528 787.091 241.991 788.157C240.875 790.372 245.376 795.177 249.35 797.763C255.49 801.763 262.298 801.729 266.287 801.3C272.147 799.495 273.346 798.202 273.302 797.334C273.259 796.485 272.021 796.132 270.575 794.859C268.433 792.977 267.496 790.541 267.036 788.722L267.041 788.726Z" fill="#4F3B24"/>
<path d="M264.764 763.614C260.248 761.819 256.385 760.565 253.431 759.691C248.886 758.35 247.624 758.249 247.16 758.881C246.188 760.188 248.963 764.227 251.555 766.673C255.553 770.451 260.35 771.609 263.197 772.009C263.565 771.855 265.354 771.049 265.968 768.941C266.741 766.268 264.943 763.846 264.769 763.614H264.764Z" fill="#4F3B24"/>
<path d="M254.736 852.997C234.812 856.22 232.501 858.816 232.515 860.104C232.544 863.341 247.276 865.826 258.696 867.307C257.376 862.54 256.056 857.769 254.741 853.002L254.736 852.997Z" fill="#4F3B24"/>
<path d="M227.487 951.842C225.253 949.232 216.584 939.717 202.162 937.913C193.647 936.847 186.787 938.926 183.18 940.325C181.478 946.163 179.771 952.006 178.069 957.844C181.144 956.701 187.188 954.93 194.735 955.914C205.13 957.265 211.851 962.987 214.21 965.202C215.907 963.33 217.691 961.429 219.567 959.513C222.246 956.778 224.895 954.221 227.487 951.837V951.842Z" fill="#4F3B24"/>
<path d="M108.974 941.16C108.224 923.888 100.556 909.476 88.4158 904.569C85.8098 903.517 82.111 902.543 77.2761 902.75C75.1971 904.492 72.3542 907.29 69.9126 911.372C66.7893 916.597 65.7546 921.523 65.3726 924.505C67.4323 923.526 73.6161 920.916 81.3085 922.575C92.0516 924.896 97.1234 933.706 97.9067 935.115C99.9373 935.756 102.403 936.755 105.009 938.333C106.547 939.264 107.867 940.239 108.969 941.155L108.974 941.16Z" fill="#4F3B24"/>
<path d="M8.63026 765.447C8.01139 766.321 8.68344 767.787 9.0799 768.41C9.95018 769.78 11.7536 770.648 13.5135 770.108C15.0752 769.626 16.429 768.082 16.1679 766.928C15.6941 764.844 9.85349 763.735 8.63026 765.447Z" fill="#D39281"/>
<path d="M128.487 710.918C137.219 715.994 142.069 728.572 139.627 739.92C137.248 750.978 128.376 758.838 118.822 761.626C118.02 761.863 99.8647 766.823 88.7977 753.839C78.9538 742.289 84.1804 727.221 84.543 726.237C88.203 716.225 96.3595 711.502 98.6512 710.272C102.514 708.858 109.298 706.972 117.614 707.932C120.955 708.318 124.764 708.757 128.487 710.918Z" fill="#FFF3DC"/>
<path d="M127.037 713.398C136.624 719.192 139.854 732.692 136.228 742.921C134.309 748.257 130.494 752.879 125.751 756.02C123.391 757.612 120.732 758.813 118.005 759.614C108.408 762.056 96.872 760.323 90.427 752.406C84.3689 745.314 83.8419 734.738 87.1587 726.28C89.5713 720.408 94.3385 715.584 99.9228 712.64L99.5747 712.795C101.837 711.999 104.158 711.386 106.513 711.01C108.867 710.629 111.246 710.45 113.62 710.522C118.194 710.788 123 711.174 127.037 713.398ZM129.938 708.433C126.292 706.228 121.941 705.423 117.812 705.051C110.908 704.356 103.81 705.336 97.3748 707.898C90.7655 711.555 85.3504 717.393 82.6284 724.461C78.2286 736.108 80.5494 750.77 90.7365 758.707C98.7334 765.066 109.776 766.07 119.436 763.681C122.497 762.774 125.47 761.424 128.159 759.706C136.62 754.476 142.523 744.865 142.774 734.791C143.152 724.654 138.868 713.943 129.938 708.433Z" fill="black"/>
<path d="M117.638 721.59C109.578 720.476 99.7004 728.413 99.0477 736.991C98.5014 744.151 104.298 752.84 112.832 753.361C120.007 753.8 125.997 748.276 128.217 743.611C132.336 734.955 126.534 722.821 117.643 721.59H117.638Z" fill="black"/>
<path d="M187.164 716.708C184.717 717.533 172.185 722.03 166.345 734.96C160.504 747.89 163.458 764.608 174.854 774.122C186.622 783.946 201.243 780.935 203.225 780.491C214.645 777.939 226.641 768.955 229.232 755.012C232.365 738.154 219.514 726.14 218.325 725.069C210.081 717.62 200.17 716.52 197.52 716.259C193.222 715.839 189.615 716.259 187.164 716.703V716.708Z" fill="#FFF3DC"/>
<path d="M186.438 713.905C170.904 719.26 160.316 733.083 161.036 749.714C161.316 758.302 164.643 766.871 170.657 773.09C171.3 773.833 172.437 774.788 173.167 775.464C173.51 775.801 174.138 776.236 174.525 776.535L175.913 777.567L177.388 778.474C178.355 779.145 179.776 779.748 180.82 780.293C184.355 781.803 188.174 782.836 192.003 783.149C197.104 783.588 202.331 783.178 207.195 781.523C219.925 777.374 230.247 766.813 231.935 753.265C233.458 741.652 227.927 729.865 219.325 722.237C210.444 714.58 197.892 711.656 186.448 713.905H186.438ZM187.894 719.511C197.559 717.924 208.084 720.273 215.694 726.512C223.13 732.919 228.139 742.814 227.129 752.72C226.123 762.924 219.195 771.454 210.1 775.864C201.968 779.955 192.003 780.327 183.576 776.926C178.925 775.073 174.859 771.845 171.895 767.826C164.672 758.225 163.903 744.281 169.84 733.894C173.761 727.081 180.477 722.054 187.889 719.511H187.894Z" fill="black"/>
<path d="M195.939 731.341C187.705 731.452 180.695 740.614 180.042 748.802C179.52 755.33 182.74 764.912 191.191 766.89C200.068 768.965 209.926 761.535 212.208 753.68C215.196 743.398 205.536 731.216 195.944 731.346L195.939 731.341Z" fill="black"/>
<path d="M199.043 696.217C210.724 682.64 226.249 672.407 242.649 665.666C247.373 663.877 253.426 662.077 257.913 664.248C264.561 667.114 263.536 689.091 262.791 695.585C262.138 701.481 260.993 707.323 259.344 713.026C257.714 718.744 255.635 724.34 253.165 729.768C252.725 730.743 252.778 731.838 253.218 732.731C257.608 741.401 260.64 750.963 260.804 760.709C260.968 768.699 258.382 779.984 267.186 784.626C270.097 786.107 273.292 786.281 276.358 785.972L274.293 780.809C271.32 783.13 267.713 784.597 263.966 784.997C262.346 785.041 261.055 786.449 261.254 788.071C261.321 788.664 261.578 789.19 261.95 789.6C265.257 793.238 269.342 796.012 273.723 797.71L273.442 795.351C270.053 798.024 266.466 800.422 262.714 802.501C258.967 804.581 255.055 806.342 251.047 807.77C243.026 810.636 234.589 812.146 226.186 812.305C224.18 812.344 222.584 813.999 222.623 816.001C222.661 818.003 224.32 819.596 226.326 819.557C235.566 818.679 244.607 816.238 252.957 812.455C261.176 808.735 268.762 803.664 275.323 797.522C276.053 796.856 275.894 795.645 275.043 795.163C271.494 792.794 268.612 789.663 266.616 786.155C266.616 786.155 264.595 790.758 264.599 790.758C269.405 790.247 274.066 788.35 277.866 785.378C279.128 784.389 279.351 782.57 278.359 781.311C277.745 780.529 276.807 780.148 275.884 780.206C273.65 780.409 271.441 780.206 269.952 779.372C266.35 777.321 266.717 772.472 266.833 768.482C266.954 766.094 267.23 763.02 267.191 760.647C267.201 749.844 264.121 739.312 259.46 729.657L259.513 732.62C267.22 715.352 271.281 696.236 269.55 677.299C268.994 672.175 268.356 667.124 265.45 662.598C259.769 654.434 248.166 656.678 240.391 659.877C222.85 667.254 206.958 677.994 194.667 692.434C192.274 695.43 196.447 699.006 199.053 696.227L199.043 696.217Z" fill="black"/>
<path d="M236.064 815.678C242.61 827.17 247.382 839.58 251.192 852.201C259.581 878.139 260.035 903.363 244.892 926.917C237.901 938.014 228.647 947.717 217.817 955.152C214.007 958.36 210.453 962.91 210.516 968.193C210.458 970.832 211.812 973.278 212.697 975.363C214.607 979.83 213.707 984.602 213.021 989.354C212.344 994.338 210.743 999.1 208.679 1003.71C205.275 1011.29 201.083 1018.71 197.162 1026.1C195.934 1028.45 194.329 1030.55 191.907 1031.63C189.818 1032.64 187.638 1032.57 186.264 1030.6C185.355 1029.37 184.809 1027.63 184.732 1025.85C184.524 1023.1 180.574 1023.22 180.477 1025.93C180.293 1031.37 183.784 1037.42 189.881 1037.15C195.199 1036.95 199.565 1033.06 201.881 1028.74C204.018 1025.07 206.141 1021.4 208.224 1017.67C212.968 1009.14 217.831 1000.15 219.229 990.305C220.544 982.431 221.047 977.5 217.362 970.07C216.424 967.87 217.145 965.872 218.349 963.976C219.364 962.447 220.65 961.236 222.105 959.952L221.786 960.203C233.274 952.373 242.968 942.125 250.428 930.41C266.63 905.38 266.35 877.825 257.183 850.329C253.097 837.302 248.069 824.565 241.092 812.802C240.285 811.422 238.51 810.949 237.127 811.755C235.754 812.551 235.281 814.303 236.059 815.678H236.064Z" fill="black"/>
<path d="M182.169 1028.34C175.188 1029.87 171.146 1023.23 174.105 1017.15C175.072 1014.97 172.035 1013.37 170.764 1015.39C166.915 1021.58 169.009 1030.43 176.135 1033.19C178.441 1034.09 180.782 1034.36 183.238 1034.03C187.328 1033.38 186.221 1027.47 182.169 1028.34Z" fill="black"/>
<path d="M171.358 1019.81C168.719 1018.26 166.669 1016.62 166.137 1013.65C165.382 1010.26 167.113 1007.02 168.651 1003.98C170.44 1000.66 172.509 997.349 174.603 994.179C176.711 991.024 179.07 988.028 181.647 985.239C182.169 984.675 182.314 983.903 182.106 983.213C179.22 972.849 179.201 961.815 182.082 951.485C183.03 948.06 184.287 944.726 185.82 941.527C187.357 938.048 182.377 935.607 180.583 939.028C174.279 953.188 173.307 969.675 178.026 984.419L178.485 982.393C175.85 985.384 173.384 988.52 171.102 991.786C168.897 995.033 166.683 998.372 164.667 1001.76C163.647 1003.51 162.68 1005.32 161.901 1007.32C161.075 1009.45 160.277 1011.64 160.253 1014.05C160.146 1019.21 164.445 1023.57 168.98 1025.08C172.383 1026.22 174.448 1021.58 171.373 1019.81H171.358Z" fill="black"/>
<path d="M109.955 832.516C107.156 843.859 104.695 855.11 102.176 866.545C100.928 872.398 99.9567 878.742 100.445 884.821C100.953 890.925 101.596 897.457 105.449 902.485L109.38 898.856C106.953 897.766 104.487 896.97 101.934 896.401C89.9001 893.631 77.4647 897.047 69.6177 906.832C64.7199 912.979 62.0221 920.616 61.2146 928.297C59.0003 947.837 72.0061 966.022 87.942 975.956L87.6567 971.271C80.7815 976.989 74.7282 983.912 71.953 992.693C70.7491 996.611 70.3864 1001.5 72.6057 1005.32C75.7919 1010.56 82.7251 1011.7 88.2949 1011.57C92.1435 1011.34 91.9984 1005.83 88.174 1005.78C86.2497 1005.82 84.34 1005.7 82.6091 1005.29C79.2972 1004.47 77.0296 1003.18 76.8169 999.525C76.609 993.981 79.6114 988.737 82.9717 984.25C85.3746 981.123 88.232 978.296 91.3312 975.749C92.5689 974.731 92.7478 972.907 91.7325 971.667C83.8758 966.34 76.5558 959.851 72.0158 951.528C68.1382 944.668 66.0931 936.76 66.9827 928.929C68.3123 916.028 75.6613 903.913 89.1845 901.636C92.9799 900.999 96.8962 901.196 100.663 902.041C102.833 902.523 104.985 903.223 106.967 904.115C108.35 905.606 110.942 904.54 110.903 902.538C111.014 899.049 110.516 895.571 109.757 892.227C108.534 886.963 107.934 881.545 108.302 876.146C108.485 873.444 108.877 870.641 109.312 867.804C111.096 856.37 112.808 844.747 114.031 833.201C114.253 830.712 110.642 829.944 109.946 832.506L109.955 832.516Z" fill="black"/>
<path d="M119.364 948.976C120.756 948.976 121.984 947.977 122.221 946.564C122.487 944.986 121.424 943.495 119.843 943.23C114.577 942.347 109.713 940.431 105.396 937.541C103.065 935.983 100.909 934.14 98.9848 932.065C97.897 930.893 96.0597 930.821 94.8849 931.906C93.71 932.992 93.6374 934.825 94.7253 935.997C96.9542 938.405 99.4587 940.542 102.161 942.352C107.17 945.7 112.793 947.919 118.876 948.942C119.04 948.971 119.2 948.981 119.359 948.981L119.364 948.976Z" fill="black"/>
<path d="M118.61 949.343C120.167 949.343 121.453 948.107 121.506 946.544C121.559 944.947 120.302 943.606 118.702 943.553L102.935 943.027C101.315 942.984 99.9905 944.228 99.9374 945.825C99.8842 947.422 101.141 948.764 102.742 948.817L118.508 949.343C118.542 949.343 118.576 949.343 118.605 949.343H118.61Z" fill="black"/>
<path d="M204.55 839.917C202.147 856.384 198.115 873.184 188.015 886.713C185.578 889.95 182.667 893.183 179.815 896.517C176.943 899.846 174.095 903.276 171.455 906.986C168.719 910.899 166.224 914.86 164.894 919.651C163.289 924.905 164.923 930.468 168.303 934.695C168.69 935.139 168.283 934.762 168.017 934.174C167.824 933.749 167.737 933.267 167.742 932.852L168.52 934.955C171.624 938.468 176.28 940.441 180.854 940.808C184.567 941.03 185.21 935.752 181.575 935.066C178.442 934.57 175.463 933.209 173.481 930.743L174.259 932.847C174.259 932.418 174.158 931.926 173.955 931.486C173.757 931.033 173.379 930.613 173.495 930.753L173.481 930.734C173.428 930.657 173.254 930.411 173.196 930.319C170.638 926.324 170.672 923.241 172.693 919C175.918 912.477 180.801 907.093 185.602 901.534C188.203 898.567 191.921 894.505 194.247 891.359C203.892 878.496 208.776 862.772 209.525 846.904C209.66 844.733 209.651 842.397 209.627 840.221C209.52 837.109 205.033 836.791 204.55 839.927V839.917Z" fill="black"/>
<path d="M241.329 875.259C233.25 888.31 224.242 900.748 214.176 912.332C210.845 916.245 207.461 920.115 204.139 924.081C202.93 925.446 203.486 927.395 202.819 928.958C202.5 929.909 202.065 930.811 201.504 931.617C200.484 933.045 198.84 934.377 197.186 934.647C195.581 934.917 194.585 933.851 193.667 932.538C192.632 930.961 192.124 928.876 192.168 926.831C192.216 925.224 190.94 923.888 189.33 923.854C187.725 923.82 186.395 925.094 186.371 926.7C186.318 929.779 187.019 932.924 188.793 935.679C189.692 937.04 190.833 938.343 192.448 939.303C198.99 943.124 206.498 937.011 208.341 930.734C208.839 929.243 209.046 927.699 209.148 926.17L208.292 928.114C218.47 919.671 226.718 909.167 234.115 898.283C238.491 891.706 242.48 884.855 245.879 877.729C246.493 876.436 245.946 874.892 244.651 874.279C243.447 873.705 242.02 874.144 241.334 875.249L241.329 875.259Z" fill="black"/>
<path d="M185.186 940.562C189.533 940.562 192.492 937.758 193.333 936.856C194.421 935.684 194.353 933.855 193.178 932.765C192.003 931.679 190.166 931.747 189.078 932.919C188.764 933.257 187.081 934.946 184.824 934.757C181.952 934.521 180.482 931.245 180.327 930.869C179.404 928.678 179.965 926.56 180.25 925.75C180.782 924.239 179.984 922.589 178.471 922.059C176.957 921.533 175.304 922.324 174.772 923.834C174.143 925.624 173.331 929.214 174.975 933.117C176.382 936.446 179.583 940.137 184.345 940.528C184.625 940.552 184.906 940.562 185.177 940.562H185.186Z" fill="black"/>
<path d="M95.3587 807.138C76.5171 806.665 58.6135 794.652 51.2789 777.292L50.7664 780.419C53.3338 777.109 54.2717 772.646 52.7101 768.714C51.0517 763.976 46.2458 762.133 41.5463 763.479L45.6318 766.243C45.5206 763.947 45.2305 761.66 44.6454 759.412C43.1321 753.178 38.2102 746.052 30.8998 749.362C29.6621 749.888 28.5646 750.563 27.4816 751.234L32.2004 752.247C29.9715 747.393 24.2422 744.484 19.0785 746.148C13.9197 747.716 10.7915 753.091 11.391 758.369L14.9157 755.045C12.7448 754.543 10.3564 754.254 7.7552 754.871C-0.473801 756.951 -0.676865 766.335 0.536697 773.099C4.38528 796.581 19.3299 816.493 36.3778 832.333L36.9435 832.844C37.0353 832.922 37.3544 833.211 37.456 833.298L37.4946 833.332C37.3834 833.216 37.7944 833.636 37.1465 832.989C36.7065 832.497 36.46 831.725 36.4841 831.156L37.543 833.37C38.7662 834.379 39.9749 835.406 41.2369 836.371C44.9597 839.358 48.8663 842.098 52.9228 844.617C69.081 854.623 88.1692 860.538 107.248 859.959C108.229 859.921 108.998 859.091 108.954 858.112C108.921 857.296 108.345 856.63 107.586 856.452C95.7745 853.678 84.0112 850.638 72.7362 846.204C61.5338 841.818 50.7036 836.323 41.1547 828.936L42.2135 831.151C42.2232 830.577 41.9669 829.79 41.5124 829.288C40.8549 828.632 41.2514 829.042 41.1305 828.917L41.1015 828.893L41.0386 828.845L40.9081 828.739C29.4204 819.07 19.6587 806.998 12.9624 793.59C9.64565 786.816 7.23785 779.627 6.17902 772.274C5.72937 768.752 4.97514 763.653 7.67301 761.221C9.33138 760.029 11.3572 760.212 13.5812 760.685C15.1381 761.057 16.6998 760.097 17.0721 758.543C17.1687 758.143 17.1736 757.747 17.1059 757.361C16.6756 756.107 16.811 754.63 17.4588 753.395C18.6772 750.867 22.0085 749.772 24.4404 751.253C25.6298 751.928 26.5146 753.091 26.8095 754.375C27.1286 755.759 28.5114 756.623 29.899 756.309C30.4937 756.203 31.0546 755.721 31.5284 755.393C32.1811 754.124 33.5542 752.913 34.8548 752.898C35.8508 752.932 37.2094 753.969 38.0797 755.417C38.9935 756.854 39.5737 758.625 39.8541 760.439C40.1442 762.258 40.1248 764.149 39.8396 766.002C39.6172 767.44 40.6035 768.786 42.0443 769.008C42.6293 769.105 43.3642 768.912 43.9299 768.767C47.1596 766.046 49.3305 770.909 48.3732 773.698C48.0686 774.725 47.324 775.874 46.4875 776.52C45.685 777.389 45.5157 778.633 45.975 779.647C52.2943 793.933 64.8602 805.3 79.8097 809.975C84.7509 811.572 89.8711 812.479 95.0541 812.923C96.6544 813.063 98.0662 811.881 98.2016 810.284C98.3515 808.624 97.0316 807.167 95.3635 807.143L95.3587 807.138Z" fill="black"/>
<path d="M244.762 663.167C246.942 648.442 240.865 632.511 228.657 623.686C218.542 616.087 204.879 614.442 192.864 617.67C180.854 620.69 170.469 629.003 164.532 639.782L168.781 638.918C167.316 637.972 165.818 637.176 164.232 636.568C160.876 635.232 157.168 634.677 153.566 635.14C150.37 635.502 147.208 636.448 144.568 638.397C141.677 640.472 139.574 643.588 138.549 646.966C138.012 648.674 137.746 650.42 137.703 652.258C137.654 653.86 138.921 655.202 140.526 655.245C142.286 655.313 143.717 653.744 143.5 652.008C143.253 649.643 143.799 647.028 145.081 645.002C146.841 642.059 150.206 640.361 153.619 640.028C155.224 639.801 156.863 639.835 158.449 640.163C160.959 640.66 163.4 641.895 165.3 643.555C166.659 644.645 168.719 644.211 169.55 642.691C176.222 631.816 188.01 624.241 200.813 623.373C223.754 620.931 240.294 640.457 238.984 662.608C238.868 666.279 244.138 666.815 244.757 663.167H244.762Z" fill="black"/>
<path d="M233.187 668.933C233.139 667.871 232.766 666.492 232.148 665.493C232.094 665.411 231.804 664.919 231.737 664.813C221.404 647.868 204.724 634.894 185.689 629.158C182.875 628.323 180.018 627.599 177.136 627.083L174.293 628.058C175.246 631.334 173.418 633.138 171.3 635.169C169.395 636.94 167.37 638.44 164.822 639.381C163.729 640.404 163.821 642.083 164.831 643.111C177.658 659.052 194.416 672.166 213.499 679.765C213.499 679.765 216.134 679.644 216.139 679.644C216.951 677.989 217.957 676.759 219.219 675.596C220.35 674.559 221.641 673.782 223.039 673.048C226.167 671.403 229.682 670.086 233.187 668.933ZM227.569 667.49C226.22 669.522 224.18 670.911 222.043 672.291C219.514 673.869 216.376 675.171 213.267 674.617C213.267 674.617 215.922 674.501 215.897 674.491C207.2 669.965 198.782 664.962 190.925 659.11C183.069 653.262 175.845 646.618 169.26 639.367L169.275 643.092C169.502 641.678 169.951 640.448 170.464 639.275C170.986 638.108 171.586 637.008 172.267 635.975C173.375 634.45 174.288 632.694 176.203 632.048C176.88 631.811 177.673 631.671 178.746 631.763L175.903 632.738C189.102 636.062 201.577 642.358 211.841 651.308C216.995 655.752 221.588 660.842 225.577 666.357C226.08 667.042 226.558 667.756 227.047 668.45C227.056 668.46 227.081 668.499 227.076 668.489C227.066 668.46 227.052 668.436 227.047 668.402C226.994 668.069 227.182 667.698 227.574 667.495L227.569 667.49Z" fill="black"/>
<path d="M202.834 682.664C190.132 684.835 176.73 682.664 165.387 676.542C161.606 674.51 158.038 672.074 154.789 669.271L155.389 669.99C148.228 657.86 139.593 646.556 129.333 636.887C126.718 634.475 123.904 632.086 120.81 630.147C119.166 629.216 117.493 628.299 115.501 628.183C108.2 628.198 103.646 635.227 100.735 640.949C98.1774 646.054 96.3837 651.434 94.7978 656.871C90.6205 670.448 89.6873 684.975 91.7228 699.054L92.2934 696.801C89.3779 700.545 86.9653 704.68 85.1522 709.065C83.3294 713.451 82.111 718.083 81.5163 722.787L82.8991 720.669C71.4404 726.83 64.512 738.313 64.1301 751.316C63.753 765.853 69.4871 779.782 76.8265 792.008C83.1505 802.043 91.9742 810.535 101.973 816.715C102.901 817.294 104.119 817.01 104.7 816.083C105.251 815.205 105.019 814.062 104.197 813.454C93.3232 805.517 84.4415 795.245 78.804 783.096C72.1753 768.974 66.9101 751.243 75.0908 736.784C77.6726 732.234 81.4487 728.581 85.8968 725.629C86.6752 725.156 87.1732 724.35 87.2795 723.511C87.8114 719.313 88.8944 715.183 90.5189 711.28C92.1338 707.377 94.2853 703.695 96.8817 700.357C97.4087 699.7 97.5924 698.866 97.4522 698.094C96.4223 692.816 95.9002 687.441 95.8373 682.056C95.7599 673.931 96.9397 665.913 99.096 658.063C100.498 652.842 102.176 647.651 104.506 642.802C106.6 638.576 110.497 632.004 115.593 632.274C117.246 632.636 118.735 633.679 120.167 634.783C122.212 636.39 124.121 638.305 125.964 640.279C135.179 650.3 143.447 661.247 150.399 672.928C150.559 673.203 150.771 673.454 151.003 673.652C154.576 676.735 158.493 679.412 162.646 681.641C168.878 684.999 175.681 687.282 182.667 688.435C189.658 689.564 196.829 689.554 203.81 688.367C205.391 688.097 206.45 686.606 206.184 685.028C205.913 683.451 204.415 682.389 202.838 682.659L202.834 682.664Z" fill="black"/>
<path d="M225.485 702.933C229.044 692.748 235.256 683.557 243.679 676.773C246.469 674.515 249.456 672.489 252.614 670.708C253.527 670.202 253.851 669.049 253.339 668.137C252.86 667.292 251.816 666.959 250.941 667.336C243.8 670.443 237.418 675.282 232.404 681.246C227.4 687.199 223.73 694.354 222.014 701.929C221.554 704.139 224.707 705.046 225.49 702.928L225.485 702.933Z" fill="black"/>
<path d="M141.194 680.334C139.376 669.246 132.578 658.979 123.856 652.027C121.878 650.546 119.465 653.165 121.109 654.999C124.668 658.839 127.912 662.916 130.629 667.374C133.366 671.832 135.508 676.532 137.606 681.347C138.491 683.344 141.493 682.481 141.198 680.334H141.194Z" fill="black"/>
<path d="M92.4965 700.342C93.0911 701.456 94.7398 701.591 95.7213 701.008C98.5497 699.396 100.087 696.014 100.88 693.042C101.132 691.561 101.997 688.208 99.5941 688.237C99.1203 688.275 98.7141 688.531 98.4724 688.898C97.4667 690.441 96.403 692.584 95.5328 694.19C94.9042 695.387 94.266 696.68 93.7245 697.794C93.6907 697.891 93.6713 697.944 93.7535 697.958C93.9663 697.958 94.2322 697.939 94.5223 698.103C94.735 698.233 94.8124 698.378 94.7979 698.451C93.5118 696.965 91.2781 698.793 92.4916 700.342H92.4965Z" fill="black"/>
<path d="M230.832 707.391C232.747 706.643 233.724 704.877 234.705 703.213C235 702.638 235.281 702.059 235.474 701.413C235.764 700.443 235.213 699.425 234.246 699.131C233.023 698.759 232.061 699.816 231.219 700.487C230.291 701.355 229.411 702.272 228.739 703.352C228.425 703.907 228.164 704.506 228.086 705.244C227.888 706.72 229.459 707.926 230.837 707.391H230.832Z" fill="black"/>
<path d="M239.55 705.581L232.636 708.761C230.803 709.547 230.538 712.191 232.138 713.349C235.629 716.244 238.684 719.723 241.15 723.631C241.755 724.591 243.031 724.88 243.993 724.277C244.888 723.718 245.202 722.579 244.757 721.653C242.581 717.103 239.661 712.857 236.117 709.137L235.619 713.726L241.682 709.132C243.64 707.608 241.793 704.578 239.545 705.581H239.55Z" fill="black"/>
<path d="M127.293 677.912L131.403 684.304L132.515 679.827C127.907 682.104 123.701 685.091 120.094 688.618C118.286 690.451 120.752 693.254 122.802 691.71C126.495 688.859 130.6 686.635 134.923 685.11C136.325 684.613 137.055 683.074 136.552 681.675C136.412 681.289 136.185 680.946 135.914 680.671L130.518 675.316C128.729 673.593 125.983 675.837 127.288 677.916L127.293 677.912Z" fill="black"/>
<path d="M230.127 798.28C241.909 801.483 253.233 805.884 264.362 810.872C265.044 811.167 265.842 810.853 266.132 810.168C266.393 809.565 266.176 808.88 265.649 808.528C260.441 805.049 254.727 802.366 248.833 800.258C242.944 798.154 236.837 796.582 230.625 795.81C229.092 795.646 228.642 797.831 230.122 798.28H230.127Z" fill="black"/>
<path d="M234.014 805.642C238.36 808.629 244.791 812.566 249.287 815.437C254.407 818.664 259.402 822.022 264.556 825.226C265.199 825.622 266.045 825.424 266.446 824.782C266.785 824.232 266.688 823.542 266.253 823.103C261.873 818.732 256.922 814.988 251.734 811.63C246.531 808.291 241.044 805.363 235.194 803.312C233.748 802.83 232.762 804.779 234.014 805.647V805.642Z" fill="black"/>
<path d="M87.0088 756.343C77.1407 749.265 63.2694 749.13 52.5166 754.293C51.7237 754.674 51.3853 755.624 51.7672 756.42C52.125 757.163 52.9807 757.501 53.7398 757.231C56.37 756.309 59.0389 755.586 61.7416 755.122C67.1519 754.177 72.6975 754.432 78.0255 755.769C80.7041 756.406 83.3487 757.26 86.0466 758.181C87.1683 758.567 87.9709 757.038 87.0088 756.338V756.343Z" fill="black"/>
<path d="M82.377 761.018C73.6065 760.893 64.7393 762.596 56.7182 766.166C55.2291 766.871 56.022 769.104 57.6223 768.714C59.6772 768.178 61.732 767.672 63.782 767.199C69.9271 765.761 76.1738 764.868 82.4689 764.405C84.6011 764.193 84.5189 761.124 82.377 761.023V761.018Z" fill="black"/>
<path d="M77.9096 769.857C74.588 770.701 71.3921 772.009 68.3751 773.615C65.3581 775.232 62.5056 777.157 60.0059 779.473C59.4547 779.984 59.4209 780.843 59.9334 781.393C60.3734 781.871 61.0793 781.957 61.6159 781.644L65.8513 779.231C70.0673 776.853 74.4429 774.836 78.949 773.075C80.9023 772.274 79.9595 769.365 77.9096 769.852V769.857Z" fill="black"/>
<path d="M134.826 849.055C132.636 852.669 133.197 857.914 136.262 860.871C137.867 862.319 140.357 861.045 140.236 858.932C140.299 857.45 140.241 856.177 140.28 854.778C140.294 853.33 140.43 851.955 140.309 850.469C140.13 847.613 136.344 846.677 134.826 849.055Z" fill="black"/>
<path d="M153.634 852.331C151.917 855.062 152.043 858.666 153.29 861.556C153.726 862.516 154.277 863.423 155.012 864.176C156.636 865.821 159.373 864.432 159.107 862.179C159.063 860.736 158.986 859.438 159.044 858.058C159.092 856.717 159.257 855.106 159.116 853.74C158.909 850.908 155.162 849.987 153.639 852.336L153.634 852.331Z" fill="black"/>
<path d="M151.453 878.149C150.564 880.054 150.201 882.201 150.327 884.305C150.447 887.34 152.333 893.366 156.356 890.968C157.337 890.273 157.768 889.086 157.535 887.981C156.849 885.265 156.501 882.549 156.989 879.765C157.357 876.47 152.894 875.21 151.453 878.153V878.149Z" fill="black"/>
<path d="M137.113 879.34C135.919 882.206 136.194 885.608 137.562 888.353C138.017 889.255 138.587 890.09 139.298 890.79C140.251 891.754 141.943 890.905 141.769 889.583C141.522 886.616 141.986 883.856 142.649 881.015C143.21 877.603 138.515 876.219 137.113 879.34Z" fill="black"/>
<path d="M137.611 776.703C137.722 782.903 139.646 789.088 143.195 794.246C144.094 795.587 145.917 795.939 147.252 795.028C148.673 794.072 148.939 792.051 147.827 790.753C146.144 788.784 144.747 786.541 143.698 784.119C142.639 781.692 141.933 779.087 141.6 776.414C141.223 773.929 137.635 774.199 137.616 776.698L137.611 776.703Z" fill="black"/>
<path d="M154.562 760.729C153.73 758.533 150.713 757.704 147.58 756.845C145.472 756.266 143.683 756.184 140.198 756.039C132.732 755.735 129.846 756.526 127.985 757.245C126.283 757.901 125.422 758.249 124.9 759.122C123.14 762.051 126.636 767.474 129.865 770.373C131.142 771.522 134.792 774.793 140.067 774.527C144.07 774.325 146.739 772.197 148.523 770.779C149.708 769.833 156.022 764.584 154.562 760.733V760.729Z" fill="#4F3B24"/>
<path d="M157.168 759.744C155.95 756.449 152.314 755.079 149.355 754.133C147.672 753.54 145.719 753.187 143.974 753.11C138.312 752.912 132.467 752.531 127.061 754.664C120.563 756.811 120.843 762.181 124.078 767.155C129.387 775.396 139.264 780.1 148.093 774.093C152.343 771.145 159.112 765.679 157.168 759.749V759.744ZM151.956 761.713C152.357 763.319 149.935 765.963 148.746 767.223C146.763 769.181 144.462 771.222 141.788 771.951C137.727 773.128 133.554 771 130.813 768.052C129.087 766.171 127.259 763.739 127.022 761.187C127.003 760.738 127.129 760.521 127.172 760.478C127.182 760.492 127.124 760.55 127.25 760.478C128.7 759.831 130.383 759.305 132.012 759.151C134.99 758.832 138.099 758.996 141.174 759.175C143.616 759.3 145.511 759.498 147.682 760.077C149.132 760.487 150.984 760.724 151.966 761.718L151.956 761.713Z" fill="black"/>
<path d="M136.455 821.554C138.38 826.195 143.959 827.923 148.364 825.621C149.737 824.927 150.95 823.918 151.859 822.688C152.256 822.152 152.145 821.395 151.608 820.999C150.438 820.179 149.563 821.699 148.644 822.186C147.232 823.132 145.53 823.769 143.853 823.754C141.488 823.793 139.463 822.509 137.978 820.671C137.35 819.851 136.054 820.613 136.46 821.554H136.455Z" fill="black"/>
<path d="M166.407 802.255C162.559 801.628 157.245 800.311 151.506 797.329C147.725 795.365 144.708 793.175 142.412 791.235C140.841 792.249 138.766 793.373 136.214 794.285C132.819 795.496 129.783 795.896 127.559 796.012C127.646 797.397 128.308 805.657 135.247 810.945C142.165 816.218 151.501 815.62 157.922 811.856C163.067 808.841 165.479 804.296 166.412 802.245L166.407 802.255Z" fill="#E85834"/>
<path d="M115.38 786.681C120.81 799.683 135.696 802.221 145.767 792.577L140.468 792.755C142.136 794.381 143.906 795.862 145.806 797.146C154.141 803.022 165.059 805.102 174.878 802.352C178.04 801.507 181.188 800.195 184.016 798.579C185.931 797.503 187.734 796.272 189.46 794.864C190.113 794.333 190.21 793.378 189.678 792.726C189.141 792.07 188.169 791.978 187.521 792.519C185.984 793.763 184.258 794.844 182.484 795.785C180.695 796.711 178.828 797.469 176.923 798.072C165.513 801.773 152.773 797.754 145.622 788.191C145.622 788.191 144.462 787.327 144.457 787.327C143.089 786.28 141.029 786.806 140.318 788.369C138.428 792.475 133.569 794.999 129.014 794.444C124.184 793.976 120.084 790.155 118.731 785.571C118.034 783.163 114.5 784.297 115.375 786.676L115.38 786.681Z" fill="black"/>
<path d="M126.858 796.369C126.911 803.775 130.6 811.663 137.355 815.451C146.613 820.666 158.58 816.589 164.793 808.657C166.306 806.684 167.558 804.532 168.491 802.269C168.888 801.309 168.428 800.209 167.466 799.818C166.543 799.437 165.494 799.852 165.059 800.721C164.029 802.573 162.883 804.334 161.486 805.878C154.722 813.477 142.194 816.194 135.184 807.48C132.612 804.373 131.079 800.315 130.615 796.127C130.296 793.778 126.877 793.995 126.858 796.369Z" fill="black"/>
<path d="M149.05 794.487C145.366 796.075 142.344 799.191 140.961 802.931C140.159 805.184 143.335 806.573 144.457 804.475C145.743 801.874 148.078 799.896 150.82 799.042C154.054 797.865 152.241 793.185 149.05 794.492V794.487Z" fill="black"/>
<path d="M43.6494 775.989C43.7364 775.844 45.2836 773.21 44.2876 771.965C43.2239 770.643 39.4866 771.14 38.771 773.027C38.0409 774.937 40.6082 777.755 42.1651 777.475C42.8323 777.355 43.2384 776.684 43.6494 775.994V775.989Z" fill="#D39281"/>
<path d="M34.4148 757.453C32.9499 756.869 30.6339 758.558 30.1698 760.632C29.754 762.475 30.7596 764.839 32.2923 765.081C33.8008 765.317 35.2754 763.421 35.6864 761.8C36.0877 760.232 35.7299 757.983 34.4148 757.458V757.453Z" fill="#D39281"/>
<path d="M21.9988 754.703C20.1374 755.354 19.4218 759.32 21.0415 761.587C21.6749 762.47 22.9948 763.556 24.334 763.281C26.1278 762.909 27.1721 760.256 26.6693 758.196C26.1085 755.889 23.5653 754.152 21.9988 754.703Z" fill="#D39281"/>
<path d="M26.4566 773.765C26.7515 773.316 29.4591 769.288 32.1859 769.741C35.3189 770.257 37.4414 776.51 35.3721 780.544C34.2069 782.811 32.0409 783.747 31.1271 784.143C27.2205 785.832 21.3944 785.431 18.392 781.6C16.6176 779.338 15.0704 774.918 17.3283 772.704C19.1994 770.87 23.2897 770.938 26.4566 773.765Z" fill="#D39281"/>
<path d="M142.335 930.077C143.771 930.077 145.018 929.011 145.206 927.549C145.41 925.962 144.288 924.514 142.697 924.307C139.192 923.858 135.928 922.753 132.994 921.026C124.639 916.1 121.641 907.58 120.742 904.144C120.336 902.596 118.75 901.674 117.203 902.075C115.651 902.48 114.727 904.062 115.129 905.606C116.212 909.736 119.833 919.984 130.044 926.005C133.656 928.138 137.669 929.494 141.957 930.044C142.083 930.058 142.209 930.068 142.33 930.068L142.335 930.077Z" fill="black"/>
<path d="M110.211 1112C117.212 1112 127.129 1109.86 141.643 1103.23C161.452 1094.19 199.096 1071.9 228.657 1024.17C245.69 996.674 246.952 982.894 245.777 972.101C244.747 962.65 241.406 953.487 235.846 944.87C234.981 943.524 233.182 943.138 231.838 944.002C230.489 944.865 230.102 946.66 230.968 948.002C236.035 955.856 239.076 964.174 240.009 972.724C241.073 982.489 239.835 995.11 223.72 1021.13C194.962 1067.55 158.44 1089.2 139.226 1097.96C114.355 1109.31 105.14 1106.65 100.372 1103.65C97.6939 1101.97 93.6761 1098.29 89.7067 1085.74C84.6832 1069.87 84.0498 1053.79 87.5842 1031.99L87.6857 1031.36C91.7277 1006.45 95.905 980.699 115.54 955.808C123.271 946.009 132.51 937.397 143.026 930.198C147.165 930.724 151.323 930.565 155.403 929.725C160.567 928.659 165.566 926.459 169.864 923.362C171.165 922.426 171.455 920.616 170.517 919.318C169.579 918.021 167.766 917.731 166.465 918.667C162.825 921.292 158.594 923.154 154.224 924.056C150.452 924.833 146.599 924.92 142.775 924.317C142.049 924.201 141.31 924.365 140.7 924.775C129.304 932.432 119.306 941.667 110.98 952.228C90.4174 978.296 86.1192 1004.8 81.9612 1030.44L81.8596 1031.06C78.219 1053.51 78.9297 1070.91 84.1756 1087.49C88.7204 1101.84 93.8308 1106.38 97.2829 1108.55C100.063 1110.3 103.979 1111.99 110.207 1111.99L110.211 1112Z" fill="black"/>
<path d="M183.533 1075.58C183.76 1075.58 183.992 1075.55 184.224 1075.5C185.781 1075.11 186.733 1073.55 186.351 1071.99C183.542 1060.54 178.587 1050.05 171.624 1040.82C167.021 1034.71 153.015 1016.13 127.047 1010.5C110.298 1006.87 95.6971 1010.22 86.3996 1013.67C84.8959 1014.23 84.132 1015.9 84.6929 1017.39C85.2489 1018.89 86.9218 1019.65 88.4206 1019.09C96.9928 1015.91 110.439 1012.82 125.814 1016.16C149.679 1021.33 162.704 1038.62 166.988 1044.3C173.471 1052.91 178.093 1062.69 180.714 1073.37C181.038 1074.69 182.222 1075.57 183.528 1075.57L183.533 1075.58Z" fill="black"/>
<path d="M235.111 1022.78C243.34 1022.78 253.445 1021.16 263.318 1015.41C276.218 1007.89 283.402 996.23 287.159 987.767C291.883 977.129 293.353 966.929 293.154 960.932C293.004 956.348 291.97 953.729 289.896 952.701C286.995 951.258 284.809 953.594 282.276 956.295C279.766 958.973 275.976 963.026 269.7 966.789C261.955 971.435 252.928 974.137 242.876 974.818C241.276 974.924 240.072 976.304 240.178 977.901C240.285 979.498 241.672 980.709 243.268 980.593C254.248 979.85 264.145 976.878 272.688 971.749C279.66 967.566 283.784 963.161 286.516 960.247C286.753 959.996 287.004 959.726 287.256 959.46C287.57 962.268 287.367 967.566 285.641 974.427C283.76 981.92 277.528 1000.42 260.393 1010.4C248.707 1017.21 236.576 1017.53 228.454 1016.6C226.863 1016.42 225.422 1017.56 225.238 1019.15C225.055 1020.74 226.196 1022.17 227.791 1022.36C229.986 1022.61 232.452 1022.78 235.111 1022.78Z" fill="black"/>
<path d="M237.8 955.451C238.481 955.451 239.163 955.215 239.714 954.732L271.412 926.966C271.847 926.584 272.161 926.078 272.306 925.518C273.907 919.367 275.13 909.77 271.852 898.958C269.932 892.633 266.775 886.833 262.458 881.719C261.428 880.498 259.595 880.339 258.372 881.367C257.144 882.395 256.989 884.223 258.019 885.444C261.824 889.955 264.609 895.064 266.296 900.632C269.038 909.674 268.206 917.765 266.901 923.207L235.885 950.375C234.681 951.432 234.56 953.261 235.619 954.462C236.194 955.113 236.992 955.446 237.8 955.446V955.451Z" fill="black"/>
<path d="M122.023 982.465C118.068 981.22 106.397 1000.99 104.25 1022.1C103.694 1027.56 103.022 1034.21 105.053 1034.92C108.664 1036.19 120.413 1018.59 122.942 998.98C123.358 995.767 124.953 983.387 122.023 982.465Z" fill="#FFF3DC"/>
<path d="M297.578 691.349C304.115 683.011 308.684 673.265 311.928 663.225C314.181 656.06 315.825 648.505 317.058 641.099C318.712 630.648 319.432 619.817 318.828 609.236C318.765 607.711 318.683 606.119 318.518 604.672C318.272 601.849 317.894 598.303 317.416 595.592C316.086 586.545 313.727 577.518 310.323 569.036C301.504 546.302 283.339 529.396 266.659 512.413C258.58 504.052 250.907 495.348 244.225 485.843C233.298 470.515 225.161 453.276 219.707 435.284C218.919 432.954 217.991 429.326 217.338 426.937C217.053 425.915 216.512 423.772 216.294 422.73C209.022 391.804 207.93 359.7 210.086 328.093C212.208 297.832 217.358 267.499 228.483 239.158C229.957 235.284 231.77 230.893 233.458 227.106C239.303 213.833 246.236 201.033 254.214 188.908C257.42 184.064 260.785 179.321 264.305 174.694C265.078 173.676 264.88 172.219 263.86 171.447C262.849 170.68 261.408 170.868 260.63 171.862C241.411 196.304 226.423 224.081 216.497 253.526C210.318 271.783 205.836 290.609 202.814 309.643C199.686 329.439 198.695 349.654 199.981 369.658C201.842 397.101 208.384 424.202 219.084 449.541C224.218 461.82 230.402 473.805 237.655 484.974C238.738 486.74 240.227 488.791 241.392 490.513C242.272 491.845 244.351 494.634 245.284 495.941C250.612 503.043 256.366 509.865 262.259 516.48C273.742 529.406 286.052 541.94 294.387 557.124C308.055 581.74 309.477 611.644 304.816 639.048C302.611 652.196 297.544 667.485 294.494 680.464C293.812 683.344 293.116 686.22 292.651 689.173C292.419 690.697 293.473 692.116 294.996 692.347C296.012 692.502 296.984 692.082 297.588 691.344L297.578 691.349Z" fill="#FFF3DC"/>
<path d="M264.609 629.799C265.078 615.383 264.126 600.846 261.781 586.492C260.601 579.318 259.092 572.177 257.207 565.128C256.747 563.362 256.225 561.616 255.737 559.855C255.5 558.972 255.205 558.108 254.93 557.235L254.083 554.625L252.382 549.4L252.169 548.748L251.922 548.102L251.434 546.813L250.452 544.237C249.795 542.519 249.157 540.792 248.475 539.084L246.236 534.023C244.81 530.617 243.084 527.346 241.435 524.036C240.638 522.366 239.7 520.774 238.796 519.168C237.887 517.561 236.987 515.945 236.059 514.353L233.153 509.663L231.698 507.318L230.175 505.041L227.11 500.496L223.952 496.076L222.371 493.867L220.766 491.71L217.556 487.397L211.116 478.968L207.92 474.79L204.792 470.631C202.679 467.861 200.692 465.082 198.647 462.308C197.622 460.923 196.684 459.51 195.692 458.115C194.725 456.711 193.72 455.322 192.782 453.903L189.992 449.638L188.595 447.506C188.121 446.801 187.7 446.063 187.251 445.344L184.592 441.007C184.147 440.278 183.707 439.578 183.262 438.826L181.942 436.577C178.451 430.633 175.212 424.646 172.03 418.61C168.859 412.574 165.75 406.5 162.801 400.348C159.847 394.197 156.975 387.997 154.344 381.681C151.729 375.366 149.302 368.954 147.252 362.416C145.206 355.883 143.509 349.23 142.277 342.5C141.068 335.764 140.285 328.956 139.975 322.134C139.656 315.317 139.729 308.48 140.357 301.701C140.995 294.927 142.049 288.221 143.674 281.688C145.298 275.156 147.45 268.792 150.099 262.64L151.124 260.344C151.472 259.581 151.792 258.809 152.174 258.062L153.281 255.799C153.648 255.046 154.011 254.289 154.417 253.55C155.964 250.559 157.593 247.606 159.324 244.682C162.791 238.84 166.519 233.06 170.367 227.231C174.192 221.393 178.108 215.488 181.889 209.409C189.46 197.27 196.548 184.47 202.142 171.018C207.794 157.591 212.078 143.642 215.119 129.52L216.26 124.223L217.208 118.887C217.512 117.106 217.86 115.336 218.126 113.55L218.871 108.19C219.867 101.045 220.481 93.8606 220.94 86.6814C221.796 72.3181 221.467 57.9162 220.022 43.6783C218.494 29.4453 215.931 15.3618 212.083 1.66918C211.739 0.448515 210.468 -0.265549 209.245 0.077009C208.152 0.380969 207.465 1.42794 207.577 2.51834V2.53281C208.292 9.51906 208.935 16.4764 209.424 23.4337C209.936 30.3861 210.187 37.3386 210.337 44.2718C210.347 47.7408 210.444 51.2049 210.357 54.6643C210.323 56.3964 210.337 58.1236 210.284 59.8509L210.096 65.0327L210.009 67.6236L209.849 70.2097L209.54 75.377C209.424 77.0994 209.245 78.8122 209.1 80.5298L208.868 83.1062C208.79 83.965 208.722 84.8238 208.606 85.6778C207.814 92.5193 206.88 99.3415 205.585 106.091L204.627 111.153C204.299 112.836 203.888 114.506 203.525 116.185L202.403 121.207L201.098 126.182C200.663 127.841 200.257 129.506 199.797 131.156L198.347 136.082C197.887 137.732 197.336 139.348 196.809 140.974L196.026 143.411C195.765 144.226 195.509 145.037 195.214 145.838L193.502 150.658C192.932 152.264 192.279 153.837 191.67 155.429L190.751 157.813L189.77 160.167C189.102 161.73 188.493 163.323 187.768 164.862C182.305 177.339 175.661 189.241 168.322 200.989L157.105 218.798C153.377 224.848 149.664 231.038 146.323 237.532C144.641 240.77 143.05 244.079 141.546 247.437C141.155 248.267 140.812 249.126 140.459 249.98L139.405 252.537C139.042 253.382 138.737 254.26 138.413 255.123L137.451 257.719C134.971 264.681 133.037 271.846 131.674 279.068C128.947 293.533 128.134 308.114 128.686 322.602C128.976 329.849 129.561 337.072 130.426 344.261C131.263 351.454 132.399 358.619 133.738 365.75C135.087 372.881 136.658 379.983 138.568 387.003C140.463 394.023 142.644 400.98 145.192 407.793C147.735 414.61 150.641 421.288 153.837 427.811C157.028 434.334 160.615 440.679 164.251 446.883L165.61 449.185C166.064 449.952 166.562 450.738 167.036 451.51L169.913 456.176C170.401 456.948 170.86 457.739 171.368 458.496L172.886 460.769L175.932 465.309C176.952 466.819 178.031 468.271 179.075 469.757C180.134 471.224 181.168 472.734 182.251 474.167C184.422 477.043 186.554 479.976 188.774 482.765L192.076 486.991L195.378 491.15L201.934 499.396L205.14 503.478L206.74 505.518L208.287 507.569L211.382 511.665L214.336 515.805L215.82 517.87L217.222 519.969L220.026 524.171C220.916 525.594 221.777 527.032 222.652 528.46C223.522 529.893 224.421 531.312 225.205 532.788C226.815 535.721 228.507 538.616 229.924 541.661L232.148 546.177L234.169 550.799L235.179 553.115L235.687 554.273L235.938 554.852L236.161 555.445L237.959 560.188L238.863 562.557C239.163 563.348 239.482 564.13 239.748 564.94C240.29 566.547 240.865 568.144 241.387 569.76C243.485 576.216 245.332 582.772 246.87 589.411C247.252 591.071 247.648 592.731 247.982 594.405L248.509 596.909L248.987 599.423C249.65 602.776 250.201 606.148 250.718 609.535C251.202 612.922 251.637 616.324 252.014 619.735C252.386 623.146 252.681 626.572 252.942 630.007V630.045C253.189 633.239 255.984 635.637 259.184 635.396C262.167 635.169 264.454 632.709 264.561 629.794L264.609 629.799Z" fill="#FFF3DC"/>
<path d="M112.648 164.645L111.991 171.515C111.831 173.151 110.879 174.608 109.438 175.409L103.389 178.762C99.7583 180.774 100.019 186.067 103.829 187.717L110.173 190.467C111.686 191.123 112.779 192.479 113.093 194.095L114.423 200.869C115.22 204.936 120.341 206.326 123.092 203.219L127.675 198.047C128.768 196.816 130.397 196.194 132.031 196.397L138.897 197.231C143.016 197.733 145.927 193.299 143.819 189.729L140.304 183.78C139.467 182.361 139.38 180.625 140.077 179.134L142.992 172.876C144.742 169.118 141.416 164.992 137.364 165.89L130.61 167.385C129 167.742 127.317 167.284 126.113 166.165L121.051 161.461C118.01 158.638 113.049 160.52 112.653 164.645H112.648Z" fill="#FEC400"/>
<path d="M158.42 299.231L152.439 305.127C151.013 306.531 148.987 307.149 147.02 306.772L138.762 305.2C133.806 304.254 129.914 309.392 132.176 313.889L135.948 321.387C136.847 323.172 136.808 325.29 135.841 327.041L131.79 334.394C129.358 338.804 133.052 344.087 138.036 343.33L146.347 342.07C148.33 341.771 150.331 342.461 151.7 343.918L157.453 350.036C160.905 353.708 167.08 351.836 167.901 346.866L169.27 338.587C169.594 336.614 170.875 334.93 172.688 334.076L180.298 330.505C184.862 328.363 184.988 321.927 180.506 319.611L173.041 315.756C171.262 314.839 170.048 313.103 169.797 311.12L168.748 302.797C168.119 297.803 162.017 295.695 158.43 299.236L158.42 299.231Z" fill="#FEC400"/>
<path d="M282.991 419.102L275.826 426.161C274.119 427.845 271.692 428.578 269.333 428.129L259.445 426.243C253.513 425.109 248.852 431.261 251.56 436.65L256.075 445.629C257.154 447.771 257.105 450.299 255.945 452.398L251.091 461.198C248.18 466.481 252.599 472.802 258.575 471.895L268.53 470.385C270.904 470.023 273.302 470.853 274.941 472.599L281.831 479.923C285.965 484.318 293.357 482.075 294.339 476.126L295.973 466.211C296.365 463.847 297.892 461.83 300.063 460.812L309.172 456.537C314.641 453.971 314.786 446.266 309.419 443.491L300.479 438.874C298.347 437.774 296.896 435.699 296.597 433.321L295.34 423.353C294.585 417.37 287.285 414.852 282.987 419.088L282.991 419.102Z" fill="#FEC400"/>
<path d="M228.869 581.383L228.604 586.184C228.541 587.327 227.917 588.364 226.936 588.963L222.821 591.462C220.35 592.962 220.679 596.639 223.377 597.681L227.869 599.418C228.937 599.833 229.735 600.745 230.001 601.859L231.113 606.534C231.78 609.342 235.382 610.167 237.21 607.929L240.251 604.204C240.976 603.316 242.093 602.839 243.239 602.935L248.04 603.326C250.921 603.557 252.822 600.392 251.255 597.97L248.644 593.932C248.02 592.967 247.914 591.761 248.354 590.704L250.211 586.266C251.323 583.602 248.896 580.823 246.101 581.561L241.445 582.792C240.333 583.086 239.153 582.816 238.283 582.068L234.628 578.937C232.433 577.06 229.034 578.503 228.874 581.383H228.869Z" fill="#FEC400"/>
<path d="M225.137 96.0611L221.226 98.8643C220.292 99.5349 219.093 99.699 218.01 99.313L213.475 97.6871C210.753 96.7125 208.094 99.2744 208.974 102.02L210.439 106.598C210.787 107.689 210.579 108.88 209.873 109.788L206.924 113.589C205.154 115.872 206.774 119.186 209.665 119.201L214.481 119.225C215.627 119.23 216.7 119.799 217.348 120.745L220.06 124.72C221.685 127.104 225.35 126.592 226.254 123.852L227.767 119.287C228.13 118.202 229 117.358 230.102 117.039L234.729 115.693C237.505 114.887 238.148 111.254 235.817 109.546L231.935 106.7C231.011 106.019 230.48 104.934 230.513 103.786L230.663 98.9801C230.75 96.0949 227.487 94.3628 225.142 96.0466L225.137 96.0611Z" fill="#FEC400"/>
</g>
<defs>
<clipPath id="clip0_73_56313">
<rect width="364" height="1112" fill="white" transform="matrix(-1 0 0 1 364 0)"/>
</clipPath>
</defs>
</svg>
