<svg width="437" height="535" viewBox="0 0 437 535" fill="none" xmlns="http://www.w3.org/2000/svg">
<g clip-path="url(#clip0_73_55898)">
<path d="M382.92 102.003C378.104 98.7835 377.524 92.5531 380.167 89.4797C382.868 86.3436 389.309 86.0462 393.164 90.5494C393.728 89.6727 397.698 83.6771 403.867 83.3693C410.877 83.0197 418.561 90.1267 419.308 100.782C423.732 98.2199 428.736 97.9382 431.385 100.172C434.989 103.214 435.172 111.714 428.48 117.736C429.389 120.423 428.888 123.35 427.106 125.37C424.834 127.947 420.833 128.647 417.474 126.899C421.564 128.673 424.092 132.863 423.742 137.283C423.393 141.754 420.175 145.532 415.792 146.597C418.085 148.543 419.417 151.293 418.848 153.62C418.002 157.096 412.857 159.908 407.231 157.899C399.129 139.265 391.027 120.637 382.92 102.003Z" fill="#FFF3DC"/>
<path d="M411.028 161.703C409.419 161.703 407.774 161.422 406.176 160.848C405.361 160.555 404.703 159.94 404.358 159.146L380.387 104.033C377.765 101.982 376.03 99.0081 375.586 95.7467C375.158 92.6002 375.962 89.5738 377.796 87.4396C379.671 85.2584 382.612 84.0113 385.866 84.0113H385.882C388.316 84.0113 390.677 84.7261 392.704 86.0307C394.966 83.5208 398.701 80.4943 403.715 80.2438C411.081 79.8838 419.329 86.1142 421.784 96.2894C426.224 94.9066 430.585 95.3971 433.411 97.7818C435.637 99.6551 436.943 102.76 437 106.298C437.073 110.733 435.245 115.174 431.938 118.732C432.409 121.9 431.526 125.104 429.462 127.441C428.334 128.725 426.939 129.67 425.404 130.27C426.532 132.461 427.07 134.961 426.872 137.533C426.537 141.796 424.244 145.533 420.812 147.792C422.008 149.921 422.421 152.238 421.899 154.372C421.319 156.751 419.553 158.891 417.062 160.232C415.239 161.213 413.165 161.709 411.034 161.709L411.028 161.703ZM409.514 155.29C411.154 155.614 412.768 155.416 414.084 154.711C415.165 154.127 415.683 153.386 415.803 152.885C416.022 151.993 415.39 150.37 413.76 148.987C412.862 148.225 412.47 147.025 412.742 145.877C413.013 144.734 413.907 143.837 415.051 143.555C418.132 142.803 420.373 140.184 420.619 137.037C420.849 134.126 419.308 131.376 416.748 130.019C416.508 129.915 416.268 129.8 416.027 129.675C414.528 128.897 413.922 127.071 414.648 125.552C415.374 124.029 417.177 123.356 418.723 124.029C418.953 124.128 419.177 124.232 419.397 124.342C421.324 125.119 423.513 124.718 424.756 123.303C425.78 122.14 426.072 120.392 425.513 118.738C425.111 117.553 425.456 116.243 426.386 115.408C430.377 111.818 430.753 107.91 430.732 106.397C430.706 104.722 430.183 103.25 429.368 102.567C427.995 101.408 424.443 101.434 420.885 103.496C419.95 104.038 418.801 104.059 417.845 103.553C416.889 103.047 416.262 102.082 416.189 101.007C415.568 92.1358 409.289 86.2603 404.029 86.5055C399.568 86.7299 396.397 91.327 395.807 92.2454C395.274 93.0803 394.37 93.6125 393.383 93.6804C392.396 93.743 391.429 93.3464 390.787 92.5898C389.533 91.1235 387.742 90.2782 385.877 90.2782H385.872C384.487 90.2782 383.218 90.7583 382.555 91.5253C381.907 92.2767 381.62 93.5708 381.802 94.9014C382.048 96.7121 383.093 98.3506 384.67 99.4046C385.172 99.7386 385.563 100.208 385.804 100.761L409.519 155.296L409.514 155.29Z" fill="black"/>
<path d="M133.332 362.902C80.9343 375.143 42.5984 384.891 35.4787 387.625C34.0892 388.157 29.9939 389.728 27.0165 393.031C26.4628 393.647 24.3316 396.058 24.1278 398.672C24.1278 398.672 23.8458 402.314 28.897 404.939C38.3151 409.828 128.62 381.922 137.631 379.12C136.195 373.714 134.758 368.308 133.322 362.907L133.332 362.902Z" fill="#B26E24"/>
<path d="M32.4438 408.649C29.2626 408.649 28.1866 408.091 27.4553 407.71C20.7534 404.229 20.9624 399.011 21.0042 398.427C21.2444 395.343 23.1406 392.65 24.6868 390.934C28.1709 387.072 32.8251 385.288 34.3504 384.698C41.8881 381.807 81.3784 371.82 132.611 359.849C134.262 359.469 135.918 360.46 136.357 362.093L140.666 378.306C141.1 379.929 140.17 381.598 138.566 382.099C133.818 383.576 108.891 391.273 84.2357 397.926C51.792 406.682 38.4091 408.644 32.4386 408.644L32.4438 408.649ZM27.2672 398.813C27.2986 399.11 27.5859 400.723 30.3491 402.158C31.2476 402.549 38.1271 403.916 83.0604 391.763C104.221 386.044 125.502 379.579 133.839 377.012L131.081 366.638C82.2873 378.066 43.6432 387.839 36.6018 390.542C35.4213 390.996 31.8222 392.379 29.3462 395.124C28.1552 396.444 27.3874 397.816 27.2672 398.813ZM27.2672 398.844C27.2672 398.844 27.2672 398.886 27.262 398.907C27.262 398.907 27.262 398.886 27.2672 398.844Z" fill="black"/>
<path d="M228.877 442.358C288.504 429.073 348.126 415.782 407.753 402.497C381.667 389.739 352.874 372.707 323.821 349.805C231.891 277.357 188.655 186.614 168.795 133.546C154.754 133.478 140.065 133.854 124.786 134.804C85.5311 137.235 50.0107 142.955 18.8154 150.041C26.0292 165.805 37.9964 192.02 52.6643 224.602C100.831 331.573 109.304 354.162 133.484 380.503C150.58 399.131 179.728 424.209 228.882 442.358H228.877Z" fill="#B26E24"/>
<path d="M228.877 445.489C228.506 445.489 228.14 445.426 227.79 445.296C188.551 430.81 156.039 409.724 131.164 382.621C109.492 359.009 100.12 338.1 65.2583 260.32C60.5988 249.915 55.4745 238.487 49.8017 225.886C38.5292 200.849 27.1418 175.771 15.9633 151.345C15.5715 150.489 15.5872 149.498 16.0051 148.658C16.423 147.813 17.2013 147.202 18.1206 146.993C53.1291 139.041 88.9525 133.891 124.593 131.683C139.24 130.775 154.117 130.342 168.811 130.421C170.111 130.426 171.276 131.235 171.731 132.456C204.2 219.217 257.465 293.528 325.764 347.352C351.412 367.562 379.462 385.173 409.137 399.69C410.334 400.274 411.028 401.547 410.872 402.867C410.715 404.188 409.738 405.268 408.443 405.555L229.566 445.416C229.342 445.468 229.112 445.489 228.882 445.489H228.877ZM23.2659 152.253C33.9324 175.578 44.7766 199.472 55.5163 223.318C61.1891 235.92 66.3134 247.353 70.9781 257.758C105.516 334.813 114.794 355.518 135.782 378.389C159.795 404.553 191.183 424.971 229.096 439.102L398.476 401.354C371.319 387.438 345.582 370.948 321.872 352.262C281.039 320.082 245.639 281.004 216.643 236.103C196.799 205.373 179.973 171.931 166.617 136.667C152.748 136.646 138.77 137.068 124.974 137.924C90.9479 140.032 56.749 144.849 23.2659 152.248V152.253Z" fill="black"/>
<path d="M419.997 400.838C419.71 396.94 415.583 394.31 413.87 393.245C413.87 393.245 369.579 365.824 337.7 344.665C338.18 347.238 338.212 349.914 338.013 352.466C337.804 355.143 336.848 357.491 335.213 359.276C349.056 370.03 371.152 385.611 404.086 404.856C406.777 406.426 412.481 409.667 416.471 407.454C418.697 406.218 420.185 403.4 420.003 400.843L419.997 400.838Z" fill="#B26E24"/>
<path d="M413.348 411.342C408.981 411.342 404.671 408.826 402.504 407.558C368.357 387.61 346.016 371.637 333.286 361.749C332.596 361.211 332.163 360.413 332.09 359.542C332.017 358.67 332.309 357.809 332.899 357.162C334.048 355.91 334.733 354.204 334.889 352.226C335.093 349.632 334.999 347.284 334.618 345.244C334.388 344.007 334.921 342.755 335.971 342.061C337.021 341.367 338.384 341.367 339.434 342.061C370.906 362.949 415.077 390.313 415.521 390.589C417.302 391.69 422.714 395.045 423.121 400.613C423.398 404.422 421.288 408.362 417.986 410.194C416.498 411.018 414.915 411.347 413.343 411.347L413.348 411.342ZM339.476 358.613C352.378 368.47 373.821 383.555 405.664 402.153C407.341 403.134 412.434 406.108 414.946 404.715C416.09 404.083 416.968 402.413 416.868 401.067C416.696 398.682 413.322 396.595 412.214 395.912C411.796 395.651 372.222 371.136 341.236 350.765C341.215 351.401 341.184 352.054 341.132 352.711C340.965 354.861 340.4 356.854 339.471 358.613H339.476Z" fill="black"/>
<path d="M3.22838 166.707C3.8082 172.025 7.03115 175.682 7.58485 176.329C17.2537 187.674 40.4099 253.656 66.5121 302.618C66.5121 302.618 110.944 385.966 215.431 447.947C217.662 449.267 223.674 452.841 227.816 450.545C230.042 449.308 231.53 446.491 231.348 443.934C231.06 440.036 226.934 437.406 225.22 436.342C148.35 389.582 112.093 340.96 94.4949 311.321C71.4693 272.551 63.3048 251.757 63.3048 251.757C46.4222 208.765 37.61 157.779 19.8707 152.352C18.2357 151.851 13.0853 150.276 8.87507 152.791C4.34623 155.499 2.7008 161.865 3.22838 166.702V166.707Z" fill="#B26E24"/>
<path d="M224.693 454.427C220.221 454.427 215.818 451.813 213.833 450.639C159.476 418.396 121.6 380.32 99.3893 354.057C75.2824 325.546 64.2032 304.95 63.7435 304.089C50.3868 279.037 37.6621 249.221 27.4344 225.265C17.8804 202.889 9.63238 183.562 5.19756 178.359L5.16099 178.317C2.34026 175.02 0.543343 171.017 0.109785 167.052C-0.511822 161.327 1.45747 153.584 7.2661 150.114C10.8547 147.969 15.4044 147.719 20.7847 149.367C34.5541 153.578 42.3895 178.396 52.3039 209.809C56.5663 223.318 60.975 237.287 66.2143 250.619C66.2926 250.823 74.5929 271.69 97.1797 309.73C124.985 356.546 168.607 398.249 226.84 433.67C228.642 434.786 234.059 438.136 234.466 443.709C234.743 447.519 232.633 451.458 229.331 453.285C227.842 454.109 226.26 454.432 224.687 454.432L224.693 454.427ZM6.34152 166.368C6.63927 169.097 7.9086 171.894 9.91968 174.242L9.96669 174.294C15.0231 180.227 22.6496 198.084 33.2012 222.807C43.382 246.653 56.0492 276.329 69.2753 301.146C69.385 301.349 80.5844 322.144 104.315 350.175C126.191 376.026 163.509 413.507 217.03 445.254C221.475 447.889 224.588 448.75 226.291 447.806C227.435 447.174 228.313 445.499 228.213 444.158C228.041 441.773 224.667 439.686 223.559 439.003C164.46 403.055 120.122 360.627 91.7889 312.923C68.8992 274.377 60.7138 253.766 60.3795 252.905C55.0671 239.369 50.6219 225.296 46.3281 211.687C37.7092 184.386 29.5708 158.598 18.9513 155.347C17.6036 154.935 13.4978 153.678 10.4838 155.478C7.23476 157.419 5.92886 162.533 6.34675 166.363L6.34152 166.368Z" fill="black"/>
<path d="M59.4706 306.844C38.7591 354.146 24.5196 389.117 22.9368 396.036C22.6287 397.388 21.7198 401.364 23.548 405.252C23.8875 405.972 25.2561 408.774 28.1343 410.141C28.1343 410.141 32.146 412.04 38.5293 409.223C50.4286 403.978 78.2703 319.325 81.0336 310.867C73.8459 309.526 66.6583 308.185 59.4654 306.844H59.4706Z" fill="#B26E24"/>
<path d="M31.8012 413.893C28.9021 413.893 27.1104 413.11 26.797 412.964C24.2479 411.759 22.0906 409.494 20.7168 406.582C18.4236 401.714 19.5206 396.913 19.8862 395.337C21.5734 387.954 36.3301 351.886 56.6028 305.592C57.1878 304.256 58.6139 303.504 60.0504 303.77L81.6186 307.794C82.5066 307.961 83.2797 308.498 83.7393 309.276C84.199 310.053 84.3035 310.987 84.0214 311.843C82.5693 316.299 74.8749 339.666 66.1463 362.375C48.5115 408.252 42.1857 411.039 39.809 412.088C36.6487 413.481 33.9324 413.898 31.8117 413.898L31.8012 413.893ZM29.4349 407.282C29.7275 407.396 32.5952 408.409 37.2703 406.353C38.7538 405.701 44.7923 400.436 60.2854 360.121C67.6037 341.09 74.1854 321.585 76.9382 313.283L61.3406 310.377C38.8687 361.78 27.2671 391.147 25.9926 396.731C25.7262 397.9 25.0158 401.004 26.3844 403.916C27.1313 405.497 28.2126 406.692 29.4349 407.287V407.282Z" fill="black"/>
<path d="M209.523 531.869C202.247 531.869 196.182 529.824 191.502 525.795C186.942 521.871 184.121 516.408 183.118 509.567L183.108 509.484C181.368 497.691 162.276 414.165 143.826 334.015C143.152 331.093 143.67 328.082 145.278 325.541C146.919 322.947 149.494 321.152 152.524 320.484C153.354 320.302 154.2 320.213 155.036 320.213C160.437 320.213 165.045 323.834 166.241 329.021C192.881 444.769 204.357 496.11 205.851 506.238L205.867 506.337C206.149 508.278 206.582 508.727 206.635 508.774C206.635 508.774 207.246 509.233 209.44 509.233C210.626 509.233 212.046 509.097 213.66 508.826C228.95 506.274 256.118 499.971 277.942 494.904L278.125 494.862C290.212 492.055 300.649 489.634 307.236 488.272C330.345 483.482 350.215 478.671 389.81 469.08L389.873 469.064C390.813 468.835 393.665 468.146 394.877 466.549C396.136 464.89 395.922 461.91 395.833 460.642C395.201 451.704 381.735 401.657 353.668 312.892C352.765 310.027 353.036 306.98 354.441 304.319C355.873 301.611 358.296 299.623 361.263 298.725C362.36 298.391 363.499 298.224 364.643 298.224C369.699 298.224 374.108 301.418 375.613 306.176C395.744 369.848 417.652 443.454 418.759 459.066C418.979 462.192 419.658 471.694 413.295 480.08C409.221 485.449 403.188 489.133 395.363 491.027L395.274 491.048C355.444 500.696 335.454 505.539 311.968 510.407C305.643 511.717 295.305 514.117 283.338 516.893L283.212 516.925C261.064 522.064 233.505 528.462 217.495 531.133C215.938 531.394 213.034 531.88 209.523 531.88V531.869Z" fill="#B26E24"/>
<path d="M364.643 301.35C368.211 301.35 371.517 303.604 372.625 307.11C392.704 370.614 414.544 443.934 415.63 459.28C415.829 462.114 416.445 470.729 410.793 478.18C407.168 482.96 401.725 486.252 394.621 487.974C354.776 497.628 334.78 502.47 311.326 507.334C304.943 508.659 294.543 511.07 282.497 513.867C260.391 518.996 232.878 525.383 216.972 528.034C215.478 528.284 212.762 528.738 209.513 528.738C204.624 528.738 198.517 527.71 193.534 523.426C189.559 520.008 187.099 515.192 186.205 509.118L186.195 509.029C184.44 497.127 165.332 413.528 146.867 333.316C145.853 328.912 148.679 324.534 153.182 323.542C153.798 323.406 154.415 323.344 155.021 323.344C158.844 323.344 162.297 325.922 163.169 329.726C189.789 445.384 201.249 496.657 202.733 506.697L202.748 506.801C202.863 507.589 203.213 509.984 204.566 511.148C205.282 511.764 206.687 512.369 209.419 512.369C210.688 512.369 212.245 512.239 214.152 511.92C229.525 509.358 256.75 503.039 278.626 497.962C290.776 495.144 301.265 492.707 307.847 491.345C331.019 486.545 350.926 481.718 390.589 472.111C391.926 471.788 395.467 470.932 397.353 468.448C399.322 465.85 399.051 462.051 398.936 460.428C398.267 451.01 384.926 401.448 356.635 311.958C355.272 307.643 357.743 303.066 362.151 301.731C362.971 301.48 363.807 301.365 364.622 301.365M364.622 295.104C363.17 295.104 361.728 295.317 360.328 295.74C356.557 296.883 353.47 299.414 351.647 302.868C349.845 306.275 349.495 310.173 350.654 313.842C378.642 402.361 392.056 452.111 392.683 460.867C392.882 463.643 392.521 464.446 392.354 464.665C392.229 464.832 391.623 465.417 389.11 466.027H389.079C349.5 475.623 329.635 480.434 306.572 485.214C299.923 486.592 289.408 489.034 277.232 491.857H277.205C255.418 496.918 228.307 503.211 213.117 505.747C211.676 505.987 210.427 506.107 209.414 506.107C209.252 506.107 209.106 506.107 208.975 506.097C208.965 506.034 208.954 505.972 208.944 505.899L208.923 505.768C207.418 495.567 195.926 444.148 169.27 328.322C167.745 321.705 161.884 317.082 155.01 317.082C153.944 317.082 152.874 317.197 151.829 317.427C147.969 318.277 144.694 320.563 142.604 323.871C140.546 327.127 139.883 330.978 140.744 334.719C159.179 414.812 178.255 498.259 179.979 509.943L179.989 510.026C181.102 517.634 184.278 523.739 189.428 528.169C194.699 532.704 201.448 535 209.497 535C213.269 535 216.34 534.488 217.986 534.212C234.085 531.53 261.702 525.117 283.897 519.967L283.98 519.946C295.948 517.17 306.28 514.769 312.58 513.465C336.128 508.586 356.15 503.733 396.042 494.069L396.079 494.059C404.624 491.992 411.248 487.922 415.766 481.958C422.839 472.633 422.103 462.249 421.862 458.837C420.441 438.841 388.374 336.206 378.58 305.227C376.663 299.163 371.052 295.088 364.622 295.088V295.104Z" fill="black"/>
<path d="M270.613 276.652C288.112 278.687 312.836 282.204 342.166 288.565C349.604 290.178 421.559 305.978 420.441 315.141C420.133 317.656 414.34 319.535 411.88 320.333C404.859 322.608 398.602 321.382 396.517 320.943C386.906 318.935 341.33 309.078 278.872 294.827C276.119 288.769 273.366 282.711 270.619 276.652H270.613Z" fill="#B26E24"/>
<path d="M403.282 324.8C400.869 324.8 398.398 324.539 395.875 324.012C388.416 322.451 344.026 312.908 278.172 297.885C277.216 297.665 276.422 297.018 276.014 296.126L267.756 277.952C267.291 276.924 267.411 275.723 268.08 274.81C268.743 273.897 269.851 273.417 270.974 273.547C294.898 276.334 319.072 280.357 342.824 285.513C348.204 286.681 367.171 290.887 385.36 296.017C396.23 299.085 404.833 301.929 410.934 304.47C420.373 308.404 424.03 311.608 423.555 315.527C423.048 319.675 417.767 321.726 412.852 323.318C409.796 324.309 406.594 324.805 403.282 324.805V324.8ZM281.081 292.124C346.052 306.938 389.763 316.341 397.155 317.88C402.054 318.903 406.682 318.726 410.908 317.359C414.544 316.179 416.2 315.344 416.947 314.812C415.406 313.341 408.819 308.994 381.207 301.36C363.891 296.57 346.428 292.703 341.492 291.633C319.762 286.921 297.677 283.159 275.764 280.435L281.076 292.129L281.081 292.124Z" fill="black"/>
<path d="M54.4351 298.949C102.257 305.628 140.922 313.508 168.106 319.681C184.696 323.448 247.384 338.033 246.381 346.256C246.073 348.772 240.28 350.65 237.819 351.448C230.783 353.729 224.484 352.492 222.457 352.059C212.182 349.878 153.537 335.09 73.3131 313.878C71.746 313.805 63.4928 313.278 58.1072 306.583C55.8559 303.786 54.8895 300.89 54.4403 298.949H54.4351Z" fill="#B26E24"/>
<path d="M229.148 355.91C226.913 355.91 224.457 355.685 221.804 355.122C211.728 352.982 154.357 338.544 72.8168 316.988C69.8393 316.8 61.3614 315.626 55.6625 308.545C53.594 305.973 52.1523 302.983 51.3844 299.654C51.1493 298.652 51.4314 297.592 52.1261 296.836C52.8209 296.074 53.8499 295.709 54.8737 295.85C93.5596 301.255 131.89 308.248 168.805 316.633C186.393 320.63 202.273 324.664 214.726 328.296C224.745 331.218 232.627 333.91 238.154 336.29C246.663 339.953 249.949 342.953 249.499 346.632C248.993 350.78 243.706 352.831 238.796 354.423C236.446 355.184 233.165 355.905 229.153 355.905L229.148 355.91ZM59.2824 302.8C59.6585 303.437 60.0764 304.047 60.5413 304.626C64.8403 309.964 71.5056 310.669 73.4488 310.758C73.6734 310.768 73.8928 310.799 74.107 310.857C155.715 332.428 213.075 346.872 223.105 349.001C227.968 350.034 232.591 349.857 236.848 348.474C240.463 347.3 242.103 346.465 242.85 345.948C239.381 342.703 220.456 334.792 167.405 322.738C132.345 314.776 95.9938 308.07 59.2824 302.8Z" fill="black"/>
<path d="M93.8419 46.1174C90.3735 37.9511 95.8165 28.6369 98.1984 24.3528C104.075 13.7862 113.394 9.25689 116.972 7.57666C132.664 0.219162 147.441 4.57626 150.288 5.47377C166.46 10.5771 174.311 22.8552 176.171 25.9548C176.604 25.5686 183.437 19.74 192.223 22.2917C198.204 24.0241 202.775 28.9708 204.107 35.1229C203.172 38.3425 201.265 43.5867 197.185 48.7995C187.595 61.062 172.974 64.2451 157.366 67.6473C145.477 70.2407 138.378 69.891 135.808 69.7084C128.281 69.1762 122.175 67.4177 118.006 65.8992C115.494 64.3129 111.942 61.9752 107.831 58.9435C99.5357 52.8227 95.3881 49.7597 93.8419 46.1122V46.1174Z" fill="#FF9D33"/>
<path d="M47.6863 171.988C47.1326 168.534 56.5246 167.146 61.7378 159.433C64.6891 155.066 66.2353 148.768 61.5079 127.666C56.112 103.584 51.7555 101.325 48.59 81.5429C46.9237 71.1328 46.3804 60.848 50.8361 50.3388C52.7062 45.9295 54.827 41.108 59.6431 38.7285C61.3303 37.8936 67.6091 35.2533 87.5789 45.8147C94.7665 49.6135 104.958 55.776 116.053 65.4556C127.341 69.8909 136.707 70.2405 142.463 69.9379C147.624 69.6666 153.067 68.169 163.958 65.1738C178.26 61.2393 183.656 58.3068 187.663 55.5516C191.069 53.2087 193.346 51.0797 195.054 49.4726C203.757 41.2749 204.096 36.9126 212.485 26.8678C218.806 19.3016 224.557 12.5859 231.217 13.3425C234.701 13.7391 237.062 16.0246 238.17 17.0943C250.482 28.9968 245.352 67.7672 244.616 73.0114C243.205 73.1627 242.458 73.4549 242.364 73.888C242.187 74.7281 244.527 76.1005 249.374 77.9998C251.307 80.5932 254.06 84.4129 257.121 89.177C267.333 105.056 276.542 119.379 279.441 138.744C280.314 144.562 282.946 163.916 273.35 185.268C268.106 196.93 261.091 205.013 256.201 209.83C261.801 214.135 271.224 220.292 284.179 223.882C305.601 229.815 323.633 225.108 334.174 222.353C342.38 220.214 354.499 216.096 367.809 207.69C384.879 205.295 401.955 202.905 419.026 200.51C422.432 199.774 425.78 200.995 427.216 203.359C429.191 206.6 427.624 212.084 422.693 214.26C426.297 214.035 429.698 215.538 431.296 218.236C433.589 222.113 432.017 228.202 426.819 231.208C427.89 232.022 430.471 234.224 430.732 237.465C430.983 240.538 429.013 242.928 428.24 243.872C418.153 256.145 384.879 263.44 384.879 263.44C352.216 270.605 335.663 274.2 324.944 274.685C310.553 275.337 298.335 274.456 289.22 273.365C291.931 280.608 294.496 288.858 296.517 298.047C297.489 302.471 298.257 306.724 298.847 310.784C302.67 311.05 308.552 311.927 314.894 314.984C333.636 324.017 339.105 343.731 340.077 347.571C344.757 366.07 337.48 381.155 335.386 385.163C336.446 385.705 342.845 389.128 345.018 396.924C347.029 404.146 343.979 409.964 343.336 411.128C350.884 414.733 356.364 418.793 359.999 421.887C366.001 427.001 370.123 430.612 369.919 435.517C369.741 439.796 366.362 442.974 364.46 444.482C363.269 446.178 360.203 450.049 354.76 452.074C349.719 453.947 345.363 453.227 343.242 452.846C337.648 451.85 333.197 448.249 324.301 441.059C318.817 436.623 315.118 432.892 311.916 428.003C311.268 427.012 310.767 426.166 310.422 425.571C307.508 425.117 303.705 424.309 299.411 422.811C296.789 421.893 291.884 420.139 286.347 416.44C278.767 411.373 274.437 405.617 273.392 404.182C268.472 397.446 269.804 395.547 264.935 389.384C263.05 386.999 258.939 381.792 252.984 379.214C246.141 376.25 240.155 378.17 229.786 380.638C215.139 384.124 201.981 387.26 190.494 387.114C183.473 387.025 173.397 385.669 161.184 379.584C156.844 379.845 150.748 380.607 143.826 382.877C137.14 385.069 122.363 389.911 112.762 404.302C110.845 407.178 101.568 421.089 105.417 435.199C105.814 436.655 107.935 440.646 112.182 448.625C117.578 458.779 120.524 463.178 121.381 470.53C121.793 474.063 122.075 476.797 120.665 479.782C117.353 486.785 107.998 488.22 105.527 488.486C96.1769 489.509 88.8586 484.447 85.6775 482.182C70.435 471.313 67.3427 452.429 65.9584 443.981C64.9921 438.084 63.4981 428.347 66.4912 416.367C71.229 397.42 83.8492 386.269 89.9347 381.04C107.93 365.574 127.962 362.401 136.487 361.566C129.806 354.449 122.546 345.719 115.488 335.236C110.281 327.497 106.023 320.067 102.55 313.226C97.1537 312.746 89.684 311.958 80.8039 310.607C62.4482 307.81 58.1753 305.675 55.5008 304.032C53.542 302.826 44.876 297.499 41.1516 287.897C34.5333 270.845 48.193 252.425 52.9726 245.98C67.4158 226.501 88.2788 220.057 97.044 217.923C91.6219 216.822 83.5201 214.495 74.8751 209.23C65.0234 203.229 58.776 196.033 55.3075 191.347C56.2112 189.938 57.747 187.841 60.1237 185.847C64.7988 181.928 68.8262 181.683 68.8366 180.347C68.8627 177.342 48.4855 176.997 47.6759 171.978L47.6863 171.988Z" fill="#957C5E"/>
<path d="M96.762 48.6222C103.735 43.5711 112.161 38.2434 122.086 33.3593C139.757 24.6608 156.159 20.3297 168.884 18.0703C170.984 20.9037 173.084 23.7319 175.184 26.5654C167.683 33.6724 155.245 43.6024 137.537 50.4851C127.095 54.5447 117.541 56.4806 109.904 57.4147C108.092 57.1068 104.686 56.2667 101.338 53.6838C99.0603 51.9253 97.6238 49.9893 96.7724 48.6222H96.762Z" fill="black"/>
<path d="M168.466 78.9129C170.702 84.5327 171.135 92.5529 168.759 92.9704C165.687 93.5131 159.967 84.5066 158.066 81.5167C155.224 77.0448 151.223 70.9553 153.161 68.6019C154.399 67.0939 157.617 67.6731 159.878 68.2993C162.166 69.9117 166.22 73.2773 168.461 78.9076L168.466 78.9129Z" fill="#4F3B24"/>
<path d="M188.974 75.6931C191.606 81.313 192.113 89.3332 189.318 89.7507C185.699 90.2933 178.965 81.2869 176.73 78.297C173.381 73.8251 168.675 67.7355 170.952 65.3822C172.415 63.8742 176.197 64.4534 178.866 65.0795C181.556 66.6919 186.336 70.0576 188.974 75.6879V75.6931Z" fill="#4F3B24"/>
<path d="M199.296 63.3945C201.918 67.5951 202.419 73.5802 199.64 73.8933C196.041 74.2951 189.339 67.569 187.119 65.3409C183.792 62.0013 179.106 57.4563 181.373 55.6978C182.826 54.5707 186.592 55.0038 189.245 55.4735C191.925 56.6736 196.673 59.194 199.301 63.3997L199.296 63.3945Z" fill="#4F3B24"/>
<path d="M75.4966 226.788C79.3203 227.675 87.1975 230.091 93.0792 237.172C98.6841 243.924 101.291 253.494 99.3475 254.736C97.9476 255.628 94.8135 251.814 90.0913 248.401C84.5334 244.378 75.5332 239.995 60.8184 239.463C65.7129 235.236 70.6021 231.01 75.4966 226.788Z" fill="#4F3B24"/>
<path d="M40.9426 265.731C47.5609 261.04 53.6725 259.652 56.9947 259.161C59.1625 258.843 69.5835 257.314 75.3399 262.673C75.8675 263.163 77.398 264.588 77.0219 265.574C76.3846 267.249 70.7379 266.446 69.0716 266.336C63.6704 265.986 55.3023 270.109 42.4679 290.313C41.4023 287.474 40.2009 283.347 39.8666 278.249C39.527 273.036 40.2218 268.705 40.9374 265.725L40.9426 265.731Z" fill="#4F3B24"/>
<path d="M104.19 372.561C106.441 374.564 109.267 377.513 111.806 381.572C115.258 387.093 116.716 392.316 117.384 395.776C123.042 392.087 128.699 388.392 134.356 384.703C134.372 382.95 134.204 377.027 129.848 371.648C126.437 367.437 122.253 365.762 120.445 365.156L104.19 372.561Z" fill="#4F3B24"/>
<path d="M79.3935 390.777C83.7082 392.437 89.0206 394.92 94.6464 398.683C100.936 402.889 105.642 407.371 108.98 411.055C108.254 414.379 107.528 417.697 106.802 421.021C102.116 420.63 95.5553 419.571 88.2266 416.669C80.433 413.58 74.6662 409.552 70.9104 406.473C73.7364 401.245 76.5675 396.011 79.3935 390.783V390.777Z" fill="#4F3B24"/>
<path d="M65.4047 432.125C69.547 430.972 74.8333 429.928 80.9971 429.719C91.3085 429.37 99.7132 431.509 105.193 433.409C106.645 438.136 108.097 442.864 109.549 447.586C103.903 449.261 97.1223 450.848 89.3705 451.823C81.8433 452.773 75.0735 452.94 69.3172 452.747C68.0792 450.79 66.4181 447.644 65.5196 443.459C64.4801 438.601 64.945 434.531 65.4047 432.12V432.125Z" fill="#4F3B24"/>
<path d="M77.3302 470.154C80.3076 471.01 87.443 472.623 95.7903 470.04C107.669 466.366 113.289 456.9 114.533 454.672C115.28 455.325 122.525 461.905 121.569 472.226C121.475 473.27 120.44 482.96 112.067 487.792C103.328 492.843 93.9255 488.355 91.5436 487.218C81.2061 482.286 77.9152 472.096 77.325 470.149L77.3302 470.154Z" fill="#4F3B24"/>
<path d="M221.647 313.654C219.37 318.543 216.528 326.375 216.533 336.139C216.544 350.06 222.342 363.533 225.476 363.168C228.569 362.808 226.035 349.325 233.959 333.843C238.316 325.342 244.161 319.482 248.638 315.746C239.643 315.047 230.642 314.348 221.647 313.654Z" fill="#4F3B24"/>
<path d="M260.793 317.583C257.11 320.855 251.098 327.184 248.178 336.827C244.804 347.973 246.324 361.05 249.782 361.796C252.785 362.448 255.172 353.384 265.604 341.179C271.089 334.766 276.417 330.263 280.031 327.482C273.617 324.184 267.202 320.886 260.788 317.583H260.793Z" fill="#4F3B24"/>
<path d="M304.133 345.072C306.562 335.168 312.7 328.948 313.306 328.348C315.254 326.422 318.466 323.704 323.168 321.476C325.367 322.66 328.558 324.721 331.557 328.139C335.506 332.637 337.193 337.276 337.94 339.937C332.868 337.85 329.196 338.09 326.809 338.664C324.238 339.285 322.316 340.506 310.093 348.74C307.351 350.587 305.251 352.007 304.133 351.26C302.858 350.405 303.605 347.222 304.133 345.077V345.072Z" fill="#4F3B24"/>
<path d="M290.97 225.468C289.596 228.802 287.929 234.094 288.081 240.606C288.285 249.283 291.701 259.584 295.19 259.62C298.324 259.652 301.281 251.402 302.3 247.478C303.114 244.342 302.796 243.538 303.48 240.903C304.326 237.647 306.301 233.123 311.472 228.234C304.64 227.31 297.802 226.386 290.97 225.463V225.468Z" fill="#4F3B24"/>
<path d="M277.367 221.711C275.638 224.283 273.215 228.599 272.029 234.422C271.188 238.55 271.235 242.129 271.48 244.738C267.761 239.27 264.042 233.801 260.323 228.333C259.952 227.409 258.97 224.591 259.874 221.137C260.725 217.896 262.747 215.992 263.52 215.329C268.137 217.458 272.75 219.587 277.367 221.716V221.711Z" fill="#4F3B24"/>
<path d="M62.6466 147.776C64.1876 146.231 67.9747 145.824 75.4967 145.078C87.6363 143.873 89.6996 143.711 90.1749 144.77C91.204 147.061 83.6768 152.425 82.8358 153.015C78.8554 155.817 71.8036 159.673 60.8184 160.649C60.2542 158.296 58.9275 151.502 62.6466 147.766V147.776Z" fill="#4F3B24"/>
<path d="M48.1251 173.334C53.4584 170.72 61.1841 167.48 70.9052 165.241C77.2832 163.769 90.8175 160.654 92.6144 164.323C93.9621 167.078 88.4407 173.131 82.9507 176.136C76.7765 179.518 70.6544 179.043 66.0107 178.678C62.1295 178.375 55.5478 177.337 48.1199 173.334H48.1251Z" fill="#4F3B24"/>
<path d="M57.3499 193.45C63.5189 190.282 71.0983 187.752 79.7799 187.538C83.6036 187.444 88.7958 187.319 89.5637 189.369C90.6502 192.265 82.4387 198.183 72.7438 204.032C67.6142 200.505 62.4794 196.977 57.3499 193.45Z" fill="#4F3B24"/>
<path d="M126.04 78.4748C114.841 67.6421 103.056 57.879 89.2294 50.7981C81.4306 46.8115 67.9485 39.8505 59.5438 42.7883C58.6662 43.1379 57.8043 43.6806 57.2088 44.3537C56.044 45.8357 55.5164 47.8238 54.8948 50.0362C50.1309 69.8232 54.3567 90.7999 60.5362 109.898C61.7795 113.733 63.4301 118.424 64.2815 122.322C66.6374 133.04 66.9717 144.155 65.5091 154.972C63.9107 161.912 59.5438 168.195 53.6724 172.202C51.7658 173.517 49.713 174.608 47.5661 175.458L47.6444 169.703C54.7381 172.849 62.0981 175.401 69.6201 177.321C71.2968 177.744 72.3154 179.45 71.8871 181.13C71.6364 182.116 70.926 182.878 70.0536 183.244C65.1539 185.279 60.8862 188.738 57.9036 193.116L57.5954 189.203C68.6641 200.954 82.6842 209.892 98.0259 214.949C100.888 215.888 100.847 220.01 98.005 220.908C88.3518 223.939 79.1583 228.49 71.1088 234.616C65.8434 238.759 60.6929 243.298 56.2738 248.292C47.3676 258.264 42.7552 270.37 45.0588 283.619C45.6856 286.99 46.7878 290.282 48.6526 293.157C51.6561 298.141 56.8588 300.99 62.3123 302.607C68.7059 304.564 75.7421 305.947 82.3238 307.33C89.0518 308.671 95.8686 309.553 102.717 310.1C104.002 310.163 105.083 311.008 105.501 312.141C106.807 315.673 108.703 318.815 111.168 321.69C113.31 324.241 115.786 327.252 118.816 327.92C121.485 328.452 124.154 326.292 125.361 323.907C126.761 321.251 126.233 317.948 124.729 315.439C122.483 311.895 127.445 308.577 129.89 311.88C134.372 318.799 132.888 327.946 125.747 332.465C120.759 335.638 115.05 334.344 110.86 330.503C107.486 327.372 104.864 324.168 102.492 320.333C101.359 318.418 100.397 316.399 99.6243 314.322L102.388 316.357C95.2522 316.127 88.1324 315.371 81.0754 314.217C78.0353 313.727 73.6997 312.835 70.6439 312.229C64.4487 310.925 57.8461 309.573 52.1054 306.568C47.1534 303.964 43.1939 299.701 40.6135 294.77C37.2756 288.351 36.2727 280.707 36.7376 273.642C37.1085 266.013 39.7516 258.504 43.7529 252.075C48.6996 244.066 55.3074 237.788 62.4011 232.059C69.4111 226.261 77.3771 221.555 85.855 218.267C89.2346 216.937 92.6926 215.82 96.1977 214.917C96.182 214.917 96.0932 220.939 96.0566 220.897C79.7381 215.517 64.8144 206.005 53.0352 193.502C52.0061 192.412 51.9173 190.778 52.727 189.589C54.5605 186.912 56.7805 184.496 59.3035 182.445C61.8265 180.394 64.6472 178.719 67.6351 177.467L68.0686 183.39C60.2072 181.386 52.5128 178.719 45.0953 175.427C42.6455 174.399 42.6402 170.741 45.0849 169.708C46.793 168.972 48.4227 168.038 49.9115 166.937C52.821 164.787 55.2082 161.975 56.8223 158.755C57.6267 157.148 58.2379 155.452 58.6505 153.699L58.5722 154.111C59.4863 146.049 59.3662 137.893 58.0916 129.925C57.0417 121.821 53.6359 113.994 51.3062 106.193C47.5452 93.7638 45.0588 80.8647 45.0431 67.8247C45.0483 61.2342 45.7221 54.529 47.3989 48.0847C48.0101 45.8826 48.6369 43.6597 50.0212 41.2229C55.8872 31.5903 69.1238 34.0845 77.8994 37.4398C83.0708 39.3339 87.9026 41.7969 92.6717 44.3433C107.052 51.7739 119.834 62.8675 128.297 76.6641C129.19 78.1408 127.221 79.6332 126.04 78.4644V78.4748Z" fill="black"/>
<path d="M131.614 336.222C126.369 336.222 122.498 333.759 121.271 332.867C119.871 331.849 119.563 329.892 120.576 328.494C121.595 327.095 123.554 326.782 124.954 327.8C125.633 328.296 129.258 330.706 133.844 329.715C138.352 328.739 140.645 325.159 141.241 324.079C143.367 320.249 143.1 315.313 140.556 311.206C139.642 309.735 140.097 307.809 141.57 306.896C143.043 305.983 144.97 306.437 145.884 307.909C149.625 313.941 149.948 321.298 146.725 327.111C145.55 329.235 142.066 334.343 135.166 335.83C133.922 336.097 132.737 336.211 131.608 336.211L131.614 336.222Z" fill="black"/>
<path d="M143.612 323.307C150.048 323.234 154.937 320.093 154.738 313.304C154.608 306.787 152.001 300.097 147.864 294.936C132.643 276.031 107.846 267.781 84.1573 266.268C80.25 265.919 80.2814 260.283 84.2461 260.007C89.4435 259.808 94.6619 260.022 99.8332 260.654C122.467 263.252 148.345 275.88 158.969 296.971C162.36 304.188 164.527 315.412 159.795 322.556C156.311 328.045 149.447 330.132 143.351 329.564C139.344 329.136 139.621 323.391 143.612 323.307Z" fill="black"/>
<path d="M110.051 269.018C108.912 269.018 107.815 268.397 107.261 267.317C106.472 265.778 107.078 263.894 108.614 263.101C109.784 262.501 110.818 261.708 111.696 260.737C112.485 259.861 113.122 258.869 113.592 257.779C114.276 256.187 116.12 255.451 117.708 256.135C119.296 256.818 120.033 258.66 119.354 260.247C118.617 261.963 117.609 263.539 116.355 264.927C114.971 266.461 113.331 267.724 111.482 268.669C111.022 268.903 110.536 269.013 110.051 269.013V269.018Z" fill="black"/>
<path d="M315.191 278.035C306.411 278.035 297.614 277.514 288.859 276.475C287.141 276.272 285.913 274.711 286.117 272.995C286.321 271.278 287.882 270.057 289.601 270.255C306.614 272.28 323.8 272.275 340.688 270.255C369.381 266.822 396.914 257.7 422.526 243.152C422.844 242.975 423.189 242.85 423.549 242.787C425.414 242.469 426.454 241.347 426.908 240.705C427.53 239.828 427.801 238.842 427.655 237.997C427.493 237.047 426.767 236.113 425.722 235.497C425.425 235.32 425.111 235.179 424.787 235.07C423.267 235.346 421.685 235.409 420.081 235.242C418.618 235.09 417.464 233.942 417.297 232.487C417.13 231.031 417.997 229.653 419.386 229.173C421.131 228.568 422.964 228.401 424.735 228.646C426.067 228.234 427.274 227.54 428.261 226.585C429.499 225.39 430.215 223.913 430.131 222.734C429.985 220.715 427.196 217.652 422.531 217.385C420.964 217.297 419.705 216.065 419.585 214.505C419.465 212.945 420.515 211.531 422.045 211.202C423.132 210.967 424.061 210.31 424.662 209.35C425.247 208.416 425.425 207.335 425.169 206.313C424.913 205.285 424.208 204.382 423.236 203.839C422.223 203.276 421.068 203.151 419.987 203.5C419.836 203.547 419.679 203.584 419.522 203.61L370.18 211.296C356.667 219.875 322.353 237.642 283.359 226.898C272.499 223.908 262.198 218.935 252.738 212.126C251.333 211.113 251.014 209.157 252.028 207.753C253.041 206.349 255 206.036 256.405 207.043C265.259 213.42 274.886 218.069 285.025 220.861C322.128 231.078 354.953 213.639 367.349 205.671C367.72 205.436 368.132 205.28 368.561 205.212L418.336 197.458C420.979 196.691 423.868 197.025 426.292 198.376C428.768 199.759 430.575 202.102 431.249 204.799C431.907 207.44 431.448 210.305 429.98 212.658C429.896 212.788 429.813 212.919 429.724 213.049C433.49 215.074 436.102 218.476 436.379 222.285C436.598 225.354 435.229 228.563 432.618 231.088C432.236 231.459 431.834 231.803 431.421 232.127C432.686 233.499 433.532 235.158 433.835 236.938C434.258 239.411 433.6 242.104 432.027 244.326C430.387 246.643 427.974 248.235 425.184 248.851C398.967 263.67 370.796 272.963 341.435 276.475C332.748 277.514 323.977 278.035 315.197 278.035H315.191Z" fill="black"/>
<path d="M253.971 210.977C259.67 221.095 265.975 230.9 272.901 240.209C275.508 243.757 278.381 246.982 281.149 250.473C284.894 255.326 288.201 260.507 291.043 265.95C303.318 289.108 306.912 317.359 295.608 341.591C293.91 345.046 288.744 343.136 289.737 339.4C295.989 318.851 295.456 297.358 287.198 277.466C284.529 270.907 281.159 264.651 277.226 258.754C274.055 253.933 269.997 249.544 266.701 244.718C259.832 234.913 253.73 224.612 248.429 213.9C246.767 210.273 251.86 207.502 253.976 210.983L253.971 210.977Z" fill="black"/>
<path d="M195.556 320.093C223.345 302.836 261.315 301.678 285.239 326.318C298.669 340.308 304.922 359.907 305.653 378.968L302.759 376.088C308.375 376.464 313.88 377.132 319.402 378.196C331.035 380.544 348.168 385.027 348.821 399.564C348.951 405.21 346.141 410.611 342.542 414.67C339.753 417.624 335.318 413.872 337.736 410.647C342.986 403.843 344.391 396.115 336.175 391.012C330.726 387.719 324.505 386.112 318.096 384.698C312.903 383.644 307.575 382.814 302.3 382.334C300.738 382.193 299.547 380.951 299.406 379.454C298.298 370.698 296.183 362.103 292.824 353.979C288.468 343.491 281.771 333.769 272.447 327.153C260.897 318.84 246.303 315.469 232.168 316.487C220.671 317.244 209.257 320.698 198.507 325.629C194.971 327.174 192.228 322.279 195.556 320.108V320.093Z" fill="black"/>
<path d="M320.618 427.413C318.519 427.413 316.737 427.137 315.463 426.86C313.77 426.49 312.705 424.82 313.076 423.129C313.446 421.439 315.118 420.369 316.81 420.745C319.083 421.246 323.58 421.726 328.14 419.346C329.802 418.48 334.848 415.85 335.668 410.637C336.341 406.353 334.001 401.756 329.702 398.923C328.255 397.973 327.858 396.027 328.809 394.586C329.76 393.141 331.708 392.744 333.15 393.694C339.497 397.874 342.918 404.908 341.858 411.608C340.985 417.134 337.344 421.6 331.04 424.893C327.31 426.839 323.638 427.408 320.613 427.408L320.618 427.413Z" fill="black"/>
<path d="M319.276 400.676C324.97 406.259 325.999 414.801 320.958 421.198C317.599 425.67 312.021 428.431 306.374 427.93C299.683 427.455 293.811 424.126 288.248 420.932C278.496 415.584 269.328 408.341 264.564 397.806C263.316 395.197 262.668 392.311 261.195 390.093C256.713 383.915 248.476 380.492 240.875 381.285C238.279 381.562 235.751 382.261 233.212 383.336C230.188 384.614 227.195 385.491 224.181 386.305C212.934 389.258 201.281 390.37 189.684 390.177C185.808 390.052 181.708 389.916 177.895 389.154C152.884 384.5 134.366 364.499 119.234 345.703C111.498 336.17 104.916 325.686 99.708 314.582C98.1148 310.867 103.359 308.19 105.365 311.885C112.96 327.899 124.175 341.951 136.132 354.871C148.737 368.282 164.46 380.873 183.338 382.642C198.59 383.706 216.116 382.136 230.418 376.636C235.746 374.356 242.019 373.307 247.849 374.329C255.449 375.723 262.663 379.678 267.145 386.117C269.051 388.914 269.767 392.045 271.052 394.852C272.159 397.284 273.622 399.648 275.294 401.813C278.71 406.269 283.103 409.734 287.929 412.703C293.012 415.777 298.053 418.965 303.12 420.515C308.035 422.049 312.444 421.397 315.787 417.206C318.952 413.35 318.143 408.44 314.794 405.074C312.01 402.006 316.273 397.873 319.261 400.681L319.276 400.676Z" fill="black"/>
<path d="M299.181 307.674C329.718 307.924 347.99 333.723 345.352 362.792C344.553 371.611 341.92 380.137 337.836 387.766C337.021 389.295 335.114 389.869 333.584 389.055C332.173 388.304 331.572 386.623 332.126 385.173C337.527 370.74 338.854 354.23 332.863 340.01C328.637 329.637 319.955 321.528 309.623 317.338C306.097 315.866 302.357 314.765 298.497 313.894C294.872 313.012 295.457 307.747 299.176 307.674H299.181Z" fill="black"/>
<path d="M361.441 448.635C359.952 448.635 358.636 447.576 358.359 446.063C358.051 444.362 359.184 442.734 360.887 442.426C361.284 442.353 364.784 441.648 366.231 438.752C367.573 436.07 366.309 433.169 365.703 431.776C364.596 429.229 362.909 427.883 359.195 425.081C358.359 424.449 356.134 422.774 345.739 417.426C343.728 416.393 341.68 415.365 339.643 414.368C338.086 413.606 337.444 411.733 338.201 410.178C338.964 408.623 340.839 407.981 342.396 408.738C344.475 409.75 346.564 410.799 348.612 411.853C359.487 417.447 361.932 419.289 362.977 420.077C366.701 422.884 369.642 425.107 371.455 429.271C372.285 431.176 374.489 436.242 371.846 441.539C369.094 447.049 363.165 448.369 362.005 448.583C361.817 448.62 361.629 448.635 361.446 448.635H361.441Z" fill="black"/>
<path d="M348.006 456.436C345.065 456.436 342.516 455.94 340.975 455.554C339.298 455.137 338.274 453.436 338.697 451.756C339.115 450.075 340.818 449.053 342.5 449.48C344.558 449.992 351.642 451.385 356.197 447.649C357.126 446.887 358.067 446.031 358.417 444.701C359.148 441.946 356.614 438.815 355.58 437.844C354.321 436.66 354.259 434.677 355.444 433.419C356.63 432.162 358.615 432.099 359.874 433.284C360.532 433.904 366.273 439.535 364.476 446.308C363.577 449.705 361.19 451.662 360.172 452.497C356.405 455.586 351.877 456.441 348.011 456.441L348.006 456.436Z" fill="black"/>
<path d="M340.526 455.773C336.791 455.773 331.985 453.415 323.131 444.836C317.354 439.237 311.968 433.012 307.121 426.338C306.102 424.94 306.416 422.983 307.816 421.965C309.216 420.953 311.174 421.261 312.193 422.659C316.832 429.046 321.977 434.995 327.493 440.338C334.21 446.845 338.797 449.903 341.121 449.449C342.641 449.146 345.258 447.748 345.791 445.285C346.277 443.036 344.736 440.965 344.417 440.573C343.336 439.222 343.555 437.254 344.908 436.174C346.261 435.094 348.231 435.313 349.312 436.665C350.189 437.761 352.974 441.721 351.913 446.61C350.816 451.688 346.183 454.824 342.344 455.591C341.759 455.706 341.153 455.779 340.515 455.779L340.526 455.773Z" fill="black"/>
<path d="M138.921 365.517C125.732 366.252 112.683 370.286 101.359 377.101C94.4531 381.155 87.8922 385.872 82.5642 391.69C73.0834 401.934 67.6038 415.73 67.5882 429.683C67.5725 447.018 74.5825 464.279 86.3095 476.98C90.5615 481.499 95.9992 485.762 102.064 486.42C105.726 486.816 109.466 485.626 112.339 483.383C113.639 482.24 114.668 480.899 115.421 479.297C118.429 472.947 116.288 468.438 113.712 462.474C112.318 459.275 110.745 456.139 109.037 452.977C107.381 449.82 105.114 446.235 103.746 442.854C100.852 435.345 100.972 426.834 102.936 419.169C105.83 407.903 111.963 397.415 121.02 390.042C130.778 382.136 143.226 377.873 155.721 377.476C156.703 377.382 157.643 377.492 158.593 377.461C160.312 377.403 162.621 377.659 164.334 377.753C168.586 378.228 167.97 384.39 163.671 383.978C155.971 383.185 148.063 383.884 140.713 386.358C131.812 389.28 123.731 394.842 118.053 402.299C110.918 412.286 106.321 425.905 109.701 437.886C110.704 441.586 113.739 445.661 115.776 448.996C118.805 453.66 121.741 458.654 124.066 463.789C128.527 472.618 126.066 484.03 118.45 490.38C113.608 494.278 107.146 496.162 100.967 495.275C88.3467 493.344 79.8845 483.007 73.5483 472.993C61.6698 453.702 57.9036 428.603 66.7106 407.386C73.4647 390.85 85.9804 380.059 101.129 371.35C112.537 364.781 125.293 360.742 138.389 359.276C142.646 358.963 143.179 365.104 138.916 365.517H138.921Z" fill="black"/>
<path d="M215.504 246.638C218.649 248.12 220.78 251.397 221.318 254.773C221.485 255.905 221.485 257.064 221.193 258.18C220.707 260.242 217.85 260.769 216.654 259.047C215.645 257.679 214.867 256.349 213.948 255.029C213.081 253.724 212.14 252.56 211.372 251.146C209.847 248.454 212.715 245.375 215.494 246.633L215.504 246.638Z" fill="black"/>
<path d="M232.476 244.347C235.646 245.813 237.663 249.148 238.248 252.498C238.425 253.625 238.462 254.768 238.243 255.884C237.731 258.342 234.466 258.692 233.359 256.49C232.544 255.154 231.849 253.933 230.977 252.722C230.136 251.533 229.033 250.171 228.354 248.85C226.866 246.163 229.713 243.121 232.481 244.347H232.476Z" fill="black"/>
<path d="M242.145 278.844C245.044 280.655 247.212 283.634 248.147 286.922C248.444 288.028 248.617 289.166 248.575 290.303C248.413 293.737 243.712 294.488 242.458 291.336C241.471 288.472 240.175 285.805 238.091 283.572C235.808 280.806 239.105 277.033 242.145 278.844Z" fill="black"/>
<path d="M222.577 281.135C225.351 283.024 227.116 286.269 227.503 289.562C227.628 291.143 227.889 294.347 225.492 293.987C225.006 293.883 224.64 293.564 224.421 293.157C222.89 290.324 220.838 288.096 218.555 285.914C216.027 283.154 219.459 279.136 222.572 281.135H222.577Z" fill="black"/>
<path d="M63.3884 155.614C62.3333 158.275 60.1341 160.346 57.6373 161.693C55.1456 163.044 52.2517 163.764 49.431 163.498C48.0102 163.352 46.9759 162.084 47.1222 160.665C47.2319 159.569 48.0102 158.718 49.0079 158.431C50.9511 157.784 52.7741 157.09 54.5188 156.078C56.3209 155.055 58.0081 153.709 59.7842 152.608C61.7743 151.366 64.2451 153.464 63.3884 155.608V155.614Z" fill="black"/>
<path d="M116.387 64.1612C144.756 68.0226 169.135 61.693 193.931 48.0895L192.959 49.1174C194.182 46.8685 195.472 44.656 196.835 42.4853C199.876 37.5855 203.25 32.8631 206.906 28.4016C208.15 26.8675 209.534 25.3438 210.902 23.9663C215.578 19.3117 220.613 15.1529 226.255 11.6777C233.688 6.96574 239.716 9.55913 243.398 17.1671C250.335 32.3726 248.617 58.1708 247.086 74.7017L245.759 72.2753C249.244 74.1538 252.435 76.8672 254.707 80.2642C256.259 82.5758 257.387 85.1483 258.077 87.8409C258.296 88.4879 258.63 89.5211 258.845 90.1681C261.54 96.8421 265.651 103.172 269.234 109.538C275.597 120.657 281.818 132.628 283.766 145.542C287.047 166.316 278.177 187.204 265.118 202.994C257.941 211.703 248.951 218.987 238.796 223.955C237.245 224.722 235.365 224.085 234.597 222.535C233.829 220.986 234.466 219.107 236.017 218.34C242.281 215.303 248.105 211.379 253.234 206.678C255.794 204.319 258.223 201.793 260.469 199.111C271.533 185.915 279.431 168.935 278.679 151.496C277.958 137.418 271.413 124.42 264.517 112.215C260.939 105.744 257.016 99.6807 254.18 92.6937C253.84 91.9632 253.48 90.6743 253.219 89.902C253.093 89.5628 252.921 88.9158 252.827 88.5714C251.448 83.4838 247.969 79.3093 243.284 76.7785C242.375 76.2776 241.889 75.3122 241.957 74.3417C242.113 69.3688 242.244 64.4012 242.202 59.444C242.009 47.3903 241.852 34.9242 238.206 23.4236C237.344 21.0337 236.028 17.8872 233.876 16.7236C233.484 16.6035 233.092 16.6244 232.57 16.781C230.841 17.3602 228.772 18.7586 227.117 19.9327C222.138 23.4392 217.422 27.4676 213.321 31.9656C209.429 36.474 205.773 41.2068 202.404 46.1223C201.025 48.1469 199.687 50.2028 198.376 52.2796C198.157 52.624 197.891 52.9214 197.593 53.1615C191.946 57.7169 185.62 61.4373 178.95 64.4012C159.278 73.1415 135.866 74.7017 115.724 66.7598C115.029 66.4832 114.694 65.7005 114.966 65.0065C115.196 64.4221 115.797 64.0881 116.392 64.1664L116.387 64.1612Z" fill="black"/>
<path d="M266.001 150.651C281.285 143.925 297.75 139.725 314.418 138.577C315.228 138.53 315.923 139.14 315.97 139.949C316.017 140.706 315.479 141.363 314.747 141.483C312.72 141.822 310.699 142.151 308.688 142.527C298.627 144.332 288.687 146.79 278.96 149.942C275.074 151.21 271.23 152.587 267.401 154.033C265.191 154.81 263.869 151.685 266.001 150.651Z" fill="black"/>
<path d="M268.284 162.658C280.789 160.514 293.769 160.681 306.165 163.441C306.954 163.618 307.45 164.406 307.267 165.194C307.1 165.925 306.421 166.4 305.695 166.326C302.613 166.029 299.531 165.784 296.46 165.601C293.383 165.419 290.306 165.325 287.23 165.309C281.071 165.283 274.928 165.648 268.801 166.285C266.476 166.462 266.001 163.138 268.289 162.658H268.284Z" fill="black"/>
<path d="M152.733 180.295C139.553 180.906 126.573 182.883 113.66 185.534C112.871 185.686 112.109 185.164 111.957 184.376C111.827 183.682 112.218 183.009 112.85 182.758C119.161 180.311 125.821 178.824 132.533 177.984C139.24 177.149 146.052 176.93 152.78 177.571C154.435 177.759 154.394 180.175 152.727 180.295H152.733Z" fill="black"/>
<path d="M153.579 185.205C148.883 188.435 141.935 192.693 137.077 195.798C131.546 199.289 126.15 202.921 120.581 206.385C119.887 206.813 118.973 206.599 118.539 205.905C118.173 205.31 118.278 204.564 118.748 204.089C123.48 199.362 128.835 195.313 134.434 191.681C140.055 188.07 145.984 184.903 152.304 182.685C153.866 182.163 154.932 184.271 153.579 185.21V185.205Z" fill="black"/>
<path d="M215.703 165.695C215.583 172.4 213.504 179.09 209.67 184.668C208.698 186.119 206.729 186.5 205.287 185.513C203.751 184.48 203.464 182.294 204.665 180.89C206.478 178.761 207.993 176.335 209.126 173.715C210.27 171.091 211.033 168.278 211.393 165.382C211.801 162.695 215.677 162.987 215.698 165.69L215.703 165.695Z" fill="black"/>
<path d="M197.389 148.413C198.287 146.039 201.547 145.141 204.932 144.212C207.209 143.586 209.142 143.497 212.908 143.341C220.973 143.012 224.092 143.868 226.103 144.645C227.942 145.355 228.871 145.731 229.436 146.675C231.337 149.843 227.56 155.708 224.071 158.844C222.692 160.086 218.748 163.623 213.049 163.336C208.724 163.117 205.841 160.816 203.913 159.282C202.633 158.259 195.811 152.582 197.389 148.418V148.413Z" fill="#4F3B24"/>
<path d="M194.573 147.348C195.89 143.784 199.818 142.302 203.015 141.28C204.833 140.638 206.943 140.257 208.829 140.173C214.945 139.96 221.261 139.547 227.101 141.854C234.121 144.176 233.818 149.983 230.324 155.363C224.588 164.276 213.916 169.363 204.378 162.867C199.787 159.679 192.474 153.767 194.573 147.354V147.348ZM200.204 149.477C199.771 151.215 202.388 154.074 203.673 155.436C205.815 157.555 208.301 159.762 211.19 160.55C215.577 161.823 220.085 159.522 223.047 156.334C224.912 154.299 226.887 151.669 227.142 148.909C227.163 148.423 227.028 148.188 226.981 148.141C226.97 148.157 227.033 148.22 226.897 148.141C225.33 147.442 223.512 146.873 221.752 146.706C218.534 146.362 215.175 146.54 211.853 146.733C209.215 146.868 207.167 147.082 204.822 147.708C203.255 148.152 201.254 148.408 200.194 149.483L200.204 149.477Z" fill="black"/>
<path d="M216.957 214.197C214.878 219.217 208.85 221.085 204.091 218.596C202.607 217.845 201.296 216.754 200.314 215.423C199.886 214.844 200.006 214.025 200.586 213.597C201.85 212.71 202.795 214.354 203.788 214.886C205.313 215.909 207.152 216.597 208.965 216.582C211.519 216.623 213.708 215.235 215.311 213.247C215.99 212.36 217.39 213.185 216.951 214.202L216.957 214.197Z" fill="black"/>
<path d="M184.597 193.33C188.755 192.651 194.495 191.227 200.696 188.002C204.78 185.878 208.04 183.509 210.521 181.412C212.219 182.507 214.46 183.723 217.218 184.709C220.885 186.019 224.165 186.452 226.568 186.578C226.474 188.075 225.758 197.008 218.263 202.728C210.788 208.431 200.701 207.784 193.764 203.714C188.206 200.452 185.599 195.537 184.591 193.319L184.597 193.33Z" fill="#E85834"/>
<path d="M239.721 176.481C233.855 190.544 217.771 193.288 206.891 182.857L212.616 183.05C210.814 184.809 208.902 186.411 206.849 187.799C197.844 194.154 186.049 196.403 175.44 193.429C172.023 192.516 168.623 191.097 165.567 189.349C163.498 188.185 161.55 186.854 159.685 185.331C158.98 184.757 158.876 183.723 159.45 183.019C160.03 182.309 161.08 182.21 161.78 182.795C163.441 184.141 165.306 185.31 167.223 186.327C169.156 187.329 171.172 188.148 173.23 188.801C185.558 192.803 199.322 188.456 207.047 178.114C207.047 178.114 208.301 177.18 208.306 177.18C209.785 176.048 212.01 176.616 212.778 178.307C214.82 182.748 220.07 185.477 224.985 184.877C230.204 184.371 234.633 180.238 236.096 175.281C236.848 172.677 240.666 173.903 239.721 176.476V176.481Z" fill="black"/>
<path d="M227.325 186.959C227.268 194.969 223.282 203.5 215.985 207.596C205.982 213.237 193.053 208.828 186.341 200.249C184.706 198.115 183.353 195.788 182.345 193.341C181.917 192.302 182.413 191.112 183.453 190.69C184.45 190.278 185.584 190.726 186.054 191.666C187.166 193.669 188.404 195.574 189.914 197.244C197.222 205.462 210.756 208.4 218.33 198.976C221.109 195.616 222.765 191.227 223.267 186.698C223.611 184.157 227.305 184.392 227.325 186.959Z" fill="black"/>
<path d="M203.344 184.924C207.324 186.64 210.589 190.011 212.083 194.055C212.95 196.492 209.518 197.995 208.306 195.725C206.917 192.912 204.394 190.773 201.432 189.849C197.938 188.576 199.896 183.515 203.344 184.929V184.924Z" fill="black"/>
<path d="M100.189 89.3283C96.344 78.313 89.6317 68.3725 80.5322 61.0359C77.5182 58.5938 74.29 56.4022 70.879 54.4767C69.8917 53.9288 69.5417 52.6817 70.0954 51.6955C70.6126 50.7823 71.7409 50.4223 72.6863 50.8293C80.4016 54.1897 87.2967 59.4235 92.7136 65.873C98.12 72.3122 102.085 80.0506 103.939 88.243C104.435 90.6329 101.03 91.6139 100.183 89.3231L100.189 89.3283Z" fill="black"/>
<path d="M205.115 57.6022C207.079 45.611 214.423 34.5069 223.846 26.9877C225.983 25.3857 228.589 28.2191 226.813 30.202C222.969 34.3556 219.464 38.7649 216.528 43.5864C213.572 48.4079 211.257 53.4903 208.99 58.698C208.035 60.8583 204.791 59.9242 205.109 57.6022H205.115Z" fill="black"/>
<path d="M212.449 60.2999C211.028 55.6505 214.763 50.6046 219.474 50.0254C221.156 49.7906 225.607 50.0307 224.63 52.6762C224.134 53.7303 222.818 53.6207 221.867 53.9807C220.613 54.346 219.391 54.9304 218.471 55.781C217.061 57.002 216.288 58.6614 215.552 60.4407C214.972 61.8496 212.882 61.74 212.438 60.2999H212.449Z" fill="black"/>
<path d="M94.4112 94.1549C92.3427 93.3461 91.2875 91.4363 90.2271 89.636C89.9085 89.0151 89.6055 88.3889 89.3966 87.6897C89.0832 86.6409 89.6786 85.5398 90.7234 85.2215C92.0449 84.8197 93.0844 85.9625 93.9933 86.6878C94.9963 87.6271 95.9469 88.6185 96.673 89.7874C97.0126 90.3874 97.2946 91.0345 97.3782 91.8329C97.5924 93.4296 95.8947 94.7341 94.406 94.1549H94.4112Z" fill="black"/>
<path d="M84.993 92.1929L92.4627 95.6316C94.4425 96.4822 94.7298 99.3417 93.0008 100.594C89.2293 103.725 85.928 107.487 83.264 111.714C82.6111 112.752 81.232 113.065 80.1925 112.413C79.2262 111.802 78.8866 110.576 79.3672 109.574C81.7178 104.654 84.8729 100.062 88.7018 96.0386L89.2398 101.001L82.6894 96.0334C80.5739 94.3845 82.5693 91.1075 84.9982 92.1929H84.993Z" fill="black"/>
<path d="M92.9225 51.7632C91.2509 51.7632 89.8615 50.443 89.7936 48.7628C89.5115 41.9793 90.4622 28.8506 99.9639 17.1151C110.672 3.88203 128.495 -2.48404 145.367 0.892065C164.465 4.71692 174.379 19.3589 176.96 23.7577C177.837 25.2501 177.336 27.1651 175.842 28.0418C174.348 28.9132 172.431 28.4175 171.553 26.9251C169.302 23.095 160.672 10.342 144.135 7.02853C129.524 4.10119 114.099 9.60627 104.837 21.0495C96.323 31.5692 95.8581 43.7534 96.0566 48.5019C96.1298 50.2291 94.7821 51.6901 93.0531 51.758C93.0113 51.758 92.9643 51.758 92.9225 51.758V51.7632Z" fill="black"/>
<path d="M108.437 59.8828C107.465 59.8828 106.493 59.8671 105.517 59.8358C103.788 59.7784 102.429 58.3278 102.487 56.6006C102.544 54.8734 103.981 53.5324 105.725 53.5741C114.564 53.8715 123.104 52.7236 131.102 50.1563C146.234 45.3087 159.952 35.3943 163.796 32.4722C165.839 30.9224 167.672 29.43 169.443 27.9846C176.333 22.3804 181.791 17.9346 190.024 17.9346C190.133 17.9346 190.243 17.9346 190.353 17.9346C192.118 17.9607 197.499 18.0337 201.871 21.9368C208.264 27.635 207.282 36.7406 207.016 38.5095C206.76 40.221 205.167 41.4003 203.459 41.1498C201.745 40.8941 200.565 39.3026 200.816 37.5963C200.925 36.8554 201.772 30.2493 197.697 26.6122C195.064 24.2693 191.575 24.2171 190.259 24.2015C184.132 24.1337 179.859 27.588 173.397 32.8426C171.584 34.3194 169.709 35.843 167.583 37.4606C163.54 40.5341 149.092 50.9703 133.008 56.1257C125.209 58.6252 116.951 59.888 108.426 59.888L108.437 59.8828Z" fill="black"/>
<path d="M95.1165 52.9792C94.1658 52.9792 93.2308 52.5513 92.6144 51.7373C91.5697 50.3545 91.8465 48.3925 93.2255 47.3541C102.842 40.101 113.258 33.8966 124.191 28.9134C138.42 22.4221 153.527 17.9815 169.082 15.7168C170.791 15.4716 172.389 16.6509 172.634 18.3624C172.885 20.0739 171.699 21.6655 169.986 21.9107C155.015 24.0919 140.483 28.3655 126.792 34.6063C116.277 39.4017 106.258 45.3712 97.0022 52.3478C96.438 52.7757 95.7746 52.9792 95.1165 52.9792Z" fill="black"/>
<path d="M59.5959 123.7C71.9288 119.525 84.2617 115.351 96.5946 111.176C97.5453 110.164 98.9452 108.891 100.878 107.816C103.035 106.611 104.916 106.172 105.772 105.984C130.402 100.448 142.829 99.2896 142.829 99.2896C142.829 99.2896 165.656 97.1658 175.81 100.171C177.806 100.761 179.77 101.481 179.77 101.481C181.995 102.295 183.896 103.125 185.427 103.85C187.334 102.9 189.992 101.82 193.299 101.179C196.031 100.651 198.439 100.568 200.33 100.646C201.39 99.2739 203.01 97.4267 205.297 95.6056C205.297 95.6056 208.103 93.3723 211.597 91.7755C219.239 88.2794 231.128 87.8776 245.315 85.1799C245.315 85.1799 255.658 83.2179 269.396 83.4631C269.965 83.4735 271.35 83.5153 272.838 84.2667C275.769 85.7486 276.85 88.8586 277.999 92.1721C279.055 95.209 279.885 97.7189 278.574 99.6183C278.02 100.417 277.258 100.86 276.699 101.105C276.913 102.645 277.169 104.857 277.31 107.518C277.712 115.001 278.229 124.67 273.946 133.786C272.734 136.369 268.127 146.185 257.434 150.589C245.681 155.426 234.419 150.495 229.948 148.538C211.675 140.539 205.031 122.39 203.621 118.21C202.142 118.069 200.387 118.022 198.423 118.21C194.965 118.544 192.155 119.489 190.17 120.35C190.729 124.211 191.753 134.903 185.887 146.315C180.214 157.356 171.438 162.538 168.304 164.338C165.891 165.721 146.751 176.298 128.709 167.699C118.858 163.002 113.806 154.732 109.142 147.082C103.934 138.55 101.5 130.572 100.272 125.244L64.1927 135.936C62.6622 131.866 61.1369 127.791 59.6064 123.721L59.5959 123.7Z" fill="black"/>
<path d="M144.02 156.245C146.705 152.566 149.698 149.472 152.665 146.346C155.527 143.226 158.411 139.912 161.299 136.813C167.286 130.447 172.786 123.856 178.621 117.219C179.55 116.175 181.154 116.086 182.194 117.02C182.941 117.688 183.197 118.706 182.935 119.609C181.629 124.096 179.707 128.349 177.466 132.435C172.964 140.601 167.019 148.037 159.68 153.834C156.107 156.819 152.247 159.501 147.802 161.233C146.125 161.886 144.234 161.061 143.581 159.386C143.153 158.295 143.356 157.116 144.014 156.245H144.02Z" fill="#FFF3DC"/>
<path d="M140.525 141.264C144.328 137.533 148.016 133.677 151.312 129.497C154.702 125.385 157.737 121.039 160.484 116.457C161.195 115.283 162.72 114.902 163.895 115.612C164.914 116.227 165.337 117.459 164.966 118.539C163.086 124.002 160.218 129.121 156.76 133.745C153.239 138.295 149.175 142.448 144.646 145.981C141.486 148.277 137.824 144.061 140.525 141.264Z" fill="#FFF3DC"/>
<path d="M239.899 137.694C241.596 134.438 243.743 131.699 245.937 128.86C247.776 126.397 250.273 122.885 252.19 120.532C256.196 115.559 261.362 108.729 265.494 103.86C267.166 101.877 270.42 103.412 269.976 105.942C268.597 113.529 265.337 120.616 261.117 127.023C258.986 130.227 256.374 133.092 253.569 135.727C250.764 138.415 247.739 140.862 244.083 142.365C241.215 143.533 238.431 140.382 239.904 137.7L239.899 137.694Z" fill="#FFF3DC"/>
<path d="M235.986 119.995C240.285 116.212 244.349 112.23 248.152 107.967C250.424 105.416 252.534 102.77 254.551 99.9888C255.35 98.8565 256.922 98.5955 258.045 99.4096C258.985 100.093 259.309 101.314 258.897 102.347C257.021 107.007 254.237 111.281 250.988 115.085C247.682 118.8 243.947 122.15 239.841 124.942C236.566 127.008 233.191 122.635 235.991 120L235.986 119.995Z" fill="#FFF3DC"/>
<path d="M377.148 119.698C375.335 117.537 375.576 114.052 375.759 111.328C375.92 108.943 376.041 107.195 377.132 105.677C378.177 104.226 380.021 103.115 389.82 102.624C402.456 101.993 404.138 103.605 404.802 104.456C406.003 105.995 406.071 107.873 406.176 110.717C406.28 113.483 406.405 116.927 404.493 119.118C402.937 120.898 400.988 120.752 392.265 120.95C380.841 121.211 378.726 121.587 377.143 119.698H377.148Z" fill="#B26E24"/>
<path d="M382.936 124.29C378.423 124.29 376.521 123.825 374.745 121.707C372.118 118.581 372.416 114.26 372.63 111.109C372.807 108.526 372.974 106.089 374.589 103.845C376.647 100.98 380.173 99.9681 389.669 99.4932C401.892 98.8775 405.47 100.203 407.283 102.53C409.101 104.868 409.2 107.524 409.315 110.597C409.435 113.744 409.592 118.049 406.86 121.174C404.541 123.825 402.059 123.877 394.678 124.029C393.958 124.044 393.179 124.06 392.338 124.081C390.729 124.117 389.309 124.159 388.05 124.19C386.033 124.248 384.351 124.29 382.936 124.29ZM395.034 105.609C393.629 105.609 391.962 105.651 389.982 105.75C382.236 106.136 380.105 106.919 379.682 107.503C379.133 108.265 379.039 109.35 378.888 111.542C378.741 113.629 378.548 116.494 379.546 117.683C379.608 117.757 379.635 117.777 379.635 117.777C380.246 118.137 383.615 118.044 387.877 117.929C389.147 117.892 390.578 117.856 392.197 117.819C393.044 117.798 393.827 117.783 394.548 117.767C399.594 117.663 401.662 117.6 402.138 117.057C403.235 115.805 403.13 113.05 403.047 110.832C402.953 108.359 402.885 107.122 402.352 106.407C402.065 106.245 400.592 105.609 395.028 105.609H395.034Z" fill="black"/>
<path d="M380.653 121.106C379.285 135.514 378.82 145.762 378.82 153.631C378.82 156.428 379.316 161.594 376.067 166.462C373.633 170.109 370.995 170.652 367.354 175.322C367.354 175.322 364.669 178.766 362.48 184.324C357.748 196.346 359.905 217.756 358.944 239.009C358.333 252.587 359.179 266.195 358.944 279.788C358.918 281.396 358.829 285.899 361.545 290.172C362.512 291.691 364.131 293.658 367.354 295.672C369.454 296.987 375.241 300.196 392.119 300.405C407.299 300.593 411.269 298.099 412.757 297.045C416.45 294.425 418.388 291.065 418.717 290.475C421.319 285.857 421.329 281.359 421.34 279.632C421.831 213.164 421.047 205.18 419.48 189.223C419.428 188.681 419.282 187.162 418.717 185.252C417.657 181.657 415.876 179.215 414.434 177.31C409.482 170.746 408.369 170.256 406.792 167.84C403.788 163.237 403.673 158.651 403.428 153.025C403.047 144.228 402.394 134.152 401.401 121.273C398.105 121.112 394.689 121.007 391.153 120.981C387.527 120.95 384.022 121.002 380.648 121.112L380.653 121.106Z" fill="#B26E24"/>
<path d="M393.707 303.541C393.179 303.541 392.636 303.541 392.082 303.531C373.669 303.301 367.662 299.555 365.693 298.318C362.7 296.45 360.48 294.331 358.897 291.842C355.69 286.791 355.778 281.49 355.81 279.747C355.909 274.002 355.81 268.147 355.716 262.485C355.585 254.752 355.455 246.758 355.81 238.858C356.108 232.304 356.102 225.729 356.097 219.374C356.092 204.685 356.081 191.994 359.56 183.165C361.89 177.258 364.753 173.543 364.878 173.387C366.915 170.772 368.722 169.28 370.175 168.075C371.522 166.958 372.499 166.149 373.455 164.714C375.806 161.192 375.743 157.419 375.691 154.669C375.686 154.294 375.68 153.944 375.68 153.626C375.68 144.651 376.286 133.912 377.529 120.804L377.791 118.064L380.549 117.971C384.069 117.851 387.648 117.809 391.184 117.84C394.621 117.871 398.11 117.971 401.563 118.138L404.321 118.273L404.535 121.023C405.549 134.131 406.191 144.254 406.567 152.88L406.588 153.365C406.813 158.588 406.975 162.366 409.425 166.118C410.01 167.01 410.527 167.6 411.383 168.57C412.548 169.89 414.142 171.701 416.947 175.411C418.263 177.159 420.473 180.081 421.731 184.355C422.374 186.536 422.546 188.248 422.609 188.895C424.187 204.956 424.975 213.013 424.484 279.648C424.469 281.615 424.432 286.718 421.46 292.004C420.697 293.356 418.503 296.81 414.58 299.591C412.167 301.303 407.382 303.536 393.712 303.536L393.707 303.541ZM383.521 124.159C382.471 135.822 381.954 145.486 381.954 153.631C381.954 153.918 381.959 154.231 381.964 154.565C382.022 157.738 382.111 163.044 378.673 168.195C377.206 170.397 375.665 171.67 374.176 172.901C372.833 174.013 371.444 175.166 369.825 177.238C369.804 177.264 367.37 180.441 365.395 185.456C362.355 193.179 362.36 205.901 362.371 219.368C362.371 225.797 362.376 232.445 362.073 239.14C361.723 246.847 361.853 254.742 361.984 262.381C362.078 268.095 362.177 273.997 362.078 279.83C362.052 281.265 361.989 285.017 364.188 288.482C364.867 289.552 366.111 291.19 369.015 293.006C373.319 295.693 381.108 297.128 392.161 297.264C398.826 297.353 407.492 296.93 410.95 294.483C413.917 292.38 415.562 289.703 415.996 288.936C418.179 285.059 418.206 281.265 418.216 279.648C418.707 213.3 417.923 205.353 416.372 189.521C416.325 189.03 416.2 187.742 415.719 186.129C414.852 183.191 413.436 181.167 411.942 179.184C409.284 175.662 407.779 173.961 406.682 172.713C405.747 171.654 405.006 170.814 404.175 169.541C400.79 164.349 400.565 159.146 400.325 153.636L400.304 153.151C399.96 145.214 399.38 135.978 398.497 124.269C396.037 124.175 393.571 124.117 391.137 124.097C388.609 124.076 386.06 124.097 383.521 124.149V124.159Z" fill="black"/>
<path d="M359.806 201.34C369.6 202.488 381.175 203.109 394.119 202.373C403.104 201.861 411.295 200.781 418.571 199.451L421.423 268.637C408.563 270.208 394.569 271.262 379.587 271.455C373.115 271.539 366.842 271.455 360.783 271.236C360.673 267.479 360.568 263.711 360.474 259.934C359.989 240.162 359.774 220.631 359.806 201.345V201.34Z" fill="#FEC400"/>
<path d="M385.892 205.619C377.07 205.619 368.237 205.233 359.529 204.46C357.805 204.309 356.531 202.785 356.682 201.063C356.834 199.341 358.359 198.073 360.083 198.22C371.59 199.237 383.317 199.571 394.945 199.216C403.741 198.945 412.543 198.272 421.11 197.218C422.828 197.004 424.39 198.225 424.604 199.942C424.819 201.658 423.596 203.218 421.878 203.432C413.123 204.513 404.123 205.196 395.138 205.478C392.061 205.572 388.98 205.619 385.892 205.619Z" fill="black"/>
<path d="M384.999 274.628C375.962 274.628 366.91 274.242 357.988 273.47C356.264 273.318 354.984 271.805 355.136 270.083C355.287 268.361 356.807 267.077 358.526 267.234C370.326 268.252 382.361 268.585 394.282 268.231C403.303 267.959 412.329 267.286 421.115 266.232C422.828 266.029 424.395 267.25 424.599 268.966C424.808 270.683 423.581 272.243 421.862 272.447C412.888 273.527 403.674 274.211 394.464 274.487C391.314 274.581 388.154 274.628 384.994 274.628H384.999Z" fill="black"/>
<path d="M393.707 303.541C393.179 303.541 392.636 303.541 392.082 303.531C373.669 303.301 367.662 299.555 365.693 298.318C362.7 296.45 360.48 294.331 358.897 291.842C355.69 286.791 355.778 281.49 355.81 279.747C355.909 274.002 355.81 268.147 355.716 262.485C355.585 254.752 355.455 246.758 355.81 238.858C356.108 232.304 356.102 225.729 356.097 219.374C356.092 204.685 356.081 191.994 359.56 183.165C361.89 177.258 364.753 173.543 364.878 173.387C366.915 170.772 368.722 169.28 370.175 168.075C371.522 166.958 372.499 166.149 373.455 164.714C375.806 161.192 375.743 157.419 375.691 154.669C375.686 154.294 375.68 153.944 375.68 153.626C375.68 144.651 376.286 133.912 377.529 120.804L377.791 118.064L380.549 117.971C384.069 117.851 387.648 117.809 391.184 117.84C394.621 117.871 398.11 117.971 401.563 118.138L404.321 118.273L404.535 121.023C405.549 134.131 406.191 144.254 406.567 152.88L406.588 153.365C406.813 158.588 406.975 162.366 409.425 166.118C410.01 167.01 410.527 167.6 411.383 168.57C412.548 169.89 414.142 171.701 416.947 175.411C418.263 177.159 420.473 180.081 421.731 184.355C422.374 186.536 422.546 188.248 422.609 188.895C424.187 204.956 424.975 213.013 424.484 279.648C424.469 281.615 424.432 286.718 421.46 292.004C420.697 293.356 418.503 296.81 414.58 299.591C412.167 301.303 407.382 303.536 393.712 303.536L393.707 303.541ZM383.521 124.159C382.471 135.822 381.954 145.486 381.954 153.631C381.954 153.918 381.959 154.231 381.964 154.565C382.022 157.738 382.111 163.044 378.673 168.195C377.206 170.397 375.665 171.67 374.176 172.901C372.833 174.013 371.444 175.166 369.825 177.238C369.804 177.264 367.37 180.441 365.395 185.456C362.355 193.179 362.36 205.901 362.371 219.368C362.371 225.797 362.376 232.445 362.073 239.14C361.723 246.847 361.853 254.742 361.984 262.381C362.078 268.095 362.177 273.997 362.078 279.83C362.052 281.265 361.989 285.017 364.188 288.482C364.867 289.552 366.111 291.19 369.015 293.006C373.319 295.693 381.108 297.128 392.161 297.264C398.826 297.353 407.492 296.93 410.95 294.483C413.917 292.38 415.562 289.703 415.996 288.936C418.179 285.059 418.206 281.265 418.216 279.648C418.707 213.3 417.923 205.353 416.372 189.521C416.325 189.03 416.2 187.742 415.719 186.129C414.852 183.191 413.436 181.167 411.942 179.184C409.284 175.662 407.779 173.961 406.682 172.713C405.747 171.654 405.006 170.814 404.175 169.541C400.79 164.349 400.565 159.146 400.325 153.636L400.304 153.151C399.96 145.214 399.38 135.978 398.497 124.269C396.037 124.175 393.571 124.117 391.137 124.097C388.609 124.076 386.06 124.097 383.521 124.149V124.159Z" fill="black"/>
<path d="M377.832 232.919C377.838 232.951 377.843 232.982 377.843 233.013C377.843 233.107 377.817 233.227 377.77 233.373C377.691 233.577 377.592 233.759 377.472 233.926C377.352 234.093 377.216 234.229 377.065 234.328C376.971 234.396 376.877 234.433 376.788 234.433C376.73 234.433 376.673 234.417 376.615 234.386C376.323 234.213 375.983 234.057 375.597 233.916C375.21 233.775 374.808 233.645 374.39 233.54C373.972 233.436 373.554 233.347 373.136 233.285C372.807 233.248 372.499 233.227 372.217 233.227H371.992C371.522 233.248 371.104 233.316 370.744 233.431C370.384 233.546 370.196 233.702 370.18 233.9C370.18 234.104 370.237 234.266 370.352 234.386C370.467 234.506 370.608 234.61 370.781 234.694C370.953 234.777 371.131 234.855 371.308 234.923C371.491 234.991 371.637 235.064 371.752 235.147C372.102 235.388 372.489 235.581 372.907 235.721C373.324 235.862 373.753 236.008 374.192 236.144C374.625 236.285 375.064 236.447 375.497 236.629C375.931 236.812 376.344 237.052 376.741 237.355C377.091 237.637 377.347 237.955 377.509 238.31C377.67 238.664 377.77 239.019 377.796 239.369V239.614C377.796 239.875 377.765 240.126 377.702 240.36C377.618 240.673 377.514 240.913 377.394 241.096C377.258 241.284 377.085 241.482 376.882 241.696C376.673 241.91 376.443 242.114 376.182 242.301C375.921 242.489 375.639 242.667 375.33 242.823C375.022 242.98 374.698 243.11 374.348 243.215C374.275 243.439 374.239 243.663 374.239 243.888C374.239 244.018 374.254 244.154 374.28 244.284C374.343 244.634 374.401 244.973 374.442 245.307C374.468 245.469 374.489 245.662 374.495 245.876V245.97C374.495 246.158 374.474 246.325 374.442 246.481C374.401 246.674 374.322 246.836 374.207 246.972C374.103 247.086 373.946 247.144 373.748 247.144H373.674C373.408 247.128 373.199 247.076 373.037 246.993C372.875 246.909 372.75 246.799 372.656 246.669C372.562 246.539 372.494 246.403 372.442 246.272C372.389 246.142 372.337 246.001 372.28 245.855C372.181 245.631 372.113 245.385 372.081 245.114C372.05 244.848 372.034 244.592 372.034 244.352C372.034 244.112 372.034 243.898 372.05 243.695C372.06 243.491 372.066 243.329 372.066 243.209C371.742 243.126 371.345 243.011 370.875 242.865C370.404 242.719 369.94 242.51 369.496 242.228C369.052 241.947 368.665 241.576 368.346 241.117C368.028 240.658 367.855 240.073 367.845 239.379C367.845 239.16 367.913 238.988 368.054 238.847C368.195 238.711 368.367 238.623 368.571 238.576C368.681 238.555 368.785 238.539 368.89 238.539C368.994 238.539 369.104 238.55 369.214 238.576C369.433 238.623 369.631 238.727 369.804 238.889C370.138 239.212 370.493 239.557 370.875 239.912C371.251 240.266 371.71 240.527 372.243 240.694C372.536 240.793 372.833 240.872 373.142 240.929C373.403 240.981 373.659 241.013 373.899 241.013H373.993C374.265 241.007 374.515 240.955 374.75 240.861C374.986 240.767 375.174 240.626 375.309 240.428C375.445 240.251 375.513 240.084 375.513 239.927C375.513 239.833 375.487 239.75 375.44 239.672C375.309 239.452 375.08 239.259 374.745 239.082C374.411 238.91 373.998 238.743 373.502 238.581C373.006 238.419 372.494 238.247 371.956 238.059C371.418 237.871 370.885 237.647 370.357 237.396C369.83 237.146 369.365 236.838 368.968 236.478C368.571 236.118 368.268 235.69 368.059 235.205C367.908 234.855 367.834 234.464 367.834 234.031C367.834 233.853 367.845 233.666 367.866 233.472C367.918 233.06 368.07 232.721 368.32 232.455C368.576 232.189 368.879 231.964 369.24 231.782C369.6 231.599 369.987 231.448 370.394 231.333C370.807 231.218 371.193 231.103 371.564 230.994C371.564 230.676 371.569 230.316 371.585 229.909C371.601 229.502 371.642 229.115 371.721 228.75C371.799 228.385 371.925 228.061 372.102 227.78C372.28 227.498 372.525 227.32 372.828 227.253C372.943 227.221 373.048 227.206 373.136 227.206C373.251 227.206 373.351 227.226 373.434 227.263C373.591 227.341 373.711 227.451 373.795 227.602C373.878 227.748 373.936 227.926 373.972 228.124C374.009 228.322 374.04 228.515 374.066 228.693C374.108 229.011 374.134 229.376 374.139 229.794C374.145 230.211 374.186 230.592 374.259 230.942C374.369 230.957 374.505 230.973 374.683 230.994C374.855 231.015 375.043 231.041 375.247 231.083C375.445 231.124 375.644 231.166 375.842 231.213C376.041 231.26 376.203 231.307 376.328 231.354C376.772 231.516 377.122 231.745 377.378 232.032C377.634 232.325 377.791 232.622 377.838 232.935L377.832 232.919Z" fill="#B26E24"/>
<path d="M379.629 233.044H380.079C380.705 233.571 381.129 234.198 381.353 234.918C382.889 234.125 384.137 233.728 385.109 233.728H385.229C386.091 233.728 386.942 234.234 387.778 235.252C387.909 235.252 389.157 234.725 391.534 233.671C392.234 233.483 392.803 233.389 393.247 233.389H393.503C395.112 233.389 395.922 234.448 395.922 236.567V237.125C395.922 237.6 395.812 239.233 395.598 242.035C395.64 242.307 395.681 243.089 395.728 244.389C395.577 245.171 395.305 245.563 394.903 245.563C394.396 245.563 393.911 245.171 393.435 244.389C393.352 243.971 393.305 243.668 393.305 243.491V243.141C393.305 242.327 393.388 240.595 393.561 237.949C393.561 236.708 393.117 236.087 392.223 236.087C391.555 236.087 390.343 236.755 388.598 238.09C388.598 238.852 388.619 240.397 388.661 242.724C388.661 244.618 388.217 245.563 387.334 245.563C386.692 245.563 386.31 244.686 386.19 242.933C386.232 241.722 386.253 240.642 386.253 239.687V239.129C386.253 237.235 385.637 236.29 384.404 236.29C383.286 236.29 382.246 236.937 381.29 238.236C381.118 240.355 381.035 241.555 381.035 241.832C381.332 243.428 381.484 244.378 381.484 244.67C381.484 245.255 381.102 245.62 380.34 245.777C379.447 245.777 379.003 245.083 379.003 243.695C378.961 243.089 378.94 242.051 378.94 240.585V234.777L378.877 234.359C378.877 233.838 379.128 233.399 379.635 233.044H379.629Z" fill="#B26E24"/>
<path d="M398.053 234.302C398.831 234.302 399.28 234.84 399.4 235.91C399.228 237.308 399.082 239.291 398.951 241.858C399.035 242.85 399.145 243.643 399.27 244.232C399.004 245.072 398.622 245.49 398.116 245.49H397.792C397.259 245.49 396.935 244.932 396.831 243.815C396.831 243.778 396.81 243.638 396.768 243.397C396.982 240.908 397.086 239.364 397.086 238.774C397.086 238.012 397.003 236.755 396.831 235.002C396.831 234.6 397.238 234.365 398.048 234.302H398.053ZM398.116 228.844H398.502C399.27 228.844 399.698 229.335 399.787 230.321V230.389C399.672 231.693 399.118 232.346 398.121 232.346C397.442 232.346 397.034 231.855 396.904 230.879V230.671C397.133 229.455 397.536 228.844 398.121 228.844H398.116Z" fill="#B26E24"/>
<path d="M401.647 228.797C402.686 228.797 403.209 229.319 403.209 230.357C403.25 230.357 403.271 230.519 403.271 230.848C403.099 233.159 403.015 234.667 403.015 235.377V236.436C403.015 237.475 403.036 238.44 403.078 239.332C403.036 239.791 403.015 240.287 403.015 240.825C403.015 241.305 403.099 242.463 403.271 244.295V244.503C403.099 245.161 402.712 245.495 402.106 245.495H401.709C401.02 245.213 400.67 244.743 400.67 244.075C400.842 241.748 400.926 239.463 400.926 237.219V236.092C400.926 233.989 400.842 231.818 400.67 229.585C400.67 229.157 400.994 228.896 401.642 228.807L401.647 228.797Z" fill="#B26E24"/>
<path d="M405.136 228.797C405.784 228.797 406.176 229.361 406.301 230.483C405.956 232.439 405.789 235.007 405.789 238.19C405.831 238.524 405.852 238.712 405.852 238.759C407.45 237.704 409.106 236.254 410.814 234.407C411.363 233.52 411.901 233.081 412.418 233.081H412.867C413.259 233.337 413.457 233.666 413.457 234.057C413.457 234.835 412.272 236.212 409.905 238.19L409.325 238.967V239.035C410.443 239.531 411.864 240.679 413.583 242.469C414.053 243.074 414.288 243.585 414.288 244.003C414.288 244.733 413.99 245.177 413.389 245.344C413.113 245.344 411.99 244.431 410.031 242.609C408.803 241.665 407.774 241.122 406.938 240.992C406.938 241.054 406.594 241.409 405.909 242.051V242.469C406.123 243.533 406.228 244.118 406.228 244.227V244.509C406.228 245.099 405.883 245.422 405.199 245.485H405.126C404.4 245.485 403.992 244.921 403.909 243.799C403.867 243.731 403.846 243.59 403.846 243.382C403.888 237.595 403.977 233.128 404.102 229.982C404.102 229.189 404.447 228.792 405.131 228.792L405.136 228.797Z" fill="#B26E24"/>
<path d="M372.797 188.665C371.308 186.071 372.646 182.617 373.983 180.718C376.098 177.712 380.58 175.228 382.811 176.762C384.926 178.218 384.378 182.867 382.701 185.758C380.925 188.816 376.976 191.462 374.437 190.308C373.497 189.886 373.032 189.066 372.802 188.665H372.797Z" fill="#FFF3DC"/>
<path d="M145.649 327.587C147.394 327.273 151.787 326.23 155.302 322.395C156.864 320.688 157.789 318.935 158.342 317.599C161.142 318.199 165.311 319.107 170.346 320.266C194.605 325.844 249.64 338.482 248.622 346.841C248.313 349.356 242.52 351.235 240.06 352.033C233.087 354.298 226.871 353.093 224.698 352.644C214.773 350.593 182.057 342.98 137.761 331.625C140.389 330.279 143.022 328.933 145.649 327.581V327.587Z" fill="#B26E24"/>
<path d="M231.473 356.495C229.065 356.495 226.589 356.234 224.06 355.712C214.209 353.677 181.859 346.163 136.978 334.662C135.714 334.339 134.789 333.269 134.643 331.98C134.497 330.686 135.171 329.439 136.33 328.844L144.218 324.8C144.495 324.659 144.787 324.56 145.09 324.502C146.892 324.179 150.309 323.198 152.983 320.276C154.012 319.149 154.843 317.844 155.443 316.399C156.023 315 157.517 314.218 158.995 314.536C163.007 315.397 167.061 316.3 171.046 317.213L171.245 317.26C183.233 320.015 203.291 324.633 219.981 329.548C247.143 337.548 252.315 342.395 251.73 347.217C251.223 351.365 245.942 353.416 241.027 355.007C237.981 355.994 234.784 356.489 231.467 356.489L231.473 356.495ZM146.553 330.644C187.14 340.96 216.131 347.681 225.33 349.581C230.256 350.598 234.884 350.421 239.094 349.059C242.834 347.843 244.479 346.998 245.195 346.465C243.894 345.098 238.451 341.367 215.797 334.855C199.813 330.258 181.055 325.943 169.845 323.365L169.641 323.318C166.47 322.587 163.258 321.873 160.061 321.173C159.366 322.373 158.546 323.485 157.611 324.508C154.811 327.565 150.946 329.71 146.683 330.576L146.558 330.639L146.553 330.644Z" fill="black"/>
<path d="M274.922 42.4334C276.913 42.4126 275.016 57.4302 284.095 64.8816C289.355 69.2022 295.796 68.9204 296.021 71.7539C296.209 74.1646 291.643 75.5735 288.07 78.1669C274.902 87.7369 277.466 111.808 275.382 111.766C273.178 111.719 276.296 84.9713 263.561 77.6138C258.865 74.9004 253.051 75.4274 252.91 73.5854C252.748 71.4825 260.38 71.3573 266.058 66.254C275.252 57.9886 272.896 42.4543 274.928 42.4282L274.922 42.4334Z" fill="#FEC400"/>
<path d="M295.529 89.772C296.788 89.7615 295.592 97.5835 301.333 101.466C304.666 103.715 308.74 103.569 308.881 105.045C309.001 106.303 306.112 107.033 303.851 108.385C295.514 113.368 297.138 125.907 295.817 125.886C294.422 125.86 296.397 111.928 288.337 108.098C285.364 106.684 281.687 106.96 281.593 106C281.489 104.904 286.32 104.842 289.914 102.181C295.733 97.8757 294.244 89.7824 295.524 89.772H295.529Z" fill="#FEC400"/>
</g>
<defs>
<clipPath id="clip0_73_55898">
<rect width="437" height="535" fill="white"/>
</clipPath>
</defs>
</svg>
